<svg width="143" height="886" fill="none" xmlns="http://www.w3.org/2000/svg"><path d="M114 206c48-53 130 6 179-53 0 0 77-45 144-14 91 41-5 37 200 165 206 127 143 234 81 323-28 41-47 21-101 34-67 15-177 207-231 155-95-94-122-98-196-157-69-54-53-188-92-253-57-94-25-156 16-200z" fill="url(#paint0_linear)"/><defs><linearGradient id="paint0_linear" x1="46.5" y1="262.5" x2="595.3" y2="829.2" gradientUnits="userSpaceOnUse"><stop stop-color="#139988" stop-opacity=".1"/><stop offset="1" stop-color="#fff" stop-opacity="0"/></linearGradient></defs></svg>