<svg width="70" height="227" fill="none" xmlns="http://www.w3.org/2000/svg"><path d="M14.416 198.993c15.467 17.451 42.291-1.132 58.036 18.601 0 0 24.562 15.171 46.745 5.592 29.671-12.811-1.484-12.226 66.239-52.026 67.723-39.8 48.099-75.107 28.702-104.554-8.837-13.413-15.196-7.246-32.63-11.683-21.646-5.509-56.015-68.703-73.75-52.125-31.83 29.754-40.494 30.82-64.991 49.24-22.854 17.184-18.802 61.007-31.804 81.569-19.205 30.371-9.503 50.768 3.453 65.386z" fill="url(#paint0_linear)"/><defs><linearGradient id="paint0_linear" x1="8.744" y1="174.644" x2="305.536" y2="122.388" gradientUnits="userSpaceOnUse"><stop stop-color="#139988" stop-opacity=".2"/><stop offset="1" stop-color="#fff" stop-opacity="0"/></linearGradient></defs></svg>