<svg width="67" height="67" fill="none" xmlns="http://www.w3.org/2000/svg"><g clip-path="url(#clip0)" stroke="#139988" stroke-width="2" stroke-linecap="round" stroke-linejoin="round"><path d="M33.684 45.606c6.834 0 12.375-5.54 12.375-12.375 0-6.834-5.54-12.375-12.375-12.375s-12.375 5.54-12.375 12.375 5.54 12.375 12.375 12.375z"/><path d="M14.165 23.839a21.631 21.631 0 011.625-2.81v0l-.112-6.69a2.068 2.068 0 01.735-1.618 26.786 26.786 0 018.142-4.708 2.063 2.063 0 011.762.173l5.747 3.449-.006-.004c1.081-.08 2.166-.08 3.247.003v0l5.738-3.443a2.07 2.07 0 011.767-.172 26.783 26.783 0 018.149 4.697 2.064 2.064 0 01.731 1.613l-.113 6.701v-.006a21.64 21.64 0 011.621 2.812h0l5.851 3.248a2.07 2.07 0 011.032 1.445c.557 3.107.56 6.288.009 9.396a2.073 2.073 0 01-1.034 1.45l-5.86 3.252.007-.003a21.635 21.635 0 01-1.626 2.81v0l.113 6.69a2.07 2.07 0 01-.735 1.617 26.782 26.782 0 01-8.142 4.709 2.063 2.063 0 01-1.762-.174l-5.748-3.448.006.003c-1.08.081-2.166.08-3.246-.002v0l-5.738 3.443a2.068 2.068 0 01-1.768.171 26.783 26.783 0 01-8.148-4.696 2.062 2.062 0 01-.731-1.613l.112-6.702v.007a21.633 21.633 0 01-1.62-2.813h0L8.318 39.38a2.07 2.07 0 01-1.033-1.445 26.784 26.784 0 01-.008-9.397 2.071 2.071 0 011.033-1.448l5.86-3.253-.006.003z"/></g><defs><clipPath id="clip0"><path fill="#fff" transform="translate(.5 .167)" d="M0 0h66v66H0z"/></clipPath></defs></svg>