<svg width="67" height="67" fill="none" xmlns="http://www.w3.org/2000/svg"><path d="M27.078 13.048H14.703c-1.14 0-2.063.923-2.063 2.062v12.375c0 1.14.923 2.063 2.063 2.063h12.375c1.139 0 2.062-.924 2.062-2.063V15.11c0-1.139-.923-2.062-2.062-2.062zM27.078 37.798H14.703c-1.14 0-2.063.923-2.063 2.062v12.375c0 1.14.923 2.063 2.063 2.063h12.375c1.139 0 2.062-.924 2.062-2.063V39.86c0-1.139-.923-2.062-2.062-2.062zM51.828 13.048H39.453c-1.14 0-2.063.923-2.063 2.062v12.375c0 1.14.923 2.063 2.063 2.063h12.375c1.139 0 2.062-.924 2.062-2.063V15.11c0-1.139-.923-2.062-2.062-2.062zM37.39 37.798v8.25M37.39 54.298h8.25v-16.5M45.64 41.923h8.25M53.89 50.173v4.125" stroke="#139988" stroke-width="2" stroke-linecap="round" stroke-linejoin="round"/></svg>