<svg width="590" height="429" fill="none" xmlns="http://www.w3.org/2000/svg"><path d="M22.49 426.6L.79 172.84a26.31 26.31 0 015.31-18.16L114.38 11.76a28.3 28.3 0 0111.27-8.82A29.76 29.76 0 01140.02.58l370.7 31.18c5.86.5 11.42 2.7 15.91 6.34 4.5 3.63 7.71 8.5 9.2 13.93l50.92 186.98a25.98 25.98 0 01-.09 14l-49.84 174.23-514.33-.65z" fill="#F4F4F4"/><path d="M22.49 426.6L.79 172.84a26.31 26.31 0 015.31-18.16L114.38 11.76a28.3 28.3 0 0111.27-8.82A29.76 29.76 0 01140.02.58l370.7 31.18c5.86.5 11.42 2.7 15.91 6.34 4.5 3.63 7.71 8.5 9.2 13.93l50.92 186.98a25.98 25.98 0 01-.09 14l-49.84 174.23-514.33-.65z" fill="url(#paint0_linear)"/><path d="M556.1 428.63l-552.22-.7a.9.9 0 01-.33-.02.81.81 0 01-.28-.15.73.73 0 01-.27-.56.73.73 0 01.26-.55.81.81 0 01.3-.15c.1-.03.2-.04.32-.02l552.2.68c.1-.01.2 0 .31.03a.73.73 0 01.53.7c0 .1-.02.2-.06.3a.75.75 0 01-.46.4c-.11.02-.22.03-.33.02l.02.02z" fill="#B2B6BB"/><path d="M484 375.94v19.26H546l5.5-19.26H484h.02zM554.74 354.2h2.97l5.17-18.07h-8.14v18.07zM484 355.23v19.68h67.79l2.15-7.5a1.92 1.92 0 01-.98-.87 1.8 1.8 0 01-.18-1.26c.1-.43.34-.81.7-1.08.36-.28.8-.43 1.26-.42h.23l2.45-8.57H484v.02zM553.66 354.2v-18.06H484v18.06h69.65zm-35.32-11.42c.39 0 .77.12 1.1.33.32.2.57.5.72.85a1.86 1.86 0 01-.44 2.06 2.07 2.07 0 01-3.05-.3 1.85 1.85 0 01-.33-1.05c0-.5.22-.97.6-1.32.37-.35.88-.55 1.4-.54v-.03z" fill="#DADDDF"/><path d="M479.93 399.3h14.74l.06-.22h9.63l-.01.03h.17l-.09.19h18.2l.05-.22h9.63v.03h.17l-.09.19h12.42l.91-3.19h-62.58v-60.88h80l1.02-3.56h-84.23v67.63z" fill="#DADDDF"/><path d="M483.13 396.1h62.6l.25-.9h-61.97v-19.26h-.43c-.22 0-.22-1.03 0-1.03h.44v-19.68h-.44c-.22 0-.22-1.02 0-1.02h.44v-18.07h69.65v-.48l1.09-.05v.53h8.13l.26-.91h-80.01v60.88z" fill="#B2B6BB"/><path d="M554.74 354.97c0 .24-1.08.24-1.08 0v-.77h-70.07c-.23 0-.23 1.02 0 1.02h73.84l.3-1.02h-2.97l-.02.77z" fill="#B2B6BB"/><path d="M553.66 354.97c0 .24 1.08.24 1.08 0V335.6l-1.08.06v19.31zM484 374.91h-.42c-.22 0-.22 1.03 0 1.03h67.93l.3-1.03H484zM518.34 346.6c.39-.01.77-.12 1.1-.33.32-.21.57-.51.72-.86a1.82 1.82 0 00-.44-2.06 2.08 2.08 0 00-2.16-.4c-.36.14-.67.38-.89.7a1.82 1.82 0 00.25 2.39c.38.35.89.55 1.42.55zM552.74 365.67c0 .37.11.73.33 1.04.2.3.51.55.87.7l1.03-3.61h-.23c-.52 0-1.03.2-1.4.54-.38.35-.6.83-.6 1.33z" fill="#B2B6BB"/><path d="M491.73 426.73l2.18-4.77-2.22 4.77h.04zM493.52 403.94l-5.65 22.8h2.14l7.18-22.04-3.67-.76zM494.9 399.11h9.44l.02-.03h-9.63l-.06.22-.88 3.57 1.1-3.76zM520.07 410.53l2.78-11.42h9.45l.01-.03h-9.63l-.05.22-6.8 27.43h2.26l5.22-14.46-3.24-1.74zM519.68 426.73l2.18-4.77-2.22 4.77h.04z" fill="#DADDDF"/><path opacity=".2" d="M493.9 421.96l10.53-22.66h-.17l-10.35 22.66zM491.68 426.74H490h1.68zM493.47 403.93l.05.01.27-1.07-.32 1.06z" fill="#000"/><path d="M504.34 399.1h-9.44l-1.11 3.77-.27 1.07 3.67.76-7.19 22.03h1.69l2.22-4.77 10.35-22.66h.17l.09-.2h-.18z" fill="#DADDDF"/><path opacity=".2" d="M504.34 399.1h-9.44l-1.11 3.77-.27 1.07 3.67.76-7.19 22.03h1.69l2.22-4.77 10.35-22.66h.17l.09-.2h-.18zM521.86 421.96l10.53-22.66h-.17l-10.36 22.66zM519.64 426.74h-1.55 1.55z" fill="#000"/><path d="M532.3 399.1h-9.45l-2.78 11.43 3.24 1.74-5.22 14.46h1.55l2.22-4.77 10.36-22.66h.17l.09-.2h-.18z" fill="#DADDDF"/><path opacity=".2" d="M532.3 399.1h-9.45l-2.78 11.43 3.24 1.74-5.22 14.46h1.55l2.22-4.77 10.36-22.66h.17l.09-.2h-.18z" fill="#000"/><path d="M539.24 135.33h-41.56v54.84h41.56v-54.84z" fill="#fff"/><path d="M533.69 140.4h-30.46v44.7h30.46v-44.7z" fill="#DDD"/><path d="M540.47 135.3h-1.2v54.84h1.2V135.3z" fill="#DADDDF"/><path d="M525.6 156.22h-14.26v21.6h14.27v-21.6z" fill="#B1B5BA"/><path d="M518.48 153.52c1.86 0 3.65-.7 4.98-1.96a6.58 6.58 0 002.07-4.74h-14.08c0 1.78.75 3.48 2.06 4.74a7.2 7.2 0 004.97 1.96z" fill="#139988"/><path d="M58.75 326.86L55.3 407.8M33.79 362.04l15.25 17.08M69.3 382.34l-13.75 19.9M75.99 348.94l-18.93 20.64" stroke="#21252B" stroke-width=".93" stroke-miterlimit="10" stroke-linecap="round"/><path d="M74.73 360.02c4.49-5.02 5.84-10.96 3.03-13.24-2.82-2.29-8.73-.06-13.22 4.97-4.49 5.02-5.84 10.95-3.03 13.24 2.81 2.28 8.73.05 13.22-4.98" fill="#139988"/><path opacity=".3" d="M77.91 346.98L61.4 364.92c.06 0 .06.06.12.06 2.83 2.28 8.74.05 13.2-4.95 4.4-4.88 5.79-10.64 3.2-13.05z" fill="#000"/><path d="M42.92 372.12c2.17-1.73 1.2-6.3-2.2-10.21-3.4-3.92-7.92-5.7-10.1-3.97-2.18 1.72-1.2 6.29 2.2 10.2 3.4 3.91 7.92 5.7 10.1 3.98z" fill="#139988"/><path opacity=".3" d="M30.48 358.08l12.47 13.97-.06.06c-2.17 1.72-6.7-.06-10.12-3.97-3.26-3.8-4.28-8.28-2.3-10.05" fill="#000"/><path d="M36.08 385.21l16.1 11.96" stroke="#21252B" stroke-width=".93" stroke-miterlimit="10" stroke-linecap="round"/><path d="M47.14 393.3c1.77-2.1-.17-6.4-4.33-9.56-4.16-3.17-8.96-4.04-10.73-1.93-1.77 2.11.17 6.4 4.31 9.56 4.14 3.17 8.97 4.04 10.73 1.93" fill="#139988"/><path opacity=".3" d="M31.98 382l15.2 11.26-.07.06c-1.74 2.13-6.57 1.27-10.73-1.9-4.04-3.1-5.97-7.3-4.4-9.43z" fill="#000"/><path d="M65.03 332.94c.32-6.6-2.37-12.07-6-12.23-3.61-.16-6.8 5.07-7.12 11.66-.32 6.6 2.37 12.08 5.99 12.24 3.62.16 6.82-5.07 7.13-11.67z" fill="#139988"/><path opacity=".3" d="M51.94 332.43c.3-6.55 3.49-11.79 7.11-11.61l-1.15 23.86c-3.61-.23-6.27-5.7-5.96-12.25z" fill="#000"/><path d="M70.76 389.85c3-4.5 3.35-9.43.73-11.02-2.62-1.59-7.18.77-10.18 5.26-3 4.5-3.35 9.42-.73 11.02 2.62 1.6 7.18-.76 10.18-5.26z" fill="#139988"/><path opacity=".3" d="M61.33 384.07c-2.96 4.36-3.32 9.2-.9 10.86l11-16.1-.66-.28c-2.6-.92-6.7 1.37-9.46 5.52" fill="#000"/><path d="M53.8 406.84l-9.4-55.9" stroke="#21252B" stroke-width=".93" stroke-miterlimit="10" stroke-linecap="round"/><path d="M45.29 358.76c3.22-.49 5.04-5.64 4.05-11.5-.99-5.87-4.4-10.22-7.61-9.73-3.22.5-5.04 5.64-4.05 11.5.98 5.87 4.39 10.22 7.6 9.73z" fill="#139988"/><path opacity=".3" d="M37.65 349.05c-.96-5.86.84-11.04 4.04-11.56l3.55 21.27c-3.2.58-6.63-3.8-7.59-9.71" fill="#000"/><path d="M49.64 426.62h11.28a3.96 3.96 0 002.69-1.06 3.58 3.58 0 001.1-2.57v-14.26H45.8V423c.02.96.43 1.88 1.14 2.55a3.97 3.97 0 002.69 1.07" fill="#868A91"/><path d="M65.2 406.84H45.42c-.27 0-.53.1-.72.29a.95.95 0 000 1.38c.2.18.45.28.72.28H65.2a1.03 1.03 0 00.94-.6.93.93 0 00.08-.38c-.02-.25-.13-.49-.32-.67a1.11 1.11 0 00-.7-.3z" fill="#868A91"/><path d="M64.78 408.73H47.54c-.13 0-.27-.03-.4-.07a1.03 1.03 0 01-.55-.53.95.95 0 01.23-1.06c.1-.1.2-.17.33-.22.12-.05.26-.07.39-.07h-2.11c-.14 0-.27.03-.4.07-.12.05-.23.12-.33.21a.97.97 0 00-.3.7.95.95 0 00.3.68 1.03 1.03 0 00.73.3h.42v14.2a3.46 3.46 0 001.1 2.56 3.81 3.81 0 002.7 1.06h6.15c-1.3 0-2.56-.43-3.56-1.22a5.25 5.25 0 01-1.92-3.1l-2.72-13.28h17.18v-.23z" fill="#61656D"/><path d="M467.52 118.29l-.13 224.22c0 1.65-.34 3.28-1 4.8a12.46 12.46 0 01-2.86 4.07 13.16 13.16 0 01-4.27 2.72c-1.6.63-3.3.96-5.04.95l-348.79-.17a13.5 13.5 0 01-9.3-3.68 12.27 12.27 0 01-3.85-8.88l.12-224.22c0-1.65.34-3.28 1-4.8.67-1.53 1.64-2.91 2.86-4.08a13.23 13.23 0 014.27-2.71c1.6-.63 3.31-.96 5.04-.95l348.8.17a13.5 13.5 0 019.3 3.68 12.26 12.26 0 013.85 8.88z" fill="#21252B"/><path d="M461.73 118.29l-.12 224.22c0 1.65-.35 3.28-1 4.8a12.49 12.49 0 01-2.86 4.07 13.16 13.16 0 01-4.27 2.72c-1.6.63-3.31.96-5.04.95l-348.81-.17c-3.49 0-6.83-1.33-9.3-3.69a12.26 12.26 0 01-3.84-8.87l.12-224.22c0-1.65.35-3.28 1.01-4.8.66-1.53 1.63-2.91 2.86-4.08a13.23 13.23 0 014.27-2.71c1.6-.63 3.3-.96 5.03-.95l348.8.17c3.49 0 6.83 1.33 9.3 3.68a12.26 12.26 0 013.85 8.88z" fill="#3F4249"/><path d="M112.29 113.81v233.6h313.27v-233.6H112.29z" fill="#fff"/><path d="M442.83 220.82c2 0 3.94.56 5.6 1.62a9.72 9.72 0 013.7 4.3c.75 1.76.95 3.7.56 5.55a9.46 9.46 0 01-2.76 4.92 10.25 10.25 0 01-5.16 2.61 10.5 10.5 0 01-5.8-.56 9.95 9.95 0 01-4.51-3.54 9.3 9.3 0 011.27-12.1c.93-.9 2.03-1.6 3.25-2.08 1.23-.48 2.53-.72 3.85-.72zM97.38 193.22l-.04 73.98c0 .3.26.56.58.56h2.98c.32 0 .58-.25.58-.56l.04-73.98c0-.3-.26-.55-.58-.55h-2.98a.57.57 0 00-.58.55z" fill="#000"/><path opacity=".2" d="M255.22 312.21h-117.3a2.54 2.54 0 00-2.6 2.48v14.4a2.54 2.54 0 002.6 2.48h117.3c1.43 0 2.6-1.11 2.6-2.48v-14.4a2.54 2.54 0 00-2.6-2.48zM255.22 270.75h-117.3a2.54 2.54 0 00-2.6 2.48v14.4a2.54 2.54 0 002.6 2.48h117.3c1.43 0 2.6-1.11 2.6-2.48v-14.4a2.54 2.54 0 00-2.6-2.48zM388.75 270.75h-117.3a2.54 2.54 0 00-2.6 2.48v14.4a2.54 2.54 0 002.6 2.48h117.3c1.43 0 2.6-1.11 2.6-2.48v-14.4a2.54 2.54 0 00-2.6-2.48zM384.19 152.94H271.45a2.54 2.54 0 00-2.6 2.48v14.4a2.54 2.54 0 002.6 2.48h112.74c1.43 0 2.6-1.11 2.6-2.48v-14.4a2.54 2.54 0 00-2.6-2.48zM387.32 191.38h-249.4a2.54 2.54 0 00-2.6 2.48v14.4a2.54 2.54 0 002.6 2.48h249.4c1.43 0 2.6-1.11 2.6-2.48v-14.4a2.54 2.54 0 00-2.6-2.48zM255.22 152.94h-117.3a2.54 2.54 0 00-2.6 2.48v14.4a2.54 2.54 0 002.6 2.48h117.3c1.43 0 2.6-1.11 2.6-2.48v-14.4a2.54 2.54 0 00-2.6-2.48z" fill="#139988"/><path d="M175.06 144.24l-.65.82 1.04-.13v.46l-1.04-.12.66.78-.43.24-.41-.91-.45.91-.4-.23.66-.8-1.02.12v-.45l1 .12-.63-.8.41-.23.43.91.42-.9.41.2zM170.27 261.2l-.65.81 1.03-.13v.46l-1.03-.12.66.78-.43.24-.42-.91-.44.91-.4-.24.66-.79-1.02.12v-.45l1.01.13-.67-.8.41-.23.43.92.42-.92.44.22zM309.12 261.33l-.65.82 1.04-.13v.46l-1.04-.12.66.79-.43.24-.41-.92-.45.91-.39-.23.65-.8-1.02.13v-.46l1.01.12-.64-.8.42-.22.43.9.41-.9.41.21zM162.73 182.73l-.65.82 1.04-.13v.46l-1.04-.12.66.79-.43.23-.41-.91-.45.91-.4-.23.66-.8-1.02.13v-.46l1.01.12-.64-.8.41-.23.43.92.42-.92.41.22zM194.9 223.67l-.65.83 1.03-.13v.46l-1.03-.12.66.78-.44.24-.41-.91-.45.91-.39-.24.65-.8-1.01.13v-.46l1 .13-.64-.8.42-.23.42.91.42-.91.42.21z" fill="#139988"/><path opacity=".2" d="M387.7 232.45H137.91a2.54 2.54 0 00-2.6 2.48v14.4a2.54 2.54 0 002.6 2.48h249.77c1.44 0 2.6-1.1 2.6-2.48v-14.4a2.54 2.54 0 00-2.6-2.48z" fill="#139988"/><path d="M308.13 144.24l-.65.82 1.03-.13v.46l-1.03-.12.65.78-.43.24-.41-.91-.45.91-.39-.23.65-.8-1.01.12v-.45l1 .12-.64-.8.42-.23.42.91.43-.9.4.2z" fill="#139988"/><path d="M146.25 321.88l1.66.92-.43.73-1.7-.95v1.83h-.83v-1.83l-1.7.95-.43-.73 1.68-.92-1.68-.88.43-.74 1.7.94v-1.8h.84v1.8l1.69-.94.43.74-1.66.88zM152.12 321.88l1.66.92-.43.73-1.7-.95v1.83h-.8v-1.83l-1.69.95-.44-.73 1.69-.92-1.69-.88.44-.74 1.7.94v-1.8h.83v1.8l1.7-.94.43.74-1.7.88zM158 321.88l1.66.92-.43.73-1.67-.97v1.83h-.84v-1.83l-1.7.95-.43-.73 1.68-.92-1.68-.88.43-.74 1.7.94v-1.8h.84v1.8l1.7-.94.43.74-1.7.9zM163.87 321.88l1.67.92-.44.73-1.7-.95v1.83h-.81v-1.83l-1.68.93-.43-.73 1.67-.92-1.67-.88.43-.74 1.7.94v-1.8h.83v1.8l1.7-.94.43.74-1.7.9zM169.75 321.88l1.66.92-.43.73-1.7-.95v1.83h-.84v-1.83l-1.7.95-.42-.73 1.67-.92-1.67-.88.43-.74 1.7.94v-1.8h.83v1.8l1.7-.94.43.74-1.66.88zM175.62 321.88l1.67.92-.44.73-1.69-.95v1.83h-.85v-1.83l-1.7.95-.42-.73 1.68-.92-1.68-.88.43-.74 1.7.94v-1.8h.84v1.8l1.69-.94.43.74-1.66.88zM181.5 321.88l1.66.92-.44.73-1.7-.97v1.83h-.85v-1.83l-1.69.95-.43-.73 1.68-.92-1.68-.88.43-.74 1.7.94v-1.8h.83v1.8l1.7-.94.43.74-1.65.9z" fill="#B2B6BB"/><path d="M322.62 312.21h-38.66a2.54 2.54 0 00-2.6 2.48v14.4a2.54 2.54 0 002.6 2.48h38.66c1.43 0 2.6-1.11 2.6-2.48v-14.4a2.54 2.54 0 00-2.6-2.48zM425.91 113.58H112.32v18.3h313.59v-18.3z" fill="#139988"/><path d="M301.57 120.47h-64.91c-.66 0-1.2.5-1.2 1.13v2.74c0 .63.54 1.14 1.2 1.14h64.9c.67 0 1.2-.51 1.2-1.14v-2.74c0-.63-.53-1.13-1.2-1.13z" fill="#fff"/><path d="M375.2 312.34h-38.66a2.54 2.54 0 00-2.6 2.48v14.4a2.54 2.54 0 002.6 2.48h38.65c1.44 0 2.6-1.11 2.6-2.48v-14.4a2.54 2.54 0 00-2.6-2.48z" fill="#139988"/><path opacity=".2" d="M375.2 312.34h-38.66a2.54 2.54 0 00-2.6 2.48v14.4a2.54 2.54 0 002.6 2.48h38.65c1.44 0 2.6-1.11 2.6-2.48v-14.4a2.54 2.54 0 00-2.6-2.48z" fill="#000"/><path d="M169.35 145.04h-33.37a.65.65 0 00-.66.63v2.25c0 .35.3.63.66.63h33.37c.37 0 .66-.28.66-.63v-2.25c0-.35-.3-.63-.66-.63zM302.88 145.04h-33.37a.65.65 0 00-.66.63v2.25c0 .35.3.63.66.63h33.37c.37 0 .66-.28.66-.63v-2.25c0-.35-.3-.63-.66-.63zM302.88 261.88h-33.37a.65.65 0 00-.66.63v2.25c0 .35.3.63.66.63h33.37c.37 0 .66-.28.66-.63v-2.25c0-.35-.3-.63-.66-.63zM188.8 223.77h-52.82a.65.65 0 00-.66.63v2.25c0 .35.3.63.66.63h52.82c.37 0 .66-.28.66-.63v-2.25c0-.35-.3-.63-.66-.63zM164.62 261.88h-28.64a.65.65 0 00-.66.63v2.25c0 .35.3.63.66.63h28.64c.37 0 .66-.28.66-.63v-2.25c0-.35-.3-.63-.66-.63zM184.07 304h-48.1a.65.65 0 00-.65.63v2.25c0 .35.3.63.66.63h48.1c.36 0 .66-.28.66-.63v-2.25c0-.35-.3-.63-.67-.63zM156.74 183.15h-20.76a.65.65 0 00-.66.63v2.25c0 .35.3.63.66.63h20.76c.36 0 .66-.28.66-.63v-2.25c0-.35-.3-.63-.66-.63z" fill="#B2B6BB"/><path d="M186.5 401.54h-64.64v25.12h64.63v-25.12z" fill="#DADDDF"/><path opacity=".1" d="M186.5 401.54h-41.18v25.12h41.17v-25.12z" fill="#000"/><path d="M189.84 399.26h-71.33v5.93h71.33v-5.93z" fill="#DADDDF"/><path opacity=".1" d="M189.84 399.26h-44.52v5.93h44.52v-5.93zM186.5 405.2h-64.64v.9h64.63v-.9z" fill="#000"/><path d="M141.01 417.07H125.7v5.48h15.32v-5.48z" fill="#fff"/><path opacity=".1" d="M138.62 410.22h-11.5v2.28h11.5v-2.28z" fill="#000"/><path d="M235.8 401.54h-64.63v25.12h64.63v-25.12z" fill="#DADDDF"/><path opacity=".1" d="M235.8 401.54h-41.17v25.12h41.17v-25.12z" fill="#000"/><path d="M239.15 399.26h-71.33v5.93h71.33v-5.93z" fill="#DADDDF"/><path opacity=".1" d="M239.16 399.26h-44.53v5.93h44.53v-5.93zM235.8 405.2h-64.63v.9h64.63v-.9z" fill="#000"/><path d="M190.32 417.07H175v5.48h15.32v-5.48z" fill="#fff"/><path opacity=".1" d="M187.93 410.22h-11.5v2.28h11.5v-2.28z" fill="#000"/><path d="M378.41 221.6s-3.73 4.57.13 10.4l3.35.32-.33-8.11-3.15-2.61z" fill="#FC9D9D"/><path opacity=".15" d="M378.41 221.6s-3.73 4.57.13 10.4l3.35.32-.33-8.11-3.15-2.61z" fill="#000"/><path d="M454.75 262.31l.05-50.82c.24-2.36 3.83-12.33 1.14-16.5L439.49 191l-22.15-.68c-.1.1-11.02 13.7-11.02 13.7l-2.78 58.05 51.2.23z" fill="#139988"/><path d="M412.6 401.4l-13.05-.05-.32 7.14c-.04.93-.3 1.83-.76 2.64a6.17 6.17 0 01-1.9 2.05l-9.58 6.53 23.94-.57 1.67-17.75z" fill="#FC9D9D"/><path opacity=".15" d="M399.27 407.71l7.44.61c.53.04 1.02.28 1.36.67.35.39.51.88.48 1.4l-.72 8.83 3.25.17 1.44-18.18h-12.86l-.4 6.5z" fill="#000"/><path d="M454.1 401.35l-12.78-.04 2.02 17.4h10.75v-17.36z" fill="#FC9D9D"/><path opacity=".15" d="M442.16 407.63l6.78.65c.6.06 1.16.33 1.58.74.41.42.66.97.69 1.55l.48 8.16 2.28-.23.15-16.56-12.59.99.63 4.7z" fill="#000"/><path d="M454.56 265.37l-51.15-.29-4.82 141.44h14.01l13.91-116c.04-.35.22-.68.5-.93.28-.24.64-.38 1.02-.38.39-.01.77.12 1.05.36.3.25.48.59.51.96l11.22 116h14.02l-.27-141.16z" fill="#21252B"/><path d="M455.15 403.63H440l.27 2.9h14.94l-.05-2.9zM413.3 403.63H398.3l-.18 2.9h14.84l.32-2.9z" fill="#21252B"/><path opacity=".15" d="M448.71 242.19v18.1l5.72.07.4-15.16-6.12-3.01z" fill="#000"/><path d="M455.2 425.44h-13.03c-.3 0-.6-.08-.84-.25-.24-.16-.42-.4-.51-.67-.03.26-.05.52-.05.78v.41c.02.34.17.66.44.88.26.23.6.35.96.33h13.03a1.31 1.31 0 00.97-.32c.13-.1.24-.25.3-.4.08-.15.13-.32.13-.49v-.16c0-.33-.03-.65-.06-.98-.1.26-.28.5-.52.65-.25.15-.53.23-.82.22z" fill="#139988"/><path opacity=".4" d="M455.2 425.44h-13.03c-.3 0-.6-.08-.84-.25-.24-.16-.42-.4-.51-.67-.03.26-.05.52-.05.78v.41c.02.34.17.66.44.88.26.23.6.35.96.33h13.03a1.31 1.31 0 00.97-.32c.13-.1.24-.25.3-.4.08-.15.13-.32.13-.49v-.16c0-.33-.03-.65-.06-.98-.1.26-.28.5-.52.65-.25.15-.53.23-.82.22z" fill="#000"/><path d="M453.3 412.24l-.3-.3a6.74 6.74 0 00-9.16.08l-.17.22a2.95 2.95 0 00-.96 2.17v1.27c.01.75-.1 1.5-.36 2.21l-1.14 3.53c-.3.86-.45 1.74-.47 2.64v.43c.01.34.17.66.43.89.26.23.61.35.97.34h13.04a1.34 1.34 0 00.98-.33 1.23 1.23 0 00.42-.9v-.18c0-1.04-.18-2.07-.54-3.06l-1.31-3.44c-.3-.8-.46-1.63-.48-2.47l-.04-.98c0-.8-.32-1.55-.9-2.12z" fill="#139988"/><path opacity=".4" d="M444.8 415.03c.27 0 .49-.2.49-.46a.48.48 0 00-.49-.47.48.48 0 00-.49.47c0 .25.22.46.5.46zM445.06 416.9c.27 0 .5-.2.5-.46a.48.48 0 00-.5-.47.48.48 0 00-.48.47c0 .25.22.46.49.46zM445.2 418.3c.27 0 .5-.21.5-.47a.48.48 0 00-.5-.46.48.48 0 00-.49.46c0 .26.23.47.5.47zM444.98 420.49c.27 0 .49-.21.49-.47a.48.48 0 00-.5-.46.48.48 0 00-.48.46c0 .26.22.47.49.47zM444.95 422.4c.27 0 .49-.21.49-.46a.48.48 0 00-.49-.47.48.48 0 00-.49.46c0 .26.22.47.5.47zM451.13 422.79c.26 0 .49-.21.49-.47a.48.48 0 00-.5-.46.48.48 0 00-.48.46c0 .26.22.47.49.47zM451.17 421.01c.27 0 .5-.2.5-.46a.48.48 0 00-.5-.47.48.48 0 00-.48.47c0 .25.22.46.48.46zM451.26 418.66c.26 0 .48-.2.48-.46a.48.48 0 00-.48-.47.48.48 0 00-.5.47c0 .25.23.46.5.46zM451.11 416.44c.27 0 .49-.21.49-.47a.48.48 0 00-.49-.47.48.48 0 00-.49.47c0 .25.22.47.5.47zM451.04 414.68c.26 0 .48-.21.48-.47a.48.48 0 00-.48-.46.48.48 0 00-.5.46c0 .26.22.47.5.47z" fill="#231F20"/><path d="M444.98 414.48s2.22-2.29 6.06-.38M445.07 416.3s2.21-2.28 6.04-.37M445.21 417.76c.57-.46 3.47-1.32 6.05.41M445.14 420s2.52-1.96 6.05.4M444.96 421.84s2.52-1.96 6.05.41" stroke="#fff" stroke-width=".75" stroke-miterlimit="10" stroke-linecap="round"/><path d="M412.43 425.2l-34.98.07a1.97 1.97 0 01-.16-.48c-.06.4-.07.8-.04 1.2 0 .3.14.57.36.79.22.21.52.33.84.34l32.85-.07c.31 0 .62-.13.84-.35.22-.21.35-.5.36-.8l-.07-.7z" fill="#139988"/><path opacity=".4" d="M412.43 425.2l-34.98.07a1.97 1.97 0 01-.16-.48c-.06.4-.07.8-.04 1.2 0 .3.14.57.36.79.22.21.52.33.84.34l32.85-.07c.31 0 .62-.13.84-.35.22-.21.35-.5.36-.8l-.07-.7z" fill="#000"/><path d="M379.36 421.42c6.23-2.65 11.31-4.85 15.96-8.82 1.06-.91 1.89-1.58 3.27-1.7l5.26 3.11a1.94 1.94 0 002.13-.05l5.65-2.82c.92-.07 1.7 1.08 1.64 2.02l-.83 12.03-34.98.08c-.75-1.46.8-3.38 1.9-3.85z" fill="#139988"/><path opacity=".4" d="M385.48 422.03c.36 0 .65-.26.65-.6 0-.32-.29-.59-.65-.59-.35 0-.64.27-.64.6 0 .33.29.6.64.6zM389.31 421.02c.36 0 .65-.26.65-.6 0-.32-.29-.59-.65-.59-.35 0-.64.27-.64.6 0 .33.29.6.64.6zM392.5 418.9c.36 0 .64-.26.64-.59 0-.33-.28-.6-.64-.6s-.65.27-.65.6c0 .33.3.6.65.6zM395.58 416.76c.36 0 .65-.26.65-.59 0-.33-.29-.6-.65-.6-.35 0-.64.27-.64.6 0 .33.29.6.64.6zM398.32 414.15c.36 0 .64-.26.64-.6 0-.32-.28-.59-.64-.59s-.65.27-.65.6c0 .33.3.6.65.6z" fill="#231F20"/><path d="M384.26 420.02l.43 1.11c.03.07.07.14.13.2s.13.1.2.13a.62.62 0 00.48 0 .6.6 0 00.21-.12c.06-.06.1-.13.14-.2a.53.53 0 00-.04-.47l-.61-1.06-.94.41zM387.67 418.47l.8 1.67c.04.07.1.14.16.2.06.05.14.09.22.11.08.03.17.04.25.03a.64.64 0 00.43-.2.56.56 0 00.1-.2c.03-.07.04-.15.03-.22a.55.55 0 00-.07-.21l-.92-1.63-1 .45zM390.53 416.76l1.1 1.43a.66.66 0 00.44.24.63.63 0 00.47-.15l.04-.04c.1-.1.18-.22.19-.35a.52.52 0 00-.12-.38l-1.05-1.34-1.07.59zM393.32 414.98l1.4 1.25c.12.1.27.16.43.16a.63.63 0 00.56-.35.5.5 0 00.05-.24.55.55 0 00-.24-.41l-1.4-1.02-.8.6zM396.08 412.65l1.36 1.04a.6.6 0 00.82-.1.48.48 0 00.1-.44.48.48 0 00-.1-.2.54.54 0 00-.2-.15l-1.64-.75-.34.6z" fill="#fff"/><path d="M454.61 260.3h-51.17l-.12 4.94 51.3.14v-5.09z" fill="#000"/><path d="M423 265.37h8.89v-5.08h-8.9v5.08z" fill="#DADDDF"/><path d="M428.7 226.74l3.04 1.61 1.6.64 8 6.79 1.66-10.65-4.2-3.23a3.19 3.19 0 01-.47-.46l-1.5-1.69a5.19 5.19 0 00-2.83-1.66l-10.26-.93c-1.5.06-1.13 1.74-.21 1.82l5.6.52s-.9.88-.42 1.79a2.09 2.09 0 000 1.83 2.09 2.09 0 000 1.82s-.44 1.12 0 1.8zM451.7 242.1h14.55v-27.32l-14.42-.04-.13 27.35z" fill="#139988"/><path d="M441.06 224.02l25.2 14.54-.03 3.32c0 3.97-3.63 7.03-8.1 7.03a8.8 8.8 0 01-5-1.53l-13.67-13.25 1.6-10.11zM440.3 202.8l11.38 4.22.12 12.06 14.45.16v-11.77c0-5.3-3.83-10.05-9.96-12.36a6.2 6.2 0 00-.89-.27l-12.92-2.9-1.33 2.64-.86 8.22z" fill="#139988"/><path d="M451.8 216.5l14.45.06v2.68H451.8v-2.73z" fill="#139988"/><path d="M448.76 228.46l1.39-20.4c.03-.16.1-.3.2-.44a1.22 1.22 0 011.37-.38c.21.05.4.16.55.33.15.16.23.37.25.58l-.17 21.1 4.49 2.7c.64.4.18 1.3-.48.91l-7.6-4.4z" fill="#139988"/><path d="M428.7 226.74l3.04 1.61 1.6.64 8 6.79 1.66-10.65-4.2-3.23a3.19 3.19 0 01-.47-.46l-1.5-1.69a5.19 5.19 0 00-2.83-1.66l-10.26-.93c-1.5.06-1.13 1.74-.21 1.82l5.6.52s-.9.88-.42 1.79a2.09 2.09 0 000 1.83 2.09 2.09 0 000 1.82s-.44 1.12 0 1.8zM451.7 242.1h14.55v-27.32l-14.42-.04-.13 27.35z" fill="#FC9D9D"/><path d="M441.06 224.02l25.2 14.54-.03 3.32c0 3.97-3.63 7.03-8.1 7.03a8.8 8.8 0 01-5-1.53l-13.67-13.25 1.6-10.11z" fill="#FC9D9D"/><path d="M440.3 202.8l11.38 4.22.12 12.06 14.45.16v-11.77c0-5.3-3.83-10.05-9.96-12.36a6.2 6.2 0 00-.89-.27l-12.92-2.9-1.33 2.64-.86 8.22z" fill="#139988"/><path d="M451.8 216.5l14.45.06v2.68H451.8v-2.73z" fill="#fff"/><path opacity=".15" d="M448.76 228.46l1.39-20.4c.03-.16.1-.3.2-.44a1.22 1.22 0 011.37-.38c.21.05.4.16.55.33.15.16.23.37.25.58l-.17 21.1 4.49 2.7c.64.4.18 1.3-.48.91l-7.6-4.4z" fill="#000"/><path d="M438.33 190.58l4.31 1.2c-.27 1.04-1.64 2.41-2.67 3.16-5.07 3.69-13.18 4.2-18.87 0a7.5 7.5 0 01-2.66-4.57l4-.12 15.9.33z" fill="#fff"/><path d="M428.07 156.8c5.92-.28 12.48 1.36 12.78 9.46l.72 6.06-23.13-.04-.44-6.57c0-3.48 0-6.26 5-8 1.63-.54 3.34-.85 5.07-.92z" fill="#000"/><path d="M421.92 171.15s15.75-9.41 16.28 2.1l.22 3 1.06 14.76c-2.7 6.85-18.48 4.04-17.72-.38l1.1-8.4c-.2-.88-.31-1.78-.31-2.7-.18-4.4-.63-8.38-.63-8.38z" fill="#FC9D9D"/><path d="M419.38 162.75s-4.8 22.57 7.21 24.06c10.4 1.33 11.57-14.12 11.57-14.12l-.28-6.2a3.85 3.85 0 00-1.28-2.68 4.22 4.22 0 00-2.88-1.06h-14.34z" fill="#FC9D9D"/><path opacity=".15" d="M438.52 176.93c-.55.03-1.1-.1-1.57-.39l1.7 2.49-.13-2.1z" fill="#000"/><path d="M437.94 170.94a2.05 2.05 0 011.25-1.25 2.17 2.17 0 011.8.14c2.6 1.1 2.1 6.8-2.34 7.1-2.33.17-1.88-1.11-1.48-2.83l.76-3.16z" fill="#FC9D9D"/><path opacity=".15" d="M441.17 171.36c-.37-.24-.81-.35-1.26-.3a1.7 1.7 0 00-1.03.73 3.61 3.61 0 00-.45 1.58l-.09.52c0 .17.09.3.22.3.14 0 .32-.09.32-.21l.1-.52c.01-.45.14-.9.4-1.28.22-.3.4-.51.62-.51.15-.04.3-.03.45 0 .15.04.29.11.4.21.18.04.32.04.4-.09.05-.26 0-.38-.08-.43zM421.94 189.3l.52-4.29c1.03 1 3.9 2.4 7.13 1.72a9.05 9.05 0 004.22-2.49.24.24 0 01.31 0l.06.07a.23.23 0 010 .17 9.23 9.23 0 01-5.62 2.9 12.2 12.2 0 01-6.62 1.92zM425.74 182.32c.5.01.99.05 1.48.13.08 0 .15-.04.21-.1a.3.3 0 00.1-.2.3.3 0 00-.1-.2.34.34 0 00-.21-.1c-.47-.01-.94-.06-1.4-.13a.3.3 0 00-.12.02.31.31 0 00-.11.06.24.24 0 00-.06.1.26.26 0 00-.02.12c-.09.04.1.21.23.3zM425.25 180.95c2.64.39 3.82-.94 4.2-1.62a.36.36 0 00.02-.2.42.42 0 00-.1-.19.43.43 0 00-.21-.01.41.41 0 00-.2.1c-.4.68-1.7 2.1-4.84 1.1a.3.3 0 00-.37.14.27.27 0 00-.03.22.3.3 0 00.13.16c.46.14.92.24 1.4.3zM424.48 178.68l1.26.09c.17 0 .3-.09.3-.22s-.08-.3-.22-.3l-1.25-.08a.6.6 0 01-.4-.2.52.52 0 01-.14-.4c.01-.15.08-.29.2-.38.12-.1.28-.15.43-.13.18 0 .31-.09.31-.22s-.09-.3-.22-.3c-.3-.02-.6.07-.83.26a1.11 1.11 0 00-.4 1.14 1 1 0 00.54.63c.13.07.27.1.42.11z" fill="#000"/><path opacity=".19" d="M416.56 174.41c.06.76.36 1.49.86 2.08.49.6 1.16 1.04 1.92 1.28.75.23 1.57.25 2.34.04.76-.2 1.45-.63 1.97-1.2a3.7 3.7 0 00.52-4.24 3.94 3.94 0 00-1.63-1.62 4.2 4.2 0 00-5.03.87 3.76 3.76 0 00-.95 2.8zM426.41 173.66c.07.76.36 1.48.86 2.08.5.6 1.16 1.04 1.92 1.27.76.24 1.57.25 2.34.05.77-.21 1.45-.63 1.97-1.2a3.7 3.7 0 00.52-4.25 3.95 3.95 0 00-1.62-1.61 4.2 4.2 0 00-5.03.86 3.72 3.72 0 00-.96 2.8z" fill="#fff"/><path d="M430.44 177.28a4.25 4.25 0 01-2.85-1.24 3.85 3.85 0 01.12-5.54 4.25 4.25 0 015.8 0 3.88 3.88 0 011.25 2.75 3.85 3.85 0 01-1.13 2.79 4.23 4.23 0 01-2.86 1.24h-.33zm0-7.7h-.32a3.98 3.98 0 00-2.68 1.17 3.63 3.63 0 00.11 5.2 4 4 0 005.46 0 3.63 3.63 0 001.17-2.57 3.62 3.62 0 00-1.06-2.63 3.99 3.99 0 00-2.68-1.17zM420.55 178.03a4.21 4.21 0 01-2.78-1.04 3.81 3.81 0 01-.8-4.79c.4-.68 1-1.23 1.72-1.58a4.28 4.28 0 014.53.5 3.76 3.76 0 01-.12 6.06c-.63.48-1.4.77-2.21.84h-.34zm0-7.7h-.32c-.78.07-1.52.35-2.13.81a3.63 3.63 0 00-.11 5.83 3.98 3.98 0 002.87.88 4.01 4.01 0 002.63-1.26 3.65 3.65 0 00-.22-5.2 4.05 4.05 0 00-2.72-1.06z" fill="#000"/><path d="M424.58 173.88l-.04-.01a.12.12 0 01-.03-.03v-.04-.04c.86-.96 1.92-.16 1.95-.15l.02.02v.06l-.02.02a.08.08 0 01-.05.02c-.02 0-.04 0-.06-.02a1.28 1.28 0 00-1.74.15l-.03.02zM437.8 171.43l-3.39 1.54.07.13 3.4-1.54-.07-.13zM429.15 174.7a.91.91 0 00.87-.97.93.93 0 00-1.02-.83.91.91 0 00-.86.97c.04.5.5.87 1.01.83z" fill="#000"/><path d="M428.64 173.77c.13 0 .23-.1.23-.22s-.1-.21-.23-.21c-.12 0-.22.1-.22.21 0 .12.1.22.22.22z" fill="#fff"/><path d="M421.82 175.35c.51-.04.9-.47.86-.97a.93.93 0 00-1.02-.82.92.92 0 00-.86.97c.04.5.5.86 1.02.82z" fill="#000"/><path d="M421.3 174.42c.12 0 .22-.1.22-.21 0-.12-.1-.22-.22-.22-.13 0-.23.1-.23.22 0 .11.1.21.23.21z" fill="#fff"/><path d="M437.53 172.62a.68.68 0 01-.46-.19.7.7 0 01-.14-.2.6.6 0 01-.04-.25c.07-1.76.06-5.99-1.83-6.79-1.77.28-14.27 1.85-15.7-.65l-.81 7.76h-.1l.13-9.98 15.87-1.83 5.04 3.2-1.96 8.93z" fill="#000"/><path d="M407.53 192.96l-2.16.3a8.69 8.69 0 00-4.4 2.18 8.06 8.06 0 00-2.39 4.14l-3.83 19.22-5.45 23.97s11.1 10.33 14.84 3.65l3.4-53.46z" fill="#FC9D9D"/><path d="M398.58 198.67a8.05 8.05 0 012.4-4.14 8.68 8.68 0 014.4-2.18l12.17-1.97-10.75 15.45-.48 9.55-10.97-.43 3.23-16.28z" fill="#139988"/><path opacity=".15" d="M393.9 242.77s5.87 5.59 9.22 4.8c0 0 .92-.28 1.08-1.94v-2.86h-10.3z" fill="#000"/><path d="M395.36 214.92l-.29 2.24h10.94l.17-2.24h-10.82z" fill="#fff"/><path opacity=".15" d="M406.26 205.38a.49.49 0 00-.31.11.48.48 0 00-.17.29l-4.21 22.77 3.83-.96 1.36-21.7a.44.44 0 00-.02-.2.47.47 0 00-.28-.27.48.48 0 00-.2-.04z" fill="#000"/><path d="M414.07 218h-31.74a1.7 1.7 0 00-1.74 1.66v21.44c0 .92.78 1.66 1.74 1.66h31.75a1.7 1.7 0 001.74-1.66v-21.44a1.7 1.7 0 00-1.75-1.66z" fill="#21252B"/><path d="M412.6 218h-31.75a1.7 1.7 0 00-1.75 1.66v21.44c0 .92.78 1.66 1.75 1.66h31.74a1.7 1.7 0 001.74-1.66v-21.44a1.7 1.7 0 00-1.74-1.66z" fill="#3F4249"/><path d="M396.2 231.98c1.28 0 2.31-.98 2.31-2.2 0-1.21-1.03-2.2-2.3-2.2-1.27 0-2.3.99-2.3 2.2 0 1.22 1.03 2.2 2.3 2.2z" fill="#DADDDF"/><path opacity=".3" d="M451.11 403.63l3.71-.1-.26-138.16H448.7l2.4 138.26z" fill="#000"/><path opacity=".3" d="M452.05 406.52h3.14l-.04-2.9h-4.37l.26 2.86 1 .04zM420.6 292.62l-12.3 111 4.65-.05 13.56-113.02c.04-.29.15-.55.34-.77.19-.22.44-.39.73-.47-1.77-.31-6.59-.76-6.97 3.31zM413.3 403.63h-5.6l-.32 2.9h5.59l.32-2.9z" fill="#000"/><path d="M381.88 224.43l-3.2-2.62a1.11 1.11 0 00-1.49.1 1 1 0 00-.25.83 2.01 2.01 0 001 1.42l3.96 2.29a.6.6 0 00.63 0 .54.54 0 00.2-.24c.03-.09.05-.2.03-.3-.1-.57-.4-1.1-.88-1.48zM382 226.66l-4.2-2.07a1.09 1.09 0 00-1.45.29.99.99 0 00-.13.86 2.03 2.03 0 001.2 1.27l4.9 1.67a.6.6 0 00.62-.1.51.51 0 00.15-.55 2.47 2.47 0 00-1.08-1.37zM382.41 228.85l-4.42-1.6a1.1 1.1 0 00-1.1.1.97.97 0 00-.33 1.19c.12.27.3.51.53.7.24.2.51.35.8.44l5.07 1.13a.6.6 0 00.6-.17.52.52 0 00.08-.57 2.53 2.53 0 00-1.23-1.22z" fill="#FC9D9D"/><path d="M382.27 230.67l-3.65-.22a.86.86 0 00-.53.09.8.8 0 00-.26.23.76.76 0 00.05.96 1.72 1.72 0 001.26.55l4-.27c.1 0 .18-.03.25-.07a.42.42 0 00.16-.2.4.4 0 00-.07-.45 2.05 2.05 0 00-1.21-.62z" fill="#FC9D9D"/><defs><linearGradient id="paint0_linear" x1="68.6" y1="385.78" x2="575.73" y2="-132.53" gradientUnits="userSpaceOnUse"><stop stop-color="#139988" stop-opacity=".2"/><stop offset="1" stop-color="#fff" stop-opacity="0"/></linearGradient></defs></svg>