<svg width="600" height="450" fill="none" xmlns="http://www.w3.org/2000/svg"><g clip-path="url(#clip0)"><path d="M21.63 449.1L-.29 181.64a28.6 28.6 0 015.37-19.13L114.46 11.85A28.8 28.8 0 01140.36.07l374.46 32.87a28.9 28.9 0 0116.08 6.67 28.64 28.64 0 019.28 14.69l51.44 197.06a28.58 28.58 0 01-.09 14.75l-50.35 183.64-519.55-.65z" fill="#F4F4F4"/><path d="M21.63 449.1L-.29 181.64a28.6 28.6 0 015.37-19.13L114.46 11.85A28.8 28.8 0 01140.36.07l374.46 32.87a28.9 28.9 0 0116.08 6.67 28.64 28.64 0 019.28 14.69l51.44 197.06a28.58 28.58 0 01-.09 14.75l-50.35 183.64-519.55-.65z" fill="url(#paint0_linear)"/><path d="M386.1 171.47c18.3-6.04 28.03-25.2 21.75-42.78-6.29-17.6-26.21-26.95-44.51-20.9-18.3 6.03-28.03 25.19-21.75 42.78 6.29 17.58 26.22 26.94 44.51 20.9z" fill="#DADDDF"/><path opacity=".05" d="M386.1 171.47c18.3-6.04 28.03-25.2 21.75-42.78-6.29-17.6-26.21-26.95-44.51-20.9-18.3 6.03-28.03 25.19-21.75 42.78 6.29 17.58 26.22 26.94 44.51 20.9z" fill="#000"/><path d="M374.54 172.84c19.3-1.38 33.76-17.54 32.31-36.09-1.44-18.54-18.25-32.45-37.54-31.06-19.3 1.39-33.76 17.54-32.32 36.09 1.44 18.54 18.25 32.45 37.55 31.06z" fill="#DADDDF"/><path opacity=".4" d="M374.54 172.84c19.3-1.38 33.76-17.54 32.31-36.09-1.44-18.54-18.25-32.45-37.54-31.06-19.3 1.39-33.76 17.54-32.32 36.09 1.44 18.54 18.25 32.45 37.55 31.06z" fill="#fff"/><path d="M386.14 162.51c13.39-7.54 17.87-24.09 10.02-36.95-7.85-12.87-25.06-17.18-38.44-9.64-13.39 7.55-17.87 24.1-10.02 36.96 7.85 12.87 25.06 17.18 38.44 9.63z" fill="#DADDDF"/><path opacity=".05" d="M345.31 138.1a26.68 26.68 0 019.87-18.37 28.85 28.85 0 0120.48-6.28c5.79.46 11.6 3.14 15.8 6.4a28.19 28.19 0 00-9.22-5.85 29.07 29.07 0 00-21.66.23 28.14 28.14 0 00-9.09 6.03 26.89 26.89 0 00-5.96 8.94 26.07 26.07 0 00.5 20.82 27.04 27.04 0 006.4 8.66 26.7 26.7 0 01-5.52-10.22c-.93-3.1-1.9-6.96-1.6-10.37z" fill="#000"/><path opacity=".05" d="M368.6 157.74l.34-3.86c-4.52-.56-6.66-2.24-6.2-7.49.09-1.13.27-2.25.55-3.35l5.73.46c-.12.5-.2 1.01-.24 1.53-.2 2.28-.16 3.58 2.16 3.77 2.32.19 2.6-.59 2.88-3.52.12-1.44.16-1.93-.6-2.7-1.57-1.66-5.7-3.05-7.6-4.6-1.7-1.33-1.96-3.05-1.56-7.66.48-5.3 2.27-6.96 7.55-6.78l.27-3.07 3.25.26-.27 3.07c4.83.59 6.39 2.36 5.98 7.07a20.92 20.92 0 01-.48 3.01l-5.67-.46c.08-.46.13-.92.2-1.68.18-2.08-.04-3.15-2.2-3.32-1.87-.15-2.43.4-2.65 2.88-.22 2.58-.09 2.84 1.6 3.72 1.83 1 3.64 1.7 5.23 2.57 2.22 1.28 3.73 1.9 3.28 7-.63 7.2-2.24 9.56-7.94 9.5l-.35 3.91-3.25-.26z" fill="#000"/><path d="M207.98 87.05c9.55-3.15 14.63-13.15 11.35-22.33-3.28-9.18-13.69-14.07-23.24-10.91-9.55 3.15-14.63 13.15-11.35 22.33 3.28 9.18 13.69 14.07 23.24 10.91z" fill="#DADDDF"/><path opacity=".05" d="M207.98 87.05c9.55-3.15 14.63-13.15 11.35-22.33-3.28-9.18-13.69-14.07-23.24-10.91-9.55 3.15-14.63 13.15-11.35 22.33 3.28 9.18 13.69 14.07 23.24 10.91z" fill="#000"/><path d="M201.94 87.78c10.07-.73 17.63-9.16 16.87-18.84-.75-9.68-9.52-16.94-19.6-16.22-10.07.72-17.62 9.16-16.87 18.84.76 9.68 9.53 16.94 19.6 16.22z" fill="#DADDDF"/><path opacity=".4" d="M201.94 87.78c10.07-.73 17.63-9.16 16.87-18.84-.75-9.68-9.52-16.94-19.6-16.22-10.07.72-17.62 9.16-16.87 18.84.76 9.68 9.53 16.94 19.6 16.22z" fill="#fff"/><path d="M208 82.38c7-3.94 9.34-12.58 5.24-19.3-4.1-6.72-13.09-8.97-20.08-5.03-6.99 3.94-9.33 12.58-5.23 19.3 4.1 6.72 13.09 8.97 20.07 5.03z" fill="#DADDDF"/><path opacity=".05" d="M186.69 69.63c.16-1.84.7-3.64 1.58-5.28a14.2 14.2 0 013.56-4.3c1.48-1.2 3.18-2.1 5.01-2.67 1.84-.56 3.77-.77 5.69-.62 3.03.34 5.9 1.5 8.26 3.35a14.7 14.7 0 00-4.82-3.15 15.17 15.17 0 00-16.21 3.2 14.05 14.05 0 00-3.14 4.71 13.6 13.6 0 00.35 10.97 14.14 14.14 0 003.43 4.52 13.87 13.87 0 01-2.87-5.33c-.5-1.6-1-3.62-.84-5.4z" fill="#000"/><path opacity=".05" d="M198.85 79.89l.18-2.02c-2.36-.3-3.48-1.16-3.24-3.9.05-.6.15-1.18.3-1.75l2.98.23c-.06.27-.1.53-.13.8-.1 1.2-.08 1.87 1.13 1.97 1.22.1 1.36-.3 1.5-1.84.06-.75.08-1-.32-1.4-.82-.88-2.98-1.6-3.96-2.41-.89-.7-1.03-1.6-.82-4 .24-2.76 1.19-3.64 3.94-3.54l.14-1.6 1.7.13-.14 1.6c2.52.31 3.35 1.24 3.12 3.69-.04.53-.12 1.05-.25 1.57l-2.97-.25c.06-.29.1-.58.11-.87.1-1.09 0-1.64-1.15-1.74-.96-.07-1.27.22-1.38 1.5-.1 1.3-.05 1.5.84 1.95.95.52 1.91.89 2.72 1.34 1.16.67 1.95 1 1.72 3.68-.33 3.76-1.17 4.99-4.15 4.96l-.18 2.04-1.69-.14z" fill="#000"/><path d="M61.99 240.55c14.22-4.7 21.79-19.59 16.9-33.26-4.88-13.67-20.37-20.94-34.6-16.25-14.21 4.7-21.78 19.59-16.9 33.26 4.89 13.67 20.38 20.94 34.6 16.25z" fill="#DADDDF"/><path opacity=".05" d="M61.99 240.55c14.22-4.7 21.79-19.59 16.9-33.26-4.88-13.67-20.37-20.94-34.6-16.25-14.21 4.7-21.78 19.59-16.9 33.26 4.89 13.67 20.38 20.94 34.6 16.25z" fill="#000"/><path d="M52.98 241.6c15-1.09 26.24-13.65 25.12-28.06-1.12-14.41-14.19-25.23-29.18-24.15-15 1.08-26.25 13.64-25.12 28.06 1.12 14.41 14.18 25.22 29.18 24.14z" fill="#DADDDF"/><path opacity=".4" d="M52.98 241.6c15-1.09 26.24-13.65 25.12-28.06-1.12-14.41-14.19-25.23-29.18-24.15-15 1.08-26.25 13.64-25.12 28.06 1.12 14.41 14.18 25.22 29.18 24.14z" fill="#fff"/><path d="M62.01 233.58c10.4-5.87 13.9-18.73 7.8-28.73-6.1-10-19.48-13.35-29.89-7.48-10.4 5.86-13.89 18.72-7.79 28.72 6.1 10 19.48 13.35 29.88 7.49z" fill="#DADDDF"/><path opacity=".05" d="M30.27 214.6a20.38 20.38 0 012.35-7.88 21.16 21.16 0 015.31-6.4 22.1 22.1 0 017.46-3.97c2.73-.83 5.6-1.14 8.47-.91 4.5.36 9.01 2.44 12.29 4.97a21.96 21.96 0 00-7.17-4.43 22.62 22.62 0 00-16.7.28 21.9 21.9 0 00-7 4.67c-2 1.98-3.57 4.32-4.62 6.89a20.27 20.27 0 00.3 16.06 21 21 0 004.85 6.73 20.7 20.7 0 01-4.31-7.95c-.71-2.41-1.46-5.4-1.23-8.06z" fill="#000"/><path opacity=".05" d="M48.38 229.86l.26-3c-3.51-.46-5.18-1.74-4.82-5.82.07-.88.21-1.75.43-2.6l4.45.35c-.09.4-.15.8-.19 1.2-.15 1.76-.12 2.78 1.69 2.92 1.8.15 2.01-.45 2.22-2.73.1-1.12.12-1.5-.48-2.1-1.22-1.3-4.44-2.37-5.9-3.57-1.33-1.04-1.54-2.38-1.23-5.96.36-4.14 1.77-5.4 5.88-5.27l.2-2.38 2.53.2-.21 2.38c3.76.46 4.97 1.84 4.65 5.5-.07.79-.2 1.57-.37 2.34l-4.4-.36c.07-.43.12-.87.14-1.3.15-1.62-.02-2.45-1.7-2.59-1.44-.11-1.89.32-2.06 2.24-.17 2-.07 2.21 1.25 2.9 1.43.77 2.83 1.31 4.06 2 1.73.99 2.9 1.47 2.55 5.44-.48 5.59-1.74 7.42-6.17 7.36l-.27 3.05-2.51-.2z" fill="#000"/><path d="M443.22 107.13c9.04-2.98 13.84-12.44 10.74-21.12-3.1-8.68-12.94-13.3-21.98-10.32-9.03 2.98-13.84 12.44-10.73 21.12 3.1 8.69 12.94 13.3 21.97 10.32z" fill="#DADDDF"/><path opacity=".05" d="M443.22 107.13c9.04-2.98 13.84-12.44 10.74-21.12-3.1-8.68-12.94-13.3-21.98-10.32-9.03 2.98-13.84 12.44-10.73 21.12 3.1 8.69 12.94 13.3 21.97 10.32z" fill="#000"/><path d="M438.25 110.66c9.55-.64 16.75-8.6 16.08-17.78-.66-9.19-8.95-16.1-18.5-15.46-9.55.64-16.75 8.6-16.08 17.78.66 9.18 8.95 16.1 18.5 15.46z" fill="#DADDDF"/><path opacity=".4" d="M438.25 110.66c9.55-.64 16.75-8.6 16.08-17.78-.66-9.19-8.95-16.1-18.5-15.46-9.55.64-16.75 8.6-16.08 17.78.66 9.18 8.95 16.1 18.5 15.46z" fill="#fff"/><path d="M443.25 102.71c6.6-3.72 8.82-11.89 4.94-18.24-3.87-6.35-12.37-8.48-18.98-4.76-6.6 3.73-8.82 11.9-4.94 18.25 3.87 6.35 12.37 8.48 18.98 4.75z" fill="#DADDDF"/><path opacity=".05" d="M423.09 90.65a13.2 13.2 0 014.87-9.06 14.27 14.27 0 0110.11-3.1 15.4 15.4 0 017.81 3.15 13.9 13.9 0 00-4.56-3.11 14.37 14.37 0 00-15.59 2.94 13.23 13.23 0 00-3 4.54 12.85 12.85 0 00.48 10.53 13.42 13.42 0 003.4 4.28 13.14 13.14 0 01-2.73-5.07c-.46-1.49-.94-3.4-.79-5.1z" fill="#000"/><path opacity=".05" d="M434.6 100.37l.16-1.9c-2.23-.28-3.29-1.1-3.06-3.69a9.7 9.7 0 01.27-1.65l2.83.23c-.06.24-.1.5-.12.75-.1 1.12-.08 1.77 1.07 1.84 1.15.08 1.28-.29 1.4-1.73.06-.71.09-.96-.29-1.33-.77-.83-2.81-1.51-3.75-2.28-.84-.66-.96-1.5-.77-3.78.23-2.62 1.12-3.44 3.73-3.35l.13-1.51 1.6.12-.13 1.52c2.4.29 3.16 1.17 2.95 3.5-.04.5-.12.99-.23 1.48l-2.8-.23c.05-.27.08-.55.1-.83.09-1.03 0-1.55-1.09-1.64-.92-.08-1.2.2-1.3 1.43-.12 1.22-.05 1.38.78 1.84.91.49 1.8.83 2.59 1.26 1.1.63 1.84.92 1.62 3.47-.31 3.54-1.1 4.7-3.92 4.68l-.18 1.93-1.6-.13z" fill="#000"/><path d="M557.84 450.23H-13.53a.74.74 0 01-.5-.2.67.67 0 010-.98c.13-.13.31-.2.5-.2h571.37c.2 0 .38.07.51.2a.68.68 0 010 .98.73.73 0 01-.5.2z" fill="#B2B6BB"/><path d="M276.74 437.38H437.1c3.41 0 6.69 1.3 9.1 3.62a12.13 12.13 0 013.77 8.75H265.7v-1.77a10.25 10.25 0 013.23-7.5 11.4 11.4 0 017.8-3.1z" fill="#21252B"/><path opacity=".3" d="M276.74 437.38H437.1c3.41 0 6.69 1.3 9.1 3.62a12.13 12.13 0 013.77 8.75H265.7v-1.77a10.25 10.25 0 013.23-7.5 11.4 11.4 0 017.8-3.1z" fill="#000"/><path d="M390.98 413.53h-60.64v30.03h60.64v-30.03zM198.85 173.98H523c2.68 0 5.26 1.03 7.15 2.85a9.54 9.54 0 012.97 6.88v220.06a9.54 9.54 0 01-2.97 6.87 10.34 10.34 0 01-7.15 2.85H198.86c-2.69 0-5.26-1.02-7.16-2.85a9.53 9.53 0 01-2.96-6.87V183.71a9.55 9.55 0 012.96-6.88 10.34 10.34 0 017.16-2.85z" fill="#21252B"/><path opacity=".3" d="M198.85 173.98H523c2.68 0 5.26 1.03 7.15 2.85a9.54 9.54 0 012.97 6.88v220.06a9.54 9.54 0 01-2.97 6.87 10.34 10.34 0 01-7.15 2.85H198.86c-2.69 0-5.26-1.02-7.16-2.85a9.53 9.53 0 01-2.96-6.87V183.71a9.55 9.55 0 012.96-6.88 10.34 10.34 0 017.16-2.85z" fill="#000"/><path d="M193.35 173.98h324.13c2.69 0 5.26 1.03 7.15 2.85a9.54 9.54 0 012.97 6.88v220.06a9.41 9.41 0 01-2.97 6.87 10.48 10.48 0 01-7.15 2.85H193.35c-2.69 0-5.26-1.02-7.16-2.85a9.53 9.53 0 01-2.96-6.87V183.71a9.54 9.54 0 012.97-6.88 10.34 10.34 0 017.15-2.85z" fill="#21252B"/><path opacity=".3" d="M390.98 413.53h-60.64v30.03h60.64v-30.03z" fill="#000"/><path d="M385.73 413.53H325.1v30.03h60.63v-30.03z" fill="#21252B"/><path opacity=".3" d="M385.64 413.53H325v5.3h60.65v-5.3z" fill="#000"/><path d="M276.92 439.16h156.96c2.93 0 5.73 1.11 7.8 3.1a10.37 10.37 0 013.22 7.49h-179c0-2.8 1.17-5.5 3.23-7.49a11.23 11.23 0 017.8-3.1z" fill="#21252B"/><path d="M355.08 405.13c3.43 0 6.2-2.67 6.2-5.96 0-3.3-2.77-5.96-6.2-5.96a6.09 6.09 0 00-6.2 5.96c0 3.3 2.78 5.96 6.2 5.96z" fill="#868A91"/><path opacity=".2" d="M355.09 393.2c-.31.01-.62.03-.92.08 1.47.2 2.8.92 3.78 2a5.83 5.83 0 010 7.78 6.27 6.27 0 01-3.78 2 6.33 6.33 0 005.3-1.68 5.85 5.85 0 001.82-4.2c0-1.59-.66-3.1-1.82-4.23a6.33 6.33 0 00-4.38-1.74z" fill="#000"/><path d="M196.1 180.74h318.62c1.24 0 2.42.47 3.29 1.3a4.38 4.38 0 011.36 3.17v200.05H191.46V185.2c0-1.19.49-2.32 1.36-3.16a4.74 4.74 0 013.28-1.31z" fill="#fff"/><path d="M227.97 234.9h-10.93V352.2h10.93V234.9zM249.07 274.74h-10.93v77.48h10.93v-77.48zM270.17 249.48h-10.93V352.8h10.93V249.48zM291.26 239.43h-10.92v112.79h10.93V239.43zM312.36 277.13h-10.93v75.09h10.93v-75.09zM333.46 291.85h-10.93v60.37h10.93v-60.37zM354.56 246.94h-10.93v105.28h10.93V246.94zM375.66 265.92h-10.93v86.3h10.93v-86.3zM396.76 250.75h-10.93v101.47h10.93V250.75zM417.86 283.1h-10.93v69.12h10.93v-69.13zM459.94 246.94H449v105.28h10.93V246.94zM504.75 314.67h-10.93v36.03h10.93v-36.03zM482.9 283.1h-10.92v69.12h10.92v-69.13zM438.96 269.94h-10.93v82.28h10.93v-82.28z" fill="#139988"/><path opacity=".2" d="M227.51 234.46h-10.93v117.31h10.93V234.46zM248.6 274.3h-10.92v77.47h10.93V274.3zM269.71 249.04h-10.93v103.33h10.93V249.04zM290.8 238.99h-10.92v112.79h10.93v-112.8zM311.9 276.69h-10.92v75.08h10.92V276.7zM333 291.41h-10.93v60.36H333v-60.36zM354.1 246.5h-10.93v105.28h10.93V246.5zM375.2 265.48h-10.93v86.3h10.93v-86.3zM396.3 250.3h-10.93v101.47h10.93V250.31zM417.4 282.65h-10.94v69.12h10.93v-69.12zM459.48 246.5h-10.93v105.28h10.93V246.5zM504.29 314.23h-10.93v36.03h10.93v-36.03zM482.44 282.65h-10.92v69.12h10.93v-69.12zM438.5 269.5h-10.93v82.27h10.93V269.5z" fill="#000"/><path d="M504.66 360.96H204.6V210.78a.44.44 0 01.08-.4c.04-.07.1-.11.17-.14a.5.5 0 01.6.13.44.44 0 01.07.4v149.31h299.16a.5.5 0 01.42.07c.07.04.11.1.15.16.03.07.05.14.05.21a.44.44 0 01-.2.37.5.5 0 01-.43.07z" fill="#000"/><path d="M223.9 266a30.6 30.6 0 013.88-4.06c.73-.6 1.44-1.23 2.2-1.78.38-.28.75-.57 1.13-.84l1.18-.8a54.03 54.03 0 0110.05-5.29 53.19 53.19 0 0122.49-3.9c7.72.47 15.2 2.79 21.74 6.75.85.47 1.6 1.03 2.4 1.55.79.52 1.59 1.04 2.32 1.65l2.23 1.75c.72.62 1.41 1.26 2.12 1.9l1.05.94.98 1.01 1.97 2.03c.63.7 1.22 1.43 1.83 2.14.62.71 1.25 1.4 1.79 2.17l1.7 2.25c.27.38.57.74.82 1.13l.78 1.17 3.09 4.66c1.02 1.54 2.07 3.1 3.06 4.67 1 1.57 1.98 3.16 2.94 4.75 3.87 6.35 7.67 12.75 11.84 18.87 4.16 6.12 8.76 12.06 14.3 17.09a46.94 46.94 0 009.1 6.53 32.67 32.67 0 0010.61 3.6c3.75.53 7.56.4 11.25-.4 1.85-.39 3.66-.9 5.44-1.55 1.77-.65 3.5-1.4 5.18-2.23a66.77 66.77 0 009.58-5.91c2.95-2.3 5.63-4.9 8.02-7.73 4.83-5.67 8.85-11.94 12.9-18.18 4.04-6.25 8.05-12.54 12.6-18.48 2.26-2.98 4.68-5.85 7.24-8.6a82.3 82.3 0 018.26-7.72 69.65 69.65 0 0119.67-11.36 81.25 81.25 0 0122.4-4.74c7.64-.52 15.32-.32 22.92.62-7.6-.86-15.27-1-22.91-.41a81.13 81.13 0 00-22.26 4.92 69.24 69.24 0 00-19.45 11.38 81.01 81.01 0 00-8.14 7.72 109.72 109.72 0 00-7.15 8.6c-4.5 5.93-8.48 12.21-12.5 18.47-4.03 6.25-8.05 12.56-12.94 18.29a54.13 54.13 0 01-8.14 7.88c-.76.57-1.53 1.14-2.32 1.66l-1.19.79-1.2.76a64.53 64.53 0 01-5 2.8 42.62 42.62 0 01-10.82 3.9c-3.8.83-7.72.97-11.57.42a33.45 33.45 0 01-10.93-3.71 47.56 47.56 0 01-9.24-6.67c-5.6-5.12-10.2-11.1-14.4-17.26-4.2-6.16-7.97-12.6-11.82-18.95-.95-1.59-1.93-3.17-2.92-4.74-.99-1.58-2.03-3.1-3.04-4.68l-3.06-4.66-.78-1.18c-.25-.39-.55-.75-.82-1.13l-1.66-2.23c-.54-.76-1.17-1.45-1.76-2.17-.59-.71-1.19-1.42-1.8-2.12l-1.92-2.02-.96-1-1.04-.96c-.7-.62-1.37-1.26-2.08-1.88l-2.2-1.74c-.72-.6-1.5-1.11-2.28-1.65-.78-.53-1.53-1.09-2.36-1.53a46.96 46.96 0 00-21.47-6.8c-7.65-.4-15.3.86-22.37 3.69a53.77 53.77 0 00-10.1 5.18l-1.18.78-1.14.84c-.77.54-1.48 1.16-2.21 1.75a30.95 30.95 0 00-3.94 4z" fill="#000"/><path d="M454.83 259.3a2 2 0 002.04-1.95 2 2 0 00-2.04-1.96 2 2 0 00-2.03 1.96 2 2 0 002.03 1.95zM369.92 338.43a2 2 0 002.04-1.95 2 2 0 00-2.04-1.96 2 2 0 00-2.03 1.96 2 2 0 002.03 1.95zM285.91 257.6a2 2 0 002.04-1.97 2 2 0 00-2.04-1.95 2 2 0 00-2.03 1.95 2 2 0 002.03 1.96z" fill="#000"/><path d="M348.67 104.48H120.1v171h228.58v-171z" fill="#F4F4F4" stroke="#868A91" stroke-miterlimit="10"/><path d="M166.8 126.94h-37v1.98h37v-1.98zM148.09 131.58H129.8v1.98h18.29v-1.98z" fill="#B2B6BB"/><path d="M318.58 255.8v6.57h1.93v-6.56h-1.93zM288.74 255.8v6.57h1.93v-6.56h-1.93zM258.9 255.8v6.57h1.93v-6.56h-1.93zM229.06 255.8v6.57H231v-6.56h-1.93zM199.22 255.8v6.57h1.94v-6.56h-1.94zM169.38 255.8v6.57h1.93v-6.56h-1.93zM157.6 250.91h-6.7v1.86h6.7v-1.86zM157.6 226.12h-6.7v1.85h6.7v-1.85zM157.6 179.44h-6.7v1.86h6.7v-1.86zM157.6 155.99h-6.7v1.86h6.7v-1.86zM157.94 202.78h-6.7v1.85h6.7v-1.85z" fill="#61656D"/><path d="M169.21 247.75v-20.72L182.62 207l9.1 6.72 18.68-27.93 11.01 7.47 15.33-25.76 12.45 9.76 18.8-34.12 20.1 38.18 16.3-19.1 19.15-5.28v90.83l-154.33-.02z" fill="#139988"/><path d="M169.21 247.75v-20.72L182.62 207l9.1 6.72 18.68-27.93 11.01 7.47 15.33-25.76 12.45 9.76 18.8-34.12 20.1 38.18 16.3-19.1 19.15-5.28v90.83l-154.33-.02z" fill="#139988"/><path d="M325.49 149.58h-1.34l-3.9.03-14.71.06.1-.05c-4.31 5.38-9.63 12.09-15.8 19.8l-.06.07h-.09l-39.48.03.19-.1-16.58 26.6-16.29 26.03-.17.28-.2-.27-21.4-28.26h.32l-19.49 29.24-5.43 8.08-1.43 2.12-.51.71s.15-.26.48-.74l1.38-2.14 5.33-8.14 19.35-29.32.15-.23.16.22 21.46 28.22h-.37l16.28-26.05 16.62-26.56.07-.1h.12l39.48.04-.14.07 15.87-19.74.04-.05h.06l14.72.06 3.89.03h1l.32.06z" fill="#000"/><path d="M202.38 200.33c.01.3-.06.58-.22.83s-.39.45-.66.58a1.58 1.58 0 01-1.69-.27 1.44 1.44 0 01-.36-1.6c.11-.27.3-.5.56-.67.25-.16.55-.25.85-.25.4 0 .77.14 1.05.4.29.25.45.6.47.98zM247.92 175.45c0 .29-.07.58-.23.83a1.57 1.57 0 01-2.34.28 1.4 1.4 0 01-.35-1.6c.1-.27.3-.5.55-.67.25-.16.55-.25.85-.25a1.55 1.55 0 011.06.4 1.37 1.37 0 01.45 1zM281.8 170.74c.84 0 1.52-.63 1.52-1.4 0-.78-.68-1.4-1.51-1.4-.84 0-1.52.62-1.52 1.4 0 .77.68 1.4 1.52 1.4z" fill="#263238"/><path d="M161.02 141.3v111.4h162.36M167.72 156.95H325.3M167.97 180.66h157.57M168.2 204.37h157.57M168.44 228.08h157.57" stroke="#000" stroke-miterlimit="10" stroke-linecap="round"/><path d="M348.28 104.46H120.31v13.82h227.97v-13.82z" fill="#868A91"/><path d="M129.64 111.52c0 .33-.1.66-.3.94-.2.28-.47.5-.79.62a1.83 1.83 0 01-1.92-.37 1.67 1.67 0 01-.38-1.84c.14-.31.36-.58.65-.76a1.82 1.82 0 012.23.21 1.69 1.69 0 01.51 1.2zM135.72 111.52c0 .33-.1.66-.3.94a1.84 1.84 0 01-2.71.26 1.63 1.63 0 01-.38-1.85c.13-.31.35-.57.64-.76a1.8 1.8 0 012.61.76c.1.2.14.43.14.65zM141.79 111.52c0 .33-.1.66-.3.94a1.82 1.82 0 01-2.71.25 1.64 1.64 0 01-.38-1.85c.13-.3.36-.57.65-.75a1.82 1.82 0 012.23.21 1.69 1.69 0 01.5 1.2z" fill="#fff"/><path opacity=".2" d="M94.73 435.19h-8.18v7.15h8.19v-7.15zM94.73 420.88h-8.18v7.15h8.19v-7.15zM94.73 399.42h-8.18v7.15h8.19v-7.15zM101.71 442.34h-8.18v7.16h8.18v-7.16zM101.71 413.73h-8.18v7.15h8.18v-7.15zM101.71 406.57h-8.18v7.15h8.18v-7.15zM101.71 428.03h-8.18v7.16h8.18v-7.16z" fill="#fff"/><path d="M482.7 425.35a4.57 4.57 0 012.46 2.52 7.5 7.5 0 01.43 3.5c-.2 2.3-1.46 4.6-2.87 6.49-2.05-1.62-2.6-4.52-2.79-6.01-.3-2.36.67-6.8 2.75-6.5M485.44 441.86a3.7 3.7 0 01.74-3.72 5.21 5.21 0 013.64-1.65 2.26 2.26 0 011.77.5 1.57 1.57 0 01.26 1.61c-.23.54-.6 1-1.07 1.36-1.57 1.26-3.33 2.2-5.34 1.9zM480.64 441.92a8.74 8.74 0 00-1.82-3.76 9.1 9.1 0 00-3.4-2.55c-.67-.28-1.55-.46-2.09.04-.53.49-.38 1.35-.09 2a7.67 7.67 0 002.98 3.3c1.3.8 2.83 1.2 4.38 1.16" fill="#139988"/><path d="M482.5 428.85a191.52 191.52 0 01.52 10.03 175.04 175.04 0 01.04 10.04l-.32-10.04-.14-5.01a350.5 350.5 0 01-.1-5.02zM483.35 448.65a15.09 15.09 0 011.47-5.95 8.3 8.3 0 011.88-2.49c.4-.35.85-.64 1.33-.88.48-.22 1-.37 1.52-.46a6.08 6.08 0 00-2.7 1.49 8.57 8.57 0 00-1.78 2.45c-.45.92-.82 1.87-1.09 2.84-.28 1-.5 1.99-.63 3zM482.78 448.65c-.14-1.01-.36-2-.64-2.98-.26-.99-.63-1.93-1.09-2.85a8.57 8.57 0 00-1.78-2.45 6.06 6.06 0 00-2.7-1.49c.53.09 1.04.24 1.53.46.47.24.92.54 1.32.88.79.71 1.43 1.56 1.88 2.5a15.4 15.4 0 011.47 5.93z" fill="#21252B"/><path d="M196.3 424.89a4.6 4.6 0 012.45 2.52 7.5 7.5 0 01.44 3.5c-.2 2.3-1.47 4.6-2.88 6.49-2.05-1.62-2.6-4.52-2.79-6.01-.29-2.36.67-6.8 2.76-6.5M199.03 441.4a3.63 3.63 0 01.75-3.72 5.18 5.18 0 013.63-1.65 2.26 2.26 0 011.78.5 1.58 1.58 0 01.25 1.62c-.22.53-.6 1-1.07 1.35-1.56 1.26-3.32 2.2-5.34 1.9zM194.23 441.46a8.72 8.72 0 00-1.81-3.76 9.12 9.12 0 00-3.4-2.55c-.68-.28-1.56-.45-2.1.04-.53.49-.37 1.35-.08 2a7.65 7.65 0 002.97 3.3 8.1 8.1 0 004.38 1.16" fill="#139988"/><path d="M196.1 428.39a195.98 195.98 0 01.51 10.03 175.04 175.04 0 01.04 10.04l-.32-10.04-.14-5.01a350.5 350.5 0 01-.1-5.02zM196.94 448.19a15.1 15.1 0 011.47-5.95 8.3 8.3 0 011.89-2.49c.4-.35.84-.64 1.32-.88.49-.22 1-.37 1.53-.46a6.06 6.06 0 00-2.7 1.49 8.6 8.6 0 00-1.78 2.46c-.46.9-.83 1.85-1.1 2.83-.27 1-.48 1.99-.63 3zM196.38 448.19c-.15-1.01-.36-2-.64-2.99a15.1 15.1 0 00-1.1-2.84 8.6 8.6 0 00-1.77-2.46 6.09 6.09 0 00-2.7-1.48c.52.09 1.04.24 1.52.46.48.24.93.54 1.33.88.78.71 1.42 1.56 1.88 2.5.46.92.81 1.9 1.05 2.9s.38 2.01.43 3.03z" fill="#21252B"/><path d="M152.2 354.47c.47 0 .93-.13 1.32-.39a2.22 2.22 0 00.36-3.54 2.5 2.5 0 00-2.61-.5c-.43.18-.8.47-1.07.85a2.24 2.24 0 00.3 2.9c.45.44 1.06.68 1.7.68z" fill="#B2B6BB"/><path opacity=".15" d="M151.31 352.15c0-.48.16-.95.45-1.34.29-.4.7-.69 1.17-.84a2.46 2.46 0 00-2.49.54 2.27 2.27 0 000 3.27 2.46 2.46 0 002.5.55 2.44 2.44 0 01-1.17-.85 2.3 2.3 0 01-.46-1.33z" fill="#000"/><path d="M152.2 390.28c.47 0 .93-.14 1.32-.4a2.22 2.22 0 00.36-3.54 2.43 2.43 0 00-2.6-.5c-.44.18-.81.48-1.08.86a2.24 2.24 0 00.3 2.9c.45.44 1.06.68 1.7.68z" fill="#B2B6BB"/><path opacity=".15" d="M151.31 387.96c0-.48.16-.95.45-1.34.29-.39.7-.69 1.17-.84a2.2 2.2 0 00-.79-.13 2.48 2.48 0 00-1.78.84 2.27 2.27 0 00-.5 1.84 2.25 2.25 0 001.1 1.58 2.43 2.43 0 001.97.23 2.39 2.39 0 01-1.17-.84c-.3-.39-.45-.86-.45-1.34z" fill="#000"/><path d="M141.62 440.5l30.06.71-11.97-8.23a7.8 7.8 0 01-2.39-2.59 7.49 7.49 0 01-.97-3.33l-.41-9.05-16.35.05 2.03 22.44z" fill="#FC9D9D"/><path opacity=".15" d="M144.95 429.95v-.17c-.05-.48.1-.96.4-1.35.32-.38.77-.63 1.27-.7l9.58-1.34-.1-1.84H140.1l1.44 15.32 13.11-1.38-4.31-1.64a8.53 8.53 0 01-3.7-2.72 8.05 8.05 0 01-1.68-4.18z" fill="#000"/><path d="M87.46 439.97H101l2.5-22-15.98.04-.05 21.96z" fill="#FC9D9D"/><path opacity=".15" d="M90.85 436.27l.32-6.76c.02-.44.2-.85.5-1.16.31-.32.72-.52 1.17-.58l9.72-1.43.24-1.86-15.25.04-.04 15.59 3.34-3.84z" fill="#000"/><path d="M86.58 244.72v179.84h17.56l15.29-146.63c0-.49.2-.96.56-1.3a1.95 1.95 0 012.7 0c.37.34.57.81.57 1.3l16.26 146.63h17.55l-6.33-179.84H86.58z" fill="#21252B"/><path d="M88.48 432.22l.42-.4a8.41 8.41 0 015.84-2.24 8.4 8.4 0 015.79 2.38l.23.26c.77.77 1.2 1.79 1.2 2.85v1.7c0 .98.16 1.95.48 2.89l1.44 4.6c.37 1.11.55 2.27.55 3.43v.58c-.02.44-.22.86-.56 1.16-.34.3-.78.46-1.24.44H85.98a1.81 1.81 0 01-1.25-.44 1.63 1.63 0 01-.56-1.16v-.22c0-1.35.24-2.7.7-3.97l1.67-4.5c.39-1.03.59-2.11.6-3.21l.05-1.3a4.38 4.38 0 011.3-2.85z" fill="#3F4249"/><path d="M86.12 424.56h18.71l.38-3.68H86.17l-.05 3.68z" fill="#21252B"/><path opacity=".3" d="M86.12 424.56h7.85l.18-3.68h-7.98l-.05 3.68z" fill="#000"/><path opacity=".5" d="M84.17 448.03v.22c.03.44.23.86.57 1.16.34.3.78.46 1.24.44h16.63a1.8 1.8 0 001.25-.44 1.6 1.6 0 00.55-1.16v-.58c.02-.22 0-.44-.04-.67h-20.2v1.03z" fill="#000"/><path d="M139.53 435.38v11.27a3.18 3.18 0 001 2.33 3.46 3.46 0 002.43.96h39.84c.38 0 .74-.14 1.01-.4s.43-.61.43-.98c-.01-1.3-.44-2.58-1.24-3.64a6.54 6.54 0 00-3.21-2.28l-8.99-2.85-11.4-8.5a3.22 3.22 0 00-3.98.08l-5.05 4.15a2.89 2.89 0 01-2.69.54l-6.39-1.92a1.43 1.43 0 00-1.2.2c-.16.12-.3.28-.4.46-.1.18-.15.38-.16.58z" fill="#3F4249"/><path d="M142.96 449.94h39.84c.38 0 .74-.14 1.01-.4s.42-.61.42-.98c.01-.46-.05-.93-.18-1.38h-44.47c.13.77.54 1.47 1.16 1.97.62.51 1.4.8 2.22.8z" fill="#000"/><path d="M159.17 435.78a.35.35 0 01-.23-.09.34.34 0 010-.49l2.4-2.49a.36.36 0 01.5 0 .34.34 0 010 .49l-2.4 2.5a.65.65 0 01-.27.08zM161.07 437.2a.35.35 0 01-.23-.08.35.35 0 01-.1-.24c0-.1.04-.19.1-.25l2.4-2.5a.39.39 0 01.11-.07l.14-.03c.05 0 .1 0 .14.02a.3.3 0 01.12.08c.04.03.06.07.08.11a.3.3 0 01.03.14c0 .05-.01.09-.03.13a.35.35 0 01-.09.12l-2.4 2.49a.74.74 0 01-.27.09zM162.97 438.63a.36.36 0 01-.23-.09.34.34 0 010-.49l2.4-2.49a.37.37 0 01.24-.08c.1 0 .18.04.24.1a.34.34 0 01.03.47l-2.4 2.5a.4.4 0 01-.28.08zM97.75 436c-.07.01-.13 0-.18-.04a7.36 7.36 0 00-6.12 0c-.1.04-.2.03-.3 0a.38.38 0 01-.22-.2.38.38 0 01-.03-.28.4.4 0 01.18-.23 8.1 8.1 0 016.9 0 .41.41 0 01.18.53.48.48 0 01-.42.23zM97.74 438.06c-.06 0-.12-.01-.18-.05a7.36 7.36 0 00-6.28.09.38.38 0 01-.2 0 .4.4 0 01-.34-.4l.05-.16c.03-.06.08-.11.13-.15a8.09 8.09 0 017.08-.07.41.41 0 01.18.53.49.49 0 01-.43.2zM97.75 440.08c-.07 0-.13 0-.19-.04a7.36 7.36 0 00-6.11 0 .46.46 0 01-.16.04c-.05 0-.1 0-.16-.02a.5.5 0 01-.14-.08.35.35 0 01-.1-.12.39.39 0 01-.02-.3l.08-.14a.37.37 0 01.13-.1 8.1 8.1 0 016.9 0 .42.42 0 01.18.54.5.5 0 01-.17.17.53.53 0 01-.24.05z" fill="#fff"/><path opacity=".3" d="M150 422.51l-17.32-138.43a8.75 8.75 0 00-3.03-5.56 9.42 9.42 0 00-6.1-2.24h-2.17c.48 0 .95.17 1.3.49.36.31.57.74.61 1.2l16.17 145.84 10.54-1.3z" fill="#000"/><path d="M139.07 424.56h18.68l-.28-3.68H138.7l.37 3.68z" fill="#21252B"/><path d="M107.38 163.85l10.74-2.45 12.48 3.22v90.82H105.3l2.09-91.59z" fill="#fff"/><path opacity=".3" d="M139.07 424.56h11.12l-.42-3.68H138.7l.37 3.68z" fill="#000"/><path d="M109.86 165.19a14.78 14.78 0 0017.12-.53h.48c.53-.42.3-1.1.21-1.74l-.66-10.31c.25-1 .36-2.03.36-3.06.17-5.22.66-9.93.66-9.93s-18-10.86-18.71 2.42l-.27 3.44-1.24 17.4c0 .48.16.94.48 1.3l1.57 1z" fill="#FC9D9D"/><path d="M129.63 140.43c1.21 0 2.39-.34 3.39-.99 1-.64 1.78-1.56 2.24-2.63a5.66 5.66 0 00-1.32-6.38 6.31 6.31 0 00-6.64-1.27 6.04 6.04 0 00-2.73 2.16 5.7 5.7 0 00.76 7.4 6.11 6.11 0 004.3 1.7z" fill="#21252B"/><path d="M131.32 131.13s3.96 26.24-9.92 26.79c-12.01.49-11.66-17.42-11.66-17.42L111.4 129l19.92 2.12z" fill="#FC9D9D"/><path d="M129.28 131.86l-12.18.85c-.72.06-1.4.4-1.87.92a2.65 2.65 0 00-.69 1.92 2.56 2.56 0 01-.67 1.93 2.76 2.76 0 01-1.89.92.82.82 0 00-.5.25.76.76 0 00-.2.5l.17 2.6a.54.54 0 01-.14.44.56.56 0 01-.2.14.6.6 0 01-.23.05.64.64 0 01-.42-.1.59.59 0 01-.24-.36l-.54-2.47-.52-.8-2.88 1.7s-4.65-6.88-2.42-13.16c1.28-3.56 4.94-4.83 6.7-5.06a1.96 1.96 0 001.37-.85c.7-1.14 2.43-3.14 6.27-3.01 1.08 0 2.15.27 3.1.77.95.5 1.75 1.23 2.33 2.11.25.36.62.62 1.05.74.42.11.88.08 1.29-.1a5.45 5.45 0 015.16.38c3.98 2.44 2.39 9.05-1.85 9.7z" fill="#21252B"/><path opacity=".15" d="M109.06 146.33s1.15.08 1.77-.39l-1.94 2.9.17-2.51z" fill="#000"/><path d="M109.73 139.45s-.89-2.41-3.53-1.3c-3 1.26-2.4 7.82 2.69 8.18 2.65.2 2.12-1.27 1.68-3.27l-.84-3.6z" fill="#FC9D9D"/><path opacity=".15" d="M106.07 139.84a1.97 1.97 0 011.43-.39 1.8 1.8 0 011.15.9c.32.54.49 1.15.48 1.78l.04.55a.3.3 0 01-.1.19.32.32 0 01-.42 0 .3.3 0 01-.1-.19l-.04-.55a3.52 3.52 0 00-.4-1.49c-.16-.28-.42-.5-.73-.63-.34-.03-.68.06-.96.25a.34.34 0 01-.44-.08c-.1-.05-.04-.22.09-.34zM127.42 159.86l-.44-4.14c-1.15 1.15-4.46 2.8-8.21 1.95a9.2 9.2 0 01-4.88-2.95.3.3 0 00-.38.1.25.25 0 00-.03.1v.11c.02.03.03.07.06.1a10.07 10.07 0 006.35 3.26 10.09 10.09 0 007.53 1.47zM123.72 152.52c0 .04-.05.04 0 0l-1.68.13a.4.4 0 01-.27-.1.37.37 0 01-.13-.24.34.34 0 01.1-.26.36.36 0 01.26-.12l1.63-.13c.1-.01.19.01.27.07.07.06.12.14.13.23 0 .24-.14.42-.31.42zM124.34 151c-3 .42-4.37-1.15-4.86-1.91a.33.33 0 01-.03-.27.34.34 0 01.17-.2.36.36 0 01.27-.03c.09.02.16.08.2.16.45.76 1.95 2.41 5.58 1.27a.35.35 0 01.4.08.33.33 0 01.04.4.35.35 0 01-.22.15c-.5.16-1.03.28-1.55.34z" fill="#000"/><path d="M120.19 144.2a1.08 1.08 0 001.02-.66 1.04 1.04 0 00-.24-1.15 1.12 1.12 0 00-1.2-.23c-.2.08-.38.22-.5.4a1.03 1.03 0 00.14 1.34c.2.2.49.3.78.3z" fill="#21252B"/><path d="M120.67 143.44c.06 0 .1-.03.14-.07a.21.21 0 000-.28.22.22 0 00-.14-.07c-.05 0-.1.03-.14.07a.21.21 0 000 .28c.04.04.09.07.14.08z" fill="#fff"/><path d="M128.93 144.25c.22 0 .43-.06.62-.18a1.04 1.04 0 00.17-1.64 1.13 1.13 0 00-1.7.17 1.03 1.03 0 00.13 1.34 1.1 1.1 0 00.78.31z" fill="#21252B"/><path d="M129.4 143.49c.07 0 .12-.03.16-.07.04-.04.07-.09.07-.15a.2.2 0 00-.07-.15.22.22 0 00-.07-.04.23.23 0 00-.08-.02.22.22 0 00-.16.06.2.2 0 00-.06.15c0 .06.02.11.06.15.04.04.1.07.16.07z" fill="#fff"/><path opacity=".15" d="M125.13 148.4l-1.44.1a.38.38 0 01-.23-.1.35.35 0 01-.12-.2c0-.09.04-.16.1-.23.05-.06.13-.1.21-.11l1.44-.09a.69.69 0 00.48-.2.62.62 0 00.1-.73.64.64 0 00-.17-.2.69.69 0 00-.5-.14.38.38 0 01-.23-.09.36.36 0 01-.12-.2c-.05-.18.13-.3.3-.35.35-.02.68.1.95.3.26.22.43.52.47.85.02.34-.1.68-.33.94a1.4 1.4 0 01-.9.46z" fill="#000"/><path d="M132.16 139.8l-4.78-.14h-.67l-4.19-.12h-.04l-5.43-.16a1.64 1.64 0 00-1.14.42 1.52 1.52 0 00-.5 1.07l-.03 1.18a4.02 4.02 0 001.18 2.98 4.32 4.32 0 003.02 1.3 4.49 4.49 0 003.09-1.13 4.15 4.15 0 001.36-2.9l.04-1.19c0-.34-.11-.67-.33-.94l1.68.05a1.4 1.4 0 00-.34.92l-.04 1.19a4.07 4.07 0 001.18 2.97 4.43 4.43 0 006.12.17 4.09 4.09 0 001.35-2.9l.04-1.19a1.46 1.46 0 00-.43-1.11 1.6 1.6 0 00-1.14-.47zm-8.73 1.28l-.04 1.19a3.49 3.49 0 01-1.17 2.41 3.77 3.77 0 01-5.14-.11 3.48 3.48 0 01-1.06-2.47l.04-1.19a.88.88 0 01.3-.66.96.96 0 01.7-.26l5.42.15h.05c.25.02.48.12.64.3.17.17.26.4.26.64zm9.63 1.46a3.5 3.5 0 01-1.18 2.42 3.77 3.77 0 01-5.14-.12 3.48 3.48 0 01-1.05-2.47l.03-1.19a.89.89 0 01.3-.66.96.96 0 01.7-.26h.66l4.81.14a.97.97 0 01.9.6c.05.11.07.23.06.36l-.1 1.18z" fill="#21252B"/><path opacity=".15" d="M129.89 176.74l-5.7 87.55a2.98 2.98 0 00.93 2.2 3.23 3.23 0 002.27.9h24.24v-13.23l-21.74-77.42z" fill="#000"/><path opacity=".3" d="M110.25 184.57l-9.26 65.1v9.05l-14.45-.16v162.22l7.55.04 6.86-141.38.17-4.03a4.76 4.76 0 011.26-3.02 5.1 5.1 0 012.96-1.58l5.98-.96a3.46 3.46 0 002.39-.96 3.22 3.22 0 00.96-2.3l.2-30.07c.1-17.42-1.44-34.8-4.62-51.95z" fill="#000"/><path d="M135.75 163.46l16.66 4.1c2.25.5 4.3 1.62 5.9 3.23 1.6 1.6 2.68 3.63 3.1 5.82l9.75 48.72-19.1-1.84-.82 41.43c0 .4-.17.77-.47 1.04-.29.28-.68.43-1.1.43h-18.31c-.41 0-.8-.15-1.1-.43-.29-.27-.46-.64-.47-1.04l-1.63-102.66 7.6 1.2zM107.38 162.93c3.5 20.53 5.13 41.3 4.87 62.1l-.5 39.86c0 .4-.17.77-.47 1.05-.29.27-.68.43-1.1.43H86.25c-.41 0-.8-.16-1.1-.44-.3-.28-.46-.66-.47-1.05l-.28-34.27-7.63 2.76-3.07.78c-3.78.96-7.69-1.55-7.97-5.3-.03-.44-.02-.87.05-1.3l8.04-50.65a11.2 11.2 0 013.06-6.04 11.95 11.95 0 016.08-3.32l13.9-2.96c3.47-.75 6.99-1.3 10.53-1.65z" fill="#139988"/><path d="M154.31 223.5l16.85 1.83-4.75-23.74-12.1 1.86v20.06z" fill="#FC9D9D"/><path opacity=".15" d="M80.08 188.2s2.57 2.24 4.5 7.93l-4.5-7.92zM154.17 207.18v-18.97l3.67 19.8a12.86 12.86 0 004.83 7.93l8.05 6.09.66 3.82-14.48-4.65-2.81-14.15" fill="#000"/><path d="M159.99 210.69s1.29-1.66 1.72 0l-.43 7.42-2.15-4.95.86-2.47z" fill="#FC9D9D"/><path opacity=".15" d="M159.99 210.69s1.29-1.66 1.72 0l-.43 7.42-2.15-4.95.86-2.47zM157.19 175.42c-2.15 4.15-3 11.97-3 11.97s1.07-4.74 2.78-5.98M84.33 236.82l.34 28.08c0 .4.17.78.47 1.06.3.27.69.43 1.1.43h5.1l-.25-38.81-3.08-10.88-2.74-27.52a.31.31 0 00-.1-.22.33.33 0 00-.37-.06.32.32 0 00-.19.3l-.28 47.62z" fill="#000"/><path d="M84.39 203.44l-14.37-2.3-4.25 26.4c-.07.44-.08.88-.05 1.31.29 3.76 4.2 6.26 7.97 5.3l3.07-.78 1.38-.46a65.2 65.2 0 0011.5-5.06l-5.27-15.66.02-8.75zM160.6 218.1l9.56 5.42c.86.5 1.2 1.48 1.34 2.51.4 3.1-1.11 11.31-9.85 8.75a3.06 3.06 0 01-1.6-1.16l-5.78-8.08 6.34-7.43z" fill="#FC9D9D"/><path opacity=".15" d="M157.05 225.84c1.6-1.36 3.25-3.84 3.75-7.52l-.78-.41-6.1 7.82.96 1.03 5.18 6.88c.39.54.95.95 1.6 1.16 6.12 1.8 8.68-1.32 9.56-5.14-4.24 8.26-11.7.96-14.29-1.98a1.3 1.3 0 01.12-1.84z" fill="#000"/><path d="M84.44 212.36l32.43-8.07 14.03-5.4a3.26 3.26 0 012.01-.1l6.59 1.8c.5.13.94.38 1.3.73l4.11 3.94a1.09 1.09 0 01.33.85 1.09 1.09 0 01-.45.8 1.14 1.14 0 01-1.35-.01l-4.47-3.22-3.83-1.1a.59.59 0 00-.4.01.53.53 0 00-.1.94l4.87 3.34c.22.15.4.36.48.61a1.2 1.2 0 01-.48 1.39l-.38.25a1.3 1.3 0 01-1.17.11l-1.53-.59.6.39c.2.13.35.3.43.52a1 1 0 01-.26 1.07c-.12.11-.26.2-.42.25l-.48.14c-.2.07-.43.07-.63 0l-2.68-.73 2.33.96a.67.67 0 01.38.39.62.62 0 01-.04.53.65.65 0 01-.3.3l-.68.32a3.3 3.3 0 01-1.77.3l-2.93-.3s-3.86.82-9.87.4l-33.9 16.5-6.43-7 4.66-10.32z" fill="#FC9D9D"/><path opacity=".15" d="M135.32 211.73c0 1.65-5.57 0-5.57 0-2.58 0-10.3-1.23-10.3-1.23l-34.89 13.43v.09c-19.3 7.77-18.28.27-18.28.26l-.51 3.27c-.07.44-.1.88-.06 1.32.31 3.92 4.03 6.28 7.98 5.28l3.06-.78 1.48-.46a48.59 48.59 0 009.04-3.68l-.1-.05 32.92-16.02c6 .41 9.87-.4 9.87-.4l2.93.3a3.3 3.3 0 001.77-.3l.67-.32a.66.66 0 00.3-.3v-.03l-.3-.38z" fill="#000"/><path opacity=".15" d="M136.75 208.76l-3.58-1.58M134.26 210.8l-2.8-1.14" stroke="#000" stroke-width=".9" stroke-miterlimit="10" stroke-linecap="round"/><path opacity=".15" d="M101.89 163.64l-1.22 23.7 9.42-5.3-2.71-19.1-5.5.7z" fill="#000"/><path d="M102.59 163.51l-.62 21.52 7.9-3.63-2.64-20.3-4.64 2.41z" fill="#139988"/><path opacity=".15" d="M132.53 162.6l5.02 23.81-9.15-4.1-.43-20.76 4.56 1.04z" fill="#000"/><path d="M127.97 160.63l.43 20.77 7.72 3.17-4.32-22.2-3.83-1.74z" fill="#139988"/><path opacity=".15" d="M84.39 212.2l-4.31 1.37 4.25-3.09.06 1.71z" fill="#000"/><path d="M143.94 205l-17.35 20.22 1.33 1.38 28.17-4.13 13.97-20.2-1.3-1.13-24.82 3.87z" fill="#263238"/><path opacity=".15" d="M127.97 226.46l16.77-19.8 25.38-4.6-1.44-.92-24.9 3.69-17.25 20.71 1.44.92z" fill="#000"/><path d="M155.27 210.35c.53 0 .96-.41.96-.92 0-.5-.43-.92-.96-.92a.94.94 0 00-.96.92c0 .5.43.92.96.92z" fill="#FAFAFA"/><path d="M162.35 210.35c-.54 0-1.06.16-1.51.45-.45.3-.8.71-.99 1.2-.42 1.04-1.03 2.26-1.7 2.62-1.26.65-3.42 1.18-4.56.64-1.14-.53-5.69-4.47-6.49-4.03-.79.43-1.47 1.42-.68 2.3.8.88 5.01 3.5 4.22 4.37-.8.88-9.68-2.97-11.04-2.63-1.37.34-2.17 1.14-1.37 1.67.8.52 6.83 2.72 7.18 3.48 0 0-9.1-2.3-9.44-1.75-.35.55-.91 1.42 0 1.75.9.33 8.76 2.3 9.44 2.62 1.13.46 2.3.79 3.51.99 1.24.31 2.47.69 3.67 1.12 1.84.61 3.85.56 5.66-.15l.93-.36c.7-.27 1.29-.75 1.69-1.36.4-.62.6-1.34.55-2.06l-.2-2.99 1-2.46.13-5.42z" fill="#FC9D9D"/><path d="M144.74 221.86l-6.23-.46s-1 .32-.48.96c.22.26.55.43.9.46l10.6 1.34-4.8-2.3z" fill="#FC9D9D"/></g><defs><linearGradient id="paint0_linear" x1="68.21" y1="406.05" x2="602.72" y2="-117.53" gradientUnits="userSpaceOnUse"><stop stop-color="#139988" stop-opacity=".2"/><stop offset="1" stop-color="#fff" stop-opacity="0"/></linearGradient><clipPath id="clip0"><path fill="#fff" d="M0 0h600v450H0z"/></clipPath></defs></svg>