<svg width="73" height="261" fill="none" xmlns="http://www.w3.org/2000/svg"><path d="M7.044 190.884c-8.353-25.398 25.547-41.235 15.095-68.228 0 0-.841-33.09 21.458-49.531 29.827-21.99 11.254 8.531 89.79-35.562C211.923-6.53 235.562 33.3 253.525 69.52c8.183 16.5-1.599 19.237-7.273 39.068-7.046 24.622-11.236 69.751-37.9 77.743-47.854 14.342-6.979 47.721-39.373 61.348-30.221 12.712-71.287-16.613-99.164-15.61-41.175 1.482-55.774-19.909-62.771-41.185z" fill="url(#paint0_linear)"/><defs><linearGradient id="paint0_linear" x1="27.886" y1="210.565" x2="251.061" y2="-53.228" gradientUnits="userSpaceOnUse"><stop stop-color="#139988" stop-opacity=".2"/><stop offset="1" stop-color="#fff" stop-opacity="0"/></linearGradient></defs></svg>