<svg width="78" height="241" fill="none" xmlns="http://www.w3.org/2000/svg"><path d="M-19.731 1.325C-42.736 5.14-41.267 37.74-66.352 40.575c0 0-25.912 12.73-29.6 36.61-4.933 31.94 11.143 5.247 8.823 83.765-2.32 78.518 38.017 80.68 73.27 79.917C2.199 240.52.36 231.854 13.39 219.451 29.569 204.051 63.605 199.836 59 176c-8.265-42.779 20.568-47.458 18-78-2.396-28.494-29.03-42.872-39.525-64.82C21.972.763-.461-1.87-19.731 1.325z" fill="url(#paint0_linear)"/><defs><linearGradient id="paint0_linear" x1="3.904" y1="9.474" x2="-109.711" y2="288.593" gradientUnits="userSpaceOnUse"><stop stop-color="#139988" stop-opacity=".2"/><stop offset="1" stop-color="#fff" stop-opacity="0"/></linearGradient></defs></svg>