<svg width="172" height="887" fill="none" xmlns="http://www.w3.org/2000/svg"><path d="M113.584 205.759c48.81-52.531 129.932 6.538 179.761-52.989 0 0 76.607-44.863 144.112-13.813 90.288 41.53-5.446 37.481 199.874 164.732 205.321 127.251 142.439 234.377 80.677 323.5-28.134 40.598-47.24 21.179-101.157 33.558-66.944 15.371-177.171 207.162-230.494 154.914-95.7-93.771-122.261-97.674-196.241-156.073-69.016-54.481-53.389-188.912-91.876-253.066-56.846-94.756-25.542-156.759 15.344-200.763z" fill="url(#paint0_linear)"/><defs><linearGradient id="paint0_linear" x1="46.458" y1="262.621" x2="595.351" y2="829.33" gradientUnits="userSpaceOnUse"><stop stop-color="#139988" stop-opacity=".09"/><stop offset="1" stop-color="#fff" stop-opacity="0"/></linearGradient></defs></svg>