<svg width="224" height="833" fill="none" xmlns="http://www.w3.org/2000/svg"><path d="M181 718c-50-52 13-130-44-182 0 0-40-79-6-145 46-88 37 7 175-191C443 1 547 70 633 136c39 30 19 48 28 103 12 67 198 187 143 238-98 91-104 117-166 188-58 66-191 43-257 79-98 51-158 17-200-26z" fill="url(#paint0_linear)"/><defs><linearGradient id="paint0_linear" x1="251.5" y1="641.6" x2="658.6" y2="324.5" gradientUnits="userSpaceOnUse"><stop stop-color="#139988" stop-opacity=".1"/><stop offset="1" stop-color="#fff" stop-opacity="0"/></linearGradient></defs></svg>