<svg width="176" height="887" fill="none" xmlns="http://www.w3.org/2000/svg"><path d="M113 206c49-53 130 6 180-53 0 0 76-45 144-14 90 42-6 38 200 165 205 127 142 234 80 323-28 41-47 21-101 34-67 15-177 207-230 155-96-94-123-98-196-156-70-55-54-189-92-253-57-95-26-157 15-201z" fill="url(#paint0_linear)"/><defs><linearGradient id="paint0_linear" x1="45.8" y1="262.7" x2="594.7" y2="829.4" gradientUnits="userSpaceOnUse"><stop stop-color="#139988" stop-opacity=".1"/><stop offset="1" stop-color="#fff" stop-opacity="0"/></linearGradient></defs></svg>