<svg width="216" height="833" fill="none" xmlns="http://www.w3.org/2000/svg"><path d="M35 718c50-52-13-130 44-182 0 0 41-79 6-145-46-88-37 7-175-191C-227 1-331 70-417 136c-39 30-19 48-28 103-12 67-198 187-143 238 98 90 104 117 166 188 58 66 191 43 257 78 98 52 158 18 200-25z" fill="url(#paint0_linear)"/><defs><linearGradient id="paint0_linear" x1="-35.4" y1="641.5" x2="-442.6" y2="324.4" gradientUnits="userSpaceOnUse"><stop stop-color="#139988" stop-opacity=".1"/><stop offset="1" stop-color="#fff" stop-opacity="0"/></linearGradient></defs></svg>