<svg width="77" height="264" fill="none" xmlns="http://www.w3.org/2000/svg"><path d="M38 37C19 23-3 47-23 31c0 0-27-9-47 5-26 19 4 11-53 65s-31 84-5 108c11 12 16 4 34 5 22 0 70 55 83 35 25-36 33-39 53-63 19-21 5-63 13-86 13-34-1-52-17-63z" fill="url(#paint0_linear)"/><defs><linearGradient id="paint0_linear" x1="48.7" y1="59.3" x2="-229.6" y2="174.8" gradientUnits="userSpaceOnUse"><stop stop-color="#139988" stop-opacity=".2"/><stop offset="1" stop-color="#fff" stop-opacity="0"/></linearGradient></defs></svg>