<svg width="351" height="320" fill="none" xmlns="http://www.w3.org/2000/svg"><path d="M115.943 211.152C65.5004 233.819 53.9721 224.054.6023 287.507c-19.8317 23.579-79.0551 31.501-79.0551 31.501l-11.115-266.7475S337.544-18.4186 338.597 6.8467c1.053 25.2653-39.406 59.9513-48.252 84.2109-9.807 26.8974-14.757 27.3104-36.113 48.9754-41.359 41.954-52.227 32.446-138.289 71.119z" fill="url(#paint0_linear)"/><path d="M115.943 211.152C65.5004 233.819 53.9721 224.054.6023 287.507c-19.8317 23.579-79.0551 31.501-79.0551 31.501l-11.115-266.7475S337.544-18.4186 338.597 6.8467c1.053 25.2653-39.406 59.9513-48.252 84.2109-9.807 26.8974-14.757 27.3104-36.113 48.9754-41.359 41.954-52.227 32.446-138.289 71.119z" fill="url(#paint1_linear)"/><defs><linearGradient id="paint0_linear" x1="-60.0143" y1="313.423" x2="415.755" y2="-19.117" gradientUnits="userSpaceOnUse"><stop stop-color="#CFFFF9" stop-opacity=".33"/><stop offset=".4654" stop-color="#E8FFFC" stop-opacity=".1571"/><stop offset=".6959" stop-color="#fff" stop-opacity="0"/></linearGradient><linearGradient id="paint1_linear" x1="51.4803" y1="56.856" x2="50.5557" y2="136.786" gradientUnits="userSpaceOnUse"><stop stop-color="#fff"/><stop offset="1" stop-color="#fff" stop-opacity="0"/></linearGradient></defs></svg>