<svg width="250" height="892" fill="none" xmlns="http://www.w3.org/2000/svg"><path d="M-253.385 77.3756c-65.697 17.8216-51.879 112.0764-123.906 127.6664 0 0-71.528 44.567-75.243 115.006-4.968 94.213 33.902 11.974 50.176 240.707S-268.293 783.948-166.126 771.4c46.541-5.717 38.658-30.347 72.8691-70.19 42.4772-49.471 252.3239-57.412 231.9629-125.293-36.544-121.83-28.095-145.873-44.5043-233.83C78.8933 260.031-40.9777 213.803-77.8955 153.132-132.423 63.5197-198.351 62.447-253.385 77.3756z" fill="url(#paint0_linear)"/><defs><linearGradient id="paint0_linear" x1="-175.959" y1="46.0734" x2="57.9076" y2="757.583" gradientUnits="userSpaceOnUse"><stop stop-color="#139988" stop-opacity=".09"/><stop offset="1" stop-color="#fff" stop-opacity="0"/></linearGradient></defs></svg>