<svg width="136" height="848" fill="none" xmlns="http://www.w3.org/2000/svg"><path d="M113.585 166.759c48.809-52.531 129.931 6.538 179.761-52.989 0 0 76.606-44.863 144.111-13.8127 90.289 41.5297-5.445 37.4807 199.875 164.7317 205.32 127.251 142.438 234.377 80.676 323.5-28.134 40.598-47.239 21.179-101.156 33.558-66.945 15.371-177.172 207.162-230.494 154.914-95.701-93.771-122.261-97.674-196.241-156.073-69.017-54.481-53.389-188.912-91.8764-253.066-56.8457-94.756-25.5423-156.759 15.3444-200.763z" fill="url(#paint0_linear)"/><defs><linearGradient id="paint0_linear" x1="46.458" y1="223.621" x2="595.351" y2="790.33" gradientUnits="userSpaceOnUse"><stop stop-color="#139988" stop-opacity=".09"/><stop offset="1" stop-color="#fff" stop-opacity="0"/></linearGradient></defs></svg>