<svg width="55" height="270" fill="none" xmlns="http://www.w3.org/2000/svg"><path d="M92.2346 257.599c22.9514 4.123 32.5034-27.08 57.0854-21.338 0 0 28.681-3.301 40.165-24.56 15.362-28.434-8.737-8.68 19.786-81.871 28.523-73.1905-8.751-88.758-42.218-99.8641-15.245-5.0591-16.419 3.7215-32.854 11.0353-20.407 9.0809-86.5291-19.2502-90.186 4.7494-6.5634 43.0734-12.7064 49.2763-20.5323 78.9104-7.3009 27.646 23.0218 59.543 25.5476 83.74 3.7305 35.74 23.9808 45.745 43.2063 49.198z" fill="url(#paint0_linear)"/><defs><linearGradient id="paint0_linear" x1="72.7016" y1="241.995" x2="273.36" y2="17.1572" gradientUnits="userSpaceOnUse"><stop stop-color="#139988" stop-opacity=".2"/><stop offset="1" stop-color="#fff" stop-opacity="0"/></linearGradient></defs></svg>