<svg width="129" height="887" fill="none" xmlns="http://www.w3.org/2000/svg"><path d="M113 206c49-52 130 7 180-53 0 0 77-45 144-13 90 41-5 37 200 164 205 128 142 235 81 324-29 40-48 21-102 33-66 16-177 207-230 155-96-94-122-97-196-156-69-54-54-189-92-253-57-95-26-157 15-201z" fill="url(#paint0_linear)"/><defs><linearGradient id="paint0_linear" x1="46.1" y1="263.2" x2="595" y2="829.9" gradientUnits="userSpaceOnUse"><stop stop-color="#139988" stop-opacity=".1"/><stop offset="1" stop-color="#fff" stop-opacity="0"/></linearGradient></defs></svg>