<svg width="39" height="229" fill="none" xmlns="http://www.w3.org/2000/svg"><path d="M-4 3c-21-10-38 19-60 7 0 0-29-3-45 15-21 24 7 11-38 75-44 65-11 89 19 107 13 9 16 0 34-3 22-4 80 38 89 16 16-41 24-45 38-72 13-25-9-63-6-88C32 25 14 10-4 3z" fill="url(#paint0_linear)"/><defs><linearGradient id="paint0_linear" x1="11.7" y1="22.3" x2="-234.9" y2="195.6" gradientUnits="userSpaceOnUse"><stop stop-color="#139988" stop-opacity=".2"/><stop offset="1" stop-color="#fff" stop-opacity="0"/></linearGradient></defs></svg>