<svg width="132" height="817" fill="none" xmlns="http://www.w3.org/2000/svg"><path d="M2 181c-49-48-99-67-120-46s-82-46-125 10c-328 434-35 7-223 138-189 131-124 229-61 311 29 37 46 17 98 26 64 12 179 188 226 136 86-94 111-99 179-158 62-56 41-182 74-245 49-93-7-133-48-172z" fill="url(#paint0_linear)"/><defs><linearGradient id="paint0_linear" x1="91.5" y1="214" x2="-400" y2="779.1" gradientUnits="userSpaceOnUse"><stop stop-color="#139988" stop-opacity=".1"/><stop offset="1" stop-color="#fff" stop-opacity="0"/></linearGradient></defs></svg>