<svg width="58" height="270" fill="none" xmlns="http://www.w3.org/2000/svg"><path d="M92 258c23 4 33-27 57-22 0 0 29-3 40-24 16-29-8-9 20-82 29-73-8-89-42-100-15-5-16 4-33 11-20 9-86-19-90 5-7 43-13 49-21 79-7 27 24 59 26 83 4 36 24 46 43 50z" fill="url(#paint0_linear)"/><defs><linearGradient id="paint0_linear" x1="72.7" y1="242" x2="273.4" y2="17.2" gradientUnits="userSpaceOnUse"><stop stop-color="#139988" stop-opacity=".2"/><stop offset="1" stop-color="#fff" stop-opacity="0"/></linearGradient></defs></svg>