<svg width="136" height="886" fill="none" xmlns="http://www.w3.org/2000/svg"><path d="M113 206c49-53 130 6 180-53 0 0 77-45 144-14 91 41-5 37 200 165 206 127 143 234 81 323-28 41-47 21-101 34-67 15-177 207-231 154-95-93-122-97-196-156-69-54-53-189-92-253-57-94-25-156 15-200z" fill="url(#paint0_linear)"/><defs><linearGradient id="paint0_linear" x1="46.3" y1="262.4" x2="595.2" y2="829.1" gradientUnits="userSpaceOnUse"><stop stop-color="#139988" stop-opacity=".1"/><stop offset="1" stop-color="#fff" stop-opacity="0"/></linearGradient></defs></svg>