<svg width="130" height="772" fill="none" xmlns="http://www.w3.org/2000/svg"><path d="M17 109c-55-40-120 29-177-18 0 0-79-28-137 13-77 54 12 34-158 189-169 154-91 243-18 315 33 33 48 12 100 14 65 3 202 162 242 104 73-104 97-113 156-180 55-63 17-186 41-252 37-99-3-151-49-185z" fill="url(#paint0_linear)"/><defs><linearGradient id="paint0_linear" x1="89.5" y1="150.4" x2="-323.1" y2="775.5" gradientUnits="userSpaceOnUse"><stop stop-color="#139988" stop-opacity=".1"/><stop offset="1" stop-color="#fff" stop-opacity="0"/></linearGradient></defs></svg>