<svg width="58" height="230" fill="none" xmlns="http://www.w3.org/2000/svg"><path d="M70.235 229.599c22.95 4.123 32.503-27.08 57.085-21.338 0 0 28.681-3.301 40.165-24.56 15.362-28.434-8.737-8.68 19.786-81.871 28.523-73.19-8.751-88.758-42.218-99.864-15.245-5.06-16.419 3.721-32.854 11.035-20.407 9.081-86.53-19.25-90.186 4.75C15.45 60.824 9.307 67.027 1.481 96.66c-7.301 27.646 23.021 59.543 25.547 83.74 3.73 35.74 23.981 45.745 43.207 49.198z" fill="url(#paint0_linear)"/><defs><linearGradient id="paint0_linear" x1="50.702" y1="213.995" x2="251.36" y2="-10.843" gradientUnits="userSpaceOnUse"><stop stop-color="#139988" stop-opacity=".2"/><stop offset="1" stop-color="#fff" stop-opacity="0"/></linearGradient></defs></svg>