<svg width="226" height="880" fill="none" xmlns="http://www.w3.org/2000/svg"><path d="M588.108 784.972c59.916-32.307 25.007-120.942 91.595-152.517 0 0 59.507-59.678 47.091-129.114-16.606-92.871-35.737-3.943-103.646-222.968-67.909-219.025-181.347-186.82-277.977-151.347-44.017 16.159-30.736 38.349-54.98 84.933C260.089 271.8 57.558 327.296 92.835 388.761c63.315 110.314 60.56 135.65 96.559 217.563 33.583 76.418 160.83 94.148 210.588 144.824 73.493 74.849 137.935 60.887 188.126 33.824z" fill="url(#paint0_linear)"/><defs><linearGradient id="paint0_linear" x1="515.125" y1="784.84" x2="564.698" y2="-93.49" gradientUnits="userSpaceOnUse"><stop stop-color="#139988" stop-opacity=".2"/><stop offset="1" stop-color="#fff" stop-opacity="0"/></linearGradient></defs></svg>