<svg width="576" height="470" fill="none" xmlns="http://www.w3.org/2000/svg"><path d="M229.762 311.257c-74.135 33.313-91.078 18.962-169.516 112.219C31.1 458.13-55.94 469.773-55.94 469.773l-16.336-392.04S555.451-26.143 556.998 10.99c1.547 37.132-57.915 88.11-70.916 123.765-14.414 39.532-21.688 40.138-53.076 71.978-60.786 61.662-76.757 47.688-203.244 104.525z" fill="url(#paint0_linear)"/><path d="M229.762 311.257c-74.135 33.313-91.078 18.962-169.516 112.219C31.1 458.13-55.94 469.773-55.94 469.773l-16.336-392.04S555.451-26.143 556.998 10.99c1.547 37.132-57.915 88.11-70.916 123.765-14.414 39.532-21.688 40.138-53.076 71.978-60.786 61.662-76.757 47.688-203.244 104.525z" fill="url(#paint1_linear)"/><defs><linearGradient id="paint0_linear" x1="-28.842" y1="461.566" x2="670.398" y2="-27.17" gradientUnits="userSpaceOnUse"><stop stop-color="#CFFFF9" stop-opacity=".33"/><stop offset=".465" stop-color="#E8FFFC" stop-opacity=".157"/><stop offset=".696" stop-color="#fff" stop-opacity="0"/></linearGradient><linearGradient id="paint1_linear" x1="135.022" y1="84.488" x2="133.663" y2="201.96" gradientUnits="userSpaceOnUse"><stop stop-color="#fff"/><stop offset="1" stop-color="#fff" stop-opacity="0"/></linearGradient></defs></svg>