<svg width="50" height="232" fill="none" xmlns="http://www.w3.org/2000/svg"><path d="M23.972 216.661c17.168-15.779-1.898-42.263 17.547-58.362 0 0 14.724-24.833 4.745-46.839-13.346-29.434-12.198 1.705-53.217-65.286C-47.973-20.818-82.92-.557-112.01 19.37c-13.252 9.078-6.971 15.325-11.091 32.836-5.116 21.743-67.678 57.25-50.781 74.682 30.325 31.285 31.547 39.929 50.408 64.089 17.595 22.539 61.338 17.693 82.133 30.321 30.713 18.652 50.93 8.582 65.312-4.637z" fill="url(#paint0_linear)"/><defs><linearGradient id="paint0_linear" x1="-.27" y1="222.773" x2="-57.892" y2="-73.023" gradientUnits="userSpaceOnUse"><stop stop-color="#139988" stop-opacity=".2"/><stop offset="1" stop-color="#fff" stop-opacity="0"/></linearGradient></defs></svg>