<svg width="83" height="271" fill="none" xmlns="http://www.w3.org/2000/svg"><path d="M50.737 44.55c14.608 22.393-14.073 46.422 2.975 69.814 0 0 9.33 31.76-7.987 53.386-23.162 28.926-13.07-5.347-77.612 57.475-64.54 62.822-97.634 30.418-124.315.041-12.154-13.837-3.407-19-3.028-39.623.471-25.606-7.095-70.293 16.613-84.879 42.551-26.176-5.539-47.91 22.257-69.415 25.93-20.062 73.161-2.295 99.84-10.44 39.406-12.03 59.02 4.883 71.257 23.64z" fill="url(#paint0_linear)"/><defs><linearGradient id="paint0_linear" x1="25.531" y1="30.897" x2="-122.227" y2="343.245" gradientUnits="userSpaceOnUse"><stop stop-color="#139988" stop-opacity=".2"/><stop offset="1" stop-color="#fff" stop-opacity="0"/></linearGradient></defs></svg>