<svg width="215" height="505" fill="none" xmlns="http://www.w3.org/2000/svg"><path d="M5.153 92.002C56.508 136.685 2.976 215.484 61 260.918c0 0 44.94 71.294 17.572 136.305-36.606 86.953-35.73-4.005-150.104 194.747-114.373 198.753-217.963 142.41-304.437 86.572-39.392-25.436-21.559-44.165-34.976-94.938-16.658-63.04-202.046-161.68-154.126-213.892 86.005-93.707 112.222-221.589 197.647-194.975 90.07 28.06 112.921-73.047 181.617-91.071 47.605-12.49 147.942-29.093 190.96 8.336z" fill="url(#paint0_linear)"/><defs><linearGradient id="paint0_linear" x1="-50.878" y1="30.074" x2="-571.563" y2="568.429" gradientUnits="userSpaceOnUse"><stop stop-color="#139988" stop-opacity=".09"/><stop offset="1" stop-color="#fff" stop-opacity="0"/></linearGradient></defs></svg>