<svg width="99" height="283" fill="none" xmlns="http://www.w3.org/2000/svg"><path d="M84.75 34.874c-18.869 13.7-2.975 42.202-24.143 55.958 0 0-17.482 22.974-10.101 45.982 9.872 30.773 12.313-.291 45.355 70.974 33.042 71.264 70.087 55.158 101.276 38.709 14.208-7.493 8.687-14.421 14.794-31.343 7.583-21.009 27.65-55.065 12.87-74.324-26.525-34.566 19.418-37.313 3.462-63.482-14.887-24.414-58.896-24.631-78.1-39.568-28.364-22.06-49.606-14.382-65.413-2.906z" fill="url(#paint0_linear)"/><defs><linearGradient id="paint0_linear" x1="109.535" y1="31.592" x2="132.752" y2="332.053" gradientUnits="userSpaceOnUse"><stop stop-color="#139988" stop-opacity=".2"/><stop offset="1" stop-color="#fff" stop-opacity="0"/></linearGradient></defs></svg>