<svg width="258" height="750" fill="none" xmlns="http://www.w3.org/2000/svg"><path d="M-245-65c-66 18-52 112-124 128 0 0-71 44-75 115-5 94 34 12 50 240 16 229 134 224 236 211 47-6 39-30 73-70 43-50 252-58 232-125-37-122-28-146-44-234C87 118-33 71-70 11c-54-90-120-91-175-76z" fill="url(#paint0_linear)"/><defs><linearGradient id="paint0_linear" x1="-167.6" y1="-96.3" x2="66.2" y2="615.2" gradientUnits="userSpaceOnUse"><stop stop-color="#139988" stop-opacity=".1"/><stop offset="1" stop-color="#fff" stop-opacity="0"/></linearGradient></defs></svg>