<svg width="29" height="29" fill="none" xmlns="http://www.w3.org/2000/svg"><g clip-path="url(#clip0)"><g filter="url(#filter0_b)"><rect x=".61" y=".666" width="28" height="28" rx="8" fill="#139988"/></g><path d="M11.694 14.666a2.917 2.917 0 115.834 0 2.917 2.917 0 01-5.833 0zm-1.576 0a4.493 4.493 0 108.985 0 4.493 4.493 0 00-8.985 0zm8.114-4.671a1.05 1.05 0 101.05-1.05 1.05 1.05 0 00-1.05 1.05zm-7.156 11.793c-.853-.038-1.317-.18-1.625-.3a2.72 2.72 0 01-1.007-.655 2.699 2.699 0 01-.654-1.006c-.12-.308-.262-.772-.301-1.625-.043-.922-.051-1.2-.051-3.536 0-2.337.01-2.613.05-3.536.04-.853.183-1.316.302-1.625.159-.408.348-.7.654-1.006a2.697 2.697 0 011.007-.655c.308-.12.772-.262 1.625-.3.922-.043 1.2-.052 3.535-.052s2.613.01 3.536.051c.853.039 1.316.182 1.625.301.408.159.7.349 1.006.655.307.306.496.598.655 1.006.12.308.262.772.3 1.625.043.923.052 1.2.052 3.536 0 2.337-.009 2.613-.051 3.536-.04.853-.182 1.317-.301 1.625a2.71 2.71 0 01-.655 1.006 2.718 2.718 0 01-1.006.654c-.308.12-.772.263-1.625.301-.923.043-1.2.051-3.536.051-2.337 0-2.613-.008-3.535-.05zM11.003 5.97c-.931.042-1.568.19-2.124.406a4.292 4.292 0 00-1.55 1.01 4.275 4.275 0 00-1.009 1.55c-.216.556-.364 1.192-.406 2.124-.043.933-.053 1.23-.053 3.607 0 2.376.01 2.674.053 3.607.042.932.19 1.568.406 2.124a4.277 4.277 0 001.01 1.55c.486.486.974.786 1.55 1.01.556.216 1.192.364 2.123.406.934.042 1.232.053 3.608.053 2.376 0 2.674-.01 3.607-.053.932-.042 1.568-.19 2.124-.406a4.3 4.3 0 001.55-1.01 4.286 4.286 0 001.01-1.55c.216-.556.364-1.192.406-2.123.042-.934.052-1.232.052-3.608 0-2.376-.01-2.675-.052-3.607-.043-.932-.19-1.568-.407-2.124a4.302 4.302 0 00-1.009-1.55 4.28 4.28 0 00-1.55-1.01c-.556-.216-1.192-.364-2.123-.406-.933-.042-1.231-.053-3.608-.053-2.376 0-2.674.01-3.608.053z" fill="#fff"/></g><defs><clipPath id="clip0"><path fill="#fff" transform="translate(.61 .666)" d="M0 0h28v28H0z"/></clipPath><filter id="filter0_b" x="-3.39" y="-3.334" width="36" height="36" filterUnits="userSpaceOnUse" color-interpolation-filters="sRGB"><feFlood flood-opacity="0" result="BackgroundImageFix"/><feGaussianBlur in="BackgroundImage" stdDeviation="2"/><feComposite in2="SourceAlpha" operator="in" result="effect1_backgroundBlur"/><feBlend in="SourceGraphic" in2="effect1_backgroundBlur" result="shape"/></filter></defs></svg>