<svg width="19.5" height="19.5" fill="none" xmlns="http://www.w3.org/2000/svg"><path d="M6.6945 9.666c0-1.6108 1.3055-2.9169 2.9162-2.9169 1.6108 0 2.9169 1.3061 2.9169 2.917 0 1.6107-1.3061 2.9168-2.9169 2.9168-1.6107 0-2.9162-1.3061-2.9162-2.9169zm-1.5768 0c0 2.4815 2.0115 4.493 4.493 4.493 2.4815 0 4.493-2.0115 4.493-4.493 0-2.4815-2.0115-4.493-4.493-4.493-2.4815 0-4.493 2.0115-4.493 4.493zm8.1139-4.6712a1.0498 1.0498 0 001.7922.7432 1.0499 1.0499 0 00-.7418-1.7927h-.0004a1.0505 1.0505 0 00-1.05 1.0495zM6.0757 16.7884c-.853-.0388-1.3168-.1809-1.6249-.301-.4085-.159-.7-.3485-1.0065-.6545-.3064-.306-.4961-.5972-.6545-1.0058-.12-.308-.2622-.7718-.301-1.6249-.0424-.9223-.0508-1.1993-.0508-3.536s.0091-2.613.0508-3.536c.0389-.8531.182-1.316.301-1.625.159-.4085.3485-.7.6545-1.0064.306-.3065.5973-.4962 1.0065-.6545.308-.1201.7718-.2622 1.625-.301.9222-.0425 1.1993-.051 3.535-.051 2.3355 0 2.6129.0093 3.536.051.8531.0388 1.316.182 1.6249.301.4085.1583.7.3484 1.0064.6545.3065.306.4955.598.6545 1.0064.1202.308.2623.7719.301 1.625.0425.923.0509 1.1993.0509 3.536s-.0084 2.6129-.0509 3.536c-.0388.8531-.1816 1.3168-.301 1.6249-.159.4086-.3484.7-.6545 1.0058-.306.3058-.5979.4955-1.0064.6545-.308.1201-.7718.2622-1.6249.301-.9224.0424-1.1994.0509-3.536.0509-2.3367 0-2.613-.0085-3.535-.0509zM6.0033.969c-.9315.0424-1.568.1901-2.1239.4064-.5757.2234-1.063.523-1.55 1.0093-.487.4862-.7859.9743-1.0093 1.55-.2163.5562-.364 1.1924-.4064 2.1239-.0431.933-.053 1.2312-.053 3.6074s.0099 2.6745.053 3.6075c.0424.9315.1901 1.5676.4064 2.1238.2234.5754.5224 1.064 1.0093 1.55.487.4861.9743.7853 1.55 1.0093.557.2163 1.1924.364 2.1239.4064.9334.0424 1.2312.053 3.6074.053s2.6745-.0099 3.6075-.053c.9315-.0424 1.5676-.1901 2.1238-.4064.5754-.224 1.0631-.523 1.55-1.0093.487-.4862.7853-.9746 1.0093-1.55.2163-.5562.3647-1.1923.4064-2.1238.0424-.9337.0523-1.2313.0523-3.6075s-.0099-2.6745-.0523-3.6074c-.0424-.9316-.1901-1.568-.4064-2.1239-.224-.5753-.523-1.063-1.0093-1.55-.4862-.487-.9746-.7859-1.5493-1.0093-.5569-.2163-1.193-.3647-2.1238-.4064-.933-.0424-1.2313-.053-3.6075-.053S6.9367.926 6.0033.969z" fill="#fff"/></svg>