<svg width="178" height="127" fill="none" xmlns="http://www.w3.org/2000/svg"><path d="M21.186 92.468c-5.874-2.344-12.439-2.727-16 2.5-2.75 4.034-2.099 8.092 0 12.5 3.003 6.307 9.169 9.463 16 8 4.89-1.048 8.483-3.235 10-8 2.135-6.709-3.461-12.391-10-15zM18.186 73.468c-7.121-6.126-13.687-8.539-16.5-17.5-1.93-6.148-1.19-10.167 0-16.5 1.5-7.99 1-17 8.5-19s25-5.5 25-5.5c2 .4 31.167-7.5 45.5-11.5 14.333-4 31.207-5.287 48.5 2.5 14.995 6.752 22.114 14.662 31 28.5 14.399 22.423 24.323 45.028 10 67.5-9.972 15.645-22.637 21.351-41 24-26.04 3.755-37.769-16.143-61.5-27.5-19.535-9.35-33.082-10.878-49.5-25z" fill="#123BBD"/><path d="M88.266 59.158c0 7.078-1.465 12.492-4.395 16.242-2.93 3.75-7.219 5.625-12.867 5.625-5.578 0-9.844-1.84-12.797-5.52-2.953-3.68-4.465-8.953-4.535-15.82v-9.422c0-7.148 1.476-12.574 4.43-16.277 2.976-3.703 7.254-5.555 12.832-5.555 5.578 0 9.843 1.84 12.797 5.52 2.953 3.656 4.464 8.918 4.535 15.785v9.422zm-10.16-10.336c0-4.242-.587-7.324-1.758-9.246-1.149-1.946-2.954-2.918-5.414-2.918-2.391 0-4.16.925-5.309 2.777-1.125 1.828-1.723 4.7-1.793 8.613v12.446c0 4.171.562 7.277 1.687 9.316 1.149 2.016 2.977 3.023 5.485 3.023 2.484 0 4.277-.972 5.379-2.918 1.101-1.945 1.676-4.921 1.723-8.93V48.823zm27.386 1.406h5.414c2.578 0 4.489-.645 5.731-1.934s1.863-3 1.863-5.132c0-2.063-.621-3.668-1.863-4.817-1.219-1.148-2.907-1.722-5.063-1.722-1.945 0-3.574.539-4.886 1.617-1.313 1.054-1.969 2.437-1.969 4.148h-10.16c0-2.672.714-5.062 2.144-7.172 1.453-2.133 3.469-3.797 6.047-4.992 2.602-1.195 5.461-1.793 8.578-1.793 5.414 0 9.656 1.3 12.727 3.902 3.07 2.579 4.605 6.141 4.605 10.688 0 2.344-.715 4.5-2.144 6.469-1.43 1.968-3.305 3.48-5.625 4.535 2.882 1.031 5.027 2.578 6.433 4.64 1.43 2.063 2.145 4.5 2.145 7.313 0 4.547-1.664 8.191-4.992 10.934-3.305 2.742-7.688 4.113-13.149 4.113-5.109 0-9.293-1.348-12.55-4.043-3.235-2.695-4.852-6.258-4.852-10.688h10.16c0 1.922.715 3.493 2.144 4.711 1.454 1.22 3.235 1.829 5.344 1.829 2.414 0 4.301-.633 5.66-1.899 1.383-1.289 2.075-2.988 2.075-5.098 0-5.109-2.813-7.664-8.438-7.664h-5.379v-7.945z" fill="#fff"/></svg>