<svg width="158" height="146" fill="none" xmlns="http://www.w3.org/2000/svg"><path d="M28.622 20.617c-2.669 5.233-8.134 5.826-14 5.5-5.147-.285-9.759-.857-12-5.5-1.527-3.165-.958-5.618 0-9 1.364-4.811 3.32-8.237 8-10 5.779-2.176 11.014.285 15 5 3.61 4.27 5.542 9.02 3 14zM6.122 132.117c-10.49-19.879-5.236-38.144 7-57 13.423-20.682 28.47-18.986 50-31 18.318-10.22 31.05-27.027 52-26 19.268.945 37.751 7.184 42 26 7 31-30.934 72.849-52 82-13.812 6-83.142 36.048-99 6z" fill="#139988"/><path d="M76.67 85.502c0 7.079-1.465 12.493-4.395 16.243-2.93 3.75-7.219 5.625-12.867 5.625-5.578 0-9.844-1.84-12.797-5.52-2.953-3.68-4.465-8.953-4.535-15.82v-9.422c0-7.148 1.477-12.574 4.43-16.277 2.976-3.704 7.254-5.555 12.832-5.555 5.578 0 9.843 1.84 12.797 5.52 2.953 3.656 4.464 8.917 4.535 15.785v9.421zM66.51 75.167c0-4.243-.586-7.325-1.758-9.247-1.149-1.945-2.953-2.918-5.414-2.918-2.391 0-4.16.926-5.309 2.778-1.125 1.828-1.723 4.699-1.793 8.613v12.445c0 4.172.563 7.278 1.688 9.317 1.148 2.015 2.976 3.023 5.484 3.023 2.484 0 4.277-.972 5.379-2.918 1.101-1.945 1.676-4.922 1.722-8.93V75.168zm41.73 31.5H98.08V67.502l-12.13 3.762v-8.262l21.2-7.593h1.09v51.258z" fill="#fff"/></svg>