<svg width="150" height="150" fill="none" xmlns="http://www.w3.org/2000/svg"><path d="M121.804 129.362c2.67-5.233 8.135-5.825 14-5.5 5.148.286 9.759.857 12 5.5 1.528 3.165.959 5.618 0 9-1.364 4.812-3.32 8.237-8 10-5.778 2.177-11.013-.284-15-5-3.609-4.27-5.541-9.019-3-14zM127.506 14.54c9.644 20.247 29.992 46.035 17.755 64.89-13.423 20.683-30.224 18.987-51.755 31.001-18.317 10.22-29.294 27.027-50.245 26-19.268-.946-37.751-7.184-42-26-7-31 30.934-72.85 52-82 13.812-6 57.589-48.86 74.245-13.891z" fill="#123BBD"/><path d="M75.58 69.345c0 7.078-1.464 12.492-4.394 16.242s-7.219 5.625-12.867 5.625c-5.578 0-9.844-1.84-12.797-5.52-2.953-3.679-4.465-8.952-4.535-15.82v-9.421c0-7.149 1.477-12.575 4.43-16.278 2.976-3.703 7.253-5.554 12.832-5.554 5.578 0 9.843 1.84 12.797 5.52 2.953 3.655 4.464 8.917 4.535 15.784v9.422zM65.42 59.01c0-4.242-.585-7.324-1.757-9.246-1.149-1.945-2.953-2.918-5.414-2.918-2.391 0-4.16.926-5.309 2.778-1.125 1.828-1.723 4.699-1.793 8.613V70.68c0 4.172.563 7.278 1.688 9.317 1.148 2.015 2.976 3.023 5.484 3.023 2.484 0 4.277-.973 5.379-2.918 1.101-1.945 1.676-4.922 1.723-8.93V59.01zm47.11 12.235h5.801v8.191h-5.801V90.51h-10.16V79.435H81.381l-.457-6.398 21.34-33.715h10.266v31.922zm-21.48 0h11.32v-18.07l-.668 1.16-10.653 16.91z" fill="#fff"/></svg>