<svg width="129" height="25" fill="none" xmlns="http://www.w3.org/2000/svg"><path d="M1.739 16.27c-.23.19-.46.381-.69.54.23.254.394.477.591.7.263-.191.46-.382.689-.54.394.444.754.889 1.18 1.366-.72.572-1.41 1.144-2.164 1.716-.427-.54-.886-1.049-1.345-1.59v1.908c0 .795.656 1.43 1.476 1.43h1.345c-.262-.317-.558-.667-.82-.985 1.673-1.335 3.346-2.638 5.051-4.005 1.378 1.621 2.723 3.242 4.133 4.895-.032.032-.065.064-.13.095h10.233l5.544-5.371V4.859c0-.795-.656-1.43-1.476-1.43H12.727c.099.127.197.222.295.35-1.705 1.334-3.345 2.67-5.051 4.004C6.757 6.353 5.544 4.891 4.33 3.46H1.509c-.82 0-1.476.636-1.476 1.43v2.226c.23.254.393.477.59.699l-.59.477v.222l.492.572-.492.382v.477c.098.127.23.254.328.413-.131.095-.23.19-.328.286V12.869c.033.032.033.063.065.063.263-.19.492-.381.722-.572.394.477.787.922 1.18 1.399-.229.159-.425.35-.72.572.229.254.426.477.59.731-.23.19-.492.381-.722.572h.033l.558.636zM3.05 3.492c.196.223.36.445.557.668-.197.159-.426.35-.689.54-.164-.222-.36-.413-.557-.667.23-.191.459-.35.689-.54zM1.607 4.637c.164.222.361.413.558.667-.23.19-.46.381-.689.54-.197-.222-.36-.445-.558-.667.23-.159.46-.318.69-.54zm4.953 10.17c.164.223.361.446.558.7-.23.19-.46.35-.689.54-.164-.222-.36-.413-.557-.667.23-.223.459-.382.688-.572 0-.032 0-.032 0 0-.196-.223-.36-.445-.59-.7-.492.382-.951.763-1.443 1.145a13.604 13.604 0 00-.59-.7c.229-.19.426-.35.688-.54-.59-.731-1.18-1.399-1.771-2.098v-.031.031c.492-.381.951-.763 1.443-1.176.197.223.394.445.558.668.262-.223.492-.382.721-.572-.196-.255-.393-.445-.557-.668.23-.19.459-.381.689-.54-.23-.255-.394-.477-.59-.7-.263.191-.46.382-.69.54-.393-.444-.754-.92-1.18-1.398.491-.381.95-.763 1.443-1.144-.197-.254-.394-.445-.59-.7.262-.19.458-.38.72-.571.985 1.144 1.936 2.288 2.953 3.496-.23.159-.426.35-.689.54.197.255.394.445.623.731.46-.381.952-.762 1.41-1.112h.034-.033c-.197-.223-.36-.445-.558-.668.492-.381.952-.73 1.41-1.144.165.223.362.413.558.668a53.24 53.24 0 00-1.41 1.144c.197.222.36.445.59.7.492-.382.952-.764 1.476-1.177.23.254.394.477.59.7.23-.191.46-.35.723-.573-.197-.222-.361-.445-.59-.699.262-.19.458-.381.72-.572-.196-.254-.393-.445-.59-.7-.23.16-.426.35-.688.54-.197-.253-.394-.444-.591-.698.689-.54 1.41-1.113 2.165-1.717.197.223.36.445.558.668v.032c-.23.19-.46.381-.69.54.23.254.394.477.591.7.263-.192.46-.382.689-.541.197.222.36.445.59.7.263-.192.46-.382.722-.573.427.477.787.922 1.18 1.399-.229.19-.458.35-.688.54-.197-.223-.36-.445-.557-.668-.493.414-.952.763-1.444 1.145.197.222.361.413.59.699-1.475 1.176-2.919 2.32-4.362 3.464-.197-.222-.394-.413-.623-.667-.23.159-.427.35-.69.572-.622-.731-1.18-1.398-1.77-2.098-.492.413-.952.763-1.444 1.144.197.223.361.414.558.668.23-.159.46-.35.689-.54.623.73 1.18 1.398 1.771 2.098-.23.19-.426.35-.689.54-.164-.223-.36-.413-.59-.7-.263.191-.525.35-.755.573 0-.032 0 0 0 0zm4.1-.89c0-.031 0-.031 0 0 0-.031 0-.031 0 0zm-2.886 2.321c.23-.19.46-.35.689-.54.164.222.36.413.558.635-.23.191-.46.382-.69.54-.196-.222-.36-.413-.557-.635zm4.855 4.291c-.197-.223-.394-.445-.558-.668.23-.19.46-.38.689-.54-.23-.254-.394-.477-.59-.7-.263.192-.46.382-.69.541-.196-.222-.393-.477-.59-.7.492-.38.951-.762 1.444-1.143-.394-.477-.788-.922-1.181-1.399a9.533 9.533 0 01-.722.572c-.394-.445-.754-.89-1.18-1.398.262-.191.491-.382.72-.572.198.222.394.445.591.699.263-.223.492-.413.722-.572.197.222.36.445.59.699.263-.19.46-.381.722-.572.197.254.394.445.59.7-.23.158-.426.349-.721.571.23.255.426.477.59.731.23-.19.46-.35.69-.54.59.7 1.147 1.367 1.77 2.098-.95.667-1.902 1.43-2.886 2.193zm3.805-4.164c-.984-1.144-1.936-2.288-2.952-3.496 1.18-.922 2.361-1.876 3.608-2.86.984 1.175 1.968 2.32 2.952 3.495-1.214.954-2.395 1.908-3.608 2.861z" fill="#232323"/><path d="M14.204 18.113c-.394-.477-.787-.922-1.148-1.367-.23.19-.492.382-.722.572.394.445.787.922 1.148 1.367.263-.223.492-.381.722-.572zM12.366 10.168c-.197-.255-.393-.445-.557-.668-.46.381-.952.763-1.41 1.144.196.255.393.477.557.668.459-.413.918-.763 1.41-1.144zM3.314 20.942c.23.286.492.572.721.858H5.25c-.197-.254-.426-.477-.623-.73.721-.573 1.41-1.113 2.132-1.685.59.699 1.148 1.366 1.738 2.066-.164.127-.295.254-.459.381h1.51a1.86 1.86 0 00.261-.222c-1.016-1.176-1.968-2.352-2.952-3.497-1.18.954-2.361 1.876-3.542 2.83zM11.677 3.651a.847.847 0 01-.164-.19h-1.214l.066.063c-.722.572-1.41 1.113-2.132 1.685a87.891 87.891 0 01-1.476-1.78H5.543A213.671 213.671 0 008.134 6.48c1.148-.922 2.362-1.875 3.543-2.829zM9.578 11.185c-.197-.223-.361-.445-.558-.668-.23.19-.46.35-.689.54.197.255.394.445.558.668.23-.19.46-.35.689-.54z" fill="#232323"/><path d="M21.256 17.858V21.8l5.544-5.372h-4.068c-.82 0-1.476.636-1.476 1.43z" fill="#00786E"/><path d="M37.666 17.578c.876 0 1.569-.367 2.078-1.102.51-.734.765-1.767.765-3.097 0-1.241-.255-2.21-.765-2.907-.51-.697-1.202-1.045-2.078-1.045-.876 0-1.569.348-2.078 1.045-.51.697-.765 1.666-.765 2.907 0 1.33.255 2.363.764 3.097.51.735 1.203 1.102 2.079 1.102zm4.216 5.51c-.68 0-1.308-.088-1.883-.266a5.83 5.83 0 01-1.568-.703 5.33 5.33 0 01-1.216-1.064 5.573 5.573 0 01-.863-1.33 5.79 5.79 0 01-1.863-.722 5.217 5.217 0 01-1.411-1.349 6.182 6.182 0 01-.902-1.88c-.21-.723-.314-1.52-.314-2.395 0-1.013.137-1.912.412-2.698.287-.798.686-1.463 1.196-1.995a4.958 4.958 0 011.823-1.235c.72-.291 1.51-.437 2.373-.437.863 0 1.647.146 2.353.437.719.279 1.333.69 1.843 1.235.51.545.902 1.216 1.176 2.014.288.786.432 1.679.432 2.68 0 1.671-.366 3.045-1.098 4.122-.732 1.077-1.72 1.786-2.961 2.128.3.444.706.754 1.216.931.51.19 1.039.285 1.588.285.274 0 .53-.019.765-.057.248-.038.464-.088.647-.152l.51 2.033c-.236.114-.55.21-.942.285-.379.089-.817.133-1.313.133zm3.6-3.458V7.242h4.608c.68 0 1.313.063 1.901.19a4.326 4.326 0 011.57.646 3.13 3.13 0 011.058 1.178c.261.494.392 1.108.392 1.843 0 .912-.21 1.666-.627 2.261a3.705 3.705 0 01-1.648 1.311l2.903 4.96h-3.236l-2.45-4.466h-1.589v4.465h-2.882zm2.882-6.688h1.49c.758 0 1.334-.152 1.726-.456.405-.317.608-.779.608-1.387s-.203-1.032-.608-1.273c-.392-.24-.968-.36-1.726-.36h-1.49v3.476zm8.75 6.688V7.242h8v2.356h-5.117v2.49h4.353v2.336h-4.353v2.85h5.314v2.356h-8.196zm10.35 0V7.242h4.393c.706 0 1.366.07 1.98.21.615.126 1.15.347 1.608.664a3.15 3.15 0 011.079 1.235c.274.507.411 1.134.411 1.881 0 .722-.137 1.35-.411 1.881a3.58 3.58 0 01-1.079 1.311 4.693 4.693 0 01-1.588.76 7.246 7.246 0 01-1.922.247h-1.588v4.2h-2.882zm2.883-6.422h1.412c1.569 0 2.353-.659 2.353-1.976 0-.646-.21-1.102-.628-1.368-.418-.266-1.02-.399-1.803-.399h-1.334v3.743zm13.445 6.65c-1.66 0-2.928-.475-3.803-1.425-.876-.95-1.314-2.463-1.314-4.54v-6.65h2.902v6.934c0 1.216.19 2.065.568 2.546.38.482.928.722 1.647.722.72 0 1.275-.24 1.667-.722.392-.481.588-1.33.588-2.546V7.242h2.785v6.65c0 2.078-.432 3.591-1.294 4.541-.85.95-2.099 1.425-3.746 1.425zm7.609-.228V7.242h4.373c.666 0 1.28.05 1.843.152.575.089 1.072.253 1.49.494.431.24.765.557 1 .95.248.393.373.887.373 1.482 0 .279-.04.557-.118.836-.079.279-.19.538-.333.78a2.84 2.84 0 01-.53.645c-.196.19-.425.33-.686.418v.076c.327.076.627.197.902.361a2.637 2.637 0 011.216 1.444c.117.317.176.684.176 1.102 0 .634-.131 1.178-.392 1.634a3.202 3.202 0 01-1.059 1.14 5.135 5.135 0 01-1.569.665 8.59 8.59 0 01-1.94.21H91.4zm2.882-7.429h1.353c.706 0 1.216-.133 1.53-.399.327-.266.49-.62.49-1.064 0-.481-.163-.823-.49-1.026-.327-.203-.83-.304-1.51-.304h-1.373v2.793zm0 5.263h1.628c1.582 0 2.372-.557 2.372-1.672 0-.544-.196-.93-.588-1.159-.392-.24-.987-.36-1.784-.36h-1.628v3.191zm8.598 2.166V7.242h2.882v10.032h5.059v2.356h-7.941zm9.757 0V7.242h2.882V19.63h-2.882zm5.505 0V7.242h2.883v5.073h.078l3.804-5.073h3.177l-3.863 4.94 4.568 7.448h-3.156l-3.118-5.225-1.49 1.9v3.325h-2.883z" fill="#232323"/></svg>