<svg width="226" height="880" fill="none" xmlns="http://www.w3.org/2000/svg"><path d="M588 785c60-32 25-121 92-153 0 0 59-59 47-129-17-93-36-4-104-223S442 94 345 129c-44 16-31 38-55 85-30 58-232 113-197 175 63 110 60 135 96 217 34 77 161 94 211 145 73 75 138 61 188 34z" fill="url(#paint0_linear)"/><defs><linearGradient id="paint0_linear" x1="515.1" y1="784.8" x2="564.7" y2="-93.5" gradientUnits="userSpaceOnUse"><stop stop-color="#139988" stop-opacity=".2"/><stop offset="1" stop-color="#fff" stop-opacity="0"/></linearGradient></defs></svg>