<svg width="558" height="468" fill="none" xmlns="http://www.w3.org/2000/svg"><path d="M230 309c-74 34-91 19-170 112-29 35-116 47-116 47L-72 76S555-28 557 9s-58 88-71 124c-14 39-22 40-53 72-61 61-77 47-203 104z" fill="url(#paint0_linear)"/><path d="M230 309c-74 34-91 19-170 112-29 35-116 47-116 47L-72 76S555-28 557 9s-58 88-71 124c-14 39-22 40-53 72-61 61-77 47-203 104z" fill="url(#paint1_linear)"/><defs><linearGradient id="paint0_linear" x1="-28.8" y1="459.6" x2="670.4" y2="-29.2" gradientUnits="userSpaceOnUse"><stop stop-color="#CFFFF9" stop-opacity=".3"/><stop offset=".5" stop-color="#E8FFFC" stop-opacity=".2"/><stop offset=".7" stop-color="#fff" stop-opacity="0"/></linearGradient><linearGradient id="paint1_linear" x1="135" y1="82.5" x2="133.7" y2="200" gradientUnits="userSpaceOnUse"><stop stop-color="#fff"/><stop offset="1" stop-color="#fff" stop-opacity="0"/></linearGradient></defs></svg>