<svg width="25" height="25" fill="none" xmlns="http://www.w3.org/2000/svg"><path fill-rule="evenodd" clip-rule="evenodd" d="M7.21 4.043a2.602 2.602 0 00-2.6 2.6c0 7.388 6.011 13.4 13.4 13.4a2.603 2.603 0 002.58-2.927l-4.62-1.06c-.093.175-.194.366-.286.544-.455.87-.785 1.502-1.627 1.163-3.306-1.16-6.006-3.86-7.18-7.206-.358-.785.322-1.14 1.184-1.59l.537-.282-1.06-4.62a2.604 2.604 0 00-.328-.022zm10.8 18c-8.492 0-15.4-6.907-15.4-15.4a4.605 4.605 0 016.091-4.352c.325.113.57.386.647.722l1.37 5.964a.997.997 0 01-.254.916c-.136.143-.139.146-1.379.794a9.95 9.95 0 004.88 4.883c.65-1.24.653-1.245.796-1.38a1.01 1.01 0 01.916-.253l5.965 1.369a.998.998 0 01.72.646 4.553 4.553 0 01.249 1.492c0 2.537-2.064 4.6-4.6 4.6z" fill="#7C8D8B"/></svg>