<svg width="176" height="861" viewBox="0 0 176 861" fill="none" xmlns="http://www.w3.org/2000/svg">
<path d="M112.973 179.782C161.782 127.251 242.904 186.32 292.734 126.793C292.734 126.793 369.341 81.93 436.845 112.98C527.134 154.51 431.4 150.461 636.72 277.712C842.04 404.963 779.158 512.089 717.397 601.212C689.262 641.81 670.157 622.391 616.24 634.77C549.295 650.14 439.069 841.932 385.746 789.684C290.045 695.913 263.485 692.01 189.505 633.611C120.488 579.13 136.116 444.699 97.6287 380.545C40.783 285.789 72.0865 223.785 112.973 179.782Z" fill="url(#paint0_linear)"/>
<defs>
<linearGradient id="paint0_linear" x1="45.8461" y1="236.644" x2="594.739" y2="803.353" gradientUnits="userSpaceOnUse">
<stop stop-color="#139988" stop-opacity="0.09"/>
<stop offset="1" stop-color="white" stop-opacity="0"/>
</linearGradient>
</defs>
</svg>
