<svg width="56" height="270" viewBox="0 0 56 270" fill="none" xmlns="http://www.w3.org/2000/svg">
<path d="M92.2346 257.599C115.186 261.722 124.738 230.519 149.32 236.261C149.32 236.261 178.001 232.96 189.485 211.701C204.847 183.267 180.748 203.021 209.271 129.83C237.794 56.6393 200.52 41.0717 167.053 29.9657C151.808 24.9065 150.634 33.6872 134.199 41.0009C113.792 50.0819 47.6699 21.7507 44.013 45.7504C37.4496 88.8237 31.3066 95.0266 23.4807 124.661C16.1798 152.307 46.5025 184.204 49.0283 208.401C52.7588 244.14 73.0091 254.146 92.2346 257.599Z" fill="url(#paint0_linear)"/>
<defs>
<linearGradient id="paint0_linear" x1="72.7016" y1="241.995" x2="273.36" y2="17.157" gradientUnits="userSpaceOnUse">
<stop stop-color="#139988" stop-opacity="0.2"/>
<stop offset="1" stop-color="white" stop-opacity="0"/>
</linearGradient>
</defs>
</svg>
