<svg width="600" height="450" fill="none" xmlns="http://www.w3.org/2000/svg"><g clip-path="url(#clip0)"><path d="M21.9 448L-.4 181.5a28 28 0 015.4-19L116.4 12.2A29.2 29.2 0 01142.8.5L524 33.3c6 .5 11.8 2.8 16.4 6.6 4.6 3.8 7.9 9 9.4 14.7L602.3 251c1.3 4.8 1.3 9.9 0 14.7l-51.3 183-529.1-.7z" fill="#F4F4F4"/><path d="M21.9 448L-.4 181.5a28 28 0 015.4-19L116.4 12.2A29.2 29.2 0 01142.8.5L524 33.3c6 .5 11.8 2.8 16.4 6.6 4.6 3.8 7.9 9 9.4 14.7L602.3 251c1.3 4.8 1.3 9.9 0 14.7l-51.3 183-529.1-.7z" fill="url(#paint0_linear)"/><path d="M420 208.9s-18.5 17.2-29.4 15.5l-5 6.2s20.7 1.7 34.4-21.7z" fill="#61656D"/><path opacity=".3" d="M420 208.9s-13.4 18.5-31 19.1l3.1-3.9s7.6 2.8 28-15.2z" fill="#000"/><path d="M340 204.7s-1.7 25-10.9 30.8l.6 8s16.5-12.5 10.4-38.8z" fill="#61656D"/><path opacity=".3" d="M340 204.7s3 22.5-9.5 34.5l-.4-4.9s7.5-3 10-29.6z" fill="#000"/><path d="M400.3 197s-18 42.4-37.5 47.4l-3.7 14s36-12.2 41.2-61.3z" fill="#61656D"/><path opacity=".3" d="M400.3 197s-8.4 40.7-37.3 54.5l2.2-8.7s14.8-1 35-45.7z" fill="#000"/><path d="M315.9 209s17.9 42.3 37.4 47.3l3.7 14S321 258 316 208.8z" fill="#61656D"/><path opacity=".3" d="M315.9 209s8.3 40.5 37.3 54.4l-2.3-8.7s-14.8-1-35-45.8z" fill="#000"/><path d="M355.4 179l-5 229.6 19.6-.6-8.4-229.3-6.2.2z" fill="#61656D"/><path opacity=".3" d="M358.1 178.9l1.6 229.3 10.3-.2-8.4-229.3-3.5.2z" fill="#000"/><path d="M412.2 116.2c-2.7 0-5.3.3-8 .8-7-14.5-24.3-24.6-44.4-24.6-16.4 0-30.9 6.8-39.5 17.2a45 45 0 00-8.3-.8c-21 0-38 14-38 31.2 0 14.5 12.2 26.7 28.6 30.1v1h109.6c18.5 0 33.5-12.3 33.5-27.4 0-15.2-15-27.5-33.5-27.5z" fill="#139988"/><path opacity=".2" d="M417.2 116.5c-5.3 25-40.6 44.4-83.3 44.4-23 0-43.9-5.6-59-14.7 2.8 11.7 13.7 21 27.6 24v1h109.7c18.5 0 33.4-12.4 33.4-27.5 0-13.8-12.3-25.2-28.4-27.2z" fill="#000"/><path opacity=".2" d="M412.2 116.2c-2.7 0-5.3.3-8 .8-7-14.5-24.3-24.6-44.4-24.6-16.4 0-30.9 6.8-39.5 17.2a45 45 0 00-8.3-.8c-21 0-38 14-38 31.2 0 14.5 12.2 26.7 28.6 30.1v1h109.6c18.5 0 33.5-12.3 33.5-27.4 0-15.2-15-27.5-33.5-27.5z" fill="#fff"/><path d="M441.8 170.1c-2 0-3.9.2-5.8.6-5.2-10.4-17.6-17.8-32.2-17.8-11.9 0-22.4 5-28.7 12.4-2-.3-4-.5-6-.5-15.2 0-27.5 10.1-27.5 22.6 0 10.5 8.8 19.4 20.6 21.9v.7h79.6c13.4 0 24.2-9 24.2-20s-10.8-19.9-24.2-19.9z" fill="#139988"/><path opacity=".2" d="M445.6 170.9C441.7 189 416 203 385 203c-16.7 0-31.8-4.1-42.8-10.7 2 8.5 10 15.2 20 17.3v.8H442c13.4 0 24.3-9 24.3-20 0-10-9-18.2-20.6-19.6z" fill="#000"/><path opacity=".2" d="M441.8 170.1c-2 0-3.9.2-5.8.6-5.2-10.4-17.6-17.8-32.2-17.8-11.9 0-22.4 5-28.7 12.4-2-.3-4-.5-6-.5-15.2 0-27.5 10.1-27.5 22.6 0 10.5 8.8 19.4 20.6 21.9v.7h79.6c13.4 0 24.2-9 24.2-20s-10.8-19.9-24.2-19.9z" fill="#fff"/><path d="M296 205s14 20.9 25 21.6l3.5 7.2s-20.6-3-28.4-28.8z" fill="#61656D"/><path d="M353.2 171.7c-2 0-3.9.2-5.8.6-5.1-10.5-17.6-17.9-32.2-17.9-11.9 0-22.4 5-28.6 12.5-2-.4-4-.6-6-.6-15.3 0-27.6 10.2-27.6 22.6 0 10.6 8.8 19.4 20.7 22v.6h79.5c13.4 0 24.3-8.9 24.3-19.9 0-11-10.9-20-24.3-20z" fill="#139988"/><path opacity=".2" d="M356.9 172c-3.9 18.1-29.5 32.2-60.5 32.2-16.7 0-31.8-4.1-42.8-10.7 2 8.4 10 15.2 20 17.3v.8h79.6c13.4 0 24.3-9 24.3-20 0-10-9-18.2-20.6-19.7z" fill="#000"/><path opacity=".2" d="M353.2 171.7c-2 0-3.9.2-5.8.6-5.1-10.5-17.6-17.9-32.2-17.9-11.9 0-22.4 5-28.6 12.5-2-.4-4-.6-6-.6-15.3 0-27.6 10.2-27.6 22.6 0 10.6 8.8 19.4 20.7 22v.6h79.5c13.4 0 24.3-8.9 24.3-19.9 0-11-10.9-20-24.3-20z" fill="#fff"/><path opacity=".3" d="M296 205s8.8 21 25.8 25.5l-2.2-4.5s-8 1-23.5-21z" fill="#000"/><path d="M129.2 17.4v383.9H143l.1.3V.6h-.3a30 30 0 00-13.7 2v14.8h.1zM129.2 17.4v21-21z" fill="#B2B6BB"/><path opacity=".3" d="M129.2 17.4v21-21z" fill="#fff"/><path d="M129.2 52v21-21z" fill="#B2B6BB"/><path opacity=".3" d="M129.2 52v21-21z" fill="#fff"/><path d="M129.2 86.5v21-21z" fill="#B2B6BB"/><path opacity=".3" d="M129.2 86.5v21-21z" fill="#fff"/><path d="M129.2 126.2v21-21z" fill="#B2B6BB"/><path opacity=".3" d="M129.2 126.2v21-21z" fill="#fff"/><path d="M129.2 162.9v21-21z" fill="#B2B6BB"/><path opacity=".3" d="M129.2 162.9v21-21z" fill="#fff"/><path d="M129.2 199.6v21-21z" fill="#B2B6BB"/><path opacity=".3" d="M129.2 199.6v21-21z" fill="#fff"/><path d="M129.2 240.1v21-21z" fill="#B2B6BB"/><path opacity=".3" d="M129.2 240.1v21-21z" fill="#fff"/><path d="M129.2 280.6v21-21z" fill="#B2B6BB"/><path opacity=".3" d="M129.2 280.6v21-21z" fill="#fff"/><path d="M129.2 321v21-21z" fill="#B2B6BB"/><path opacity=".3" d="M129.2 321v21-21z" fill="#fff"/><path d="M129.2 361.6v21-21z" fill="#B2B6BB"/><path opacity=".3" d="M129.2 361.6v21-21z" fill="#fff"/><path d="M143.1 401.6h152.2v-388L143.1.6v401zm13.3-384.2H282v21H156.4v-21zm0 35.3H282v21H156.4v-21zm0 36.8H282v21H156.4v-21zm0 36.7H282v21H156.4v-21zm0 36.7H282v21H156.4v-21zm0 36.8H282v21H156.4v-21zm0 40.5H282v21H156.4v-21zm0 40.4H282v21H156.4v-21zm0 40.6H282v21H156.4v-21zm0 40.5H282v21H156.4v-21z" fill="#DADDDF"/><path d="M282 17.4h-4.8v21h4.8v-21zM277.2 17.4H156.4v21h120.8v-21z" fill="#868A91"/><path opacity=".2" d="M277.2 17.4H156.4v21h120.8v-21z" fill="#fff"/><path d="M282 52.7h-4.8v21h4.8v-21zM277.2 52.7H156.4v21h120.8v-21z" fill="#868A91"/><path opacity=".2" d="M277.2 52.7H156.4v21h120.8v-21z" fill="#fff"/><path d="M282 89.4h-4.8v21h4.8v-21zM277.2 89.4H156.4v21h120.8v-21z" fill="#868A91"/><path opacity=".2" d="M277.2 89.4H156.4v21h120.8v-21z" fill="#fff"/><path d="M282 126.2h-4.8v21h4.8v-21zM277.2 126.2H156.4v21h120.8v-21z" fill="#868A91"/><path opacity=".2" d="M277.2 126.2H156.4v21h120.8v-21z" fill="#fff"/><path d="M282 163h-4.8v20.9h4.8v-21zM277.2 163H156.4v20.9h120.8v-21z" fill="#868A91"/><path opacity=".2" d="M277.2 163H156.4v20.9h120.8v-21z" fill="#fff"/><path d="M282 199.6h-4.8v21h4.8v-21zM277.2 199.6H156.4v21h120.8v-21z" fill="#868A91"/><path opacity=".2" d="M277.2 199.6H156.4v21h120.8v-21z" fill="#fff"/><path d="M282 240.1h-4.8v21h4.8v-21zM277.2 240.1H156.4v21h120.8v-21z" fill="#868A91"/><path opacity=".2" d="M277.2 240.1H156.4v21h120.8v-21z" fill="#fff"/><path d="M282 280.6h-4.8v21h4.8v-21zM277.2 280.6H156.4v21h120.8v-21z" fill="#868A91"/><path opacity=".2" d="M277.2 280.6H156.4v21h120.8v-21z" fill="#fff"/><path d="M282 321h-4.8v21h4.8v-21zM277.2 321H156.4v21h120.8v-21z" fill="#868A91"/><path opacity=".2" d="M277.2 321H156.4v21h120.8v-21z" fill="#fff"/><path d="M282 361.6h-4.8v21h4.8v-21zM277.2 361.6H156.4v21h120.8v-21z" fill="#868A91"/><path opacity=".2" d="M277.2 361.6H156.4v21h120.8v-21z" fill="#fff"/><path d="M129.1 401.3v-138H6.4L18 401.7H129v-.3zM71 278.6h45.6V301H70.9v-22.4zm-7 63.3H18.2v-22.4h45.5v22.4zm0-41H18.2v-22.3h45.5V301zm7 18.6h45.6v22.4H70.9v-22.4zM129.1 175.4V96H54.4l-10.8 14.4h20.2v22.5H27l-6.3 8.5h43.1v22.4H18.3v-19.1L5 162.4a28.2 28.2 0 00-5.3 13h129.4zm-58.2-65h45.6v22.4H70.9v-22.5zm0 53.3v-22.4h45.6v22.4H70.9zM129.1 92V2.6c-5 2-9.5 5.4-12.7 9.7l-1.5 2h1.6v22.4H98.3L83.6 56.5h32.9v22.4H70.9v-5.4L57.2 92h72zM129.1 259.5v-80.2H-.5v2.2l6.6 78h123zM71 192.2h45.6v22.4H70.9v-22.4zm-7 53.4H18.2v-22.4h45.5v22.4zm0-31H18.2v-22.4h45.5v22.4zm7 8.6h45.6v22.4H70.9v-22.4z" fill="#DADDDF"/><path d="M116.5 36.7V14.3h-1.6l-1.4 2v20.4H98.3h18.2z" fill="#868A91"/><path d="M113.5 16.2L98.3 36.7h15.2V16.2z" fill="#B2B6BB"/><path d="M113.5 56.4v22.4h3V56.4H83.6h29.9z" fill="#868A91"/><path d="M113.5 78.8V56.4H83.6L71 73.5v5.3h42.6z" fill="#B2B6BB"/><path d="M113.5 132.8h3v-22.5h-3v22.5z" fill="#868A91"/><path d="M113.5 110.3H70.9v22.5h42.6v-22.5z" fill="#B2B6BB"/><path d="M63.8 110.3h-3v22.5h3v-22.5z" fill="#868A91"/><path d="M60.8 110.3H43.7L27 132.8h33.8v-22.5z" fill="#B2B6BB"/><path d="M113.5 163.7h3v-22.4h-3v22.4z" fill="#868A91"/><path d="M113.5 141.3H70.9v22.4h42.6v-22.4z" fill="#B2B6BB"/><path d="M63.8 141.3h-3v22.4h3v-22.4z" fill="#868A91"/><path d="M60.8 163.7v-22.4H20.7l-2.4 3.3v19.1h42.5z" fill="#B2B6BB"/><path d="M113.5 214.6h3v-22.4h-3v22.4z" fill="#868A91"/><path d="M113.5 192.2H70.9v22.4h42.6v-22.4z" fill="#B2B6BB"/><path d="M63.8 192.2h-3v22.4h3v-22.4z" fill="#868A91"/><path d="M60.8 192.2H18.3v22.4h42.5v-22.4z" fill="#B2B6BB"/><path d="M113.5 245.6h3v-22.4h-3v22.4H70.9v-22.4 22.4h42.6z" fill="#868A91"/><path d="M113.5 223.2H70.9v22.4h42.6v-22.4z" fill="#B2B6BB"/><path d="M60.8 245.6H18.3h45.5v-22.4h-3v22.4z" fill="#868A91"/><path d="M60.8 223.2H18.3v22.4h42.5v-22.4z" fill="#B2B6BB"/><path d="M113.5 301h3v-22.4h-3V301z" fill="#868A91"/><path d="M113.5 278.6H70.9V301h42.6v-22.4z" fill="#B2B6BB"/><path d="M63.8 278.6h-3V301h3v-22.4z" fill="#868A91"/><path d="M60.8 278.6H18.3V301h42.5v-22.4z" fill="#B2B6BB"/><path d="M113.5 341.9h3v-22.4h-3v22.4z" fill="#868A91"/><path d="M113.5 319.5H70.9v22.4h42.6v-22.4z" fill="#B2B6BB"/><path d="M63.8 319.5h-3v22.4h3v-22.4z" fill="#868A91"/><path d="M60.8 319.5H18.3v22.4h42.5v-22.4z" fill="#B2B6BB"/><path d="M129.1 95.9V92H57.2L54.4 96H129zM129.1 179.3v-3.9H-.3c-.2 1.3-.2 2.6-.2 3.9H129zM129.1 263.4v-3.9H6.1l.3 3.9h122.7z" fill="#F4F4F4"/><path d="M536.3 375.7s-.4-16.5-31.8-10.8c0 0-8.4-9.5-25.4-4.2 0 0-3.4-13.8-26-17.2-11.1-1.7-22.6.7-31 6.8-2.6 1.9-4.8 4-6.2 6.5-6-3.5-12.8-5.4-19.8-5.3a33.6 33.6 0 00-22.3 5 20.9 20.9 0 00-5.5-6.4c-6.1-4.9-13.8-7.4-21.7-7-32.5 1.2-31.3 17.4-31.3 17.4-15.7-5.4-23.4 4-23.4 4-29-5.6-38.7 8.1-38.7 8.1-36.4.8-20.1 20.5-20.1 20.5h148l.2.3 184.9.5 3.7-13.6c-5-8.7-21.6-11.8-33.6-4.6z" fill="#139988"/><path opacity=".4" d="M536.3 375.7s-.4-16.5-31.8-10.8c0 0-8.4-9.5-25.4-4.2 0 0-3.4-13.8-26-17.2-11.1-1.7-22.6.7-31 6.8-2.6 1.9-4.8 4-6.2 6.5-6-3.5-12.8-5.4-19.8-5.3a33.6 33.6 0 00-22.3 5 20.9 20.9 0 00-5.5-6.4c-6.1-4.9-13.8-7.4-21.7-7-32.5 1.2-31.3 17.4-31.3 17.4-15.7-5.4-23.4 4-23.4 4-29-5.6-38.7 8.1-38.7 8.1-36.4.8-20.1 20.5-20.1 20.5h148l.2.3 184.9.5 3.7-13.6c-5-8.7-21.6-11.8-33.6-4.6z" fill="#fff"/><path d="M173.5 356c-6.2-2.7-16.4-4.2-32.7.7 0 0-6.6-8-22.1-3 0 0-39-28.4-71.7 3.3 0 0-17-8.3-32.8-1l3 37.4h164.6v-27.7c0-3.8-3-7.4-8.3-9.7z" fill="#139988"/><path opacity=".4" d="M173.5 356c-6.2-2.7-16.4-4.2-32.7.7 0 0-6.6-8-22.1-3 0 0-39-28.4-71.7 3.3 0 0-17-8.3-32.8-1l3 37.4h164.6v-27.7c0-3.8-3-7.4-8.3-9.7z" fill="#fff"/><path d="M97.1 392.9s3-19.3 22.8-13.7c0 0-4.6-13 9.2-18.4 0 0 13.2-5.4 20 7.6 0 0 3.5-12.5 15.6-6 0 0 17-29.8 49-8 0 0 35.5-19.5 42.3 18 0 0 11.5-6.3 12.5 5.7 0 0 17.6-8.1 23.3 14.4l-194.7.4zM546.7 394.2s-3-20-23.3-14.6c0 0 4.8-12.2-9.3-17.2 0 0-13.4-5-20.5 7.2 0 0-3.5-11.7-16-5.6 0 0-16-27-50-7.2 0 0-36.2-18-43.4 17.2 0 0-11.7-5.9-12.8 5.4 0 0-18-7.5-23.9 13.6l199.2 1.2z" fill="#139988"/><path opacity=".5" d="M97.1 392.9s3-19.3 22.8-13.7c0 0-4.6-13 9.2-18.4 0 0 13.2-5.4 20 7.6 0 0 3.5-12.5 15.6-6 0 0 17-29.8 49-8 0 0 35.5-19.5 42.3 18 0 0 11.5-6.3 12.5 5.7 0 0 17.6-8.1 23.3 14.4l-194.7.4zM546.7 394.2s-3-20-23.3-14.6c0 0 4.8-12.2-9.3-17.2 0 0-13.4-5-20.5 7.2 0 0-3.5-11.7-16-5.6 0 0-16-27-50-7.2 0 0-36.2-18-43.4 17.2 0 0-11.7-5.9-12.8 5.4 0 0-18-7.5-23.9 13.6l199.2 1.2z" fill="#fff"/><path d="M564.1 401.8H18l3.9 46.2 87.5.1h441.7l13-46.3z" fill="#61656D"/><path d="M102.2 408.7H80.6l-59.7 28 .4 4.5h18.9l62-32.5zM36.1 408.9l-16.9 7.3.9 10.7 37.6-18H36.1zM120.6 408.7l-56 32.5h28.6l49-32.5h-21.6zM160.5 408.7l-42.9 32.5h28.7l35.8-32.5h-21.6zM170.7 441.2h28.6l22.7-32.5h-21.5l-29.8 32.5zM223.8 441.2h28.6l9.6-32.5h-21.6l-16.6 32.5zM280.4 408.7l-3.6 32.5h28.7l-3.6-32.5h-21.5zM320.3 408.7l9.6 32.5h28.6L342 408.7h-21.6zM360.2 408.7l22.7 32.5h28.7l-29.8-32.5h-21.6zM400.2 408.7l35.8 32.5h28.6l-42.8-32.5h-21.6zM440.1 408.7l49 32.5h28.6l-56-32.5H440zM480 408.7l62.1 32.5h11l2-7.3-53.5-25.2h-21.5zM526.5 408.9l31.5 14.8 2.6-9.5-12.5-5.3h-21.6z" fill="#fff"/><path opacity=".3" d="M403.9 412.6c-36.5 0-66 3.2-66 7.1 0 .7 1.1 1.5 3.1 2.1-14.9-1.8-40-3-68.4-3-45.7 0-82.7 3.1-82.7 7 0 4 37 7 82.7 7s82.8-3 82.8-7c0-.5-.8-1-2.2-1.6 12.1 1.6 30.3 2.6 50.7 2.6 36.4 0 66-3.2 66-7.1 0-3.9-29.6-7-66-7z" fill="#000"/><path d="M567.8 388.6H16.9l.3 3.8 549.6-.2 1-3.6z" fill="#DADDDF"/><path d="M566.8 392.1H17.2l.8 10h546l2.8-10z" fill="#B2B6BB"/><path d="M526.1 183.6h-40.3c-.2 0-.4 0-.6.2a1.6 1.6 0 00-1 1.4v39.9l.4.6a1.6 1.6 0 001.2.4h40.3c.5 0 .9-.1 1.2-.4.3-.3.5-.7.5-1.2v-39.3a1.7 1.7 0 00-1.6-1.6zm-1.3 37.6h-37.7c-1 0-1.4-.7-1-1.6l9.5-15.9 9.5-16c.4-.8 1.3-.8 1.8 0l9.4 16 9.5 16c.5.8 0 1.5-1 1.5z" fill="#139988"/><path d="M507.2 199.3c.2.3.3.7.3 1v6.3l2.7 2.5.6 1 2.7 6.7v.4a1 1 0 01-.3.7l-.4.2-.3.1h-.9c-.3-.2-.5-.4-.6-.7l-2.2-6.2-.4-.5-4.1-4c-.3-.2-.4-.5-.4-.9v-4.7c0-.3-.2-.4-.5-.3l-1.7 1c-.1.1-.3.3-.3.5l-.4 3.8c0 .3-.2.5-.4.7-.2.2-.5.3-.8.3l-.5-.1a1 1 0 01-.5-1.1l.5-4.5c.1-.3.3-.6.6-.8l4.2-2.6a1.3 1.3 0 011-.1c.8.2 1.5.7 2 1.3zm-3.7 8l-5.3 8.6-.2.4v.5a1.1 1.1 0 00.5.7 1.2 1.2 0 001.7-.3l5.2-8.1v-.3-.3l-1.4-1.3h-.1l-.2-.1h-.1l-.1.1zm4.7-2.2l2 1.7.3.2a1.1 1.1 0 001.2-.3 1 1 0 00-.2-1.5l-3.3-2.7c-.1-.2-.3-.1-.3 0v2c0 .3.2.5.3.6zm-1.7-7.7c.4 0 .8-.1 1.2-.4a2.1 2.1 0 00.9-2.2 2 2 0 00-.6-1 2.2 2.2 0 00-2.4-.5c-.4.2-.7.4-1 .8a2 2 0 00.3 2.7c.4.4 1 .6 1.6.6zM504.6 215.2h2.6l.5 3.9h-3.6l.5-4zm11.8 3.9h3.7l-3.5-4h-2.5l2.3 4zm-18.7-4H495l-3.4 4h3.6l2.4-4zM509.7 227.8h-5.8v160.6h5.8V227.8z" fill="#21252B"/><path d="M526.1 227.9h-40.3c-1 0-1.8-.4-2.4-1-.7-.6-1-1.5-1-2.4v-39.3c0-.9.3-1.7 1-2.4.6-.6 1.5-1 2.4-1h40.3c1 0 1.8.4 2.5 1 .6.7 1 1.5 1 2.4v39.3c0 1-.4 1.8-1 2.4-.7.6-1.6 1-2.5 1zm-40.3-45.7c-.8 0-1.6.3-2.2.9a3 3 0 00-.9 2.1v39.3c0 .8.3 1.6 1 2.2.5.5 1.3.8 2.1.8h40.3c.9 0 1.6-.3 2.2-.8a3 3 0 001-2.2v-39.3a3 3 0 00-1-2.1c-.6-.6-1.3-.9-2.2-.9h-40.3z" fill="#139988"/><path d="M459.7 308.9c-.5-.8-2.8-2.4-2.8-2.4-2-.9-3.2-1.4-4-2.4-.8-1-2.6-1-2.6-1s-.7-3.3 1.8-5.2c0 0 1.6.7 2.2.6 1-.3 2-1.7 4.2-1.8 2 0 4.7-1 4.7-1s1 .7 0 1.4c-.8.7-2.5.8-2.8 1.2l-.2.3a1.2 1.2 0 000 1c.8 1 3.5 2 4.7 2.2 1.7.4 4 1 3.3 2-.6.9-1.3-.3-5.3-.5l-.1.4c-.3 0 2 1.3 4.4 2.1 1.6.5.7 1.4 0 1.5-.5.1-2-.7-3.2-1l-2-.7-.4.4c2.4 2.3 3.8 2 3.6 3-.2.9-2.5 0-3.3-.8-.6-.4-1.2-.8-1.9-1 1.5 2 2.6 2.1 2.2 2.8-.3.7-2-.4-2.5-1.1z" fill="#FC9D9D"/><path opacity=".1" d="M457.2 300.7c1.7-.1 3-1.9 3-2.1a1.1 1.1 0 000 1c-1.4 1.7-3 1.1-3 1.1z" fill="#000"/><path d="M423 262.1l1 .2c1.1.2 2 .7 2.9 1.4.7.7 1.3 1.6 1.6 2.6l6.4 21.8 19 10-2.1 6.1-19.8-6.6c-3-.8-6.1-3.1-6.2-6.2l-3.7-18.2 1-11z" fill="#139988"/><path opacity=".2" d="M431.4 295.2c-2.9-.6-3.2-3.4-3.2-3.4l-2-15.8-1.8 8.3 1.4 6.7c0 3.1 2.2 5.5 5.3 6.3l20.7 7 .4-1.3-20.8-7.8z" fill="#000"/><path d="M451 296.3l-2.3 7 3 1 2.3-6.3-3-1.7z" fill="#fff"/><path d="M414.9 260.5l9.5 1.8.6 3.5c1.7 9 2 17.6 1.8 27.1l-.8 15H394V306c-.1-8.7-.5-18.7-2-27.3h-.2l2.2-16.3 8-1.6 13-.3" fill="#139988"/><path d="M431 351.2l5.4 16c.4 1.1.6 2.3.7 3.5l3 38.2 11.1 6.2-4.3 4-16.2-7.4-4.7-17s-5.2-11.8-3.8-25l-12.6-16 21.5-2.5z" fill="#FC9D9D"/><path d="M423.3 386c.7 3 1.6 6 2.7 8.8l4.7 17 16.2 7.4 4.3-4-11-6.3-2-23.7-14.9.8z" fill="#fff"/><path opacity=".1" d="M448.2 413.5l-8-4.6-3-38.1c-.2-1.2-.4-2.4-.8-3.6l-4.6-13.8-5.3 3.1 6.8 12.6 5.4 40.6 9.2 4.4.3-.6z" fill="#000"/><path d="M430.3 411.7s-1.2 5.5 0 8.9h24s1.3-5.6-6.7-7.8l-1 1a3.9 3.9 0 01-4.3.7l-2-.9 2.4-3.2-2-1.2-2.9 3.8-7.5-1.3z" fill="#139988"/><path opacity=".2" d="M430.3 420.6l-.3-1.6h24.3v1.6h-24z" fill="#000"/><path d="M409.7 353.9l-6 18-19.7 35.5 4.7 8.5-3.5.6-10.7-11.6 5.4-16.8s2.1-12.8 10.6-23.2l-2-20 21.2 9z" fill="#FC9D9D"/><path d="M382.4 379.3c-1 2.9-2 5.8-2.5 8.8l-5.4 16.8 9.4 11.6 4.8-.6-4.7-8.5 11.5-21-13-7.1z" fill="#fff"/><path opacity=".1" d="M387 414.7l-.5.3c.4.2.5 0 .4-.3zM384 407.4l19.7-35.4 5.5-16.6-6.5 1-2.2 14.2-17.9 37s4 5.5 4.3 7l.8-.5-3.6-6.7z" fill="#000"/><path d="M374.4 404s-4.3 3.8-5.2 7.3l11.3 8.9c.4.2.8.4 1.2.4h10.8s1-4-4.4-6.2l-1.7.1a5.4 5.4 0 01-3.8-1.2l-1.8-1.6 4.7-1.7-1-2-5.4 1.8-4.7-5.7z" fill="#139988"/><path opacity=".2" d="M392.5 420.6a2 2 0 000-1.3l-10.3.1c-.3 0-.6-.1-.8-.3l-11.6-9.2-.6 1.4 11.3 8.9c.4.2.8.4 1.2.4h10.8z" fill="#000"/><path d="M419 232.3c1 1.3 1.5 4 2.9 6.1 1.3 2.2 4.2 2.3 4.2 5.7 0 3.4-1.6 3.9-1.6 3.9a5.7 5.7 0 01-.1 5.3c-1.6 2.7-5.6 5-9 4.7 0 0-5 2.7-10 1.4-5-1.3-3.2-1.3-5.2-1.3-2.1 0-7.6-2.8-6.7-6.8 0 0-3.4-4-.1-7.2 3.2-3.2 2.3-6.4 4.5-10.6 2.5-5 14.5-9 21.1-1.2z" fill="#21252B"/><path d="M402 260.8h-.2c.6.7 6 6.1 12.8 4.7 0 0 3.2-.5 2.7-3.2l-.2-1.3-2.2-.5h.2l-13 .3z" fill="#fff"/><path d="M416.2 261.4l-1.5-10h-11l-.3 9.4s4.7 4.6 10.5 3.7c0 0 2.8-.4 2.3-3.1z" fill="#FC9D9D"/><path opacity=".1" d="M415.6 258l-.2-2.4-3.8.9c-2.8.4-4.6-.6-4.6-.6h-.4v.5c1.2.6 2.5.9 3.7.9l2-.2a4.5 4.5 0 003.3.9z" fill="#000"/><path d="M417.1 254.3a8.5 8.5 0 01-5.6 2.4h-.7a8.7 8.7 0 01-5.8-2 7.3 7.3 0 01-2.6-5.3l-.5-10.5a2.4 2.4 0 01.7-1.8c.2-.3.5-.5.8-.6a3 3 0 011-.2l10.8-.5c.9 0 1.8.3 2.5.9l.8 1c.2.4.3.8.3 1.3l.5 9.8a7.2 7.2 0 01-2.2 5.5z" fill="#FC9D9D"/><path d="M426 308l16.2 43.4s-28.7 15.2-66.2 0c0 0 4.1-10.6 6.3-18.3 0 0 3.9-14.3 11.8-25.1H426z" fill="#3F4249"/><path d="M410.7 245.4c0-.2 0-.3-.2-.5a.9.9 0 00-.8-.3l-.5.2a.8.8 0 00-.1 1l.3.3.4.1a.9.9 0 00.9-.8z" fill="#000"/><path d="M410.4 245.2v-.1a.2.2 0 00-.3 0v.2a.2.2 0 00.2 0v-.1z" fill="#fff"/><path d="M417.3 245.4c0-.2 0-.3-.2-.5l-.4-.3a.9.9 0 00-.9.2l-.2.4v.5l.4.4a.9.9 0 001-.1l.3-.6z" fill="#000"/><path d="M417 245.2l-.1-.2h-.1-.2v.2l.1.1h.2v-.1z" fill="#fff"/><path opacity=".1" d="M414.2 249.6s0 .2-.2.3a.9.9 0 01-.6.4H412v-.1-.1-.1c0-.1.1-.1.2 0l1-.2h.3a.5.5 0 00.2-.4v-.2a.6.6 0 00-.5-.4l-.2-.1v-.2-.1-.1a1 1 0 01.8.2l.4.7v.4z" fill="#000"/><path d="M402.5 250.3s-3.6.7-4.7-3c-1.1-3.6 3.3-4.6 4.3-1l.9 4h-.5z" fill="#FC9D9D"/><path opacity=".1" d="M398.6 245.6v-.2l.1-.1.5-.3h.6l.5.1.5.4c.3.5.4 1 .5 1.5v.3c0 .3-.4.5-.5.1v-.4c0-.4-.2-.8-.5-1.2l-.2-.3a1 1 0 00-.4-.1 1 1 0 00-.7.3h-.2-.2z" fill="#000"/><path d="M406 244.5a3.3 3.3 0 00-.1 2.2 3.1 3.1 0 004.4 1.9l1-.8c.6-.6.8-1.5.8-2.3v0c0-.4-.2-.7-.3-1 .5-.2 1-.2 1.6 0a3.1 3.1 0 00.8 3.8 3.2 3.2 0 003.2.5 3.2 3.2 0 002-3.2c0-.8-.5-1.6-1.1-2.1-.7-.6-1.5-.9-2.4-.8l-1 .2c-.5.3-1 .7-1.3 1.2a3 3 0 00-2 0 3.1 3.1 0 00-4.8-.8c-.4.4-.7.8-.8 1.2z" stroke="#fff" stroke-miterlimit="10"/><path d="M414 251.6h.1v.2c-.2.4-.5.8-.9 1a2.4 2.4 0 01-2.6 0c-.3-.2-.6-.6-.8-1l.1-.2h4z" fill="#fff"/><path d="M405 235.4s1.2 6.8 15 5.9l-.1-3.7-7.2-3.9-7.7 1.7z" fill="#21252B"/><path d="M338.8 276.3c.9 0 3.4 1.9 3.4 1.9 2 1 3.3 1.8 4.6 1.8 1.3 0 2.4 1.5 2.4 1.5s3-1.4 3.2-4.5c0 0-1.6-.9-1.8-1.4-.9-1.8-1.9-3.6-3-5.2-1.2-1.7-2.2-1.9-2.2-1.9s-2.2-1.3-2.2-.2c0 1 2.8 1.9 2.6 2.4l-.2.2v.1c-.1.3.8.5.5.6-1.3 0-3.7-1.6-4.6-2.3-1.3-1.1-3.3-2.6-3.6-1.5-.4 1 1 1 3.5 3.9l-.2.3c.2.2-2.3-.8-4.4-2.2-1.4-.9-1.6.3-1.3.8.3.5 1.8 1.3 2.8 2l1.8 1.1-.1.6c-3.3-.5-4-1.7-4.6-1-.6.7 1.5.7 2.6.9.7.2 1.3.4 2 .8-2.6 0-3.3-.7-3.7 0-.4.7 1.6 1.3 2.5 1.3z" fill="#FC9D9D"/><path d="M406.2 235s-.3 7.3-4 8.4l-.4 2.4-1-3.5.3-7 5.1-.2z" fill="#21252B"/><path d="M394.2 262.4a8.8 8.8 0 00-4 2.2l-17.1 18.2-22-7.7-3.5 5.9 23.4 12.4a5.7 5.7 0 006.3-.6l16.2-15.3.7-15.1z" fill="#139988"/><path d="M426 305.8H394v2.1H426v-2.1z" fill="#3F4249"/><path d="M350.6 282.6l3.7-6.4-3.2-1.1-3.5 5.9 3 1.6z" fill="#fff"/><path opacity=".2" d="M369.9 290.3s3.8 2.8 8-1l14-14.2.3 5v-1.5l-14.9 14.2a5.7 5.7 0 01-6.3.6L347.6 281l.6-1.1 21.7 10.4z" fill="#000"/><path opacity=".3" d="M382.7 353.8c34.2 11 59.5-2.4 59.5-2.4L426 308h-2l6.2 32.4a7.2 7.2 0 01-3.4 7.6 67.8 67.8 0 01-44.1 5.8z" fill="#000"/><path opacity=".2" d="M426 305.8l.8-12.9c0-5.4 0-10.6-.3-15.7l-.4-1.4c.5 7.8-2.5 30-2.5 30h2.4z" fill="#000"/><path opacity=".3" d="M426 308.1h-29" stroke="#000" stroke-width="1.3" stroke-miterlimit="10" stroke-linecap="round"/><g opacity=".7" fill="#fff"><path opacity=".7" d="M398.6 269.2a.6.6 0 00.5-.6l-.1-.4a.6.6 0 00-.4-.2l-.5.2a.6.6 0 000 .8c.1.2.3.2.5.2zM405.9 276.2c.2 0 .3 0 .4-.2.2-.1.2-.3.2-.4a.6.6 0 00-.6-.7l-.4.2a.6.6 0 000 .9l.4.2zM411 268.8c.1 0 .3 0 .4-.2a.6.6 0 000-.9.6.6 0 00-1 0v.9l.5.2zM394.9 280.4c.2 0 .3 0 .4-.2.2 0 .2-.2.2-.4s0-.3-.2-.4a.6.6 0 00-.9 0 .6.6 0 000 .8l.5.2zM404.3 286.7c.2 0 .3 0 .4-.2.2-.1.2-.3.2-.4a.6.6 0 00-.6-.7l-.5.2-.1.5.1.4.5.2zM417.6 274a.6.6 0 00.6-.7c0-.1 0-.3-.2-.4a.6.6 0 00-.4-.2c-.2 0-.3 0-.4.2a.6.6 0 000 .8l.4.2zM422.4 267c.2 0 .3 0 .4-.2a.6.6 0 000-.8.7.7 0 00-.4-.2c-.1 0-.3 0-.4.2a.6.6 0 000 .8l.4.2zM429 275l.5-.1a.6.6 0 000-.9.7.7 0 00-.4-.2l-.5.2a.6.6 0 000 .9l.5.2zM413.5 282.2c.1 0 .3 0 .4-.2a.6.6 0 00-.4-1c-.2 0-.3 0-.4.2a.6.6 0 000 .8l.4.2zM423.6 285.6l.4-.2.2-.5c0-.1 0-.3-.2-.4a.6.6 0 00-.9 0l-.2.4c0 .2 0 .4.2.5l.5.2zM414.4 295a.6.6 0 00.6-.7l-.2-.4a.6.6 0 00-.4-.2c-.2 0-.3 0-.4.2a.6.6 0 000 .8l.4.2zM395.8 292.3l.4-.2a.6.6 0 000-.9.6.6 0 00-.4-.2l-.4.2a.6.6 0 000 .9l.4.2zM405.2 297.6c.2 0 .3 0 .5-.2l.1-.4a.6.6 0 00-.6-.6c-.2 0-.3 0-.4.2-.2 0-.2.2-.2.4a.6.6 0 00.6.6zM423.8 298.3c.2 0 .3 0 .4-.2.2-.1.2-.3.2-.4 0-.2 0-.4-.2-.5a.6.6 0 00-.9 0l-.1.5.1.4.5.2zM412.3 303.9l.5-.2.2-.4-.2-.5a.6.6 0 00-1 0 .6.6 0 000 .9l.5.2zM396.7 304l.4-.1a.6.6 0 000-.8.6.6 0 00-.4-.2c-.1 0-.3 0-.4.2l-.2.4.2.4.4.2zM427.7 286.2a.6.6 0 00.6-.6c0-.2 0-.3-.2-.4a.6.6 0 00-.9 0l-.1.4.1.4c.2.2.3.2.5.2zM433.2 289.1a.6.6 0 00.6-.6c0-.1 0-.3-.2-.4a.6.6 0 00-.4-.2c-.2 0-.3 0-.4.2a.6.6 0 000 .8l.4.2zM436.6 297.6c.2 0 .4 0 .5-.2l.2-.4a.6.6 0 00-.7-.6c-.1 0-.3 0-.4.2l-.2.4a.6.6 0 00.6.6zM444.9 296.3a.6.6 0 00.6-.6l-.2-.5a.6.6 0 00-.4-.2.6.6 0 00-.6.7c0 .1 0 .3.2.4l.4.2zM356.8 279.7c.2 0 .3 0 .4-.2a.6.6 0 000-.8.6.6 0 00-.4-.2l-.4.2-.2.4.2.4c.1.2.3.2.4.2zM361.9 287.6l.4-.2a.6.6 0 000-.9.6.6 0 00-.4-.2l-.4.2a.6.6 0 000 .9l.4.2zM369 284c.1 0 .3 0 .4-.2a.6.6 0 000-.9.6.6 0 00-.9 0 .6.6 0 000 1h.5zM371.3 292.3l.4-.2a.6.6 0 000-.9.6.6 0 00-.4-.2l-.4.2a.6.6 0 000 .9l.4.2zM376.5 285.8l.5-.2a.6.6 0 000-.9.6.6 0 00-.5-.2l-.4.2a.6.6 0 000 .9l.4.2zM381.8 276.4c.2 0 .3 0 .4-.2l.2-.4c0-.2 0-.3-.2-.4a.6.6 0 00-.4-.2c-.1 0-.3 0-.4.2a.6.6 0 000 .8l.4.2zM383.4 286.2c.2 0 .4 0 .5-.2a.6.6 0 000-.8.6.6 0 00-1 0 .6.6 0 000 .8c.2.2.4.2.5.2zM389.4 272.1l.4-.1.2-.5c0-.1 0-.3-.2-.4a.6.6 0 00-.9 0 .6.6 0 000 .9l.5.1z"/></g><path d="M492.6 374.7c-1.5-1.7-3.1-3.3-4.3-5.1-.3-.4-1.7-3-.6-2.7 1.2.4 2.3 2.3 2.8 3.2l1.4 2.9.6 1.2c0 .1.2.6 0 .5-1-1.2.2.2 0 0z" fill="#139988"/><path d="M499.5 388.4a93.3 93.3 0 00-2.1-26c-.6-2.6-1.4-5-2.4-7.4-1-2.4-2.3-4.6-4-6.6l-.5-.7c-.1-.2-.4 0-.2.2 1.6 2 3 4.1 4 6.4 1.1 2.4 2 4.8 2.6 7.3a76.5 76.5 0 012.4 17c.1 2.9.1 5.8 0 8.7l-.1 1.1c0 .2.3.2.3 0z" fill="#3F4249"/><path d="M493.8 349.8c1 2 .7 2.8 0 3.2-.8.4-1.7.2-2.8-1.6-1-2-.8-2.8 0-3.2.8-.4 1.7-.2 2.8 1.6z" fill="#139988"/><path opacity=".2" d="M493.8 349.8c1 2 .7 2.8 0 3.2-.8.4-1.7.2-2.8-1.6-1-2-.8-2.8 0-3.2.8-.4 1.7-.2 2.8 1.6z" fill="#000"/><path opacity=".1" d="M493.7 352.2c-.9-.2-1.6-.7-2.2-1.4-.5-.6-.8-1.4-.9-2.3-.4.5-.4 1.4.4 2.9 1.1 1.8 2 2 2.8 1.6.3-.2.5-.4.6-.7a3 3 0 01-.7 0z" fill="#000"/><path d="M499.6 388a33.9 33.9 0 01.4-6.8 47.3 47.3 0 015.5-15.2 57.4 57.4 0 019-12.9l1-1c.1-.2-.1-.4-.2-.2a102.2 102.2 0 00-9.8 13.4c-1 1.9-2 3.8-2.8 5.7a47 47 0 00-3.4 16.6v.6c0 .2.4.1.4 0v-.1z" fill="#3F4249"/><path d="M514.2 355.6c.9-1.2 1-2.6.2-3.1-.7-.5-2 .2-2.8 1.5-.9 1.3-1 2.7-.2 3.1.7.5 2-.2 2.8-1.5z" fill="#139988"/><path opacity=".2" d="M514.2 355.6c.9-1.2 1-2.6.2-3.1-.7-.5-2 .2-2.8 1.5-.9 1.3-1 2.7-.2 3.1.7.5 2-.2 2.8-1.5z" fill="#000"/><path opacity=".1" d="M511.6 356.4c.8-.2 1.6-.6 2.2-1.3.5-.6.9-1.4 1-2.2.4.5.4 1.3-.6 2.8-1.1 1.8-2 2-2.8 1.5-.3-.2-.5-.4-.6-.7l.8-.1z" fill="#000"/><path d="M499 388.6c0-.6 0-1.2-.3-1.7a13.5 13.5 0 00-7.7-8.2 8 8 0 00-1.7-.5c-.3 0-1.2-.2-1.4 0-.3.3 0 .3.2.4l1.3.6c3.8 2.3 8.3 5 9.3 9.4h.3z" fill="#139988"/><path opacity=".2" d="M499 388.6c0-.6 0-1.2-.3-1.7a13.5 13.5 0 00-7.7-8.2 8 8 0 00-1.7-.5c-.3 0-1.2-.2-1.4 0-.3.3 0 .3.2.4l1.3.6c3.8 2.3 8.3 5 9.3 9.4h.3z" fill="#000"/><path d="M498.9 388.3c-.3-4.3-1.6-8.3-3-12.3l-2-5.4c-1-2.2-2.2-4.2-3.4-6.3a55.8 55.8 0 00-2.6-4c0-.2-.7-.7-.7-.9 0-.2.3 0 .4 0l1.1.9a24.7 24.7 0 015.9 8.3 64.6 64.6 0 014.4 17.6v2s-.1.3-.1 0z" fill="#139988"/><path opacity=".2" d="M498.9 388.3c-.3-4.3-1.6-8.3-3-12.3l-2-5.4c-1-2.2-2.2-4.2-3.4-6.3a55.8 55.8 0 00-2.6-4c0-.2-.7-.7-.7-.9 0-.2.3 0 .4 0l1.1.9a24.7 24.7 0 015.9 8.3 64.6 64.6 0 014.4 17.6v2s-.1.3-.1 0z" fill="#000"/><path d="M499 388.6h.3v-.5a19.4 19.4 0 00-2-7.7c-1.4-3-3.6-5.7-6.6-7.3-.3-.2-3.7-1.6-3.8-1.2a44.1 44.1 0 013 2.3c2.6 2 5 4.2 6.7 7a22 22 0 012.4 7.4z" fill="#139988"/><path d="M499.4 388.6h.2v-1-3l-.4-6.6a45.5 45.5 0 00-3.4-14.4c-.1-.2-.7-1.4-.8-1.2v.7l.2 1.1.5 2.7c.8 4 1.8 7.8 2.4 11.8.5 3.3 1 6.6 1.3 10z" fill="#139988"/><path opacity=".2" d="M499.4 388.6h.2v-1-3l-.4-6.6a45.5 45.5 0 00-3.4-14.4c-.1-.2-.7-1.4-.8-1.2v.7l.2 1.1.5 2.7c.8 4 1.8 7.8 2.4 11.8.5 3.3 1 6.6 1.3 10z" fill="#fff"/><path d="M500.1 377.2c-.2-2.3-.2-4.6.3-6.9.2-1.3.5-2.6 1-4 .5-1.1 1.1-2.2 2-3.3l.8-1.3c0-.1.5-1 .7-1 .5-.1 0 2.1-.2 2.4-.4 1.2-1 2.4-1.6 3.5a38.9 38.9 0 00-2.8 10.5c0-.2-.1.5-.2.1z" fill="#139988"/><path opacity=".2" d="M500.1 377.2c-.2-2.3-.2-4.6.3-6.9.2-1.3.5-2.6 1-4 .5-1.1 1.1-2.2 2-3.3l.8-1.3c0-.1.5-1 .7-1 .5-.1 0 2.1-.2 2.4-.4 1.2-1 2.4-1.6 3.5a38.9 38.9 0 00-2.8 10.5c0-.2-.1.5-.2.1z" fill="#000"/><path d="M498.8 359l.3 3c.3 4.7.5 9.3.5 14-.1 3.7-.2 8.7-.1 12.6h.4v-1.9c0-1.1 0-2.7.2-3.9.2-2.6.5-5.1.6-7.8a46.2 46.2 0 00-1.2-16.4l-.6-1.3c0-.1-.2-.7-.3-.5v.7l.2 1.4z" fill="#139988"/><path d="M500.2 388.6l.5-3.7 1.3-5.3a54.4 54.4 0 014.1-10.3c.1-.1.7-1.1.4-1-.2 0-.6.4-.7.5a13 13 0 00-2.2 2.5 23 23 0 00-3 8.5l-.9 8.8h.5z" fill="#139988"/><path d="M514.2 366a11.8 11.8 0 00-2.5 1l-2 1.3a23.4 23.4 0 00-6.9 9.9c-1.2 2.8-2.7 7-2.7 10.4h.3v-.4l.2-1.3.9-3c.8-2.2 1.7-4.2 2.8-6.1a35.3 35.3 0 019.6-11.3c.2-.2.8-.5.3-.5z" fill="#139988"/><path opacity=".2" d="M514.2 366a11.8 11.8 0 00-2.5 1l-2 1.3a23.4 23.4 0 00-6.9 9.9c-1.2 2.8-2.7 7-2.7 10.4h.3v-.4l.2-1.3.9-3c.8-2.2 1.7-4.2 2.8-6.1a35.3 35.3 0 019.6-11.3c.2-.2.8-.5.3-.5z" fill="#fff"/><path d="M514.3 376c-.2-.3-1.5-.2-1.8-.2l-1.6.4c-3 .9-5.1 3.1-7 5.4-1.7 2-3 4.5-3.7 7h.5l.2-1 1.2-2a28.3 28.3 0 0111.7-9.3c.1 0 .7-.1.5-.3z" fill="#139988"/><path opacity=".2" d="M514.3 376c-.2-.3-1.5-.2-1.8-.2l-1.6.4c-3 .9-5.1 3.1-7 5.4-1.7 2-3 4.5-3.7 7h.5l.2-1 1.2-2a28.3 28.3 0 0111.7-9.3c.1 0 .7-.1.5-.3z" fill="#000"/><path d="M347.2 274l-1.7-4.4-4.6-5.2-8.2-4.1-2.1-1.5c-20.4-17-35.9-25-35.9-25l-3.8-10.1-14 4.2 10.4 21.5 37.5 17.3 1.7 2.7c.7 2.6 4.7 6.4 4.7 6.4l2.4 2.6c2.3.2 0-3.7 0-3.7l-1.3-2.5.2-.6 5 3 3.6 3.3.4.2h.4l.3-.2a.6.6 0 00.3-.5.6.6 0 000-.4L340 274l3.2 3.6c.5.5 1 0 1.3-.1l.2-.4v-.4l-2.1-3 2 2.3.3.3h.7l.3-.4v-.5l-1.6-2.7.2-.2 1.4 2 .3.3h.5l.2-.1a.6.6 0 00.3-.8zM213 412.7l23.5 11-6.4-10.8a6.7 6.7 0 01-.5-6l3-7.3-13-5.7-6.6 18.8z" fill="#FC9D9D"/><path opacity=".1" d="M219.6 405.3v-.1c.2-.4.5-.8.9-1 .3-.1.8-.2 1.2 0l8.1 2.2.6-1.5-12.7-5.6-4.5 12.8 10.9 3.4-2.9-2.8a7 7 0 01-1.7-7.4z" fill="#000"/><path d="M245.9 426.5c.5-1 .6-2.2.4-3.3-.2-.9-.6-1.6-1.2-2.2-.6-.6-1.4-1-2.3-1.2l-7.2-2.3-5.1-6c-.3-.6-.8-1-1.4-1.3-.6-.2-1.2-.2-1.8 0l-5.6 1.5a2.6 2.6 0 01-2.3-.5l-4.4-3.8-.5-.2h-.5l-.5.2-.3.4-4.2 10a2.8 2.8 0 00.6 3.1c.2.3.5.5 1 .7l15.1 5.8 18.6-.1s1.3 0 1.6-.8z" fill="#868A91"/><path opacity=".5" d="M246.4 425h-20l-17.6-6.8c-.1.7 0 1.4.2 2a3 3 0 001.5 1.4l15.2 5.8 18.7-.1s1.8.4 2-2.2z" fill="#000"/><path d="M228.6 415l-.1-.2v-.1-.1-.1h.1l2.9-1.2a.3.3 0 01.4.1v.4h-.2l-2.8 1.2h-.2-.1zM230 416.7h-.1v-.2-.2l.1-.1 2.8-1.4h.2l.2.2v.2l-.1.2-2.8 1.3h-.1-.2zM231.4 418.1l-.2-.1a.3.3 0 010-.4h.2l2.7-1.4a.6.6 0 01.3 0l.1.2v.2l-.1.2-2.8 1.3h-.1-.1z" fill="#fff"/><path d="M289.2 419.8l24.7.6-9.9-6.9a6.4 6.4 0 01-2.8-5l-.3-7.5h-13.5l1.8 18.8z" fill="#FC9D9D"/><path opacity=".1" d="M292 411v-.2c-.1-.4 0-.8.3-1 .2-.4.6-.6 1-.7l8-1-.2-1.6H288l1.2 12.8L300 418l-3.6-1.4a7 7 0 01-3-2.2c-.8-1-1.3-2.2-1.4-3.5z" fill="#000"/><path d="M287.4 415.5v9.5c0 .7.3 1.4.9 1.9.5.5 1.2.8 2 .8H323a1.2 1.2 0 001.1-1.1c0-1.1-.3-3.1-1-4a5.3 5.3 0 00-2.6-1.9l-7.4-2.3-9.4-6.3a2.6 2.6 0 00-3.3.1l-4.2 3.5-1 .5H294l-5.3-1.7h-.5c-.1 0-.3 0-.4.2a1 1 0 00-.3.4l-.1.4z" fill="#868A91"/><path opacity=".5" d="M290.3 427.7H323c.3 0 .6-.1.8-.3.2-.2.3-.5.3-.8l-.1-1.2h-36.6c.1.7.4 1.2 1 1.7.5.4 1.1.6 1.8.6z" fill="#000"/><path d="M303.6 415.9h-.1v-.1l-.2-.1v-.1-.1l.1-.1 2-2.1h.2a.3.3 0 01.3 0v.2a.2.2 0 010 .2l-2 2-.2.1h-.1zM305.2 417h-.1-.1l-.1-.1v-.2-.1l2-2.1h.2v-.1h.3v.5l-2 2v.1h-.2zM306.8 418.3l-.2-.1v-.1a.3.3 0 010-.3l2-2.1h.4v.4l-2 2-.1.1h-.1z" fill="#fff"/><path d="M288.6 279L268 346.5 233 411l-18.4-7.3 25.5-69 2.6-61 46 5.4z" fill="#3F4249"/><path opacity=".3" d="M288.6 279l-7.5 24.7-12.7-21.7 20.2-3z" fill="#000"/><path opacity=".1" d="M342.4 278.2a.6.6 0 00.3-.4.6.6 0 00-.1-.5l-2.4-2.8 3.1 3.6c.6.4 1 0 1.3-.1a.6.6 0 00.2-.8l-2-3 2 2.3.3.3h.5l.1-.1c.1-.1.3-.2.3-.4.1-.1.1-.3 0-.4l-1.5-2.8.1-.2 1.4 2 .4.3h.6l.4-.5v-.5l-1.7-4.3-4.6-5.2-8.2-4.2-3.9-2.6-4 6.2 1.7 4.7c.7 2.6 4.6 6.4 4.6 6.4l2 3c2.3.2.5-3.1.5-3.1l-2.1-2.9.6-1 1.7 1.3 1.9.2-.6.8.7.5 1.3.2 2 1-2.2-.4.5.4 1.4 1.1.7.2 2.7 1.7z" fill="#000"/><path d="M347.2 274l-1.7-4.4-4.6-5.2-8.2-4.1-2.1-1.5c-20.4-17-35.9-25-35.9-25l-3.8-10.1-14 4.2 10.4 21.5 37.5 17.3 1.7 2.7c.7 2.6 4.7 6.4 4.7 6.4l2.4 2.6c2.3.2 0-3.7 0-3.7l-1.3-2.5.2-.6 5 3 3.6 3.3.4.2h.4l.3-.2a.6.6 0 00.3-.5.6.6 0 000-.4L340 274l3.2 3.6c.5.5 1 0 1.3-.1l.2-.4v-.4l-2.1-3 2 2.3.3.3h.7l.3-.4v-.5l-1.6-2.7.2-.2 1.4 2 .3.3h.5l.2-.1a.6.6 0 00.3-.8z" fill="#FC9D9D"/><path opacity=".1" d="M325 264.2l-39.8-21.7.6 3.8 1.5 3.1 37.5 17.3 1.7 2.7c.7 2.6 4.7 6.4 4.7 6.4l2.4 2.6c1 0 1.2-.7 1-1.5-3.2 1.9-9.6-12.7-9.6-12.7z" fill="#000"/><path opacity=".3" d="M272.6 331.3l-31.2-27.6-.5 11.5 14 21.6A14.7 14.7 0 01256 351l-26.9 58.5 3.9 1.5 35-64.5 4.6-15.1z" fill="#000"/><path d="M226.3 272.6s-5.1 23.5 12 36.9l32.7 36.7 16.2 66.7 19-.7-5.9-70.6a26 26 0 00-3-8.8l-28.6-53.3-42.4-7z" fill="#3F4249"/><path d="M237.4 193.5l-14 3.4-1 39.7s-4.6 37.7 3 42c0 0 36 7.8 63.1.5.5-.1.9-.4 1.2-.8.3-.3.5-.8.5-1.2.2-5 .4-21-4.9-33.5a108 108 0 01-5.3-15.8 179.3 179.3 0 01-4.5-22.7l-1.3-8-13-3.3H256l-18.5-.3z" fill="#139988"/><path d="M238.5 160l2.8 13-2 19 17.2 2.1 4.1 6.5-1.9-18.8 3.6.5h.4c3 .3 4.7 0 5.4-4.4l.4-5.5 1.8-.8h.1a1 1 0 00.5-1l-.1-.5-2.8-4.3v-.3l.2-.6c.7-2.7.7-5.6-.2-8.2l-.8-2.7s-4.5-9.5-16.3-8.3c0 0-12.4 1.2-12.4 14.3z" fill="#FC9D9D"/><path opacity=".1" d="M259.1 186l-5.3-4.2a.7.7 0 010-.8c0-.1 0-.2.2-.3h.5l4.2 1 .4 4.2z" fill="#000"/><path d="M262.7 182.4c3 .3 4.7 0 5.4-4.5l.4-4.4v-.2c-3.6-1-4.5.2-4.5.2-6 4.6-10.5-1-10.5-1l-1.6-10.5 2.5-.6a2 2 0 001.1-.7c.3-.4.4-.8.4-1.3a1.9 1.9 0 00-.8-1.3 2 2 0 00-1.5-.3c-5 .8-10 .6-15-.4l-.1 2.6 2.8 13v.1h2.6a2 2 0 001-.4c.4-.2.6-.5.8-.9l.6-2 5.1 2.3a8.5 8.5 0 006.3 9.7h.2l4.4.5.4.1z" fill="#fff"/><path d="M268 163.2l-19.6.7v.6l19.6-.7v-.6z" fill="#21252B"/><path opacity=".1" d="M245.4 173l3.2-1.9-2-1.8c-.6 1.2-.6 1.8-1.2 3.7z" fill="#000"/><path opacity=".2" d="M284.6 242a75.7 75.7 0 01-4.9-14c-1.5-6.2-3.1-11-3.7-14.6l-.2-.5a.8.8 0 00-.4-.2.8.8 0 00-.7.2l-.2.3v.3c.5 3.1 2.3 14.3 5.6 24.3 0 0 6 16.4 6.2 31.9a8.8 8.8 0 01-5.3 8.2c-4.7 1.9-13.5 3.8-30.1 4 10.6.6 23.1.5 34.6-2l.2-.1.8-.2.5-.1.6-.2.8-.2h.2c.4-.2.8-.4 1.1-.8.3-.3.5-.8.5-1.2.2-5.2.4-22.3-5.6-35z" fill="#000"/><path d="M251.4 171.8l-.4-5.8c0-1.3-1.4-2.3-3-2.2-1.6.1-2.8 1.3-2.7 2.5v1.2c.2 2.6 3 5.1 6.1 4.9v-.6z" fill="#FC9D9D"/><path opacity=".1" d="M250 167.6v-1.1c-.1-.5-.3-1-.7-1.3a2 2 0 00-1.4-.4 1.9 1.9 0 00-1.4.7.4.4 0 000 .3.4.4 0 00.4.3h.2l.1-.1a1 1 0 01.8-.5l.4.1a1 1 0 01.6.5l.1.4v1.2l.3.3h.3a.4.4 0 00.2 0 .3.3 0 00.1-.4z" fill="#000"/><path d="M269.1 166.6V162c0-.3 0-.6-.2-.8a1 1 0 00-.8-.3h-.1a1 1 0 00-.7.4 1 1 0 00-.3.7l.1 4.7c0 .2.1.5.3.7.2.2.5.3.8.3.2 0 .5-.1.7-.3l.2-.8zM303.1 261.6l-20.4 3.3.7 4 20.4-3.2-.7-4z" fill="#21252B"/><path opacity=".2" d="M222.4 233.2v4.6l4.8 13.6a17 17 0 008.3 9.4l-9.9-28.8-3.2 1.2z" fill="#000"/><path opacity=".1" d="M344.6 273h-.1v-.1l-1.2-1.7-1.8-2.2a.2.2 0 010-.2.2.2 0 01.2 0l1.9 2.2 1 1.7h.1v.2h-.1zM343 274.8l-1.9-3-1.7-1.7a.2.2 0 010-.2.2.2 0 01.2 0l1.8 1.7 1.8 3v.2h-.1zM341.3 275.7h-.1l-2.6-2.9-2-1.4v-.1-.1a.2.2 0 01.2 0l2 1.3 2.6 2.9a.2.2 0 010 .2h-.1z" fill="#000"/><path opacity=".2" d="M268.3 175.4s-1.6 0-2.5-.5" stroke="#000" stroke-width="1.3" stroke-miterlimit="10" stroke-linecap="round"/><path d="M295.4 266.4l-3.8.8L332 427.1l3.7-.9-40.3-159.8z" fill="#21252B"/><path d="M239.4 188l17.1 3.6 4.2 9.3-4.3-6.6s-2.6-2.2-2.3 6.5l-16.8-7.2 2-5.6z" fill="#fff"/><path opacity=".2" d="M241.2 220c.5 0 1 .3 1.3.6.4.3.7.7.8 1.1l7.8 22.7s22.2 4.3 33.1 9l1 5.3-46.8-10 2.8-28.6z" fill="#000"/><path d="M260.5 200.5l-1.3-9.3 5.1 1.5 1.3 8.4-.5.1s-1.5-7.6-2.9-7.2a.8.8 0 00-.5.6l-1.2 5.9z" fill="#fff"/><path d="M297.7 258.5l3.6 3.4-3 .5-.6-3.9z" fill="#FC9D9D"/><path opacity=".1" d="M297.7 258.5l3.6 3.4-3 .5-.6-3.9z" fill="#000"/><path d="M272.6 196.6l4.3 1.3a8.3 8.3 0 015.2 4.4l9.6 21.1-11.9 3.7-7.2-30.5zM225 196.5c-2.5.6-4.8 2-6.2 4.2a9.7 9.7 0 00-1.6 7.2l6 28.9 22.3-5.3-6-18.6-14.5-16.4z" fill="#139988"/><path d="M260 199.9l2.6 11h1.9l-3.7-11.8-.8.8z" fill="#fff"/><path opacity=".3" d="M234.1 305.5c1.3 1.5 2.7 2.8 4.3 4l32.6 36.8 16.3 66.7h3.8L275 343.6l-40.9-38z" fill="#000"/><path d="M300.5 267.7l-2.5-8.4c0-.5-.3-1-.7-1.3-.4-.3-.8-.6-1.3-.7l-9.2-2-2.5-.8c-5.6-1.6-29-8.5-35.3-8.1l-5-14.6-19.7 4.6 6 18.6a9.6 9.6 0 003.3 4.6 10 10 0 005.3 2l45.3 3.2c1.3 1 2.6 1.3 3.2 1.6a41 41 0 003.4 3.5h.6a1.2 1.2 0 00.8-.5 1.1 1.1 0 00.2-1l-.4-1.2.6 1.4.5.5c.3.1.5.2.8.1h.2c.3 0 .5-.2.7-.4.2-.3.3-.6.2-.9l-.1-1 .6 1.6a1.1 1.1 0 00.6.7 1.2 1.2 0 00.9 0 1.1 1.1 0 00.6-.5 1.1 1.1 0 00.1-.9l-.3-1 .6 1.6c.1.3.3.5.6.6.2.2.5.2.8.2h.2a1.2 1.2 0 00.7-.6 1 1 0 00.2-.9z" fill="#FC9D9D"/><path opacity=".1" d="M297.8 268a.2.2 0 01-.2-.2 172.8 172.8 0 01-1.6-4.7l.2.1a211.2 211.2 0 001.6 4.7zM294.9 267.6h-.1l-1.3-3.2v-.2h.1a.2.2 0 01.1 0v.1l1.4 3.1a.1.1 0 010 .1l-.1.1h-.1zM292.3 268.8h-.1v-.1l-1.6-3.3v-.1-.1H291l1.5 3.4a.1.1 0 010 .2h-.1z" fill="#000"/><path opacity=".1" d="M299.7 265.3c-.7 2-2.7.7-2.7.7-.7 1.4-2.5.6-2.5.6-1 1.4-2.9.7-2.9.7-1.3 1-2.3.2-3-.6-.9-1.1-2-2-3.2-2.8-.8-.4-1.6-.6-2.5-.7l-40.7-3.6c-7.3-.3-8-6.2-8-6.2l-5-17.8-2.4.2-2.5.5v.1l6 18.6a9.6 9.6 0 003.3 4.6 10 10 0 005.3 2l45.3 3.2c1.3 1 2.6 1.3 3.2 1.6a40.8 40.8 0 003.4 3.5H291.4a1.2 1.2 0 00.8-.5 1.1 1.1 0 00.2-1l-.7-1.2 1 1.4c0 .2.2.4.4.5.2.1.5.2.7.1h.3c.3 0 .5-.2.7-.4.2-.3.3-.6.2-.9l-.1-1 .6 1.6c0 .2.2.4.4.5.3.2.5.2.8.2a1.2 1.2 0 00.8-.4 1.1 1.1 0 00.2-1l-.3-1 .6 1.7.5.5c.3.2.6.2.8.2h.2l.5-.3a1.1 1.1 0 00.5-.7v-.5l-.8-2.4zM343.2 267s-1.3-.3-1.3 0-1 1.6 2.8 3.1l1.3.8-1-2.1-1.8-1.8z" fill="#000"/><path d="M346.5 272.3l-1.4-2.5c-3.9-1.6-2.6-2.8-2.6-2.8l2.6 1 1.6.9 1.4 2.2-1.6 1.2z" fill="#FC9D9D"/><path d="M564.9 449.6h-553a.8.8 0 01-.6-.2l-.2-.2a.7.7 0 01.2-.9l.3-.1H565c.2 0 .3 0 .4.2l.2.5c0 .1 0 .3-.2.4 0 .2-.2.3-.4.3z" fill="#B2B6BB"/><path d="M275 264.2l6.3.4.5-2 1.8-8.3-6.1-1.8-.4 1.7-.9 4.4-.6 3-.5 2.6z" fill="#3F424A"/><path d="M275.7 261.2l6.2 1 1.5-7-6.2-1.4-1.5 7.4z" fill="#000"/><path d="M276.7 260.3l4.5.8 1-5.2-4.4-.8-1 5.2z" fill="#DADCDD"/></g><defs><linearGradient id="paint0_linear" x1="69.3" y1="405.1" x2="602.1" y2="-128.2" gradientUnits="userSpaceOnUse"><stop stop-color="#139988" stop-opacity=".2"/><stop offset="1" stop-color="#fff" stop-opacity="0"/></linearGradient><clipPath id="clip0"><path fill="#fff" d="M0 0h600v450H0z"/></clipPath></defs></svg>