<svg width="600" height="450" fill="none" xmlns="http://www.w3.org/2000/svg"><g clip-path="url(#clip0)"><path d="M26.2 152.5l-.5-1.9-.3 1.2.8.7z" fill="#F39494"/><path d="M565.4 449.2H24.8L.3 163.4c-.7-8.2 2-16.3 7.5-22L132.4 7.5a25 25 0 0120-8l360.2 28.3c10.6.9 19.7 8.7 22.7 19.6L596.7 266c1.2 4.4 1.4 9 .5 13.4l-31.8 169.9z" fill="#F0F0F0"/><path d="M565.4 449.2H24.8L.3 163.4c-.7-8.2 2-16.3 7.5-22L132.4 7.5a25 25 0 0120-8l360.2 28.3c10.6.9 19.7 8.7 22.7 19.6L596.7 266c1.2 4.4 1.4 9 .5 13.4l-31.8 169.9z" fill="url(#paint0_linear)"/><path d="M187.3 327.8a9 9 0 00-8.6-8h-4.6l-1.9.5v.3l-39.5 5.4c-5 .7-9 4.5-10.3 9.7L95 449.3h6.6l27.2-111.8a6 6 0 014.9-4.7l44.7-6c1.3-.2 2.4.7 2.6 2L198 449.4h6.5l-17.2-121.5z" fill="#B2B6BB"/><path d="M97.3 449.3h-6.6l27.5-113.6c1.3-5.3 5.3-9 10.3-9.8l44.7-6.1c4.8-.7 9.1 2.8 9.8 8l17.3 121.4h-6.5l-17-120.4a2.4 2.4 0 00-2.7-2.2l-44.7 6.1a5.8 5.8 0 00-5 4.7L97.4 449.3z" fill="#DADDDF"/><path d="M55 361.5L32.6 261.2c-.7-3 1.4-6 4.3-6h-6c-3 0-5.1 3-4.4 6l22.4 100.3 73 .2-66.9-.2z" fill="#B2B6BB"/><path d="M103 259a4.5 4.5 0 00-4.3-3.8H37c-3 0-5 3-4.4 6l22.5 100.3 71.5.1L103 259z" fill="#868A91"/><path d="M200 368.4h-96.9c-1.7 0-3.2-1.5-3.2-3.4 0-2 1.5-3.5 3.2-3.5h97c1.7 0 3.2 1.6 3.2 3.5s-1.5 3.4-3.3 3.4z" fill="#868A91"/><path d="M128 368.4H45.5c-1.7 0-3.2-1.5-3.2-3.4 0-2 1.5-3.5 3.2-3.5h82.7c1.8 0 3.2 1.6 3.2 3.5s-1.4 3.4-3.2 3.4z" fill="#858990"/><path d="M140.5 363.8c.5 1.4 0 2.7-.7 3.6-.6.6-1.4 1-2.3 1h-92a3 3 0 01-1.2-.3l1.6-6.6h91.6c1.4 0 2.6.9 3 2.3z" fill="#B2B6BB"/><path d="M56.5 363.4L62 341h.7l-5.3 22.4h-.9z" fill="#858990"/><path d="M121.5 327.8a9 9 0 00-8.6-8h-4.6l-1.9.5v.3L67 326c-5 .7-9 4.5-10.3 9.7L29.1 449.3h6.6l27.1-111.8a6 6 0 015-4.7l44.6-6c1.3-.2 2.5.7 2.7 2l17.1 120.5h6.5l-17.2-121.5z" fill="#B2B6BB"/><path d="M31.5 449.3h-6.7l27.6-113.6c1.3-5.3 5.3-9 10.3-9.8l44.7-6.1c4.8-.7 9 2.8 9.8 8l17.3 121.4H128l-17-120.4a2.4 2.4 0 00-2.8-2.2l-44.7 6.1a5.8 5.8 0 00-4.8 4.7L31.5 449.3z" fill="#DADDDF"/><path d="M354.5 76v-7.3h13.1V76h18.3v41.5l9.5 2.9V99.7l32.8-11.3v49.1L439 140v-28.8h9.5v-39h21v-6.6L485 54.3l16.1 11.3v51.8H515v18.8h7.6V82.6l5.8-2.2v-8.2h10.2v4.3l5.6-2.1-7.6-27.1h-185V76h3z" fill="#ECECEC"/><path d="M345.6 181.5h228.6l-1.8-6.4H351.6V47.3h185l-1.9-6.5H345.6v140.7z" fill="#fff"/><path d="M428.2 137.5v-49l-32.8 11.2v20.7l5.8 1.7v53h8v-41.9l19 4.3zM469.5 72.3h-21v38.9h21v-39zM515 136.1v-18.8h-13.8v57.8h5.6v-39h8.1zM567.2 175h5.2l-5.2-18.3v18.4zM428.2 137.5v37.6H439V140l-10.8-2.5z" fill="#D6D9DB"/><path d="M409.3 133.2v41.9h19v-37.6l-19-4.3zM522.6 136.1h-7.7v39h7.7v-39z" fill="#D6D9DB"/><path d="M515 136.1h-8.2v39h8.1v-39zM386 117.5V76h-18.4v6.7h-13V76h-3v99h19V113l15.3 4.6zM439 111.2V140l.8.2V175h8.7v-64H439zM469.5 111.2h-21V175h21v-64z" fill="#D6D9DB"/><path d="M439 140v35h.8v-34.8l-.8-.2zM386 117.5v57.6h9.4v-54.7l-9.5-2.9zM395.4 120.4v54.7h5.8v-53l-5.8-1.7zM370.7 112.9V175h15.2v-57.6l-15.2-4.6zM561.5 136.1L544 74.4l-5.6 2v12h-10.2v-8l-5.8 2.2v53.5h5.8v39h27v-39h6.2z" fill="#D6D9DB"/><path d="M561.5 136.1h-6.1v39h11.8v-18.4l-5.7-20.6zM528.3 136.1h-5.8v39h5.8v-39zM501.2 117.3V65.6L485 54.2l-15.6 11.4v6.6h8.2v102.9h13.6v-57.8h9.9z" fill="#D6D9DB"/><path d="M469.5 72.3V175h8.1V72.3h-8.1zM501.2 117.3h-10v57.8h10v-57.8zM367.6 68.7h-13V76h13v-7.3zM367.6 76h-13v6.7h13V76zM538.5 72.3h-10.2v8.1l10.2-3.9v-4.2z" fill="#D6D9DB"/><path d="M538.5 88.4v-12l-10.2 4v8h10.2z" fill="#D6D9DB"/><path opacity=".2" d="M414.6 47.3l-63 70.7v57h3.9L469.3 47.3h-54.7zM496.5 47.3L382.7 175h20.4L516.9 47.2h-20.4zM519.7 175l40-44.9-13-46.7L465 175h54.7zM567.3 175l3.9-4.3-5-17.8-19.3 22.2h20.4z" fill="#fff"/><path d="M479.8 206.9c.4 0 .7-.4.7-.8 0-.5-.3-.8-.7-.8-.4 0-.8.3-.8.8 0 .4.4.8.8.8z" fill="#fff"/><path d="M526.3 407.6c-.3-8.9 2.9-17.5 7-25.1 2.8-5.3 6-10.2 9-15.3 1.2-2 4-1 4 1.3-.2 4.7-.7 9.4-1.9 14-1.1 4.5-3 8.8-4.8 13l-6.4 15.1" fill="#139988"/><path opacity=".3" d="M526.3 407.6c-.3-8.9 2.9-17.5 7-25.1 2.8-5.3 6-10.2 9-15.3 1.2-2 4-1 4 1.3-.2 4.7-.7 9.4-1.9 14-1.1 4.5-3 8.8-4.8 13l-6.4 15.1" fill="#000"/><path d="M506.8 406.6c-4.5-14.5-6.5-30-5.7-45.4 0-2.4 3.2-3 4-.7 6 15.3 9.6 31.8 10.6 48.5" fill="#139988"/><path opacity=".3" d="M506.8 406.6c-4.5-14.5-6.5-30-5.7-45.4 0-2.4 3.2-3 4-.7 6 15.3 9.6 31.8 10.6 48.5" fill="#000"/><path d="M531 406h-.3c3.1-10 6.9-19.8 11.2-29.1l.3.2a250 250 0 00-11.2 29zM510.2 404.3c-3.1-14.2-5.4-28.7-6.8-43.2h.4c1.4 14.4 3.7 29 6.7 43l-.3.2z" fill="#21252B"/><path d="M504.2 411a99.2 99.2 0 01-13-39.8c-.3-2.2 2.2-3.4 3.6-1.8 3.7 4.5 6.6 10 8.8 15.6 3 7.6 4.7 15.8 6.6 23.8M512.2 409.3c-3.9-16.8-3.2-42.4.5-58.4.6-2.4 3.7-2.3 4.1 0 3 17.8 3.2 39 3.3 58.2" fill="#139988"/><path d="M521.2 413.3a68 68 0 01-3-27.9c.9-8.9 2.5-17.7 4.1-26.4l.8-4.3a2 2 0 014.2 0c2.4 14 2.8 35.3 1.6 49.4" fill="#139988"/><path opacity=".3" d="M521.2 413.3a68 68 0 01-3-27.9c.9-8.9 2.5-17.7 4.1-26.4l.8-4.3a2 2 0 014.2 0c2.4 14 2.8 35.3 1.6 49.4" fill="#000"/><path d="M522 407.8c-1.2-8.5 3-47.8 3-48.2h.4c0 .5-4.2 39.7-3 48.2h-.4z" fill="#21252B"/><path d="M524.6 403.3c0-16.5 4-34.8 7.8-47.2.7-2.3 3.7-2 4 .3 1.1 6.9 1.7 13.8 1.4 20.7a66.6 66.6 0 01-6.6 27.6" fill="#139988"/><path d="M506.3 414c-3.1-17.9-12-40.5-12-40.7l.3-.2c.1.3 9 22.9 12.1 40.8h-.4zM514.6 359.8h-.4l.1 53.5h.5l-.2-53.5zM528.3 402.9l-.3-.2c3.3-11.4 5.1-23.2 5.5-35.2h.4c-.4 12-2.2 24-5.6 35.4z" fill="#21252B"/><path d="M499.5 406.6l.6 12.6 2 25a4.7 4.7 0 004.5 4.5h26.2c2.3 0 4.3-2 4.5-4.5l2-25 .6-12.9-40.4.3z" fill="#84888F"/><path opacity=".2" d="M532.5 406.3l-.6 12.9-2 25a4.7 4.7 0 01-4.5 4.4h7.2c2.4 0 4.3-2 4.6-4.5l2-25 .6-12.8h-7.3z" fill="#000"/><path d="M499.5 405.8l.3 6.7h39.7l.3-6.2-40.3-.5z" fill="#61656D"/><path d="M500.2 411.7H539c1.9 0 3.4-1.6 3.4-3.6s-1.5-3.5-3.4-3.5h-38.8c-1.8 0-3.3 1.6-3.3 3.5 0 2 1.5 3.6 3.3 3.6z" fill="#84888F"/><path opacity=".2" d="M539 404.5h-6.4c1.8 0 3.3 1.6 3.3 3.6s-1.5 3.6-3.3 3.6h6.4c1.9 0 3.4-1.6 3.4-3.6s-1.5-3.6-3.4-3.6z" fill="#000"/><path d="M74.7 176H124v-73.2H74.7V176z" fill="#fff"/><path d="M81.3 169.3h36.2v-59.7H81.3v59.7z" fill="#DDD"/><path d="M125.5 102.8H124V176h1.5v-73.2z" fill="#DADDDF"/><path d="M90.9 159.6h17v-28.9h-17v28.9z" fill="#B1B5BA"/><path d="M99.4 127.2c4.6 0 8.3-4 8.3-9H91c0 5 3.8 9 8.4 9z" fill="#139988"/><path d="M462 40.8h-6V180h6V40.8z" fill="#fff"/><path d="M462 47.3h-6v1.5h6v-1.5z" fill="#F0F0F0"/><path d="M467.2 448.7h-185c-4.3 0-7.6-3.7-7.6-8.2V104c0-4.5 3.4-8.1 7.5-8.1h185.1c4.3 0 7.6 3.6 7.6 8v336.7c0 4.5-3.4 8.2-7.6 8.2z" fill="#139988"/><path opacity=".2" d="M467.2 448.7h-185c-4.3 0-7.6-3.7-7.6-8.2V104c0-4.5 3.4-8.1 7.5-8.1h185.1c4.3 0 7.6 3.6 7.6 8v336.7c0 4.5-3.4 8.2-7.6 8.2z" fill="#fff"/><path d="M463.3 448.7H278.2c-4.2 0-7.6-3.7-7.6-8.2V104c0-4.5 3.4-8.1 7.6-8.1h185.1c4.2 0 7.6 3.6 7.6 8v336.7c0 4.5-3.4 8.2-7.6 8.2z" fill="#139988"/><path opacity=".6" d="M463.3 448.7H278.2c-4.2 0-7.6-3.7-7.6-8.2V104c0-4.5 3.4-8.1 7.6-8.1h185.1c4.2 0 7.6 3.6 7.6 8v336.7c0 4.5-3.4 8.2-7.6 8.2z" fill="#fff"/><path d="M453.4 433.2H288.1c-1.6 0-2.8-1.3-2.8-3V255.7c0-1.6 1.2-3 2.8-3h165.3c1.6 0 2.9 1.4 2.9 3v174.5c0 1.7-1.3 3-2.9 3z" fill="#fff"/><path d="M428.2 222.5H311.9c-1 0-1.7-.8-1.7-1.7v-4.5c0-1 .8-1.8 1.7-1.8h116.3c.9 0 1.6.8 1.6 1.8v4.5c0 1-.7 1.7-1.6 1.7z" fill="#139988"/><path d="M418 239.2h-95.8c-1.2 0-2-1-2-2.2v-.1c0-1.2.8-2.2 2-2.2h95.7c1.1 0 2 1 2 2.2v.1c0 1.2-.9 2.2-2 2.2z" fill="#F3F3F3"/><path d="M430.9 274.5h-89c-1 0-1.8-.9-1.8-2v-.1c0-1.1.8-2 1.8-2h89c1 0 1.9.9 1.9 2v.1c0 1.1-.9 2-2 2zM383.5 290H342c-1 0-2-1-2-2 0-1.2 1-2.1 2-2.1h41.5c1 0 1.9 1 1.9 2 0 1.1-.9 2-2 2zM430.9 316h-89c-1 0-1.8-.8-1.8-2s.8-2 1.8-2h89c1 0 1.9.8 1.9 2s-.9 2-2 2zM383.5 331.5H342c-1 0-2-1-2-2 0-1.2 1-2 2-2h41.5c1 0 1.9.8 1.9 2 0 1.1-.9 2-2 2zM430.9 357.7h-89c-1 0-1.8-1-1.8-2v-.1c0-1.1.8-2 1.8-2h89c1 0 1.9.9 1.9 2v.1c0 1-.9 2-2 2zM383.5 373.2H342c-1 0-2-1-2-2.1 0-1.2 1-2 2-2h41.5c1 0 1.9.8 1.9 2s-.9 2-2 2zM430.9 399.3h-89c-1 0-1.8-.9-1.8-2v-.1c0-1.2.8-2 1.8-2h89c1 0 1.9.8 1.9 2v.1c0 1.1-.9 2-2 2zM383.5 414.8H342c-1 0-2-1-2-2 0-1.2 1-2.1 2-2.1h41.5c1 0 1.9.9 1.9 2 0 1.2-.9 2-2 2z" fill="#868A91"/><path d="M370.8 200.9c22 0 39.8-19.2 39.8-42.7 0-23.6-17.8-42.8-39.8-42.8-22 0-39.8 19.2-39.8 42.8 0 23.6 17.8 42.7 39.8 42.7z" fill="#139988"/><path d="M386.6 141.5V152l-5.4.4.8-7.4 4.6-3.6zM370.8 200.9c15.2 0 28.4-9.2 35.1-22.6l-1.4-.4-19.9-2.8-22.7-.6-17.5 3.1c-2.7.5-5 2-6.7 4.3a39 39 0 0033 19z" fill="#21252B"/><path d="M384.6 175.1l2.2.4v.4c0 4.5-6.1 8.2-13.6 8.2-7.6 0-13.7-3.7-13.7-8.2v-1l2.3-.4 22.8.6z" fill="#fff"/><path d="M362 148.4s20-13.5 20.9 3l-.6 4 1.6 20.5c.6 8-22 8.2-22-.5l1.2-10.8c-.2-1.1-.4-2.4-.4-3.8-.2-6.5-.7-12.4-.7-12.4z" fill="#F39494"/><path d="M360.3 147.8c3.7 0 6.7-3.3 6.7-7.3s-3-7.3-6.8-7.3c-3.7 0-6.7 3.3-6.7 7.3s3 7.3 6.8 7.3z" fill="#21252B"/><path d="M359.7 136.8s-7 32 8.3 34.2c13.3 2 14.7-20.3 14.7-20.3l-.6-14.4-22.4.5z" fill="#F39494"/><path d="M380.2 147.2c.1 4.8 0 9.3-.8 12-.4 1.4-1.3 2.7-4 1.2-9.9-6-16.7-.5-16.7-.5s1 8.8 7.7 10.7c6.8 2 15.7-2.6 15.6-12.5 0-1.2.7-8.4-.3-12-.9-3.6-2-3.8-2-3.8l.5 5z" fill="#21252B"/><path d="M366.9 123.2c3.7 0 7 1.6 8.8 4.1a4 4 0 004 1.6h1.2c12 1 10.3 20.2-.5 18.6-2.3-.3-4.4-2-5.5-4.8-.8-2-2.7-3-4.6-2.4-1 .3-2.2.5-3.4.5-5.8 0-10.4-4-10.4-8.8 0-4.9 4.6-8.8 10.4-8.8z" fill="#21252B"/><path d="M359.6 139.3c.7.5 2 1.1 2 1.1l.3-.1-.1-.5-2-1.2-1.4-1.4c0-.1-.3-.2-.4 0-.2 0-.2.3 0 .4.5.8 1.5 1.6 1.6 1.7z" fill="#966363"/><path opacity=".1" d="M362.3 173.3l.4-4.9c1.7 1.7 4.4 3 8.6 2.5 0 0 2.9-.2 6-2 .2-.2.3-.2.4 0 .1.1 0 .3 0 .4-.6.5-3 1.7-6.5 2.3-5 3.5-8.9 1.7-8.9 1.7z" fill="#000"/><path d="M370.7 150.8c.7 0 1.3-.6 1.3-1.3 0-.7-.6-1.3-1.3-1.3-.6 0-1.2.6-1.2 1.3 0 .7.6 1.3 1.2 1.3z" fill="#21252B"/><path d="M370.2 149.4c.2 0 .3-.1.3-.3 0-.1-.1-.2-.3-.2-.1 0-.2 0-.2.2s0 .3.2.3z" fill="#fff"/><path d="M361 150.9c.7 0 1.2-.6 1.2-1.3 0-.7-.5-1.3-1.2-1.3s-1.2.6-1.2 1.3c0 .7.5 1.3 1.2 1.3z" fill="#21252B"/><path d="M360.5 149.4c.1 0 .2 0 .2-.2s0-.3-.2-.3-.2.1-.2.3c0 .1 0 .2.2.2z" fill="#fff"/><path d="M355.8 148v1.5c0 2.9 2.1 5.2 4.8 5.2 2.6 0 4.8-2.3 4.8-5.2v-1.4c0-.5 0-.9-.3-1.2h1.8a2 2 0 00-.3 1.2v1.4c0 2.9 2.1 5.2 4.8 5.2 2.7 0 4.8-2.3 4.8-5.2v-1.4c0-1-.8-2-1.8-2h-16.8c-1 0-1.8 1-1.8 2zm12.5-1h6c.6 0 1.1.5 1.1 1.1v1.5c0 2.4-1.9 4.3-4.1 4.3-2.2 0-4-2-4-4.4v-1.4c0-.7.4-1.1 1-1.1zm-11.9 1.1c0-.6.5-1.1 1-1.1h6.2c.6 0 1.1.5 1.1 1.1v1.5c0 2.4-1.9 4.3-4.1 4.3-2.3 0-4-2-4-4.4l-.2-1.4z" fill="#21252B"/><path d="M382 157.3l-.2-8.3s1.2-3.4 4.3-2c3.7 1.6 1 12-4 10.3z" fill="#F39494"/><path opacity=".5" d="M383 152.5c.3 0 .4-.2.4-.5 0-1.3.3-2.1.8-2.5.7-.5 1.5 0 1.5 0 .2 0 .4 0 .5-.3.1-.2 0-.4-.2-.5 0 0-1.2-.6-2.2 0-.8.6-1.2 1.7-1.2 3.3 0 .3.2.5.4.5z" fill="#000"/><path d="M370.6 160.5h-6.8l.2.5c1.3 3.4 5.8 3 6.6-.5z" fill="#fff"/><path opacity=".5" d="M365 157.5h.8c.2 0 .4-.2.4-.5 0-.2-.2-.4-.4-.4h-.7c-.6 0-1.1-.6-1.1-1.2s.4-1 .8-1.2c.3 0 .4-.3.3-.5 0-.2-.3-.3-.5-.3-.8.2-1.4 1-1.4 2 0 1.2.8 2 1.9 2z" fill="#000"/><path d="M397.2 179.3l-1.7 2.3 1 .9 1.8-2.3-1-.9zM352.5 177.2l-1.7 2.2 1 1 1.7-2.3-1-.9zM371.2 196.6l-.1 2.9h1.3v-2.8h-1.2zM387.9 191.7l-.3 1.3 2.6.6.3-1.3-2.6-.6zM346.3 189.2l-1 1 1.9 2 1-1-2-2zM374.8 184.5l-.3 1.3 2.6.6.3-1.3-2.6-.6zM360.5 189.2l-.2 1.3 2.6.6.3-1.3-2.7-.6zM318 294.1h-16.4c-.9 0-1.6-.8-1.6-1.7v-22c0-1 .7-1.8 1.6-1.8h16.3c1 0 1.6.8 1.6 1.8v22c0 1-.7 1.7-1.6 1.7z" fill="#139988"/><path d="M318 294.1h-16.4c-.9 0-1.6-.8-1.6-1.7v-22c0-1 .7-1.8 1.6-1.8h16.3c1 0 1.6.8 1.6 1.8v22c0 1-.7 1.7-1.6 1.7z" fill="#139988"/><path d="M317 270.2h-14.4v20.7H317v-20.7z" fill="#139988"/><path opacity=".7" d="M317 270.2h-14.4v20.7H317v-20.7z" fill="#fff"/><path d="M311.9 267.8a.4.4 0 01-.4-.3c-.3-.8-1-1.3-1.7-1.3-.8 0-1.5.6-1.7 1.3 0 .2-.2.3-.4.3h-2.3c-.2 0-.4.3-.4.5v2.7c0 .3.2.5.4.5h8.7c.3 0 .5-.2.5-.5v-2.7c0-.3-.3-.5-.5-.5h-2.2z" fill="#139988"/><path opacity=".5" d="M311.9 267.8a.4.4 0 01-.4-.3c-.3-.8-1-1.3-1.7-1.3-.8 0-1.5.6-1.7 1.3 0 .2-.2.3-.4.3h-2.3c-.2 0-.4.3-.4.5v2.7c0 .3.2.5.4.5h8.7c.3 0 .5-.2.5-.5v-2.7c0-.3-.3-.5-.5-.5h-2.2z" fill="#000"/><path d="M314.4 275.5h-9.3c-.3 0-.5-.2-.5-.5s.2-.6.5-.6h9.3c.3 0 .5.3.5.6s-.2.5-.5.5zM314.4 280.7h-9.3c-.3 0-.5-.2-.5-.5s.2-.6.5-.6h9.3c.3 0 .5.3.5.6s-.2.5-.5.5zM310.2 286h-5c-.4 0-.6-.2-.6-.5s.2-.6.5-.6h5.1c.3 0 .5.3.5.6s-.2.5-.5.5zM313.2 413.2h-6.9v2c0 .3.3.6.6.6h.5l.1.2v.4c0 .3.3.6.7.6h3c.4 0 .7-.3.7-.6v-.4c0-.1 0-.2.2-.2h.4c.3 0 .6-.3.6-.7v-1.9z" fill="#139988"/><path opacity=".5" d="M313.2 413.2h-6.9v2c0 .3.3.6.6.6h.5l.1.2v.4c0 .3.3.6.7.6h3c.4 0 .7-.3.7-.6v-.4c0-.1 0-.2.2-.2h.4c.3 0 .6-.3.6-.7v-1.9z" fill="#000"/><path d="M314.8 394.8a7.7 7.7 0 00-6.7-1.7c-3 .6-5.5 3.3-6.1 6.6-.7 3.3.5 6.6 3 8.6a4 4 0 011.3 2.4v1.6h7v-1.6a4 4 0 011.4-2.5c2-1.7 3-4 3-6.7 0-2.6-1-5.1-2.9-6.7zm-.4 6.4c-.4 0-.8-.4-.8-.9 0-1.6-1.2-3-2.8-3-.4 0-.8-.3-.8-.9 0-.5.4-.9.8-.9 2.5 0 4.4 2.2 4.4 4.8 0 .5-.3 1-.8 1zM316.3 318.1l-1.4 1.6a9 9 0 011 4c0 4.7-3.6 8.5-8 8.5-4.3 0-7.9-3.8-7.9-8.4 0-4.7 3.6-8.5 8-8.5 1.3 0 2.6.4 3.7 1l1.5-1.5a9.5 9.5 0 00-5.3-1.6c-5.5 0-9.9 4.7-9.9 10.6 0 5.9 4.4 10.7 10 10.7 5.4 0 9.8-4.8 9.8-10.7 0-2.1-.6-4-1.5-5.7z" fill="#139988"/><path d="M313.8 320.9l-1.6 1.6.2 1.3c0 2.6-2 4.7-4.5 4.7-2.4 0-4.4-2.1-4.4-4.7s2-4.8 4.4-4.8l1.2.1 1.5-1.6c-.8-.4-1.7-.7-2.7-.7-3.5 0-6.4 3.1-6.4 7 0 3.8 2.9 6.9 6.4 6.9 3.6 0 6.5-3.1 6.5-7 0-1-.3-2-.6-2.8z" fill="#139988"/><path d="M308 327a3 3 0 01-3-3.2c0-1.8 1.3-3.3 3-3.3 1.6 0 2.9 1.5 2.9 3.3 0 1.7-1.3 3.1-3 3.1zm0-4.3c-.6 0-1 .5-1 1 0 .7.4 1.1 1 1.1.4 0 .9-.5.9-1 0-.6-.5-1-1-1z" fill="#139988"/><path d="M321.4 312.3c0-.3-.3-.5-.7-.5H319V310c0-.3-.2-.6-.5-.8-.2-.1-.6 0-.7.2l-3 3.1-.2.6v2.3l-7.2 7.7c-.3.3-.3.8 0 1.1.1.2.3.3.5.3s.4 0 .5-.3l7.2-7.7h2.2l.5-.3 3-3.2c.2 0 .3-.4.1-.7z" fill="#139988"/><path opacity=".5" d="M321.4 312.3c0-.3-.3-.5-.7-.5H319V310c0-.3-.2-.6-.5-.8-.2-.1-.6 0-.7.2l-3 3.1-.2.6v2.3l-7.2 7.7c-.3.3-.3.8 0 1.1.1.2.3.3.5.3s.4 0 .5-.3l7.2-7.7h2.2l.5-.3 3-3.2c.2 0 .3-.4.1-.7z" fill="#000"/><path d="M304.2 371.4h-3.4v-9.6c0-.3.2-.6.5-.6h2.5c.2 0 .5.3.5.6v9.6zM309 371.4h-3.4V357c0-.3.2-.6.5-.6h2.5c.3 0 .5.3.5.6v14.4zM314 371.4h-3.6v-11.7c0-.3.2-.5.5-.5h2.5c.3 0 .5.2.5.5v11.7zM318.8 371.4h-3.5v-16c0-.3.2-.6.5-.6h2.5c.2 0 .5.3.5.6v16z" fill="#139988"/><path d="M320 371.9h-20.4l-.2-.2v-.7l.2-.2h20.3l.2.2v.7c0 .1 0 .2-.2.2z" fill="#139988"/><path opacity=".5" d="M320 371.9h-20.4l-.2-.2v-.7l.2-.2h20.3l.2.2v.7c0 .1 0 .2-.2.2z" fill="#000"/><path d="M171 419.3c.6 2.2.7 3 .6 5.2v14.4c0 2.5-.7 5-1.9 7.1l-.3.5a4 4 0 01-3.5 2h-4a4 4 0 01-4-3c-.5-2.2-.6-4.4-.1-6.6l3.4-15.4c.2-1.4.5-2.9 1.2-4.2h8.6z" fill="#21252B"/><path d="M225.6 385.5l2.6 27.5a12 12 0 001.8 6.6l9.8 20.3-2.7 3.8-10.7-5.4-9.4-17.5c0-3-.3-4.8-.8-8.7l-4.7-29.8 14.1 3.2z" fill="#FC9D9D"/><path opacity=".1" d="M228.4 422.3c-1-1.7-2.5-5.5-2.8-7.3l-3.2-10.2c-.1-.7-.7-1.3-1.4-1.4l-6.5-1V401H227l1 12c.3 2.2.8 4.8 2 6.6l9.7 20.4-1.7 2.8-9.7-20.5z" fill="#000"/><path d="M245.4 443.4l-5.6-3.4c-4 .6-8.2-1-10.7-4.1l-12.1-15c-2.2 4.7-3 10-2.2 15.3l1.8 12.5h1.4l.3-12.8c0-1 1.2-1.4 1.8-.6l7.4 9.2a11 11 0 008.5 4.2h11.5c1 0 1.5-1 1.2-1.9a7.1 7.1 0 00-3.3-3.4z" fill="#21252B"/><path d="M171.6 413c-.6 5-.9 10.3-.8 15.5v6.3a5 5 0 01-4.9 4.9h-.8a5 5 0 01-5-5.8l1.5-7.4c.7-3.7 1-7.6.7-11.4l-1.3-25 12.6.1-2 22.7z" fill="#FC9D9D"/><path d="M220 220l1.8 22.2 1.6 18.6c.9 9.9 1.4 19.8 1.7 29.7l2.7 110.5h-13.9l-22.1-149c-.2-1-1.1-1.9-2.2-1.9-1 0-2 1-2.1 2l-14 149-12.5-.2-4.7-104.6c-1.3-24.4.5-49 5.4-73l.8-3.3h57.6z" fill="#139988"/><path opacity=".1" d="M172.7 401l-1.7 18.3c-.2 3-.3 6.1-.2 9.2v6.2a5 5 0 01-4.7 4.9c2.4-1.9 2.2-4.9 2.2-7.1l.4-27.3c0-1-.6-1.7-1.4-1.8l-5.7-1V401h11z" fill="#000"/><path opacity=".2" d="M189.6 250.1a2 2 0 00-1.5.6c-.3.4-.6.9-.7 1.5L173.5 401H169l9.2-139.9c.3-6.2 5.3-11 11.4-11zM220.5 225.4l1.3 16.7 1 11.6a719 719 0 012.5 43.8l2.5 103.5h-6.2l-6.4-148.1-1.4-28.4h6.6v1z" fill="#000"/><path d="M220.4 224.5l-.4-5.7-57.2-.1-1.4 5.8h59zM188.9 109.2c2.9-1.5 5-4.4 5.8-8 1-5.1-1-10.2-4.9-12.7 2.9-.5 5.3-3 5.6-6.5a7.1 7.1 0 00-4.3-7.2c-3.7-1.4-7.6 1-8.4 5.1a9 9 0 000 3 4 4 0 01-2.4 4.5 11.1 11.1 0 00-6.8 8.6c-1.2 7.5 2.5 11.3 5.7 13 1.6.9 2.4 2.9 1.8 4.8l-.2 1.4c-.4 3.4 1.6 6.7 4.6 7.6 3.6 1 7.2-1.3 8-5.3a7 7 0 00-4.5-8.3z" fill="#21252B"/><path d="M192.7 89.7c3 0 5.4-2.6 5.4-5.9 0-3.2-2.5-6-5.4-6-3 0-5.4 2.8-5.4 6 0 3.3 2.4 6 5.4 6z" fill="#139988"/><path d="M198.5 111.4c8 0 14.5-7.2 14.5-16 0-8.7-6.5-15.9-14.5-15.9s-14.5 7.2-14.5 16c0 8.7 6.5 15.9 14.5 15.9z" fill="#21252B"/><path d="M210 129.1l-5 3.3a16.2 16.2 0 01-17.8-.2l-4.6-3 2-.6a3.5 3.5 0 002.4-3.3l.4-18.8 15.7-3.4 1.8 17.2.3 4 .2 1.3c.1 1.4 1 2.6 2.3 3l2.3.5z" fill="#F39494"/><path d="M200.3 121.1h-.8c-6-.2-10.7-5.7-10.6-12.3l.6-16.7c0-2.2 1.7-4 3.7-3.9l14.2.5c2.6 0 4.7 2.4 4.6 5.3l-.5 15.5c-.2 6.6-5.2 11.9-11.2 11.6z" fill="#F39494"/><path d="M200.4 104.1c.6 0 1.1-.6 1.1-1.3 0-.7-.5-1.3-1.1-1.3-.7 0-1.2.6-1.2 1.3 0 .7.5 1.3 1.2 1.3z" fill="#21252B"/><path d="M200.9 102.9c.1 0 .2-.1.2-.3 0-.1 0-.2-.2-.2s-.3 0-.3.2.1.3.3.3z" fill="#fff"/><path d="M209.5 104.8c.6 0 1.2-.6 1.2-1.3 0-.7-.6-1.3-1.2-1.3-.7 0-1.2.6-1.2 1.3 0 .7.5 1.3 1.2 1.3z" fill="#21252B"/><path d="M210 103.6c.1 0 .2-.1.2-.3 0-.1 0-.2-.2-.2-.1 0-.2 0-.2.2s0 .3.2.3z" fill="#fff"/><path opacity=".3" d="M204.7 110.7h-1.6c-.2 0-.3-.1-.3-.3 0-.2.1-.3.3-.4h1.6c.3 0 .7-.4.7-.8 0-.5-.4-.8-.8-.8-.2 0-.3-.2-.4-.4 0-.2.2-.3.4-.4.8 0 1.4.7 1.4 1.5.2 1-.5 1.6-1.3 1.6z" fill="#000"/><path opacity=".1" d="M187.4 108.9l1.7.8-1.8 3.4v-4.2zM205.3 124.1c-.8.1-1.6.2-2.5 0a9.6 9.6 0 01-5.4-2.6c-2.2-.5-3.8-1.5-4.8-2.3v-.5c0-.2.3-.2.4 0a11.2 11.2 0 004 2c.2 0 .5 0 .7.2h.6l1.3.2c1.9.1 3.7 0 5.3-.8l.4 3.8z" fill="#000"/><path d="M205 112.3l.2.3c-.7 1.2-1.8 2-3.2 2-1.3-.1-2.3-1-2.9-2.3 0-.2 0-.3.3-.3l5.6.3z" fill="#fff"/><path d="M188.2 100.3c1.8-1.4 4.5-.8 6.6-.7 7.6.2 11.3-5 11.7-10.4.1-2-.2-3.8-1-5.3-.3-.6-2.1-1-2.1-1l-17 4.1.3 7.5 1.5 5.8z" fill="#21252B"/><path d="M203.6 91c5.3.4 8.7 3.3 8.3 9v.4l.5-7.8-2-4-8-.2 1.2 2.6zM258.6 169.4l-1.5 11.5-25.5 8.5c-5.3 1.7-11-.7-13.6-5.9l-.3-.6-18.4-42.6 26.2-.1 8.3 33.7 24.8-4.5z" fill="#21252B"/><path opacity=".3" d="M225.5 140.2l-6 11.9s-5.5 16.6-6.3 21.2c0 0 4.3 9.8 6.3 12.7 1.4 2 2.5 1.3 2.5 1.3l3.2-10.8 3-6.3c2.4-5.2 2.8-11 1.2-16.6l-4-13.4z" fill="#000"/><path d="M196.5 147.5c8.2 0 14.8-7.7 14.8-17.3l-1.7-.5v.3c0 8.6-5.9 15.6-13 15.6-7.2 0-13-7-13-15.6v-.3l-1.8.6c.1 9.5 6.7 17.2 14.7 17.2z" fill="#139988"/><path d="M196.5 147.5c8.2 0 14.8-7.7 14.8-17.3l-1.7-.5v.3c0 8.6-5.9 15.6-13 15.6-7.2 0-13-7-13-15.6v-.3l-1.8.4c.1 9.5 6.7 17.4 14.7 17.4z" fill="#139988"/><path opacity=".6" d="M196.5 147.5c8.2 0 14.8-7.7 14.8-17.3l-1.7-.5v.3c0 8.6-5.9 15.6-13 15.6-7.2 0-13-7-13-15.6v-.3l-1.8.4c.1 9.5 6.7 17.4 14.7 17.4z" fill="#000"/><path d="M167.6 133.5l17-5.5 24 .1 8.9 3.3c3 1 5.3 3.3 6.8 6 1.8 3.2 2.2 7 1.6 10.7l-.4 2.1 2.3 8.5c1.3 5.5-.4 8.7-4 13.1-1.1 1.4-1.7 2-2.1 4.6 0 0-2.2 8.8-2.6 12.4-1.6 14.1-3.5 24-3.5 24l-43 .6c-2.1 0-3-2.4-2-4.3 0 0 3-6.7 3.6-12.2 2-18.3-2.9-40-2.9-40l-12.5-11.4.6-2.6c1-4.5 4-8 8.2-9.4z" fill="#21252B"/><path d="M186.6 127l-4 1.6 6.5 17.1 6.4-3.7-8.9-15z" fill="#FBFBFB"/><path d="M187 127.6l8.5 14.4 8.9 12.8 1.8-27.2s-10.4-5.6-19.1 0z" fill="#F39494"/><path d="M206 127.1L205 143l6.7 6.7-3-21.5-2.8-1z" fill="#FBFBFB"/><path opacity=".3" d="M213.4 161.9l-4.5-33.7 2.6 1 4.4 9.5-3 1.4 7 2.9-2.1 19.6-4.4-.7z" fill="#000"/><path d="M186.2 157.3l41 7-12.9 51.3-40.8-7.5 12.7-50.8z" fill="#61656D"/><path d="M200.7 164.5c.6 0 1.1-.5 1.1-1.2 0-.6-.5-1.2-1.1-1.2-.6 0-1.1.6-1.1 1.2 0 .7.5 1.2 1 1.2zM212.2 166.3c.6 0 1.1-.5 1.1-1.2 0-.6-.5-1.2-1.1-1.2-.6 0-1.1.6-1.1 1.2 0 .7.5 1.2 1.1 1.2z" fill="#AEB2B7"/><path opacity=".3" d="M183.7 167l-8-22.4 5.4-2.6-4.3-.8 1.5-11 3-1.1 8.4 28.8-3.5-.6-2.5 9.7z" fill="#000"/><path d="M172.5 186c0-.2-1-19-3.9-31.2h.5c2.9 12.2 3.8 31 3.8 31.2h-.4z" fill="#125975"/><path d="M210 219.4l-24.2-.1v-9.2l24.2 5v4.3z" fill="#FBFBFB"/><path d="M158.8 145.5l-8.7 54c-.5 2.3.2 4.7 1.8 6.4a6.2 6.2 0 009.2 0l7.6-8.1L170 185l5.6-27.7-16.8-12z" fill="#21252B"/><path d="M165.9 202.4c-1.3 6.5-8.1 28.7-8.7 47.7h19.3c5.1 0 9.3-4.4 9.3-9.9v-30l-12.3-2.1 3.2-13.2-3.2-26.4-7.6 33.9zM218.9 197.4s-.1 13.5 2.7 28.6c1.2 6.7 2 17.3 2.1 23.9 0 1.3-1 2.3-2.1 2.3h-5c-5 0-9.2-4.4-9.2-9.9l.3-27.9 6.6 1.3 4.6-18.3z" fill="#21252B"/><path d="M168.9 197.6l7.5-8 4.7.3 8-1.2c.6 0 1.1-.5 1.1-1v-.4a1 1 0 00-1-1.1h-6.8 8.5c.6 0 1-.5 1-1.1v-.3c0-.6-.4-1.1-1-1.1h-8.7 10.2c.6 0 1-.5 1-1.1v-.2c0-.6-.4-1.1-1-1.1H182l4-1.2h.1l5.7-.9c.5 0 .9-.5.9-1 0-.7-.5-1.3-1.2-1.2l-10.4 1-.3.1-10.7 7-1.2 12.5z" fill="#F39494"/><path opacity=".3" d="M176.4 189.6l-10 10.7-1.5 6.5 12.2-13 1-4-1.7-.2z" fill="#000"/><path d="M189.7 157.9l-8.4-28.9 2.5-1 11.6 14 6.6 7 3.1-6 6.7 6.6 1.6 12.2-23.7-4z" fill="#FBFBFB"/><path opacity=".3" d="M189.1 145.7l6.4-3.7 6.5 7.1-6.5-4.5-6.4 1.1zM210.7 146.4l-5.6-3.4-3.1 6.1 2.7-4.3 6 1.6z" fill="#000"/><path d="M278.7 176l-10 .2-11.6 4.7 1.5-11.5 10.2-1.7s.5-2.7 5.5-3.4l4.4-2.2s1.3 1.2.3 2.7c-1 1.5-2 1.6-2 1.6l3.5-.9-.7 2.4 1.4 2.9-.6 2.3-2 3z" fill="#F39494"/><path opacity=".3" d="M190.9 184H182l-.2-.3c0-.2 0-.3.2-.3h8.8c.1 0 .2.1.2.3l-.2.2zM182.3 186.5c-.1 0-.2-.1-.2-.3l.2-.2h6.8c.2 0 .3 0 .3.2 0 .1-.1.2-.3.2h-6.8z" fill="#000"/><path d="M304.3 118.1c-11-6-24.4-1.5-30 10.1a24.8 24.8 0 009.4 32.2c11 6 24.4 1.5 30-10.1a24.7 24.7 0 00-9.4-32.2zm-18.8 38.8c-9-5-12.6-17-8-26.8a17.9 17.9 0 0125-8.4c9 5 12.5 17 7.9 26.7a17.9 17.9 0 01-25 8.5z" fill="#21252B"/><path d="M271.9 183.7l13-26 3.7 2-12.9 26.3c-.2.4-.7.6-1.2.4l-2.2-1.4c-.5-.3-.7-.8-.4-1.3z" fill="#21252B"/><path d="M274.7 185.4l12.9-26.1-5-1.9-12.4 25.3c-.2.5 0 1 .4 1.3l3 1.8c.4.2 1 0 1.1-.4z" fill="#3F4249"/><path opacity=".3" d="M282.6 157.4l-1.5 3.2 1 .6c1.2.7 2.5 1.2 3.7 1.6l1.8-3.5-5-1.9z" fill="#000"/><path d="M303 117.6c-10.9-6-24.3-1.5-30 10.1a24.8 24.8 0 009.5 32.2c11 6 24.3 1.5 30-10.1a24.7 24.7 0 00-9.4-32.2zm-18.7 38.8c-9-5.1-12.6-17-7.9-26.8a17.9 17.9 0 0125-8.4c9 5 12.5 17 7.8 26.7a18 18 0 01-25 8.4z" fill="#3F4249"/><path d="M283.4 173c-.4.6-1.2.6-1.7.2l-2.2-2.2a1 1 0 00-1.6 0c-.4.5-.4 1.3 0 1.7l2 2.2c.4.5 1 .5 1.6 0 .6-.4.6-1.4 0-2l-2.4-2.2c-.4-.4-.5-1.1-.1-1.6a1 1 0 011.5-.2l2.7 2.4c.5.4.6 1.2.2 1.7zM284.5 168.8l-3.7-2.3a1 1 0 00-1.2.2c-.3.4-.3 1 .1 1.4l3.4 3c.6.4 1.4.3 1.8-.4.4-.6.2-1.4-.4-1.9zM284.4 167.8l-4-1.7a1 1 0 01-.7-1.1c.2-.6.7-.9 1.2-.7l4.2 1.2c.6.1 1 .8.8 1.5-.2.6-.9 1-1.5.8z" fill="#F39494"/><path opacity=".3" d="M283.1 168l-2.3-1.6a.9.9 0 00-1.1.1c-.4.4-.4 1.2 0 1.6l1.6 1.5-.9-.8a1 1 0 00-1.4 0c-.4.5-.4 1.3 0 1.7l.4.5c-.4-.5-1.2-.5-1.6 0-.4.4-.5 1.2 0 1.7l.4.4 1.6 1.9-2.3-1.4c-.8-.4-1-1.3-.7-2.1l2.8-6.6c.2-.5.8-.8 1.3-.6-.5-.1-1 .1-1.1.5-.2.5 0 1.1.5 1.3l3.1 1.3-.3.5z" fill="#000"/><path opacity=".1" d="M275.3 170.9c-.1 0-.3 0-.3-.2v-.5c2-1.5 1.7-3.7 1.7-3.7 0-.2.1-.4.3-.5.2 0 .4.1.4.3 0 .1.4 2.8-2 4.5h-.1z" fill="#000"/><path d="M185.5 88.4c-1.4 1.1-5 10.8-.7 17.2 0 0-.7-2.5.7-4.7 0 0-3-4 0-12.5z" fill="#000"/><path d="M210 99.8c-1.4 0-2.8.8-3.6 2a4.1 4.1 0 00-3-.3 4.7 4.7 0 00-4.2-2.8c-2.6 0-4.7 2.4-4.7 5.2 0 3 2.2 5.2 4.8 5.2 2.6 0 4.7-2.3 4.7-5.2 0-.6 0-1.2-.3-1.7.5-.1 1.4-.3 2.4.1-.5.8-.7 1.7-.7 2.7 0 3 2.2 5.2 4.7 5.2 2.7 0 4.8-2.3 4.8-5.2 0-2.8-2.2-5.2-4.8-5.2zm-10.7 8.7c-2.2 0-4-2-4-4.5-.1-2.5 1.7-4.5 4-4.5 2.2 0 4 2 4.1 4.4 0 2.5-1.9 4.6-4 4.6zm10.8 1c-2.2.1-4-2-4.1-4.4 0-2.5 1.8-4.5 4-4.5 2.3 0 4.1 2 4.2 4.4 0 2.5-1.8 4.5-4.1 4.6z" fill="#fff"/><path d="M189.7 109.6s-4.7-.2-5.2-5.4c-.4-5.1 5.4-5.4 5.7-.2v5.6h-.5z" fill="#F39494"/><path opacity=".3" d="M186.3 101.8a2 2 0 011.4-.3c.4.2.8.5 1 1.1.3.6.4 1.3.4 2.1v.5c-.1.4-.7.5-.7 0v-.7a4 4 0 00-.2-1.6c-.2-.5-.4-.7-.7-.8-.2-.1-.5 0-1 .2 0 0-.3 0-.4-.2 0 0 0-.3.2-.3z" fill="#000"/><path d="M188.6 108.7c.5 0 1-.5 1-1 0-.6-.5-1-1-1s-1 .4-1 1c0 .5.5 1 1 1z" fill="#139988"/><path opacity=".1" d="M188.8 108.6c-.5 0-1-.6-.8-1.2l.2-.6-.5.8c0 .6.3 1 .8 1.1h.6c-.1-.2-.2-.2-.3-.1z" fill="#000"/><path opacity=".3" d="M165.6 186.5l-9.3 5.5-.2.4c0 .3.4.6.6.4L170 185l2.4-17.8c0-.2-.3-.3-.4 0l-6.4 19.2z" fill="#000"/><path d="M570.1 449.5H21c-.2 0-.4-.2-.4-.4 0-.3.2-.4.4-.4h549.3c.2 0 .3.1.3.4 0 .2-.1.4-.4.4z" fill="#ADB1B6"/></g><defs><linearGradient id="paint0_linear" x1="69.3" y1="405.5" x2="603.8" y2="-122.3" gradientUnits="userSpaceOnUse"><stop stop-color="#139988" stop-opacity=".2"/><stop offset="1" stop-color="#fff" stop-opacity="0"/></linearGradient><clipPath id="clip0"><path fill="#fff" d="M0 0h600v450H0z"/></clipPath></defs></svg>