<svg width="278" height="871" fill="none" xmlns="http://www.w3.org/2000/svg"><path d="M-7 774c59-34 20-122 85-156 0 0 57-62 42-131-21-92-36-2-113-218S-182 90-277 129c-43 18-29 40-51 87-28 59-228 123-190 183 68 108 66 133 105 214 37 74 165 87 217 135 76 72 140 55 189 26z" fill="url(#paint0_linear)"/><defs><linearGradient id="paint0_linear" x1="-73.1" y1="825.2" x2="-489.2" y2="202.5" gradientUnits="userSpaceOnUse"><stop stop-color="#139988" stop-opacity=".1"/><stop offset="1" stop-color="#fff" stop-opacity="0"/></linearGradient></defs></svg>