<svg width="600" height="450" fill="none" xmlns="http://www.w3.org/2000/svg"><g clip-path="url(#clip0)"><path d="M23.37 448.1l-22.14-267c-.03-.34-.06-.68-.07-1.02-.39-8.25 3.3-16.18 9.6-21.63L150.1 27.9a492.39 492.39 0 0021.98-19.85 28.74 28.74 0 0111.9-7.02 29.1 29.1 0 0113.86-.7l271.5 30.93c5.06.44 9.92 2.18 14.1 5.03a28.77 28.77 0 019.67 11.26c3.8 7.87 7.56 15.8 11.67 23.55l92.18 156.75c3 5.57 3.87 12.02 2.44 18.16l-.24.93L548.3 448.8l-524.93-.68z" fill="#F4F4F4"/><path d="M23.37 448.1l-22.14-267c-.03-.34-.06-.68-.07-1.02-.39-8.25 3.3-16.18 9.6-21.63L150.1 27.9a492.39 492.39 0 0021.98-19.85 28.74 28.74 0 0111.9-7.02 29.1 29.1 0 0113.86-.7l271.5 30.93c5.06.44 9.92 2.18 14.1 5.03a28.77 28.77 0 019.67 11.26c3.8 7.87 7.56 15.8 11.67 23.55l92.18 156.75c3 5.57 3.87 12.02 2.44 18.16l-.24.93L548.3 448.8l-524.93-.68z" fill="url(#paint0_linear)"/><path d="M413.03 391.02c11.34-2.27 11.43-44.57 11.51-81.89.06-23.82.1-46.31 3.3-52.36 5.96-11.39 17.8-11.24 17.9-11.24l.03-.8c-.12 0-12.45-.16-18.65 11.67-3.27 6.24-3.3 27.8-3.38 52.75-.07 35.18-.17 78.97-10.87 81.12l.16.75z" fill="#61656D"/><path d="M412.15 385.2c7.02 0 11.54-9.55 13.82-29.2 1.97-16.87 2.04-38.75 2.1-58.05.07-21.09.14-39.3 2.54-45.93 4.36-12 14.76-10.62 15.2-10.55l.12-.78c-.12 0-11.5-1.55-16.07 11.06-2.46 6.75-2.52 25.03-2.59 46.2-.13 38.52-.29 86.46-15.12 86.46v.79z" fill="#61656D"/><path d="M413.36 395.07c13.13-2.51 12.95-50.67 12.8-89.36-.08-21.22-.15-39.55 2.03-44.95 4.78-11.88 17.74-10.77 17.87-10.75l.07-.8c-.13 0-13.68-1.17-18.7 11.26-2.23 5.56-2.16 23.94-2.08 45.24.14 36.38.33 86.2-12.14 88.59l.15.77z" fill="#61656D"/><path d="M413.36 393.05c13.14-2.49 12.95-50.68 12.8-89.36-.08-21.22-.15-39.56 2.03-44.95 4.78-11.89 17.74-10.77 17.87-10.76l.07-.79c-.13 0-13.68-1.17-18.7 11.25-2.23 5.56-2.16 23.95-2.08 45.25.14 36.38.33 86.2-12.14 88.58l.15.78z" fill="#61656D"/><path d="M413.03 434.93c11.34-2.28 11.43-38 11.51-69.5.06-20.4.1-39.63 3.3-45.7 5.97-11.4 17.8-11.23 17.9-11.23l.03-.8c-.12 0-12.45-.16-18.65 11.67-3.27 6.25-3.3 24.69-3.38 46.05-.08 31.2-.17 66.58-10.87 68.73l.16.78z" fill="#61656D"/><path d="M412.15 429.1c15.64 0 15.8-39.1 15.92-73.59.08-18.18.14-33.88 2.54-40.5 4.36-12 14.76-10.62 15.2-10.55l.12-.78c-.12 0-11.5-1.56-16.07 11.06-2.46 6.75-2.52 22.51-2.59 40.78-.13 32.44-.28 72.8-15.12 72.8v.78z" fill="#61656D"/><path d="M412.15 431.63c15.64 0 15.8-39.1 15.92-73.6.08-18.17.14-33.88 2.54-40.5 4.36-11.98 14.76-10.6 15.2-10.54l.12-.79c-.12 0-11.5-1.55-16.07 11.07-2.46 6.75-2.52 22.51-2.59 40.78-.13 32.44-.28 72.8-15.12 72.8v.78z" fill="#61656D"/><path d="M412.15 435.76c15.64 0 15.8-39.1 15.92-73.6.08-18.18.14-33.88 2.54-40.5 4.36-12 14.76-10.61 15.2-10.55l.12-.78c-.12 0-11.5-1.55-16.07 11.06-2.46 6.75-2.52 22.52-2.59 40.78-.13 32.44-.28 72.8-15.12 72.8v.79z" fill="#61656D"/><path d="M413.36 438.98c13.12-2.52 12.94-43.17 12.8-75.84-.08-18.24-.15-33.99 2.03-39.4 4.78-11.88 17.74-10.76 17.87-10.75l.07-.79c-.13 0-13.68-1.17-18.7 11.25-2.23 5.57-2.16 21.37-2.08 39.69.15 32.37.32 72.67-12.14 75.07l.15.77z" fill="#61656D"/><path d="M561.82 177.2h-31.67v240.18h31.67V177.2z" fill="#139988"/><path opacity=".15" d="M561.82 177.2h-31.67v240.18h31.67V177.2z" fill="#000"/><path d="M530.36 177.21h-88.4V417.4h88.4V177.21z" fill="#139988"/><path opacity=".3" d="M530.36 177.21h-88.4V417.4h88.4V177.21z" fill="#fff"/><path d="M524.37 211.9h-76.4v190.3h76.4V211.9z" fill="#139988"/><path opacity=".2" d="M524.37 211.9h-76.4v190.3h76.4V211.9z" fill="#000"/><path d="M521.91 241.59h-71.5v23.15h71.5v-23.15zM521.91 268.53h-71.5v23.15h71.5v-23.15zM521.91 295.48h-71.5v23.15h71.5v-23.15zM521.91 322.42h-71.5v23.15h71.5v-23.15zM521.91 349.36h-71.5v23.15h71.5v-23.15zM521.91 376.3h-71.5v23.15h71.5V376.3zM521.91 214.64h-71.5v23.16h71.5v-23.16z" fill="#139988"/><g opacity=".3" fill="#fff"><path opacity=".3" d="M521.91 241.59h-71.5v23.15h71.5v-23.15zM521.91 268.53h-71.5v23.15h71.5v-23.15zM521.91 295.48h-71.5v23.15h71.5v-23.15zM521.91 322.42h-71.5v23.15h71.5v-23.15zM521.91 349.36h-71.5v23.15h71.5v-23.15zM521.91 376.3h-71.5v23.15h71.5V376.3zM521.91 214.64h-71.5v23.16h71.5v-23.16z"/></g><path d="M515.14 220.65H456.2v11.51h58.94v-11.5z" fill="#139988"/><path opacity=".2" d="M515.14 220.65H456.2v11.51h58.94v-11.5z" fill="#000"/><path d="M500.85 223.8H458.6v5.28h42.26v-5.28z" fill="#139988"/><path opacity=".2" d="M503.77 227.85c.75 0 1.36-.63 1.36-1.4 0-.78-.6-1.41-1.36-1.41-.75 0-1.35.63-1.35 1.4 0 .78.6 1.4 1.35 1.4z" fill="#000"/><path d="M507.69 227.85c.75 0 1.36-.63 1.36-1.4 0-.78-.61-1.41-1.36-1.41-.75 0-1.36.63-1.36 1.4 0 .78.61 1.4 1.36 1.4z" fill="#139988"/><path d="M511.6 227.85c.76 0 1.37-.63 1.37-1.4 0-.78-.61-1.41-1.36-1.41-.75 0-1.36.63-1.36 1.4 0 .78.61 1.4 1.36 1.4z" fill="#B2B6BB"/><path d="M515.14 247.9H456.2v11.5h58.94v-11.5z" fill="#139988"/><path opacity=".2" d="M515.14 247.9H456.2v11.5h58.94v-11.5z" fill="#000"/><path d="M500.85 251.05H458.6v5.28h42.26v-5.28zM515.14 275.14H456.2v11.51h58.94v-11.5z" fill="#139988"/><path opacity=".2" d="M515.14 275.14H456.2v11.51h58.94v-11.5z" fill="#000"/><path d="M500.85 278.3H458.6v5.27h42.26v-5.28zM515.14 302.39H456.2v11.5h58.94v-11.5z" fill="#139988"/><path opacity=".2" d="M515.14 302.39H456.2v11.5h58.94v-11.5z" fill="#000"/><path d="M500.85 305.54H458.6v5.28h42.26v-5.28zM515.14 328.92H456.2v11.5h58.94v-11.5z" fill="#139988"/><path opacity=".2" d="M515.14 328.92H456.2v11.5h58.94v-11.5z" fill="#000"/><path d="M500.85 332.07H458.6v5.28h42.26v-5.28z" fill="#139988"/><path opacity=".2" d="M503.77 336.22c.75 0 1.36-.63 1.36-1.4 0-.78-.6-1.41-1.36-1.41-.75 0-1.35.63-1.35 1.4 0 .78.6 1.4 1.35 1.4z" fill="#000"/><path d="M507.69 336.22c.75 0 1.36-.63 1.36-1.4 0-.78-.61-1.41-1.36-1.41-.75 0-1.36.63-1.36 1.4 0 .78.61 1.4 1.36 1.4z" fill="#139988"/><path d="M511.6 336.22c.76 0 1.37-.63 1.37-1.4 0-.78-.61-1.41-1.36-1.41-.75 0-1.36.63-1.36 1.4 0 .78.61 1.4 1.36 1.4z" fill="#B2B6BB"/><path d="M515.14 356.27H456.2v11.5h58.94v-11.5z" fill="#139988"/><path opacity=".2" d="M515.14 356.27H456.2v11.5h58.94v-11.5z" fill="#000"/><path d="M500.85 359.41H458.6v5.28h42.26v-5.28zM515.14 383H456.2v11.5h58.94V383z" fill="#139988"/><path opacity=".2" d="M515.14 383H456.2v11.5h58.94V383z" fill="#000"/><path d="M500.85 386.15H458.6v5.28h42.26v-5.28z" fill="#139988"/><path opacity=".3" d="M500.85 223.8H458.6v5.28h42.26v-5.28zM500.85 251.05H458.6v5.28h42.26v-5.28zM500.85 278.3H458.6v5.27h42.26v-5.28zM500.85 305.54H458.6v5.28h42.26v-5.28zM500.85 332.07H458.6v5.28h42.26v-5.28zM500.85 359.41H458.6v5.28h42.26v-5.28zM500.85 386.15H458.6v5.28h42.26v-5.28z" fill="#fff"/><path opacity=".2" d="M505.13 388.95a1.35 1.35 0 01-1.65 1.25 1.34 1.34 0 01-1.04-1.07 1.32 1.32 0 01.59-1.35c.22-.15.48-.22.74-.22.37.01.71.17.97.42.25.26.39.6.39.97z" fill="#000"/><path d="M509.05 388.95a1.31 1.31 0 01-.88 1.19 1.37 1.37 0 01-1.46-.32 1.32 1.32 0 01.23-2.04c.23-.15.49-.22.75-.22a1.4 1.4 0 011.36 1.39z" fill="#139988"/><path d="M511.6 390.35c.76 0 1.37-.63 1.37-1.4 0-.78-.61-1.4-1.36-1.4-.75 0-1.36.62-1.36 1.4 0 .77.61 1.4 1.36 1.4z" fill="#B2B6BB"/><path opacity=".2" d="M505.13 253.9a1.35 1.35 0 01-.88 1.2 1.37 1.37 0 01-1.46-.33 1.33 1.33 0 01.23-2.03c.23-.15.49-.22.75-.22.37.01.71.17.97.42.25.26.39.6.39.97z" fill="#000"/><path d="M509.05 253.9a1.35 1.35 0 01-1.65 1.25 1.37 1.37 0 01-1.04-1.06 1.32 1.32 0 01.58-1.35c.23-.15.49-.22.75-.22a1.4 1.4 0 011.36 1.39z" fill="#139988"/><path d="M511.6 255.31c.76 0 1.37-.63 1.37-1.4 0-.78-.61-1.4-1.36-1.4-.75 0-1.36.62-1.36 1.4 0 .77.61 1.4 1.36 1.4z" fill="#B2B6BB"/><path opacity=".2" d="M505.13 280.86a1.35 1.35 0 01-1.65 1.25 1.36 1.36 0 01-1.04-1.06 1.33 1.33 0 011.34-1.57 1.4 1.4 0 011.35 1.39z" fill="#000"/><path d="M509.05 280.86a1.35 1.35 0 01-1.65 1.25 1.36 1.36 0 01-1.04-1.06 1.32 1.32 0 01.58-1.36c.23-.14.49-.22.75-.22a1.4 1.4 0 011.36 1.39z" fill="#139988"/><path d="M511.6 282.27c.76 0 1.37-.63 1.37-1.4 0-.78-.61-1.41-1.36-1.41-.75 0-1.36.63-1.36 1.4 0 .78.61 1.4 1.36 1.4z" fill="#B2B6BB"/><path opacity=".2" d="M505.13 308.26a1.35 1.35 0 01-1.65 1.25 1.36 1.36 0 01-1.04-1.07 1.32 1.32 0 01.59-1.35c.22-.15.48-.22.74-.22a1.4 1.4 0 011.35 1.39z" fill="#000"/><path d="M509.05 308.26a1.35 1.35 0 01-1.65 1.25 1.36 1.36 0 01-1.04-1.06 1.32 1.32 0 01.58-1.36c.23-.14.49-.22.75-.22a1.4 1.4 0 011.36 1.39z" fill="#139988"/><path d="M511.6 309.66c.76 0 1.37-.63 1.37-1.4 0-.78-.61-1.4-1.36-1.4-.75 0-1.36.62-1.36 1.4 0 .78.61 1.4 1.36 1.4z" fill="#B2B6BB"/><path opacity=".2" d="M505.13 362.19a1.35 1.35 0 01-.88 1.2 1.36 1.36 0 01-1.81-1.02 1.33 1.33 0 011.34-1.57 1.39 1.39 0 011.35 1.39z" fill="#000"/><path d="M509.05 362.19a1.34 1.34 0 01-.88 1.2 1.36 1.36 0 01-1.81-1.02 1.33 1.33 0 01.58-1.35c.23-.15.49-.22.75-.22a1.4 1.4 0 011.36 1.39z" fill="#139988"/><path d="M511.6 363.59c.76 0 1.37-.63 1.37-1.4 0-.78-.61-1.4-1.36-1.4-.75 0-1.36.62-1.36 1.4 0 .77.61 1.4 1.36 1.4z" fill="#B2B6BB"/><path d="M482.93 185.77h-32.48l-2.52-2.39h35v2.4zM482.93 189.38h-32.48l-2.52-2.39h35v2.4zM482.93 193h-32.48l-2.52-2.4h35v2.4zM482.93 196.6h-32.48l-2.52-2.39h35v2.39zM482.93 200.2h-32.48l-2.52-2.38h35v2.39zM482.93 203.82h-32.48l-2.52-2.4h35v2.4zM523.85 185.77h-32.49l-2.51-2.39h35v2.4zM523.85 189.38h-32.49l-2.51-2.39h35v2.4zM523.85 193h-32.49l-2.51-2.4h35v2.4zM523.85 196.6h-32.49l-2.51-2.39h35v2.39zM523.85 200.2h-32.49l-2.51-2.38h35v2.39zM523.85 203.82h-32.49l-2.51-2.4h35v2.4z" fill="#139988"/><g opacity=".3" fill="#000"><path opacity=".3" d="M482.93 185.77h-32.48l-2.52-2.39h35v2.4zM482.93 189.38h-32.48l-2.52-2.39h35v2.4zM482.93 193h-32.48l-2.52-2.4h35v2.4zM482.93 196.6h-32.48l-2.52-2.39h35v2.39zM482.93 200.2h-32.48l-2.52-2.38h35v2.39zM482.93 203.82h-32.48l-2.52-2.4h35v2.4z"/></g><g opacity=".3" fill="#000"><path opacity=".3" d="M523.85 185.77h-32.49l-2.51-2.39h35v2.4zM523.85 189.38h-32.49l-2.51-2.39h35v2.4zM523.85 193h-32.49l-2.51-2.4h35v2.4zM523.85 196.6h-32.49l-2.51-2.39h35v2.39zM523.85 200.2h-32.49l-2.51-2.38h35v2.39zM523.85 203.82h-32.49l-2.51-2.4h35v2.4z"/></g><path d="M557.17 217.06H534.8V202.4h22.36v14.67zm-22.12-.24h21.87v-14.18h-21.87v14.18zM557.17 237.4H534.8v-14.67h22.36v14.67zm-22.12-.24h21.87v-14.19h-21.87v14.19zM557.17 258.78H534.8v-14.65h22.36v14.65zm-22.12-.24h21.87v-14.19h-21.87v14.19zM557.17 279.12H534.8v-14.67h22.36v14.67zm-22.12-.25h21.87V264.7h-21.87v14.19zM557.17 392.18H534.8V286.92h22.36v105.26zm-22.12-.25h21.87V287.18h-21.87v104.76z" fill="#139988"/><path d="M460.52 417.44h104.21c.04 0 .08.01.1.04.03.03.05.06.05.1v30.3c0 .03-.02.08-.05.1a.15.15 0 01-.1.05h-104.2a.14.14 0 01-.15-.14v-30.3c0-.04.01-.08.04-.1a.15.15 0 01.1-.05z" fill="#61656D"/><path opacity=".2" d="M460.52 417.44h104.21c.04 0 .08.01.1.04.03.03.05.06.05.1v30.3c0 .03-.02.08-.05.1a.15.15 0 01-.1.05h-104.2a.14.14 0 01-.15-.14v-30.3c0-.04.01-.08.04-.1a.15.15 0 01.1-.05z" fill="#000"/><path d="M535.1 417.44h-97.38l-.05.01a.1.1 0 00-.05.03.1.1 0 00-.02.05l-.01.06v30.34l.03.05.05.03.06.02h97.38a.1.1 0 00.05-.02c.02 0 .03-.02.04-.03a.14.14 0 00.03-.04l.01-.06v-30.3-.05l-.04-.05a.1.1 0 00-.04-.03.13.13 0 00-.06-.01z" fill="#61656D"/><path d="M469.97 421.22h-29.09v4h29.09v-4z" fill="#DADDDF"/><path d="M176.4 391.49c-11.34-2.28-11.44-44.58-11.52-81.9-.06-23.81-.1-46.3-3.3-52.36-5.96-11.39-17.8-11.24-17.9-11.24v-.8c.12 0 12.45-.17 18.65 11.67 3.27 6.25 3.3 27.8 3.37 52.75.08 35.18.18 78.97 10.88 81.1l-.18.78z" fill="#61656D"/><path d="M177.28 385.64c-7.02 0-11.54-9.55-13.83-29.2-1.96-16.87-2.03-38.75-2.1-58.05-.07-21.08-.13-39.3-2.54-45.93-4.35-11.99-14.75-10.61-15.2-10.55l-.12-.78c.12 0 11.5-1.55 16.08 11.07 2.45 6.75 2.51 25.02 2.58 46.2.13 38.51.3 86.46 15.13 86.46v.78z" fill="#61656D"/><path d="M176.06 395.52c-13.12-2.51-12.94-50.67-12.8-89.36.09-21.22.16-39.56-2.02-44.95-4.79-11.88-17.74-10.77-17.87-10.76l-.07-.76c.14 0 13.67-1.18 18.7 11.25 2.23 5.56 2.17 23.94 2.09 45.24-.14 36.38-.33 86.2 12.14 88.59l-.17.75z" fill="#61656D"/><path d="M176.06 393.5c-13.12-2.51-12.94-50.67-12.8-89.36.09-21.23.16-39.56-2.02-44.95-4.79-11.88-17.74-10.77-17.88-10.76l-.08-.79c.14 0 13.67-1.17 18.7 11.25 2.24 5.56 2.17 23.94 2.1 45.25-.15 36.38-.33 86.2 12.13 88.58l-.15.78z" fill="#61656D"/><path d="M176.4 435.38c-11.34-2.27-11.44-38-11.52-69.51-.06-20.39-.1-39.62-3.3-45.69-5.97-11.4-17.8-11.23-17.9-11.23v-.8c.12 0 12.45-.17 18.65 11.67 3.27 6.24 3.3 24.69 3.37 46.05.09 31.2.18 66.58 10.88 68.73l-.18.78z" fill="#61656D"/><path d="M177.28 429.55c-15.64 0-15.8-39.1-15.93-73.6-.07-18.17-.13-33.87-2.54-40.5-4.35-11.99-14.75-10.6-15.2-10.55l-.12-.77c.12 0 11.5-1.56 16.08 11.06 2.45 6.75 2.51 22.51 2.58 40.78.13 32.44.3 72.8 15.13 72.8v.78z" fill="#61656D"/><path d="M177.28 432.08c-15.64 0-15.8-39.1-15.93-73.6-.07-18.18-.13-33.88-2.54-40.5-4.35-11.99-14.75-10.6-15.2-10.55l-.12-.78c.12 0 11.5-1.55 16.08 11.07 2.45 6.74 2.51 22.51 2.58 40.78.13 32.44.3 72.8 15.13 72.8v.78z" fill="#61656D"/><path d="M177.28 436.2c-15.64 0-15.8-39.1-15.93-73.59-.07-18.18-.13-33.88-2.54-40.5-4.35-12-14.75-10.62-15.2-10.55l-.12-.78c.12 0 11.5-1.56 16.08 11.06 2.45 6.75 2.51 22.51 2.58 40.78.13 32.44.3 72.8 15.13 72.8v.78z" fill="#61656D"/><path d="M176.06 439.43c-13.12-2.52-12.94-43.18-12.8-75.85.09-18.23.16-33.98-2.02-39.38-4.79-11.88-17.74-10.77-17.88-10.76l-.08-.79c.14 0 13.67-1.17 18.7 11.25 2.24 5.56 2.17 21.37 2.1 39.68-.16 32.38-.33 72.68 12.13 75.07l-.15.78z" fill="#61656D"/><path d="M146.89 177.65H115.2v240.18h31.68V177.65z" fill="#139988"/><path opacity=".15" d="M146.89 177.65H115.2v240.18h31.68V177.65z" fill="#000"/><path d="M115.43 177.66h-88.4v240.18h88.4V177.66z" fill="#139988"/><path opacity=".3" d="M115.43 177.66h-88.4v240.18h88.4V177.66z" fill="#fff"/><path d="M109.43 212.34h-76.4v190.31h76.4V212.34z" fill="#139988"/><path opacity=".2" d="M109.43 212.34h-76.4v190.31h76.4V212.34z" fill="#000"/><path d="M106.97 242.03H35.48v23.16h71.5v-23.16zM106.97 268.98H35.48v23.15h71.5v-23.15zM106.97 295.92H35.48v23.15h71.5v-23.15zM106.97 322.87H35.48v23.15h71.5v-23.15zM106.97 349.8H35.48v23.16h71.5v-23.15zM106.97 376.75H35.48v23.15h71.5v-23.15zM106.97 215.1H35.48v23.14h71.5V215.1z" fill="#139988"/><g opacity=".3" fill="#fff"><path opacity=".3" d="M106.97 242.03H35.48v23.16h71.5v-23.16zM106.97 268.98H35.48v23.15h71.5v-23.15zM106.97 295.92H35.48v23.15h71.5v-23.15zM106.97 322.87H35.48v23.15h71.5v-23.15zM106.97 349.8H35.48v23.16h71.5v-23.15zM106.97 376.75H35.48v23.15h71.5v-23.15zM106.97 215.1H35.48v23.14h71.5V215.1z"/></g><path d="M100.2 221.1H41.27v11.5h58.93v-11.5z" fill="#139988"/><path opacity=".2" d="M100.2 221.1H41.27v11.5h58.93v-11.5z" fill="#000"/><path d="M85.91 224.25H43.65v5.28h42.26v-5.28z" fill="#139988"/><path opacity=".2" d="M88.84 228.3c.75 0 1.35-.63 1.35-1.41 0-.77-.6-1.4-1.35-1.4-.75 0-1.36.63-1.36 1.4 0 .78.6 1.4 1.36 1.4z" fill="#000"/><path d="M92.75 228.3c.75 0 1.36-.63 1.36-1.41 0-.77-.6-1.4-1.36-1.4-.75 0-1.35.63-1.35 1.4 0 .78.6 1.4 1.35 1.4z" fill="#139988"/><path d="M96.67 228.3c.75 0 1.36-.63 1.36-1.41 0-.77-.6-1.4-1.36-1.4-.75 0-1.35.63-1.35 1.4 0 .78.6 1.4 1.35 1.4z" fill="#B2B6BB"/><path d="M100.2 248.35H41.27v11.5h58.93v-11.5z" fill="#139988"/><path opacity=".2" d="M100.2 248.35H41.27v11.5h58.93v-11.5z" fill="#000"/><path d="M85.91 251.5H43.65v5.28h42.26v-5.28zM100.2 275.6H41.27v11.5h58.93v-11.5z" fill="#139988"/><path opacity=".2" d="M100.2 275.6H41.27v11.5h58.93v-11.5z" fill="#000"/><path d="M85.91 278.74H43.65v5.28h42.26v-5.28zM100.2 302.84H41.27v11.5h58.93v-11.5z" fill="#139988"/><path opacity=".2" d="M100.2 302.84H41.27v11.5h58.93v-11.5z" fill="#000"/><path d="M85.91 305.98H43.65v5.28h42.26v-5.28zM100.2 329.37H41.27v11.5h58.93v-11.5z" fill="#139988"/><path opacity=".2" d="M100.2 329.37H41.27v11.5h58.93v-11.5z" fill="#000"/><path d="M85.91 332.51H43.65v5.28h42.26v-5.28z" fill="#139988"/><path opacity=".2" d="M88.84 336.67c.75 0 1.35-.63 1.35-1.4 0-.78-.6-1.41-1.35-1.41-.75 0-1.36.63-1.36 1.4 0 .78.6 1.4 1.36 1.4z" fill="#000"/><path d="M92.75 336.67c.75 0 1.36-.63 1.36-1.4 0-.78-.6-1.41-1.36-1.41-.75 0-1.35.63-1.35 1.4 0 .78.6 1.4 1.35 1.4z" fill="#139988"/><path d="M96.67 336.67c.75 0 1.36-.63 1.36-1.4 0-.78-.6-1.41-1.36-1.41-.75 0-1.35.63-1.35 1.4 0 .78.6 1.4 1.35 1.4z" fill="#B2B6BB"/><path d="M100.2 356.71H41.27v11.5h58.93v-11.5z" fill="#139988"/><path opacity=".2" d="M100.2 356.71H41.27v11.5h58.93v-11.5z" fill="#000"/><path d="M85.91 359.86H43.65v5.28h42.26v-5.28zM100.2 383.45H41.27v11.5h58.93v-11.5z" fill="#139988"/><path opacity=".2" d="M100.2 383.45H41.27v11.5h58.93v-11.5z" fill="#000"/><path d="M85.91 386.6H43.65v5.28h42.26v-5.28z" fill="#139988"/><path opacity=".3" d="M85.91 224.25H43.65v5.28h42.26v-5.28zM85.91 251.5H43.65v5.28h42.26v-5.28zM85.91 278.74H43.65v5.28h42.26v-5.28zM85.91 305.98H43.65v5.28h42.26v-5.28zM85.91 332.51H43.65v5.28h42.26v-5.28zM85.91 359.86H43.65v5.28h42.26v-5.28zM85.91 386.6H43.65v5.28h42.26v-5.28z" fill="#fff"/><path opacity=".2" d="M90.19 389.4a1.32 1.32 0 01-.88 1.19 1.37 1.37 0 01-1.46-.33 1.33 1.33 0 01-.27-1.45 1.36 1.36 0 011.25-.8 1.38 1.38 0 011.35 1.39z" fill="#000"/><path d="M94.1 389.4a1.32 1.32 0 01-.87 1.19 1.38 1.38 0 01-1.46-.32 1.32 1.32 0 01.23-2.04c.23-.15.49-.22.75-.22a1.38 1.38 0 011.36 1.39z" fill="#139988"/><path d="M96.67 390.8c.75 0 1.36-.63 1.36-1.4 0-.78-.6-1.4-1.36-1.4-.75 0-1.35.62-1.35 1.4 0 .77.6 1.4 1.35 1.4z" fill="#B2B6BB"/><path opacity=".2" d="M90.19 254.36a1.32 1.32 0 01-.88 1.19 1.38 1.38 0 01-1.46-.33 1.33 1.33 0 01.99-2.25c.36.01.7.16.96.43.25.25.39.6.39.96z" fill="#000"/><path d="M94.1 254.36a1.32 1.32 0 01-.87 1.19 1.38 1.38 0 01-1.46-.32 1.33 1.33 0 01.98-2.26 1.38 1.38 0 011.36 1.39z" fill="#139988"/><path d="M96.67 255.76c.75 0 1.36-.63 1.36-1.4 0-.78-.6-1.4-1.36-1.4-.75 0-1.35.62-1.35 1.4 0 .77.6 1.4 1.35 1.4z" fill="#B2B6BB"/><path opacity=".2" d="M90.19 281.3a1.34 1.34 0 01-.88 1.2 1.37 1.37 0 01-1.46-.32 1.33 1.33 0 01-.27-1.45c.1-.24.28-.45.5-.6.23-.14.49-.21.76-.21.36 0 .7.16.96.42s.4.6.39.97z" fill="#000"/><path d="M94.1 281.3c0 .27-.09.52-.25.73a1.36 1.36 0 01-1.4.53 1.37 1.37 0 01-1.03-1.07 1.31 1.31 0 01.58-1.35c.23-.14.49-.22.75-.22a1.38 1.38 0 011.36 1.39z" fill="#139988"/><path d="M96.67 282.71c.75 0 1.36-.63 1.36-1.4 0-.78-.6-1.4-1.36-1.4-.75 0-1.35.62-1.35 1.4 0 .77.6 1.4 1.35 1.4z" fill="#B2B6BB"/><path opacity=".2" d="M90.19 308.7a1.33 1.33 0 01-.88 1.2 1.38 1.38 0 01-1.46-.32 1.33 1.33 0 01-.27-1.45c.1-.24.28-.45.5-.6.23-.14.49-.21.76-.21.36.01.7.17.96.43.25.26.39.6.39.96z" fill="#000"/><path d="M94.1 308.7c0 .27-.09.52-.25.73a1.35 1.35 0 01-1.4.52 1.37 1.37 0 01-1.03-1.06 1.31 1.31 0 01.58-1.35c.23-.14.49-.22.75-.22.37.01.71.17.97.43.25.25.39.6.39.96z" fill="#139988"/><path d="M96.67 310.11c.75 0 1.36-.63 1.36-1.4 0-.78-.6-1.4-1.36-1.4-.75 0-1.35.62-1.35 1.4 0 .77.6 1.4 1.35 1.4z" fill="#B2B6BB"/><path opacity=".2" d="M90.19 362.63a1.35 1.35 0 01-1.66 1.25 1.36 1.36 0 01-1.03-1.06 1.32 1.32 0 01.59-1.36c.22-.14.48-.21.75-.21a1.38 1.38 0 011.35 1.39z" fill="#000"/><path d="M94.1 362.63c0 .27-.09.52-.25.73a1.36 1.36 0 01-1.4.52 1.37 1.37 0 01-1.03-1.06 1.31 1.31 0 01.58-1.35c.23-.15.49-.22.75-.23.37.02.71.17.97.43.25.26.39.6.39.96z" fill="#139988"/><path d="M96.67 364.04c.75 0 1.36-.63 1.36-1.4 0-.78-.6-1.4-1.36-1.4-.75 0-1.35.62-1.35 1.4 0 .77.6 1.4 1.35 1.4z" fill="#B2B6BB"/><path d="M68 186.22H35.5l-2.5-2.39h35v2.4zM68 189.83H35.5l-2.5-2.39h35v2.4zM68 193.44H35.5l-2.5-2.39h35v2.39zM68 197.05H35.5l-2.5-2.4h35v2.4zM68 200.66H35.5l-2.5-2.4h35v2.4zM68 204.27H35.5l-2.5-2.4h35v2.4zM108.91 186.22H76.42l-2.51-2.39h35v2.4zM108.91 189.83H76.42l-2.51-2.39h35v2.4zM108.91 193.44H76.42l-2.51-2.39h35v2.39zM108.91 197.05H76.42l-2.51-2.4h35v2.4zM108.91 200.66H76.42l-2.51-2.4h35v2.4zM108.91 204.27H76.42l-2.51-2.4h35v2.4z" fill="#139988"/><g opacity=".3" fill="#000"><path opacity=".3" d="M68 186.22H35.5l-2.5-2.39h35v2.4zM68 189.83H35.5l-2.5-2.39h35v2.4zM68 193.44H35.5l-2.5-2.39h35v2.39zM68 197.05H35.5l-2.5-2.4h35v2.4zM68 200.66H35.5l-2.5-2.4h35v2.4zM68 204.27H35.5l-2.5-2.4h35v2.4z"/></g><g opacity=".3" fill="#000"><path opacity=".3" d="M108.91 186.22H76.42l-2.51-2.39h35v2.4zM108.91 189.83H76.42l-2.51-2.39h35v2.4zM108.91 193.44H76.42l-2.51-2.39h35v2.39zM108.91 197.05H76.42l-2.51-2.4h35v2.4zM108.91 200.66H76.42l-2.51-2.4h35v2.4zM108.91 204.27H76.42l-2.51-2.4h35v2.4z"/></g><path d="M142.23 217.51h-22.36v-14.67h22.36v14.67zm-22.11-.24h21.86V203.1h-21.86v14.18zM142.23 237.85h-22.36v-14.67h22.36v14.67zm-22.11-.25h21.86v-14.18h-21.86v14.19zM142.23 259.23h-22.36v-14.67h22.36v14.67zm-22.11-.24h21.86V244.8h-21.86V259zM142.23 279.57h-22.36v-14.68h22.36v14.68zm-22.11-.23h21.86v-14.2h-21.86v14.2zM142.23 392.63h-22.36V287.37h22.36v105.26zm-22.11-.25h21.86V287.63h-21.86v104.76z" fill="#139988"/><path d="M45.59 417.87h104.2c.03 0 .07.01.1.04s.04.06.04.1v30.3c0 .04-.01.08-.04.1a.15.15 0 01-.1.05H45.58a.15.15 0 01-.1-.04.15.15 0 01-.05-.1v-30.3c0-.04.01-.08.04-.1a.15.15 0 01.1-.05z" fill="#61656D"/><path opacity=".2" d="M45.59 417.87h104.2c.03 0 .07.01.1.04s.04.06.04.1v30.3c0 .04-.01.08-.04.1a.15.15 0 01-.1.05H45.58a.15.15 0 01-.1-.04.15.15 0 01-.05-.1v-30.3c0-.04.01-.08.04-.1a.15.15 0 01.1-.05z" fill="#000"/><path d="M120.17 417.87H22.79l-.06.01-.04.03a.18.18 0 00-.03.05v30.35.06l.03.04a.1.1 0 00.04.03.1.1 0 00.06.02h97.38a.1.1 0 00.05-.02c.02 0 .04-.01.05-.03a.14.14 0 00.03-.05v-30.35a.13.13 0 00-.03-.1.1.1 0 00-.05-.03.12.12 0 00-.05-.01z" fill="#61656D"/><path d="M55.03 421.67H25.95v4h29.08v-4z" fill="#DADDDF"/><path d="M317.39 324.56h-65.03v3.24h65.03v-3.24z" fill="#61656D"/><path d="M583.31 449.69H.82a.71.71 0 01-.5-.2.69.69 0 010-.99c.14-.13.32-.2.5-.2h582.5c.18 0 .36.07.5.2a.69.69 0 010 .99.71.71 0 01-.5.2zM256.33 331.93h-21.36v116.34h21.36V331.93z" fill="#B2B6BB"/><path opacity=".2" d="M256.33 331.93h-21.36v116.34h21.36V331.93z" fill="#000"/><path d="M238.62 331.93h-64.8v116.34h64.8V331.93z" fill="#B2B6BB"/><path opacity=".2" d="M233.69 359.4h-55.3V339.2h55.3v20.21zm-54.55-.72h53.81v-18.76h-53.81v18.76z" fill="#000"/><path opacity=".2" d="M214.52 348.37h-16.96v1.85h16.96v-1.85zM233.69 384.42h-55.3v-20.2h55.3v20.2zm-54.55-.72h53.81v-18.76h-53.81v18.76z" fill="#000"/><path opacity=".2" d="M214.52 373.39h-16.96v1.85h16.96v-1.85zM233.69 409.45h-55.3v-20.22h55.3v20.22zm-54.55-.72h53.81v-18.77h-53.81v18.77z" fill="#000"/><path opacity=".2" d="M214.52 398.41h-16.96v1.86h16.96v-1.86zM233.69 434.47h-55.3v-20.21h55.3v20.21zm-54.55-.72h53.81v-18.76h-53.81v18.76z" fill="#000"/><path opacity=".2" d="M214.52 423.44h-16.96v1.85h16.96v-1.85z" fill="#000"/><path d="M413.55 329.65h-21.37v118.62h21.37V329.65z" fill="#B2B6BB"/><path opacity=".2" d="M413.55 329.65h-21.37v118.62h21.37V329.65z" fill="#000"/><path d="M395.84 331.93h-64.81v116.34h64.8V331.93z" fill="#B2B6BB"/><path d="M417.76 327.61H169.48v4.72h248.28v-4.72z" fill="#B2B6BB"/><path opacity=".2" d="M238.7 332.44h-65.03v1.85h65.02v-1.85zM395.85 332.44h-64.8v1.85h64.8v-1.85zM391.08 359.4h-55.3V339.2h55.3v20.21zm-54.56-.72h53.82v-18.76h-53.82v18.76z" fill="#000"/><path opacity=".2" d="M371.91 348.37h-16.96v1.85h16.96v-1.85zM391.08 384.42h-55.3v-20.2h55.3v20.2zm-54.56-.72h53.82v-18.76h-53.82v18.76z" fill="#000"/><path opacity=".2" d="M371.91 373.39h-16.96v1.85h16.96v-1.85zM391.08 409.45h-55.3v-20.22h55.3v20.22zm-54.56-.72h53.82v-18.77h-53.82v18.77z" fill="#000"/><path opacity=".2" d="M371.91 398.41h-16.96v1.86h16.96v-1.86zM391.08 434.47h-55.3v-20.21h55.3v20.21zm-54.56-.72h53.82v-18.76h-53.82v18.76z" fill="#000"/><path opacity=".2" d="M371.91 423.44h-16.96v1.85h16.96v-1.85z" fill="#000"/><path d="M251.75 327.17H235.6l-13.78-54.35h16.15l13.78 54.35z" fill="#61656D"/><path opacity=".2" d="M251.75 327.17H235.6l-13.78-54.35h16.15l13.78 54.35z" fill="#000"/><path d="M250.63 327.17H234.5l-13.79-54.35h16.15l13.78 54.35z" fill="#61656D"/><path opacity=".2" d="M247.74 311.35h-17.3l-.72-2.86h17.3l.72 2.86z" fill="#000"/><path d="M280.33 253.03H188.3v55.45h92.02v-55.45z" fill="#61656D"/><path d="M277.1 255.59h-85.58v50.33h85.58v-50.34z" fill="#3F4249"/><path d="M224.51 259.08h-27.83v2.15h27.83v-2.15zM217.95 262.75h-21.27v2.14h21.27v-2.14zM222.13 266.4h-25.45v2.15h25.44v-2.15zM217.26 270.07h-20.58v2.15h20.58v-2.15zM226.59 273.73h-23.26v2.15h23.26v-2.15zM224.51 278.14h-21.18v2.14h21.18v-2.14zM217.95 281.8h-21.27v2.15h21.27v-2.15zM222.13 285.47h-25.45v2.14h25.44v-2.14zM217.26 289.13h-20.58v2.14h20.58v-2.14zM226.59 292.8h-29.9v2.14h29.9v-2.15zM231.25 296.99H205.8v2.14h25.44V297zM226.59 301.18h-29.9v2.15h29.9v-2.15z" fill="#139988"/><g opacity=".2" fill="#000"><path opacity=".2" d="M224.51 259.08h-27.83v2.15h27.83v-2.15zM217.95 262.74h-21.27v2.15h21.27v-2.15zM222.13 266.4h-25.45v2.15h25.44v-2.15zM217.26 270.07h-20.58v2.15h20.58v-2.15zM226.59 273.73h-23.26v2.15h23.26v-2.15zM224.51 278.14h-21.18v2.14h21.18v-2.14zM217.95 281.8h-21.27v2.14h21.27v-2.14zM222.13 285.46h-25.45v2.15h25.44v-2.15zM217.26 289.13h-20.58v2.14h20.58v-2.14zM226.59 292.8h-29.9v2.14h29.9v-2.15zM231.25 296.99H205.8v2.14h25.44V297zM226.59 301.18h-29.9v2.15h29.9v-2.15z"/></g><path d="M266.32 259.08H238.5v2.15h27.83v-2.15zM259.76 262.75H238.5v2.14h21.27v-2.14zM263.93 266.4H238.5v2.15h25.44v-2.15zM259.07 270.07h-20.58v2.15h20.58v-2.15zM268.39 273.73h-23.26v2.15h23.26v-2.15zM266.32 278.14h-21.19v2.14h21.19v-2.14zM259.76 281.8H238.5v2.15h21.27v-2.15zM263.93 285.47H238.5v2.14h25.44v-2.14zM259.07 289.13h-20.58v2.14h20.58v-2.14zM268.4 292.8h-29.9v2.14h29.9v-2.15zM273.06 296.99h-25.44v2.14h25.44V297zM268.4 301.18h-29.9v2.15h29.9v-2.15z" fill="#139988"/><g opacity=".2" fill="#fff"><path opacity=".2" d="M266.32 259.08H238.5v2.15h27.83v-2.15zM259.76 262.74H238.5v2.15h21.27v-2.15zM263.93 266.4H238.5v2.15h25.44v-2.15zM259.07 270.07h-20.58v2.15h20.58v-2.15zM268.39 273.73h-23.26v2.15h23.26v-2.15zM266.32 278.14h-21.19v2.14h21.19v-2.14zM259.76 281.8H238.5v2.14h21.27v-2.14zM263.93 285.46H238.5v2.15h25.44v-2.15zM259.07 289.13h-20.58v2.14h20.58v-2.14zM268.4 292.8h-29.9v2.14h29.9v-2.15zM273.05 296.99h-25.44v2.14h25.44V297zM268.4 301.18h-29.9v2.15h29.9v-2.15z"/></g><path d="M281.58 253.01h-1.26v55.47h1.26V253z" fill="#61656D"/><path opacity=".2" d="M281.58 253.01h-1.26v55.47h1.26V253z" fill="#000"/><path d="M265.55 325.83h-44.98v2.09h44.98v-2.09zM363.43 327.17h-16.15l-13.78-54.35h16.15l13.78 54.35z" fill="#61656D"/><path opacity=".2" d="M363.43 327.17h-16.15l-13.78-54.35h16.15l13.78 54.35z" fill="#000"/><path d="M362.31 327.17h-16.14l-13.79-54.35h16.15l13.79 54.35z" fill="#61656D"/><path opacity=".2" d="M359.42 311.35h-17.3l-.72-2.86h17.29l.73 2.86z" fill="#000"/><path d="M392 253.03H300v55.45H392v-55.45z" fill="#61656D"/><path d="M388.78 255.59h-85.57v50.33h85.57v-50.34z" fill="#3F4249"/><path d="M336.2 259.08h-27.84v2.15h27.83v-2.15zM329.63 262.75h-21.27v2.14h21.27v-2.14zM333.8 266.4h-25.44v2.15h25.44v-2.15zM328.94 270.07h-20.58v2.15h20.58v-2.15zM338.27 273.73H315v2.15h23.26v-2.15zM336.2 278.14H315v2.14h21.19v-2.14zM329.63 281.8h-21.27v2.15h21.27v-2.15zM333.8 285.47h-25.44v2.14h25.44v-2.14zM328.94 289.13h-20.58v2.14h20.58v-2.14zM338.27 292.8h-29.9v2.14h29.9v-2.15zM342.93 296.99h-25.44v2.14h25.44V297zM338.27 301.18h-29.9v2.15h29.9v-2.15z" fill="#139988"/><g opacity=".2" fill="#000"><path opacity=".2" d="M336.2 259.08h-27.84v2.15h27.83v-2.15zM329.63 262.74h-21.27v2.15h21.27v-2.15zM333.8 266.4h-25.44v2.15h25.44v-2.15zM328.94 270.07h-20.58v2.15h20.58v-2.15zM338.27 273.73H315v2.15h23.26v-2.15zM336.2 278.14H315v2.14h21.19v-2.14zM329.63 281.8h-21.27v2.14h21.27v-2.14zM333.8 285.46h-25.44v2.15h25.44v-2.15zM328.94 289.13h-20.58v2.14h20.58v-2.14zM338.27 292.8h-29.9v2.14h29.9v-2.15zM342.93 296.99h-25.44v2.14h25.44V297zM338.27 301.18h-29.9v2.15h29.9v-2.15z"/></g><path d="M378 259.08h-27.83v2.15H378v-2.15zM371.44 262.75h-21.27v2.14h21.27v-2.14zM375.61 266.4h-25.44v2.15h25.44v-2.15zM370.75 270.07h-20.58v2.15h20.58v-2.15zM380.07 273.73h-23.26v2.15h23.26v-2.15zM378 278.14H356.8v2.14H378v-2.14zM371.44 281.8h-21.27v2.15h21.27v-2.15zM375.61 285.47h-25.44v2.14h25.44v-2.14zM370.75 289.13h-20.58v2.14h20.58v-2.14zM380.07 292.8h-29.9v2.14h29.9v-2.15zM384.73 296.99H359.3v2.14h25.44V297zM380.07 301.18h-29.9v2.15h29.9v-2.15z" fill="#139988"/><g opacity=".2" fill="#fff"><path opacity=".2" d="M378 259.08h-27.83v2.15H378v-2.15zM371.44 262.74h-21.27v2.15h21.27v-2.15zM375.61 266.4h-25.44v2.15h25.44v-2.15zM370.75 270.07h-20.58v2.15h20.58v-2.15zM380.07 273.73H356.8v2.15h23.26v-2.15zM378 278.14h-21.2v2.14H378v-2.14zM371.44 281.8h-21.27v2.14h21.27v-2.14zM375.61 285.46h-25.44v2.15h25.44v-2.15zM370.75 289.13h-20.58v2.14h20.58v-2.14zM380.07 292.8h-29.9v2.14h29.9v-2.15zM384.73 296.99H359.3v2.14h25.44V297zM380.07 301.18h-29.9v2.15h29.9v-2.15z"/></g><path d="M393.26 253.01H392v55.47h1.26V253z" fill="#61656D"/><path opacity=".2" d="M393.26 253.01H392v55.47h1.26V253z" fill="#000"/><path d="M377.23 325.83h-44.98v2.09h44.98v-2.09z" fill="#61656D"/><path d="M242.02 265.66a7.42 7.42 0 012.64 3.56l2.65 7.64a1.3 1.3 0 00.94.83l1.1.21c.36.07.7.25.95.51.26.27.42.6.46.97v.03a1.72 1.72 0 01-1.09 1.8l-1.12.47-.21 5.01a4.8 4.8 0 01-1.48 3.27c-.9.86-2.1 1.35-3.36 1.37l-2.6.03-1.27 10.5-17.9-6.96 2.95-11.43c.25-.6.3-1.27.11-1.9l-1.41-4.94a8.92 8.92 0 01.08-5.14c1.03-3.24 5.06-6.53 8.4-7.35l.98-.24c2.75-.68 6.87.12 9.15 1.78l.03-.02zM267.7 430.26l22.15 11.82-5.7-10.8a6.52 6.52 0 01-.14-5.77l5.18-10.76-13.15-3.77-8.34 19.28z" fill="#FC9D9D"/><path opacity=".15" d="M276.25 418.83l.08-.14c.15-.38.45-.7.84-.86.38-.18.82-.2 1.21-.06l6.97 5.04 1.88-3.98-11.86-5.81-5.6 12.12L280.1 429l-2.56-2.88a7.04 7.04 0 01-1.29-7.3z" fill="#000"/><path d="M250.47 350.96l55.43 2.72a9.66 9.66 0 018.15 4.52 9.28 9.28 0 01.3 9.19l-27.14 52.63-12.86-6.92 11.88-36.78h-38.07l2.31-25.36z" fill="#3F4249"/><path opacity=".3" d="M248.59 350.96l52.68 2.72a4.16 4.16 0 013.4 1.81 3.99 3.99 0 01.37 3.8l-.84 1.95.32.46c1.56 2.23 2.25 5.7 2.76 8.57l1.37 7.5a.3.3 0 01-.25.34h-.05a.3.3 0 01-.3-.24l-1.36-7.5c-.5-2.84-1.2-6.3-2.77-8.48l-24.25 54.41-5.32-3.2 11.88-36.79h-38.07l.43-25.35z" fill="#000"/><path d="M304.8 440.17l25.64.62-10.23-7.2a9.42 9.42 0 01-3.55-5.02l-1.56-7.65-15.93.04 5.62 19.2z" fill="#FC9D9D"/><path opacity=".15" d="M307.64 430.95v-.15c-.04-.43.08-.84.34-1.18.26-.33.65-.55 1.07-.61l7.47-1.16-.34-1.6h-15.47l4 13.38 11.18-1.21-3.68-1.44a7.14 7.14 0 01-4.58-6.02z" fill="#000"/><path d="M303.01 435.7v9.83a2.81 2.81 0 00.86 2.04 2.95 2.95 0 002.07.84h34a1.23 1.23 0 001.22-1.2 5.56 5.56 0 00-3.77-5.18l-7.67-2.49-9.73-7.41a2.72 2.72 0 00-3.4.08l-4.3 3.61c-.32.26-.7.44-1.1.52-.4.08-.8.06-1.2-.06l-5.46-1.67a1.17 1.17 0 00-1.03.17 1.14 1.14 0 00-.49.92z" fill="#3F4249"/><path d="M305.94 448.41h33.99c.32 0 .64-.13.87-.35.22-.23.35-.53.35-.85.02-.41-.04-.82-.15-1.2h-37.96a2.91 2.91 0 002.9 2.4z" fill="#3F4249"/><path d="M305.94 448.41h33.99c.32 0 .64-.13.87-.35.22-.23.35-.53.35-.85.02-.41-.04-.82-.15-1.2h-37.96a2.91 2.91 0 002.9 2.4z" fill="#000"/><path d="M319.77 436.04a.32.32 0 01-.2-.07.3.3 0 010-.43l2.06-2.18a.31.31 0 01.22-.08c.08 0 .15.03.21.08a.3.3 0 01.1.22.3.3 0 01-.1.21l-2.05 2.18a.53.53 0 01-.24.07zM321.4 437.29a.34.34 0 01-.2-.08.3.3 0 010-.43l2.05-2.17a.31.31 0 01.44 0 .3.3 0 010 .42l-2.06 2.18a.48.48 0 01-.24.08zM323.01 438.54a.36.36 0 01-.2-.08.3.3 0 010-.43l2.06-2.17a.3.3 0 01.1-.08.36.36 0 01.12-.03l.13.01.1.07.07.1a.3.3 0 010 .25.32.32 0 01-.09.1l-2.05 2.18a.35.35 0 01-.11.06.4.4 0 01-.13.02z" fill="#fff"/><path d="M271.09 419.42l-4.76 8.68a2.83 2.83 0 001.19 3.9l29.91 15.89a1.25 1.25 0 001.66-.5 5.42 5.42 0 00-.84-6.32l-5.54-5.77-4.97-11.08a2.72 2.72 0 00-3.03-1.52l-5.54 1.16a2.42 2.42 0 01-2.24-.66l-4-4.02a1.17 1.17 0 00-.44-.27 1.15 1.15 0 00-1.04.13c-.14.1-.27.22-.36.38z" fill="#3F4249"/><path d="M267.52 431.97l29.91 15.9a1.25 1.25 0 001.66-.5c.2-.35.35-.73.44-1.13l-33.39-17.74a2.84 2.84 0 001.38 3.47z" fill="#3F4249"/><path d="M267.52 431.97l29.91 15.9a1.25 1.25 0 001.66-.5c.2-.35.35-.73.44-1.13l-33.39-17.74a2.84 2.84 0 001.38 3.47z" fill="#000"/><path d="M285.67 427.56a.31.31 0 01-.14-.17.3.3 0 01.2-.37l2.87-.95a.32.32 0 01.23.02l.1.08.05.1c.01.04.02.08.01.12l-.03.12a.3.3 0 01-.08.08.24.24 0 01-.1.06l-2.87.95a.63.63 0 01-.24-.04zM286.5 429.41a.31.31 0 01-.14-.16.3.3 0 01.02-.23.3.3 0 01.19-.15l2.86-.92a.38.38 0 01.12-.03c.04 0 .08.02.12.04a.3.3 0 01.13.42.36.36 0 01-.08.1.36.36 0 01-.12.04l-2.86.96a.5.5 0 01-.25-.07zM287.32 431.26a.3.3 0 01-.12-.12.28.28 0 01.04-.32.27.27 0 01.15-.1l2.86-.92a.3.3 0 01.38.2.3.3 0 01-.02.23.3.3 0 01-.19.14l-2.86.96a.3.3 0 01-.13 0 .28.28 0 01-.11-.06z" fill="#fff"/><path d="M205.7 363l3.74 5.88c2.27 2.36 5 4.24 8.02 5.54 3.03 1.3 6.28 2 9.59 2.03l58.03.62 14.87 49.42h16.7l-10.78-60.03a11.55 11.55 0 00-3.54-6.39 11.9 11.9 0 00-6.72-3.06l-44.44-5.05L205.71 363z" fill="#3F4249"/><path d="M267.18 320.17l4.54 3.24a.93.93 0 01.4.87.93.93 0 01-.59.75l-1.36.57c-.53.22-1.11.22-1.64 0l-7.2-2.93 6.47-2.55" fill="#FC9D9D"/><path opacity=".15" d="M267.18 320.17l4.54 3.24a.93.93 0 01.4.87.92.92 0 01-.59.75l-1.36.58c-.53.2-1.11.2-1.64 0l-7.2-2.93" fill="#000"/><path d="M257.42 320.42l6.84-2.01c.93-.28 1.93-.2 2.8.22l6.03 2.83a.8.8 0 01.4.42.8.8 0 01-.4 1c-.18.1-.39.12-.58.06l-5.6-1.61-4.86 1.74a.55.55 0 00-.35.39.52.52 0 00.1.42.56.56 0 00.38.21l2.94.33c.46.05.89.28 1.19.63.3.34.45.8.43 1.25a.46.46 0 01-.4.43l-15.38 1.98-1.42-5.56 7.88-2.73z" fill="#FC9D9D"/><path d="M214.12 296.95l-17.44 27.97a5.95 5.95 0 002.12 8.38 6.2 6.2 0 003.12.82h18.1l-5.9-37.17z" fill="#139988"/><path d="M247.38 274.63l-13.71 3.44.17.68 13.71-3.44-.17-.68z" fill="#000"/><path d="M269.59 331.29l2.96-.7c1.64-.39 3.18-1.15 4.48-2.21l1.6-1.3a1.8 1.8 0 011.41-.37l5.21.83a.78.78 0 00.72-.27.74.74 0 000-.98.76.76 0 00-.3-.2l-4.15-1.75 6.12 2.54a.9.9 0 001.11-.43.86.86 0 00-.3-1.12l-4.6-2.73 6.05 3.58a.98.98 0 001.3-.36.92.92 0 00-.27-1.2l-4.71-3.4 6.62 2.74a1 1 0 001.27-.46.94.94 0 00-.4-1.26l-7.23-3.84a3.35 3.35 0 00-2.46-.41l-9.45 3.1-4.66.47s-4.56 10.72-.32 9.73z" fill="#FC9D9D"/><path opacity=".15" d="M285.83 326.15c.05-.08 0-.16-.09-.22l-3.81-1.58a.19.19 0 00-.06-.02l-.07.01a.16.16 0 00-.1.08c-.04.09.01.18.1.22l3.81 1.59a.1.1 0 00.05.01.1.1 0 00.05-.01.26.26 0 00.12-.08zM288.58 325.42a.14.14 0 00.02-.05v-.07a.15.15 0 00-.08-.1l-4.33-2.56a.17.17 0 00-.2.07.16.16 0 00.03.2l4.33 2.56c0 .04.08 0 .1 0 .03 0 .1 0 .13-.05zM279.37 326.33l-.8.74a1.79 1.79 0 011.42-.36l5.23.83a.79.79 0 00.71-.27.8.8 0 00.1-.85s-.1.72-1.11.43c-.72-.2-2.76-.68-3.97-.96a1.82 1.82 0 00-1.58.44z" fill="#000"/><path opacity=".15" d="M278.9 326.87l-1.93 1.51a11 11 0 01-4.48 2.21l-.44.1.97-9.46.7 6a1.28 1.28 0 00.56.87 1.33 1.33 0 001.03.21 16.7 16.7 0 003.58-1.44z" fill="#000"/><path d="M248.35 278.57a.36.36 0 01-.18-.07.34.34 0 01-.1-.17l-2.02-6.1a.33.33 0 01.02-.27.35.35 0 01.2-.17l.15-.03a.35.35 0 01.33.25l2 6.11c.04.09.03.18-.01.26a.36.36 0 01-.39.2z" fill="#000"/><path d="M205.77 362.9l49.41-11.94-4.24-13.44 2.8-26.64-.65-1.98a14.33 14.33 0 00-6.37-7.78l-3.47-2.02-1-3.76-20.04-5.1-2.83 3.24c-3.26.96-13.43 3.25-15.46 5.74a15.98 15.98 0 00-3.6 8.92l1.6 34.94c.36 5.32 1 8.74 1.46 12.54a19.98 19.98 0 002.4 7.28z" fill="#139988"/><path opacity=".2" d="M235.87 331.03l3.3 24.56 16.02-4.63-3.3-10.2-16.02-9.73z" fill="#000"/><path opacity=".15" d="M240.9 291.34l-1.91-.04a.52.52 0 00-.54.33.51.51 0 000 .33c.03.11.1.2.2.27l1.93 1.29.33-2.18z" fill="#000"/><path d="M233.94 325.85l5.8 17.9a8.52 8.52 0 006.72 4.16 8.72 8.72 0 007.33-3.03l24.97-16.63-4.71-7.87-21.68 8.34 1.4-17.83-19.83 14.96z" fill="#139988"/><path opacity=".2" d="M252.4 328.65l.05 2.7a.8.8 0 00.53.72.85.85 0 00.88-.19l5.83-6.2-7.3 2.97z" fill="#000"/><path opacity=".15" d="M215.7 294.6v10.91c-.01 8.16.72 16.3 2.19 24.33l-5.9 19.32-2.02-45.55 5.73-9zM233.08 276.84s-1.38-1.5-3.38.16c-2.28 1.9.04 7.23 4.35 6.81 2.36-.46 2.23-1.13 1.35-2.83l-2.32-4.14z" fill="#000"/><path d="M233.51 277.3a2.17 2.17 0 00-1.6-.94 2.24 2.24 0 00-1.74.6c-2.25 1.81-.11 7.42 4.33 6.55 2.36-.46 1.5-1.61.63-3.24l-1.62-2.98z" fill="#FC9D9D"/><path opacity=".15" d="M230.48 278.49a1.67 1.67 0 011.16-.67 1.68 1.68 0 011.22.52c.41.4.71.9.87 1.45l.18.49c.02.04.03.07.03.11l-.03.12a.28.28 0 01-.4.12.27.27 0 01-.13-.19l-.18-.5a3.2 3.2 0 00-.73-1.2 1.15 1.15 0 00-.8-.37 1.16 1.16 0 00-.77.46.28.28 0 01-.48-.03.26.26 0 01-.04-.12c0-.04.01-.07.03-.1a.27.27 0 01.07-.1z" fill="#000"/><path opacity=".2" d="M220.32 293.96l21.2 5.1" stroke="#000" stroke-miterlimit="10" stroke-linecap="round"/><path opacity=".15" d="M246.5 283.88c.63.2 1.3.25 1.96.15v-.7a3.93 3.93 0 01-2.56-.48.37.37 0 00-.29.05.35.35 0 00.05.61c.26.16.54.28.84.37z" fill="#000"/><path opacity=".3" d="M288.64 376.9l3.2-1.25a.38.38 0 00.23-.4.37.37 0 00-.12-.22.39.39 0 00-.22-.1L250 371.8c-20.73-.93-31.27-9.19-31.27-9.19l-10.6 4.91 1.3 1.35a25.08 25.08 0 0017.61 7.57l58.04.63 14.85 49.35 5.16-.18-16.45-49.34z" fill="#000"/><path opacity=".2" d="M239.74 343.76a8.52 8.52 0 006.72 4.15 8.74 8.74 0 007.33-3.03l24.97-16.62-1.25-2.09-27.02 16.45c-7.54 4.17-10.37-5.56-10.37-5.56l-2.5.12 2.12 6.58z" fill="#000"/><path opacity=".15" d="M246.23 280.98a6.52 6.52 0 00-2.82 4.17" stroke="#000" stroke-miterlimit="10" stroke-linecap="round"/><path opacity=".1" d="M243.64 271.48l1.85-.33" stroke="#000" stroke-miterlimit="10" stroke-linecap="round"/><path d="M185.68 126.69c0-6.08 2.29-11.94 6.4-16.47 4.13-4.52 9.8-7.4 15.94-8.07V102h2.75a25.3 25.3 0 0117.53 7.35 24.47 24.47 0 017.23 17.33c0 6.49-2.6 12.72-7.23 17.33a25.3 25.3 0 01-17.53 7.35h-2.75v-.14a25.28 25.28 0 01-15.93-8.08 24.48 24.48 0 01-6.4-16.45z" fill="#B2B6BB"/><path d="M208.02 151.36a25.4 25.4 0 0013.94-4.16 24.77 24.77 0 009.24-11.07 24.3 24.3 0 001.43-14.26 24.56 24.56 0 00-6.87-12.63 25.22 25.22 0 00-12.85-6.76 25.48 25.48 0 00-14.5 1.4 25 25 0 00-11.25 9.1 24.38 24.38 0 003.12 31.15 25.31 25.31 0 0017.74 7.23z" fill="#868A91"/><path d="M208.02 148.66c4.42 0 8.74-1.28 12.41-3.7a22.06 22.06 0 008.23-9.86 21.63 21.63 0 001.27-12.69 21.85 21.85 0 00-6.11-11.25 22.7 22.7 0 00-24.35-4.76 22.26 22.26 0 00-10.03 8.1 21.72 21.72 0 002.78 27.73 22.53 22.53 0 0015.8 6.44z" fill="#fff"/><path d="M208.02 148.66c4.42 0 8.74-1.28 12.41-3.7a22.06 22.06 0 008.23-9.86 21.63 21.63 0 001.27-12.69 21.85 21.85 0 00-6.11-11.25 22.7 22.7 0 00-24.35-4.76 22.26 22.26 0 00-10.03 8.1 21.72 21.72 0 002.78 27.73 22.53 22.53 0 0015.8 6.44z" fill="#868A91"/><path d="M208.02 148.66c4.42 0 8.74-1.28 12.41-3.7a22.06 22.06 0 008.23-9.86 21.63 21.63 0 001.27-12.69 21.85 21.85 0 00-6.11-11.25 22.7 22.7 0 00-24.35-4.76 22.26 22.26 0 00-10.03 8.1 21.72 21.72 0 002.78 27.73 22.53 22.53 0 0015.8 6.44z" fill="#F4F4F4"/><path d="M208.02 104.72c.4-.01.8 0 1.2.05-5.7.3-11.06 2.74-15 6.82a21.76 21.76 0 00-6.1 15.1c0 5.61 2.18 11.01 6.1 15.09a22.5 22.5 0 0015 6.82c-.38 0-.77.05-1.2.05a22.53 22.53 0 01-15.6-6.55 21.78 21.78 0 01-6.42-15.42c0-5.77 2.3-11.3 6.43-15.42a22.53 22.53 0 0115.59-6.54z" fill="#B2B6BB"/><path d="M207.82 128.4l7.4-14.49a1.12 1.12 0 00-.13-1.3 1.16 1.16 0 00-1.28-.33 1.15 1.15 0 00-.67.63l-6.38 12.45-8.51-4.1c-.28-.13-.6-.15-.88-.05-.3.1-.53.3-.67.58a1.15 1.15 0 00.53 1.52l10.6 5.09z" fill="#139988"/><path opacity=".4" d="M188.87 138a21.69 21.69 0 01-.3-22.13 22.15 22.15 0 018.2-8.16c3.4-1.96 7.3-2.99 11.25-2.99.62 0 1.2.05 1.83.1L188.87 138zM213.2 105.34c1.07.23 2.12.57 3.13 1l-23.09 36.84a21.15 21.15 0 01-2.5-2.56l22.45-35.28z" fill="#fff"/><path d="M270.03 126.69c0-6.08 2.29-11.94 6.4-16.47 4.13-4.52 9.8-7.4 15.94-8.07V102h2.75a25.3 25.3 0 0117.53 7.35 24.47 24.47 0 017.23 17.33c0 6.49-2.6 12.72-7.23 17.33a25.3 25.3 0 01-17.53 7.35h-2.75v-.14a25.27 25.27 0 01-15.93-8.08 24.48 24.48 0 01-6.4-16.45z" fill="#B2B6BB"/><path d="M292.37 151.36c4.96 0 9.81-1.45 13.94-4.16a24.76 24.76 0 009.24-11.07 24.3 24.3 0 001.43-14.26 24.55 24.55 0 00-6.87-12.63 25.22 25.22 0 00-12.85-6.76 25.49 25.49 0 00-14.5 1.4 25 25 0 00-11.26 9.1 24.39 24.39 0 003.12 31.15 25.31 25.31 0 0017.75 7.23z" fill="#868A91"/><path d="M292.37 148.66c4.42 0 8.74-1.28 12.41-3.7a22.05 22.05 0 008.23-9.86 21.64 21.64 0 00-4.84-23.94 22.69 22.69 0 00-24.35-4.76 22.27 22.27 0 00-10.03 8.1 21.72 21.72 0 002.78 27.73 22.53 22.53 0 0015.8 6.44z" fill="#fff"/><path d="M292.37 148.66c4.42 0 8.74-1.28 12.41-3.7a22.05 22.05 0 008.23-9.86 21.64 21.64 0 00-4.84-23.94 22.69 22.69 0 00-24.35-4.76 22.27 22.27 0 00-10.03 8.1 21.72 21.72 0 002.78 27.73 22.53 22.53 0 0015.8 6.44z" fill="#868A91"/><path d="M292.37 148.66a22.6 22.6 0 0012.4-3.7 22.04 22.04 0 008.23-9.86 21.62 21.62 0 001.27-12.69 21.85 21.85 0 00-6.1-11.24 22.46 22.46 0 00-11.44-6.02 22.7 22.7 0 00-12.91 1.25 22.26 22.26 0 00-10.02 8.1 21.7 21.7 0 002.77 27.73 22.53 22.53 0 0015.8 6.43z" fill="#F4F4F4"/><path d="M292.37 104.72c.4-.01.8 0 1.2.05-5.7.3-11.06 2.74-15 6.82a21.76 21.76 0 00-6.1 15.1c0 5.61 2.18 11.01 6.1 15.09a22.49 22.49 0 0015 6.82c-.38 0-.77.05-1.2.05a22.52 22.52 0 01-15.6-6.55 21.78 21.78 0 01-6.42-15.42c0-5.77 2.3-11.3 6.43-15.42a22.53 22.53 0 0115.59-6.54z" fill="#B2B6BB"/><path d="M291.37 128.2l-8.49-7.37c-.21-.2-.34-.49-.36-.78 0-.3.1-.6.3-.82a1.19 1.19 0 011.62-.14l7.54 6.53 13.99-3.98a1.19 1.19 0 011.46.78 1.15 1.15 0 01-.8 1.44l-15.26 4.35z" fill="#139988"/><path opacity=".4" d="M273.22 138a21.7 21.7 0 01-.3-22.13 22.15 22.15 0 018.2-8.16c3.4-1.96 7.3-2.99 11.25-2.99.62 0 1.2.05 1.83.1L273.22 138zM297.54 105.34c1.07.23 2.13.57 3.14 1l-23.09 36.84a21.15 21.15 0 01-2.51-2.56l22.46-35.28z" fill="#fff"/><path d="M354.38 126.69c0-6.08 2.29-11.94 6.4-16.47 4.13-4.52 9.8-7.4 15.94-8.07V102h2.75a25.3 25.3 0 0117.53 7.35 24.47 24.47 0 017.22 17.33c0 6.49-2.6 12.72-7.22 17.33a25.3 25.3 0 01-17.53 7.35h-2.76v-.14a25.27 25.27 0 01-15.92-8.08 24.48 24.48 0 01-6.41-16.45z" fill="#B2B6BB"/><path d="M376.71 151.36c4.97 0 9.82-1.45 13.94-4.16a24.77 24.77 0 009.25-11.07 24.31 24.31 0 00-5.44-26.9 25.22 25.22 0 00-12.85-6.75 25.48 25.48 0 00-14.5 1.4 25 25 0 00-11.26 9.1 24.39 24.39 0 003.12 31.15 25.31 25.31 0 0017.74 7.23z" fill="#868A91"/><path d="M376.71 148.66c4.42 0 8.74-1.28 12.42-3.7a22.05 22.05 0 008.23-9.86 21.62 21.62 0 001.27-12.69 21.85 21.85 0 00-6.11-11.25 22.7 22.7 0 00-24.35-4.76 22.27 22.27 0 00-10.03 8.1 21.72 21.72 0 002.78 27.73 22.53 22.53 0 0015.8 6.44z" fill="#fff"/><path d="M376.71 148.66c4.42 0 8.74-1.28 12.42-3.7a22.05 22.05 0 008.23-9.86 21.62 21.62 0 001.27-12.69 21.85 21.85 0 00-6.11-11.25 22.7 22.7 0 00-24.35-4.76 22.27 22.27 0 00-10.03 8.1 21.72 21.72 0 002.78 27.73 22.53 22.53 0 0015.8 6.44z" fill="#868A91"/><path d="M376.71 148.66c4.42 0 8.74-1.28 12.41-3.7a22.02 22.02 0 008.23-9.86 21.6 21.6 0 001.27-12.69 21.84 21.84 0 00-6.11-11.24 22.46 22.46 0 00-11.44-6.02 22.7 22.7 0 00-12.9 1.25 22.27 22.27 0 00-10.03 8.1 21.71 21.71 0 002.78 27.73 22.53 22.53 0 0015.8 6.43z" fill="#F4F4F4"/><path d="M376.71 104.72c.4-.01.8 0 1.21.05-5.7.3-11.07 2.74-15 6.82a21.75 21.75 0 00-6.1 15.1c0 5.61 2.18 11.01 6.1 15.09a22.49 22.49 0 0015 6.82c-.39 0-.77.05-1.2.05a22.52 22.52 0 01-15.6-6.55 21.78 21.78 0 01-6.42-15.42c0-5.77 2.3-11.3 6.43-15.42a22.53 22.53 0 0115.58-6.54z" fill="#B2B6BB"/><path d="M387.84 135.95c-.26 0-.5-.08-.7-.23l-11.56-8.45v-11.7c0-.31.13-.6.35-.82a1.2 1.2 0 011.67 0c.22.21.34.5.34.81v10.54l10.6 7.76a1.16 1.16 0 01.42 1.3 1.16 1.16 0 01-1.12.8z" fill="#139988"/><path opacity=".4" d="M357.57 138a21.7 21.7 0 01-.3-22.13 22.16 22.16 0 018.2-8.16c3.4-1.96 7.29-2.99 11.24-2.99.63 0 1.21.05 1.84.1L357.57 138zM381.89 105.34c1.07.23 2.13.57 3.14 1l-23.09 36.84a21.07 21.07 0 01-2.51-2.56l22.46-35.28z" fill="#fff"/><path d="M199.5 448.28l12.06-62.07c.23-1.55-.52-2.55 1.09-2.55h26.47c.82.03 1.6.33 2.21.85a3.5 3.5 0 011.19 2.02l9.25 62.1h3.4l-8.73-62.43c-.4-2.65-3.93-4.8-6.65-4.8h-27.8a5.97 5.97 0 00-3.7 1.4 5.8 5.8 0 00-1.96 3.4l-12.4 62.1 5.56-.02z" fill="#868A91"/><path opacity=".5" d="M208.26 382.81h6.13v.84h-1.74c-1.55 0-.9.93-1.07 2.4h-5.23c.25-1.26.92-2.4 1.91-3.24z" fill="#000"/><path d="M199.5 448.28h-2.08l12.32-62.75c.25-1.1.87-2.07 1.75-2.79a5.2 5.2 0 013.1-1.16h28.46c1.13.04 2.22.45 3.08 1.18a4.82 4.82 0 011.63 2.83l9.43 63.03h-2.02l-9.28-62.75a2.92 2.92 0 00-.99-1.7 3.01 3.01 0 00-1.84-.7h-28.44a3.22 3.22 0 00-2.97 2.41l-12.16 62.4z" fill="#868A91"/><path opacity=".5" d="M199.5 448.28h-2.08l12.32-62.75c.25-1.1.87-2.07 1.75-2.79a5.2 5.2 0 013.1-1.16h28.46c1.13.04 2.22.45 3.08 1.18a4.82 4.82 0 011.63 2.83l9.43 63.03h-2.02l-9.28-62.75a2.92 2.92 0 00-.99-1.7 3.01 3.01 0 00-1.84-.7h-28.44a3.22 3.22 0 00-2.97 2.41l-12.16 62.4z" fill="#000"/><path d="M203.02 383.39c-5.24-.35-1.17-11.9-1.96-16.54l-.15-.92 1.88-.31.16.92c1.16 6.87-2.32 14.96.06 14.96 1.11 0 2.73-.05 4.96-.12 5.88-.19 15.7-.5 33.39-.5h.94v1.89h-.94c-17.66 0-27.47.3-33.33.5-2.25.07-3.87.12-5.01.12z" fill="#868A91"/><path d="M243.46 382.77h-38.6c-3.07 0-3.02-2.53-2.2-6.99.61-3.05.7-6.18.25-9.27l1.88-.3c1.14 6.72-2.35 14.66.06 14.66h38.6v1.9z" fill="#61656D"/><path d="M290.39 384.81a20.52 20.52 0 01-10.2 2.76H229.2c-11.35 0-23.52-.81-25.34-5.34-1.81-4.53 77.93-2.9 77.93-2.9s6.29 1.11 6.95 1.6c.66.49 1.65 3.88 1.65 3.88z" fill="#61656D"/><path d="M203.87 365.4l-6.77-48.6c-.13-.85-4.38-1.2-4.21-1.95.6-2.7 3.22-6.95 10.08-6.95h34.53c2 .05 3.92.78 5.43 2.06a8.51 8.51 0 012.87 4.98s7.36 47.81 7.07 48.87c-.29 1.05-1.26 3.24-3.07 3.24-1.8 0-45.64.32-45.64.32l-.29-1.97zM246.97 383.2h-40.7c-.9 0-1.79-.37-2.43-1a3.37 3.37 0 010-4.8c.64-.64 1.52-1 2.44-1h40.69c.91 0 1.8.36 2.44 1a3.37 3.37 0 010 4.8c-.65.63-1.53 1-2.44 1z" fill="#868A91"/><path d="M293.02 388.32a2.9 2.9 0 01-1.88-.71 2.82 2.82 0 01-.95-1.75c-.06-.27-.86-3.24-7.54-3.24h-35.21a2.97 2.97 0 01-2.01-.75 2.77 2.77 0 01-.19-4.02 2.88 2.88 0 012.1-.9h35.34c10.62 0 13.2 6.26 13.25 8.45a2.8 2.8 0 01-.76 2c-.5.54-1.2.87-1.96.9l-.19.02zm-2.88-2.83l.03.37v-.16l-.03-.21z" fill="#868A91"/><path opacity=".1" d="M293.02 388.32a2.9 2.9 0 01-1.88-.71 2.82 2.82 0 01-.95-1.75c-.06-.27-.86-3.24-7.54-3.24h-35.21a2.97 2.97 0 01-2.01-.75 2.77 2.77 0 01-.19-4.02 2.88 2.88 0 012.1-.9h35.34c10.62 0 13.2 6.26 13.25 8.45a2.8 2.8 0 01-.76 2c-.5.54-1.2.87-1.96.9l-.19.02zm-2.88-2.83l.03.37v-.16l-.03-.21z" fill="#fff"/><path d="M287.4 382.77h-38.3a2.28 2.28 0 01-1.6-.7 2.2 2.2 0 01-.59-1.62c.05-4.06 1.54-6.2.19-14.14l-.54-.4 2.24-.31.15.92c1.34 7.9-1.97 14.37.14 14.37h38.3v1.88z" fill="#868A91"/><path d="M288.52 383.08h-38.05c-4.72 0-.36-8.17-2-16.51l1.93-.35c1.17 6.88-1.67 14.97.7 14.97h37.42v1.89z" fill="#61656D"/><path d="M297.22 448.28L288 383.7a2.9 2.9 0 00-.97-1.7 2.98 2.98 0 00-1.84-.7h-28.45a3 3 0 00-1.84.7 2.9 2.9 0 00-.99 1.68l-9.2 64.58h-2.07l9.38-64.84a4.8 4.8 0 011.62-2.84 4.94 4.94 0 013.1-1.17h28.45c1.14.02 2.23.44 3.1 1.17a4.8 4.8 0 011.62 2.84l9.37 64.86h-2.05z" fill="#868A91"/><path d="M244.66 448.63l9-64.56c.24-1.56-.5-3.12 1.1-3.12l26.48.57a3.61 3.61 0 013.39 2.87l9.2 63.9h3.39l-8.67-64.23c-.4-2.65-4.03-4.71-6.76-4.71l-27.7-.1a5.97 5.97 0 00-3.69 1.42 5.8 5.8 0 00-1.96 3.39l-9.32 64.59 5.54-.02z" fill="#868A91"/><path opacity=".5" d="M297.22 448.28L288 383.7a2.9 2.9 0 00-.97-1.7 2.98 2.98 0 00-1.84-.7h-28.45a3 3 0 00-1.84.7 2.91 2.91 0 00-.99 1.68l-9.26 64.94h-2.06l9.42-65.2a4.8 4.8 0 011.62-2.84 4.94 4.94 0 013.1-1.17h28.44c1.14.02 2.23.44 3.09 1.17a4.8 4.8 0 011.62 2.84l9.4 64.86h-2.05z" fill="#000"/><path d="M201.65 365.4l-6.77-48.6c-.13-.85-3.07-1.2-2.9-1.95.61-2.7 5.96-5.1 9.07-5.1h34.54c2 .06 3.92.79 5.43 2.07a8.5 8.5 0 012.87 4.98l6.66 50.09-1.97.46h-46.63l-.3-1.95z" fill="#61656D"/><path d="M201.06 309.75h34.54a8.74 8.74 0 016.8 3.54.93.93 0 01-.44-.3c-.99-1.08-1.89 1.18-1.89 2.05 0 .68-31.07 3.58-44.76 4.72l-.44-2.96c-.13-.85-3.07-1.2-2.9-1.95.63-2.7 6-5.1 9.09-5.1z" fill="#61656D"/><path d="M197.92 367.34l-6.77-48.6a5.88 5.88 0 011.38-4.98 6.07 6.07 0 014.8-2.07h36.18c2 .05 3.92.79 5.43 2.07a8.5 8.5 0 012.87 4.97l6.77 48.6s-10.75 2.7-27.85 2.7-22.81-2.69-22.81-2.69z" fill="#868A91"/><path opacity=".5" d="M248.68 383.08h-44.3l.68.7h43.44l.18-.7z" fill="#000"/></g><defs><linearGradient id="paint0_linear" x1="70.42" y1="405.17" x2="604.06" y2="-123.81" gradientUnits="userSpaceOnUse"><stop stop-color="#139988" stop-opacity=".2"/><stop offset="1" stop-color="#fff" stop-opacity="0"/></linearGradient><clipPath id="clip0"><path fill="#fff" d="M0 0h600v450H0z"/></clipPath></defs></svg>