<svg width="600" height="450" fill="none" xmlns="http://www.w3.org/2000/svg"><g clip-path="url(#clip0)"><path d="M82.86 448.51L.3 221.34a30.39 30.39 0 015.61-20.19L125.38 2.22a30.17 30.17 0 0127.09-12.4L499.2 24.69a30.1 30.1 0 0116.82 7.06 30.28 30.28 0 019.7 15.5l73.62 192.97a30.36 30.36 0 01-.1 15.57l-62.71 193.72-453.68-1z" fill="#F4F4F4"/><path d="M82.86 448.51L.3 221.34a30.39 30.39 0 015.61-20.19L125.38 2.22a30.17 30.17 0 0127.09-12.4L499.2 24.69a30.1 30.1 0 0116.82 7.06 30.28 30.28 0 019.7 15.5l73.62 192.97a30.36 30.36 0 01-.1 15.57l-62.71 193.72-453.68-1z" fill="url(#paint0_linear)"/><path d="M568.8 450.18H50.26a.78.78 0 010-1.56H568.8c.2 0 .4.07.55.23.15.14.23.34.23.55 0 .2-.08.4-.23.55a.76.76 0 01-.55.23z" fill="#B2B6BB"/><path d="M421.47 36.23H45.5a5 5 0 00-4.98 5v296.38a5 5 0 004.98 5h375.97a5 5 0 004.98-5V41.23a5 5 0 00-4.98-5z" fill="#139988"/><path opacity=".6" d="M421.47 36.23H45.5a5 5 0 00-4.98 5v296.38a5 5 0 004.98 5h375.97a5 5 0 004.98-5V41.23a5 5 0 00-4.98-5z" fill="#fff"/><path d="M418.23 36.09H42.26a5 5 0 00-4.98 5v296.38a5 5 0 004.98 5h375.97a5 5 0 004.98-5V41.09a5 5 0 00-4.98-5z" fill="#fff"/><path d="M409.15 70.78H249.49a2.74 2.74 0 00-2.73 2.74v126.1a2.74 2.74 0 002.73 2.74h159.66c1.5 0 2.73-1.23 2.73-2.75V73.52a2.74 2.74 0 00-2.73-2.73z" fill="#139988"/><path opacity=".6" d="M409.15 70.78H249.49a2.74 2.74 0 00-2.73 2.74v126.1a2.74 2.74 0 002.73 2.74h159.66c1.5 0 2.73-1.23 2.73-2.75V73.52a2.74 2.74 0 00-2.73-2.73z" fill="#fff"/><path d="M409.15 214.34h-177.4a2.74 2.74 0 00-2.74 2.74v109.8a2.74 2.74 0 002.73 2.75h177.4c1.52 0 2.74-1.23 2.74-2.74V217.08a2.74 2.74 0 00-2.73-2.74z" fill="#139988"/><path opacity=".8" d="M409.15 214.34h-177.4a2.74 2.74 0 00-2.74 2.74v109.8a2.74 2.74 0 002.73 2.75h177.4c1.52 0 2.74-1.23 2.74-2.74V217.08a2.74 2.74 0 00-2.73-2.74z" fill="#fff"/><path d="M214.45 214.78H50.35a2.74 2.74 0 00-2.72 2.74v110.16a2.74 2.74 0 002.73 2.75h164.1c1.5 0 2.72-1.23 2.72-2.75V217.52a2.74 2.74 0 00-2.73-2.74z" fill="#139988"/><path opacity=".6" d="M214.45 214.78H50.35a2.74 2.74 0 00-2.72 2.74v110.16a2.74 2.74 0 002.73 2.75h164.1c1.5 0 2.72-1.23 2.72-2.75V217.52a2.74 2.74 0 00-2.73-2.74z" fill="#fff"/><path d="M45.5 35.84h375.97a4.97 4.97 0 014.98 5V60.6H40.52V40.84a5.01 5.01 0 014.98-5z" fill="#139988"/><path opacity=".3" d="M45.5 35.84h375.97a4.97 4.97 0 014.98 5V60.6H40.52V40.84a5.01 5.01 0 014.98-5z" fill="#fff"/><path d="M418.24 342.97H42.25a5.47 5.47 0 01-5.48-5.5V41.09a5.51 5.51 0 015.48-5.5h375.98a5.46 5.46 0 015.47 5.5v296.38a5.52 5.52 0 01-5.47 5.5zM42.25 36.58a4.47 4.47 0 00-4.48 4.5v296.39a4.51 4.51 0 004.48 4.5h375.98a4.46 4.46 0 004.48-4.5V41.09a4.5 4.5 0 00-4.49-4.5H42.26z" fill="#139988"/><path opacity=".5" d="M418.24 342.97H42.25a5.47 5.47 0 01-5.48-5.5V41.09a5.51 5.51 0 015.48-5.5h375.98a5.46 5.46 0 015.47 5.5v296.38a5.52 5.52 0 01-5.47 5.5zM42.25 36.58a4.47 4.47 0 00-4.48 4.5v296.39a4.51 4.51 0 004.48 4.5h375.98a4.46 4.46 0 004.48-4.5V41.09a4.5 4.5 0 00-4.49-4.5H42.26z" fill="#fff"/><path d="M42.01 35.84H418a4.97 4.97 0 014.98 5V60.6H37.03V40.84a5.01 5.01 0 014.98-5z" fill="#139988"/><path d="M42.01 35.84H418a4.97 4.97 0 014.98 5V60.6H37.03V40.84a5.01 5.01 0 014.98-5z" fill="#139988"/><path d="M337.9 222.93h-97.93c-.7 0-1.25.56-1.25 1.25v.3c0 .7.56 1.26 1.25 1.26h97.92c.7 0 1.25-.56 1.25-1.25v-.3c0-.7-.56-1.26-1.25-1.26z" fill="#868A91"/><path d="M233.18 70.55H51.84a2.74 2.74 0 00-2.73 2.74v126.55a2.74 2.74 0 002.73 2.74h181.34c1.51 0 2.73-1.23 2.73-2.74V73.3a2.74 2.74 0 00-2.73-2.74z" fill="#139988"/><path opacity=".8" d="M233.18 70.55H51.84a2.74 2.74 0 00-2.73 2.74v126.55a2.74 2.74 0 002.73 2.74h181.34c1.51 0 2.73-1.23 2.73-2.74V73.3a2.74 2.74 0 00-2.73-2.74z" fill="#fff"/><path opacity=".7" d="M160.66 152.16a28.88 28.88 0 0028.82-28.94 28.88 28.88 0 00-28.82-28.94 28.88 28.88 0 00-28.82 28.94 28.88 28.88 0 0028.82 28.94z" fill="#139988"/><g opacity=".8"><path opacity=".8" d="M118.96 158.84a24.84 24.84 0 0024.8-24.89c0-13.74-11.1-24.89-24.8-24.89a24.84 24.84 0 00-24.78 24.9c0 13.74 11.1 24.88 24.78 24.88z" fill="#139988"/><path opacity=".2" d="M118.96 158.84a24.84 24.84 0 0024.8-24.89c0-13.74-11.1-24.89-24.8-24.89a24.84 24.84 0 00-24.78 24.9c0 13.74 11.1 24.88 24.78 24.88z" fill="#000"/></g><g opacity=".7"><path opacity=".7" d="M144.6 179.14a19.25 19.25 0 0019.21-19.3c0-10.65-8.6-19.28-19.21-19.28a19.25 19.25 0 00-19.21 19.29c0 10.65 8.6 19.3 19.2 19.3z" fill="#868A91"/><path opacity=".2" d="M144.6 179.14a19.25 19.25 0 0019.21-19.3c0-10.65-8.6-19.28-19.21-19.28a19.25 19.25 0 00-19.21 19.29c0 10.65 8.6 19.3 19.2 19.3z" fill="#fff"/></g><path d="M152.58 78.49H57.85c-.66 0-1.2.54-1.2 1.21v.3c0 .67.54 1.2 1.2 1.2h94.73c.67 0 1.2-.53 1.2-1.2v-.3c0-.67-.53-1.21-1.2-1.21zM103.33 83.94H57.85c-.66 0-1.2.54-1.2 1.21v.3c0 .66.54 1.2 1.2 1.2h45.48c.67 0 1.2-.54 1.2-1.2v-.3c0-.67-.53-1.21-1.2-1.21z" fill="#868A91"/><path opacity=".7" d="M64.33 188.75h-9.5v9.53h9.5v-9.53z" fill="#139988"/><path d="M98.21 192.6H67.94v1.82h30.27v-1.82z" fill="#fff"/><g opacity=".8"><path opacity=".8" d="M130.3 188.75h-9.5v9.53h9.5v-9.53z" fill="#139988"/><path opacity=".2" d="M130.3 188.75h-9.5v9.53h9.5v-9.53z" fill="#000"/></g><path d="M164.18 192.6H133.9v1.82h30.27v-1.82z" fill="#fff"/><g opacity=".7"><path opacity=".7" d="M196.26 188.75h-9.5v9.53h9.5v-9.53z" fill="#868A91"/><path opacity=".2" d="M196.26 188.75h-9.5v9.53h9.5v-9.53z" fill="#fff"/></g><path d="M230.14 192.6h-30.27v1.82h30.27v-1.82z" fill="#fff"/><path d="M308.54 85.12h43.73a1.3 1.3 0 011.3 1.3 1.3 1.3 0 01-1.3 1.3h-90.5a1.3 1.3 0 01-1.3-1.3 1.3 1.3 0 011.3-1.3h46.77z" fill="#868A91"/><path opacity=".1" d="M308.54 85.12h43.73a1.3 1.3 0 011.3 1.3 1.3 1.3 0 01-1.3 1.3h-90.5a1.3 1.3 0 01-1.3-1.3 1.3 1.3 0 011.3-1.3h46.77z" fill="#000"/><path d="M263.71 100.12h55.22v6.3H263.7a2.8 2.8 0 01-2.8-2.82v-.67a2.82 2.82 0 012.8-2.81zM336.25 100.12h-17.32v6.3h17.32v-6.3z" fill="#139988"/><path opacity=".4" d="M336.25 100.12h-17.32v6.3h17.32v-6.3z" fill="#fff"/><path d="M361.35 100.12h-25.1v6.3h25.1v-6.3z" fill="#139988"/><path opacity=".2" d="M361.35 100.12h-25.1v6.3h25.1v-6.3z" fill="#000"/><path d="M361.34 100.12h34a2.8 2.8 0 012.8 2.81v.67a2.82 2.82 0 01-2.8 2.82h-34v-6.3z" fill="#F4F4F4"/><path d="M312.87 119.9h-42.43v1.74h42.43v-1.74z" fill="#868A91"/><path d="M350.97 119.9h-22.09v1.74h22.09v-1.74zM387.77 119.9h-22.08v1.74h22.08v-1.74z" fill="#fff"/><path d="M312.87 137.29h-42.43v1.74h42.43v-1.74z" fill="#868A91"/><path d="M350.97 137.29h-22.09v1.74h22.09v-1.74zM387.77 137.29h-22.08v1.74h22.08v-1.74z" fill="#fff"/><path d="M312.87 154.68h-42.43v1.74h42.43v-1.74z" fill="#868A91"/><path d="M350.97 154.68h-22.09v1.74h22.09v-1.74zM387.77 154.68h-22.08v1.74h22.08v-1.74z" fill="#fff"/><path d="M312.87 172.07h-42.43v1.74h42.43v-1.74z" fill="#868A91"/><path d="M350.97 172.07h-22.09v1.74h22.09v-1.74zM387.77 172.07h-22.08v1.74h22.08v-1.74z" fill="#fff"/><path d="M250.86 289.06h-6.07v33.3h6.07v-33.3z" fill="#B2B6BB"/><path d="M259.27 239.58h-6.07v82.78h6.07v-82.78z" fill="#139988"/><path opacity=".2" d="M259.27 239.58h-6.07v82.78h6.07v-82.78z" fill="#000"/><path d="M267.68 276.4h-6.07v45.96h6.07V276.4z" fill="#139988"/><path opacity=".3" d="M267.68 276.4h-6.07v45.96h6.07V276.4z" fill="#fff"/><path d="M292.44 250.83h-6.08v71.53h6.07v-71.53z" fill="#139988"/><path opacity=".2" d="M292.44 250.83h-6.08v71.53h6.07v-71.53z" fill="#000"/><path d="M300.84 264.9h-6.07v57.46h6.07V264.9z" fill="#B2B6BB"/><path d="M309.25 276.4h-6.07v45.96h6.07V276.4z" fill="#139988"/><path opacity=".3" d="M309.25 276.4h-6.07v45.96h6.07V276.4z" fill="#fff"/><path d="M334 289.06h-6.07v33.3H334v-33.3z" fill="#139988"/><path opacity=".3" d="M334 289.06h-6.07v33.3H334v-33.3z" fill="#fff"/><path d="M342.41 271.47h-6.07v50.9h6.07v-50.9z" fill="#B2B6BB"/><path d="M350.82 271.47h-6.07v50.9h6.07v-50.9z" fill="#139988"/><path opacity=".2" d="M350.82 271.47h-6.07v50.9h6.07v-50.9z" fill="#000"/><path d="M375.58 239.34h-6.08v83.02h6.08v-83.02z" fill="#B2B6BB"/><path d="M383.98 256.7h-6.07v65.66h6.07V256.7z" fill="#139988"/><path opacity=".2" d="M383.98 256.7h-6.07v65.66h6.07V256.7z" fill="#000"/><path d="M392.4 276.4h-6.08v45.96h6.07V276.4z" fill="#139988"/><path opacity=".3" d="M392.4 276.4h-6.08v45.96h6.07V276.4z" fill="#fff"/><path d="M402.66 321.9H238.72v.94h163.94v-.94z" fill="#139988"/><path opacity=".3" d="M402.66 321.9H238.72v.94h163.94v-.94z" fill="#000"/><path d="M119.44 222.41H55.76c-.68 0-1.23.55-1.23 1.24v.3c0 .67.55 1.23 1.23 1.23h63.68c.68 0 1.23-.56 1.23-1.24v-.3c0-.68-.55-1.23-1.23-1.23zM161.69 222.41h-35.66c-.68 0-1.23.55-1.23 1.24v.3c0 .67.55 1.23 1.23 1.23h35.66c.68 0 1.23-.56 1.23-1.24v-.3c0-.68-.55-1.23-1.23-1.23z" fill="#868A91"/><path opacity=".1" d="M119.44 222.41H55.76c-.68 0-1.23.55-1.23 1.24v.3c0 .67.55 1.23 1.23 1.23h63.68c.68 0 1.23-.56 1.23-1.24v-.3c0-.68-.55-1.23-1.23-1.23zM161.69 222.41h-35.66c-.68 0-1.23.55-1.23 1.24v.3c0 .67.55 1.23 1.23 1.23h35.66c.68 0 1.23-.56 1.23-1.24v-.3c0-.68-.55-1.23-1.23-1.23z" fill="#000"/><path d="M63.79 314.84h-8.34v8.38h8.34v-8.38z" fill="#F4F4F4"/><path d="M93.57 318.23h-26.6v1.6h26.6v-1.6z" fill="#fff"/><path d="M121.77 314.84h-8.34v8.38h8.34v-8.38z" fill="#868A91"/><path d="M151.56 318.23h-26.62v1.6h26.62v-1.6z" fill="#fff"/><path d="M179.75 314.84h-8.34v8.38h8.34v-8.38z" fill="#139988"/><path opacity=".3" d="M179.75 314.84h-8.34v8.38h8.34v-8.38z" fill="#000"/><path d="M209.54 318.23h-26.61v1.6h26.6v-1.6z" fill="#fff"/><path d="M131.21 240.17c-6.22 0-12.3 1.85-17.48 5.32a31.72 31.72 0 00-4.77 48.6 31.42 31.42 0 0034.3 6.86 31.5 31.5 0 0014.11-11.64 31.69 31.69 0 00-14.12-46.74 31.33 31.33 0 00-12.04-2.4zm0 51.84a20.1 20.1 0 01-18.63-12.5 20.33 20.33 0 014.37-22.08 20.14 20.14 0 0121.98-4.38 20.2 20.2 0 0112.45 18.71 20.32 20.32 0 01-5.9 14.32 20.15 20.15 0 01-14.27 5.93z" fill="#F4F4F4"/><path d="M162.69 271.76a31.71 31.71 0 00-9.22-22.34 31.47 31.47 0 00-22.26-9.25h-.95v11.36l.95-.02a20.1 20.1 0 0118.38 11.9 20.32 20.32 0 01-3.23 21.71l9 6.88a31.52 31.52 0 007.33-20.24z" fill="#868A91"/><path d="M155.4 291.98l-8.84-6.86h-.18a20.15 20.15 0 01-16.49 6.86 20.1 20.1 0 01-15.44-8.98l-9.08 6.75a31.5 31.5 0 0024.46 13.57 31.35 31.35 0 0025.56-11.34z" fill="#139988"/><path opacity=".3" d="M155.4 291.98l-8.84-6.86h-.18a20.15 20.15 0 01-16.49 6.86 20.1 20.1 0 01-15.44-8.98l-9.08 6.75a31.5 31.5 0 0024.46 13.57 31.35 31.35 0 0025.56-11.34z" fill="#000"/><path d="M53.31 52.2a3.97 3.97 0 10-.01-7.94 3.97 3.97 0 00.01 7.93zM66.23 52.2a3.97 3.97 0 10-.02-7.95 3.97 3.97 0 00.02 7.94zM79.15 52.2a3.97 3.97 0 10-.02-7.94 3.97 3.97 0 00.02 7.93z" fill="#fff"/><path d="M408.8 210.67l-8.1-3.59a5.96 5.96 0 01-2.46-2.02l-2.53-3.65 14.45-1.5 3.94 3.77-5.3 6.99z" fill="#FC9D9D"/><path d="M415.87 204.49l-5.5 8.5-2.36-1.93 5.4-8.28 2.46 1.7z" fill="#fff"/><path d="M477.14 442.16l-26.3.67 10.49-7.5a6.61 6.61 0 002.81-5.3l.47-8.38 14.28.06-1.75 20.45z" fill="#FC9D9D"/><path opacity=".15" d="M474.22 432.5v-.15a1.68 1.68 0 00-1.43-1.85l-8.54-1.23.1-1.65h14.18l-1.28 14-11.46-1.27 3.79-1.5a7.62 7.62 0 004.64-6.34z" fill="#000"/><path d="M524.49 441.65h-11.82l-2.2-20.1 13.97.06.05 20.04z" fill="#FC9D9D"/><path opacity=".15" d="M521.52 438.25l-.3-6.16a1.76 1.76 0 00-1.44-1.6l-8.5-1.28-.2-1.7 13.31.06.05 14.24-2.92-3.56z" fill="#000"/><path d="M522.64 270.28l2.62 157.29H509.9L496.54 293.6a1.72 1.72 0 00-1.69-1.54 1.62 1.62 0 00-1.64 1.54l-14.23 133.96h-15.35l3.53-157.3h55.48z" fill="#139988"/><path d="M525.67 427.57h-16.39l-.3-3.34h16.64l.05 3.34z" fill="#139988"/><path opacity=".2" d="M525.67 427.57h-16.39l-.3-3.34h16.64l.05 3.34z" fill="#000"/><path opacity=".2" d="M525.67 427.57h-6.86l-.16-3.34h6.97l.05 3.34zM469.77 425.72l15.15-126.5a8.11 8.11 0 017.97-7.15h1.9a1.62 1.62 0 00-1.64 1.55l-14.13 133.23-9.25-1.13z" fill="#000"/><path d="M479.34 427.57h-16.32l.25-3.34h16.43l-.36 3.34z" fill="#139988"/><path opacity=".2" d="M479.34 427.57h-16.32l.25-3.34h16.43l-.36 3.34z" fill="#000"/><path opacity=".2" d="M479.34 427.57h-9.72l.36-3.34h9.72l-.36 3.34zM525.31 424.12l-2.66-153.84-2.77.02h-7.07l-6.28 4.74s2.36 7.09 10.99 10.64l1.19 138.5 6.6-.06z" fill="#000"/><path d="M512.03 273.85l-2.36 2.76s3.93 5.5 7.85 8.28a13.89 13.89 0 002.45-6.35l-7.94-4.69zM507.4 180.84c0 .26-6.35 14.24-11.01 14.44-4.05.2-6.6-12.95-6.55-13.2l.3-6.85v-3.54c-.2-.82-1.18-1.6-1.18-2.67-.3-5-.87-9.5-.87-9.5s16.23-10.9 17.25 1.8l.8 3.34 1.25 16.18z" fill="#FC9D9D"/><path d="M493.58 143.12a10.47 10.47 0 00-8.97 9.63c-.6 8.98.1 22.32 9.03 23.26 11.93 1.23 13.69-16.87 13.69-16.87l.12-4.05c.13-4.59-2.5-9.29-6.69-11.05l-.47-.19-.54-.2a15.3 15.3 0 00-5.81-.58l-.36.05z" fill="#FC9D9D"/><path opacity=".15" d="M506.53 163.08a1.39 1.39 0 01-1.57-.4l1.18 1.97.4-1.57zM501.45 173.13a9.02 9.02 0 01-5.73 3.29 9.56 9.56 0 01-5.68 1.75l.16-3.4.46.26a8.36 8.36 0 0010.39-2.26c.05-.1.25-.1.35-.05.05.06.08.13.09.2a.5.5 0 01-.04.2z" fill="#000"/><path d="M490.12 168.02l5.6-.55a2.73 2.73 0 01-2.4 2.5c-2.67.3-3.2-1.95-3.2-1.95z" fill="#fff"/><path d="M495.72 158.63a1.14 1.14 0 011.04.7c.09.2.1.43.07.65a1.13 1.13 0 01-2.23-.22c0-.3.12-.58.32-.8.22-.2.5-.33.8-.33z" fill="#000"/><path d="M495.21 160.16c.12 0 .2-.09.2-.2a.2.2 0 00-.2-.2.2.2 0 00-.2.2c0 .11.09.2.2.2zM520.14 278.65l-8.37-4.7 1.5-2.7 8.64 5.05-1.76 2.35z" fill="#fff"/><path d="M486.97 161.2c.62 0 1.13-.5 1.13-1.13a1.13 1.13 0 10-2.26 0c0 .63.5 1.13 1.13 1.13z" fill="#000"/><path d="M486.51 160.42c.12 0 .2-.1.2-.2a.2.2 0 10-.4 0c0 .1.09.2.2.2z" fill="#fff"/><path opacity=".15" d="M490.96 166.3l1.44.05a.3.3 0 00.12-.02.35.35 0 00.12-.06.38.38 0 00.12-.23c0-.04 0-.09-.02-.13a.44.44 0 00-.06-.12.35.35 0 00-.23-.11l-1.44-.05c-.35-.06-.66-.36-.6-.67.05-.31.35-.67.65-.62a.44.44 0 00.36-.3c.05-.16-.15-.32-.3-.37a1.34 1.34 0 00-1.38 1.24 1.29 1.29 0 001.22 1.38z" fill="#000"/><path d="M483.02 158.82V160a4.16 4.16 0 004.17 4.14 4.13 4.13 0 004.12-4.19v-1.18a1.24 1.24 0 00-.32-.94h1.62c-.23.25-.34.59-.32.93v1.18a4.16 4.16 0 004.17 4.13 4.13 4.13 0 004.12-4.18v-1.19a1.54 1.54 0 00-1.53-1.5l-5.2.03h-4.71l-4.6.04a1.62 1.62 0 00-1.52 1.55zm10.72-1h5.24a.92.92 0 01.91.9v1.19a3.53 3.53 0 11-7.05.03v-1.18a1.04 1.04 0 01.9-.92v-.02zm-10.13 1c0-.24.1-.47.26-.64.18-.17.4-.27.64-.27l4.62-.04h.63a.92.92 0 01.92.9v1.19a3.63 3.63 0 01-1.03 2.5 3.46 3.46 0 01-2.5 1.06 3.55 3.55 0 01-3.26-2.18 3.52 3.52 0 01-.28-1.35v-1.17z" fill="#000"/><path d="M441.36 446.51v-.56a3.44 3.44 0 01.99-2.4 3.38 3.38 0 012.39-1h4.71c1 .02 1.95-.37 2.66-1.07L464.14 430l3.74 4.94a3.25 3.25 0 002.48 1.26 3.22 3.22 0 002.53-1.16 3.37 3.37 0 012.46-1.18h2.49v12.44l-36.48.2z" fill="#3F4249"/><path d="M441.36 446.54v1.85h36.6v-2.06l-36.6.2zM466.55 433.12l-8.14 6.63a2.28 2.28 0 01-3.02-.15l-.61-.62 9.36-8.95a1.23 1.23 0 011.33.46l1 1.4c.12.15.2.34.23.54s0 .4-.08.58l-.07.1z" fill="#000"/><path d="M514.2 432.55h-.97c-.44 0-.87.16-1.2.45-.33.3-.54.7-.6 1.14l-.2 3.7a8.25 8.25 0 01-.87 3.3l-.36.67a9.09 9.09 0 00-1 4.16v.66h18.74a9.25 9.25 0 00-1.58-5.13 8.32 8.32 0 01-1.39-3.81l-.4-3.7a1.82 1.82 0 00-1.8-1.44h-.66" fill="#3F4249"/><path d="M527.66 446.58h-18.68v1.8h18.68v-1.8zM516.66 430.86h2.76a2.33 2.33 0 012.31 2.62l-.62 5.04a3.15 3.15 0 01-3.07 2.72 3.08 3.08 0 01-3.07-2.77l-.56-5.04a2.28 2.28 0 01.53-1.81 2.25 2.25 0 011.72-.76z" fill="#000"/><path d="M513.08 434.2H523M513.38 436.56h9.32M513.64 438.88h8.8M457.23 435.48l3.63 3.45M459.18 433.68l3.73 3.55M461.17 431.99l3.69 3.5" stroke="#fff" stroke-width="1.35" stroke-linecap="round" stroke-linejoin="round"/><path d="M459.03 188.31l-17.28 26.8-26.5-11.05-5.68 8.67 30.73 20.5c3.22 2.69 6.9 2.8 9.27-.55.1-.15.21-.29.33-.43l13.52-15.93 3.08 53.39c.02.15.1.29.2.4.12.1.26.16.4.16h55.09c.34.01.67-.12.93-.36.25-.24.39-.57.4-.92l1.74-47.27 3.65 15.86-16.1 34.3 9.03 5.12 23.46-35.82a7.24 7.24 0 00.62-5.08L535.2 192.1a14.02 14.02 0 00-9-7.4l-19.1-5.1-10.7 12.19-6.4-12.24-22.16 2.11c-2.91.34-7.63 3.89-8.8 6.65" fill="#21252B"/><path opacity=".2" d="M465.45 247.87h58.81l-.64 21.07a1.43 1.43 0 01-1.43 1.39H467.1a.67.67 0 01-.4-.17.67.67 0 01-.21-.4l-1.05-21.9z" fill="#fff"/><path d="M495.67 192.2l-4.25-3.85 5.38-.88 5.12 1.29-4.66 3.5a1.18 1.18 0 01-1.59-.06z" fill="#fff"/><path d="M496.8 187.47l8.19 2.06 3.84-9.46-.2-2.63a.71.71 0 00-.72-.61h-.87l.25 2.67-10.5 7.97zM489.99 179.55l.1-2.2h-.66a.8.8 0 00-.82.77l-.1 10.69 8.29-1.39-6.81-7.87z" fill="#fff"/><path opacity=".15" d="M503.7 189.37l-6.95-1.75-7.38 1.24" stroke="#000" stroke-width=".76" stroke-miterlimit="10"/><path opacity=".1" d="M463.85 221.86h61.25l-.82 26h-58.81l-1.62-26z" fill="#fff"/><path opacity=".3" d="M525.22 219.17c.06-1.95-.3-3.9-1.08-5.69a1.4 1.4 0 00-.62-.68 1.42 1.42 0 00-2.09 1.15l-5.48 56.38h6.2a1.49 1.49 0 001.49-1.44l1.58-49.72z" fill="#000"/><path d="M505.25 157.2a2.05 2.05 0 011.05-1.44 2.07 2.07 0 011.76-.1c2.66.76 2.2 6.16-1.33 7.4-2.2.45-1.9-.88-1.74-2.68l.26-3.19z" fill="#FC9D9D"/><path opacity=".15" d="M508.36 157.14a1.46 1.46 0 00-1.27-.15c-.4.16-.7.48-.87.87-.23.5-.3 1.06-.2 1.6v.46c0 .03 0 .07.02.1a.2.2 0 00.07.08l.1.04c.04 0 .07 0 .1-.02.04 0 .08 0 .11-.03a.22.22 0 00.08-.07.19.19 0 00.04-.1l-.01-.1v-.47c-.04-.45.01-.9.15-1.33.11-.26.3-.48.56-.62.28-.06.57-.03.82.1.06.03.13.03.2 0a.3.3 0 00.16-.1c.1 0 .05-.15-.06-.26z" fill="#000"/><path d="M524.98 247.04L513.2 271.1l8.64 3.16 11.39-16.96-8.25-10.25z" fill="#21252B"/><path opacity=".3" d="M440.45 233.36c3.2 2.56 6.79 2.62 9.13-.67.1-.15.2-.3.32-.43l13.53-15.93v.39l.29-.42v-4.25a1.45 1.45 0 00-1.89-1.38c-.28.1-.54.28-.72.53l-11.45 16.82-1.13 1.68c-.9 1.4-4.3 5.9-8.08 3.66zM441.54 214.92l1.86 1.12c.05.03.11.05.17.05a.3.3 0 00.17-.06.33.33 0 00.11-.15.3.3 0 00.01-.17l-.67-2.81-1.65 2.02z" fill="#000"/><path d="M368.86 196.85h-3.92v247.77h3.92V196.85z" fill="#3F4249"/><path d="M339.46 445.3l-3.67-1.37 29.27-83.19 3.68 1.39-29.28 83.18z" fill="#3F4249"/><path d="M395.1 445.3l-29.77-83.17 3.68-1.39 29.77 83.19-3.67 1.38z" fill="#3F4249"/><path d="M343.3 443.33h-10.35c-.62 0-1.11.5-1.11 1.1v3.3c0 .62.5 1.12 1.1 1.12h10.36c.6 0 1.1-.5 1.1-1.12v-3.3c0-.6-.5-1.1-1.1-1.1zM371.95 443.33H361.6c-.6 0-1.1.5-1.1 1.1v3.3c0 .62.5 1.12 1.1 1.12h10.35c.61 0 1.1-.5 1.1-1.12v-3.3c0-.6-.49-1.1-1.1-1.1zM402 443.33h-10.35c-.61 0-1.1.5-1.1 1.1v3.3c0 .62.49 1.12 1.1 1.12H402c.61 0 1.1-.5 1.1-1.12v-3.3c0-.6-.49-1.1-1.1-1.1z" fill="#61656D"/><path opacity=".2" d="M343.3 443.33h-10.35c-.62 0-1.11.5-1.11 1.1v3.3c0 .62.5 1.12 1.1 1.12h10.36c.6 0 1.1-.5 1.1-1.12v-3.3c0-.6-.5-1.1-1.1-1.1zM371.95 443.33H361.6c-.6 0-1.1.5-1.1 1.1v3.3c0 .62.5 1.12 1.1 1.12h10.35c.61 0 1.1-.5 1.1-1.12v-3.3c0-.6-.49-1.1-1.1-1.1zM402 443.33h-10.35c-.61 0-1.1.5-1.1 1.1v3.3c0 .62.49 1.12 1.1 1.12H402c.61 0 1.1-.5 1.1-1.12v-3.3c0-.6-.49-1.1-1.1-1.1z" fill="#000"/><path d="M370.41 355.48h-6.48a2.56 2.56 0 00-2.56 2.56v4.9a2.56 2.56 0 002.56 2.56h6.48a2.56 2.56 0 002.56-2.57v-4.89a2.56 2.56 0 00-2.56-2.56z" fill="#868A91"/><path d="M428.69 197.63l22.55 7.88c.25.09.45.27.58.5.12.24.14.5.07.76l-.24.85a.97.97 0 01-.17.36c-.09.1-.18.2-.3.27a1 1 0 01-.78.09l-22.76-5.93 1.05-4.78z" fill="#61656D"/><path opacity=".2" d="M430.18 198.16s-.06 2.86-1.31 4.58l-2.03-.65 1.57-4.34 1.77.4z" fill="#000"/><path d="M428.41 191.23l-8.47-3.53-5.28 18.6 8.96 1.7a1.67 1.67 0 001.7-.69c2.88-4.29 4.32-9.4 4.1-14.57a1.7 1.7 0 00-1-1.5z" fill="#61656D"/><path opacity=".15" d="M428.41 191.23l-8.47-3.53-5.28 18.6 8.96 1.7a1.67 1.67 0 001.7-.69c2.88-4.29 4.32-9.4 4.1-14.57a1.7 1.7 0 00-1-1.5z" fill="#fff"/><path d="M420.33 198.08c-1.5 5.16-4.39 8.57-5.98 8.1-1.6-.46-1.68-5-.19-10.18 1.5-5.17 3.99-8.96 5.59-8.5 1.6.46 2.06 5.4.58 10.58z" fill="#61656D"/><path opacity=".2" d="M420.33 198.08c-1.5 5.16-4.39 8.57-5.98 8.1-1.6-.46-1.68-5-.19-10.18 1.5-5.17 3.99-8.96 5.59-8.5 1.6.46 2.06 5.4.58 10.58z" fill="#000"/><path d="M380.77 174.51l37.77 14.28c.07.03.14.08.19.14.05.06.08.14.09.22.19 1.58.91 10-4.59 15.35a.42.42 0 01-.18.1.44.44 0 01-.2.01l-40.3-7.2 7.22-22.9z" fill="#61656D"/><path opacity=".15" d="M382.18 175.03s2.26 13.66-7.17 22.62l-2.34-.69 7.47-22.47 2.04.54z" fill="#000"/><path d="M379.41 172.1l-10.1-4.9-9.8 28.78 11.38 2.34a3.82 3.82 0 003.63-1.15c2.58-2.8 7.22-9.53 7.06-21.63a3.91 3.91 0 00-2.17-3.44z" fill="#61656D"/><path opacity=".15" d="M379.41 172.1l-10.1-4.9-9.8 28.78 11.38 2.34a3.82 3.82 0 003.63-1.15c2.58-2.8 7.22-9.53 7.06-21.63a3.91 3.91 0 00-2.17-3.44z" fill="#fff"/><path d="M370.13 183.09c2.62-7.93 1.84-15.07-.78-15.95-2.61-.87-6.87 4.84-9.5 12.76-2.64 7.92-2.63 15.05 0 15.93 2.63.87 7.65-4.82 10.28-12.74z" fill="#61656D"/><path opacity=".2" d="M370.13 183.09c2.62-7.93 1.84-15.07-.78-15.95-2.61-.87-6.87 4.84-9.5 12.76-2.64 7.92-2.63 15.05 0 15.93 2.63.87 7.65-4.82 10.28-12.74z" fill="#000"/><path d="M302.4 146.11l65.14 23.51a.73.73 0 01.5.6c.3 2.55 1.36 15.27-8.04 22.22a.77.77 0 01-.6.13l-64.85-14.13 7.85-32.33z" fill="#61656D"/><path opacity=".15" d="M304.36 146.89c1.96 4.73 3.35 20.98-7.47 32.01l-2.35-.5-19.04-.59 9.02-39.42 17.87 7.69 1.97.8z" fill="#000"/><path d="M302.96 147.39c1.36 5.74 3.18 19.72-7.63 30.77a4.96 4.96 0 01-4.03 1.44l-17.37-1.74 9.03-40.21 16.88 6.22a4.98 4.98 0 013.12 3.52z" fill="#61656D"/><path opacity=".15" d="M302.96 147.39c1.36 5.74 3.18 19.72-7.63 30.77a4.96 4.96 0 01-4.03 1.44l-17.37-1.74 9.03-40.21 16.88 6.22a4.98 4.98 0 013.12 3.52z" fill="#fff"/><path d="M286.18 159.45c2.44-11.14.74-21-3.82-22-4.55-1.01-10.23 7.2-12.67 18.35-2.45 11.15-.74 21 3.81 22.01 4.56 1.01 10.23-7.21 12.68-18.36z" fill="#61656D"/><path opacity=".2" d="M286.18 159.45c2.44-11.14.74-21-3.82-22-4.55-1.01-10.23 7.2-12.67 18.35-2.45 11.15-.74 21 3.81 22.01 4.56 1.01 10.23-7.21 12.68-18.36z" fill="#000"/><path d="M286.18 159.45c2.32-10.6 1.03-19.88-2.88-20.75-3.92-.87-8.98 7.02-11.3 17.61-2.33 10.6-1.04 19.89 2.88 20.75 3.91.87 8.97-7.02 11.3-17.6z" fill="#139988"/><path opacity=".4" d="M286.18 159.45c2.32-10.6 1.03-19.88-2.88-20.75-3.92-.87-8.98 7.02-11.3 17.61-2.33 10.6-1.04 19.89 2.88 20.75 3.91.87 8.97-7.02 11.3-17.6z" fill="#fff"/><path opacity=".2" d="M281.2 149.05c.77-1.56.7-3.17-.18-3.61-.87-.44-2.2.46-2.99 2.01-.78 1.56-.7 3.18.17 3.62.87.44 2.21-.47 3-2.02zM327.7 155.23s2.72 17.38-8.05 28.67l4.17.91s9.27-8.5 7.97-28.25l-4.1-1.33z" fill="#fff"/><path d="M338.18 159.02l.72-2.26 15.32 5.51-.74 2.27-15.3-5.52z" fill="#61656D"/><path d="M353.38 151.4l-8.6 7.18 1.5 1.82 8.6-7.19-1.5-1.82z" fill="#61656D"/><path opacity=".2" d="M338.18 159.02l.72-2.26 15.32 5.51-.74 2.27-15.3-5.52z" fill="#000"/><path d="M361.59 157.72l-20.24-7.56 1.92-5.17 20.23 7.56a4.76 4.76 0 01-1.91 5.17z" fill="#61656D"/><path d="M343.8 148.15c.53-1.43.3-2.84-.51-3.14-.81-.3-1.9.6-2.43 2.04-.53 1.43-.3 2.83.51 3.13.81.3 1.9-.6 2.43-2.03z" fill="#61656D"/><path d="M343.8 148.15c.53-1.43.3-2.84-.51-3.14-.81-.3-1.9.6-2.43 2.04-.53 1.43-.3 2.83.51 3.13.81.3 1.9-.6 2.43-2.03z" fill="#61656D"/><path opacity=".2" d="M343.8 148.15c.53-1.43.3-2.84-.51-3.14-.81-.3-1.9.6-2.43 2.04-.53 1.43-.3 2.83.51 3.13.81.3 1.9-.6 2.43-2.03z" fill="#000"/><path d="M343.81 148.11c.5-1.32.32-2.61-.4-2.88-.7-.27-1.68.6-2.17 1.92-.5 1.32-.32 2.61.4 2.88.7.27 1.68-.6 2.17-1.92z" fill="#139988"/><path opacity=".2" d="M350.41 154.15l2.39 1.09.68-.54-2.57-.96-.5.41z" fill="#000"/><path d="M121.13 418.64h44.45a6.65 6.65 0 016.67 6.7v3.41a6.87 6.87 0 01-6.82 6.85H121.1v-16.97h.03z" fill="#fff"/><path d="M210.41 425.62v2.55c0 1.3-.31 2.6-.93 3.74a6.86 6.86 0 01-5.98 3.7h-83.75a1.05 1.05 0 01-1-1.08v-.38c0-.28.1-.55.28-.75.2-.2.45-.32.72-.33h51.05a7.3 7.3 0 001.47-4.4v-3.25a6.95 6.95 0 00-1.39-4.23h-51.13a1.04 1.04 0 01-1-1.07v-.38a1.05 1.05 0 011-1.08h84.19a6.53 6.53 0 016.24 5.05c.16.63.24 1.27.23 1.91z" fill="#868A91"/><path opacity=".2" d="M210.41 425.62v2.55c0 1.3-.31 2.6-.93 3.74a6.86 6.86 0 01-5.98 3.7h-83.75a1.05 1.05 0 01-1-1.08v-.38c0-.28.1-.55.28-.75.2-.2.45-.32.72-.33h51.05a7.3 7.3 0 001.47-4.4v-3.25a6.95 6.95 0 00-1.39-4.23h-51.13a1.04 1.04 0 01-1-1.07v-.38a1.05 1.05 0 011-1.08h84.19a6.53 6.53 0 016.24 5.05c.16.63.24 1.27.23 1.91z" fill="#fff"/><path opacity=".1" d="M210.16 423.7h-38.1a6.95 6.95 0 00-1.19-2.5h-51.12a1.04 1.04 0 01-1-1.08v-.38a1.05 1.05 0 011-1.08h84.19a6.56 6.56 0 016.22 5.03zM121.13 427.12l6.2.29-6.2.17v-.46zM121.13 429.78l14.75.29-14.75.17v-.46z" fill="#000"/><path d="M158.28 448.76h-44.54a5.37 5.37 0 01-5-3.36 5.46 5.46 0 01-.42-2.08v-2.66a5.1 5.1 0 015.09-5.1h44.87v13.2z" fill="#868A91"/><path opacity=".2" d="M158.28 448.76h-44.54a5.37 5.37 0 01-5-3.36 5.46 5.46 0 01-.42-2.08v-2.66a5.1 5.1 0 015.09-5.1h44.87v13.2z" fill="#000"/><path d="M205.92 448.76h-50.6a5.25 5.25 0 01-4.9-3.29 5.35 5.35 0 01-.4-2.04v-2.65a5.24 5.24 0 013.2-4.82 5.2 5.2 0 011.98-.4h50.72v13.2z" fill="#F4F4F4"/><path d="M146.6 448.76h61.13c.44 0 .79-.35.79-.78v-.4a.79.79 0 00-.79-.8h-61.12a.79.79 0 00-.79.8v.4c0 .43.35.78.79.78zM146.6 437.54h61.13c.44 0 .79-.36.79-.79v-.4c0-.43-.35-.79-.79-.79h-61.12a.8.8 0 00-.79.8v.39c0 .44.35.79.79.79z" fill="#868A91"/><path opacity=".2" d="M146.6 448.76h61.13c.44 0 .79-.35.79-.78v-.4a.79.79 0 00-.79-.8h-61.12a.79.79 0 00-.79.8v.4c0 .43.35.78.79.78zM146.6 437.54h61.13c.44 0 .79-.36.79-.79v-.4c0-.43-.35-.79-.79-.79h-61.12a.8.8 0 00-.79.8v.39c0 .44.35.79.79.79z" fill="#000"/><path opacity=".1" d="M205.93 442.17l-6.78.22 6.78.13v-.35zM205.92 439.13l-16.12.22 16.12.13v-.36z" fill="#000"/><path d="M189.99 439.3c.45.4.77.93.92 1.5.04.17.07.34.07.5.04 1.24 0 4.05 0 4.05l2.04-1.4 2.04 1.4v-3.8a3.34 3.34 0 00-.5-1.87.79.79 0 00-.24-.27.77.77 0 00-.32-.12l-4.01.02z" fill="#139988"/><path opacity=".2" d="M189.99 439.3c.45.4.77.93.92 1.5l4.09.06s-.16-1.33-1-1.55h-4.01z" fill="#000"/><path d="M109.9 399.29h42.4a7.6 7.6 0 017.63 7.65v3.9a7.79 7.79 0 01-7.8 7.83h-42.22V399.3z" fill="#fff"/><path d="M159.95 406.8v4.2a5.02 5.02 0 01-2.04 4.15 3.6 3.6 0 01-2 .65H108.6a1.11 1.11 0 00-1 1.2v.5a1.11 1.11 0 001 1.2h81.71c2.35 0 4.42-1.4 5.67-3.54a9.43 9.43 0 001.25-4.76v-3.3c0-1.16-.21-2.3-.64-3.39-1.05-2.6-3.28-4.4-5.85-4.4h-82.15a1.11 1.11 0 00-1 1.2v.5a1.13 1.13 0 001 1.21h47.45a3.65 3.65 0 012.88 1.5 5.12 5.12 0 011.03 3.09z" fill="#868A91"/><path opacity=".1" d="M107.59 417v.5a1.12 1.12 0 001 1.2h81.72c2.35 0 4.42-1.4 5.67-3.53h-38.07a3.6 3.6 0 01-2 .64H108.6a1.12 1.12 0 00-1.01 1.2zM109.9 408.98l6.07.33-6.06.2v-.53zM109.9 404.52l14.43.33-14.42.2v-.53z" fill="#000"/><path d="M124.19 404.78c-.58.4-1.03.96-1.27 1.62-.06.19-.1.38-.1.57-.05 1.34 0 4.38 0 4.38l-2.81-1.5-2.8 1.5v-4.12c-.03-.74.22-1.46.68-2.03a1.09 1.09 0 01.78-.42h5.52z" fill="#139988"/><path opacity=".2" d="M124.19 404.78c-.58.4-1.03.96-1.27 1.62l-5.64.07s.23-1.45 1.39-1.69h5.52z" fill="#000"/></g><defs><linearGradient id="paint0_linear" x1="69.63" y1="404.84" x2="615.91" y2="-124.94" gradientUnits="userSpaceOnUse"><stop stop-color="#139988" stop-opacity=".2"/><stop offset="1" stop-color="#fff" stop-opacity="0"/></linearGradient><clipPath id="clip0"><path fill="#fff" d="M0 0h600v450H0z"/></clipPath></defs></svg>