<svg width="600" height="450" fill="none" xmlns="http://www.w3.org/2000/svg"><path d="M22.37 448.27L.2 181.4a28.28 28.28 0 015.43-19.08L116.24 11.98a29.04 29.04 0 0111.52-9.28A29.63 29.63 0 01142.44.22l378.71 32.79c6 .52 11.69 2.85 16.28 6.66a28.57 28.57 0 019.38 14.66L598.85 251a28.09 28.09 0 01-.1 14.74l-50.9 183.2-525.48-.66z" fill="#F4F4F4"/><path d="M22.37 448.27L.2 181.4a28.28 28.28 0 015.43-19.08L116.24 11.98a29.04 29.04 0 0111.52-9.28A29.63 29.63 0 01142.44.22l378.71 32.79c6 .52 11.69 2.85 16.28 6.66a28.57 28.57 0 019.38 14.66L598.85 251a28.09 28.09 0 01-.1 14.74l-50.9 183.2-525.48-.66z" fill="url(#paint0_linear)"/><path d="M532.3 292.9H294.32a4.17 4.17 0 00-4.2 4.12V443.9a4.17 4.17 0 004.2 4.13h238c2.32 0 4.2-1.85 4.2-4.13V297.02a4.17 4.17 0 00-4.2-4.13z" fill="#DADDDF"/><path d="M294.82 292.9H532.8c1.11 0 2.19.43 2.97 1.2a4.09 4.09 0 011.23 2.92v27.09h-246.4v-27.09a4.06 4.06 0 011.23-2.92 4.22 4.22 0 012.98-1.2z" fill="#139988"/><path d="M537 316.31H290.6v1.95H537v-1.95z" fill="#fff"/><path opacity=".2" d="M528.81 293.14h3.75c1.11 0 2.18.43 2.97 1.2a4.1 4.1 0 011.23 2.93v146.88a4 4 0 01-1.23 2.92 4.17 4.17 0 01-2.98 1.2h-3.74V293.15z" fill="#000"/><path d="M527.34 292.9h-238a4.17 4.17 0 00-4.2 4.12V443.9a4.17 4.17 0 004.2 4.13h238c2.32 0 4.2-1.85 4.2-4.13V297.02a4.17 4.17 0 00-4.2-4.13z" fill="#DADDDF"/><path d="M289.1 292.65h238.24c1.11 0 2.18.43 2.97 1.2a4.09 4.09 0 011.23 2.93v27.33H284.89v-27.34c0-1.09.45-2.14 1.23-2.91a4.25 4.25 0 012.98-1.21z" fill="#139988"/><path d="M289.1 292.65h238.24c1.11 0 2.18.43 2.97 1.2a4.09 4.09 0 011.23 2.93v27.33H284.89v-27.34c0-1.09.45-2.14 1.23-2.91a4.25 4.25 0 012.98-1.21z" fill="#139988"/><path d="M359.16 342.9h-50.43v60.24h50.43V342.9z" fill="#fff"/><path opacity=".3" d="M421.48 301.43h-39.7c-1.25 0-2.26 1-2.26 2.21v3.38a2.24 2.24 0 002.26 2.21h39.7c1.25 0 2.26-.99 2.26-2.21v-3.38c0-1.22-1.01-2.21-2.26-2.21z" fill="#000"/><path d="M507.45 341.43h-123.2v3.9h123.2v-3.9z" fill="#B2B6BB"/><path opacity=".3" d="M417.53 356.06h-33.28v3.9h33.28v-3.9z" fill="#000"/><path d="M416.6 307.04h-27.95a5.22 5.22 0 01-3.88-1.73 5.04 5.04 0 01-1.23-4.01l3.69-26.95h30.8l3.69 26.95a4.97 4.97 0 01-1.23 4.01 5.17 5.17 0 01-3.89 1.73zM507.45 363.38h-123.2v3.9h123.2v-3.9z" fill="#B2B6BB"/><path opacity=".3" d="M428.46 406.8h-43.72v3.9h43.72v-3.9zM507.45 428.26h-43.72v3.9h43.72v-3.9z" fill="#000"/><path d="M501 435.09h-30.81v3.9h30.8v-3.9zM507.94 414.11h-123.2v3.9h123.2v-3.9z" fill="#B2B6BB"/><path opacity=".3" d="M417.53 377.53h-33.28v3.9h33.28v-3.9z" fill="#000"/><path d="M507.45 384.85h-123.2v3.9h123.2v-3.9zM507.45 392.16h-123.2v3.9h123.2v-3.9z" fill="#B2B6BB"/><path d="M420.02 255.62h-35.28v27.03h35.28v-27.03z" fill="#139988"/><path opacity=".2" d="M420.02 255.62h-35.28v27.03h35.28v-27.03z" fill="#000"/><path d="M414.12 306.82h-27.95a5.23 5.23 0 01-3.88-1.74 5.03 5.03 0 01-1.22-4l3.69-26.95h30.8l3.68 26.95a5.04 5.04 0 01-5.12 5.74z" fill="#DADDDF"/><path d="M417.03 255.62h-35.47v27.03h35.47v-27.03z" fill="#139988"/><path d="M311.1 412.43h-1.8v12.65h1.8v-12.65zM314.57 412.43h-2.76v12.65h2.76v-12.65zM316 412.43h-.82v12.65h.82v-12.65zM317.8 412.43h-.84v12.65h.83v-12.65zM320.49 412.43h-1.8v12.65h1.8v-12.65zM323.96 412.43h-2.75v12.65h2.75v-12.65zM325.4 412.43h-.83v12.65h.83v-12.65zM327.19 412.43h-.83v12.65h.83v-12.65zM334.9 425.08h1.8v-12.65h-1.8v12.65zM331.43 425.08h2.76v-12.65h-2.76v12.65zM330 425.08h.82v-12.65H330v12.65zM328.2 425.08h.84v-12.65h-.83v12.65zM339.42 412.43h-1.79v12.65h1.8v-12.65zM342.9 412.43h-2.75v12.65h2.75v-12.65zM344.34 412.43h-.83v12.65h.83v-12.65zM346.13 412.43h-.83v12.65h.82v-12.65zM348.82 412.43h-1.8v12.65h1.8v-12.65zM352.3 412.43h-2.76v12.65h2.75v-12.65zM353.73 412.43h-.83v12.65h.83v-12.65zM355.52 412.43h-.83v12.65h.83v-12.65zM358.33 425.08h.83v-12.65h-.83v12.65zM356.54 425.08h.83v-12.65h-.83v12.65z" fill="#61656D"/><path d="M334.16 382.13l-.93 1.63-4.94-5-.1-.08-12.08 2.07a8.44 8.44 0 00-4.34 2.14 8.2 8.2 0 00-2.4 4.15l-.64 2.73v13.37h7.56l2.03-11.1c0-.08.04-.15.1-.2a.29.29 0 01.2-.07.28.28 0 01.3.27l-.22 11.1h14.61l1.25-20.62a3.81 3.81 0 01-.4-.39zM354.48 380.68l-11.42-2.16-.17.16-4.33 5.08-1.04-1.63c-.1.13-.22.25-.32.35l.03.45 1.7 20.2h12.66l.45-11.37 1.94 4.97v-.08l2.4 6.49h2.76V383.3a8.46 8.46 0 00-4.66-2.62z" fill="#139988"/><path d="M335.26 373.81a5.44 5.44 0 01-1.95-.2c.63.2 1.3.28 1.95.23l.56-.08c2.55-.4 4.02-2.42 4.75-4.86-.78 2.58-2.33 4.72-5.3 4.91zM332.95 373.5l.3.12-.3-.12z" fill="#FB9C9C"/><path d="M335.75 379.07h.04l5.73-3.15v.03l-.44-3.2a6.37 6.37 0 01-4.43 1.23c-.44.14-.9.23-1.35.26-2.2.16-4.03-.83-5.4-2.97a.16.16 0 01-.02-.13c0-.01 0-.03.02-.05a.18.18 0 01.05-.04h.08c-.33-.5-.61-1.02-.85-1.56l.05 6.62 6.52 2.96z" fill="#FB9C9C"/><path d="M330.2 371.07a6.01 6.01 0 002.75 2.44l.3.1h.06c.63.19 1.3.25 1.95.2 2.99-.21 4.54-2.35 5.31-4.93.25-.85.43-1.73.54-2.62h-.07l-.14-2.87a.31.31 0 01-.13-.19l-.19-1.28a.96.96 0 01-.98-.88l-.34-3.72c-.44.21-.91.35-1.4.4l-7.8.64c-.3.03-.58.17-.79.4-.2.23-.3.52-.29.82l.13 2.46a.62.62 0 01-.14.44c-.1.13-.25.2-.41.23h-.13l.05 1.32c0 .08-.02.16-.08.23a.34.34 0 01-.2.12l.28 2.79h-.07c.22.76.5 1.5.81 2.22.25.54.53 1.06.85 1.56a.18.18 0 01.13.12zm6.62-1.91a1.94 1.94 0 01-3.58.28v-.02a.11.11 0 01-.01-.11c0-.02.02-.04.03-.05a.11.11 0 01.06-.02l3.37-.24a.14.14 0 01.1.05l.02.05V369.16zm-1.83-1.38l.56-.05c.05 0 .1.02.13.05a.2.2 0 01.07.13.2.2 0 01-.05.14.2.2 0 01-.13.07l-.56.05a.79.79 0 01-.59-.19.74.74 0 01-.25-.56.75.75 0 01.18-.58.8.8 0 01.56-.28.21.21 0 01.21.18.2.2 0 01-.05.14.2.2 0 01-.13.07.44.44 0 00-.32.13.4.4 0 00.04.61.42.42 0 00.33.1zm-6.06-2.7l-.05-.74a.93.93 0 01.23-.72.97.97 0 01.7-.33l3.36-.18h.03l2.62-.15.4-.03 2.99-.15a1 1 0 01.97.57c.06.12.09.25.1.38l.05.76c-.03.66-.3 1.29-.77 1.76a2.71 2.71 0 01-4.6-1.48l-.05-.75a.95.95 0 01.16-.6l-1.03.06c.14.15.22.35.23.56l.06.76c-.03.66-.3 1.29-.77 1.76a2.71 2.71 0 01-4.6-1.48h-.03z" fill="#FB9C9C"/><path d="M335.33 363.97l.06.75c.03.6.3 1.15.76 1.55a2.3 2.3 0 003.22-.18c.4-.45.6-1.03.57-1.62l-.03-.75a.6.6 0 00-.2-.4.62.62 0 00-.43-.15l-3 .16h-.4a.62.62 0 00-.4.2.6.6 0 00-.15.44zm1.99 1.28a.7.7 0 01-.63-.42.67.67 0 01.15-.73.7.7 0 01.74-.15.68.68 0 01.43.63.66.66 0 01-.2.48.7.7 0 01-.49.2zM331.78 367.17a2.28 2.28 0 002.03-1.5c.1-.28.14-.57.12-.86l-.06-.76a.55.55 0 00-.38-.52.57.57 0 00-.23-.02h-.02l-3.37.18a.6.6 0 00-.4.2.59.59 0 00-.15.42l.05.75a2.2 2.2 0 001.53 2c.28.09.58.13.88.1zm.24-1.53a.7.7 0 01-.63-.42.66.66 0 01.15-.73.69.69 0 01.75-.15.68.68 0 01.42.62c0 .18-.07.35-.2.48a.7.7 0 01-.49.2z" fill="#FB9C9C"/><path opacity=".15" d="M341.19 372.66l-.58-3.87-.04.13.52 3.83.1-.09z" fill="#000"/><path d="M335.81 373.78l-.55.08a5.12 5.12 0 01-1.95-.23h-.07l-.29-.1a6 6 0 01-2.75-2.44.19.19 0 00-.07-.05.18.18 0 00-.1-.02h-.07a.16.16 0 00-.05.05.15.15 0 00-.03.12l.02.06c1.38 2.13 3.21 3.13 5.4 2.97.47-.03.92-.12 1.36-.26 1.58.15 3.16-.3 4.43-1.24l-.53-3.83c-.72 2.47-2.2 4.49-4.75 4.9z" fill="#FB9C9C"/><path opacity=".15" d="M335.81 373.78l-.55.08a5.12 5.12 0 01-1.95-.23h-.07l-.29-.1a6 6 0 01-2.75-2.44.19.19 0 00-.07-.05.18.18 0 00-.1-.02h-.07a.16.16 0 00-.05.05.15.15 0 00-.03.12l.02.06c1.38 2.13 3.21 3.13 5.4 2.97.47-.03.92-.12 1.36-.26 1.58.15 3.16-.3 4.43-1.24l-.53-3.83c-.72 2.47-2.2 4.49-4.75 4.9z" fill="#000"/><path d="M339.25 357.36l.35 3.73c.02.24.13.46.31.62.18.17.42.25.66.25l-.15-1.02h.97l.03.8a1.26 1.26 0 011.01-.2c.44-.88 1.1-2.68.38-4.38-.52-1.23-1.3-1.6-2-1.64a2.83 2.83 0 01-1.56 1.84z" fill="#21252B"/><path d="M327.51 362.73l-.12-.86.97.03.03.86h.12c.17-.02.32-.1.42-.22.1-.13.15-.29.14-.45l-.13-2.45c-.02-.3.09-.6.3-.83.2-.22.48-.37.78-.4l7.8-.64c.49-.05.96-.18 1.4-.4a2.9 2.9 0 001.67-3.06c-.1-1.38-1.24-2.55-3.02-2.67l-1.39-.1c-3.34-.28-5.2.03-7.69.92-4.26 1.52-4.44 7.8-2.55 10.15a1.28 1.28 0 011.27.12z" fill="#21252B"/><path d="M328.16 364.43h-.03a.36.36 0 01-.25-.05.35.35 0 01-.15-.2l-.22-1.44a1.26 1.26 0 00-1.53.05h-.02c-1.34 1.14-.49 4.67 2.44 4.43h.04l-.28-2.79zm-.83 1.08a.23.23 0 01-.21-.18l-.05-.42a1.42 1.42 0 00-.37-.9.41.41 0 00-.32-.11c-.05 0-.1 0-.15-.04a.2.2 0 01-.09-.2.2.2 0 01.16-.15c.22-.03.45.03.63.15a1.59 1.59 0 01.53 1.17l.06.42c0 .06-.02.11-.05.16a.27.27 0 01-.14.1zM341.43 361.77l.05 1.38c0 .09-.03.17-.09.24a.35.35 0 01-.23.12.4.4 0 01-.26-.07l.13 2.87h.08c2.93-.16 3.2-3.62 1.74-4.55h-.03a1.34 1.34 0 00-1.39 0zm1.42.77a.22.22 0 01-.2.18.43.43 0 00-.19.05.4.4 0 00-.14.11 1.2 1.2 0 00-.23.96v.4a.2.2 0 01-.19.21c-.13 0-.2-.07-.16-.18v-.42a1.56 1.56 0 01.35-1.25.8.8 0 01.58-.25c.04 0 .09.03.12.06.04.04.06.08.06.13z" fill="#FB9C9C"/><path d="M327.39 361.85l.13.85.22 1.44c.02.08.07.16.14.2.07.05.16.07.25.06h.03a.34.34 0 00.21-.12.33.33 0 00.08-.23l-.05-1.32-.03-.87-.98-.01zM341.48 363.15l-.05-1.38-.03-.81h-.97l.16 1.03.19 1.28c.01.08.06.15.13.2a.4.4 0 00.26.06c.05 0 .1-.02.13-.04a.34.34 0 00.18-.34zM332.02 364.29a.7.7 0 00-.63.42.66.66 0 00.15.73.7.7 0 001.06-.1.66.66 0 00-.09-.85.7.7 0 00-.49-.2zm-.31.75l-.06-.01a.14.14 0 01-.05-.03.15.15 0 01-.05-.11c0-.04.01-.08.04-.11a.16.16 0 01.12-.05l.06.01a.16.16 0 01.08.09l.01.06c0 .04-.01.08-.04.1a.16.16 0 01-.11.05z" fill="#21252B"/><path d="M331.7 364.72a.16.16 0 00-.15.22l.04.05.06.03.06.01a.16.16 0 00.06-.3.16.16 0 00-.06-.01z" fill="#fff"/><path d="M337.32 363.9a.7.7 0 00-.64.42.66.66 0 00.15.73.7.7 0 001.06-.1.66.66 0 00.06-.63.67.67 0 00-.37-.37.7.7 0 00-.26-.05zm-.32.78a.16.16 0 01-.11-.05.15.15 0 01-.05-.11c0-.04.03-.07.06-.1a.16.16 0 01.2 0c.03.03.05.06.06.1a.16.16 0 01-.16.16z" fill="#21252B"/><path d="M337 364.37h-.06a.18.18 0 00-.05.04.16.16 0 00-.05.1v.08l.04.06.05.04.07.01a.16.16 0 00.12-.05.16.16 0 00.04-.13.15.15 0 00-.16-.15z" fill="#fff"/><path d="M334.94 366.94a.2.2 0 00.13-.06.2.2 0 00.05-.14.2.2 0 00-.21-.18c-.1 0-.21.03-.3.07a.79.79 0 00-.4.47c-.04.1-.05.21-.04.31a.75.75 0 00.26.56.77.77 0 00.59.2l.55-.06a.2.2 0 00.14-.07.2.2 0 00.05-.14.2.2 0 00-.07-.13.21.21 0 00-.14-.05l-.56.05a.42.42 0 01-.33-.08.41.41 0 01.1-.71.43.43 0 01.18-.04z" fill="#FB9C9C"/><path opacity=".3" d="M334.94 366.94a.2.2 0 00.13-.06.2.2 0 00.05-.14.2.2 0 00-.21-.18c-.1 0-.21.03-.3.07a.79.79 0 00-.4.47c-.04.1-.05.21-.04.31a.75.75 0 00.26.56.77.77 0 00.59.2l.55-.06a.2.2 0 00.14-.07.2.2 0 00.05-.14.2.2 0 00-.07-.13.21.21 0 00-.14-.05l-.56.05a.42.42 0 01-.33-.08.41.41 0 01.1-.71.43.43 0 01.18-.04z" fill="#000"/><path d="M331.78 367.6a2.73 2.73 0 001.86-.88 2.63 2.63 0 00.68-1.9l-.03-.77a.94.94 0 00-.24-.57l1.04-.05a.95.95 0 00-.16.6l.05.75c.1.65.44 1.25.96 1.67a2.73 2.73 0 003.63-.2c.47-.47.75-1.1.77-1.75l-.05-.76a.95.95 0 00-.33-.7 1.02 1.02 0 00-.73-.26l-3 .16-.4.02-2.62.16h-.03l-3.36.18a1 1 0 00-.69.33.96.96 0 00-.24.71l.05.75c.04.7.36 1.36.9 1.83.53.47 1.23.7 1.94.67zm4.1-4.24h.4l3-.16c.16 0 .3.05.43.15.11.1.19.24.2.4l.03.75c.04.59-.17 1.17-.57 1.62a2.3 2.3 0 01-3.99-1.37l-.05-.75a.6.6 0 01.56-.65zm-6.56.95c0-.15.05-.3.15-.42.1-.11.25-.19.4-.2l3.37-.18h.03a.56.56 0 01.56.32c.03.07.05.14.05.22l.05.76c.03.59-.17 1.17-.58 1.62a2.3 2.3 0 01-3.22.18c-.45-.4-.72-.95-.76-1.55l-.05-.75z" fill="#21252B"/><path d="M336.69 369l-3.37.23a.12.12 0 00-.06.02.12.12 0 00-.03.05l-.01.05.02.06v.02c.16.35.43.64.77.84a1.94 1.94 0 002.18-.17c.3-.25.52-.58.63-.95v-.06a.12.12 0 00-.03-.05.13.13 0 00-.05-.04.14.14 0 00-.05 0z" fill="#fff"/><path d="M337.77 381.84l-.25.3 1.04 1.62 4.33-5.08-4.33 4.25-.8-1.09z" fill="#139988"/><path opacity=".2" d="M337.77 381.84l-.25.3 1.04 1.62 4.33-5.08-4.33 4.25-.8-1.09z" fill="#000"/><path d="M333.94 381.84l-.71 1.1-4.94-4.18 4.94 5 .93-1.63-.22-.29z" fill="#139988"/><path opacity=".2" d="M333.94 381.84l-.71 1.1-4.94-4.18 4.94 5 .93-1.63-.22-.29z" fill="#000"/><path d="M326.94 363.66a.95.95 0 00-.64-.15.2.2 0 00-.16.23.2.2 0 00.24.16.42.42 0 01.32.1c.23.25.36.57.37.91l.05.42a.22.22 0 00.21.18.26.26 0 00.19-.26l-.05-.42a1.58 1.58 0 00-.54-1.17z" fill="#FB9C9C"/><path opacity=".3" d="M326.94 363.66a.95.95 0 00-.64-.15.2.2 0 00-.16.23.2.2 0 00.24.16.42.42 0 01.32.1c.23.25.36.57.37.91l.05.42a.22.22 0 00.21.18.26.26 0 00.19-.26l-.05-.42a1.58 1.58 0 00-.54-1.17z" fill="#000"/><path d="M337.21 382.93l-1.46.83-1.24-.83.06-.38-.03-.03-1.23 20.62h5.63l-1.73-20.2z" fill="#F4F4F4"/><path d="M337.21 382.93l-.03-.45.03.45z" fill="#139988"/><path opacity=".2" d="M337.21 382.93l-.03-.45.03.45z" fill="#000"/><path d="M335.9 383.35a4.37 4.37 0 01-1.33-.8l-.05.38 1.24.83 1.46-.83-.04-.44c-.36.38-.8.67-1.28.86z" fill="#F4F4F4"/><path opacity=".2" d="M335.9 383.35a4.37 4.37 0 01-1.33-.8l-.05.38 1.24.83 1.46-.83-.04-.44c-.36.38-.8.67-1.28.86z" fill="#000"/><path d="M335.75 379.07l.03-.01-.03.01zM335.75 379.07l-1.81 2.78a3.05 3.05 0 00.6.67l.03.03c.39.34.84.62 1.32.8.5-.19.94-.48 1.3-.86a5.97 5.97 0 00.56-.64l-2-2.78z" fill="#F4F4F4"/><path d="M341.74 363.84v.4c-.05.1.03.18.16.18.05 0 .1-.02.13-.06a.2.2 0 00.06-.12v-.41a1.19 1.19 0 01.23-.96.42.42 0 01.32-.16h.09a.2.2 0 00.15-.17.2.2 0 00-.06-.15.2.2 0 00-.15-.06.84.84 0 00-.59.25 1.57 1.57 0 00-.34 1.26z" fill="#FB9C9C"/><path opacity=".3" d="M341.74 363.84v.4c-.05.1.03.18.16.18.05 0 .1-.02.13-.06a.2.2 0 00.06-.12v-.41a1.19 1.19 0 01.23-.96.42.42 0 01.32-.16h.09a.2.2 0 00.15-.17.2.2 0 00-.06-.15.2.2 0 00-.15-.06.84.84 0 00-.59.25 1.57 1.57 0 00-.34 1.26z" fill="#000"/><path d="M333.23 382.93l.71-1.1 1.82-2.76h-.01l-6.5-3-.07-.03-1.01 2.62.02.02.1.08 4.94 4.17zM318.61 391.76a.29.29 0 00-.29.28l-2.03 11.1h2.4l.2-11.1a.29.29 0 00-.28-.27z" fill="#139988"/><path opacity=".2" d="M318.61 391.76a.29.29 0 00-.29.28l-2.03 11.1h2.4l.2-11.1a.29.29 0 00-.28-.27z" fill="#000"/><path d="M352.05 391.76l-.44 11.38h2.41v-6.4l-1.97-4.98z" fill="#139988"/><path opacity=".2" d="M352.05 391.76l-.44 11.38h2.41v-6.4l-1.97-4.98z" fill="#000"/><path d="M335.78 379.06l-.02.01 2.01 2.77.8 1.1 4.33-4.26.16-.16-1.52-2.59-.02-.03-5.74 3.16z" fill="#139988"/><path d="M531.54 316.31h-246.4v1.95h246.4v-1.95z" fill="#fff"/><path d="M106.84 448.68h161.54v-361H106.84v361z" fill="#B2B6BB"/><path d="M106.84 448.68H265.2v-361H106.84v361z" fill="#DADDDF"/><path d="M256.86 448.68V95.86H115.18v352.82h141.68z" fill="#B2B6BB"/><path d="M153.64 257.41c-8.03-2.17-16.08 4.84-24.1 2.66-1.7-.44-3.08-2.7-3.08-4.36 0-1.68 1.39-2.15 3.09-1.71 8.03 2.17 16.08-4.84 24.1-2.66 1.69.44 3.08 2.7 3.08 4.37s-1.4 2.14-3.09 1.7z" fill="#fff"/><path opacity=".1" d="M117.35 448.68V95.86h-2.16v352.82h2.16z" fill="#000"/><path d="M296.96 223.29l-15.64-40.5a13.82 13.82 0 00-4.1-5.68 14.2 14.2 0 00-6.4-3l-19.19-3.63-24.77.23-20.46 3.51a14.19 14.19 0 00-7.3 3.6 13.78 13.78 0 00-4.04 6.99l-11.63 50.18a7.95 7.95 0 002.23 7.4 8.3 8.3 0 009.03 1.72l13.75-5.71-.22 16.68c0 .9.37 1.77 1.02 2.41.66.64 1.54 1 2.46 1h54.86c.92 0 1.8-.36 2.45-1a3.39 3.39 0 001.02-2.41l-.18-13.68 23.39-9.6a6.75 6.75 0 003.6-3.53c.7-1.58.74-3.37.12-4.98zm-26.93 3.25v-25.6l7.84 21.1-7.84 4.5z" fill="#139988"/><path d="M237.36 176.7l-3.89 64.44 6.6 11.57 7.08-11.58-5.41-64.44h-4.38z" fill="#21252B"/><path opacity=".3" d="M237.3 177.9l2.07 1.38 2.47-1.39-.11-1.85-4.25.47-.19 1.38z" fill="#000"/><path d="M236.34 176.06a6.67 6.67 0 003.28 2.53s1.57-.44 3.14-2.53l-2.38-5-1.7.58-2.34 4.42z" fill="#21252B"/><path d="M247.86 203.37h-.71l-15.71-20.57c-4.57-5.91-6.34-10.44-5.28-13.46a4.12 4.12 0 012.7-2.65h20.98l.13.1c5.77 4.7 2.72 13.66 2.58 14.04-3.7 8.2-4.22 21.97-4.22 22.1v.45h-.47zm-18.8-35.76a3.27 3.27 0 00-2.02 2.06c-.64 1.86-.27 5.56 5.15 12.58l15.23 19.93c.15-2.98.93-14.35 4.26-21.7 0-.04 2.92-8.55-2.19-12.87h-20.44z" fill="#DADDDF"/><path d="M249.07 166.17l-2.86-20.73-17.92 1.44.14 19.84 10.94 4.69 9.7-5.24z" fill="#FC9D9D"/><path d="M248.18 137.98s3.64 23.67-9.66 24.63c-12.98.96-13.38-22.97-13.38-22.97l-.36-6.85 16.73-2.88 4.22 2.14 2.45 5.93z" fill="#FC9D9D"/><path opacity=".15" d="M248.49 160.65l-.98-6.5c-1.2 4.19-3.69 7.68-8.05 8.38h.05l-.93.13c-3.47.26-6.36-1.3-8.55-4.68a.29.29 0 00-.18-.12.29.29 0 00-.34.21c-.02.08 0 .16.04.22 2.31 3.58 5.38 5.24 9.07 4.98a9.5 9.5 0 002.27-.44c2.72.26 5.45-.52 7.6-2.18z" fill="#000"/><path d="M245.02 132.7s4.22-2.76 6.22 1.96c1.7 3.97-1.15 8.3-1.15 8.3l-2.44-.27c-1.02-.04-1.74-.52-1.83-1.48l-.8-8.52z" fill="#21252B"/><path d="M240.63 125.16c.78.06 1.56.1 2.34.17 2.99.21 4.9 2.18 5.08 4.48.35 4.5-3.56 5.68-5.16 5.8l-13.12 1.1c-.52.04-1 .28-1.34.66-.34.39-.51.88-.49 1.4l.22 4.1c.02.27-.06.54-.23.75-.18.21-.43.35-.7.39l-.8.08-.89 1.09c-5.16-1.22-6.3-15.44 2.19-18.47 4.18-1.5 7.3-2.01 12.9-1.55z" fill="#21252B"/><path d="M226.47 145.49a2.09 2.09 0 00-1.32-1.75 2.2 2.2 0 00-2.19.31l-.04.05c-2.27 1.91-.8 7.94 4.18 7.42l-.63-6.03zM251.25 142.3l-.05-.04a2.19 2.19 0 00-2.98.82 2.1 2.1 0 00-.26 1.1l.26 5.73c5.03-.14 5.52-6.04 3.03-7.6z" fill="#FC9D9D"/><path d="M227.08 146.23a.59.59 0 01-.53.61.61.61 0 01-.42-.09.59.59 0 01-.25-.34l-.57-3.89 1.65.05.12 3.66zM248.98 144.66c0 .15-.04.3-.14.41a.59.59 0 01-.4.2.61.61 0 01-.41-.09.6.6 0 01-.25-.34l-.58-3.89 1.65.05.13 3.66zM233.1 148.85a1.14 1.14 0 001.13-1.36 1.16 1.16 0 00-1.57-.83c-.21.1-.4.24-.52.43a1.12 1.12 0 00.52 1.68c.14.05.29.08.44.08z" fill="#21252B"/><path d="M232.56 147.85a.27.27 0 00.27-.26.26.26 0 00-.15-.28.28.28 0 00-.22 0 .26.26 0 00-.16.28c0 .03 0 .07.02.1a.26.26 0 00.24.16z" fill="#fff"/><path d="M242 148.2a1.17 1.17 0 001.06-.7 1.12 1.12 0 00-.25-1.24 1.16 1.16 0 00-1.97.8c0 .3.12.6.34.8.21.22.5.34.81.34z" fill="#21252B"/><path d="M241.46 147.24a.27.27 0 00.25-.16c.02-.05.03-.1.01-.16a.27.27 0 00-.49-.1.26.26 0 00.03.33c.06.06.13.08.2.09z" fill="#fff"/><path opacity=".15" d="M238.12 153.1l.94-.1c.04 0 .09 0 .13-.02a.34.34 0 00.21-.33.32.32 0 00-.12-.23.35.35 0 00-.27-.07l-.93.09a.73.73 0 01-.54-.16.7.7 0 01-.21-.77.7.7 0 01.38-.4.7.7 0 01.28-.07.34.34 0 00.35-.35c0-.04-.02-.09-.04-.13a.33.33 0 00-.21-.16 1.36 1.36 0 00-1.07.45 1.3 1.3 0 00-.31.97 1.25 1.25 0 00.88 1.22c.17.05.35.07.53.05z" fill="#000"/><path d="M245.2 144.05l-5.03.26-.67.04-4.38.26h-.05l-5.64.3a1.7 1.7 0 00-1.16.56 1.65 1.65 0 00-.4 1.2l.09 1.26a4.38 4.38 0 001.47 3.12 4.55 4.55 0 005.02.72 4.51 4.51 0 002.31-2.58c.2-.56.27-1.15.23-1.74l-.09-1.26c-.01-.36-.16-.7-.4-.96l1.74-.09c-.2.3-.3.65-.27 1l.1 1.27a4.41 4.41 0 003 3.95 4.6 4.6 0 004.88-1.23 4.42 4.42 0 001.15-3.2l-.1-1.27a1.6 1.6 0 00-.54-1.19 1.69 1.69 0 00-1.26-.42zm-8.99 2.14l.1 1.26c.05 1-.3 1.98-.97 2.72a3.86 3.86 0 01-6.69-2.28l-.1-1.27a.99.99 0 01.26-.72 1.03 1.03 0 01.7-.33l5.66-.3h.04a.94.94 0 01.93.55.9.9 0 01.07.37zm10.19.7c.06 1-.29 1.97-.96 2.72a3.86 3.86 0 01-6.7-2.29l-.08-1.26a1 1 0 01.25-.71c.18-.2.42-.32.68-.34l.66-.04 5.03-.26c.27-.01.53.07.72.25a1 1 0 01.35.66l.05 1.27z" fill="#21252B"/><path d="M235.28 154.88l5.65-.4.1.02.07.06c.03.03.04.06.05.09v.1a3.24 3.24 0 01-6 .48v-.05a.2.2 0 01-.04-.09c0-.03 0-.06.02-.1a.2.2 0 01.15-.12zM210.27 442.14h12.3l2.27-21.7-14.53.06-.04 21.64z" fill="#fff"/><path opacity=".15" d="M210.27 426.77h13.81l-.97 10.33-1.69-.22-.67-5.08c-.18-1.36-.35-2.43-1.75-2.56l-8.56-.77-.17-1.7z" fill="#000"/><path d="M211.54 433.91l.37-.34c2.78-2.51 7.59-2.48 10.3.12l.2.22a3.26 3.26 0 011.07 2.38v1.38c0 .82.13 1.63.4 2.4l1.27 3.82c.33.93.5 1.9.49 2.88v.48a1.5 1.5 0 01-1.6 1.33h-14.72c-.39.02-.77-.1-1.07-.34-.3-.25-.49-.61-.52-1v-.19c0-1.13.21-2.24.62-3.3l1.46-3.75c.34-.85.52-1.75.53-2.67l.04-1.07c.06-.9.47-1.75 1.15-2.36l.01.01z" fill="#21252B"/><path d="M211.54 433.91l.37-.34c2.78-2.51 7.59-2.48 10.3.12l.2.22a3.26 3.26 0 011.07 2.38v1.38c0 .82.13 1.63.4 2.4l1.27 3.82c.33.93.5 1.9.49 2.88v.48a1.5 1.5 0 01-1.6 1.33h-14.72c-.39.02-.77-.1-1.07-.34-.3-.25-.49-.61-.52-1v-.19c0-1.13.21-2.24.62-3.3l1.46-3.75c.34-.85.52-1.75.53-2.67l.04-1.07c.06-.9.47-1.75 1.15-2.36l.01.01z" fill="#21252B"/><path d="M207.73 447.07v.19c.03.38.22.74.52.99.3.25.68.37 1.07.34h14.73a1.5 1.5 0 001.6-1.33v-.48c0-.22 0-.43-.03-.65h-17.84c-.03.31-.05.63-.05.94zM220.39 431.9c.09.42.09.84 0 1.25l-.31 6.52a2.88 2.88 0 01-.87 1.92c-.52.52-1.22.82-1.96.85h-.07a2.94 2.94 0 01-2.22-.94 2.86 2.86 0 01-.74-1.65l-.74-6.62c-.1-.67.03-1.35.4-1.91.48-.7 1.41-.93 3.3-.93.01 0 2.84 0 3.2 1.51z" fill="#000"/><path d="M258.18 426.95l.82 12.6 23.96 1.16-7.96-8.38c-1.53-1.13-2.44-3.63-2.76-5.53l-14.06.15z" fill="#fff"/><path opacity=".15" d="M266.35 428.6a5.3 5.3 0 013.03.9c.9.6 1.58 1.46 1.95 2.45l1.54 4.03 5.1-.48-2.98-3.14c-1.52-1.14-2.43-3.63-2.75-5.53l-14.06.15.12 1.78 8.05-.16z" fill="#000"/><path d="M258.53 434.23s5.43 3.53 11.53.47a3.85 3.85 0 011.22-3.58c1-.83 2.6-1.1 3.15-.33.56.77 1.9 2.03 3.36 3.88 2.02 2.54 4.76 5.47 6.87 5.93 3.9.86 11.72-3.28 12.27 5.37 0 0-7.66 3-14.8 2.25a56.92 56.92 0 01-13.6-3.39v3.48h-11.11s-2.52-9.75 1.1-14.08z" fill="#21252B"/><path d="M256.6 442.79c.12 1.87.4 3.73.83 5.56h11.1v-3.48a57.14 57.14 0 0013.62 3.4c7.1.75 14.79-2.26 14.79-2.26-.04-.66-.14-1.32-.3-1.98a23.44 23.44 0 01-18.03 1.71c-4.07-1.23-7.36-2.09-10.24-2.94 0-.04-9.54-.25-11.76-.01zM284.13 440.52s-6.13 2.2-10.36-1.16c-3.1-2.5-4.72-3.95-3.46-6.94a3.12 3.12 0 012.82-2.01 2.04 2.04 0 011.63.47c2 2.2 6.12 7.9 9.37 9.64z" fill="#000"/><path d="M210.03 257.9l57.87.52 5.52 168.35h-16.07L242.5 290.3a1.9 1.9 0 00-.56-1.17 1.73 1.73 0 00-1.82-.36 1.83 1.83 0 00-1.13 1.55L225.04 426.8h-16.08l1.07-168.88z" fill="#21252B"/><path d="M268.01 258.1h-57.9v6.88h57.9v-6.88z" fill="#000"/><path d="M220.75 258.1h-1.47v6.88h1.47v-6.88zM259.42 258.1h-1.46v6.88h1.46v-6.88z" fill="#242830"/><path d="M244.9 258.05h-11.67c-.26 0-.47.2-.47.46v6.02c0 .26.21.46.47.46h11.67c.26 0 .47-.2.47-.46v-6.02a.47.47 0 00-.47-.46z" fill="#B2B6BB"/><path opacity=".2" d="M226.83 170.89l8.29 8.4 4.25-7.42 4.71 7.41 7.27-8.53-11.98.66-12.54-.52z" fill="#000"/><path opacity=".15" d="M225.23 148.63a.38.38 0 01-.24-.09.37.37 0 01-.12-.2l-.09-.7a2.4 2.4 0 00-.62-1.54.71.71 0 00-.53-.17.35.35 0 01-.4-.26.33.33 0 01.05-.25.35.35 0 01.22-.15c.37-.04.75.06 1.06.27.49.34.8 1.04.89 1.96l.09.7a.43.43 0 01-.31.43z" fill="#000"/><path d="M257.08 206.1h-17.64a.4.4 0 00-.4.39v10.82c0 .21.18.39.4.39h17.64a.4.4 0 00.4-.4V206.5a.4.4 0 00-.4-.4z" fill="#DADDDF"/><path d="M239.46 206.08h17.58c.12 0 .23.05.31.13.08.08.13.19.13.3v1.92h-18.44v-1.92c0-.11.04-.22.12-.3a.45.45 0 01.3-.13z" fill="#139988"/><path d="M257.41 207.85v.14h-18.43v-.14" fill="#fff"/><path opacity=".2" d="M257.08 206.1h-17.64a.4.4 0 00-.4.39v10.82c0 .21.18.39.4.39h17.64a.4.4 0 00.4-.4V206.5a.4.4 0 00-.4-.4z" fill="#000"/><path d="M248.6 202.45h-2.41v1.17h2.42v-1.17z" fill="#B2B6BB"/><path d="M256.6 206.1h-17.63a.4.4 0 00-.4.39v10.82c0 .21.18.39.4.39h17.64a.4.4 0 00.4-.4V206.5a.4.4 0 00-.4-.4z" fill="#DADDDF"/><path d="M239 206.08h17.57c.12 0 .23.05.31.13.08.08.13.19.13.3v1.92h-18.44v-1.92c0-.11.05-.22.13-.3.08-.08.2-.13.3-.13z" fill="#139988"/><path opacity=".2" d="M239 206.08h17.57c.12 0 .23.05.31.13.08.08.13.19.13.3v1.92h-18.44v-1.92c0-.11.05-.22.13-.3.08-.08.2-.13.3-.13z" fill="#fff"/><path d="M244.1 209.84h-3.76v4.5h3.77v-4.5z" fill="#fff"/><path opacity=".3" d="M248.64 206.74h-2.71a.3.3 0 00-.3.29c0 .16.14.29.3.29h2.71a.3.3 0 00.3-.3.3.3 0 00-.3-.28z" fill="#000"/><path d="M255.2 209.73h-9.22v.29h9.22v-.3z" fill="#B2B6BB"/><path opacity=".3" d="M248.47 210.82h-2.49v.3h2.5v-.3z" fill="#000"/><path d="M248.4 207.16h-2.08a.4.4 0 01-.3-.13.38.38 0 01-.09-.3l.28-2.02h2.31l.28 2.02c0 .05 0 .1-.02.16a.39.39 0 01-.38.27zM255.2 211.37h-9.22v.3h9.22v-.3z" fill="#B2B6BB"/><path opacity=".3" d="M249.3 214.62h-3.28v.29h3.27v-.3zM255.2 216.22h-3.26v.3h3.27v-.3z" fill="#000"/><path d="M254.72 216.74h-2.3v.29h2.3v-.3zM255.24 215.17h-9.22v.29h9.22v-.3z" fill="#B2B6BB"/><path opacity=".3" d="M248.47 212.43h-2.49v.3h2.5v-.3z" fill="#000"/><path d="M255.2 212.98h-9.22v.29h9.22v-.3zM255.2 213.52h-9.22v.3h9.22v-.3z" fill="#B2B6BB"/><path d="M248.66 203.53h-2.64v1.8h2.64v-1.8z" fill="#139988"/><path opacity=".2" d="M248.66 203.53h-2.64v1.8h2.64v-1.8z" fill="#000"/><path d="M248.22 207.14h-2.09a.4.4 0 01-.16-.04.38.38 0 01-.13-.1.38.38 0 01-.1-.3l.28-2h2.3l.28 2a.37.37 0 01-.22.4.38.38 0 01-.16.04zM248.44 202.45h-2.42v1.19h2.42v-1.2z" fill="#DADDDF"/><path d="M248.44 203.53h-2.64v1.8h2.63v-1.8z" fill="#139988"/><path opacity=".2" d="M248.44 203.53h-2.64v1.8h2.63v-1.8z" fill="#fff"/><path d="M240.51 215.04h-.13v.95h.13v-.95zM240.77 215.04h-.2v.95h.2v-.95zM240.88 215.04h-.06v.95h.06v-.95zM241.01 215.04h-.06v.95h.06v-.95zM241.22 215.04h-.14v.95h.14v-.95zM241.47 215.04h-.2v.95h.2v-.95zM241.59 215.04h-.07v.95h.06v-.95zM241.72 215.04h-.06v.95h.06v-.95zM242.29 215.99h.14v-.95h-.14v.95zM242.03 215.99h.2v-.95h-.2v.95zM241.93 215.99h.06v-.95h-.06v.95zM241.8 215.99h.06v-.95h-.07v.95zM242.64 215.04h-.14v.95h.14v-.95zM242.89 215.04h-.2v.95h.2v-.95zM243 215.04h-.06v.95h.06v-.95zM243.13 215.04h-.06v.95h.06v-.95zM243.34 215.04h-.14v.95h.14v-.95zM243.6 215.04h-.21v.95h.2v-.95zM243.7 215.04h-.06v.95h.06v-.95zM243.84 215.04h-.06v.95h.06v-.95zM244.05 215.99h.06v-.95h-.06v.95zM243.91 215.99h.07v-.95h-.07v.95z" fill="#139988"/><g opacity=".2" fill="#000"><path opacity=".2" d="M240.51 215.04h-.13v.95h.13v-.95zM240.77 215.04h-.2v.95h.2v-.95zM240.88 215.04h-.06v.95h.06v-.95zM241.01 215.04h-.06v.95h.06v-.95zM241.22 215.04h-.14v.95h.14v-.95zM241.47 215.04h-.2v.95h.2v-.95zM241.58 215.04h-.06v.95h.06v-.95zM241.72 215.04h-.06v.95h.06v-.95zM242.29 215.99h.14v-.95h-.14v.95zM242.03 215.99h.2v-.95h-.2v.95zM241.93 215.99h.06v-.95h-.06v.95zM241.8 215.99h.06v-.95h-.07v.95zM242.64 215.04h-.14v.95h.14v-.95zM242.89 215.04h-.2v.95h.2v-.95zM243 215.04h-.06v.95h.06v-.95zM243.13 215.04h-.06v.95h.06v-.95zM243.34 215.04h-.14v.95h.14v-.95zM243.6 215.04h-.21v.95h.2v-.95zM243.7 215.04h-.06v.95h.06v-.95zM243.84 215.04h-.06v.95h.06v-.95zM244.05 215.99h.06v-.95h-.06v.95zM243.91 215.99h.06v-.95h-.06v.95z"/></g><path d="M243.76 212.66l-.86-.16-.32.38-.08-.12v.03l.13 1.52h.95l.03-.86.15.38.18.48h.2v-1.49a.6.6 0 00-.38-.16z" fill="#139988"/><path d="M242.32 212.15h.04a.49.49 0 00.36-.36.44.44 0 01-.14.25.46.46 0 01-.26.11z" fill="#FB9C9C"/><path d="M242.36 212.56l.43-.24-.04-.24a.5.5 0 01-.33.1h-.1a.44.44 0 01-.4-.23.98.98 0 01-.07-.12v.48l.5.25z" fill="#FB9C9C"/><path d="M242.15 212.13a.49.49 0 01-.2-.18v-.02a1.1 1.1 0 01-.12-.28l-.03-.21.02-.01V211.3l.03-.01.01-.04v-.18l.03-.06a.09.09 0 01.06-.03l.58-.05a.4.4 0 00.1-.03l.03.28c0 .06.03.06.07.06v.31c0 .07-.02.14-.03.2a.44.44 0 01-.14.25.45.45 0 01-.26.12.36.36 0 01-.15 0z" fill="#FB9C9C"/><path d="M242.32 211.41v.06l.02.06.04.06.06.03a.2.2 0 00.07 0 .18.18 0 00.12-.05.15.15 0 00.03-.06v-.11l-.01-.03-.03-.02h-.26l-.02.01-.01.01v.05zm.16.1l-.04-.01a.05.05 0 01-.02-.04v-.02l.02-.02h.02l.02-.01h.02l.01.01.01.02v.06h-.02l-.02.01zM242.06 211.65l.06-.01a.17.17 0 00.1-.1v-.12l-.01-.03-.03-.01h-.25l-.03.01-.02.04v.05c0 .03 0 .05.02.07l.03.06a.2.2 0 00.06.03c.02.01.05.02.07.01zm0-.11c-.01 0-.03 0-.04-.02a.05.05 0 01-.01-.03v-.02l.01-.02h.02l.02-.01.03.01.02.04v.03l-.03.02h-.02z" fill="#FB9C9C"/><path opacity=".15" d="M242.76 212.08l-.04-.3.04.3z" fill="#000"/><path d="M242.36 212.15h-.04a.38.38 0 01-.15 0 .48.48 0 01-.2-.18c.04.07.1.13.17.16.07.04.15.06.23.06h.1a.5.5 0 00.34-.1l-.04-.28a.49.49 0 01-.4.34z" fill="#FB9C9C"/><path opacity=".15" d="M242.36 212.15h-.04a.38.38 0 01-.15 0 .48.48 0 01-.2-.18c.04.07.1.13.17.16.07.04.15.06.23.06h.1a.5.5 0 00.34-.1l-.04-.28a.49.49 0 01-.4.34z" fill="#000"/><path d="M242.62 210.92l.03.28c0 .04.03.06.07.06v-.07h.08v.05a.1.1 0 01.07 0 .42.42 0 000-.32c-.03-.1-.1-.13-.14-.13l-.04.08a.2.2 0 01-.07.05z" fill="#21252B"/><path d="M241.74 211.32v-.06h.07v.06l.03-.01.01-.04v-.18c0-.02.01-.05.03-.06a.1.1 0 01.06-.03l.58-.05.1-.03a.21.21 0 00.12-.14v-.09a.22.22 0 00-.22-.2h-.1c-.2-.02-.4 0-.58.07a.54.54 0 00-.27.34.52.52 0 00.07.42.1.1 0 01.05-.01.1.1 0 01.05 0z" fill="#21252B"/><path d="M241.79 211.45h-.03v-.11a.08.08 0 00-.05-.01h-.04a.2.2 0 00-.04.12c0 .04 0 .08.02.11a.21.21 0 00.2.11l-.06-.22zm-.06.08v-.03a.1.1 0 000-.07h-.01-.01.04l.03.04.01.05v.03l-.01.02h-.03l-.02-.01v-.03zM242.78 211.35v-.1a.1.1 0 01.05-.03.1.1 0 01.06 0 .2.2 0 01.05.22.19.19 0 01-.07.1.19.19 0 01-.11.03v-.22h.02z" fill="#FB9C9C"/><path d="M241.73 211.26V211.43h.03l.02-.01v-.18l-.05.02zM242.79 211.35v-.16h-.08v.18l.08-.02zM242.08 211.44h-.02l-.02.01v.02l-.01.02.01.03.04.02a.05.05 0 00.05-.05l-.01-.04a.05.05 0 00-.04-.01zM242.46 211.41h.04l.01.01.01.02v.06h-.03l-.01.01-.04-.01a.05.05 0 01-.02-.04v-.02l.02-.02h.02z" fill="#21252B"/><path d="M242.06 211.68a.2.2 0 00.14-.06.2.2 0 00.05-.14v-.06-.04h.08v.1c0 .02 0 .05.02.07 0 .03.02.05.04.07l.07.03c.03.01.05.02.08.01a.2.2 0 00.14-.06.2.2 0 00.04-.06.2.2 0 00.01-.08v-.06a.07.07 0 00-.05-.07h-.72a.08.08 0 00-.06.02.08.08 0 00-.02.06v.05a.2.2 0 00.18.22zm.3-.31h.26l.03.01.02.03v.05a.16.16 0 01-.04.13.18.18 0 01-.12.06c-.02 0-.04 0-.06-.02a.18.18 0 01-.06-.03.17.17 0 01-.06-.12v-.05-.02-.02l.02-.01.02-.01zm-.48.07c0-.01 0-.02.02-.03 0 0 .01-.02.03-.02h.26l.02.02v.08c.01.02 0 .05 0 .07 0 .02-.02.04-.03.05a.16.16 0 01-.12.06h-.07a.16.16 0 01-.06-.04.18.18 0 01-.04-.05.16.16 0 01-.01-.07v-.07z" fill="#21252B"/><path d="M242.43 211.79h-.26c.01.03.03.05.06.07a.14.14 0 00.21-.07h-.01z" fill="#fff"/><path d="M242.51 212.75v.03l.08.12.32-.38-.32.31-.08-.08z" fill="#139988"/><path opacity=".2" d="M242.51 212.75v.03l.08.12.32-.38-.32.31-.08-.08z" fill="#000"/><path d="M242.22 212.75l-.05.08-.37-.3.37.36.07-.12v-.02h-.02z" fill="#139988"/><path opacity=".2" d="M242.22 212.75l-.05.08-.37-.3.37.36.07-.12v-.02h-.02z" fill="#000"/><path d="M241.7 211.4h-.04v-.01h.02a.1.1 0 010 .07v.03-.03a.11.11 0 00.02-.07z" fill="#FB9C9C"/><path opacity=".3" d="M241.7 211.4h-.04v-.01h.02a.1.1 0 010 .07v.03-.03a.11.11 0 00.02-.07z" fill="#000"/><path d="M242.47 212.83l-.11.06-.1-.06.01-.03-.1 1.54h.43l-.13-1.5z" fill="#F4F4F4"/><path d="M242.37 212.87a.35.35 0 01-.1-.07v.03l.1.06.1-.06v-.03a.3.3 0 01-.1.07z" fill="#F4F4F4"/><path opacity=".2" d="M242.37 212.87a.35.35 0 01-.1-.07v.03l.1.06.1-.06v-.03a.3.3 0 01-.1.07z" fill="#000"/><path d="M242.36 212.56l-.14.2v.03l.03.03.1.06a.28.28 0 00.1-.07v-.02l-.1-.23z" fill="#F4F4F4"/><path d="M242.8 211.4v.03-.03-.03-.04h-.04c0 .03.02.06.05.07z" fill="#FB9C9C"/><path opacity=".3" d="M242.8 211.4v.03-.03-.03-.04h-.04c0 .03.02.06.05.07z" fill="#000"/><path d="M242.17 212.83l.05-.08.14-.2-.49-.23-.08.2.38.31zM241.08 213.52h-.03l-.15.82h.18v-.82z" fill="#139988"/><path opacity=".2" d="M241.08 213.52h-.03l-.15.82h.18v-.82z" fill="#000"/><path d="M243.58 213.5l-.04.84h.19v-.47l-.15-.38z" fill="#139988"/><path opacity=".2" d="M243.58 213.5l-.04.84h.19v-.47l-.15-.38z" fill="#000"/><path d="M242.36 212.54l.15.21.06.08.32-.31.02-.02-.12-.19-.43.23z" fill="#139988"/><path d="M257 207.85h-18.43v.15h18.44v-.15z" fill="#fff"/><path opacity=".15" d="M249.69 146.84c.09 0 .17-.05.22-.11a.34.34 0 00.09-.24v-.7a1.98 1.98 0 01.4-1.57.7.7 0 01.53-.26.32.32 0 00.24-.08.32.32 0 00.03-.46.34.34 0 00-.22-.11 1.38 1.38 0 00-.98.43c-.44.44-.62 1.14-.58 2.1v.69c-.09.18.04.31.27.31z" fill="#000"/><path d="M228.32 166.31l-1.7 4.4 8.5 7.18 4.25-6.48-11.05-5.1z" fill="#139988"/><path opacity=".2" d="M227.3 217.82l-.67-1.46-5.66 1.85-10.38 1.85.48-26.87a.47.47 0 00-.14-.34.5.5 0 00-.69 0 .47.47 0 00-.14.34l-5.18 28.27c-7.23 2.52-10.18 3.9-10.18 3.9l12.67-2.96-.13.44 20.01-5.02zM272.33 225.43l-2.3 1.11v-25.47l-3.3-8.33-2.26 58.16c-.05 1.14 0 2.28.03 3.42a3.8 3.8 0 01-2.49 3.74l5.89.2a3.45 3.45 0 002.13-3.15l-.18-13.67 3.83-1.58-1.35-14.43z" fill="#000"/><path opacity=".2" d="M253.05 235.8l.94-.92 11.33-7.41-.76 14.3-11.32 2.78-.19-8.75z" fill="#000"/><path d="M249.04 166.08l2.6 4.4-7.56 7.41-4.71-6.48 9.67-5.33z" fill="#139988"/><path d="M229.6 228.1l1.75-1.56c4.05-3.98 3.31-5.74 3.31-5.74l4.39-.81a.81.81 0 00.6-.48.75.75 0 00-.35-.96.8.8 0 00-.37-.1l-4.66-.25 6.86.36a.98.98 0 00.8-.4.88.88 0 00-.16-1.21.93.93 0 00-.4-.19l-5.47-1.08 7.15 1.4a1.03 1.03 0 00.97-.4.96.96 0 00.15-.88.96.96 0 00-.66-.62l-5.78-1.69 7.4.4a1 1 0 00.74-.21.95.95 0 00.35-.67 1 1 0 00-.2-.72c-.16-.2-.39-.34-.64-.38l-8.91-1.26c-.54-.1-1.1-.08-1.63.05-.52.15-.98.44-1.35.83l-4.42 3.64-1.95 6.67 2.48 6.26z" fill="#FA9B9B"/><path opacity=".15" d="M234.22 218.57l5.36.25a.74.74 0 00-.27-.34.76.76 0 00-.41-.14l-.94-.05-3.69-.18a.28.28 0 00-.16.07.27.27 0 00-.09.16c0 .14.07.25.2.23zM241.92 217.3h.07a.87.87 0 00-.54-.55l-2.67-.55-2.92-.58 2.51.5-2.48-.5a.22.22 0 00-.17.02.21.21 0 00-.1.14c0 .06 0 .11.03.16.04.05.09.09.14.1l6.13 1.26zM245.94 213.55l-9.63-.45 1.3.36h.2l-.11-.03 7.41.4a1 1 0 00.83-.28z" fill="#000"/><path d="M255.89 234.67l7.16 7.59s-3.78 1.49-4.95 2.16c-8.73 5.04-11.34 4.57-11.34 4.57a.94.94 0 01-.88-.06 1.36 1.36 0 01-.57-1.29.83.83 0 01.36-.62l.97-.53-.66.38a1.23 1.23 0 01-1.07.06 1.18 1.18 0 01-.7-.8 1.28 1.28 0 01.68-1.38l.46-.25-.49.3a1.25 1.25 0 01-1.74-.48 1.22 1.22 0 01.37-1.65l.54-.37-.5.35a1.18 1.18 0 01-.89.17 1.16 1.16 0 01-.73-.53 1.13 1.13 0 01.37-1.47l5.66-2.63-2.07-4.07a1.66 1.66 0 01.88-2.3.39.39 0 01.22-.03c.07.01.13.04.19.1l2.01 2.77c.15.2.35.35.58.44l3.34 1.25 2.8-1.68z" fill="#FC9D9D"/><path opacity=".15" d="M245.75 246.94l.57-.28.2-.28s-1.54.54-2.08.23a1.22 1.22 0 001.31.33zM244.68 244.88l.65-.2.35-.4s-2.12.75-2.48.2a1.25 1.25 0 001.48.4z" fill="#000"/><path opacity=".15" d="M244.51 245.03l.14-.12a1 1 0 00-.14.12zM241.93 242.42a1.15 1.15 0 001.55.25h-.02c-.1.08-.18.16-.26.25l.67-.53.49-.24a2.78 2.78 0 01-2.43.27zM245.4 248.29c.09.25.25.48.48.64a.91.91 0 00.88.06s2.6.47 11.34-4.57c1-.59 3.98-1.78 4.75-2.09l-1.04-1.24-4.64 2.95c-9.62 4.98-11.65 4.3-11.78 4.25z" fill="#000"/><path d="M269.85 241.42l23.4-9.61a6.77 6.77 0 003.6-3.53c.7-1.58.74-3.37.13-5l-3.9-10.12-32.22 18.7-6.82 3.48 4.72 10.2 11.14-4.1-.05-.02zM231.34 228.86l-4.26-11.59-5.66 1.86-36.25 8.44-1.72 7.42a7.94 7.94 0 002.21 7.4 8.28 8.28 0 009.03 1.72l13.75-5.71v.08l22.9-9.62z" fill="#139988"/><path opacity=".2" d="M222.38 219.59l3.63 10.22M259.5 233.28l4.87 9.71" stroke="#000" stroke-width=".97" stroke-miterlimit="10"/><path opacity=".2" d="M277.15 220.37s6.73-2.59 8.77-3.07l-8.25 4.6-.52-1.53zM291.27 227.93l-33.74 15.06 1.18 2.55 11.14-4.1 23.4-9.62a6.76 6.76 0 003.6-3.52c.7-1.59.74-3.38.13-5l-1.44-3.7c.95 7.4-4.27 8.33-4.27 8.33zM183.26 236.62a7.96 7.96 0 002.41 5.75 8.28 8.28 0 009.03 1.72l13.74-5.7v.09l22.9-9.64-.85-2.3-33.6 12.97c-12.8 3.36-13.6-1.87-13.63-2.89z" fill="#000"/><path opacity=".3" d="M261.94 265l6.84 161.8 4.56-.12-5.2-161.69h-6.2zM233.36 291.79l-12.9 134.9h4.59l13.94-136.38a1.83 1.83 0 011.13-1.55c.2-.08.43-.12.65-.12.15 0 .3.03.44.08l.04-.58a5.14 5.14 0 00-7.12 1.4c-.44.68-.7 1.45-.77 2.25z" fill="#000"/><path d="M59.4 337.44a3.3 3.3 0 00-2.5 1.2c-4.05 5.12-4.87 15.92-3.2 18.72 1.95 3.3-.07 4.48.4 7.46.4 2.43 3.86 4.27 5.15 4.87a1.11 1.11 0 00.98 0c1.33-.63 5-2.58 5.32-5.03.39-3-1.68-4.12.18-7.48 1.59-2.87.44-13.62-3.78-18.61a3.2 3.2 0 00-2.53-1.12" fill="#139988"/><path opacity=".4" d="M59.4 337.44a3.3 3.3 0 00-2.5 1.2c-4.05 5.12-4.87 15.92-3.2 18.72 1.95 3.3-.07 4.48.4 7.46.4 2.43 3.86 4.27 5.15 4.87a1.11 1.11 0 00.98 0c1.33-.63 5-2.58 5.32-5.03.39-3-1.68-4.12.18-7.48 1.59-2.87.44-13.62-3.78-18.61a3.2 3.2 0 00-2.53-1.12" fill="#fff"/><path d="M88.04 366.87a3.25 3.25 0 00-2.68-.73c-6.49 1.2-14.4 8.75-15.03 11.93-.75 3.75-3.07 3.31-4.73 5.86-1.35 2.07 0 5.7.56 7a1.11 1.11 0 00.72.62c1.43.39 5.5 1.32 7.38-.31 2.31-2 1.52-4.19 5.19-5.48 3.1-1.1 9.51-9.92 9.74-16.4a3.1 3.1 0 00-1.14-2.49M29.86 373.81a2.63 2.63 0 00-.97 2.06c.13 5.4 5.38 12.77 7.96 13.72 3.04 1.1 2.36 2.92 4.27 4.6 1.55 1.36 4.77.75 5.92.47a.92.92 0 00.62-.48c.51-1.1 1.84-4.25.73-5.99-1.36-2.13-3.3-1.78-3.9-4.91-.49-2.65-7.01-9-12.4-10.05a2.72 2.72 0 00-2.24.59" fill="#139988"/><path d="M78.72 385.88a2.34 2.34 0 00-1.99-.34c-4.6 1.31-9.74 7.3-9.97 9.64-.26 2.76-1.97 2.6-2.98 4.56-.82 1.58.42 4.1.91 5a.8.8 0 00.56.4c1.06.18 4.06.57 5.3-.74 1.53-1.6.8-3.12 3.34-4.3 2.16-1.02 6.14-7.81 5.85-12.5a2.28 2.28 0 00-1-1.72M44.34 353.58a2.7 2.7 0 00-1.7 1.54c-1.97 5.04.03 13.83 2.05 15.66 2.38 2.17 1.05 3.59 2.16 5.85.9 1.84 4.11 2.48 5.29 2.66a.95.95 0 00.76-.23c.9-.82 3.35-3.24 3-5.26-.43-2.48-2.35-2.87-1.69-6 .56-2.64-3-10.94-7.58-13.92a2.71 2.71 0 00-2.29-.3M76.27 354.77a2.73 2.73 0 00-2.3-.1c-5.03 2.2-9.95 9.8-9.84 12.5.12 3.18-1.84 3.26-2.69 5.63-.68 1.91 1.12 4.61 1.83 5.55a.9.9 0 00.7.37c1.23.05 4.7.04 5.92-1.64 1.46-2.05.4-3.67 3.12-5.41 2.3-1.48 5.76-9.82 4.67-15.1a2.62 2.62 0 00-1.4-1.8z" fill="#139988"/><path opacity=".2" d="M44.34 353.58a2.7 2.7 0 00-1.7 1.54c-1.97 5.04.03 13.83 2.05 15.66 2.38 2.17 1.05 3.59 2.16 5.85.9 1.84 4.11 2.48 5.29 2.66a.95.95 0 00.76-.23c.9-.82 3.35-3.24 3-5.26-.43-2.48-2.35-2.87-1.69-6 .56-2.64-3-10.94-7.58-13.92a2.71 2.71 0 00-2.29-.3M76.27 354.77a2.73 2.73 0 00-2.3-.1c-5.03 2.2-9.95 9.8-9.84 12.5.12 3.18-1.84 3.26-2.69 5.63-.68 1.91 1.12 4.61 1.83 5.55a.9.9 0 00.7.37c1.23.05 4.7.04 5.92-1.64 1.46-2.05.4-3.67 3.12-5.41 2.3-1.48 5.76-9.82 4.67-15.1a2.62 2.62 0 00-1.4-1.8z" fill="#fff"/><path d="M58.5 355.94a2.75 2.75 0 00-2.11.92c-3.54 4.13-4.57 13.08-3.26 15.46 1.53 2.8-.2 3.73.1 6.22.24 2.03 3.06 3.66 4.11 4.2a.96.96 0 00.8.03c1.13-.48 4.24-2 4.59-4.02.4-2.48-1.28-3.48.39-6.22 1.4-2.31.8-11.3-2.54-15.59a2.66 2.66 0 00-2.07-1M43.79 396.23a2.07 2.07 0 00-.9 1.55c-.25 4.22 3.37 10.32 5.33 11.22 2.3 1.06 1.65 2.44 3.03 3.87 1.12 1.16 3.68.89 4.6.75a.76.76 0 00.51-.35c.49-.82 1.72-3.2.97-4.64-.92-1.75-2.43-1.6-2.71-4.08-.22-2.11-4.87-7.48-9.04-8.64a2.15 2.15 0 00-1.78.32" fill="#139988"/><path opacity=".2" d="M78.72 385.88a2.34 2.34 0 00-1.99-.34c-4.6 1.31-9.74 7.3-9.97 9.64-.26 2.76-1.97 2.6-2.98 4.56-.82 1.58.42 4.1.91 5a.8.8 0 00.56.4c1.06.18 4.06.57 5.3-.74 1.53-1.6.8-3.12 3.34-4.3 2.16-1.02 6.14-7.81 5.85-12.5a2.28 2.28 0 00-1-1.72M58.5 355.94a2.75 2.75 0 00-2.11.92c-3.54 4.13-4.57 13.08-3.26 15.46 1.53 2.8-.2 3.73.1 6.22.24 2.03 3.06 3.66 4.11 4.2a.96.96 0 00.8.03c1.13-.48 4.24-2 4.59-4.02.4-2.48-1.28-3.48.39-6.22 1.4-2.31.8-11.3-2.54-15.59a2.66 2.66 0 00-2.07-1M43.79 396.23a2.07 2.07 0 00-.9 1.55c-.25 4.22 3.37 10.32 5.33 11.22 2.3 1.06 1.65 2.44 3.03 3.87 1.12 1.16 3.68.89 4.6.75a.76.76 0 00.51-.35c.49-.82 1.72-3.2.97-4.64-.92-1.75-2.43-1.6-2.71-4.08-.22-2.11-4.87-7.48-9.04-8.64a2.15 2.15 0 00-1.78.32" fill="#000"/><path d="M59.23 419.48l-.32-.1c.08-.25 7.93-25.68 19.85-32.86l.18.29c-11.82 7.1-19.63 32.42-19.7 32.67z" fill="#139988"/><path d="M58.73 419.48c-1.08-6.52-14.45-22.1-14.59-22.25l.26-.21c.56.64 13.57 15.79 14.67 22.4l-.34.06z" fill="#139988"/><path d="M59.15 419.45l-.34-.04 1.58-13.4a35.43 35.43 0 019.4-20.22l17.39-18.43.24.23-17.38 18.43a35.13 35.13 0 00-9.32 20.03l-1.57 13.4z" fill="#139988"/><path d="M58.68 419.5c-.09-.31-9-30.99-28.23-44.98l.2-.27c19.33 14.04 28.27 44.82 28.36 45.13l-.33.12z" fill="#139988"/><path d="M58.4 357.49h-.33l.75 61.94h.34l-.75-61.94z" fill="#139988"/><path d="M58.65 399.37c-.34-19.62 16.9-43.74 17.05-43.98l.28.19c-.18.24-17.35 24.25-17.02 43.78h-.31z" fill="#139988"/><path d="M58.65 400.29c-.42-7.53-14.4-45.46-14.53-45.86l.31-.1c.14.38 14.13 38.37 14.55 45.93l-.33.03zM59.31 338.27l-.34.02.68 17.67H60l-.68-17.69zM44.53 401.54l-.13.3 5.08 2.1.13-.3-5.08-2.1zM31.24 379.75l-.13.3 8.85 3.55.13-.3-8.85-3.55z" fill="#139988"/><path d="M43.07 359.6l-.27.2 5.92 7.42.27-.2-5.92-7.42zM60.2 364.34l-3.03 10.59.32.09 3.03-10.6-.32-.08zM69.67 358.47l-1.24 8.91.33.05 1.24-8.91-.33-.05zM76.92 378.6l-.32-.09c.84-3.21 2.1-8.1 2.13-8.32h.34c0 .16-1.5 5.92-2.15 8.4M75.99 393.7l-7.55 4.37.17.28 7.55-4.37-.17-.29z" fill="#139988"/><g opacity=".3" fill="#000"><path opacity=".3" d="M59.23 419.48l-.32-.1c.08-.25 7.93-25.68 19.85-32.86l.18.29c-11.82 7.1-19.63 32.42-19.7 32.67z"/><path opacity=".3" d="M58.73 419.48c-1.08-6.52-14.45-22.1-14.59-22.25l.26-.21c.56.64 13.57 15.79 14.66 22.4l-.33.06z"/><path opacity=".3" d="M59.15 419.45l-.33-.04 1.57-13.4a35.43 35.43 0 019.4-20.22l17.39-18.42.25.22-17.39 18.43a35.13 35.13 0 00-9.31 20.03l-1.58 13.4z"/><path opacity=".3" d="M58.68 419.5c-.09-.31-9-30.99-28.23-44.98l.2-.27c19.33 14.04 28.27 44.82 28.36 45.13l-.33.12z"/><path opacity=".3" d="M58.4 357.49h-.33l.75 61.94h.34l-.75-61.94z"/><path opacity=".3" d="M58.65 399.37c-.34-19.62 16.9-43.74 17.05-43.98l.28.2c-.18.23-17.35 24.25-17.02 43.77h-.31z"/><path opacity=".3" d="M58.64 400.29c-.41-7.53-14.39-45.46-14.53-45.86l.32-.1c.14.38 14.13 38.37 14.55 45.93l-.34.03zM59.3 338.27l-.33.02.68 17.67h.33l-.67-17.69zM44.53 401.54l-.13.3 5.08 2.1.13-.3-5.08-2.1zM31.24 379.75l-.13.3 8.85 3.55.13-.31-8.85-3.54z"/><path opacity=".3" d="M43.07 359.6l-.27.2 5.92 7.42.27-.2-5.92-7.42zM60.2 364.33l-3.03 10.6.32.09 3.03-10.6-.32-.09zM69.67 358.47l-1.24 8.91.33.05 1.24-8.91-.33-.05zM76.92 378.6l-.32-.09c.84-3.22 2.1-8.1 2.14-8.33h.33c0 .17-1.5 5.93-2.15 8.4M75.99 393.7l-7.55 4.37.17.28 7.55-4.37-.17-.29z"/></g><path d="M65.2 448.06H52.93c-1.74 0-3.4-.67-4.62-1.88a6.35 6.35 0 01-1.92-4.53v-21.8h25.34v21.8c0 1.7-.69 3.33-1.91 4.53a6.59 6.59 0 01-4.62 1.88" fill="#868A91"/><path d="M59.23 448.06h5.98c1.73 0 3.4-.67 4.62-1.88a6.35 6.35 0 001.91-4.53V422.5l-25.29.3-.07 1.07h18.6v18.18s1.35 5.98-5.75 5.98" fill="#606266"/><path d="M72.35 422.83H45.44a.79.79 0 01-.53-.21.7.7 0 01-.16-.24.7.7 0 01-.06-.28v-1.53c0-.1.02-.2.06-.28a.71.71 0 01.4-.4c.1-.03.2-.05.29-.05h26.91a.74.74 0 01.74.73v1.53c0 .2-.07.38-.21.51a.74.74 0 01-.53.22z" fill="#868A91"/><path d="M73.1 422.1v-1.53a.75.75 0 00-.5-.68.69.69 0 00-.3-.05h-5.33v2.99h5.33a.79.79 0 00.55-.2.75.75 0 00.24-.53z" fill="#606266"/><path d="M567.85 449.86H6.27a.74.74 0 01-.32-.05.8.8 0 01-.28-.16.79.79 0 01.6-1.37h561.58c.11 0 .22 0 .33.05.1.03.2.09.28.16.08.08.14.17.19.26.04.1.07.21.07.32a.8.8 0 01-.26.58.84.84 0 01-.61.2z" fill="#B2B6BB"/><path opacity=".1" d="M409.53 139.98h-22.75v20.91h22.75v-20.91z" fill="#000"/><path d="M530.56 108.25H353.78v115.1h176.78v-115.1z" fill="#B2B6BB"/><path d="M533.2 108.25h-2.64v115.1h2.64v-115.1z" fill="#DADDDF"/><path opacity=".3" d="M533.2 108.25h-2.64v115.1h2.64v-115.1z" fill="#000"/><path d="M526.14 112.8h-167.3v106.46h167.3V112.81z" fill="#DADDDF"/><path opacity=".11" d="M426.88 177.68h-25.34v29.14h25.34v-29.14z" fill="#000"/><path opacity=".1" d="M408.73 138.16h-22.75v25.11h22.75v-25.1z" fill="#000"/><path d="M425.41 176.67h-25.34v28.19h25.34v-28.19z" fill="#fff"/><path opacity=".3" d="M362.06 112.8h-3.23v106.46h3.24V112.81z" fill="#000"/><path d="M407.76 137.2H385v25.12h22.76V137.2z" fill="#fff"/><path d="M404.46 143.87h-16.63a.31.31 0 00-.22.53c.05.06.13.1.21.1h16.64c.09 0 .17-.04.23-.1a.32.32 0 00.07-.34.3.3 0 00-.18-.17.3.3 0 00-.12-.02zM404.46 147.17h-16.63a.32.32 0 00-.23.1.29.29 0 00-.07.1.31.31 0 00.07.34c.06.06.14.1.23.1h16.63c.09 0 .17-.04.23-.1a.32.32 0 000-.45.33.33 0 00-.1-.06.35.35 0 00-.13-.03zM404.46 150.44h-16.63a.31.31 0 00-.22.53c.05.06.13.1.21.1h16.64c.09 0 .17-.04.23-.1a.32.32 0 00.07-.34.3.3 0 00-.18-.17.29.29 0 00-.12-.02zM404.46 157.14h-16.63a.32.32 0 00-.23.09.3.3 0 000 .44c.06.06.14.1.22.1h16.64c.05 0 .08-.02.12-.03a.3.3 0 00.18-.17.33.33 0 00-.07-.34.34.34 0 00-.23-.1zM402.2 153.74h-12.66a.31.31 0 00-.22.53c.05.06.14.1.22.1h12.67c.08 0 .17-.03.22-.1.06-.05.1-.13.1-.22a.31.31 0 00-.1-.22.32.32 0 00-.22-.09zM422.1 184.36h-18.71c-.1 0-.19.04-.26.1a.35.35 0 000 .5c.07.07.16.11.26.11h18.7c.1 0 .2-.04.27-.1a.35.35 0 000-.5.38.38 0 00-.26-.11zM422.1 185.48h-18.71c-.1 0-.19.03-.25.1a.35.35 0 000 .5c.06.07.15.1.25.1h18.7c.1 0 .2-.03.27-.1.06-.06.1-.16.1-.25 0-.1-.04-.18-.1-.25a.38.38 0 00-.26-.1zM422.1 191.78h-18.71a.35.35 0 00-.26.6c.07.07.16.11.26.11h18.7c.1 0 .2-.04.27-.1.06-.07.1-.16.1-.26s-.04-.18-.1-.25a.38.38 0 00-.26-.1zM419.64 194.05h-14.3c-.09 0-.18.04-.25.1a.35.35 0 000 .5c.07.08.16.11.26.11h14.3a.36.36 0 00.36-.35c0-.1-.04-.19-.11-.26a.37.37 0 00-.26-.1zM422.1 197.04h-18.71c-.1 0-.19.04-.25.1a.35.35 0 00-.11.26c0 .09.04.18.1.25.07.06.16.1.26.1h18.7c.1 0 .2-.03.27-.1.06-.07.1-.16.1-.25 0-.1-.04-.19-.1-.25a.38.38 0 00-.26-.1zM419.64 199.31h-14.3c-.09 0-.18.04-.25.1a.35.35 0 000 .51c.07.07.16.1.26.1h14.3a.36.36 0 00.36-.35c0-.1-.04-.19-.11-.25a.37.37 0 00-.26-.1z" fill="#ECECEC"/><g opacity=".11"><path opacity=".11" d="M489.25 167.48h-24.93v26.05h24.93v-26.05z" fill="#000"/><path opacity=".11" d="M489.25 167.48h-24.93v26.05h24.93v-26.05z" fill="#000"/></g><path d="M486.82 165.54h-24.44v26.06h24.44v-26.06z" fill="#fff"/><path opacity=".15" d="M476.8 169.07c0 .31-.12.6-.34.82-.22.22-.52.35-.84.35-.3-.02-.6-.15-.8-.36a1.16 1.16 0 01-.25-1.23 1.16 1.16 0 011.87-.37c.23.2.35.5.37.8zM413.9 179.44a1.12 1.12 0 01-1.13 1.12c-.3 0-.6-.12-.8-.33a1.11 1.11 0 01-.08-1.5 1.15 1.15 0 011-.4 1.14 1.14 0 011.02 1.11" fill="#000"/><g opacity=".11"><path opacity=".11" d="M442.91 125.93h-26.09v26.52h26.1v-26.52z" fill="#000"/><path opacity=".11" d="M416.82 127.1s18.25-3.3 22.85 1.17c4.6 4.47 2.96 24.18 2.96 24.18H416.8l.02-25.34z" fill="#000"/></g><path d="M413.86 123.49s15.38-2.15 19.94 2.32c4.55 4.47 5.84 23.02 5.84 23.02H413.9l-.03-25.34z" fill="#E2E2E2"/><path opacity=".15" d="M396.75 139.76a.88.88 0 01-1.19.78.88.88 0 01-.28-.19.9.9 0 01-.17-.27.9.9 0 01-.05-.32.8.8 0 01.24-.57.84.84 0 01.58-.24c.23 0 .44.08.6.23.16.15.26.36.26.58zM427.65 125.81a.87.87 0 01-.28.6.92.92 0 01-.63.25.88.88 0 01-.61-.25.82.82 0 01-.25-.6.73.73 0 01.05-.34c.04-.1.1-.2.18-.29a.98.98 0 01.29-.2.9.9 0 01.98.2c.17.17.27.4.27.63z" fill="#000"/><path d="M434.39 130.1H419.4a1.04 1.04 0 00-1.04 1.03c0 .27.1.53.3.72.2.2.46.3.74.3h14.98a1.07 1.07 0 00.73-.3c.1-.1.18-.2.23-.33.05-.13.08-.26.08-.4 0-.13-.03-.26-.08-.39a1.04 1.04 0 00-.96-.63zM435.12 135.2h-16.43a.31.31 0 00-.22.08.3.3 0 00-.1.21c0 .04 0 .08.02.12l.08.1a.31.31 0 00.22.07h16.43a.32.32 0 00.22-.08.28.28 0 00.06-.1.24.24 0 00.04-.1.31.31 0 00-.32-.3zM435.12 138.87h-16.43a.3.3 0 00-.22.09.3.3 0 00-.1.2c0 .05 0 .09.02.12l.08.1a.3.3 0 00.22.08h16.43c.04 0 .08 0 .12-.02a.3.3 0 00.16-.16.24.24 0 00.04-.11.31.31 0 00-.32-.3zM435.12 142.53H418.56a.34.34 0 00-.11.07.28.28 0 00-.08.1.27.27 0 000 .24.3.3 0 00.08.1l.1.07a.3.3 0 00.13 0h16.44a.3.3 0 00.24-.07.24.24 0 00.07-.1.27.27 0 000-.24.23.23 0 00-.07-.1.3.3 0 00-.24-.07zM482.68 174.62h-16.43a.31.31 0 00-.32.3c0 .03 0 .07.03.1.01.04.04.07.07.1a.3.3 0 00.22.08h16.43a.3.3 0 00.22-.08.38.38 0 00.07-.1.32.32 0 00.02-.1.31.31 0 00-.32-.3zM482.68 178.28h-16.43a.3.3 0 00-.24.07.28.28 0 00-.08.1.34.34 0 00-.02.12c0 .05 0 .09.02.13a.3.3 0 00.32.17h16.43a.3.3 0 00.24-.07.28.28 0 00.07-.1.26.26 0 00.03-.13c0-.04 0-.08-.03-.12a.27.27 0 00-.07-.1.3.3 0 00-.24-.07zM480.4 181.94h-14.13a.3.3 0 00-.12.02.3.3 0 00-.17.15.25.25 0 00-.03.12c.01.08.04.15.1.21a.3.3 0 00.22.08h14.13a.3.3 0 00.22-.08.28.28 0 00.08-.33.36.36 0 00-.08-.1.3.3 0 00-.1-.05.29.29 0 00-.12-.02z" fill="#B1B5BA"/><g opacity=".1"><path opacity=".1" d="M513.58 129.3H467.8v20.85h45.78V129.3z" fill="#000"/><path opacity=".1" d="M513.58 129.3H467.8v20.85h45.78V129.3z" fill="#000"/></g><path d="M511.72 127.46h-45.79v20.86h45.79v-20.86z" fill="#F4F4F4"/><path d="M506.6 137.59h-34.93c-.37 0-.67.13-.67.3 0 .16.3.29.68.29h34.93c.37 0 .67-.13.67-.3 0-.16-.3-.3-.67-.3zM506.6 134.24h-34.93c-.37 0-.67.13-.67.3 0 .16.3.29.68.29h34.93c.37 0 .67-.13.67-.3 0-.16-.3-.29-.67-.29zM506.6 140.46h-34.93c-.37 0-.67.13-.67.3 0 .16.3.29.68.29h34.93c.37 0 .67-.13.67-.3 0-.16-.3-.29-.67-.29zM506.6 143.33h-34.93c-.37 0-.67.13-.67.3 0 .16.3.29.68.29h34.93c.37 0 .67-.13.67-.3 0-.16-.3-.29-.67-.29zM490.03 130.12a.87.87 0 01-.29.6.91.91 0 01-1.24 0 .82.82 0 01-.25-.6.73.73 0 01.05-.34c.04-.1.1-.2.19-.3a.96.96 0 01.28-.19.9.9 0 01.99.2c.17.17.27.4.27.63z" fill="#B1B5BA"/><defs><linearGradient id="paint0_linear" x1="69.48" y1="405.33" x2="602.93" y2="-124.31" gradientUnits="userSpaceOnUse"><stop stop-color="#139988" stop-opacity=".2"/><stop offset="1" stop-color="#fff" stop-opacity="0"/></linearGradient></defs></svg>