<svg width="596" height="439" fill="none" xmlns="http://www.w3.org/2000/svg"><path d="M36.72 438.47h509.82l48.11-154.62a28.49 28.49 0 00.28-15.96L537.42 57.25a28.39 28.39 0 00-24.56-20.78L154.74.72a28.36 28.36 0 00-26.2 12.17L5.23 192.49A28.46 28.46 0 00.58 213.1l36.14 225.37z" fill="#EFEFEF"/><path d="M36.72 438.47h509.82l48.11-154.62a28.49 28.49 0 00.28-15.96L537.42 57.25a28.39 28.39 0 00-24.56-20.78L154.74.72a28.36 28.36 0 00-26.2 12.17L5.23 192.49A28.46 28.46 0 00.58 213.1l36.14 225.37z" fill="url(#paint0_linear)"/><path d="M444.15 290.29H161.07a6.27 6.27 0 01-6.27-6.28V79.77c0-3.46 2.8-6.27 6.27-6.27h283.08a6.27 6.27 0 016.27 6.27v204.24c0 3.47-2.8 6.28-6.27 6.28z" fill="#139988"/><path opacity=".15" d="M444.15 290.29H161.07a6.27 6.27 0 01-6.27-6.28V79.77c0-3.46 2.8-6.27 6.27-6.27h283.08a6.27 6.27 0 016.27 6.27v204.24c0 3.47-2.8 6.28-6.27 6.28z" fill="#fff"/><path d="M294.48 438.06l19.6-146.26-19.6-13.23 12.17-172.17-12.17-14.57 7.48-76.42 7.03.7-6.25 73.47 10.36 20.8-10.3 160.2 19.49 18.8-23 148.68h-4.81z" fill="#fff"/><path d="M301.97 15.41L153.97.45a25.87 25.87 0 00-23.9 11.06L4.71 193.19a25.97 25.97 0 00-4.27 18.85l36.26 226.42 257.76-.4 19.61-146.26-19.6-13.23 12.17-172.18-12.18-14.57 7.5-76.4z" fill="#DCDCDC"/><path d="M301.97 15.41L153.97.45a25.87 25.87 0 00-23.9 11.06L4.71 193.19a25.97 25.97 0 00-4.27 18.85l36.26 226.42 257.76-.4 19.61-146.26-19.6-13.23 12.17-172.18-12.18-14.57 7.5-76.4z" fill="url(#paint1_linear)"/><path d="M439.46 290.29H156.28a6.23 6.23 0 01-6.22-6.23V79.73a6.23 6.23 0 016.22-6.23h283.18c3.43 0 6.22 2.79 6.22 6.23v204.33a6.23 6.23 0 01-6.22 6.23z" fill="#139988"/><path opacity=".3" d="M439.41 290.29H156.32a6.27 6.27 0 01-6.26-6.28V79.77c0-3.46 2.8-6.27 6.26-6.27h283.1a6.27 6.27 0 016.26 6.27v204.24c0 3.47-2.8 6.28-6.27 6.28z" fill="#fff"/><path opacity=".6" d="M434.34 285.2H161.27a5.59 5.59 0 01-5.58-5.6V83.35c0-3.09 2.5-5.6 5.58-5.6h273.07c3.09 0 5.59 2.52 5.59 5.6V279.6a5.6 5.6 0 01-5.59 5.6z" fill="#fff"/><path d="M412.52 257.82H345.1a.99.99 0 01-.99-.99v-123.4c0-.53.44-.98.99-.98h67.42c.54 0 .98.45.98.99v123.4c0 .54-.44.98-.98.98z" fill="#fff"/><path opacity=".8" d="M416.35 252.15h-61.32a.9.9 0 01-.9-.9V139.02c0-.5.4-.9.9-.9h61.32c.5 0 .9.4.9.9v112.23c0 .5-.4.9-.9.9z" fill="#fff"/><path opacity=".6" d="M419.68 141.7h-2.43v106.87h2.43c.47 0 .84-.38.84-.84V142.55a.84.84 0 00-.84-.84z" fill="#fff"/><path d="M405.06 182.44h-52.5a1.3 1.3 0 01-1.3-1.3V164.8c0-.72.57-1.3 1.3-1.3h52.5c.71 0 1.3.58 1.3 1.3v16.35c0 .72-.59 1.3-1.3 1.3z" fill="#139988"/><path opacity=".5" d="M405.06 182.44h-52.5a1.3 1.3 0 01-1.3-1.3V164.8c0-.72.57-1.3 1.3-1.3h52.5c.71 0 1.3.58 1.3 1.3v16.35c0 .72-.59 1.3-1.3 1.3z" fill="#fff"/><path d="M405.06 158.5h-52.5a1.3 1.3 0 01-1.3-1.31v-16.35c0-.72.57-1.3 1.3-1.3h52.5c.71 0 1.3.58 1.3 1.3v16.35c0 .72-.59 1.3-1.3 1.3z" fill="#139988"/><path d="M403.03 207.76a.25.25 0 01-.25-.25c0-.14.11-.25.25-.25h2.03c.14 0 .26.1.26.25 0 .14-.1.25-.24.25v-.25.25h-2.05zm-2.02 0H399a.25.25 0 01-.26-.25c0-.14.11-.25.25-.25h2.03c.14 0 .25.1.25.25 0 .14-.11.25-.25.25zm-4.05 0h-2.03a.25.25 0 01-.25-.25c0-.14.11-.25.25-.25h2.03c.14 0 .25.1.25.25 0 .14-.11.25-.25.25zm-4.05 0h-2.03a.25.25 0 01-.25-.25c0-.14.11-.25.25-.25h2.03c.14 0 .25.1.25.25 0 .14-.11.25-.25.25zm-4.05 0h-2.03a.25.25 0 01-.25-.25c0-.14.1-.25.25-.25h2.03c.14 0 .25.1.25.25 0 .14-.11.25-.25.25zm-4.05 0h-2.03a.25.25 0 01-.25-.25c0-.14.11-.25.25-.25h2.03c.14 0 .25.1.25.25 0 .14-.11.25-.25.25zm-4.05 0h-2.03a.25.25 0 01-.25-.25c0-.14.1-.25.25-.25h2.03c.14 0 .25.1.25.25 0 .14-.11.25-.25.25zm-4.05 0h-2.03a.25.25 0 01-.25-.25c0-.14.1-.25.25-.25h2.03c.14 0 .25.1.25.25 0 .14-.12.25-.25.25zm-4.06 0h-2.02a.25.25 0 01-.26-.25c0-.14.12-.25.26-.25h2.02c.15 0 .26.1.26.25 0 .14-.11.25-.26.25zm-4.04 0h-2.03a.25.25 0 01-.25-.25c0-.14.1-.25.25-.25h2.03c.14 0 .25.1.25.25 0 .14-.11.25-.25.25zm-4.06 0h-2.02a.25.25 0 01-.26-.25c0-.14.11-.25.26-.25h2.02c.14 0 .26.1.26.25 0 .14-.12.25-.26.25zm-4.05 0h-2.02a.25.25 0 01-.25-.25c0-.14.1-.25.25-.25h2.02c.15 0 .26.1.26.25 0 .14-.11.25-.25.25zm-4.05 0h-2.02a.25.25 0 01-.26-.25c0-.14.11-.25.25-.25h2.03c.14 0 .25.1.25.25 0 .14-.1.25-.25.25zm-4.05 0h-.03a1.55 1.55 0 01-1.37-1.55v-.14c0-.14.11-.25.25-.25s.26.11.26.25v.14c0 .53.4.98.92 1.04.14.01.24.14.23.28a.25.25 0 01-.26.22zm53.96-1.3a.25.25 0 01-.26-.25v-2.03c0-.15.11-.26.26-.26.14 0 .25.11.25.26v2.03c0 .14-.11.25-.25.25zm-55.1-2.16a.25.25 0 01-.26-.26v-2.03c0-.14.11-.25.25-.25s.26.11.26.25v2.03c0 .15-.12.26-.26.26zm55.1-1.9a.25.25 0 01-.26-.25v-2.03c0-.14.11-.25.26-.25.14 0 .25.1.25.25v2.03c0 .14-.11.25-.25.25zm-55.1-2.16a.25.25 0 01-.26-.25v-2.03c0-.14.11-.26.25-.26s.26.12.26.26v2.03c0 .14-.12.25-.26.25zm55.1-1.9a.25.25 0 01-.26-.25v-2.03c0-.14.11-.25.26-.25.14 0 .25.1.25.25v2.03c0 .14-.11.25-.25.25zm-55.1-2.15a.25.25 0 01-.26-.26v-2.03c0-.14.11-.25.25-.25s.26.11.26.25v2.03c0 .14-.12.26-.26.26zm55.1-1.9a.25.25 0 01-.26-.25V192c0-.15.11-.26.26-.26.14 0 .25.11.25.26v2.03c0 .13-.11.25-.25.25zm-55.1-2.16a.25.25 0 01-.26-.26v-2.02c0-.14.11-.25.25-.25s.26.1.26.24v2.03c0 .15-.12.26-.26.26zm55.1-1.9a.25.25 0 01-.26-.25v-.13c0-.53-.4-.98-.93-1.04a.25.25 0 01-.22-.28.25.25 0 01.28-.22c.79.08 1.38.75 1.38 1.54v.13c0 .14-.11.25-.25.25zm-3.18-1.43h-2.03a.25.25 0 01-.25-.25c0-.14.1-.25.25-.25h2.03c.14 0 .25.1.25.25 0 .14-.12.25-.25.25zm-4.06 0h-2.02a.25.25 0 01-.26-.25c0-.14.11-.25.26-.25h2.02c.14 0 .25.1.25.25 0 .14-.1.25-.25.25zm-4.05 0h-2.02a.25.25 0 01-.26-.25c0-.14.11-.25.26-.25h2.02c.15 0 .26.1.26.25 0 .14-.12.25-.26.25zm-4.05 0h-2.03a.25.25 0 01-.25-.25c0-.14.11-.25.25-.25h2.03c.14 0 .25.1.25.25 0 .14-.1.25-.25.25zm-4.05 0h-2.02a.25.25 0 01-.26-.25c0-.14.11-.25.26-.25h2.02c.14 0 .26.1.26.25 0 .14-.12.25-.26.25zm-4.05 0h-2.03a.25.25 0 01-.25-.25c0-.14.11-.25.25-.25h2.03c.14 0 .25.1.25.25 0 .14-.1.25-.25.25zm-4.05 0h-2.03a.25.25 0 01-.25-.25c0-.14.11-.25.25-.25h2.03c.14 0 .25.1.25.25 0 .14-.1.25-.25.25zm-4.05 0h-2.02a.25.25 0 01-.26-.25c0-.14.11-.25.26-.25h2.02c.14 0 .26.1.26.25 0 .14-.12.25-.26.25zm-4.05 0h-2.03a.25.25 0 01-.25-.25c0-.14.11-.25.25-.25h2.03c.14 0 .25.1.25.25 0 .14-.1.25-.25.25zm-4.05 0h-2.03a.25.25 0 01-.25-.25c0-.14.11-.25.25-.25h2.03c.14 0 .25.1.25.25 0 .14-.11.25-.25.25zm-4.05 0h-2.03a.25.25 0 01-.25-.25c0-.14.11-.25.25-.25h2.03c.14 0 .25.1.25.25 0 .14-.11.25-.25.25zm-4.05 0h-2.03a.25.25 0 01-.25-.25c0-.14.11-.25.25-.25h2.03c.14 0 .25.1.25.25 0 .14-.11.25-.25.25zm-4.05 0h-2.01a.26.26 0 01-.26-.25c0-.14.1-.25.25-.25h2.02c.14 0 .25.1.25.25 0 .14-.11.25-.25.25z" fill="#61656D"/><path d="M396.24 155.3h-39.78a.85.85 0 01-.85-.86v-2.66c0-.47.38-.85.85-.85h39.79c.47 0 .85.38.85.85v2.66c0 .47-.39.85-.86.85z" fill="#fff"/><path opacity=".5" d="M364.94 178.53h-8.41c-.92 0-1.66-.75-1.66-1.67v-7.8c0-.92.74-1.66 1.66-1.66h8.4c.92 0 1.67.74 1.67 1.66v7.8c0 .92-.75 1.67-1.66 1.67z" fill="#fff"/><path d="M400.93 146.67h-35.85a.75.75 0 010-1.49h35.85a.75.75 0 010 1.5z" fill="#139988"/><path opacity=".3" d="M400.93 146.67h-35.85a.75.75 0 010-1.49h35.85a.75.75 0 010 1.5z" fill="#fff"/><path d="M401.15 176.8h-30.92a.85.85 0 01-.85-.86v-2.65c0-.48.38-.86.85-.86h30.92c.47 0 .85.38.85.86v2.66c0 .47-.38.85-.85.85z" fill="#fff"/><path opacity=".3" d="M397.1 169.91h-26.97a.75.75 0 010-1.49h26.97a.75.75 0 010 1.5z" fill="#fff"/><path d="M358.64 148.98a3.05 3.05 0 100-6.1 3.05 3.05 0 000 6.1z" fill="#139988"/><path opacity=".3" d="M358.64 148.98a3.05 3.05 0 100-6.1 3.05 3.05 0 000 6.1z" fill="#fff"/><path d="M439.92 94.64H155.69V83.1c0-2.95 2.39-5.34 5.33-5.34h273.56c2.95 0 5.34 2.4 5.34 5.34v11.54z" fill="#139988"/><path d="M275.76 434.3h-72.93c-.6 0-1.12.52-1.12 1.12v1.85c0 .6.52 1.12 1.12 1.12h72.94c.6 0 1.11-.52 1.11-1.12v-1.85c0-.6-.45-1.12-1.12-1.12z" fill="#21252B"/><path opacity=".6" d="M275.76 434.3h-72.93c-.6 0-1.12.52-1.12 1.12v1.85c0 .6.52 1.12 1.12 1.12h72.94c.6 0 1.11-.52 1.11-1.12v-1.85c0-.6-.45-1.12-1.12-1.12z" fill="#000"/><path d="M224.58 434.3H97.4c-.6 0-1.11.52-1.11 1.12v1.85c0 .6.52 1.12 1.11 1.12h127.17c.59 0 1.11-.52 1.11-1.12v-1.85c-.08-.6-.52-1.12-1.11-1.12z" fill="#21252B"/><path opacity=".6" d="M97.31 435.04h129.45c.23 0 .37-.14.37-.37 0-.23-.14-.37-.37-.37H97.31c-.22 0-.37.14-.37.37 0 .23.22.37.37.37z" fill="#000"/><path d="M224.5 434.3h-19.16a3.1 3.1 0 01-3.04-2.51l-8.4-84.54a3.06 3.06 0 013.03-3.64h19.15a3.1 3.1 0 013.04 2.52l8.4 84.54a3.1 3.1 0 01-3.03 3.63z" fill="#21252B"/><path opacity=".6" d="M224.5 434.3h-19.16a3.1 3.1 0 01-3.04-2.51l-8.4-84.54a3.06 3.06 0 013.03-3.64h19.15a3.1 3.1 0 013.04 2.52l8.4 84.54a3.1 3.1 0 01-3.03 3.63z" fill="#000"/><path opacity=".6" d="M222.8 434.3h-19.16a3.09 3.09 0 01-3.03-2.51l-8.42-84.54a3.06 3.06 0 013.04-3.64h19.16a3.1 3.1 0 013.03 2.52l8.41 84.54a3.1 3.1 0 01-3.03 3.63z" fill="#000"/><path d="M222.9 434.3h-123a3.09 3.09 0 01-3.04-2.51l-8.41-84.54a3.06 3.06 0 013.03-3.64h122.94a3.1 3.1 0 013.03 2.52l8.41 84.54a3 3 0 01-2.95 3.63z" fill="#21252B"/><path d="M220.1 432.15H101.77c-1.41 0-2.6-.99-2.9-2.4l-7.64-80.55a2.91 2.91 0 012.89-3.46h118.26c1.4 0 2.6.99 2.89 2.4l7.66 80.55c.34 1.84-1 3.46-2.83 3.46z" fill="#fff"/><path d="M220.17 432.15H101.7a3.01 3.01 0 01-3-2.73l-7.53-80.62a3 3 0 013-3.28l117.85.22a3.01 3.01 0 012.98 2.7l8.17 80.4a3.02 3.02 0 01-3 3.31z" fill="#139988"/><path opacity=".7" d="M220.17 432.15H101.7a3.01 3.01 0 01-3-2.73l-7.53-80.62a3 3 0 013-3.28l117.85.22a3.01 3.01 0 012.98 2.7l8.17 80.4a3.02 3.02 0 01-3 3.31z" fill="#fff"/><path d="M133.5 400.82h-15.06l-2.08-5.73c-3.32 2.18-6.18.48-6.18.48l-2.2-19.58h22.72l2.8 24.83zM192.88 368.41h-81.2a5.78 5.78 0 010-11.57h81.2a5.79 5.79 0 010 11.57zM124.97 422.5h-12.55l-1.54-13.71h12.55l1.54 13.71zM142.22 422.5h-12.55l-1.53-13.71h12.54l1.54 13.71z" fill="#fff"/><path d="M184.19 269.45c3.64 2.79 7.44 14.36 9.16 24.22 1.82 10.5-1.96 12.59 7.24 18.32 5.03 3.13 2.03 6.22 2.93 10.05.89 3.83.75 8.14-1.53 11.33-1.58 2.22-5.56 5.31-8.1 6.3-2.85 1.14-6.03 1.75-9.02 1.06-3.77-.86-6.86-3.69-8.87-7-4.72-7.75-4.12-17.46-4.3-26.55-.3-13.71-2.74-27.27-5.2-40.76" fill="#263238"/><path d="M196.97 328.37a8.59 8.59 0 10-.01-17.18 8.59 8.59 0 00.01 17.18z" fill="#263238"/><path d="M231.14 374.04s-15.53-39.88-16.11-40.85l-.07-.2a15.45 15.45 0 00-9.06-7.19l-13.53-3.76-3.5-.98-30.1-.25-5.3 1.1-14.57 3.17a12.18 12.18 0 00-9.33 14.53 977.04 977.04 0 013.82 17.96l4.47 27.88a58.7 58.7 0 011.17 15.75c-1.04 14.72-5.37 30.95-5.37 30.95h80.32s-9.57-30.5-5.23-45.47l2.59-8.04 7.19 12.2c2.13 4.29 6.27 6.15 10.68 4.14l1.93-20.94z" fill="#139988"/><path d="M211.2 378.51l9.65 16.22a10.2 10.2 0 0018.96-5.98l-1.1-14.95-2.6-41.34-12.75-.23-3.44 32.18" fill="#139988"/><path opacity=".6" d="M223.03 335.25l13.28.3-.2-3.1-12.77-.12-.3 2.92z" fill="#000"/><path d="M227 339.14a1.1 1.1 0 11-.8 2.06 1.1 1.1 0 01.8-2.06z" fill="#fff"/><path opacity=".6" d="M233.15 350.5c.3.12.45.46.36.7l-1.03 3.36c-.11.3-.45.45-.69.35-.3-.11-.45-.45-.35-.7l1.02-3.35c.05-.32.39-.47.7-.36zM171.78 336.56c.4.06.78.06 1.17.06 6.73 0 12.94-3.5 16.76-9l3.56-5.33-.97-.25-1.75-.52-23.69 1.3-11.33-1.36-2.07.45-.97.2.45.64 3.5 5a20.15 20.15 0 0015.34 8.8z" fill="#000"/><path d="M140.2 317.5s19.4-3.23 7.67-25.46l13.82-15.37s-3.03 1.41-1.22 9.28c1.59 6.93 6.03 15.8 7.47 24.64.4 2.47-.1 8.93-2.5 12.56-1.04 1.58-3.48 2.55-3.48 2.55l-8.6 3.96-13.17-12.16zM145.1 270.21a13.61 13.61 0 00-13.15-4.25 13.66 13.66 0 005.95 26.66c2.2-.49 4.14-1.49 5.75-2.83a13.66 13.66 0 011.46-19.57z" fill="#263238"/><path d="M148.23 276.32a13.63 13.63 0 00-3.12-6.1 13.67 13.67 0 00-1.46 19.57 13.7 13.7 0 004.58-13.47z" fill="#139988"/><path d="M165.97 259.81a8.55 8.55 0 00-5.91 3.14c-.38.47-.9.79-1.48.9-.97.2-2.63.65-4.77 1.83-7.7 4.28-11.2 11.57-7.85 21.72 2.28 6.95 6.1 11.83 12.66 13.74 1.44.42-1.72-13.4 2.24-21.47.64-1.3 1.4-2.46 2.21-3.52a8.6 8.6 0 102.9-16.34z" fill="#263238"/><path d="M181.62 290.4l2.98 26.84a4.24 4.24 0 003.04 3.57l2.92.77-2.92 4.22a17.74 17.74 0 01-14.69 7.84c-.32-.06-.71-.06-1.03-.06a17.78 17.78 0 01-13.47-7.72l-3.04-4.4 2.59-.72a4.16 4.16 0 003.04-3.9l.65-22.62 19.93-3.83z" fill="#FB9C9C"/><path d="M191.1 290.34l-6.89-16.81a6.05 6.05 0 00-7.86-3.3l-16.85 6.93c-2.39 1-3.55 3.7-2.55 6.1l7.44 18.13a13.9 13.9 0 0018.17 7.62l.95-.4a14.01 14.01 0 007.6-18.27z" fill="#FB9C9C"/><path d="M175.5 290.8a1.5 1.5 0 100-2.98 1.5 1.5 0 000 2.99z" fill="#21252B"/><path d="M176.3 289.89a.32.32 0 100-.65.32.32 0 000 .65z" fill="#fff"/><path d="M186.45 286.84a1.5 1.5 0 100-2.98 1.5 1.5 0 000 2.98z" fill="#21252B"/><path d="M187.35 285.81c.18 0 .33-.14.33-.32a.32.32 0 10-.33.32z" fill="#fff"/><path opacity=".3" d="M184.71 292.86a1.8 1.8 0 00-2.4-.93c-.18.07-.3.32-.2.56.06.18.3.3.55.21.47-.23.96 0 1.2.47.24.46 0 .96-.46 1.2l-1.84.8c-.19.07-.3.32-.22.56.07.19.32.3.56.22l1.84-.81c.9-.4 1.34-1.45.97-2.28z" fill="#000"/><path d="M189.71 280.02c-.45 2.37-1.23 4.03-1.23 4.03l-3.33-8.1a1.33 1.33 0 00-1.9-.7c-3.05 1.66-10.77 5.08-17.35 1.53 0 0-.18 5.24-4.68 7.62l.91 2.15a21.73 21.73 0 011.66 7.47c.04.67-.77 1.1-1.33.69-.92-.64-2.29-1.58-2.4-1.48-.77.9-1.16 6.5-2 5.49-1.94-2.33-4.78-5.24-7.18-8.64l-2.94-.11c1.66-1.91.54-4.06.54-4.06-2.36-5-3-10.98 1.12-18.05 4.52-9.18 24.5-14.98 32.57-1.86.24.46.72.84 1.22.87 1.4.1 3.48 1.68 5 6.1.45 1.4 1.32 7.05 1.32 7.05z" fill="#263238"/><path d="M164.55 303.5l-1.4-7.16c-1.6-6.56-9.66-4.72-7.79 1.73 1.87 6.5 8.48 5.48 8.48 5.48l.71-.06z" fill="#FB9C9C"/><path opacity=".3" d="M157.01 295.04c.13.2.39.2.59.07.45-.38.9-.57 1.3-.5.39 0 .7.34 1.09.8.51.65.75 1.88.75 2.08l.12.78c.06.65.97.4.91-.12l-.05-.71a5.45 5.45 0 00-.95-2.48c-.44-.72-1.02-1.11-1.66-1.19-.65-.07-1.3.18-1.95.7-.2.12-.2.38-.15.57z" fill="#000"/><path d="M184.9 280.8a5.87 5.87 0 00-3.38 3.98c-1.8-.04-3 .8-3.53 1.28a6.09 6.09 0 00-6.29-.83 6.08 6.08 0 00-3.03 8 6.06 6.06 0 007.98 3.03 6.08 6.08 0 003.03-8 6.6 6.6 0 00-1.14-1.65c.42-.36 1.43-1 2.77-1.07a5.7 5.7 0 00.47 3.2 6.06 6.06 0 007.98 3.05 6.08 6.08 0 003.04-8 5.9 5.9 0 00-7.9-3zm-8.62 14.83a5.3 5.3 0 11-4.37-9.64 5.3 5.3 0 014.37 9.64zm13.18-4.5a5.3 5.3 0 11-4.37-9.63 5.3 5.3 0 014.37 9.64z" fill="#fff"/><path d="M161.93 302.62a1.3 1.3 0 100-2.6 1.3 1.3 0 000 2.6z" fill="#139988"/><path opacity=".15" d="M162.75 302.37c-.2.2-.45.32-.71.31a1.35 1.35 0 01-1.41-1.24c-.06-.46.14-.84.47-1.1-.14.26-.2.52-.2.78.05.77.75 1.37 1.53 1.31.13 0 .2 0 .32-.06zM161.33 308.03l2.22-4.56-2.13.03-.09 4.53zM183.9 310.87c-1.19-.07-2.23-.3-3.04-.54-2.85.69-5.19.5-6.73.23a.42.42 0 01-.32-.5.42.42 0 01.5-.32c1.26.23 3.04.41 5.24.03.13-.05.27-.03.39-.07.32-.05.63-.16.96-.21l.12-.05c.2 0 .44-.09.63-.15l1.58-.58.41-.16.25 2.31z" fill="#000"/><path d="M178.83 299.46c-.24.09-.23.3-.1.46a4.37 4.37 0 004.48.99 4.38 4.38 0 002.82-3.64c0-.2-.2-.34-.38-.28l-6.82 2.47z" fill="#fff"/><path opacity=".15" d="M208.42 352.06v6.02l1.56 2.73a20.69 20.69 0 011.75 16.02l-.52 1.68 9.64 16.22c2.15 3.87 8.12 6.2 12.53 4.19l1.55-.72c-3.69 1.23-8.73-.98-10.22-3.9l-9.42-16.38c1.23-6.1.13-12.45-3.05-17.76l-1.81-3.05-1.42-5.13c-.13-.31-.65-.25-.59.08z" fill="#000"/><path d="M236.2 391.54l.83-.39-.84.4z" fill="#000"/><path d="M199.17 330.53a1.1 1.1 0 100-2.2 1.1 1.1 0 000 2.2zM219.5 355.04a1.1 1.1 0 100-2.2 1.1 1.1 0 000 2.2zM226.42 391.41a1.1 1.1 0 100-2.2 1.1 1.1 0 000 2.2zM140.38 341.03a1.1 1.1 0 100-2.2 1.1 1.1 0 000 2.2zM141.94 371.5a1.1 1.1 0 11-2.2.01 1.1 1.1 0 012.2 0zM164.8 371.83a1.1 1.1 0 11-2.2 0 1.1 1.1 0 012.2 0zM180.52 351.8a1.1 1.1 0 100-2.2 1.1 1.1 0 000 2.2zM161.75 399.71a1.1 1.1 0 100-2.2 1.1 1.1 0 000 2.2zM189.71 386.3a1.1 1.1 0 100-2.2 1.1 1.1 0 000 2.2zM204.34 362.63a1.1 1.1 0 11-2.2 0 1.1 1.1 0 112.2 0zM146.66 423.19a1.1 1.1 0 110 2.2 1.1 1.1 0 010-2.2zM195.93 421.76a1.1 1.1 0 100-2.2 1.1 1.1 0 000 2.2z" fill="#fff"/><path opacity=".6" d="M170.49 417.6c.25.14.32.46.19.72l-1.75 3.05c-.13.26-.45.33-.71.2-.26-.14-.33-.46-.2-.72l1.75-3.05c.13-.25.46-.38.72-.2zM206.68 332.67c.25.13.32.45.19.72l-1.75 3.05c-.13.26-.45.32-.72.2-.25-.14-.32-.46-.19-.72l1.75-3.06c.13-.25.46-.32.72-.19zM186.67 370.4c0 .27-.26.53-.51.53h-3.57c-.25 0-.51-.26-.51-.52s.25-.52.51-.52h3.56c.32 0 .58.26.52.52zM156.76 355.95a.52.52 0 01-.71-.13l-2.07-2.86a.52.52 0 01.13-.71c.2-.13.52-.13.71.13l2.08 2.85c.19.2.12.52-.14.72zM150.03 326.51c.07.33-.19.59-.45.59l-3.5.32a.48.48 0 01-.58-.45.48.48 0 01.45-.59l3.5-.32c.26-.07.52.13.58.45zM197.22 406.2a.52.52 0 01-.71-.13l-2.08-2.86a.52.52 0 01.14-.71c.19-.13.51-.13.71.13l2.07 2.85c.2.2.13.59-.13.72zM221.43 366.84c.14.26.07.58-.19.72l-3.04 1.75c-.26.13-.59.06-.72-.2-.13-.25-.06-.58.2-.71l3.04-1.75c.26-.2.58-.07.71.19zM145.63 399.71c0 .26-.2.52-.45.59l-3.5.65a.62.62 0 01-.58-.45c0-.26.2-.52.45-.59l3.5-.65c.25-.06.51.13.58.45z" fill="#000"/><path d="M232.9 403.56c.04.07 0 .17-.07.2l-.48.25-.14-.28.48-.24a.16.16 0 01.2.07z" fill="#3F4249"/><path d="M232.9 403.56c.04.07 0 .17-.07.2l-.48.25-.14-.28.48-.24a.16.16 0 01.2.07z" fill="#000"/><path d="M227.15 405l.3.6-27.51 13.83-.24-.47a.16.16 0 01.07-.2l27.38-13.77zM227.58 405.87l.72 1.44-27.38 13.76a.16.16 0 01-.2-.07l-.66-1.3 27.52-13.83z" fill="#3F4249"/><path d="M227.15 405l.3.6-27.51 13.83-.24-.47a.16.16 0 01.07-.2l27.38-13.77zM227.58 405.87l.72 1.44-27.38 13.76a.16.16 0 01-.2-.07l-.66-1.3 27.52-13.83z" fill="#000"/><path d="M198.21 420.31l.54 1.07c.06.12.2.18.34.11l1.5-.75-.76-1.51-1.5.75a.25.25 0 00-.12.33zM227.15 405l1.16 2.3 1.53-.77c.64-.32 2.9-2.1 2.58-2.74-.32-.64-3.1.11-3.74.43l-1.53.77zM204.7 419.17l-2.77 1.4 1.5.47.53-.27 2.23-1.12 6.83-3.43 1.17-.6-.1-.21a.66.66 0 00-1.25.34l-7.32 3.68-.82-.26z" fill="#3F4249"/><path d="M227.46 405.63l-27.52 13.83.13.27 27.52-13.83-.13-.27z" fill="#fff"/><path d="M153.73 351.43l-.21 41.19 31.16 7.75-.6 13.96-40.85-3.85a10.12 10.12 0 01-9.15-9.31l-4.79-63.24 24.44 13.5z" fill="#139988"/><path opacity=".15" d="M153.5 390.86a2.28 2.28 0 001.8 2.18l2.46.52 24.21 6.16-24.35-7.8-2.6-31.58a.76.76 0 00-1.52.06v30.46z" fill="#000"/><path opacity=".6" d="M184.13 414.38l-2.9-.3.74-14.35 2.8.64-.64 14.01zM143.45 397.15a.52.52 0 01-.57.45l-3.5-.32a.53.53 0 01-.45-.57.52.52 0 01.56-.45l3.5.32c.28-.02.48.24.46.57zM134.9 351.9c.28.07.48.33.4.61l-.69 3.45c-.07.28-.33.48-.6.4-.29-.07-.49-.33-.41-.6l.69-3.45c.07-.28.33-.48.6-.41zM174.5 401.1c.27.07.47.33.4.61l-.7 3.45c-.06.28-.33.48-.6.4-.28-.07-.49-.33-.41-.6l.69-3.45c.02-.32.33-.49.61-.41z" fill="#000"/><path opacity=".15" d="M143.8 410.63l40.34 3.75.1-3.27-39.74-4.43a12.54 12.54 0 01-10.63-8.9l.27 3.44c.4 4.65 3.6 8.75 9.66 9.4z" fill="#000"/><path d="M184.68 400.37l26.18 5.69 4.6-.48c.38-.07.8-.08 1.17.1l4.98 2.12-1.48 1.08a.95.95 0 00.08 1.57l4.03 2.21-.25.68c-.25.67-.83.96-1.55.91l-.6-.08c-.3-.01-.62.23-.77.46l-.24.41c-.39.6-1.2.73-1.9.63l-.65-.13c-.34-.08-.65.12-.82.44-.32.76-.79 1.03-1.6.9l-1.26-.16-.38.35c-.72.68-1.42.84-2.33.49l-5.05-1.99-22.76-1.23.6-13.97z" fill="#FA9B9B"/><path opacity=".15" d="M218.29 415.54c-.35-.08-.65.12-.82.44-.32.76-.8 1.03-1.6.9l-1.26-.16-.39.35c-.71.68-1.42.84-2.33.49l-5.05-1.99-22.75-1.23.15-2.97 22.75 1.23 5.05 1.98s3.13 1.33 3.72 1.33c.6 0 1.08-.32 1.43-.66.34-.34 1.1.29 1.1.29z" fill="#000"/><path d="M236.08 304.1s0 10.46-1.15 11.28l1.18 17.08-12.76-.23s3.14-13.54.35-21.34c-.96-2.69-1.88-5.26-1.46-7.3l13.05-.25c.44-.01.79.33.8.76z" fill="#FB9C9C"/><path d="M222.22 303.73l.2-13.4a.96.96 0 011-.94c.48.02.86.39.9.86l1.46 13.34-3.56.14z" fill="#FB9C9C"/><path d="M223.35 332.23l.27-16.58c-3.53-2.24-3.18-12.23-3.2-12.4l-.87-4.96c-.05-.2.07-.4.29-.46.83-.23 1.82.23 2.27 1.25l1 2.28 1.12 3.38s2.3.45 2.98 2.36c1.27 3.6-.33 5.64-.33 5.64l-3.53 19.5z" fill="#FB9C9C"/><path opacity=".15" d="M225.38 302.85l.18 8.56a1.26 1.26 0 002.5.13l1.26-8.27-3.94-.42zM229.32 303.28l-1.21 9.16a1.3 1.3 0 001.05 1.38c.67.15 1.32-.23 1.47-.85l2-9.57-3.31-.12zM233.1 303.21l-1.8 7.74c-.13.6.39 1.3.98 1.42.54.11 1.07-.19 1.25-.71l2.56-7.29s.16-.73-.57-1.04l-2.42-.12z" fill="#000"/><path d="M225.67 303.04l.16 7.86a1.26 1.26 0 002.5.13l.99-7.75a1.4 1.4 0 00-1.24-1.58l-.84-.1c-.85-.09-1.58.58-1.57 1.44z" fill="#FB9C9C"/><path d="M229.28 303.5l-1.1 8.37a1.2 1.2 0 002.35.46l2.12-8.15a1.5 1.5 0 00-1.1-1.83l-.44-.1a1.49 1.49 0 00-1.83 1.25z" fill="#FB9C9C"/><path d="M232.56 303.62l-1.27 6.75a1.09 1.09 0 002.12.51l1.96-6.6c.17-.6-.2-1.22-.8-1.35l-.76-.15a1.07 1.07 0 00-1.25.84z" fill="#FB9C9C"/><path opacity=".15" d="M221.52 349.43l-1.4 13.2-1.95-21.83 3.35 8.63z" fill="#000"/><path d="M95.98 222.95a16.47 16.47 0 1131.11 3.62c-1.6 3.94-6.8 9.08-6.32 11.44l.54 2.69a1 1 0 01-.78 1.17l-2.59.52-2.39.48-2.59.52a.99.99 0 01-1.16-.77l-.55-2.7c-.47-2.35-7.25-5.06-10.26-8.07a16.44 16.44 0 01-5.01-8.9z" fill="#139988"/><path d="M118.53 241.99c-.1-.4-1.7-6.84-2.33-12.64a17.92 17.92 0 01-4.09.83c1.67 5.58 2.69 12.14 2.75 12.55l-.28.04c-.02-.1-1.07-6.87-2.78-12.56-4.92.3-7.61-1.98-8.51-4.47-.53-1.45-.32-3.05.5-3.79.5-.45 1.16-.66 1.93-.6 1.2.1 2.49.87 3.43 2.05 1.09 1.37 2.06 3.8 2.88 6.5a16.71 16.71 0 004.14-.83c-.29-2.8-.34-5.43.13-7.12a5.17 5.17 0 012.37-3.22 2.5 2.5 0 012.01-.2c1.04.37 1.85 1.76 1.93 3.3.13 2.64-1.46 5.8-6.11 7.43.63 5.9 2.29 12.56 2.31 12.66l-.28.07zm.97-23.26a2.6 2.6 0 00-.7.26 4.89 4.89 0 00-2.22 3.04c-.45 1.62-.4 4.18-.12 6.93 4.45-1.59 5.98-4.6 5.86-7.12-.07-1.4-.82-2.71-1.74-3.03-.34-.13-.7-.15-1.08-.08zm-14.55 2.95c-.37.07-.7.24-.96.48-.72.66-.9 2.15-.42 3.48.86 2.37 3.43 4.54 8.15 4.27-.8-2.65-1.75-5.03-2.8-6.34a4.87 4.87 0 00-3.22-1.94c-.26-.01-.52 0-.75.05z" fill="#fff" stroke="#fff" stroke-width="2" stroke-miterlimit="10"/><path d="M121.38 239.07l-10.27 2.09.98 4.9a4.5 4.5 0 005.26 3.43l1.5-.3a4.5 4.5 0 003.32-2.8c.3-.77.36-1.6.2-2.4l-.99-4.92z" fill="#28364C"/><path d="M111.77 244.46c.03 0 .06 0 .09-.02l10.06-3.14c.35-.1.53-.47.4-.82a.68.68 0 00-.83-.43l-10.07 3.15a.63.63 0 00-.4.82c.11.3.43.5.75.44zM112.23 246.7l.08-.01 10.06-3.15c.35-.1.53-.47.41-.82a.68.68 0 00-.84-.42l-10.06 3.14a.63.63 0 00-.4.82c.1.31.43.5.75.45zM113.08 248.85l.09-.02 9.53-2.99c.35-.1.53-.47.4-.81a.68.68 0 00-.83-.43l-9.54 2.99a.63.63 0 00-.4.81c.11.31.44.5.75.45z" fill="#475577"/><path d="M107.9 190.2a.9.9 0 10-1.78.36l1.46 7.24a.92.92 0 001.07.72.9.9 0 00.71-1.07l-1.46-7.25zM120.83 189.74a.91.91 0 00-1.09.7l-1.58 7.2a.91.91 0 001.06 1.1.9.9 0 00.71-.7l1.59-7.21a.9.9 0 00-.13-.69.89.89 0 00-.56-.4zM134.13 196.27a.9.9 0 00-1.63-.4l-4.36 5.97a.9.9 0 00.92 1.43.9.9 0 00.55-.36l4.35-5.96c.15-.2.21-.43.17-.68zM95.3 195.38a.9.9 0 10-1.49 1.05l4.26 6.03a.93.93 0 00.92.37.9.9 0 00.56-1.42l-4.26-6.03zM91.97 209.16l-6.33-3.8a.9.9 0 00-1.35 1c.06.24.21.44.42.57l6.33 3.8a.87.87 0 00.64.1.9.9 0 00.29-1.67z" fill="#32353A"/><path d="M560.7 438.88H29.67a.4.4 0 01-.41-.41c0-.25.2-.4.4-.4h531.09c.2 0 .4.15.4.4s-.2.4-.45.4z" fill="#ADB1B6"/><path d="M315.37 434.3h72.94c.6 0 1.12.52 1.12 1.12v1.85c0 .6-.53 1.12-1.12 1.12h-72.94c-.6 0-1.12-.52-1.12-1.12v-1.85c0-.6.45-1.12 1.12-1.12z" fill="#21252B"/><path opacity=".6" d="M315.37 434.3h72.94c.6 0 1.12.52 1.12 1.12v1.85c0 .6-.53 1.12-1.12 1.12h-72.94c-.6 0-1.12-.52-1.12-1.12v-1.85c0-.6.45-1.12 1.12-1.12z" fill="#000"/><path d="M366.55 434.3h127.17c.6 0 1.11.52 1.11 1.12v1.85c0 .6-.52 1.12-1.11 1.12H366.55c-.59 0-1.11-.52-1.11-1.12v-1.85c.09-.6.52-1.12 1.11-1.12z" fill="#21252B"/><path opacity=".6" d="M493.82 435.04H364.37c-.22 0-.37-.14-.37-.37 0-.23.14-.37.37-.37h129.45c.22 0 .37.14.37.37 0 .23-.22.37-.37.37z" fill="#000"/><path d="M472.84 434.3H492a3.1 3.1 0 003.04-2.51l8.4-84.54a3.06 3.06 0 00-3.03-3.64h-19.16a3.1 3.1 0 00-3.03 2.52l-8.41 84.54a3.1 3.1 0 003.03 3.63z" fill="#21252B"/><path opacity=".6" d="M472.84 434.3H492a3.1 3.1 0 003.04-2.51l8.4-84.54a3.06 3.06 0 00-3.03-3.64h-19.16a3.1 3.1 0 00-3.03 2.52l-8.41 84.54a3.1 3.1 0 003.03 3.63z" fill="#000"/><path d="M367 434.3h123a3.1 3.1 0 003.04-2.51l8.41-84.54a3.06 3.06 0 00-3.03-3.64H375.49a3.1 3.1 0 00-3.04 2.52l-8.41 84.54a3 3 0 002.95 3.63z" fill="#21252B"/><path d="M369.8 432.15h118.34c1.4 0 2.6-.99 2.89-2.4l7.65-80.55a2.91 2.91 0 00-2.89-3.46H377.53c-1.4 0-2.6 1-2.89 2.4l-7.65 80.55a2.86 2.86 0 002.82 3.46z" fill="#139988"/><path opacity=".7" d="M369.8 432.15h118.34c1.4 0 2.6-.99 2.89-2.4l7.65-80.55a2.91 2.91 0 00-2.89-3.46H377.53c-1.4 0-2.6 1-2.89 2.4l-7.65 80.55a2.86 2.86 0 002.82 3.46z" fill="#fff"/><path d="M479.57 365.7h-54.01a4.17 4.17 0 010-8.35h54.01a4.17 4.17 0 010 8.34zM400.65 421.95h-24.43l2.31-24.55h24.44l-2.32 24.55zM479.98 387.7H465.2l1.4-14.85h14.78l-1.4 14.85zM477.17 420.65h-14.79l2.86-27.73h14.78l-2.85 27.73z" fill="#fff"/><path d="M416.88 215.82h-55.64c-.76 0-1.38-.62-1.38-1.38V197.1c0-.77.62-1.38 1.38-1.38h55.64c.76 0 1.38.62 1.38 1.38v17.33c0 .76-.61 1.38-1.38 1.38z" fill="#139988"/><path opacity=".2" d="M416.88 215.82h-55.64c-.76 0-1.38-.62-1.38-1.38V197.1c0-.77.62-1.38 1.38-1.38h55.64c.76 0 1.38.62 1.38 1.38v17.33c0 .76-.61 1.38-1.38 1.38z" fill="#fff"/><path d="M407.16 201.37h-40.73a1.2 1.2 0 010-2.4h40.73a1.2 1.2 0 010 2.4z" fill="#139988"/><path opacity=".15" d="M382.02 212.56h-15.08a1.7 1.7 0 01-1.7-1.7v-2.8c0-.94.76-1.7 1.7-1.7h15.08c.94 0 1.7.76 1.7 1.7v2.8c0 .94-.76 1.7-1.7 1.7z" fill="#fff"/><path opacity=".5" d="M407.16 201.37h-40.73a1.2 1.2 0 010-2.4h40.73a1.2 1.2 0 010 2.4z" fill="#fff"/><path d="M382.02 212.56h-15.08a1.7 1.7 0 01-1.7-1.7v-2.8c0-.94.76-1.7 1.7-1.7h15.08c.94 0 1.7.76 1.7 1.7v2.8c0 .94-.76 1.7-1.7 1.7z" fill="#139988"/><path opacity=".15" d="M382.02 212.56h-15.08a1.7 1.7 0 01-1.7-1.7v-2.8c0-.94.76-1.7 1.7-1.7h15.08c.94 0 1.7.76 1.7 1.7v2.8c0 .94-.76 1.7-1.7 1.7z" fill="#fff"/><path d="M382.02 212.56h-15.08a1.7 1.7 0 01-1.7-1.7v-2.8c0-.94.76-1.7 1.7-1.7h15.08c.94 0 1.7.76 1.7 1.7v2.8c0 .94-.76 1.7-1.7 1.7z" fill="#fff"/><path d="M324.36 337.88l-5.09-5.28-3.1-8.47c-.23-.73.18-1.4.9-1.41.53 0 1 .32 1.22.82l3.65 7.61 4.42 3.17-4.42-3.17-2.63-7.02c-.2-.6.14-1.14.66-1.24.48-.05.95.28 1.14.73l3.2 6.68 6.33 4.67-6.34-4.67-1.36-5.4c-.07-.4.2-.75.58-.74.3 0 .6.22.73.59l2.4 5.7 5.6 4.67-7.9 2.76z" fill="#FB9C9C"/><path opacity=".15" d="M324.36 337.88l-5.09-5.28-3.1-8.47c-.23-.73.18-1.4.9-1.41.53 0 1 .32 1.22.82l3.65 7.61 4.42 3.17-4.42-3.17-2.63-7.02c-.2-.6.14-1.14.66-1.24.48-.05.95.28 1.14.73l3.2 6.68 6.33 4.67-6.34-4.67-1.36-5.4c-.07-.4.2-.75.58-.74.3 0 .6.22.73.59l2.4 5.7 5.6 4.67-7.9 2.76z" fill="#000"/><path d="M322.19 338.89l11.31 4.94c.65.27 1.22.75 1.7 1.3l13.4 16.6 9.08-9.75-12.81-11.76c-.45-.4-.81-.9-1.04-1.4l-.42-.88a13.53 13.53 0 00-7.3-7.7l-.04-.04c-.44-.2-.87-.48-1.24-.88-1.24-1.4-4.3-4.74-4.3-4.74a.47.47 0 00-.68-.1c-.91.68-1.17 2.06-.5 3.28l1.56 2.81c.8 1.5.11 3.2-1.38 3.4l-6.38.76c-.4.07-.8-.08-1.15-.35l-9.06-7.35c-.38-.31-.94-.35-1.2-.01-.4.37-.34 1.06.07 1.52 2 2.1 8.2 8.43 9.7 9.86.2.25.39.4.68.49z" fill="#FB9C9C"/><path opacity=".15" d="M348.76 361.55l3.17-5.84a5.22 5.22 0 00-.91-6.2l-7.58-7.48a5.1 5.1 0 01-1.4-2.1c-.7-2.18-2.54-6.8-6.21-9.76.09.01.12.06.16.1l.03.06a13.55 13.55 0 017.3 7.69l.42.88c.26.55.62 1.04 1.04 1.4l12.82 11.76-8.84 9.49z" fill="#000"/><path d="M398.42 218.68c-2.56-.67-5-2.56-5.57-5.14-.11-.6-.37-1.48-.12-2.08-2.98 1.45-3.8 4.35-3.8 4.35h-7.4c.59 5.6 4.9 8.64 4.9 8.64l.13 2.42c1.23.17 3.01.45 4.17.14 3.88-.95 6.79-4.45 7.7-8.33z" fill="#F79898"/><path d="M401.36 244.4l-2.38-19.7s3.06-9.81 3.77-11.93c.5-1.49 1.8-6.03 1.94-8.66a1.04 1.04 0 00-1.6-.94c-.62.4-1.78 1.26-3.12 2.72-1.38 1.5-2.46 3.64-2.98 4.17-.09.1-.2.16-.32.19-1.11.22-2.32.34-3.94 1.2-.25.61 0 1.5.12 2.09.56 2.58 3 4.48 5.57 5.15-.9 3.86-3.81 7.37-7.7 8.32-1.15.3-2.94.02-4.17-.14l.66 19.4 14.15-1.86z" fill="#F79898"/><path opacity=".15" d="M402 203.94a19.92 19.92 0 00-4.77 5.82c-.28.5-.6.49-1.12.57-.37.06-.74.14-1.1.23-3.08.78-5.83 3.08-6.37 6.31-.17.04-.38 3.18.05 4.52.2.62 1.16.27.95-.35-.35-1.1-.06-3.52-.03-3.75.43-3.34 3.44-5.45 6.59-5.94.74-.12 1.37-.2 1.8-.89.42-.7.79-1.4 1.26-2.07a18.91 18.91 0 013.32-3.62c.5-.4-.07-1.25-.57-.83z" fill="#000"/><path d="M415.51 342.12l-21.65-38.95a34.74 34.74 0 01-4.32-14.98l-2.33-41.92 14.16-1.86 9.34 43.9 24.17 25.06-19.37 28.75z" fill="#3F4249"/><path opacity=".15" d="M401.36 244.4l-3.22.43 14.21 71.9-7.66 5.92 2.09 3.76 10.83-6.89-16.25-75.11z" fill="#000"/><path d="M405.85 306.58l.87.4c6.34 2.8 13.7-.07 16.46-6.36l7.08-16.06a4.16 4.16 0 00-2.14-5.5l-14.98-6.68a5.41 5.41 0 00-7.14 2.77l-6.57 14.92a12.62 12.62 0 006.42 16.51z" fill="#F49595"/><path d="M401.24 286.12s-2.23 1.5-3.3 2.68c-1.09 1.17 1.4 2.2 1.4 2.2l1.9-4.88zM409.68 305.93l6.1 14.84-7.08 4.5 9 2.13 16.4-17.42-5.33-12.79 3.05-21.53-20.32-3.73-1.82 34z" fill="#F49595"/><path opacity=".15" d="M428.77 297.62c-.6-.82-1.14-2-1.62-3.57l-6.24 2.03a3.3 3.3 0 01-.8-.35l2.78 3.93 5.88-2.04z" fill="#000"/><path d="M403.18 279.83l-.4 1.02 20.16 7.92.4-1.01-20.16-7.93z" fill="#fff"/><path d="M400.84 285.81c.2 0 .4-.12.5-.31l4.23-9.07a.55.55 0 00-.99-.46l-4.23 9.07a.54.54 0 00.49.77z" fill="#fff"/><path opacity=".3" d="M401.43 295.69c-1.64.4-2.94.07-3.02.05l.06-1.1c.02.01 2.05.5 3.76-.43a.54.54 0 01.7.17c.18.27.1.65-.2.8-.42.24-.87.4-1.3.5z" fill="#000"/><path d="M465.2 329.28c-.4-5.2-11.22-7.16-14.33-11.05a25.16 25.16 0 00-12.37-8.33s-12.12 12.03-18.27 14.94c-2.76 1.3-11.53.42-11.53.42l-5.3 3.16a22.26 22.26 0 00-9.73 12.09l-1.03 3.1 21.67 24.04-13.92 33.7-1.86 30.8h65.49l1.18-102.87z" fill="#3F4249"/><path opacity=".15" d="M405 327.48s10.44 3.37 18.48-.08c9.75-4.18 17.25-16.36 17.25-16.36l-2.23-1.13s-15.19 14.03-18.27 14.93c-4.69 1.37-11.53.43-11.53.43l-3.7 2.2z" fill="#000"/><path d="M414.31 367.66l-13.92 33.7a13.1 13.1 0 01-11.38 6.5c-3.72 0-7.46-1.55-10.12-4.76l-36.6-49.16 9.4-7.45 30.5 28.5 10.45-31.38 21.67 24.05z" fill="#3F4249"/><path d="M417.76 275.54c6.23-1.01 10.7-5.36 10-9.7-.7-4.36-6.33-7.06-12.56-6.05-6.23 1.02-10.7 5.36-10 9.71.7 4.35 6.32 7.06 12.56 6.04zM408.7 325.27c14.9-12.89 16.92-18.76 13.13-28.95-.68-1.82-1.18-4.02-.64-6.19l-.26-.35a.64.64 0 01-.1-.55c3.34-11.83 17.58-5.77 17.58-5.77l11.52 5.86 13.91 12.54-2.32 33.71-5.56 15.98-26.1-7s-24.24-13.7-21.16-19.28z" fill="#21252B"/><path d="M443.34 344.7a20.17 20.17 0 10-38.56-11.95 20.18 20.18 0 1038.56 11.95z" fill="#21252B"/><path d="M458.3 352.88a16.2 16.2 0 0016.18-16.2 16.2 16.2 0 00-16.18-16.2 16.2 16.2 0 00-16.17 16.2 16.2 16.2 0 0016.17 16.2z" fill="#21252B"/><path d="M455.61 329.4a15.7 15.7 0 0015.7-15.73 15.7 15.7 0 00-15.7-15.72 15.7 15.7 0 00-15.7 15.72 15.7 15.7 0 0015.7 15.72zM447.02 275.74A15.71 15.71 0 00433.66 258c-8.6-1.2-26.7 4.13-25.47 12.72 1.82 12.66 15.39 16.37 23.98 17.57 8.58 1.2 13.65-3.93 14.85-12.54z" fill="#21252B"/><path d="M463.84 300.28s-6.92-3.82-10.43-8.48c-7.27-9.67-2.26-22.57-12.93-31.12-3.65-3-4.95 35.41-4.95 35.41l28.31 4.19zM464.27 351.81s-12.8 12.74-42.09 6.96l10.98-16.65 31.11 9.7z" fill="#21252B"/><path d="M423.63 286.65s2.45-2.7 5.14.13c3.06 3.23-1.26 11.5-7.85 9.3-3.46-1.14-1.97-2.78-.32-5.13l3.03-4.3z" fill="#F49595"/><path opacity=".3" d="M428.03 289.09c-.47-.71-1.02-1.14-1.64-1.25-.63-.1-1.28.08-1.95.57a5.06 5.06 0 00-1.6 2.07l-.38.72a.42.42 0 10.77.34l.38-.72a5 5 0 011.33-1.72c.48-.35.91-.5 1.3-.43.38.08.74.37 1.08.88.12.2.39.25.58.12.2-.12.25-.39.13-.58z" fill="#000"/><path opacity=".15" d="M410.53 308l2.93.3c.74.07.97 1.06.33 1.46l-2.01 1.28-1.25-3.05zM400.39 401.35l14.89-36.03c.33-.8 1.56-.4 1.34.45l-16.98 47.84.75-12.26z" fill="#000"/><path d="M210.59 412.68l-1.42-2.62-1.74.88 3.16 1.74z" fill="#FA9B9B"/><path opacity=".15" d="M207.43 410.94l3.16 1.74-1.42-2.62" fill="#000"/><path d="M145.25 350.36a16.8 16.8 0 0016.78-16.81 16.8 16.8 0 00-16.78-16.81 16.8 16.8 0 00-16.79 16.81 16.8 16.8 0 0016.79 16.81z" fill="#263238"/><path d="M161.43 303.5s3.55 26.53-1.43 35.94c-4.99 9.41-8.48-21.83-8.48-21.83l9.9-14.11z" fill="#263238"/><path d="M214.44 290.36c.39.23.75.48 1.13.71l1.1.76c.36.26.78.45 1.06.8.3.33.55.7.7 1.2 0 .04-.01.07-.05.08h-.02a3.35 3.35 0 01-1.3-.53c-.38-.23-.62-.62-.92-.94l-.9-.99c-.29-.33-.58-.66-.86-1.02-.02-.02-.02-.06 0-.07h.06zM219.49 291.74c-.08-.71-.14-1.42-.2-2.13l-.16-2.13c-.04-.71-.17-1.42-.1-2.13.07-.72.18-1.43.46-2.14 0-.03.04-.04.07-.03l.03.03c.28.71.39 1.43.46 2.14.07.7-.06 1.42-.1 2.13l-.16 2.13c-.06.7-.12 1.42-.2 2.13 0 .03-.03.05-.06.05a.07.07 0 01-.04-.05z" fill="#139988"/><path d="M534.54 415.23c0-7.31.27-12.95-2.9-23.08a82.52 82.52 0 01-3.6-21.14c0-1.58 0-1.85.44-2.55.44-.7 0-1.76 0-1.76l-.51-1.35h.25v-1.33s.2-1.38-1.2-1.38h-6.19c-1.42 0-1.2 1.38-1.2 1.38v1.33h.24l-.5 1.35s-.45 1.05 0 1.76c.44.7.44.97.44 2.55 0 1.59-.44 11.01-3.61 21.14s-2.9 15.77-2.9 23.08v18.87s-.09 3.96 3.69 3.96h13.81c3.79 0 3.75-3.96 3.75-3.96v-18.87z" fill="#3F4249"/><path d="M531.65 392.15a82.48 82.48 0 01-3.61-21.15c0-1.59 0-1.85.44-2.55.44-.7 0-1.76 0-1.76l-.5-1.35h.24V364s.21-1.38-1.2-1.38h-2.78c1.42 0 1.2 1.38 1.2 1.38v1.33h-.24l.5 1.35s.44 1.05 0 1.76c-.44.7-.44.97-.44 2.55 0 1.58.44 11.01 3.61 21.15 3.17 10.13 2.9 15.77 2.9 23.08v18.87s.04 3.96-3.74 3.96h2.78c3.78 0 3.74-3.96 3.74-3.96v-18.87c0-7.31.26-12.95-2.9-23.08z" fill="#000"/><path d="M118.28 400.82l-8.26-5.25s2.3 1.86 6.18-.48l2.08 5.74z" fill="#83878E"/><path d="M97.8 349.85a.75.75 0 100-1.49.75.75 0 000 1.5z" fill="#139988"/><path d="M100.7 349.85a.75.75 0 100-1.49.75.75 0 000 1.5zM103.58 349.85a.75.75 0 100-1.49.75.75 0 000 1.5z" fill="#21252B"/><path d="M380.7 350.07a.75.75 0 100-1.5.75.75 0 000 1.5z" fill="#139988"/><path d="M383.58 350.07a.74.74 0 100-1.5.74.74 0 000 1.5zM386.47 350.07a.75.75 0 100-1.5.75.75 0 000 1.5z" fill="#21252B"/><path d="M521.13 275.66h-50.27a4.83 4.83 0 01-4.82-4.83V258.5a4.83 4.83 0 014.82-4.84h50.27a4.83 4.83 0 014.83 4.84v12.33a4.83 4.83 0 01-4.83 4.83z" fill="#139988"/><path d="M484.1 267.95a3.3 3.3 0 10-.02-6.58 3.3 3.3 0 00.01 6.58zM496.93 267.95a3.3 3.3 0 10-.01-6.58 3.3 3.3 0 000 6.58zM509.75 267.95a3.3 3.3 0 100-6.58 3.3 3.3 0 000 6.58z" fill="#fff"/><path opacity=".6" d="M183.85 132.81h-18.13v118.16h18.13V132.8z" fill="#fff"/><path d="M179.1 142.18h-8.63v8.66h8.63v-8.66z" fill="#139988"/><path d="M174.43 160.45H171v4.32h3.44v-4.32zM178.58 164.56h-3.45v4.33h3.45v-4.33zM174.43 165.44H171v3.45h3.44v-3.45zM178.58 160.45h-3.45v3.45h3.45v-3.45zM179.1 232.95h-8.63v8.65h8.63v-8.65z" fill="#61656D"/><path d="M174.97 240.16h-.37a.22.22 0 01-.22-.22v-5.32c0-.12.1-.22.22-.22h.37c.12 0 .22.1.22.22v5.32c0 .12-.1.22-.22.22z" fill="#fff"/><path d="M177.65 237.1v.36c0 .12-.1.22-.21.22h-5.31a.22.22 0 01-.22-.22v-.36c0-.13.1-.22.22-.22h5.3c.13 0 .22.1.22.22z" fill="#fff"/><path d="M172.25 185.67l-.31-.31a.27.27 0 010-.38l4.55-4.55c.1-.1.26-.1.37 0l.31.31c.1.1.1.27 0 .38l-4.55 4.55c-.1.1-.27.1-.37 0z" fill="#61656D"/><path d="M177.7 182.5l-2.6-2.61h2.6v2.6zM170.7 200.27l4.09-2.95 4.08 2.95-4.08 2.75-4.1-2.75z" fill="#61656D"/><path d="M178.87 200.98l-4.08 2.76-4.1-2.76v.77l4.1 2.87 4.08-2.85v-.8zM176.2 217.4a.2.2 0 00.06-.15v-1a.2.2 0 00-.07-.15.22.22 0 00-.16-.07h-4.8a.2.2 0 00-.16.07.22.22 0 00-.06.16v.99c0 .06.02.12.06.16.05.04.1.06.16.06h1.56V222c0 .06.02.12.06.16.05.04.1.06.17.06h1.23c.06 0 .12-.02.16-.06a.2.2 0 00.07-.16v-4.53h1.55c.06 0 .12-.02.16-.06z" fill="#61656D"/><path d="M178.47 218.29a.32.32 0 00-.22-.1h-2.75a.3.3 0 00-.23.1.32.32 0 00-.1.23v.57c0 .1.04.17.1.23.06.06.14.09.22.09h.7v2.4c0 .1.04.17.1.23.07.06.14.09.23.09h.7c.09 0 .16-.03.23-.09.06-.06.1-.14.1-.23v-2.4h.7c.08 0 .16-.03.22-.09a.3.3 0 00.1-.23v-.57c0-.09-.03-.17-.1-.23z" fill="#61656D"/><path opacity=".6" d="M364.59 102.8H231.02v19.28h133.57V102.8z" fill="#fff"/><path d="M300.75 106.62h-62.32v11.63h62.32v-11.63z" fill="#fff"/><path d="M244.16 113.8c-.26 0-.47-.03-.66-.1a1.02 1.02 0 01-.42-.32.74.74 0 01-.15-.42c0-.02 0-.04.02-.06a.1.1 0 01.08-.04h.23c.06 0 .1.03.12.1.02.12.1.23.23.33.13.09.31.13.55.13a1 1 0 00.56-.13c.13-.1.2-.22.2-.38 0-.1-.03-.19-.1-.25a.78.78 0 00-.27-.17c-.12-.05-.3-.1-.55-.18a2.82 2.82 0 01-.56-.22.81.81 0 01-.32-.28.79.79 0 01-.1-.42c0-.17.04-.31.13-.45.09-.13.22-.23.39-.3.16-.08.36-.12.6-.12.23 0 .43.05.6.13.17.08.3.19.4.32.08.13.13.25.13.38 0 .02 0 .05-.03.06-.01.02-.03.03-.06.03h-.25c-.06 0-.1-.03-.11-.08a.45.45 0 00-.22-.32.81.81 0 00-.47-.13c-.2 0-.37.04-.48.12a.4.4 0 00-.18.35c0 .1.03.2.08.26.06.06.14.12.26.17.12.05.28.11.5.17.26.07.47.15.62.22a.8.8 0 01.33.28c.07.11.1.25.1.42 0 .28-.1.5-.32.67-.22.16-.51.24-.88.24z" fill="#61656D"/><path d="M261.8 106.58h-11.7v11.7h11.7v-11.7z" fill="#139988"/><path d="M254.3 113.42a.15.15 0 01-.1-.03.15.15 0 01-.03-.1v-3.76c0-.04.02-.07.04-.1a.13.13 0 01.1-.03h.28c.06 0 .11.03.15.09l1.22 2.32 1.22-2.32.04-.07a.17.17 0 01.1-.02h.28c.04 0 .08 0 .1.04.03.02.04.05.04.1v3.75c0 .04-.01.07-.04.1a.14.14 0 01-.1.03h-.28a.15.15 0 01-.1-.03.15.15 0 01-.03-.1v-2.83l-.96 1.88c-.04.08-.1.12-.18.12h-.18c-.09 0-.15-.04-.19-.12l-.96-1.88v2.83c0 .04-.01.07-.04.1a.12.12 0 01-.1.03h-.27z" fill="#fff"/><path d="M266.89 113.76c-.03 0-.06 0-.08-.03a.11.11 0 01-.02-.07v-2.99c0-.03 0-.05.02-.07a.11.11 0 01.08-.03h.24c.03 0 .06.01.07.03a.1.1 0 01.04.07v2.7h1.5a.1.1 0 01.09.03.1.1 0 01.03.08v.18a.1.1 0 01-.03.08.11.11 0 01-.08.02h-1.86zM276.67 113.76a.1.1 0 01-.07-.03.08.08 0 01-.02-.06l.01-.06 1.05-1.47-1-1.42a.1.1 0 010-.06c0-.02 0-.05.02-.06a.09.09 0 01.06-.03h.28c.04 0 .08.03.12.08l.8 1.14.8-1.14c.03-.06.07-.08.12-.08h.26c.02 0 .04 0 .06.03l.03.06-.02.06-.98 1.42 1.04 1.47a.1.1 0 01.02.06c0 .03-.01.05-.03.06a.09.09 0 01-.07.03h-.28c-.04 0-.08-.02-.12-.07l-.85-1.19-.84 1.19c-.03.05-.07.07-.12.07h-.27zm3.18 0c-.03 0-.06 0-.08-.03a.11.11 0 01-.02-.07v-2.99c0-.03 0-.05.02-.07a.1.1 0 01.08-.03h.24a.1.1 0 01.08.03.1.1 0 01.03.07v2.7h1.5a.1.1 0 01.09.03.1.1 0 01.03.08v.18a.1.1 0 01-.03.08.11.11 0 01-.08.02h-1.86zM288.97 113.76a.1.1 0 01-.07-.03.09.09 0 01-.02-.06l.01-.06 1.05-1.47-1-1.42a.11.11 0 010-.06c0-.02 0-.05.02-.06a.09.09 0 01.06-.03h.28c.04 0 .08.03.12.08l.8 1.14.8-1.14c.03-.06.07-.08.12-.08h.26c.02 0 .04 0 .06.03l.03.06c0 .03 0 .05-.02.06l-.98 1.42 1.04 1.47a.1.1 0 01.02.06c0 .03-.01.05-.03.06a.1.1 0 01-.07.03h-.28c-.04 0-.08-.02-.12-.07l-.85-1.19-.84 1.19c-.03.05-.07.07-.12.07h-.27zm2.88 0a.1.1 0 01-.06-.03.08.08 0 01-.03-.06c0-.02 0-.04.02-.06l1.04-1.47-1-1.42a.11.11 0 010-.06c0-.02 0-.05.02-.06a.09.09 0 01.06-.03h.28c.04 0 .08.03.12.08l.8 1.14.8-1.14c.03-.06.07-.08.12-.08h.26c.02 0 .04 0 .06.03l.03.06c0 .03 0 .05-.02.06l-.98 1.42 1.04 1.47a.1.1 0 01.02.06c0 .03-.01.05-.03.06a.09.09 0 01-.07.03h-.27c-.05 0-.1-.02-.13-.07l-.85-1.19-.84 1.19c-.03.05-.07.07-.12.07h-.26zm3.18 0c-.03 0-.05 0-.07-.03a.11.11 0 01-.03-.07v-2.99c0-.03 0-.05.03-.07a.1.1 0 01.07-.03h.25a.1.1 0 01.07.03.1.1 0 01.03.07v2.7h1.51a.1.1 0 01.08.03.1.1 0 01.03.08v.18a.1.1 0 01-.03.08.11.11 0 01-.08.02h-1.86z" fill="#61656D"/><path d="M273.73 109.21h-.5v6.45h.5v-6.45zM285.41 109.21h-.5v6.45h.5v-6.45z" fill="#B2B6BB"/><path d="M310.59 115.35a2.91 2.91 0 100-5.82 2.91 2.91 0 000 5.82z" fill="#139988"/><path opacity=".2" d="M310.59 115.35a2.91 2.91 0 100-5.82 2.91 2.91 0 000 5.82z" fill="#fff"/><path d="M321.22 107.28h-.5v10.31h.5v-10.3z" fill="#B2B6BB"/><path d="M318.1 111.74l-1.39 1.4-1.39-1.4h2.78zM327.54 115.12c.2-.02.36-.07.45-.14.1-.08.18-.23.25-.47l1.05-3.83.07-.27a.97.97 0 00.02-.2c0-.14-.04-.23-.13-.27a1.78 1.78 0 00-.5-.09v-.22h2.54v.22a.9.9 0 00-.45.15c-.09.07-.17.23-.23.47l-1.06 3.83-.06.3-.02.08v.08c0 .14.04.23.11.27.08.04.25.07.5.1v.22h-2.53v-.23z" fill="#61656D"/><path d="M337.5 110.06h5.46M337.5 115.19h5.46M337.5 112.62h5.46M338.53 113.9h3.4M338.42 111.25h3.62M352.62 114.4h-1.91a1.77 1.77 0 110-3.55h1.91M353.4 114.4h1.92a1.77 1.77 0 000-3.55h-1.92M351.37 112.62h3.28" stroke="#61656D" stroke-width="1.5" stroke-miterlimit="10"/><path d="M420.03 85.76c-.02-.12-.15-.2-.26-.2a.88.88 0 01-.6-1.53c.08-.08.1-.22.02-.3-.19-.24-.4-.46-.63-.65a.23.23 0 00-.3.03.92.92 0 01-1 .22.89.89 0 01-.54-.87.23.23 0 00-.2-.23c-.3-.04-.6-.04-.9 0a.22.22 0 00-.19.23c.01.37-.2.7-.55.85a.93.93 0 01-.99-.22.22.22 0 00-.3-.03c-.23.19-.45.4-.64.64-.07.1-.06.22.03.3.28.25.37.66.22 1a.93.93 0 01-.87.54.22.22 0 00-.22.2c-.04.3-.04.6 0 .91 0 .12.14.2.25.2a.88.88 0 01.6 1.53c-.08.08-.1.2-.02.3.19.24.4.45.63.64.09.08.22.07.3-.03a.9.9 0 011-.22c.34.15.55.5.53.87 0 .11.08.22.2.23a4.58 4.58 0 00.9 0c.11-.01.2-.11.2-.23a.89.89 0 01.53-.85.91.91 0 01.99.23c.07.09.2.1.3.02.23-.18.45-.4.64-.63a.22.22 0 00-.03-.3.87.87 0 01-.07-1.25c.17-.2.41-.3.67-.3h.05c.11 0 .22-.08.23-.2.05-.3.05-.6.02-.9zm-3.96 1.78a1.33 1.33 0 110-2.66 1.33 1.33 0 010 2.66zM426.52 89.23c.35 0 .63-.28.63-.63a.63.63 0 10-1.25 0c0 .35.28.63.62.63zM426.52 86.84c.35 0 .63-.28.63-.63a.63.63 0 10-1.25 0c0 .35.28.63.62.63zM426.52 84.44c.35 0 .63-.28.63-.63a.63.63 0 10-1.25 0c0 .35.28.63.62.63z" fill="#fff"/><path d="M311.14 186.59H256.4c-.75 0-1.36-.61-1.36-1.36v-17.04c0-.75.6-1.36 1.36-1.36h54.73c.75 0 1.36.6 1.36 1.36v17.04c0 .75-.61 1.36-1.36 1.36z" fill="#139988"/><path opacity=".2" d="M311.14 186.59H256.4c-.75 0-1.36-.61-1.36-1.36v-17.04c0-.75.6-1.36 1.36-1.36h54.73c.75 0 1.36.6 1.36 1.36v17.04c0 .75-.61 1.36-1.36 1.36z" fill="#fff"/><path d="M301.57 172.38h-40.06a1.18 1.18 0 010-2.36h40.06a1.18 1.18 0 010 2.36z" fill="#139988"/><path opacity=".15" d="M276.84 183.4h-14.83c-.93 0-1.67-.75-1.67-1.68v-2.75c0-.93.75-1.67 1.67-1.67h14.83c.92 0 1.67.74 1.67 1.66v2.76c0 .93-.75 1.67-1.67 1.67z" fill="#fff"/><path opacity=".5" d="M301.57 172.38h-40.06a1.18 1.18 0 010-2.36h40.06a1.18 1.18 0 010 2.36z" fill="#fff"/><path d="M276.84 183.4h-14.83c-.93 0-1.67-.75-1.67-1.68v-2.75c0-.93.75-1.67 1.67-1.67h14.83c.92 0 1.67.74 1.67 1.66v2.76c0 .93-.75 1.67-1.67 1.67z" fill="#139988"/><path opacity=".15" d="M276.84 183.4h-14.83c-.93 0-1.67-.75-1.67-1.68v-2.75c0-.93.75-1.67 1.67-1.67h14.83c.92 0 1.67.74 1.67 1.66v2.76c0 .93-.75 1.67-1.67 1.67z" fill="#fff"/><path d="M276.84 183.4h-14.83c-.93 0-1.67-.75-1.67-1.68v-2.75c0-.93.75-1.67 1.67-1.67h14.83c.92 0 1.67.74 1.67 1.66v2.76c0 .93-.75 1.67-1.67 1.67z" fill="#fff"/><path d="M265.9 159.57h-54.74c-.75 0-1.35-.6-1.35-1.36v-17.04c0-.75.6-1.36 1.35-1.36h54.73c.75 0 1.36.61 1.36 1.36v17.04c0 .75-.6 1.36-1.36 1.36z" fill="#139988"/><path opacity=".5" d="M265.9 159.57h-54.74c-.75 0-1.35-.6-1.35-1.36v-17.04c0-.75.6-1.36 1.35-1.36h54.73c.75 0 1.36.61 1.36 1.36v17.04c0 .75-.6 1.36-1.36 1.36z" fill="#fff"/><path d="M265.9 240.6h-54.74c-.75 0-1.35-.6-1.35-1.36V222.2c0-.75.6-1.36 1.35-1.36h54.73c.75 0 1.36.6 1.36 1.36v17.04c0 .75-.6 1.36-1.36 1.36z" fill="#139988"/><path opacity=".5" d="M265.9 240.6h-54.74c-.75 0-1.35-.6-1.35-1.36V222.2c0-.75.6-1.36 1.35-1.36h54.73c.75 0 1.36.6 1.36 1.36v17.04c0 .75-.6 1.36-1.36 1.36z" fill="#fff"/><path d="M256.33 226.4h-40.06a1.18 1.18 0 010-2.37h40.06a1.18 1.18 0 010 2.37zM265.9 213.75h-54.74c-.75 0-1.35-.6-1.35-1.36v-17.04c0-.75.6-1.36 1.35-1.36h54.73c.75 0 1.36.6 1.36 1.36v17.04c0 .75-.6 1.36-1.36 1.36z" fill="#139988"/><path opacity=".5" d="M265.9 213.75h-54.74c-.75 0-1.35-.6-1.35-1.36v-17.04c0-.75.6-1.36 1.35-1.36h54.73c.75 0 1.36.6 1.36 1.36v17.04c0 .75-.6 1.36-1.36 1.36z" fill="#fff"/><path d="M216.53 202.25h-1.94c-.5 0-.91-.4-.91-.91v-1.95c0-.5.4-.91.9-.91h1.95c.5 0 .91.4.91.91v1.95c0 .5-.4.91-.9.91z" fill="#139988"/><path opacity=".7" d="M216.53 202.25h-1.94c-.5 0-.91-.4-.91-.91v-1.95c0-.5.4-.91.9-.91h1.95c.5 0 .91.4.91.91v1.95c0 .5-.4.91-.9.91z" fill="#fff"/><path d="M216.53 209.26h-1.94c-.5 0-.91-.4-.91-.9v-1.96c0-.5.4-.91.9-.91h1.95c.5 0 .91.4.91.91v1.95c0 .5-.4.91-.9.91zM247.24 201.28h-26.19a.92.92 0 010-1.84h26.19a.92.92 0 010 1.84zM247.24 208.3h-26.19a.92.92 0 010-1.84h26.19a.92.92 0 010 1.84z" fill="#139988"/><path opacity=".7" d="M247.24 201.28h-26.19a.92.92 0 010-1.84h26.19a.92.92 0 010 1.84zM247.24 208.3h-26.19a.92.92 0 010-1.84h26.19a.92.92 0 010 1.84z" fill="#fff"/><path d="M262.47 201.28h-7.21a.92.92 0 010-1.84h7.2a.92.92 0 010 1.84zM262.47 208.3h-7.21a.92.92 0 010-1.84h7.2a.92.92 0 010 1.84zM218.87 237.4a3.78 3.78 0 110-7.56 3.78 3.78 0 010 7.56zM219.33 154.54a4.85 4.85 0 11.01-9.7 4.85 4.85 0 010 9.7zM261.29 236.52h-12.2c-.91 0-1.66-.75-1.66-1.67v-2.76c0-.92.75-1.67 1.67-1.67h12.2c.92 0 1.66.75 1.66 1.67v2.76c0 .92-.75 1.67-1.67 1.67z" fill="#139988"/><path opacity=".7" d="M261.29 236.52h-12.2c-.91 0-1.66-.75-1.66-1.67v-2.76c0-.92.75-1.67 1.67-1.67h12.2c.92 0 1.66.75 1.66 1.67v2.76c0 .92-.75 1.67-1.67 1.67z" fill="#fff"/><path d="M242.88 236.52h-14.83c-.93 0-1.67-.75-1.67-1.67v-2.76c0-.92.74-1.67 1.67-1.67h14.83c.92 0 1.67.75 1.67 1.67v2.76c0 .92-.75 1.67-1.67 1.67z" fill="#139988"/><path opacity=".7" d="M242.88 236.52h-14.83c-.93 0-1.67-.75-1.67-1.67v-2.76c0-.92.74-1.67 1.67-1.67h14.83c.92 0 1.67.75 1.67 1.67v2.76c0 .92-.75 1.67-1.67 1.67z" fill="#fff"/><path d="M260.12 152.74h-28.47c-.93 0-1.67-.74-1.67-1.67v-2.75c0-.93.75-1.67 1.67-1.67h28.47c.92 0 1.67.74 1.67 1.67v2.75c0 .93-.75 1.67-1.67 1.67z" fill="#139988"/><path opacity=".7" d="M260.12 152.74h-28.47c-.93 0-1.67-.74-1.67-1.67v-2.75c0-.93.75-1.67 1.67-1.67h28.47c.92 0 1.67.74 1.67 1.67v2.75c0 .93-.75 1.67-1.67 1.67z" fill="#fff"/><path d="M346.68 197.84H283.8a.25.25 0 01-.25-.25v-9.76c0-.14.11-.25.25-.25.15 0 .26.1.26.25v9.5h62.62c.14 0 .25.12.25.26s-.1.25-.25.25z" fill="#61656D"/><path d="M312.5 190.38a6.98 6.98 0 10-.02-13.97 6.98 6.98 0 00.01 13.97z" fill="#3F4249"/><path d="M315.67 182.66c0 1.88-2.95 3.68-3.08 3.75a.2.2 0 01-.1.03.2.2 0 01-.1-.03c-.13-.07-3.08-1.87-3.08-3.75 0-.98.8-1.8 1.79-1.8.54 0 1.05.26 1.38.67a1.8 1.8 0 013.2 1.13z" fill="#fff"/><path d="M345.88 200.59l3-3-3-3v6z" fill="#61656D" stroke="#61656D" stroke-miterlimit="10" stroke-linecap="round" stroke-linejoin="round"/><path d="M422.74 295.6a.77.77 0 100-1.55.77.77 0 000 1.55z" fill="#3F4249"/><path d="M422.74 294.05c-.04 0-.08 0-.13.02.37.06.65.37.65.75 0 .39-.28.7-.64.76l.12.02a.77.77 0 000-1.55z" fill="#000"/><path d="M171.36 101.5a6.85 6.85 0 110-13.7 6.85 6.85 0 010 13.7z" fill="#fff"/><path d="M171.36 94.84a1.97 1.97 0 01-1.97-1.8l-.13-1.42c-.1-1.16.8-2.16 1.96-2.16h.27c1.16 0 2.07 1 1.96 2.16l-.13 1.42a1.98 1.98 0 01-1.96 1.8zM177.15 98.29a6.9 6.9 0 01-5.8 3.2 6.82 6.82 0 01-5.79-3.2 3.4 3.4 0 013.32-2.67h4.95a3.4 3.4 0 013.32 2.67z" fill="#139988"/><path d="M188.52 101.5a6.85 6.85 0 110-13.7 6.85 6.85 0 010 13.7z" fill="#fff"/><path d="M188.52 94.84a1.97 1.97 0 01-1.97-1.8l-.13-1.42c-.1-1.16.8-2.16 1.96-2.16h.27c1.16 0 2.07 1 1.96 2.16l-.13 1.42a1.98 1.98 0 01-1.96 1.8zM194.3 98.29a6.9 6.9 0 01-5.79 3.2 6.83 6.83 0 01-5.8-3.2 3.4 3.4 0 013.32-2.67H191a3.4 3.4 0 013.32 2.67z" fill="#3F4249"/><defs><linearGradient id="paint0_linear" x1="69.14" y1="395.93" x2="589.59" y2="-130.19" gradientUnits="userSpaceOnUse"><stop stop-color="#139988" stop-opacity=".2"/><stop offset="1" stop-color="#fff" stop-opacity="0"/></linearGradient><linearGradient id="paint1_linear" x1="36.45" y1="395.9" x2="468.54" y2="165.82" gradientUnits="userSpaceOnUse"><stop stop-color="#139988" stop-opacity=".2"/><stop offset="1" stop-color="#fff" stop-opacity="0"/></linearGradient></defs></svg>