<svg width="216" height="715" fill="none" xmlns="http://www.w3.org/2000/svg"><path d="M-517 233c-16 67 73 100 52 170 0 0 5 85 65 122 80 49 27-24 235 71 209 96 261-10 299-106 17-43-8-48-27-97-23-61 71-249 2-264-125-26-142-45-227-73-79-26-177 57-248 60-105 5-138 62-151 117z" fill="url(#paint0_linear)"/><defs><linearGradient id="paint0_linear" x1="-468.2" y1="179.1" x2="152.8" y2="802.3" gradientUnits="userSpaceOnUse"><stop stop-color="#139988" stop-opacity=".2"/><stop offset="1" stop-color="#fff" stop-opacity="0"/></linearGradient></defs></svg>