<svg width="591" height="441" fill="none" xmlns="http://www.w3.org/2000/svg"><g clip-path="url(#clip0)"><path d="M549.96 441.52l40.2-161.6a26.49 26.49 0 00-.4-14.22L521.9 45.56a26.52 26.52 0 00-23.25-18.63L153.2-.24a26.5 26.5 0 00-21.58 8.46L7.08 143.42a26.53 26.53 0 00-6.87 20.73l29.15 277.37h520.6z" fill="#F4F4F4"/><path d="M549.96 441.52l40.2-161.6a26.49 26.49 0 00-.4-14.22L521.9 45.56a26.52 26.52 0 00-23.25-18.63L153.2-.24a26.5 26.5 0 00-21.58 8.46L7.08 143.42a26.53 26.53 0 00-6.87 20.73l29.15 277.37h520.6z" fill="url(#paint0_linear)"/><path d="M368.26 146.12h-26.94v294.99h26.94V146.12z" fill="#DADDDF"/><path d="M401.63 356.21h-45.74v51.12h45.74V356.2z" fill="#B2B6BB"/><path d="M393 356.21h19.11v4.94h-.7v46.18h-16.99v-46.18H393v-4.94z" fill="#858990"/><path d="M392.78 356.21h-38v4.94h38v-4.94z" fill="#B2B6BB"/><path d="M355.9 361.78h40.61l4.1-.63h-44.72v.63z" fill="#858990"/><path d="M496.39 190.67H434.7v51.12h61.69v-51.12z" fill="#DADDDF"/><path d="M483.33 190.67h14.14v4.94h-1.08v46.18h-10.91V195.6h-2.15v-4.94z" fill="#B2B6BB"/><path d="M484.73 190.67h-51.65v4.94h51.65v-4.94zM489.33 195.61H434.7v.63h54.63v-.63z" fill="#B2B6BB"/><path d="M509.72 146.12H338.29v6.12h165.37v89.7H338.29v6.72h165.37v192.45h6.06V146.12z" fill="#fff"/><path d="M536.66 146.12h-26.94v294.99h26.94V146.12z" fill="#DADDDF"/><path d="M341.32 441.1V146.11h-6.06V441.1h6.06z" fill="#fff"/><path d="M506.06 407.33H339.44v6.72h166.62v-6.72z" fill="#fff"/><path d="M496.32 324.92h-87.3v82.4h87.3v-82.4z" fill="#DADDDF"/><path d="M482.43 324.92h15.04v7.96h-1.15v74.45h-11.61v-74.45h-2.28v-7.96z" fill="#B2B6BB"/><path d="M482.05 324.92h-74.77v7.96h74.77v-7.96z" fill="#DADDDF"/><path d="M488.81 332.88h-79.8v1.02h79.8v-1.02z" fill="#B2B6BB"/><path d="M109.65 435.04a4.95 4.95 0 014.95 4.95c0 .6-.48 1.07-1.07 1.07h-7.92c-.9 0-1.7-.52-2.07-1.35L93.2 416.54l11.56-13.43c-.17.64 4.89 31.93 4.89 31.93zM52.42 415.98h19.62l-7.88 7.58a4.69 4.69 0 00-1.36 4.26l1.39 7.22c2.6 0 4.72 2.11 4.72 4.72v.23c0 .6-.48 1.08-1.08 1.08h-7.19c-.86 0-1.65-.5-2.03-1.26l-6.74-13.69a8.4 8.4 0 01-.58-5.86l1.13-4.28z" fill="#3F4249"/><path d="M41.74 400.48c-4.13-1.25-11.8-5.69-15.33-10.22a.97.97 0 011.25-1.43c31.12 17.57 63.1-3.24 63.1-3.24a8.4 8.4 0 014.13-5.81 14.36 14.36 0 0114.09-.03 6.02 6.02 0 004.97.44l4.86-1.72a1.4 1.4 0 011.86 1.17l.15 1.43a14.33 14.33 0 01-4.04 11.6L95.9 413.85a10.62 10.62 0 00-2.93 9.07l1.86 12.16a4.95 4.95 0 014.95 4.95c0 .6-.48 1.08-1.08 1.08H90.8c-.9 0-1.71-.53-2.07-1.35l-10.53-23.74H57.36l-7.89 7.58a4.69 4.69 0 00-1.35 4.27l1.39 7.21c2.6 0 4.71 2.11 4.71 4.72a1.3 1.3 0 01-1.3 1.31h-6.96c-.86 0-1.65-.49-2.03-1.26l-6.74-13.68a8.4 8.4 0 01-.58-5.87l5.13-19.8z" fill="#868A91"/><path d="M106.17 383.23c.39-.4.24-1.16-.33-1.73-.56-.56-1.33-.7-1.72-.31-.39.39-.24 1.16.32 1.72.57.56 1.34.7 1.73.32zM46.41 410.7a7.6 7.6 0 01-9.24 7.42l3.8-14.69a7.6 7.6 0 015.44 7.28zM79.53 419.02l1.36-.55a4.87 4.87 0 016.57 5.59l-.25 1.12a4.9 4.9 0 00.16 2.68l.1.3a6.42 6.42 0 01-1.13 6.25l-6.81-15.39zM88.76 386.77l-1.34 8.16c-.75 4.59-4.82 7.57-8.95 6.56l-3.84-.93a6.2 6.2 0 00-2.63-.06l-8.22 1.57c-4.01.76-8.04-1.22-10.2-5.03l-.68-1.19c16.77.52 30.82-6.28 35.86-9.08zM36.67 392.9a4.68 4.68 0 01-7.45-3.22 53.76 53.76 0 007.45 3.22z" fill="#3F4249"/><path d="M110.23 389.46a7.31 7.31 0 001.33-5.23l-.5-3.76a6 6 0 002.9-.28l4.85-1.71a1.4 1.4 0 011.86 1.17l.15 1.42a14.32 14.32 0 01-4.04 11.61l-6.12 6.22-.9-1.64a7.3 7.3 0 01.47-7.8z" fill="#B2B6BB"/><path d="M91.7 386.98l-3.79 9.56a5.63 5.63 0 002 6.58c2.4 1.58 5.65 1.68 8.83-1.37 4.3-4.13 2.52-13.3.31-16.84M57.36 416.01l4.16-4.56-3.48 7.64-.68-3.08zM115.84 379.49l2.9-1.03c.9-.31 1.84.29 1.94 1.22l.23 2.06a4.44 4.44 0 01-5.07-2.25z" fill="#3F4249"/><path d="M92.07 386.06l-3.97 9.9a3.14 3.14 0 001.24 3.9c1.97 1.22 5.11 2.07 8.56-1.24 3.65-3.51 3.14-10.97.76-14.33" fill="#868A91"/><path d="M92.88 401.2a7.01 7.01 0 01-3.68-1.13 3.38 3.38 0 01-1.33-4.21l3.97-9.9c.05-.12.2-.19.33-.13.12.05.19.2.13.32l-3.97 9.9a2.9 2.9 0 001.14 3.6c1.95 1.2 4.95 1.97 8.26-1.2 3.62-3.49 2.94-10.9.72-14.01a.25.25 0 01.06-.36.25.25 0 01.35.06c2.37 3.33 3.08 10.95-.78 14.66-1.86 1.78-3.63 2.4-5.2 2.4z" fill="#3F4249"/><path d="M78.2 416.01s-4.44-5.22-16.68-4.56L59.44 416h18.75z" fill="#B2B6BB"/><path d="M42.05 399.2l-.3 1.28s-3.16-.99-5.93-2.7l6.23 1.42zM116.51 386.9c-.56 0-1.16-.09-1.81-.26a.25.25 0 01-.18-.31.26.26 0 01.3-.18c1.66.45 2.95.29 3.86-.48 1.91-1.6 1.6-5.36 1.59-5.4a.25.25 0 01.22-.27c.14-.02.26.08.28.22.01.17.35 4.06-1.76 5.83-.67.57-1.51.85-2.5.85z" fill="#3F4249"/><path d="M461.96 347.62H126.99a8.24 8.24 0 01-8.25-8.24V90.04a8.24 8.24 0 018.25-8.25h334.97a8.24 8.24 0 018.24 8.25v249.34c0 4.55-3.7 8.24-8.24 8.24z" fill="#139988"/><path opacity=".6" d="M461.96 347.62H126.99a8.24 8.24 0 01-8.25-8.24V90.04a8.24 8.24 0 018.25-8.25h334.97a8.24 8.24 0 018.24 8.25v249.34c0 4.55-3.7 8.24-8.24 8.24z" fill="#fff"/><path d="M458 347.62H123.01a8.24 8.24 0 01-8.25-8.24V90.04a8.24 8.24 0 018.25-8.25h334.97a8.24 8.24 0 018.24 8.25v249.34c0 4.55-3.7 8.24-8.24 8.24z" fill="#fff"/><path d="M142.15 347.62h-19.13a8.24 8.24 0 01-8.25-8.24V90.04a8.24 8.24 0 018.25-8.25h19.12v265.83z" fill="#139988"/><path d="M134.13 97.76H122.8a1.61 1.61 0 010-3.23h11.34a1.61 1.61 0 010 3.23zM131.44 126.25h-5.96a1.4 1.4 0 01-1.4-1.41v-5.96c0-.78.62-1.4 1.4-1.4h5.96c.77 0 1.4.62 1.4 1.4v5.96c0 .77-.63 1.4-1.4 1.4z" fill="#fff"/><path d="M131.44 154.71h-5.96a1.4 1.4 0 01-1.4-1.4v-5.97c0-.77.62-1.4 1.4-1.4h5.96c.77 0 1.4.63 1.4 1.4v5.97c0 .77-.63 1.4-1.4 1.4zM131.44 183.18h-5.96a1.4 1.4 0 01-1.4-1.41v-5.96c0-.78.62-1.4 1.4-1.4h5.96c.77 0 1.4.62 1.4 1.4v5.96c0 .78-.63 1.4-1.4 1.4zM131.44 211.64h-5.96a1.4 1.4 0 01-1.4-1.4v-5.96c0-.78.62-1.4 1.4-1.4h5.96c.77 0 1.4.62 1.4 1.4v5.96c0 .77-.63 1.4-1.4 1.4z" fill="#139988"/><path opacity=".4" d="M131.44 154.71h-5.96a1.4 1.4 0 01-1.4-1.4v-5.97c0-.77.62-1.4 1.4-1.4h5.96c.77 0 1.4.63 1.4 1.4v5.97c0 .77-.63 1.4-1.4 1.4zM131.44 183.18h-5.96a1.4 1.4 0 01-1.4-1.41v-5.96c0-.78.62-1.4 1.4-1.4h5.96c.77 0 1.4.62 1.4 1.4v5.96c0 .78-.63 1.4-1.4 1.4zM131.44 211.64h-5.96a1.4 1.4 0 01-1.4-1.4v-5.96c0-.78.62-1.4 1.4-1.4h5.96c.77 0 1.4.62 1.4 1.4v5.96c0 .77-.63 1.4-1.4 1.4z" fill="#fff"/><path d="M185.96 98.79h-32.99a2.8 2.8 0 110-5.59h32.99a2.8 2.8 0 110 5.59z" fill="#868A91"/><path d="M455.01 101.4H425.9c-.91 0-1.65-.74-1.65-1.65v-7.51c0-.91.74-1.65 1.65-1.65h29.12c.92 0 1.65.74 1.65 1.65v7.51c0 .91-.73 1.65-1.65 1.65zM413.72 101.64H384.6a1.9 1.9 0 01-1.9-1.89v-7.51c0-1.04.86-1.89 1.9-1.89h29.12a1.9 1.9 0 011.9 1.89v7.51a1.9 1.9 0 01-1.9 1.9zm-29.12-10.8c-.78 0-1.41.63-1.41 1.4v7.52c0 .77.63 1.4 1.4 1.4h29.13c.78 0 1.41-.63 1.41-1.4v-7.51c0-.78-.63-1.42-1.4-1.42H384.6z" fill="#139988"/><path d="M128.46 335.04a7.55 7.55 0 110-15.1 7.55 7.55 0 010 15.1z" fill="#fff"/><path d="M128.46 327.71a2.18 2.18 0 01-2.17-1.98l-.14-1.57a2.18 2.18 0 012.17-2.38h.29c1.29 0 2.29 1.1 2.17 2.38l-.15 1.57a2.19 2.19 0 01-2.17 1.98zM134.85 331.5a7.54 7.54 0 01-12.8 0 3.75 3.75 0 013.67-2.93h5.47c1.8 0 3.3 1.26 3.66 2.94z" fill="#139988"/><g opacity=".4" fill="#fff"><path opacity=".4" d="M128.46 327.71a2.18 2.18 0 01-2.17-1.98l-.14-1.57a2.18 2.18 0 012.17-2.38h.29c1.29 0 2.29 1.1 2.17 2.38l-.15 1.57a2.19 2.19 0 01-2.17 1.98zM134.85 331.5a7.54 7.54 0 01-12.8 0 3.75 3.75 0 013.67-2.93h5.47c1.8 0 3.3 1.26 3.66 2.94z"/></g><path d="M243.74 168.1h-89.25a4.31 4.31 0 01-4.31-4.32v-47.21a4.31 4.31 0 014.31-4.31h89.25a4.31 4.31 0 014.31 4.31v47.21a4.31 4.31 0 01-4.31 4.31z" fill="#139988"/><path opacity=".5" d="M243.74 168.1h-89.25a4.31 4.31 0 01-4.31-4.32v-47.21a4.31 4.31 0 014.31-4.31h89.25a4.31 4.31 0 014.31 4.31v47.21a4.31 4.31 0 01-4.31 4.31z" fill="#fff"/><path d="M218.17 154.96h-55.03a2.15 2.15 0 01-2.16-2.16v-6.72c0-1.2.97-2.16 2.16-2.16h55.03c1.19 0 2.15.97 2.15 2.16v6.72c0 1.2-.96 2.16-2.15 2.16z" fill="#fff"/><path d="M230.01 133.19H185a1.89 1.89 0 010-3.78H230a1.89 1.89 0 010 3.78z" fill="#139988"/><path opacity=".3" d="M230.01 133.19H185a1.89 1.89 0 010-3.78H230a1.89 1.89 0 010 3.78z" fill="#fff"/><path d="M168.69 139a7.7 7.7 0 10-.01-15.4 7.7 7.7 0 000 15.4z" fill="#139988"/><path opacity=".3" d="M168.69 139a7.7 7.7 0 10-.01-15.4 7.7 7.7 0 000 15.4z" fill="#fff"/><path d="M348 168.1h-89.07a4.3 4.3 0 01-4.3-4.31v-47.12a4.3 4.3 0 014.3-4.31h89.08a4.3 4.3 0 014.3 4.3v47.13a4.3 4.3 0 01-4.3 4.3z" fill="#139988"/><path d="M322.49 154.98h-54.93a2.15 2.15 0 01-2.15-2.15v-6.7c0-1.2.97-2.16 2.15-2.16h54.93c1.19 0 2.14.97 2.14 2.15v6.7c0 1.2-.95 2.16-2.14 2.16z" fill="#fff"/><path d="M334.31 133.25h-44.94a1.88 1.88 0 110-3.76h44.94a1.88 1.88 0 010 3.76z" fill="#139988"/><path opacity=".3" d="M334.31 133.25h-44.94a1.88 1.88 0 110-3.76h44.94a1.88 1.88 0 010 3.76z" fill="#fff"/><path d="M273.1 139.06a7.69 7.69 0 100-15.37 7.69 7.69 0 000 15.37z" fill="#139988"/><path opacity=".3" d="M273.1 139.06a7.69 7.69 0 100-15.37 7.69 7.69 0 000 15.37z" fill="#fff"/><path d="M452.36 168.1h-89.08a4.3 4.3 0 01-4.3-4.31v-47.12a4.3 4.3 0 014.3-4.31h89.08a4.3 4.3 0 014.3 4.3v47.13a4.3 4.3 0 01-4.3 4.3z" fill="#B2B6BB"/><path d="M426.84 154.98h-54.92a2.15 2.15 0 01-2.15-2.15v-6.7c0-1.2.96-2.16 2.15-2.16h54.92c1.19 0 2.15.97 2.15 2.15v6.7c0 1.2-.96 2.16-2.15 2.16z" fill="#fff"/><path d="M438.66 133.25h-44.94a1.88 1.88 0 110-3.76h44.94a1.88 1.88 0 010 3.76z" fill="#139988"/><path d="M438.66 133.25h-44.94a1.88 1.88 0 110-3.76h44.94a1.88 1.88 0 010 3.76zM377.45 139.06a7.69 7.69 0 100-15.37 7.69 7.69 0 000 15.37z" fill="#868A91"/><path d="M452.36 298.75h-89.08a4.3 4.3 0 01-4.3-4.3V178.99a4.3 4.3 0 014.3-4.3h89.08a4.3 4.3 0 014.3 4.3v115.45a4.3 4.3 0 01-4.3 4.31z" fill="#139988"/><path opacity=".85" d="M452.36 298.75h-89.08a4.3 4.3 0 01-4.3-4.3V178.99a4.3 4.3 0 014.3-4.3h89.08a4.3 4.3 0 014.3 4.3v115.45a4.3 4.3 0 01-4.3 4.31z" fill="#fff"/><path d="M430.07 205.33l-.44-.48-8.28 7.72.44.48a19.15 19.15 0 01-26.21 27.75l-.5-.42-7.23 8.69.5.42a30.44 30.44 0 0041.72-44.16z" fill="#139988"/><path opacity=".5" d="M430.07 205.33l-.44-.48-8.28 7.72.44.48a19.15 19.15 0 01-26.21 27.75l-.5-.42-7.23 8.69.5.42a30.44 30.44 0 0041.72-44.16z" fill="#fff"/><path d="M430.06 205.33a30.33 30.33 0 00-13.4-8.36v-.01l-.62-.18h-.02l-.61-.18v.01a30.45 30.45 0 00-28.7 7.56l-.46.45 7.84 8.15.47-.46a19.01 19.01 0 0118.42-4.64c3.37.95 6.42 2.8 8.81 5.37l.44.48 8.28-7.72-.44-.47z" fill="#139988"/><path d="M395.58 240.8a19.1 19.1 0 01-1.02-28.48l.46-.45-7.84-8.15-.47.45a30.17 30.17 0 00-9.33 21.93c0 9.06 4 17.58 10.96 23.38l.5.42 7.23-8.7-.5-.4z" fill="#61656D"/><path d="M414.9 230.57h-14.15a2.43 2.43 0 01-2.44-2.43v-4.08a2.43 2.43 0 012.44-2.44h14.15a2.43 2.43 0 012.43 2.44v4.08a2.43 2.43 0 01-2.43 2.44z" fill="#139988"/><path opacity=".4" d="M414.9 230.57h-14.15a2.43 2.43 0 01-2.44-2.43v-4.08a2.43 2.43 0 012.44-2.44h14.15a2.43 2.43 0 012.43 2.44v4.08a2.43 2.43 0 01-2.43 2.44z" fill="#fff"/><path d="M222.16 337.74h-66.41a2.06 2.06 0 01-2.06-2.06v-28.41c0-1.14.92-2.06 2.06-2.06h66.41c1.14 0 2.06.92 2.06 2.06v28.4c0 1.14-.92 2.06-2.06 2.06zM299.64 337.74h-66.41a2.06 2.06 0 01-2.06-2.06v-28.41c0-1.14.92-2.06 2.06-2.06h66.41c1.14 0 2.06.92 2.06 2.06v28.4c0 1.14-.92 2.06-2.06 2.06zM377.12 337.74h-66.41a2.06 2.06 0 01-2.06-2.06v-28.41c0-1.14.92-2.06 2.06-2.06h66.41c1.14 0 2.06.92 2.06 2.06v28.4c0 1.14-.92 2.06-2.06 2.06zM454.6 337.74h-66.4a2.06 2.06 0 01-2.07-2.06v-28.41c0-1.14.92-2.06 2.06-2.06h66.41c1.14 0 2.06.92 2.06 2.06v28.4c0 1.14-.92 2.06-2.06 2.06z" fill="#139988"/><path opacity=".85" d="M222.16 337.74h-66.41a2.06 2.06 0 01-2.06-2.06v-28.41c0-1.14.92-2.06 2.06-2.06h66.41c1.14 0 2.06.92 2.06 2.06v28.4c0 1.14-.92 2.06-2.06 2.06zM299.64 337.74h-66.41a2.06 2.06 0 01-2.06-2.06v-28.41c0-1.14.92-2.06 2.06-2.06h66.41c1.14 0 2.06.92 2.06 2.06v28.4c0 1.14-.92 2.06-2.06 2.06zM377.12 337.74h-66.41a2.06 2.06 0 01-2.06-2.06v-28.41c0-1.14.92-2.06 2.06-2.06h66.41c1.14 0 2.06.92 2.06 2.06v28.4c0 1.14-.92 2.06-2.06 2.06zM454.6 337.74h-66.4a2.06 2.06 0 01-2.07-2.06v-28.41c0-1.14.92-2.06 2.06-2.06h66.41c1.14 0 2.06.92 2.06 2.06v28.4c0 1.14-.92 2.06-2.06 2.06z" fill="#fff"/><path d="M347.96 298.72H155.8a4.3 4.3 0 01-4.3-4.3V178.99a4.3 4.3 0 014.3-4.3h192.16a4.3 4.3 0 014.3 4.3v115.43a4.3 4.3 0 01-4.3 4.3z" fill="#139988"/><path opacity=".85" d="M347.96 298.72H155.8a4.3 4.3 0 01-4.3-4.3V178.99a4.3 4.3 0 014.3-4.3h192.16a4.3 4.3 0 014.3 4.3v115.43a4.3 4.3 0 01-4.3 4.3z" fill="#fff"/><path opacity=".2" d="M352.26 264.32H151.6v.44h200.66v-.44zM352.26 230.86H151.6v.43h200.66v-.43zM352.26 197.4H151.6v.43h200.66v-.44z" fill="#139988"/><path opacity=".4" d="M151.6 247.77s28.4 10.58 48.6 0c20.22-10.59 42.03-34.75 71.7-9.63 24.69 20.9 36.42-25.11 52.78-25.11s27.58 31.05 27.58 31.05v50.34a4.3 4.3 0 01-4.3 4.3H155.81a4.3 4.3 0 01-4.3-4.3l.1-46.65z" fill="#139988"/><path d="M178.53 252.9c-3.12 0-6.54-.21-10.27-.73-9.56-1.31-16.75-3.96-16.82-3.99l.31-.82c.07.02 7.18 2.65 16.65 3.95 8.71 1.2 21.26 1.49 31.6-3.93 3.77-1.97 7.55-4.4 11.55-6.95 17-10.9 36.28-23.23 60.63-2.62 4.67 3.95 9.04 5.67 13.39 5.28 8.06-.72 14.61-8.67 20.94-16.35 6-7.28 11.66-14.15 18.16-14.15 16.48 0 27.54 30.06 28 31.34l-.82.3a92.59 92.59 0 00-7.63-15.45c-7.9-12.66-15-15.31-19.55-15.31-6.08 0-11.62 6.72-17.48 13.83-6.45 7.82-13.11 15.91-21.55 16.67-4.58.41-9.17-1.38-14.02-5.49-10.67-9.02-21.24-12.4-32.33-10.33-9.8 1.83-18.67 7.52-27.26 13.02-4.02 2.57-7.81 5-11.62 7-4.47 2.32-11.58 4.74-21.88 4.74z" fill="#139988"/><path d="M251.7 228.94a1.42 1.42 0 100-2.84 1.42 1.42 0 000 2.84zM285.34 245.03a1.42 1.42 0 100-2.84 1.42 1.42 0 000 2.84zM325.36 214.44a1.42 1.42 0 100-2.84 1.42 1.42 0 000 2.84zM218.28 238.35a1.42 1.42 0 100-2.84 1.42 1.42 0 000 2.84zM184.96 253.53a1.42 1.42 0 100-2.84 1.42 1.42 0 000 2.84zM151.6 249.4a1.42 1.42 0 100-2.85 1.42 1.42 0 000 2.85zM352.26 245.03a1.42 1.42 0 100-2.84 1.42 1.42 0 000 2.84z" fill="#139988"/><path d="M220.3 187.5h-59.94a2.8 2.8 0 010-5.58h59.94a2.8 2.8 0 010 5.59zM405.91 187.5h-37.56a2.8 2.8 0 010-5.58h37.56a2.8 2.8 0 110 5.59z" fill="#868A91"/><path d="M369.48 270.37h-3.12c-.8 0-1.46-.65-1.46-1.46v-3.13c0-.8.65-1.46 1.46-1.46h3.12c.8 0 1.47.65 1.47 1.46v3.13c0 .8-.66 1.46-1.47 1.46z" fill="#139988"/><path opacity=".5" d="M369.48 270.37h-3.12c-.8 0-1.46-.65-1.46-1.46v-3.13c0-.8.65-1.46 1.46-1.46h3.12c.8 0 1.47.65 1.47 1.46v3.13c0 .8-.66 1.46-1.47 1.46z" fill="#fff"/><path d="M369.48 281.61h-3.12c-.8 0-1.46-.65-1.46-1.46v-3.13c0-.8.65-1.46 1.46-1.46h3.12c.8 0 1.47.65 1.47 1.46v3.13c0 .81-.66 1.46-1.47 1.46z" fill="#139988"/><path d="M369.48 292.86h-3.12c-.8 0-1.46-.66-1.46-1.47v-3.12c0-.8.65-1.46 1.46-1.46h3.12c.8 0 1.47.65 1.47 1.46v3.12c0 .81-.66 1.47-1.47 1.47z" fill="#61656D"/><path d="M418.75 268.81h-42.02a1.47 1.47 0 010-2.93h42.02a1.47 1.47 0 110 2.94zM418.75 280.06h-42.02a1.47 1.47 0 110-2.94h42.02a1.47 1.47 0 010 2.94zM418.75 291.3h-42.02a1.47 1.47 0 110-2.93h42.02a1.47 1.47 0 010 2.93z" fill="#139988"/><path opacity=".5" d="M418.75 268.81h-42.02a1.47 1.47 0 010-2.93h42.02a1.47 1.47 0 110 2.94zM418.75 280.06h-42.02a1.47 1.47 0 110-2.94h42.02a1.47 1.47 0 010 2.94zM418.75 291.3h-42.02a1.47 1.47 0 110-2.93h42.02a1.47 1.47 0 010 2.93z" fill="#fff"/><path d="M449.28 268.81h-11.57a1.47 1.47 0 010-2.93h11.57a1.47 1.47 0 110 2.94zM449.28 280.06h-11.57a1.47 1.47 0 010-2.94h11.57a1.47 1.47 0 010 2.94zM449.28 291.3h-11.57a1.47 1.47 0 010-2.93h11.57a1.47 1.47 0 010 2.93zM211.62 317.69h-49.4a1.46 1.46 0 010-2.9h49.4a1.46 1.46 0 010 2.9z" fill="#139988"/><path opacity=".15" d="M181.13 331.25h-18.3a2.06 2.06 0 01-2.06-2.06v-3.4c0-1.13.93-2.05 2.06-2.05h18.3c1.13 0 2.06.92 2.06 2.06v3.39c0 1.14-.93 2.06-2.06 2.06z" fill="#fff"/><path opacity=".5" d="M211.62 317.69h-49.4a1.46 1.46 0 010-2.9h49.4a1.46 1.46 0 010 2.9z" fill="#fff"/><path d="M291.13 317.69h-49.4a1.46 1.46 0 010-2.9h49.4a1.46 1.46 0 010 2.9z" fill="#139988"/><path opacity=".15" d="M260.63 331.25h-18.29a2.06 2.06 0 01-2.06-2.06v-3.4c0-1.13.92-2.05 2.06-2.05h18.3c1.13 0 2.05.92 2.05 2.06v3.39c0 1.14-.92 2.06-2.06 2.06z" fill="#fff"/><path opacity=".5" d="M291.13 317.69h-49.4a1.46 1.46 0 010-2.9h49.4a1.46 1.46 0 010 2.9z" fill="#fff"/><path d="M369.1 317.69h-49.4a1.46 1.46 0 010-2.9h49.4a1.46 1.46 0 010 2.9z" fill="#139988"/><path opacity=".15" d="M338.6 331.25h-18.3a2.06 2.06 0 01-2.06-2.06v-3.4c0-1.13.92-2.05 2.06-2.05h18.3c1.13 0 2.05.92 2.05 2.06v3.39c0 1.14-.92 2.06-2.06 2.06z" fill="#fff"/><path opacity=".5" d="M369.1 317.69h-49.4a1.46 1.46 0 010-2.9h49.4a1.46 1.46 0 010 2.9z" fill="#fff"/><path d="M446.1 317.69h-49.4a1.46 1.46 0 010-2.9h49.4a1.46 1.46 0 010 2.9zM415.6 331.25h-18.3a2.06 2.06 0 01-2.05-2.06v-3.4c0-1.13.92-2.05 2.06-2.05h18.3c1.13 0 2.05.92 2.05 2.06v3.39c0 1.14-.92 2.06-2.06 2.06zM181.13 331.25h-18.3a2.06 2.06 0 01-2.06-2.06v-3.4c0-1.13.93-2.05 2.06-2.05h18.3c1.13 0 2.06.92 2.06 2.06v3.39c0 1.14-.93 2.06-2.06 2.06zM260.63 331.25h-18.29a2.06 2.06 0 01-2.06-2.06v-3.4c0-1.13.92-2.05 2.06-2.05h18.3c1.13 0 2.05.92 2.05 2.06v3.39c0 1.14-.92 2.06-2.06 2.06zM338.6 331.25h-18.3a2.06 2.06 0 01-2.06-2.06v-3.4c0-1.13.92-2.05 2.06-2.05h18.3c1.13 0 2.05.92 2.05 2.06v3.39c0 1.14-.92 2.06-2.06 2.06z" fill="#139988"/><path d="M415.6 331.25h-18.3a2.06 2.06 0 01-2.05-2.06v-3.4c0-1.13.92-2.05 2.06-2.05h18.3c1.13 0 2.05.92 2.05 2.06v3.39c0 1.14-.92 2.06-2.06 2.06z" fill="#139988"/><path opacity=".15" d="M181.13 331.25h-18.3a2.06 2.06 0 01-2.06-2.06v-3.4c0-1.13.93-2.05 2.06-2.05h18.3c1.13 0 2.06.92 2.06 2.06v3.39c0 1.14-.93 2.06-2.06 2.06zM260.63 331.25h-18.29a2.06 2.06 0 01-2.06-2.06v-3.4c0-1.13.92-2.05 2.06-2.05h18.3c1.13 0 2.05.92 2.05 2.06v3.39c0 1.14-.92 2.06-2.06 2.06zM338.6 331.25h-18.3a2.06 2.06 0 01-2.06-2.06v-3.4c0-1.13.92-2.05 2.06-2.05h18.3c1.13 0 2.05.92 2.05 2.06v3.39c0 1.14-.92 2.06-2.06 2.06z" fill="#fff"/><path opacity=".15" d="M181.13 331.25h-18.3a2.06 2.06 0 01-2.06-2.06v-3.4c0-1.13.93-2.05 2.06-2.05h18.3c1.13 0 2.06.92 2.06 2.06v3.39c0 1.14-.93 2.06-2.06 2.06zM260.63 331.25h-18.29a2.06 2.06 0 01-2.06-2.06v-3.4c0-1.13.92-2.05 2.06-2.05h18.3c1.13 0 2.05.92 2.05 2.06v3.39c0 1.14-.92 2.06-2.06 2.06zM338.6 331.25h-18.3a2.06 2.06 0 01-2.06-2.06v-3.4c0-1.13.92-2.05 2.06-2.05h18.3c1.13 0 2.05.92 2.05 2.06v3.39c0 1.14-.92 2.06-2.06 2.06zM415.6 331.25h-18.3a2.06 2.06 0 01-2.05-2.06v-3.4c0-1.13.92-2.05 2.06-2.05h18.3c1.13 0 2.05.92 2.05 2.06v3.39c0 1.14-.92 2.06-2.06 2.06z" fill="#fff"/><path opacity=".5" d="M446.1 317.69h-49.4a1.46 1.46 0 010-2.9h49.4a1.46 1.46 0 010 2.9z" fill="#fff"/><path d="M298.4 46.68c0-10.13-7.66-18.5-17.55-19.58v-.13h-2.17a19.73 19.73 0 00-19.72 19.71 19.73 19.73 0 0019.72 19.72h2.17v-.13a19.71 19.71 0 0017.54-19.59z" fill="#858990"/><path d="M277.1 66.4a19.72 19.72 0 10-.02-39.43 19.72 19.72 0 00.01 39.43z" fill="#B1B5BA"/><path d="M277.09 64.23a17.54 17.54 0 100-35.09 17.54 17.54 0 000 35.09z" fill="#fff"/><path d="M277.09 64.23a17.54 17.54 0 100-35.09 17.54 17.54 0 000 35.09z" fill="#858990"/><path opacity=".9" d="M277.09 64.23a17.54 17.54 0 100-35.09 17.54 17.54 0 000 35.09z" fill="#fff"/><path d="M277.1 29.14c.3 0 .6 0 .95.04a17.53 17.53 0 000 35c-.3 0-.6.05-.95.05-9.71 0-17.55-7.84-17.55-17.55 0-9.7 7.84-17.54 17.55-17.54z" fill="#858990"/><path d="M277.26 48.03l-5.83-11.58a.92.92 0 01.4-1.22.92.92 0 011.22.4l5 9.97 6.66-3.27a.9.9 0 011.22.44.9.9 0 01-.44 1.22l-8.23 4.04z" fill="#139988"/><path opacity=".5" d="M292.1 55.7a17.52 17.52 0 00-15.02-26.6c-.47 0-.95.04-1.43.04l16.45 26.55zM273 29.62c-.87.22-1.7.48-2.48.78l18.15 29.43c.7-.61 1.35-1.3 1.96-2.05L273 29.62z" fill="#fff"/><path d="M30.93 220.3h58.29v-74.25h-58.3v74.24z" fill="#fff"/><path d="M38.7 212.83h42.74v-59.3H38.7v59.3z" fill="#DDD"/><path d="M90.9 146.06h-1.69v74.24h1.7v-74.24z" fill="#DADDDF"/><path d="M52.98 191.32a9.26 9.26 0 100-18.52 9.26 9.26 0 000 18.52z" fill="#139988"/><path d="M76.13 206.41l-9.65-15.1-9.64 14.94 19.29.16z" fill="#868A91"/><path opacity=".2" d="M55.1 180h20.03v-20.03H55.11V180z" fill="#000"/><path d="M197.81 148c-.22.03-.3.26-.27.48.03.22.27.3.49.27l1.75-.36a1.62 1.62 0 001.18-1.98 1.7 1.7 0 00-1.07-1.15 1.79 1.79 0 01-1.15-1.6c-.02-.31-.04-.57-.06-.64-.95-3.64-.87 4.97-.87 4.97z" fill="#F99A9A"/><path opacity=".15" d="M200.96 146.41c-.12-.44-.4-.8-.77-1l.05.13c.24.87-.31 1.74-1.18 1.97l-1.25.26v.21c-.22.04-.3.27-.27.5.03.21.27.29.49.26l1.75-.36a1.62 1.62 0 001.18-1.97z" fill="#000"/><path d="M171.8 432.81l-25.86.64 10.32-7.37a6.88 6.88 0 002.87-5.3l.36-8.1 14.07.04-1.75 20.1z" fill="#FB9C9C"/><path opacity=".15" d="M168.93 423.36v-.16a1.69 1.69 0 00-1.43-1.83l-8.26-1.2.09-1.63h13.79l-1.24 13.72-11.28-1.24 3.7-1.47a7.37 7.37 0 004.63-6.19z" fill="#000"/><path d="M173.6 428.23v10.08a2.95 2.95 0 01-2.96 2.95h-34.28c-.67 0-1.24-.56-1.24-1.24a5.62 5.62 0 013.83-5.3l7.74-2.55 9.8-7.62c1-.8 2.44-.75 3.44.09l4.34 3.7c.64.57 1.5.73 2.31.49l5.5-1.72c.8-.2 1.51.36 1.51 1.12z" fill="#3F4249"/><path d="M170.64 441.26h-34.28c-.67 0-1.24-.56-1.24-1.24 0-.44.04-.83.16-1.23h38.27a2.95 2.95 0 01-2.9 2.47z" fill="#000"/><path d="M156.7 428.59a.3.3 0 00.2-.09.32.32 0 000-.44l-2.08-2.23a.32.32 0 00-.44 0 .32.32 0 000 .44l2.08 2.23c.08.05.15.09.24.09zM155.06 429.87a.3.3 0 00.2-.08.32.32 0 000-.45l-2.07-2.23a.32.32 0 00-.44 0 .32.32 0 000 .44l2.07 2.24c.08.03.16.08.24.08zM153.42 431.14a.3.3 0 00.2-.08.32.32 0 000-.44l-2.07-2.24a.32.32 0 00-.44 0 .32.32 0 000 .44l2.07 2.24c.05.04.12.08.24.08z" fill="#fff"/><path d="M205.93 432.81l25.87.64-10.32-7.37a6.88 6.88 0 01-2.87-5.3l-.36-8.1-14.07.04 1.75 20.1z" fill="#FB9C9C"/><path opacity=".15" d="M208.8 423.36v-.16a1.69 1.69 0 011.44-1.83l8.25-1.2-.08-1.63h-13.8l1.25 13.72 11.28-1.24-3.7-1.47a7.37 7.37 0 01-4.63-6.19z" fill="#000"/><path d="M219.31 257.51v161.03h-15.1l-13.16-131.29a1.65 1.65 0 00-1.67-1.5c-.84 0-1.56.63-1.63 1.5l-14 131.3h-15.1l5.22-160.12 55.44-.92z" fill="#139988"/><path d="M219.7 418.54h-16.1l-.31-3.31h16.38l.04 3.31z" fill="#139988"/><path opacity=".2" d="M219.7 418.54h-16.1l-.31-3.31h16.38l.04 3.31z" fill="#fff"/><path opacity=".2" d="M219.7 418.54h-6.68l-.16-3.35 6.81.04.04 3.31z" fill="#000"/><path d="M204.14 428.23v10.08a2.95 2.95 0 002.95 2.95h34.28c.68 0 1.24-.56 1.24-1.24a5.62 5.62 0 00-3.83-5.3l-7.73-2.55-9.8-7.62a2.7 2.7 0 00-3.44.09l-4.34 3.7c-.64.57-1.51.73-2.31.49l-5.5-1.72c-.8-.2-1.52.36-1.52 1.12z" fill="#3F4249"/><path d="M207.1 441.26h34.28c.67 0 1.23-.56 1.23-1.24 0-.44-.04-.83-.16-1.23H204.2a2.95 2.95 0 002.9 2.47z" fill="#000"/><path d="M221.04 428.59a.3.3 0 01-.2-.09.32.32 0 010-.44l2.07-2.23a.32.32 0 01.44 0c.12.12.12.32 0 .44l-2.07 2.23a.53.53 0 01-.24.09zM222.68 429.87a.3.3 0 01-.2-.08.32.32 0 010-.45l2.07-2.23a.32.32 0 01.44 0c.12.12.12.32 0 .44l-2.07 2.24c-.08.03-.16.08-.24.08zM224.31 431.14a.3.3 0 01-.2-.08.32.32 0 010-.44l2.07-2.24a.32.32 0 01.45 0c.12.12.12.32 0 .44l-2.08 2.24c-.04.04-.12.08-.24.08z" fill="#fff"/><path opacity=".2" d="M164.96 416.74l14.69-123.98a7.93 7.93 0 017.85-6.98h1.87c-.84 0-1.55.64-1.63 1.51l-13.91 130.57-8.87-1.12z" fill="#000"/><path opacity=".15" d="M174.15 418.54h-9.45l.44-3.31h9.33l-.32 3.31z" fill="#000"/><path opacity=".2" d="M219.33 258.68l.02 156.47-6.5.04-1.82-156.51h8.3z" fill="#000"/><path d="M198.1 136.3l1.57 18.17a5.52 5.52 0 01-3.97 5.77l-1.14.33.96 8.36-8.1-1.1-9.31.74 1.03-22.13 10.34-9.9 8.62-.24z" fill="#F99A9A"/><path d="M198.86 130.9c.63 2.76 2.1 4.41-.35 5.82l-1.07.61a3.39 3.39 0 00-1.7 2.79c-.09 1.8-.91 2.96-2.68 3.53a.46.46 0 00-.3.53l.14.6.44 2.34a1 1 0 01-.75 1.13 1 1 0 01-1.18-.65l-.68-1.56-2.88 2.62-1.27 8.38a3.65 3.65 0 01-3.6 3.1l-4.47.01-3.02-4.57c-3.17-4.8-5.4-9.17-5.38-14.57 0 0 4.65-2.67 6.27-3.36l-.24-2.5c-.25-2.6-.5-1.68 1.98-2.52l4.83-1.63c5.02-1.69 9.15-2.01 14.29-.76 2.36.57 1.62.66 1.62.66z" fill="#21252B"/><path d="M288.68 166.95s1.58 1.12-.65 3.98c-2.23 2.85-10.27 6.16-10.27 6.16l1.36-10.58 9.56.44z" fill="#F69797"/><path d="M271.56 169.37l1.3-3.34c.57-1.47 1.4-2.82 2.46-3.99l3.1-3.42a.7.7 0 01.95-.2l.02.02a2.2 2.2 0 01.86 2.61l-1.94 2.99a.35.35 0 00.53.44l10.48-9.44a1.03 1.03 0 011.44 1.46l-4.42 4.78s2.52-.19 1.61 2.53c0 0 2.13 1.63-.1 4.5-2.24 2.85-10.1 8.78-10.1 8.78l-6.32 9.18-6.7-5.8 6.83-11.1z" fill="#F69797"/><path opacity=".3" d="M284.52 167.13a.27.27 0 01-.19-.08.25.25 0 01.02-.35l3.43-3.08c.1-.09.26-.08.35.02.1.1.09.26-.01.35l-3.44 3.08a.24.24 0 01-.16.06zM285.17 170.24a.26.26 0 01-.18-.08.25.25 0 01.02-.35l3.43-3.08c.1-.09.25-.08.35.02.09.1.08.26-.02.35l-3.43 3.08a.26.26 0 01-.17.06zM283 164.65a.27.27 0 01-.19-.08.25.25 0 01.02-.35l3.43-3.08c.1-.1.26-.09.36.02.09.1.08.25-.02.35l-3.44 3.08a.25.25 0 01-.16.06z" fill="#000"/><path opacity=".2" d="M288.03 170.93c-2.23 2.85-10.27 6.16-10.27 6.16l-2.39 3.46-1.39-1.14 2.53-3.67c.22-.33.55-.58.93-.7l3.33-1.15c3.03-.99 6.5-2.7 8.41-5.25 0 0 .04.6-1.15 2.29z" fill="#000"/><path d="M178.1 165.94h16.94c.38 0 .74.2.93.52l1.47 2.42 16.2 2.09a16 16 0 019.65 4.96l21.84 23.43 22.8-24.87 7.94 6.47-26.9 38.51a7.27 7.27 0 01-10.84 1.24l-18.83-16.97v55.77h-55.48l-2.07-23.2h-14.6a6.61 6.61 0 01-6.45-8.03l10.24-47c1.01-4.62 4.68-8.2 9.33-9.09l15.45-2.96 1.43-2.71c.18-.37.55-.59.95-.59z" fill="#3F4249"/><path opacity=".2" d="M273.98 179.42l-28.36 36.98c-1.43 2.04-4.16 4.9-7.54 4.27l.05.04a7.28 7.28 0 0010.84-1.24l26.9-38.52-1.89-1.53z" fill="#000"/><path d="M159.1 203.24l-.64.06 3.73 41.76.64-.06-3.73-41.76z" fill="#21252B"/><path opacity=".2" d="M155.75 223.99l3.05-20.72 2.04 22.88h-3.22a1.89 1.89 0 01-1.87-2.16z" fill="#000"/><path d="M197.39 126.77c-2.21-.8-4.19-.43-5.45.52-.77.67-1.7.58-2.57-.12-1.32-1.1-3.46-2.86-6.74-1.94-4.3 1.14-5.43 4.1-5.81 5.62-.11.69-.61 1.17-1.17 1.45-1.87.92-5.45 3.67-5.56 8.14-.23 7.87 14.57 5.7 14.57 5.7-.72-1.61.1-3.5 1.74-4.12l12.1-5.3c3.91-1.73 3.3-8.3-1.11-9.95z" fill="#21252B"/><path opacity=".15" d="M187.62 148.08l.22.57s1.2.37 2.39.56l-2.81 1.37.2-2.5z" fill="#000"/><path d="M190.88 146.52c.48 1.62 1 2.8-1.16 2.82-4.09 0-4.9-5.39-2.63-6.63 2-1.08 2.86.87 2.86.87l.93 2.94z" fill="#FC9D9D"/><path opacity=".3" d="M189.69 145.9a3.33 3.33 0 00-.54-1.48c-.31-.33-.62-.6-.98-.65-.36-.04-.71.06-1.12.37-.07.08-.13.23-.04.44.08.13.23.13.36.04.27-.24.55-.33.77-.27.21-.01.37.19.6.46.32.34.44 1.05.45 1.2l.1.49c.02.14.17.2.31.19.15-.01.2-.16.2-.3l-.11-.5z" fill="#000"/><path d="M200.48 145.66a.43.43 0 01-.41-.34l-1.41-6.22a.43.43 0 11.84-.18l1.4 6.22c.05.23-.1.46-.33.51l-.09.01z" fill="#21252B"/><path d="M199.58 141.35l-9.63 2.14.19.84 9.63-2.14-.19-.84z" fill="#21252B"/><path d="M174.15 418.54h-16.07l.24-3.31h16.15l-.32 3.31z" fill="#139988"/><path opacity=".2" d="M174.15 418.54h-16.07l.24-3.31h16.15l-.32 3.31z" fill="#fff"/><path opacity=".2" d="M174.15 418.54h-9.41l.4-3.31h9.33l-.32 3.31z" fill="#000"/><path d="M197.44 168.56h-17.26v.64h17.26v-.64z" fill="#21252B"/><path opacity=".2" d="M219.3 203.74l-.82-.72a3.38 3.38 0 00-5.62 2.43l-1.83 54.06h8.27v-55.77zM245.13 199.36l-.84.9a.94.94 0 01-1.48-.1l-8.4-12.3 10.72 11.5z" fill="#000"/><path opacity=".15" d="M194.57 160.57l-3.55-.07a1.49 1.49 0 00-1.42 2.01l1.3 3.42h4.29l-.62-5.36z" fill="#000"/></g><defs><linearGradient id="paint0_linear" x1="68.42" y1="398.6" x2="593.59" y2="-123.27" gradientUnits="userSpaceOnUse"><stop stop-color="#139988" stop-opacity=".2"/><stop offset="1" stop-color="#fff" stop-opacity="0"/></linearGradient><clipPath id="clip0"><path fill="#fff" d="M0 0h591v441H0z"/></clipPath></defs></svg>