<svg width="600" height="450" fill="none" xmlns="http://www.w3.org/2000/svg"><g clip-path="url(#clip0)"><path d="M.69 227.32l48.5 222.67H579.2l22.41-184.11c.48-3.98.21-8.07-.79-11.94l-46.6-176.98c-3.06-11.6-12.37-20.22-23.68-21.98L175.62.29c-10.26-1.6-20.52 2.7-26.94 11.27L6.16 201.75A31.57 31.57 0 00.7 227.31z" fill="#F4F4F4"/><path d="M.69 227.32l48.5 222.67H579.2l22.41-184.11c.48-3.98.21-8.07-.79-11.94l-46.6-176.98c-3.06-11.6-12.37-20.22-23.68-21.98L175.62.29c-10.26-1.6-20.52 2.7-26.94 11.27L6.16 201.75A31.57 31.57 0 00.7 227.31z" fill="url(#paint0_linear)"/><path d="M423 86.24v160.41l175.14-2.76-41.46-157.65H423z" fill="#EAEAEA"/><path d="M364.92 295.37h-180.2c-3.31 0-6-2.81-6-6.3V179.05h186.2c3.31 0 6 2.82 6 6.3v103.74c0 3.48-2.69 6.3-6 6.3z" fill="#B2B6BB"/><path d="M183.99 295.37h-27.47c-3.31 0-6-2.81-6-6.3V185.29c0-3.48 2.69-6.3 6-6.3H184c3.31 0 6 2.82 6 6.3v103.8c0 3.48-2.69 6.3-6 6.3zM367.29 449.71h88.6V273.78c0-3.48-2.7-6.3-6-6.3h-76.6c-3.32 0-6 2.82-6 6.3V449.7z" fill="#868A91"/><path d="M436.1 449.71h39.46V273.78c0-3.48-2.69-6.3-6-6.3H442.1c-3.32 0-6 2.82-6 6.3V449.7z" fill="#B2B6BB"/><path d="M436.43 369.57v-41.42H237.09v41.42h199.34z" fill="#B2B6BB"/><path opacity=".2" d="M246.52 369.56v-41.43h-5.57v41.43h5.57z" fill="#000"/><path d="M459.46 422.64l1.9 3.1a20.14 20.14 0 0010.62 8.67l23.94 8.9c2.15.71 1.9 4.02-.37 4.02h-3c-.37.56-1 .89-1.68.89-.63 0-1.37-.33-1.84-.77-.06-.06-.1-.06-.16-.12h-.42c-.06.06-.16.06-.21.17a2.1 2.1 0 01-1.58.77c-.58 0-1.26-.27-1.74-.66-.2-.22-.58-.16-.73.06-.32.38-.74.6-1.27.6-.47 0-1.05-.22-1.47-.55-.21-.16-.53-.1-.68.06-.32.27-.69.5-1.16.5-.63 0-1.16-.4-1.42-.89h-.21l-29.62-.5c-2.84-.05-4.95-1-6.16-3.31l-6.1-11.5 23.36-9.44z" fill="#FC9D9D"/><path opacity=".15" d="M436.1 432.03l23.25-9.44-13.73 9.6a2.1 2.1 0 00-.63 2.66l3.26 6.3c1.1 2.04 2.9 3.04 5.32 3.26.52.05 1.05 0 1.52-.11a35.7 35.7 0 0110-.94c5.1-3.7 8.31-8.45 8.31-8.45l4.37 1.16 5.15 10.1-5.05.06 3.37 1.27c-.16-.06-.37 0-.53.17-.31.27-.68.5-1.15.5-.63 0-1.16-.4-1.42-.89h-.21l-29.63-.5c-2.84-.05-4.94-1-6.15-3.31l-6.05-11.44z" fill="#000"/><path d="M329.4 286.81l-10.52-76.12c-1.1-7.84-6.63-14.2-13.94-16.02l-28.15-7.01-28.36.27-26.2 6.58c-9.3 2.32-15.36 11.76-13.94 21.7l3.05 21.1 5.16 11.72c.26.66.42 1.32.58 1.99l4.79 27.45a9.85 9.85 0 009.57 8.34h97.96z" fill="#139988"/><path d="M313.1 210.2a.8.8 0 01-.8-.72l-.36-2.65c-.06-.45.2-.89.68-.94.42-.06.84.22.9.72l.36 2.65c.06.44-.2.88-.68.94h-.1zM282.63 240.47c-.42 0-.73-.34-.79-.78l-.26-2.7c-.05-.45.26-.89.74-.89.42-.05.84.28.84.78l.26 2.7c.05.44-.26.89-.74.89h-.05zM240.18 209.42c-.43 0-.74-.33-.8-.77l-.26-2.7c-.05-.45.27-.9.74-.9.42-.05.84.28.84.78l.26 2.7c.06.45-.26.9-.73.9 0-.06-.05 0-.05 0zM216.97 203.9c-.31-.22-.42-.72-.26-1.1l1.26-2.38c.21-.39.69-.55 1.06-.33.36.22.52.72.31 1.1l-1.26 2.38c-.21.38-.69.55-1.05.33-.06.05-.06.05-.06 0zM258.01 246.54c-.16 0-.37-.05-.47-.16a.89.89 0 01-.1-1.16l1.62-2.1a.79.79 0 011.1-.11c.32.27.38.83.11 1.16l-1.63 2.1c-.2.16-.42.27-.63.27zM294.63 198.43a.74.74 0 01-.53-.22.89.89 0 01-.1-1.16l1.52-1.93a.79.79 0 011.1-.11c.32.27.38.83.11 1.16l-1.52 1.93a.72.72 0 01-.58.33zM258.33 221.8a.89.89 0 01-.69-.4l-1.26-2.15a.91.91 0 01.26-1.16c.37-.22.85-.1 1.1.28l1.27 2.16c.21.38.1.88-.26 1.16-.16.05-.32.1-.42.1zM229.7 226.1h-.15l-2.31-.6a.83.83 0 01-.58-1c.1-.44.52-.72.94-.6l2.32.6c.42.11.68.56.58 1-.1.38-.48.6-.8.6zM299.57 255.16a.73.73 0 01-.52-.22.89.89 0 01-.1-1.16l1.52-1.93a.79.79 0 011.1-.11c.32.27.37.82.1 1.16l-1.52 1.93c-.1.27-.37.33-.58.33zM294.63 223.01c-.05 0-.16 0-.21-.05l-2.58-.83c-.42-.11-.63-.6-.53-1.05.1-.44.58-.66 1-.55l2.58.82c.42.12.63.61.53 1.05a.8.8 0 01-.8.61zM314.51 242.68l-.15-.17-1.53-2.37a.84.84 0 01.21-1.16c.37-.28.84-.17 1.1.22l1.53 2.37c.27.39.16.89-.2 1.16a.76.76 0 01-.96-.05z" fill="#fff"/><path d="M435.78 375.63c-.15 0-.31-.1-.31-.27v-74.19c0-.16.16-.27.31-.27.16 0 .32.1.32.27v74.19c0 .16-.16.27-.32.27z" fill="#868A91"/><path d="M277.74 208.04c-.05 0-.16 0-.21-.05l-2.58-.83c-.42-.11-.63-.6-.52-1.05.1-.44.57-.66 1-.55l2.57.82c.42.12.63.61.53 1.06-.16.38-.47.6-.79.6zM275.53 263c-.05 0-.16 0-.21-.05l-2.58-.83c-.42-.11-.63-.6-.52-1.05.1-.44.57-.66 1-.55l2.57.83c.42.1.63.6.53 1.05-.16.38-.47.6-.79.6z" fill="#fff"/><path opacity=".2" d="M241.8 261.07l-4.15-42.92c-.05-.55.69-.72.84-.16l12.94 44.57-9.62-1.49zM300.15 278.3l.06-.05.1.1-.16-.05z" fill="#000"/><path d="M319.1 280.9c-.53.66-1.48.83-2.17.28l-9.3-7.18 11.83 5.69c.05.44-.1.88-.37 1.21z" fill="#868A91"/><path d="M459.4 422.64l-23.3 9.45-55.98-103.96h-97.7v-41.32H394.7c6.95 0 13.2 4.42 15.84 11.16l48.88 124.67z" fill="#3F4249"/><path opacity=".2" d="M447.36 427.5l-11.26 4.59-55.98-103.96h-97.7v-41.32h92.91c6.95 0 13.2 4.42 15.84 11.16l56.19 129.53z" fill="#000"/><path d="M400.59 422.64l-23.36 9.45-55.93-103.96h-97.7v-41.32h112.28c6.94 0 13.2 4.42 15.83 11.16l48.88 124.67z" fill="#3F4249"/><path opacity=".2" d="M336.4 319.35c-3.94-8.07-8.31-10.44-16.94-10.44h-67.08l2.26-22.1h-13.73v41.32h80.34l55.98 103.96 10.47-4.25-51.3-108.5z" fill="#000"/><path d="M400.59 422.64l1.89 3.1a20.14 20.14 0 0010.63 8.67l23.94 8.9c2.15.71 1.89 4.02-.37 4.02h-3c-.37.56-1 .89-1.69.89-.63 0-1.36-.33-1.84-.77-.05-.06-.1-.06-.15-.12h-.43c-.05.06-.15.06-.2.17a2.1 2.1 0 01-1.58.77c-.58 0-1.27-.27-1.74-.66-.21-.22-.58-.16-.74.06-.31.38-.73.6-1.26.6-.47 0-1.05-.22-1.47-.55-.21-.16-.53-.1-.69.06-.31.27-.68.5-1.15.5-.63 0-1.16-.4-1.43-.89h-.2l-29.63-.5c-2.84-.05-4.94-1-6.15-3.31l-6.1-11.5 23.36-9.44z" fill="#FC9D9D"/><path opacity=".15" d="M384.86 429l15.73-6.36-12.79 11.94 2.53 4.75c1.2 2.32 3.31 3.25 6.15 3.31l29.62.5h.21a1.59 1.59 0 002.58.38c.21-.16.48-.22.69-.05.42.33 1 .55 1.47.55.53 0 .95-.22 1.26-.6a.54.54 0 01.74-.06c.47.44 1.16.66 1.74.66.63 0 1.2-.27 1.57-.77a.7.7 0 01.21-.17h.06l.47.17c.16.05.26.1.37.16.05.06.16.11.2.17 1.48 1.1 1.06 3.75-.94 3.75h-3c-.37.56-1 .89-1.68.89-.63 0-1.37-.33-1.84-.77-.06-.06-.1-.06-.16-.12h-.42c-.05.06-.16.06-.21.17a2.1 2.1 0 01-1.58.77c-.58 0-1.26-.27-1.74-.66-.2-.22-.57-.16-.73.06-.32.38-.74.6-1.26.6-.48 0-1.06-.22-1.48-.55-.2-.16-.52-.1-.68.06-.32.27-.69.5-1.16.5-.63 0-1.16-.4-1.42-.89h-.21l-29.62-.5c-2.84-.05-4.95-1-6.16-3.31l-6.1-11.5 7.58-3.08z" fill="#000"/><path opacity=".15" d="M414.58 434.96s-4.63 8.56-13.3 11.66h8.78l4.52-11.66z" fill="#000"/><path d="M131 449.71h82.6c3.32 0 6-2.82 6-6.3V273.78c0-3.48-2.68-6.3-6-6.3H137c-3.3 0-6 2.82-6 6.3V449.7z" fill="#868A91"/><path opacity=".4" d="M87.08 176.44H80.6v269.73h1.84V179.16h4.63v-2.7z" fill="#000"/><path d="M70.93 176.44H96.7a4.45 4.45 0 004.32-4.53v-14.08H66.66v14.08c0 2.5 1.9 4.53 4.27 4.53z" fill="#61656D"/><path d="M80.58 446.14h6.47V176.41h-6.47v269.73z" fill="#61656D"/><path d="M87.08 176.44H80.6v263.44h1.78v-260.9h4.69v-2.53zM70.98 171.92v-3.6h-4.32v3.6a4.45 4.45 0 004.32 4.53h4.31a4.41 4.41 0 01-4.31-4.53z" fill="#21252B"/><path d="M49.2 449.43c-1.21 0-1.63-1.76-.53-2.32a77.63 77.63 0 0135.15-8.23c12.89 0 24.93 2.99 35.14 8.23 1.1.56.74 2.32-.53 2.32H49.2z" fill="#61656D"/><path d="M87.81 439c-1.31-.06-2.63-.12-3.94-.12-12.9 0-24.94 2.99-35.15 8.23-1.1.56-.73 2.32.53 2.32h11.73c3.1-4.42 14.58-9.6 26.83-10.44z" fill="#21252B"/><path d="M594.72 449.99H25.36c-.15 0-.26-.11-.26-.28 0-.16.1-.27.26-.27h569.36c.16 0 .26.1.26.27s-.1.28-.26.28z" fill="#B2B6BB"/><path d="M111.12 262.84c-.16 0-.26-.11-.26-.28v-93.9c0-.17.1-.28.26-.28s.26.11.26.28v93.9c0 .17-.15.28-.26.28z" fill="#21252B"/><path d="M212.13 268.2H153c-.16 0-.26-.17-.26-.39s.1-.39.26-.39h59.19c.16 0 .26.17.26.4 0 .21-.16.38-.32.38z" fill="#B2B6BB"/><path opacity=".2" d="M466.2 89.72l57.23 153.45h18.05L483.24 89.72h-17.05zM491.34 89.72l57.3 153.45h6L496.38 89.72h-5.05z" fill="#fff"/><path d="M597.93 243.17H514.7V89.72h42.88l-1.84-6.96h-136.1v167.37h180.08l-1.79-6.96zM426.31 89.72h81.76v153.45h-81.76V89.72z" fill="#fff"/><path d="M191.77 267.53H178.2a3.87 3.87 0 01-3.79-3.97v-23.42h21.2v23.42a3.95 3.95 0 01-3.84 3.97z" fill="#21252B"/><path d="M198.88 259.52h-3.32v-1.7h3.31c.85 0 1.53-.73 1.53-1.61v-9.56c0-.88-.68-1.6-1.53-1.6h-3.3v-1.71h3.3c1.74 0 3.1 1.5 3.1 3.26v9.55a3.19 3.19 0 01-3.1 3.38z" fill="#21252B"/><path opacity=".6" d="M197.03 245.05v-1.71h-1.47v-3.26h-4.63v23.03a3.5 3.5 0 01-3.42 3.6h-11.73c.63.55 1.47.88 2.37.88h13.57c2.1 0 3.79-1.77 3.79-3.98v-4.03h1.47v-1.71h-1.47V245.1h1.52v-.06z" fill="#000"/><path d="M181.62 238.42c-.16 0-.27-.1-.27-.27 0-2.1-1.63-3.87-3.68-3.87h-1.79a2.9 2.9 0 01-2.84-2.98 2.9 2.9 0 012.84-2.99h10.1a2.4 2.4 0 002.32-2.43 2.4 2.4 0 00-2.31-2.43h-2.43a2.96 2.96 0 01-2.89-3.03c0-.17.1-.28.27-.28.15 0 .26.1.26.28a2.42 2.42 0 002.37 2.48h2.42a2.9 2.9 0 012.84 2.98 2.9 2.9 0 01-2.84 2.99h-10.1a2.4 2.4 0 00-2.32 2.43 2.4 2.4 0 002.31 2.43h1.8c2.3 0 4.2 1.99 4.2 4.42 0 .16-.1.27-.26.27zM187.46 240.13c-.16 0-.26-.1-.26-.27v-.66c0-.5-.37-.89-.85-.89a1.4 1.4 0 01-1.36-1.43v-1.16c0-.83.63-1.44 1.36-1.44h1.69a4.27 4.27 0 004.15-4.36v-2.16c0-.16.1-.27.27-.27.16 0 .26.1.26.27v2.1c0 2.7-2.1 4.92-4.68 4.92h-1.69a.85.85 0 00-.84.88v1.16c0 .5.37.89.84.89.8 0 1.37.66 1.37 1.43v.66c0 .17-.1.33-.26.33z" fill="#fff"/><path opacity=".6" d="M272.43 249.42c.58 0 1.05-.5 1.05-1.1 0-.62-.47-1.11-1.06-1.11-.58 0-1.05.5-1.05 1.1 0 .61.47 1.1 1.06 1.1zM316.3 229.59c.58 0 1.06-.5 1.06-1.11 0-.61-.48-1.1-1.06-1.1-.58 0-1.05.49-1.05 1.1 0 .61.47 1.1 1.05 1.1zM296 208.43c.58 0 1.05-.5 1.05-1.1 0-.62-.47-1.11-1.05-1.11-.58 0-1.06.5-1.06 1.1 0 .62.48 1.1 1.06 1.1zM273.8 223.56c.58 0 1.05-.5 1.05-1.1 0-.61-.47-1.1-1.06-1.1-.58 0-1.05.49-1.05 1.1 0 .6.47 1.1 1.05 1.1zM300.36 263.67c.58 0 1.06-.5 1.06-1.1 0-.62-.48-1.11-1.06-1.11-.58 0-1.05.5-1.05 1.1 0 .61.47 1.1 1.05 1.1zM296.47 239.09c.58 0 1.05-.5 1.05-1.1 0-.62-.47-1.11-1.05-1.11-.58 0-1.05.49-1.05 1.1 0 .61.47 1.1 1.05 1.1zM255.22 202.08c.58 0 1.05-.5 1.05-1.1 0-.62-.47-1.11-1.05-1.11-.58 0-1.05.5-1.05 1.1 0 .61.47 1.1 1.05 1.1zM230.18 198.82c.58 0 1.05-.5 1.05-1.1 0-.62-.47-1.11-1.05-1.11-.58 0-1.05.5-1.05 1.1 0 .61.47 1.1 1.05 1.1zM249.44 230.2c.58 0 1.05-.5 1.05-1.11 0-.61-.47-1.1-1.06-1.1-.58 0-1.05.49-1.05 1.1 0 .6.47 1.1 1.06 1.1zM250.49 259.63c.58 0 1.05-.49 1.05-1.1 0-.61-.47-1.1-1.05-1.1-.58 0-1.05.49-1.05 1.1 0 .61.47 1.1 1.05 1.1zM215.82 218.54c.58 0 1.05-.5 1.05-1.1 0-.62-.47-1.11-1.05-1.11-.58 0-1.06.5-1.06 1.1 0 .61.48 1.1 1.06 1.1z" fill="#000"/><path d="M496.97 449.71h-54.3a1.5 1.5 0 01-1.47-1.55c0-.83.63-1.54 1.48-1.54h55.71v1.54c0 .83-.63 1.55-1.42 1.55z" fill="#139988"/><path d="M498.4 446.62a7.88 7.88 0 00-5.06-7.18l-18-6.58a1.35 1.35 0 00-1.78 1c-.79 2.76-2.74 8.67-6.58 12.76h-24.3a1.5 1.5 0 00-1.48 1.54c0 .89.63 1.55 1.48 1.55h54.3c.78 0 1.41-.66 1.41-1.5v-1.6z" fill="#139988"/><path d="M498.4 446.62a7.88 7.88 0 00-5.06-7.18l-18-6.58a1.35 1.35 0 00-1.78 1c-.79 2.76-2.74 8.67-6.58 12.76h-24.3a1.5 1.5 0 00-1.48 1.54c0 .89.63 1.55 1.48 1.55h54.3c.78 0 1.41-.66 1.41-1.5v-1.6z" fill="#21252B"/><path opacity=".4" d="M498.4 446.62a8 8 0 00-3.38-6.3c2.58 1.93 2.1 3.87-1.57 3.7-19-.94-21.47-.94-23.68-1.16.05-.05.05-.1.05-.16a23.1 23.1 0 01-2.89 3.92h-24.3a1.5 1.5 0 00-1.48 1.54c0 .89.63 1.55 1.47 1.55h54.3c.79 0 1.42-.66 1.42-1.5v-1.6h.05z" fill="#000"/><path opacity=".4" d="M498.34 446.12H467.4l-.47.5h31.4v-.5z" fill="#000"/><path d="M438.3 449.71h-54.29a1.5 1.5 0 01-1.47-1.55c0-.83.63-1.54 1.47-1.54h55.72v1.54c0 .83-.63 1.55-1.42 1.55z" fill="#139988"/><path d="M439.73 446.62a7.88 7.88 0 00-5.05-7.18l-18-6.58c-.78-.27-1.57.17-1.78 1-.8 2.76-2.74 8.67-6.58 12.76h-24.3a1.5 1.5 0 00-1.48 1.54c0 .89.63 1.55 1.47 1.55h54.3c.79 0 1.42-.66 1.42-1.5v-1.6z" fill="#139988"/><path d="M439.73 446.62a7.88 7.88 0 00-5.05-7.18l-18-6.58c-.78-.27-1.57.17-1.78 1-.8 2.76-2.74 8.67-6.58 12.76h-24.3a1.5 1.5 0 00-1.48 1.54c0 .89.63 1.55 1.47 1.55h54.3c.79 0 1.42-.66 1.42-1.5v-1.6z" fill="#21252B"/><path opacity=".4" d="M439.73 446.62a8 8 0 00-3.37-6.3c2.58 1.93 2.1 3.87-1.58 3.7-18.99-.94-21.46-.94-23.67-1.16.05-.05.05-.1.05-.16a23.1 23.1 0 01-2.9 3.92h-24.25a1.5 1.5 0 00-1.47 1.54c0 .89.63 1.55 1.47 1.55h54.3c.79 0 1.42-.66 1.42-1.5v-1.6z" fill="#000"/><path opacity=".4" d="M439.73 446.12h-30.99l-.42.5h31.4v-.5z" fill="#000"/><path d="M249.07 61.33c0-12.87-9.26-23.48-21.2-24.86v-.17h-2.64c-13.15 0-23.83 11.22-23.83 25.03 0 13.8 10.68 25.02 23.83 25.02h2.63v-.16c11.95-1.39 21.2-12 21.2-24.86z" fill="#B2B6BB"/><path d="M227.86 86.35c13.17 0 23.84-11.2 23.84-25.02S241.03 36.3 227.86 36.3c-13.16 0-23.83 11.2-23.83 25.03 0 13.82 10.67 25.02 23.83 25.02z" fill="#868A91"/><path d="M227.86 83.59c11.71 0 21.2-9.97 21.2-22.26 0-12.3-9.49-22.26-21.2-22.26-11.7 0-21.2 9.96-21.2 22.26s9.5 22.26 21.2 22.26z" fill="#fff"/><path d="M227.86 83.59c11.71 0 21.2-9.97 21.2-22.26 0-12.3-9.49-22.26-21.2-22.26-11.7 0-21.2 9.96-21.2 22.26s9.5 22.26 21.2 22.26z" fill="#868A91"/><path opacity=".9" d="M227.86 83.59c11.71 0 21.2-9.97 21.2-22.26 0-12.3-9.49-22.26-21.2-22.26-11.7 0-21.2 9.96-21.2 22.26s9.5 22.26 21.2 22.26z" fill="#fff"/><path d="M227.86 39.07c-.36 0-.73 0-1.15.05 11.15.6 20.04 10.33 20.04 22.2 0 11.88-8.89 21.6-20.04 22.21.36 0 .73.06 1.15.06 11.74 0 21.2-9.94 21.2-22.26 0-12.32-9.46-22.26-21.2-22.26z" fill="#B2B6BB"/><path d="M228.07 63.04l-7.04-14.7c-.27-.55-.06-1.26.47-1.54a1.09 1.09 0 011.47.5l6.05 12.65 8.05-4.15a1.07 1.07 0 011.47.56c.27.55.06 1.27-.52 1.54l-9.95 5.14z" fill="#139988"/><path d="M559.53 372.98l-24.15 27.51.16-50.6h-.64l-.05 24.53-20.41-21.82-.42.44 20.83 22.32-.16 45.85h.63l.06-19.78 24.57-28-.42-.45zM516.8 400.44l-.42.44 10.63 10.5 1.68 9.88.58-.1-6.68-39.56-.63.11 4.9 28.62-10.06-9.9z" fill="#21252B"/><path d="M524.64 449.71h15c2.79 0 5.1-2.38 5.1-5.36v-20.82h-25.2v20.82a5.24 5.24 0 005.1 5.36z" fill="#61656D"/><path d="M535.22 349.95c8.66 0 15.68-7.37 15.68-16.46 0-9.1-7.02-16.46-15.68-16.46s-15.68 7.37-15.68 16.46c0 9.1 7.02 16.46 15.68 16.46zM521.17 383.26c6.19 0 11.2-5.27 11.2-11.77s-5.01-11.76-11.2-11.76c-6.19 0-11.2 5.26-11.2 11.76s5.01 11.77 11.2 11.77z" fill="#139988"/><path opacity=".3" d="M521.17 383.26c6.19 0 11.2-5.27 11.2-11.77s-5.01-11.76-11.2-11.76c-6.19 0-11.2 5.26-11.2 11.76s5.01 11.77 11.2 11.77zM535.22 349.95c8.66 0 15.68-7.37 15.68-16.46 0-9.1-7.02-16.46-15.68-16.46s-15.68 7.37-15.68 16.46c0 9.1 7.02 16.46 15.68 16.46z" fill="#fff"/><path d="M511.17 356.63c3.7 0 6.69-3.14 6.69-7.01 0-3.88-3-7.02-6.69-7.02-3.68 0-6.68 3.14-6.68 7.02 0 3.87 3 7.01 6.68 7.01zM511.02 403.53c4.38 0 7.94-3.73 7.94-8.34 0-4.6-3.56-8.34-7.94-8.34-4.4 0-7.95 3.73-7.95 8.34 0 4.6 3.56 8.34 7.95 8.34zM553.53 391.05c5.6 0 10.15-4.78 10.15-10.66 0-5.9-4.54-10.66-10.15-10.66s-10.16 4.77-10.16 10.66c0 5.88 4.55 10.66 10.16 10.66z" fill="#139988"/><path d="M545.27 420.71H519c-.73 0-1.31.6-1.31 1.38 0 .78.58 1.38 1.31 1.38h26.26c.73 0 1.31-.6 1.31-1.38 0-.77-.58-1.38-1.31-1.38z" fill="#61656D"/><path d="M519.54 333.49c0-9.12 7.05-16.46 15.68-16.46V350c-8.68-.06-15.68-7.4-15.68-16.52zM522.8 383.15c-6.05.94-11.68-3.37-12.73-9.72-1-6.25 2.9-12.21 8.79-13.48l3.94 23.2z" fill="#139988"/><path opacity=".3" d="M506.44 354.59a7.25 7.25 0 01-.05-9.94s.05-.06.1-.06l9.37 10.06a6.52 6.52 0 01-9.42-.06zM516.65 401.05a7.66 7.66 0 01-11.26.05 8.63 8.63 0 01-.16-11.7l11.58 11.43c0 .1-.06.16-.16.22z" fill="#000"/><path d="M544.69 423.53h-22.94c-.74 0-1.32-.61-1.32-1.38 0-.78.58-1.38 1.32-1.38h-2.79c-.74 0-1.31.6-1.31 1.38 0 .77.58 1.38 1.31 1.38h.53v20.82a5.24 5.24 0 005.1 5.36h8.16a7.55 7.55 0 01-7.32-6.3l-3.63-19.44h22.84v-.44h.05z" fill="#3F4249"/><path opacity=".3" d="M560.42 372.54c-.05-.05-.1-.05-.1-.1l-13.69 15.74.06.05a9.86 9.86 0 0014.36-.6 11.15 11.15 0 00-.63-15.09z" fill="#000"/><path d="M558.74 94.2H426.3v-2.55h131.8l.63 2.55zM559.95 98.67H426.3v-2.54h132.95l.69 2.54zM561.1 103.14H426.31v-2.54h134.11l.68 2.54zM562.31 107.62h-136v-2.54h135.32l.68 2.54zM563.47 112.1H426.31v-2.55H562.8l.68 2.54zM564.63 116.57H426.3v-2.6h137.64l.68 2.6z" fill="#fff"/><path d="M429.42 161.03h-.1V89.78h-.59v71.25h-.1c-.48 0-.9.4-.9.94v9.95c0 .5.37.94.9.94h.79a.9.9 0 00.9-.94v-9.95c0-.55-.38-.94-.9-.94z" fill="#fff"/><path opacity=".2" d="M302.63 217.93l5 51.76 4.36 4.53 4-2.76-8.74-49.72c-.89-4.09-4.63-4.42-4.63-3.81zM427.63 91.65h-1.32v2.55h1.32v-2.55zM427.63 96.13h-1.32v2.54h1.32v-2.54zM427.63 100.6h-1.32v2.54h1.32v-2.54zM427.63 105.08h-1.32v2.54h1.32v-2.54zM427.63 109.5h-1.32v2.54h1.32v-2.54zM427.63 113.97h-1.32v2.54h1.32v-2.54zM514.7 94.2h-6.63v1.1h6.63v-1.1zM514.7 98.67h-6.63v1.1h6.63v-1.1zM514.7 103.14h-6.63v1.1h6.63v-1.1zM514.7 107.62h-6.63v1.1h6.63v-1.1zM514.7 112.1h-6.63v1.1h6.63v-1.1zM514.7 116.57h-6.63v1.1h6.63v-1.1z" fill="#000"/><path d="M61.77 92.54h44.62l24.83 74.4h-94.8l25.35-74.4z" fill="#139988"/><path d="M61.77 92.54h14.1l-9.73 74.4H36.4l25.36-74.4z" fill="#139988"/><path d="M61.74 92.56h44.67v-3.37H61.74v3.37zM36.44 170.28h94.8v-3.37h-94.8v3.37z" fill="#139988"/><path opacity=".4" d="M61.77 92.54h44.62l24.83 74.4h-94.8l25.35-74.4z" fill="#fff"/><path opacity=".4" d="M72.82 92.54h33.57l24.83 74.4H62.14l10.68-74.4z" fill="#fff"/><path opacity=".6" d="M248.38 187.94s-.52 2.26 1.16 3.36c1.9 1.16 9.2 6.3 19.52 3.04 0 0 3.26-.94 6.37-3.31a3.42 3.42 0 001.31-2.27v-1.05l2.9.72c0 .94-.27 2.7-1.74 4.25-.84.89-13.31 11-29.2 1.66 0 0-3.47-1.43-3.1-5.69l2.78-.72z" fill="#000"/><path opacity=".5" d="M246.02 72.76a22.88 22.88 0 003.05-11.49c0-12.32-9.47-22.26-21.2-22.26-.58 0-1.16.06-1.74.06l19.89 33.7zM222.92 39.67c-1.05.28-2.05.61-3 1L241.86 78c.84-.77 1.63-1.66 2.37-2.6l-21.31-35.74z" fill="#fff"/><path d="M288.26 268.2l7.47 1.05 15.94-1.5c1.69.17 2.42.5 3.69 1.66l9.83 9.23c.64.6.69 1.6.16 2.26-.52.67-1.47.83-2.15.28l-9.32-7.18 6.05 7.5c.69.84.37 2.16-.63 2.55a1.5 1.5 0 01-1.58-.33l-8.1-8.34 6.16 6.35c.73.77.47 2.04-.48 2.43-.47.22-1 .11-1.36-.17l-8.63-6.62 5.84 4.53c.68.5.68 1.6 0 2.1-.37.27-.84.33-1.21.16l-7.84-3.42a2.74 2.74 0 00-2.37.05l-3 1.55a17.01 17.01 0 01-7.84 1.93H284c-7 0 4.26-16.07 4.26-16.07z" fill="#FC9D9D"/><path opacity=".15" d="M241.86 261.95l-2.63-.22c-.8-.05-1.21-.94-.9-1.65l2.8-5.91.73 7.78zM311.15 282.17c-.05 0-.1 0-.16-.05l-5.37-4.15c-.1-.1-.15-.27-.05-.38.1-.11.26-.17.37-.06l5.37 4.15c.1.1.15.27.05.38a.39.39 0 01-.21.11zM315.73 282c-.06 0-.16 0-.16-.05l-5.79-5.96a.28.28 0 010-.4c.1-.1.26-.1.37 0l5.79 5.97c.1.12.1.28 0 .4-.06.05-.16.05-.21.05zM303.84 279.74a249 249 0 015.84 3.15c1.47.88 1.89-.28 1.89-.28.1.5-.05 1.05-.47 1.38-.37.28-.85.34-1.21.17l-7.84-3.42a2.73 2.73 0 00-2.37.05l1.52-.94c.85-.5 1.8-.5 2.64-.1z" fill="#000"/><path d="M287.05 268.86l-45.2-6.96-2.94-30.05-28.2 1.5 5.74 38.38c1.1 7.24 7 12.54 13.94 12.54h51.4l5.26-15.41z" fill="#139988"/><path d="M293.2 268.86l-51.34-6.9-2.95-30.06-28.2 1.5 5.74 38.39c1.1 7.23 7 12.54 13.94 12.54h57.71l5.1-15.47z" fill="#139988"/><path d="M309.04 275.76l-2.05-1.54 2.05 1.54z" fill="#9A73EF"/><path opacity=".6" d="M227.6 240.2c.58 0 1.06-.5 1.06-1.11 0-.61-.48-1.1-1.06-1.1-.58 0-1.05.49-1.05 1.1 0 .6.47 1.1 1.05 1.1zM288.1 268.2l5.1.66-5.04 15.41h-6.32l6.26-16.07z" fill="#000"/><path opacity=".2" d="M288.63 267.81c-.05.22-.21.33-.37.33h-.05l-46.4-7.07-.1-.88 46.6 7.12c.21.06.37.28.32.5z" fill="#000"/><path d="M237.54 247.98c-.42 0-.73-.33-.78-.77l-.27-2.71c-.05-.44.26-.88.74-.88.42-.06.84.27.84.77l.26 2.7c.06.45-.26.89-.73.89h-.06zM217.92 256.98a.74.74 0 01-.52-.22.89.89 0 01-.11-1.16l1.53-1.93a.79.79 0 011.1-.11c.32.27.37.83.1 1.16l-1.52 1.93a.72.72 0 01-.58.33zM241.33 275.27c-.05 0-.15 0-.2-.06l-2.59-.83c-.42-.1-.63-.6-.52-1.05.1-.44.58-.66 1-.55l2.58.83c.42.11.63.6.52 1.05a.8.8 0 01-.79.6zM263.8 276.1c-.16 0-.37-.06-.48-.17a.89.89 0 01-.1-1.16l1.63-2.1a.79.79 0 011.1-.1c.32.27.37.82.11 1.15l-1.63 2.1c-.21.17-.42.28-.63.28z" fill="#fff"/><path opacity=".6" d="M253.33 269.96c.58 0 1.05-.49 1.05-1.1 0-.61-.47-1.1-1.05-1.1-.58 0-1.06.49-1.06 1.1 0 .61.48 1.1 1.06 1.1zM272.43 282.12c.58 0 1.05-.5 1.05-1.1 0-.62-.47-1.11-1.06-1.11-.58 0-1.05.5-1.05 1.1 0 .61.47 1.1 1.06 1.1zM230.97 260.74c.58 0 1.05-.5 1.05-1.1 0-.62-.47-1.11-1.05-1.11-.58 0-1.05.5-1.05 1.1 0 .61.47 1.1 1.05 1.1z" fill="#000"/><path opacity=".15" d="M289 281.51l-.84 2.7h-57.72c-6.94 0-12.89-5.3-13.94-12.53l-8.26-55.52c-1.42-9.94 4.63-19.39 13.94-21.7l4.9-1.22c-7.48 3.48-12 11.82-10.74 20.55l7.63 51.15c1.1 7.23 7 12.54 13.94 12.54L289 281.5z" fill="#000"/><path opacity=".15" d="M294.1 281.56c-1.2 0-2.16-1.16-2.05-2.43l1.16-10.27-5.1 15.41h.73c2.74 0 5.42-.66 7.84-1.93l3.58-1.77c-.84.11-3.06 1-6.16 1z" fill="#000"/><path d="M281.1 283.83h51.88c.42 0 .8.39.8.83v1.38c0 .44-.38.83-.8.83h-51.87c-.42 0-.8-.39-.8-.83v-1.38c0-.44.32-.83.8-.83z" fill="#21252B"/><path opacity=".6" d="M281.1 283.83h51.88c.42 0 .8.39.8.83v1.38c0 .44-.38.83-.8.83h-51.87c-.42 0-.8-.39-.8-.83v-1.38c0-.44.32-.83.8-.83z" fill="#000"/><path d="M316.1 283.83h90.43c.42 0 .8.39.8.83v1.38c0 .44-.38.83-.8.83H316.1c-.42 0-.78-.39-.78-.83v-1.38c.05-.44.36-.83.78-.83z" fill="#21252B"/><path opacity=".6" d="M405.37 284.38H313.3c-.15 0-.26-.1-.26-.27s.1-.28.26-.28h92.07c.16 0 .27.11.27.28 0 .16-.16.27-.27.27z" fill="#000"/><path d="M315.88 283.83h13.63c1.05 0 1.94-.77 2.16-1.88l11.41-63.03a2.25 2.25 0 00-2.15-2.7H327.3c-1.05 0-1.95.77-2.16 1.88l-11.41 63.02c-.22 1.44.78 2.71 2.15 2.71z" fill="#21252B"/><path opacity=".6" d="M315.88 283.83h13.63c1.05 0 1.94-.77 2.16-1.88l11.41-63.03a2.25 2.25 0 00-2.15-2.7H327.3c-1.05 0-1.95.77-2.16 1.88l-11.41 63.02c-.22 1.44.78 2.71 2.15 2.71z" fill="#000"/><path d="M317.83 283.83h87.5c1.05 0 1.94-.77 2.15-1.88l11.42-63.03a2.25 2.25 0 00-2.16-2.7H329.3c-1.05 0-1.95.77-2.16 1.88l-11.41 63.02c-.27 1.44.73 2.71 2.1 2.71z" fill="#21252B"/><path opacity=".6" d="M367.81 248.26c-.52 1.27.05 2.37 1.26 2.37h.22c-1.43 1.66-3.58 2.82-5.48 2.76-2.57-.05-3.79-2.26-2.63-4.97 1.1-2.7 4.16-4.8 6.74-4.75 1.63.06 2.73.94 3 2.32-1.22.06-2.58 1-3.1 2.27z" fill="#000"/><path d="M279.1 155.07s-24.09-18.56-26.45 1.66l-.69 5.3-3.58 25.9v.06l-.05.55c-.1.78.1 1.5.53 2.05v.05l.05.06c.16.22.37.44.63.6a23.65 23.65 0 004.79 2.55 21.65 21.65 0 0021.73-3.32c.47-.6.73-1.38.68-2.2l-.42-13.49c.42-1.38.69-2.92.84-4.64.8-7.95 1.95-15.13 1.95-15.13z" fill="#FC9D9D"/><path d="M281.84 156.5c4.74 0 8.58-4.03 8.58-9s-3.84-9-8.58-9c-4.73 0-8.57 4.03-8.57 9s3.84 9 8.57 9z" fill="#21252B"/><path d="M282.95 140.98s6.2 40.16-13.31 41.32c-16.89 1.05-16.78-26.4-16.78-26.4l2.05-17.68 28.04 2.76z" fill="#FC9D9D"/><path d="M281.69 143.36h-17.15a3.98 3.98 0 00-3.9 4.08 3.99 3.99 0 01-3.9 4.1c-.57 0-1.04.49-1.04 1.1v3.98c0 .5-.37.93-.9.93a.87.87 0 01-.84-.77l-.53-3.81-.68-1.33-4.2 2.32s-5.8-11.04-2-20.38c2.15-5.36 7.46-6.85 9.88-7.02.8-.05 1.53-.5 2-1.16 1.1-1.7 3.74-4.58 9.1-3.92 4.1.5 6.26 2.99 7.26 5.03.63 1.16 2 1.71 3.21 1.27 1.8-.66 4.37-1 7.16 1.1 5.47 3.98 2.52 13.98-3.47 14.48z" fill="#21252B"/><path opacity=".15" d="M251.75 163.35s1.58.28 2.47-.38l-3 4.2.53-3.82z" fill="#000"/><path d="M253.44 152.91s-1-3.8-4.8-2.37c-4.3 1.6-4.2 11.7 2.9 12.81 3.74.61 3.1-1.7 2.68-4.8l-.78-5.64z" fill="#FC9D9D"/><path opacity=".3" d="M248.28 153.08c.73-.44 1.47-.6 2.1-.39.63.22 1.16.72 1.53 1.5a6 6 0 01.53 2.76v.88c0 .28-.22.44-.48.44s-.42-.22-.42-.5v-.88a5.73 5.73 0 00-.42-2.32c-.26-.55-.63-.94-1-1.05-.37-.11-.84 0-1.42.33-.21.11-.47.06-.58-.16-.1-.17-.05-.44.16-.61z" fill="#000"/><path d="M281.74 144.19l-2 .05c-.21 0-.42-.17-.42-.39s.16-.44.37-.44l2-.05c.26 0 .52-.06.73-.11a9.57 9.57 0 002.37-1c.21-.1.42-.05.53.17.1.22.05.44-.16.55-1 .6-2.05.94-2.58 1.05-.21.11-.53.17-.84.17z" fill="#FC9D9D"/><path opacity=".15" d="M276.74 186.06l-.21-6.41c-1.74 1.66-6.58 3.81-11.68 2.1 0 0-.05-.06 0 0a12.92 12.92 0 01-6.42-4.92c-.1-.16-.37-.22-.53-.1-.15.1-.2.38-.1.54a13.98 13.98 0 008.52 5.7c5.1 4.2 10.42 3.09 10.42 3.09z" fill="#000"/><path opacity=".3" d="M271.7 174.4h-2.38a.54.54 0 01-.52-.55c0-.28.2-.55.52-.55h2.32c.26 0 .52.22.52.55-.05.28-.26.5-.47.55zM272.64 172.14c-4.26.33-6-2.21-6.58-3.48-.1-.28 0-.56.21-.67.26-.1.53 0 .63.22.58 1.22 2.48 3.93 7.68 2.54.27-.05.53.12.58.4.05.27-.1.54-.37.6-.73.22-1.47.33-2.15.39z" fill="#000"/><path d="M267.74 161.09c.85 0 1.53-.72 1.53-1.6 0-.89-.68-1.6-1.53-1.6-.84 0-1.52.71-1.52 1.6 0 .88.68 1.6 1.52 1.6z" fill="#21252B"/><path d="M268.48 160.2c.17 0 .31-.14.31-.33a.32.32 0 00-.31-.33.32.32 0 00-.32.33c0 .19.15.34.32.34z" fill="#fff"/><path d="M279.95 162.08c.84 0 1.53-.71 1.53-1.6 0-.88-.69-1.6-1.53-1.6-.84 0-1.53.72-1.53 1.6 0 .89.69 1.6 1.53 1.6z" fill="#21252B"/><path d="M280.69 161.14c.17 0 .31-.14.31-.33a.32.32 0 00-.31-.33.32.32 0 00-.32.33c0 .19.14.33.31.33z" fill="#fff"/><path opacity=".3" d="M274.06 168.27h-2.1a.48.48 0 01-.48-.5c0-.27.2-.5.47-.5h2.1c.53 0 .95-.44.95-.99s-.42-1-.94-1a.48.48 0 01-.48-.49c0-.28.21-.5.48-.5 1 0 1.84.89 1.84 1.94 0 1.16-.8 2.04-1.84 2.04z" fill="#000"/><path d="M284.69 156.56l-6.74-.5-.9-.05-5.88-.44h-.06l-7.57-.56a2.24 2.24 0 00-2.37 2.16l-.1 1.82c-.22 3.48 2.26 6.57 5.62 6.8a6.17 6.17 0 006.47-5.92l.1-1.82c.06-.55-.1-1.05-.36-1.44l2.37.17a2.5 2.5 0 00-.58 1.38l-.1 1.82c-.22 3.48 2.26 6.58 5.62 6.8a6.17 6.17 0 006.48-5.91l.1-1.83a2.42 2.42 0 00-2.1-2.48zm-12.37 1.49l-.1 1.82c-.21 2.99-2.69 5.25-5.53 5.03a5.36 5.36 0 01-4.79-5.8l.11-1.82c.05-.78.68-1.38 1.42-1.33l7.58.55h.05c.74.06 1.31.78 1.26 1.55zm13.42 2.76c-.21 2.98-2.69 5.25-5.53 5.03a5.36 5.36 0 01-4.78-5.8l.1-1.82c.05-.78.69-1.38 1.42-1.33l.9.06 6.73.5a1.4 1.4 0 011.26 1.48l-.1 1.88z" fill="#21252B"/><path d="M201.5 449.71h39.47V273.78c0-3.48-2.69-6.3-6-6.3H207.5c-3.3 0-6 2.82-6 6.3V449.7z" fill="#B2B6BB"/></g><defs><linearGradient id="paint0_linear" x1="69.59" y1="406.27" x2="604.48" y2="-125.33" gradientUnits="userSpaceOnUse"><stop stop-color="#139988" stop-opacity=".2"/><stop offset="1" stop-color="#fff" stop-opacity="0"/></linearGradient><clipPath id="clip0"><path fill="#fff" d="M0 0h600v450H0z"/></clipPath></defs></svg>