<svg width="600" height="450" fill="none" xmlns="http://www.w3.org/2000/svg"><g clip-path="url(#clip0)"><path opacity=".15" d="M230.1 241.56l-.08.02-.06.02.03-.28c.04.08.08.16.1.24z" fill="#000"/><path d="M591.82 252.12l-4.52 33.4-.08.6-11.46 84.58-.27 2.03-10.2 75.33-.27 1.94H43.33l-.21-1.94-8.47-75.33-.23-2.03-12.96-115.38-.17-1.5-.43-3.84-.84-7.46-7.58-67.5a27.55 27.55 0 016.11-20.5l.8-.98 48.56-59.09 1.3-1.59L94.51 62.1l9.47-11.52L137 10.4A28.78 28.78 0 01162.65.21l308.48 37.23 27.07 3.27a28.51 28.51 0 0120.76 13.06 27.2 27.2 0 012.42 4.82l59.28 155.01 5.12 13.39 2.43 6.34 2.05 5.37a27.31 27.31 0 011.56 13.42z" fill="#F4F4F4"/><path d="M591.82 252.12l-4.52 33.4-.08.6-11.46 84.58-.27 2.03-10.2 75.33-.27 1.94H43.33l-.21-1.94-8.47-75.33-.23-2.03-12.96-115.38-.17-1.5-.43-3.84-.84-7.46-7.58-67.5a27.55 27.55 0 016.11-20.5l.8-.98 48.56-59.09 1.3-1.59L94.51 62.1l9.47-11.52L137 10.4A28.78 28.78 0 01162.65.21l308.48 37.23 27.07 3.27a28.51 28.51 0 0120.76 13.06 27.2 27.2 0 012.42 4.82l59.28 155.01 5.12 13.39 2.43 6.34 2.05 5.37a27.31 27.31 0 011.56 13.42z" fill="url(#paint0_linear)"/><path d="M575.49 372.73l-10.2 75.33-.27 1.94H43.34l-.22-1.94-8.47-75.33H575.5z" fill="#E8E8E8"/><path d="M448.98 450H215.05c1.55-7.78 53.33-14.03 116.96-14.03 63.64 0 115.41 6.25 116.97 14.03z" fill="#CCC"/><path d="M590.26 238.7a27.32 27.32 0 011.56 13.42l-4.52 33.4-.08.6-11.46 84.58H34.42L21.46 255.32l1.06.06 2.04.14a2139.01 2139.01 0 0046.63 2.77l1.39.07.25.01 1.77.08c3.18.16 6.37.3 9.56.42l1.01.05c6 .24 12 .45 18 .63l.88.02 3.01.1h.63a1429.34 1429.34 0 0037.33.5 1224.14 1224.14 0 0036.48-.58l.82-.02.97-.04a1046.96 1046.96 0 0015.6-.64l.4-.01 3.68-.19c8.97-.27 17.95-.61 26.93-1.09a593.22 593.22 0 0051.75-4.76c3.3-.47 6.61-.97 9.91-1.53 4.79-.78 9.56-1.66 14.31-2.64a458.76 458.76 0 0026.94-6.45 1033.32 1033.32 0 0027.95-8.02l5.13-1.54c.7-.2 1.39-.42 2.08-.63l5.79-1.73.34-.1c8.44-2.51 16.88-5 25.37-7.32a518.29 518.29 0 0117.96-4.6 413.44 413.44 0 0119.63-4.16 411.23 411.23 0 0146.5-6l1.08-.08h.02l1.44-.1a383.88 383.88 0 0112.23-.6 353.52 353.52 0 015.3-.13c7.86-.17 15.73-.09 23.57.24l.43.02a360.7 360.7 0 0165.1 8.68 65.68 65.68 0 01-6.96 10.84l2.43 6.34 2.06 5.36z" fill="#139988"/><path opacity=".34" d="M590.26 238.7a27.32 27.32 0 011.56 13.42l-4.52 33.4-.08.6-11.46 84.58H34.42L21.46 255.32l1.06.06 2.04.14a2139.01 2139.01 0 0046.63 2.77l1.39.07.25.01 1.77.08c3.18.16 6.37.3 9.56.42l1.01.05c6 .24 12 .45 18 .63l.88.02 3.01.1h.63a1429.34 1429.34 0 0037.33.5 1224.14 1224.14 0 0036.48-.58l.82-.02.97-.04a1046.96 1046.96 0 0015.6-.64l.4-.01 3.68-.19c8.97-.27 17.95-.61 26.93-1.09a593.22 593.22 0 0051.75-4.76c3.3-.47 6.61-.97 9.91-1.53 4.79-.78 9.56-1.66 14.31-2.64a458.76 458.76 0 0026.94-6.45 1033.32 1033.32 0 0027.95-8.02l5.13-1.54c.7-.2 1.39-.42 2.08-.63l5.79-1.73.34-.1c8.44-2.51 16.88-5 25.37-7.32a518.29 518.29 0 0117.96-4.6 413.44 413.44 0 0119.63-4.16 411.23 411.23 0 0146.5-6l1.08-.08h.02l1.44-.1a383.88 383.88 0 0112.23-.6 353.52 353.52 0 015.3-.13c7.86-.17 15.73-.09 23.57.24l.43.02a360.7 360.7 0 0165.1 8.68 65.68 65.68 0 01-6.96 10.84l2.43 6.34 2.06 5.36z" fill="#fff"/><path d="M210.67 291.74h-29.2v6.33h29.2v-6.33z" fill="#139988"/><path d="M210.67 201.89h-29.2v96.18h29.2V201.9z" stroke="#3F424A" stroke-width="3" stroke-miterlimit="10" stroke-linecap="round" stroke-linejoin="round"/><path d="M252.44 291.74h-29.2v6.33h29.2v-6.33z" fill="#139988"/><path d="M252.44 201.89h-29.2v96.18h29.2V201.9z" stroke="#3F424A" stroke-width="3" stroke-miterlimit="10" stroke-linecap="round" stroke-linejoin="round"/><path d="M262.77 202.57h-99.03v108.52h99.03V202.57zM274.82 202.57h-131.9" stroke="#3F424A" stroke-width="5" stroke-miterlimit="10" stroke-linecap="round" stroke-linejoin="round"/><path d="M587.3 286.13l-11.54 86.6H34.65l-.23-2.03-12.96-115.38-.17-1.5-.43-3.84 5.7.53a628.23 628.23 0 0145.67 6.18l.32.06 1.75.3c3.29.58 6.57 1.19 9.85 1.82h.01l1 .2a620.09 620.09 0 0117.72 3.7c.29.08.58.14.87.2l3.05.7.63.15a611.57 611.57 0 0126.24 6.68l1 .29a625.26 625.26 0 0128.16 8.6c7.26 2.42 14.5 4.95 21.73 7.5l1.96.7a939.58 939.58 0 015.7 2c17.07 5.96 34.22 11.7 51.91 15.54 26.7 5.79 52.24 3.22 79.14 3.1h.51a1078.55 1078.55 0 0056.19-1.62c37.98-2.06 75.86-6.09 113.43-12.06l1.17-.19 3.14-.5c.52-.09 1.04-.18 1.55-.25l3.24-.54.26-.05 3.1-.52 1.87-.31 2.53-.44c17.67-3.03 35.37-6.1 53.28-6.58a180.85 180.85 0 0123.76.95z" fill="#139988"/><path opacity=".77" d="M587.3 286.13l-11.54 86.6H34.65l-.23-2.03-12.96-115.38-.17-1.5-.43-3.84 5.7.53a628.23 628.23 0 0145.67 6.18l.32.06 1.75.3c3.29.58 6.57 1.19 9.85 1.82h.01l1 .2a620.09 620.09 0 0117.72 3.7c.29.08.58.14.87.2l3.05.7.63.15a611.57 611.57 0 0126.24 6.68l1 .29a625.26 625.26 0 0128.16 8.6c7.26 2.42 14.5 4.95 21.73 7.5l1.96.7a939.58 939.58 0 015.7 2c17.07 5.96 34.22 11.7 51.91 15.54 26.7 5.79 52.24 3.22 79.14 3.1h.51a1078.55 1078.55 0 0056.19-1.62c37.98-2.06 75.86-6.09 113.43-12.06l1.17-.19 3.14-.5c.52-.09 1.04-.18 1.55-.25l3.24-.54.26-.05 3.1-.52 1.87-.31 2.53-.44c17.67-3.03 35.37-6.1 53.28-6.58a180.85 180.85 0 0123.76.95z" fill="#fff"/><path d="M207.5 68.15s-10.39-5.37-18.15 3.32c0 0 6.01-9.25-3.25-17.19 0 0 6.5 9.8 1.7 19.58-.01 0 10.3-7.22 19.7-5.7zM174.44 68.15s-10.38-5.37-18.14 3.32c0 0 6-9.25-3.25-17.19 0 0 6.49 9.8 1.69 19.58 0 0 10.3-7.22 19.7-5.7z" fill="#3F424A"/><path d="M600 186.96a63.45 63.45 0 01-3.53 20.45 66.44 66.44 0 01-10.69 19.57 62.14 62.14 0 01-20.5 16.98c-8.91 4.54-18.77 6.9-28.81 7.98l-1.89.2a153.16 153.16 0 01-17.57.56l-2.7-.1a116.71 116.71 0 01-21.78-2.9 85.65 85.65 0 01-8.21-2.33c-18.62-6.22-34.57-18.43-47.26-33.27a137.4 137.4 0 01-8.08-10.41c-13.69-19.42-22.67-41.6-30.48-63.92-11.22-32 20.72-20.2 33.48-39.9 5.6-8.65 7.92-18.87 11.66-28.43 4.67-11.94 11.88-23.25 22.4-30.83a46.2 46.2 0 015.09-3.19c9.74-5.25 21.48-7.14 31.94-3.66 6.17 2.05 11.45 5.73 15.89 10.37 5.63 5.88 9.92 13.3 13 20.83 5.49 13.45 8.08 27.94 14 41.22 1.81 4.07 3.96 8.06 7.04 11.32 4.09 4.35 9.54 7.16 14.54 10.48 19.63 13.09 32.54 35.74 32.46 58.98z" fill="#139988"/><path opacity=".51" d="M600 186.96a63.45 63.45 0 01-3.53 20.45 66.44 66.44 0 01-10.69 19.57 62.14 62.14 0 01-20.5 16.98c-8.91 4.54-18.77 6.9-28.81 7.98l-1.89.2a153.16 153.16 0 01-17.57.56l-2.7-.1a116.71 116.71 0 01-21.78-2.9 85.65 85.65 0 01-8.21-2.33c-18.62-6.22-34.57-18.43-47.26-33.27a137.4 137.4 0 01-8.08-10.41c-13.69-19.42-22.67-41.6-30.48-63.92-11.22-32 20.72-20.2 33.48-39.9 5.6-8.65 7.92-18.87 11.66-28.43 4.67-11.94 11.88-23.25 22.4-30.83a46.2 46.2 0 015.09-3.19c9.74-5.25 21.48-7.14 31.94-3.66 6.17 2.05 11.45 5.73 15.89 10.37 5.63 5.88 9.92 13.3 13 20.83 5.49 13.45 8.08 27.94 14 41.22 1.81 4.07 3.96 8.06 7.04 11.32 4.09 4.35 9.54 7.16 14.54 10.48 19.63 13.09 32.54 35.74 32.46 58.98z" fill="#fff"/><path d="M157.47 206.9c2.5-3.86 3.54-8.43 5.2-12.7 2.1-5.33 5.31-10.39 10.01-13.77 4.7-3.39 11.02-4.9 16.55-3.06 6.26 2.08 10.45 7.92 12.9 13.94 2.46 6 3.62 12.48 6.26 18.41.81 1.82 1.77 3.6 3.15 5.06 1.82 1.94 4.26 3.2 6.49 4.68 8.77 5.84 14.54 15.97 14.5 26.35-.03 10.38-6.1 20.66-15.5 25.46-5.47 2.79-11.74 3.73-17.9 3.9-6.17.17-12.44-.41-18.28-2.37-10.2-3.4-18.61-10.84-24.72-19.51-6.12-8.68-10.13-18.6-13.63-28.56-5-14.3 9.26-9.02 14.97-17.83z" fill="#139988"/><path opacity=".34" d="M157.47 206.9c2.5-3.86 3.54-8.43 5.2-12.7 2.1-5.33 5.31-10.39 10.01-13.77 4.7-3.39 11.02-4.9 16.55-3.06 6.26 2.08 10.45 7.92 12.9 13.94 2.46 6 3.62 12.48 6.26 18.41.81 1.82 1.77 3.6 3.15 5.06 1.82 1.94 4.26 3.2 6.49 4.68 8.77 5.84 14.54 15.97 14.5 26.35-.03 10.38-6.1 20.66-15.5 25.46-5.47 2.79-11.74 3.73-17.9 3.9-6.17.17-12.44-.41-18.28-2.37-10.2-3.4-18.61-10.84-24.72-19.51-6.12-8.68-10.13-18.6-13.63-28.56-5-14.3 9.26-9.02 14.97-17.83z" fill="#fff"/><path d="M179.06 238.32l10.37 90.29 3.72 1.46-14.1-91.75z" fill="#3F424A"/><path d="M201.11 251.1l-13.07 45.74.44 2.86 4.67 30.37-3.37-30.77 11.33-48.2zM182.65 261.72s11.44-15.23 10.5-24.88c0 0 .76 8.38-10.67 23.79l.17 1.1z" fill="#3F424A"/><path d="M193.33 284.2s14.38-10.45 18.37-19.47c0 0-3.04 7.13-18.37 18.45v1.01zM480.31 170.2l23.2 202.09 8.34 3.26L480.3 170.2z" fill="#3F424A"/><path d="M529.68 198.79l-29.25 102.4.98 6.4 10.44 67.96-7.54-68.85 25.37-107.91zM488.36 222.58s25.6-34.1 23.49-55.7c0 0 1.7 18.75-23.87 53.26l.38 2.44z" fill="#3F424A"/><path d="M512.27 272.87s32.19-23.37 41.1-43.57c0 0-6.8 15.96-41.1 41.3v2.27z" fill="#3F424A"/><path d="M153.35 239.42a95.9 95.9 0 01-8.33 11.12 100.2 100.2 0 01-13.61 13s-10.14 6.52-25.28 10.52a95.2 95.2 0 01-4.37 1.05 84.84 84.84 0 01-25.8 1.62c-17.4-1.73-36.5-9.8-53.44-30.97a116.55 116.55 0 01-4.22-5.63c-6.13-8.65-11.9-19.17-17.16-31.9 0 0-6.46-33.35 11.43-49.92 4.38-4.06 10.22-7.11 17.96-8.43 0 0 38.89-13.05 37.5-49.05 0 0-.79-7.98 1.19-17.6 2.37-11.55 8.75-25.47 25.28-30.76 2.95-.94 6.23-1.6 9.86-1.93 0 0 25.43-2.42 41.69 26.19 0 0 23.4 46 24.28 96.03.4 22.7-3.83 46.23-16.98 66.66z" fill="#139988"/><path opacity=".51" d="M153.35 239.42a95.9 95.9 0 01-8.33 11.12 100.2 100.2 0 01-13.61 13s-10.14 6.52-25.28 10.52a95.2 95.2 0 01-4.37 1.05 84.84 84.84 0 01-25.8 1.62c-17.4-1.73-36.5-9.8-53.44-30.97a116.55 116.55 0 01-4.22-5.63c-6.13-8.65-11.9-19.17-17.16-31.9 0 0-6.46-33.35 11.43-49.92 4.38-4.06 10.22-7.11 17.96-8.43 0 0 38.89-13.05 37.5-49.05 0 0-.79-7.98 1.19-17.6 2.37-11.55 8.75-25.47 25.28-30.76 2.95-.94 6.23-1.6 9.86-1.93 0 0 25.43-2.42 41.69 26.19 0 0 23.4 46 24.28 96.03.4 22.7-3.83 46.23-16.98 66.66z" fill="#fff"/><path d="M62.07 231.65c1.16.94 2.38 1.78 3.67 2.53.8.47 2.41.88 3 1.59.25.3 1.3 6.15 1.6 7.84a10310.2 10310.2 0 007.53 44.24 4037 4037 0 0011.26 63.04c1.34 7.1 2.7 14.2 4.24 21.27.72 3.33 1.2 7.11 2.66 10.24l4.17-3.34 3.96-.43S76.1 271.7 70.96 239.85c-1.03-6.3-2.03-12.6-3.2-18.89l-11.78-64.1s5.79 35.7 13 78.73l-6.91-3.94z" fill="#3F424A"/><path d="M100.4 362.2l11.99-184.65 2.05-42-20.4 224.4 6.36 2.25z" fill="#3F424A"/><path d="M110.3 169.92c-12.36-4.52-18.46-24.94-18.46-24.94s5.51 17.79 19.9 24.94h-1.43zM110.3 225.74c31.58-19.96 35.43-48.46 35.43-48.46s-2.5 21.75-37.22 46.63l1.8 1.83zM64.63 209.52s18.29-38.84 11.3-63.8c0 0 5.53 16.12-11.3 58.2v5.6zM68.96 227.75s13.7-24.66 9.68-36.45c0 0 2.65 14.05-10.11 33.9l.43 2.55z" fill="#3F424A"/><path d="M261.8 127.02c13.23 0 23.96-10.5 23.96-23.45s-10.73-23.45-23.96-23.45-23.96 10.5-23.96 23.45 10.73 23.45 23.96 23.45z" fill="#fff"/><path d="M364.5 171.55l-.13.5c-.95 3.33-3.72 5.93-7.24 6.16-.2.02-.39.02-.58.02h-13.73V144.5l10.87-.2a8.37 8.37 0 018.45 7.14l.36 2.46 2.12 14.23a9.2 9.2 0 01-.12 3.42z" fill="#F39393"/><path d="M355.06 176.8l-.2 1.44v.01l-.95 6.87-.48 3.43-19.06-3.1 1.05-21.88 19.64 13.22z" fill="#F39393"/><path opacity=".15" d="M354.86 178.24v.01l-.95 6.87c-7.5-4.48-8.68-13.43-8.68-13.43a17.33 17.33 0 008.91 6.53l.72.02z" fill="#000"/><path d="M324.83 215.57l-2.65 1.6a36.08 36.08 0 002.03-4.24l.63 2.64zM368.3 269.78l-.74 4.36-1.07 6.3-11.63-2.22-11.88-2.28-14.14-2.71 2.52-6.06 17.14 1.21 19.8 1.4z" fill="#F39393"/><path opacity=".15" d="M368.3 269.78l-.74 4.36c-4.14 2.55-8.94 3.63-12.7 4.08l-11.88-2.28-5.16-4.26 10.69-3.3 19.78 1.4z" fill="#000"/><path d="M329.1 197.09c0 1.14-.04 2.64-.17 4.4a34.03 34.03 0 00-.8-4.59c-.14-.6-.28-.96-.25-1.36l1.16-.76s.06.85.06 2.3z" fill="#F39393"/><path d="M328.48 212.59a37.02 37.02 0 01-2.6 8.2c-.13.3-.28.58-.42.85-.32.64-.6 1.21-.5 1.9-.45-.95-.62-1.34-1.01-2.13l-.44.26-29.28 16.9c-3.66 9.15-3.13 42.92-3.13 42.92.13.56.7.88 1.21 1.17a32.48 32.48 0 015.37 3.67c.21.18.43.36.59.59.19.28.3.61.4.93.49 1.51 1.06 2.98 1.88 4.34a16.83 16.83 0 01-1.38 3.2 3.9 3.9 0 01-1.16 1.41c-.94.62-2.38.55-3.5.36.06.57-.51 1.02-1.07 1.18-.57.16-1.19.12-1.75.3-.47.15-.9.44-1.4.48-.93.08-1.8-.75-2.73-.57-.24.04-.47.16-.7.22-.6.14-1.15-.07-1.66-.4-.3-.21-.6-.47-.87-.72a33 33 0 01-3.05-3.42c-.3-3.83-.04-7.72.64-11.51l-.58-49.74c8.73-9.31 40.33-32.7 40.33-32.7 2.95-2.71 4.1-3.36 6.12-4.68l.09-.06c-.04.39.1.75.25 1.35.37 1.51.63 3.05.8 4.59l.06.6c.33 3.51.15 7.05-.51 10.5z" fill="#F39393"/><path opacity=".15" d="M327.19 228.13l-.21.07-.57-1.36c-.43-.9-.94-1.78-1.3-2.7a2.5 2.5 0 01-.16-.6c-.43-.95-.61-1.34-1-2.13l-.44.26-29.28 16.9 30.14-21.07 1.1 4.14 1.72 6.5z" fill="#000"/><path d="M376.74 269.7h-.01a43.97 43.97 0 01-9.1 4.04c-1.45.45-2.91.84-4.38 1.16l-.4.1-.25.05-1.24.26c-1.39.26-2.78.47-4.15.64h-.04a73.94 73.94 0 01-28.59-2.38l-1.08-.34 6.07-15.01c.16-10.84-3.29-21.94-6.6-30.02l-.56-1.36c-.5-1.18-1-2.29-1.46-3.3-.08-.69.2-1.26.52-1.9a36.8 36.8 0 003.01-9.05c.66-3.46.84-7 .52-10.5l-.07-.6a58 58 0 00.18-4.4c0-1.46-.07-2.31-.07-2.31-.42.29-.8.55-1.15.77l-.09.05c0-.31-.02-.48-.02-.48l.62-.75.03-.03.12-.17.07-.08c2.77-3.7 4.85-9.15 5.61-11.28l.07-.2a.9.9 0 00.08-.23l.16-.48.31.08 2.12.64h.01l.06.02 16.49 5.28.6.2a31.38 31.38 0 017.05 8.11c5.43 8.61 8.97 20.7 11.27 32.59a224.09 224.09 0 012.75 18.35 259.36 259.36 0 011.54 22.52z" fill="#F39393"/><path d="M376.74 269.7h-.01a38 38 0 01-16.47 5.73l-3.05.52h-.04a73.94 73.94 0 01-28.59-2.38l-1.08-.34 6.07-15.01c.16-10.84-3.29-21.94-6.59-30.02l-.57-1.36c-.42-.9-.94-1.78-1.3-2.7a2.5 2.5 0 01-.15-.6c-.08-.69.19-1.26.51-1.9.14-.26.3-.54.43-.85a37.45 37.45 0 003.1-18.7l-.07-.6a34.56 34.56 0 00-.78-4.59c-.15-.6-.3-.96-.26-1.35.01-.23.09-.47.26-.78l.25-.4.03-.04.12-.17.07-.08c.23-.3.49-.6.7-.9a43.46 43.46 0 004.91-10.38l.07-.2a.94.94 0 00.08-.22l.16-.48c.37.69 1.81.74 2.44.72h.29c6.16-.54 11.65 1.42 16.32 4.82 8.4 6.1 14.24 16.83 16.78 26.06l.23.9c1.31 5.13 2.15 10.38 2.8 15.65.58 4.6 1 9.22 1.48 13.8l.05.54.3 2.8c.69 6.66 1.38 13.35 1.54 20.02 0 .32.24 2.3-.03 2.48z" fill="#139988"/><path d="M365.53 212.82c-1.54 9.16-6.58 17.4-6.76 17.71a56.88 56.88 0 003.24-10.28l3.52-7.43z" fill="#139988"/><path d="M365.53 212.82c-1.54 9.16-6.58 17.4-6.76 17.71a56.88 56.88 0 003.24-10.28l3.52-7.43z" fill="#139988"/><path d="M352.64 190.7s-15.75-4.27-16.98 10.78c0 0-2.36 15.32 22.12 24.92l-5.13-35.7z" fill="#F39393"/><path opacity=".15" d="M375.22 247.19a36.75 36.75 0 01-7.69-6.64l-10.64-11.68c-.56-.6-1.11-1.22-1.62-1.88-.48-.6-.8-1.25-1.41-1.73-1.27-.95-2.32-2.13-3.37-3.3-.79-.9-1.57-2.07-2.57-2.74-2.72-1.8-5.33-3.85-7.32-6.45a15.8 15.8 0 01-3.37-9.15c-.04-2.48.84-7.03 3.27-8.47 2.42-1.43 4.9 1.74 6.3 3.61a124.31 124.31 0 0110.56 16.97 23.3 23.3 0 011.79 4.23c2.28.73 4.28 2.18 6.21 3.6l5.89 4.3c.52.39 1.05.77 1.47 1.26.26.29.47.6.67.94.57 4.6 1 9.21 1.47 13.8l.36 3.33z" fill="#000"/><path d="M414.93 202.27a10.5 10.5 0 01-1.84 5.3c-.24.36-.5.69-.76 1.02-.38.5-4.04 2.97-4.22 3.56-2.66 8.73-14.78 26.68-20.34 33.85a6.26 6.26 0 01-7.63 1.76 24.87 24.87 0 01-3.24-1.92c-6.37-4.4-11.64-10.47-16.56-16.34a235.08 235.08 0 01-6.82-8.52c-.84-1.11-1.62-2.3-2.51-3.37-1.42-1.7-3.4-2.59-5.15-3.86-.68-.49-1.31-1.04-1.94-1.59-.75-.66-1.5-1.32-2.17-2.07a12.6 12.6 0 01-.51-15.76 8.96 8.96 0 012.18-2.01c.9-.54 1.91-.86 2.93-1.11 2.06-.51 4.2-.81 6.3-.5 7.36 1.08 12.29 10.45 14.7 16.55a48.94 48.94 0 005.23 9.75l9.8 14.22c.22.33.71.36.98.05 10.91-12.24 14.47-19.6 15.12-21.92.12-.44.19-.94.13-1.39-.1-.8-1-1.59-1.13-2.37-.4-2.45-1.24-4.91-.85-7.37.13-.84.48-1.69 1.15-2.23.36-.3.83-.5 1.3-.42.45.06.88.46.85.92 0 .39-.3.7-.5 1.03a2.17 2.17 0 00-.02 2.07c.05.1.12.2.22.25.07.03.15.03.23.03.52-.06.85-.62.87-1.14.01-.52-.18-1.02-.24-1.53-.17-1.49.93-3 2.42-3.34.64-.15 1.4-.05 1.8.46.2.27.3.63.52.87l.13.11.13.07c.43.2.97-.02 1.46-.1 1.08-.16 2.27.58 2.42 1.64.04.32.01.66.12.95a.68.68 0 00.26.37c.35.26.9.22 1.35.3a2.2 2.2 0 011.54 1.15 2.39 2.39 0 00.57.71l.2.15c.23.16.48.29.76.38.28.09.52.26.65.52s.13.54.1.82z" fill="#F39393"/><path d="M363.25 275c-.2.05-.43.09-.65.12.91-17.62-1.84-33.66-4.75-45.08l-.06-.88c.02-.01.03-.02.05-.06l.29-.6c3.02 11.52 6.06 28.15 5.13 46.5zM399.56 352.62c8.34 57.51 19.96 69.9 19.96 69.9l2 5.22-19.04 2.69-.2-.4a101.2 101.2 0 01-5.3-13.2c-1.6-4.94-3.42-9.84-5.57-14.56-3.43-7.53-7.16-14.52-8.84-22.7-.71-3.45-1.41-7.2-1.3-10.72.1-3.36-.82-5.96-1.76-9.2a15.56 15.56 0 00-3.72-6.38l-26-27.23 9.76-43.4c15.68 8.24 36.07 58.64 36.07 58.64s3.07 5.4 3.94 11.34z" fill="#000"/><path d="M366.49 280.44l-7.26 20.85s-4.48 34.44-19.81 62.88a111.1 111.1 0 00-3.07 6.28c-1.45 3.15-4.83 8.2-11.48 8.12 0 0-75.4-7.86-78.4 1.97l-5.22-5.34-1.08-1.1-1.62-1.67-.7-6.72 3.52-4.13 8.75 1 22.23-3.62c3.13-.5 8.23-1.4 11.34-2a67.43 67.43 0 0129.94 1.25c1.95.53 4-.54 4.63-2.43a42.71 42.71 0 002.14-12.1c.2-7.46.88-20.62 3.12-31.48 1.07-5.24.98-10.61-.09-15.85a27.51 27.51 0 015.42-23.12l29.4 5.63 1.55.3 6.69 1.28z" fill="#000"/><path d="M358.25 278.86l-1.2 3.41-4.76 13.71-.04.15c-.02.15-.98 7.36-3.46 17.8-2.95 12.49-8.06 29.59-16.27 44.82-1.16 2.15-2.22 4.46-3.08 6.32-1.34 2.87-4.48 7.68-10.64 7.68h-.1c-.95-.1-19.46-1.99-38.09-2.7-11.19-.44-20.24-.36-26.9.21-5.5.48-9.32 1.26-11.63 2.43-.83.42-1.47.88-1.91 1.4l1.08 1.1c.35-.51.99-.96 1.86-1.35 6.8-3.05 27.7-2.65 37.44-2.27a664.3 664.3 0 0138.03 2.7h.22c7.03 0 10.56-5.36 12.05-8.58 1.08-2.34 1.99-4.28 3.04-6.23 8.37-15.53 13.54-32.96 16.5-45.57 2.3-9.8 3.28-16.68 3.4-17.5l6-17.24-1.54-.29z" fill="#B1B4B9"/><path d="M240.8 371.26l7.19 8.03s-16.12 11.86-24.22 22.53l-.7.97s-3.67 1.14-5.91-.57c0 0-7.84-10.24 6.69-31.64 0 0 11.14-28.22 17.95-17.06.2.31.38.66.57 1.05 0 0 8.28 4.7 10.22 7.72l-9.3 1.57-2.48 2.89v4.51z" fill="#000"/><path d="M240.8 371.26l7.19 8.03s-16.12 11.86-24.22 22.53c-.91.12-3.82.32-5.5-1.33 0 0-6.45-11.13 10.73-30.56 0 0 6.79-12.28 12.8-16.4.2.3.38.66.57 1.04 0 0 8.28 4.7 10.22 7.73l-9.3 1.57-2.48 2.88v4.51z" fill="#3F424A"/><path d="M448.98 442.15a5.95 5.95 0 01-2.22 2.95h-.01c-.25.19-.5.36-.79.53a18.58 18.58 0 01-5.14 2l-.8.2a47.8 47.8 0 01-7.2.96 72.27 72.27 0 01-6.63.15c-.4 0-.63-.02-.63-.02l-4.31-.43-.96-.1-15.56-1.56c-12.8-1.8-10.66-7.2-10.66-7.2l2.71-1h7.67l18.13 1.9 2.66.1.32.01 4.3.16h.01l7.26.26 11.85 1.09z" fill="#B1B4B9"/><path d="M396.14 436.1s.41 2.23-2.1 3.52c0 0 38.38 7.42 54.93 2.52l-.14-1.61-16.87-2.5-10.45-3.24h-10.3l-10.31-.5-4.75 1.81z" fill="#000"/><path d="M400 424.96s.6 1.67 2.56.54c0 0 7.64 9.1 18-1.05l18.38 11.75s11.4-1.38 9.9 4.34h-20.36l-7.91-3.23-7.64.36-16.78-1.56s3.16-5.1 3.85-11.15z" fill="#3F424A"/><path d="M440.82 447.63l-.8.19c1.39-2.78.97-6.22.97-6.26l.64-.07c.02.15.4 3.31-.8 6.14zM446.75 445.1c-.25.18-.51.36-.79.52.53-1.76.18-3.5.17-3.52l.63-.12c.03.07.3 1.48 0 3.11zM433.69 448.73l-.87.06c2.62-3.14 2.48-7.69 2.48-7.73l.64-.03c0 .2.14 4.44-2.25 7.7zM429.86 440.8c0 .25.02 5.36-2.74 8.15l-.93-.01c3.04-2.46 3.02-8.07 3.02-8.13l.63-.01h.02zM425.88 440.7c-.04.21-.9 4.9-4.63 7.79l-.97-.1c3.85-2.58 4.87-7.3 4.96-7.76v-.04l.31.05.33.06z" fill="#000"/><path d="M349.16 161.7a10.26 10.26 0 00-2.88 1.81c-3.88 3.58-1.78 10.42-5.8 13.35-.96.7-2.17 1.01-3.36 1.23-2.7.51-5.91.53-7.74-1.48-1.12-1.24-1.45-2.97-1.73-4.6l-.6-3.49c-.1-.6-.2-1.2-.5-1.71-.76-1.3-2.44-1.67-3.79-2.36a7.3 7.3 0 01-3.56-8.45c.8-2.5 3.15-4.4 5.76-4.87 2.8-.52 5.31 1.1 7.83-1.05 1.03-.89 1.69-2.1 2.47-3.21a16.74 16.74 0 019.57-6.5c3.85-.95 8.05-.49 11.59 1.28 5.12 2.56 9.36 8.74 5 13.9-2.09 2.45-5.25 3.75-8.34 4.76-1.3.42-2.66.82-3.92 1.38z" fill="#21252B"/><path d="M345.24 160.06c-.46-.07-.94-.09-1.37.08-.9.35-1.28 1.4-1.32 2.34a5.62 5.62 0 001.86 4.34 5.89 5.89 0 004.59 1.42c.13-.02-.86-5.04-.96-5.49-.39-1.62-.98-2.4-2.8-2.69z" fill="#F39393"/><path opacity=".15" d="M298.66 293.75c-.3.53-.65 1.06-1.16 1.4-.94.63-2.38.56-3.5.36.06.57-.51 1.03-1.07 1.19-.57.15-1.18.12-1.74.3-.48.14-.91.43-1.4.47-.94.08-1.81-.75-2.74-.58-.24.05-.47.17-.7.23-.59.13-1.15-.07-1.66-.4a.57.57 0 01-.03-.16c-.15-.85.48-.55.85-1.21.2-.37.23-.8.25-1.22.03-.95.05-1.9.02-2.86-.01-.42-.03-.85.12-1.25.14-.4.48-.75.9-.79.18-.02.38.02.53-.08.1-.08.16-.2.21-.32.22-.5.57-.96 1.06-1.2.5-.23 1.15-.19 1.53.21.19.2.3.47.52.63.44.32 1.13.1 1.56.44.1.09.19.2.32.26.34.16.67-.19 1-.36.42-.2.95-.12 1.35.11.42.24.73.6 1.04.94l.69.77c.66.76 1.34 1.53 1.78 2.44.1.22.2.45.27.68z" fill="#000"/><path d="M299.18 294.76c-.3.53-.65 1.07-1.16 1.4-.95.63-2.38.56-3.5.36.05.58-.52 1.03-1.08 1.19-.57.16-1.17.12-1.74.3-.48.14-.9.43-1.4.48-.94.08-1.81-.75-2.73-.58-.25.05-.47.17-.71.22-.59.14-1.14-.07-1.65-.4a.54.54 0 01-.03-.15c-.16-.86.47-.55.85-1.22.2-.37.23-.8.24-1.21.04-.96.05-1.91.03-2.87-.01-.41-.03-.85.12-1.24.13-.4.47-.76.9-.8.18-.02.38.02.53-.08.06-.05.1-.11.14-.18l.07-.15.07-.15c.23-.44.55-.83 1-1.04.49-.23 1.14-.19 1.52.2.19.2.3.48.52.63l.07.05c.08.05.18.09.27.1.41.1.89.03 1.21.29.1.09.2.21.33.27.16.07.31.03.47-.04a5.13 5.13 0 00.54-.32c.4-.21.93-.12 1.34.1.41.24.73.6 1.04.94l.69.78c.66.75 1.34 1.52 1.78 2.43.1.23.2.46.27.7z" fill="#F39393"/><path opacity=".15" d="M288.98 293.92l-.26.05-.74-3.99.07-.14.07-.16.07-.01.79 4.25zM292 293.04l-.25.04-.52-3.55a.8.8 0 00.28.1l.5 3.41zM294.23 291.88l-.25.04-.35-1.87.23-.14.37 1.97zM405.5 195.38v3.18h-.27v-3.37c.04.05.08.09.13.12l.13.07zM409.75 198.23v2.4h-.25v-2.76a.68.68 0 00.25.36zM413.22 200.4v1.37h-.26v-1.6h.01l.25.23z" fill="#000"/><path d="M372.4 216.4l-14.79 9.4c-5.01-2.8-6.77-8.8-6.77-8.8l16.33-10.34s4.24 6.36 5.24 9.74z" fill="#3F424A"/><path d="M353.96 215.03l6.16 8.95 10.74-6.6-5.87-9.34-11.03 7z" fill="#000"/><path d="M356.3 215.31l4.4 6.4 7.77-4.84-4.3-6.55-7.87 5zM347.72 166.58c.63-.5.68-1.49.11-2.2-.57-.72-1.54-.9-2.17-.4-.63.5-.68 1.48-.11 2.2.56.72 1.54.9 2.17.4z" fill="#DADCDD"/><path d="M347.38 166.17l2.43 2.79" stroke="#DADCDD" stroke-width="1.5" stroke-miterlimit="10" stroke-linecap="round" stroke-linejoin="round"/><path d="M346.75 165.32c.04-.03.04-.1 0-.15-.05-.05-.11-.07-.15-.04-.05.03-.04.1 0 .16.04.05.1.06.15.03zM347 165.65c.04-.04.04-.1 0-.16-.05-.05-.11-.06-.15-.03-.05.03-.04.1 0 .15.04.05.1.07.15.04zM347.24 165.97c.04-.03.04-.1 0-.15-.04-.06-.1-.07-.15-.04-.04.03-.04.1 0 .15.05.06.11.07.15.04zM361.8 162.27c.36 0 .65-.54.65-1.2 0-.67-.29-1.21-.65-1.21-.36 0-.66.54-.66 1.2 0 .67.3 1.2.66 1.2z" fill="#21252B"/><path d="M362.41 158.42l3.95 8.15s.13 1.52-1.65 2.18" fill="#F39393"/><path opacity=".15" d="M364.5 171.55l-.13.5c-.13.02-.26.02-.41.02-1 0-2.42-.26-3.3-1.57l.43-.28c.95 1.41 2.6 1.43 3.41 1.33z" fill="#000"/></g><defs><linearGradient id="paint0_linear" x1="79.34" y1="406.28" x2="613.7" y2="-105.33" gradientUnits="userSpaceOnUse"><stop stop-color="#139988" stop-opacity=".2"/><stop offset="1" stop-color="#fff" stop-opacity="0"/></linearGradient><clipPath id="clip0"><path fill="#fff" d="M0 0h600v450H0z"/></clipPath></defs></svg>