<svg width="650" height="458" fill="none" xmlns="http://www.w3.org/2000/svg"><g clip-path="url(#clip0)"><path d="M58.22 456.75L.85 223.78a36.79 36.79 0 012.45-24.5L66.6 66.39c4.87-10.23 14.17-17.09 24.72-18.22l409.8-43.9c12.2-1.3 23.98 5.26 30.14 16.8l112.12 210.24a36.74 36.74 0 012.94 26.78l-54.17 199.03-533.93-.37z" fill="#F1F1F1"/><path d="M58.22 456.75L.85 223.78a36.79 36.79 0 012.45-24.5L66.6 66.39c4.87-10.23 14.17-17.09 24.72-18.22l409.8-43.9c12.2-1.3 23.98 5.26 30.14 16.8l112.12 210.24a36.74 36.74 0 012.94 26.78l-54.17 199.03-533.93-.37z" fill="url(#paint0_linear)"/><path d="M97.67 67.83h6.26c1.34 0 2.43 1.18 2.43 2.64V81.4c0 .74-.56 1.34-1.24 1.34h-8.64c-.68 0-1.24-.6-1.24-1.34V70.47c0-1.46 1.09-2.64 2.43-2.64z" fill="#858990"/><path d="M104.34 64.13h-7.08v3.73h7.08v-3.73zm2.02 8.07H95.24v6.16h11.12V72.2z" fill="#D7DADC"/><path d="M103.2 59.81h-4.8v4.33h4.8V59.8z" fill="#B1B5BA"/><path d="M102.23 56.3h-2.86v3.5h2.86v-3.5z" fill="#858990"/><path d="M102.23 57.03v.88h6.51v.71c0 .24.19.44.4.44.23 0 .4-.2.4-.44v-1.59h-7.3zm77.93 2.93h-9.02a21.12 21.12 0 00-1.67 8.26v14.5h12.36v-14.5c0-2.85-.57-5.67-1.67-8.26z" fill="#D7DADC"/><path d="M181.83 69.92h-12.37v12.8h12.37v-12.8z" fill="#B1B5BA"/><path d="M179.17 56.3h-7.04c-.55 0-1 .49-1 1.09v2.57h9.04v-2.57c0-.6-.45-1.1-1-1.1z" fill="#858990"/><path d="M204.3 52.51h-11.97a28.03 28.03 0 00-2.21 10.96v19.25h16.4V63.47c0-3.79-.75-7.53-2.21-10.96z" fill="#D7DADC"/><path d="M206.52 65.73h-16.4v16.99h16.4V65.73z" fill="#B1B5BA"/><path d="M203 47.65h-9.35c-.74 0-1.33.64-1.33 1.44v3.42h12V49.1c0-.8-.6-1.44-1.33-1.44z" fill="#858990"/><path d="M127.2 59.96h-9.02a21.12 21.12 0 00-1.67 8.26v14.5h12.36v-14.5c0-2.85-.57-5.67-1.67-8.26z" fill="#B1B5BA"/><path d="M128.88 69.92h-12.36v12.8h12.36v-12.8z" fill="#D7DADC"/><path d="M126.21 56.3h-7.03c-.56 0-1 .49-1 1.09v2.57h9.04v-2.57c0-.6-.45-1.1-1-1.1z" fill="#858990"/><path d="M142.54 58.45h15.57v22.36c0 1.06-.8 1.92-1.77 1.92h-12.02c-.98 0-1.77-.86-1.77-1.92V58.45z" fill="#D7DADC"/><path d="M158.1 40.67h-15.56v12.04h15.57V40.67z" fill="#858990"/><path d="M158.1 52.7h-15.55l.62 2.08c.25.84.2 1.76-.14 2.56l-.48 1.11h15.56l-.48-1.1a3.8 3.8 0 01-.14-2.57l.62-2.07zm-4.52-18.93l-.01-2.45h-6.5v2.45a2.4 2.4 0 01-.47 1.42l-4.06 5.48h15.56l-4.07-5.48a2.5 2.5 0 01-.45-1.42z" fill="#D7DADC"/><path d="M154.13 31.32h-7.62c-.28 0-.5-.24-.5-.55V26.6c0-.3.22-.55.5-.55h7.62c.28 0 .5.25.5.55v4.17c0 .3-.22.55-.5.55z" fill="#858990"/><path d="M233.28 60.16h-12.87c-.48 0-.88.42-.88.95s.4.96.88.96h12.87c.49 0 .88-.42.88-.96 0-.53-.4-.95-.88-.95z" fill="#D7DADC"/><path d="M232.82 62.07h-11.94v20.65h11.94V62.07zm-12.2-3.92h12.46c.27 0 .48.23.48.51v1.5h-13.42v-1.5c0-.28.22-.51.48-.51zm1.24-2.01h9.99c.26 0 .47.23.47.51v1.5h-10.94v-1.5c0-.28.21-.51.48-.51z" fill="#B1B5BA"/><path d="M262.65 60.16H249.8c-.49 0-.89.42-.89.95s.4.96.89.96h12.86c.49 0 .88-.42.88-.96 0-.53-.39-.95-.88-.95z" fill="#D7DADC"/><path d="M262.2 62.07h-11.95v20.65h11.95V62.07zm-12.21-3.92h12.46c.27 0 .48.23.48.51v1.5H249.5v-1.5c0-.28.22-.51.48-.51zm1.23-2.01h10c.26 0 .47.23.47.51v1.5h-10.94v-1.5c0-.28.21-.51.47-.51z" fill="#B1B5BA"/><path d="M300.92 60.16h-17.64c-.48 0-.88.42-.88.95s.4.96.88.96h17.64c.48 0 .88-.42.88-.96 0-.53-.4-.95-.89-.95z" fill="#D7DADC"/><path d="M299.85 62.07h-15.5v20.65h15.5V62.07zm-15.75-3.92h16c.27 0 .48.23.48.51v1.5h-16.96v-1.5c0-.28.21-.51.48-.51zm1.23-2.01h13.54c.26 0 .47.23.47.51v1.5h-14.49v-1.5c0-.28.22-.51.48-.51z" fill="#B1B5BA"/><path d="M449.46 60.16h-17.64c-.48 0-.88.42-.88.95s.4.96.88.96h17.64c.48 0 .88-.42.88-.96 0-.53-.4-.95-.88-.95z" fill="#D7DADC"/><path d="M448.39 62.07h-15.5v20.65h15.5V62.07zm-15.76-3.92h16.01c.27 0 .48.23.48.51v1.5h-16.96v-1.5c0-.28.2-.51.47-.51zm1.24-2.01h13.54c.26 0 .47.23.47.51v1.5H433.4v-1.5c0-.28.22-.51.48-.51zm-87.89.3h12c.52 0 .93.45.93 1.01v24.26c0 .57-.41 1.02-.93 1.02h-12c-.51 0-.93-.45-.93-1.02V57.45c0-.55.42-1.01.93-1.01z" fill="#B1B5BA"/><path d="M348.97 61.84c.77 0 1.4-.68 1.4-1.52s-.63-1.53-1.4-1.53c-.78 0-1.4.69-1.4 1.53s.62 1.52 1.4 1.52zm6.02 0c.77 0 1.4-.68 1.4-1.52s-.63-1.53-1.4-1.53c-.78 0-1.4.69-1.4 1.53s.62 1.52 1.4 1.52zm-6.02 4.64c.77 0 1.4-.68 1.4-1.53 0-.84-.63-1.52-1.4-1.52-.78 0-1.4.68-1.4 1.52 0 .85.62 1.53 1.4 1.53zm6.02 0c.77 0 1.4-.68 1.4-1.53 0-.84-.63-1.52-1.4-1.52-.78 0-1.4.68-1.4 1.52 0 .85.62 1.53 1.4 1.53zm-6.02 4.63c.77 0 1.4-.68 1.4-1.52 0-.85-.63-1.53-1.4-1.53-.78 0-1.4.68-1.4 1.53 0 .84.62 1.52 1.4 1.52zm6.02 0c.77 0 1.4-.68 1.4-1.52 0-.85-.63-1.53-1.4-1.53-.78 0-1.4.68-1.4 1.53 0 .84.62 1.52 1.4 1.52zm-6.02 4.64c.77 0 1.4-.68 1.4-1.53 0-.84-.63-1.52-1.4-1.52-.78 0-1.4.68-1.4 1.52 0 .85.62 1.53 1.4 1.53zm6.02 0c.77 0 1.4-.68 1.4-1.53 0-.84-.63-1.52-1.4-1.52-.78 0-1.4.68-1.4 1.52 0 .85.62 1.53 1.4 1.53zm-6.02 4.63c.77 0 1.4-.68 1.4-1.53 0-.84-.63-1.52-1.4-1.52-.78 0-1.4.68-1.4 1.52 0 .85.62 1.53 1.4 1.53zm6.02 0c.77 0 1.4-.68 1.4-1.53 0-.84-.63-1.52-1.4-1.52-.78 0-1.4.68-1.4 1.52 0 .85.62 1.53 1.4 1.53z" fill="#D7DADC"/><path d="M392.81 68.66v13.06c0 .56-.41 1.01-.93 1.01h-22.3c-.5 0-.92-.45-.92-1.01V68.66c0-.56.41-1.01.93-1.01h22.29c.52 0 .93.45.93 1.01z" fill="#B1B5BA"/><path d="M389.25 73.44c.78 0 1.4-.69 1.4-1.53 0-.84-.62-1.53-1.4-1.53-.77 0-1.4.69-1.4 1.53 0 .84.63 1.53 1.4 1.53zm0 6.56c.78 0 1.4-.69 1.4-1.53 0-.84-.62-1.53-1.4-1.53-.77 0-1.4.69-1.4 1.53 0 .84.63 1.53 1.4 1.53zM385 73.44c.78 0 1.4-.69 1.4-1.53 0-.84-.62-1.53-1.4-1.53-.77 0-1.4.69-1.4 1.53 0 .84.63 1.53 1.4 1.53zm0 6.56c.78 0 1.4-.69 1.4-1.53 0-.84-.62-1.53-1.4-1.53-.77 0-1.4.69-1.4 1.53 0 .84.63 1.53 1.4 1.53zm-4.26-6.56c.78 0 1.4-.69 1.4-1.53 0-.84-.62-1.53-1.4-1.53-.77 0-1.4.69-1.4 1.53 0 .84.63 1.53 1.4 1.53zm0 6.56c.78 0 1.4-.69 1.4-1.53 0-.84-.62-1.53-1.4-1.53-.77 0-1.4.69-1.4 1.53 0 .84.63 1.53 1.4 1.53zm-4.26-6.56c.78 0 1.4-.69 1.4-1.53 0-.84-.62-1.53-1.4-1.53-.77 0-1.4.69-1.4 1.53 0 .84.63 1.53 1.4 1.53zm0 6.56c.78 0 1.4-.69 1.4-1.53 0-.84-.62-1.53-1.4-1.53-.77 0-1.4.69-1.4 1.53 0 .84.63 1.53 1.4 1.53zm-4.25-6.56c.77 0 1.4-.69 1.4-1.53 0-.84-.63-1.53-1.4-1.53-.78 0-1.4.69-1.4 1.53 0 .84.62 1.53 1.4 1.53zm0 6.56c.77 0 1.4-.69 1.4-1.53 0-.84-.63-1.53-1.4-1.53-.78 0-1.4.69-1.4 1.53 0 .84.62 1.53 1.4 1.53z" fill="#D7DADC"/><path d="M402.3 69.53h18.92V81.2c0 .85-.63 1.54-1.42 1.54h-16.09c-.78 0-1.41-.69-1.41-1.54V69.53z" fill="#fff"/><path d="M421.22 69.53H402.3V81.2h18.92V69.53z" fill="#B1B5BA"/><path d="M418 61.92h-12.48c0 2.17-.7 4.28-1.96 5.95l-1.26 1.66h18.92l-1.26-1.66a9.86 9.86 0 01-1.96-5.95z" fill="#fff"/><path d="M418.12 55.42H405.4c-.56 0-1.02.5-1.02 1.12v5.38h14.78v-5.38c0-.62-.46-1.12-1.03-1.12z" fill="#B1B5BA"/><path d="M406.08 57.3h-.56v4.62h.56V57.3zm1.94 0h-.57v4.62h.57V57.3zm1.94 0h-.57v4.62h.56V57.3zm1.93 0h-.56v4.62h.56V57.3zm1.94 0h-.57v4.62h.57V57.3zm1.93 0h-.56v4.62h.56V57.3zm1.94 0h-.57v4.62h.57V57.3z" fill="#858990"/><path d="M417.09 73.08h-10.66c-.27 0-.48-.23-.48-.52 0-.28.22-.52.48-.52h10.66c.26 0 .48.24.48.52 0 .29-.22.52-.48.52zm0 2.28h-10.66c-.27 0-.48-.23-.48-.52 0-.29.22-.52.48-.52h10.66c.26 0 .48.23.48.52 0 .3-.22.52-.48.52zm0 2.28h-10.66c-.27 0-.48-.23-.48-.52 0-.29.22-.52.48-.52h10.66c.26 0 .48.23.48.52 0 .3-.22.52-.48.52zm117.22 5.1H493.1c-.6 0-1.08-.53-1.08-1.18v-23.3c0-.65.49-1.17 1.08-1.17h41.22c.6 0 1.08.52 1.08 1.17v23.3c0 .65-.48 1.17-1.08 1.17z" fill="#fff"/><path d="M499.54 82.73h-6.43c-.61 0-1.1-.53-1.1-1.19V58.3c0-.67.5-1.2 1.1-1.2h6.43v25.64zm6.93-14.92c0-1.93 1.43-3.49 3.2-3.49h14.3c1.77 0 3.2 1.57 3.2 3.49 0 1.93-1.44 3.48-3.2 3.48h-14.3c-1.77 0-3.2-1.55-3.2-3.48z" fill="#858990"/><path d="M574.13 101.46H49.88l8.92-18.73h505.33l9.99 18.73z" fill="#D7DADC"/><path d="M574.13 101.46H49.88l-2.87 6.02h530.32l-3.22-6.02z" fill="#fff"/><path d="M475.88 40.2v-6.37h-8.92v6.38a12.12 12.12 0 00-2.95 2.6 15.01 15.01 0 00-3.27 9.58v30.34h21.36V52.4a15 15 0 00-3.26-9.57c-.81-.97-1.79-1.9-2.96-2.61z" fill="#858990"/><path d="M476.33 33.83h-9.82c-.76 0-1.38-.67-1.38-1.5v-2.16c0-.84.62-1.5 1.38-1.5h9.82c.76 0 1.38.66 1.38 1.5v2.16c0 .83-.62 1.5-1.38 1.5z" fill="#fff"/><path d="M482.1 52.3h-21.36v27.66h21.36V52.3z" fill="#D7DADC"/><path d="M477 57.78h-11.17c-.35 0-.64-.3-.64-.7 0-.37.29-.68.64-.68h11.18c.35 0 .63.3.63.69 0 .38-.28.7-.63.7zm0 3.45h-11.17c-.35 0-.64-.3-.64-.69 0-.38.29-.69.64-.69h11.18c.35 0 .63.3.63.7 0 .38-.28.69-.63.69zm1.95 15.16h-15.06c-.35 0-.63-.31-.63-.7 0-.38.28-.69.63-.69h15.06c.35 0 .63.3.63.7 0 .37-.28.69-.63.69z" fill="#fff"/><path d="M52.5 166.88h7.21c1.55 0 2.8 1.37 2.8 3.05v12.56c0 .86-.64 1.56-1.43 1.56h-9.95c-.79 0-1.43-.7-1.43-1.56v-12.56c.01-1.68 1.26-3.05 2.8-3.05z" fill="#858990"/><path d="M60.2 162.63h-8.17v4.3h8.16v-4.3zm2.31 9.3h-12.8V179h12.8v-7.09z" fill="#D7DADC"/><path d="M58.88 157.66h-5.53v4.98h5.53v-4.98z" fill="#B1B5BA"/><path d="M57.77 153.6h-3.3v4.04h3.3v-4.03z" fill="#858990"/><path d="M57.77 154.45v1h7.5v.83c0 .27.2.5.46.5.25 0 .46-.22.46-.5v-1.83h-8.42zm226.64-.63h-11.97a28.06 28.06 0 00-2.22 10.96v19.26h16.4v-19.26c0-3.78-.75-7.52-2.2-10.96z" fill="#D7DADC"/><path d="M286.63 167.05h-16.4v16.98h16.4v-16.98z" fill="#B1B5BA"/><path d="M283.1 148.96h-9.35c-.73 0-1.33.64-1.33 1.45v3.41h12v-3.41c0-.8-.6-1.45-1.32-1.45z" fill="#858990"/><path d="M131.83 161.88h14.2v20.4c0 .98-.72 1.77-1.61 1.77h-10.98c-.9 0-1.61-.79-1.61-1.76v-20.4z" fill="#fff"/><path d="M146.03 145.66h-14.2v10.99h14.2v-11z" fill="#858990"/><path d="M146.03 156.65h-14.2l.56 1.88c.23.77.18 1.6-.13 2.34l-.44 1.02h14.22l-.44-1.02a3.44 3.44 0 01-.13-2.34l.56-1.89zm-4.13-17.3l-.01-2.23h-5.93v2.23c0 .48-.15.94-.42 1.3l-3.71 5h14.2l-3.7-5a2.2 2.2 0 01-.43-1.3z" fill="#fff"/><path d="M142.4 137.12h-6.95c-.26 0-.47-.23-.47-.5v-3.81c0-.28.21-.5.47-.5h6.95c.26 0 .47.22.47.5v3.8c0 .28-.21.5-.47.5z" fill="#858990"/><path d="M106.9 157.75h12c.51 0 .93.46.93 1.02v24.26c0 .56-.42 1.02-.93 1.02h-12c-.52 0-.93-.46-.93-1.02v-24.26c0-.56.41-1.02.93-1.02z" fill="#B1B5BA"/><path d="M109.89 163.16c.77 0 1.4-.68 1.4-1.52 0-.85-.63-1.53-1.4-1.53-.78 0-1.4.68-1.4 1.52 0 .85.62 1.53 1.4 1.53zm6.02 0c.78 0 1.4-.68 1.4-1.52 0-.85-.63-1.53-1.4-1.53-.78 0-1.4.68-1.4 1.52 0 .85.62 1.53 1.4 1.53zm-6.02 4.63c.77 0 1.4-.68 1.4-1.52 0-.85-.63-1.53-1.4-1.53-.78 0-1.4.68-1.4 1.53 0 .84.62 1.52 1.4 1.52zm6.02 0c.78 0 1.4-.68 1.4-1.52 0-.85-.63-1.53-1.4-1.53-.78 0-1.4.68-1.4 1.53 0 .84.62 1.52 1.4 1.52zm-6.02 4.64c.77 0 1.4-.69 1.4-1.53s-.63-1.53-1.4-1.53c-.78 0-1.4.69-1.4 1.53s.62 1.53 1.4 1.53zm6.02 0c.78 0 1.4-.69 1.4-1.53s-.63-1.53-1.4-1.53c-.78 0-1.4.69-1.4 1.53s.62 1.53 1.4 1.53zm-6.02 4.63c.77 0 1.4-.68 1.4-1.52s-.63-1.53-1.4-1.53c-.78 0-1.4.68-1.4 1.53s.62 1.52 1.4 1.52zm6.02 0c.78 0 1.4-.68 1.4-1.52s-.63-1.53-1.4-1.53c-.78 0-1.4.68-1.4 1.53s.62 1.52 1.4 1.52zm-6.02 4.64c.77 0 1.4-.68 1.4-1.53 0-.84-.63-1.52-1.4-1.52-.78 0-1.4.68-1.4 1.52 0 .85.62 1.53 1.4 1.53zm6.02 0c.78 0 1.4-.68 1.4-1.53 0-.84-.63-1.52-1.4-1.52-.78 0-1.4.68-1.4 1.52 0 .85.62 1.53 1.4 1.53z" fill="#D7DADC"/><path d="M406.46 157.75h12c.52 0 .94.46.94 1.02v24.26c0 .56-.42 1.02-.94 1.02h-12c-.51 0-.93-.46-.93-1.02v-24.26c0-.56.42-1.02.93-1.02z" fill="#B1B5BA"/><path d="M409.45 163.16c.78 0 1.4-.68 1.4-1.52 0-.85-.62-1.53-1.4-1.53-.77 0-1.4.68-1.4 1.52 0 .85.63 1.53 1.4 1.53zm6.02 0c.78 0 1.4-.68 1.4-1.52 0-.85-.62-1.53-1.4-1.53-.77 0-1.4.68-1.4 1.52 0 .85.63 1.53 1.4 1.53zm-6.02 4.63c.78 0 1.4-.68 1.4-1.52 0-.85-.62-1.53-1.4-1.53-.77 0-1.4.68-1.4 1.53 0 .84.63 1.52 1.4 1.52zm6.02 0c.78 0 1.4-.68 1.4-1.52 0-.85-.62-1.53-1.4-1.53-.77 0-1.4.68-1.4 1.53 0 .84.63 1.52 1.4 1.52zm-6.02 4.64c.78 0 1.4-.69 1.4-1.53s-.62-1.53-1.4-1.53c-.77 0-1.4.69-1.4 1.53s.63 1.53 1.4 1.53zm6.02 0c.78 0 1.4-.69 1.4-1.53s-.62-1.53-1.4-1.53c-.77 0-1.4.69-1.4 1.53s.63 1.53 1.4 1.53zm-6.02 4.63c.78 0 1.4-.68 1.4-1.52s-.62-1.53-1.4-1.53c-.77 0-1.4.68-1.4 1.53s.63 1.52 1.4 1.52zm6.02 0c.78 0 1.4-.68 1.4-1.52s-.62-1.53-1.4-1.53c-.77 0-1.4.68-1.4 1.53s.63 1.52 1.4 1.52zm-6.02 4.64c.78 0 1.4-.68 1.4-1.53 0-.84-.62-1.52-1.4-1.52-.77 0-1.4.68-1.4 1.52 0 .85.63 1.53 1.4 1.53zm6.02 0c.78 0 1.4-.68 1.4-1.53 0-.84-.62-1.52-1.4-1.52-.77 0-1.4.68-1.4 1.52 0 .85.63 1.53 1.4 1.53z" fill="#D7DADC"/><path d="M465.67 170.84h18.92v11.67c0 .85-.63 1.54-1.42 1.54h-16.09c-.78 0-1.41-.69-1.41-1.54v-11.67z" fill="#fff"/><path d="M484.59 170.84h-18.92v11.04h18.92v-11.04z" fill="#B1B5BA"/><path d="M481.37 163.23h-12.49c0 2.18-.7 4.28-1.96 5.95l-1.26 1.66h18.92l-1.25-1.66a9.9 9.9 0 01-1.96-5.95z" fill="#fff"/><path d="M481.5 156.73h-12.74c-.57 0-1.03.5-1.03 1.12v5.38h14.8v-5.38c0-.62-.47-1.12-1.04-1.12z" fill="#B1B5BA"/><path d="M469.45 158.6h-.57v4.63h.57v-4.63zm1.94 0h-.57v4.63h.56v-4.63zm1.93 0h-.56v4.63h.56v-4.63zm1.94 0h-.57v4.63h.57v-4.63zm1.94 0h-.57v4.63h.57v-4.63zm1.93 0h-.56v4.63h.56v-4.63zm1.94 0h-.57v4.63h.57v-4.63z" fill="#858990"/><path d="M480.46 174.4H469.8c-.27 0-.48-.24-.48-.53 0-.28.21-.52.48-.52h10.66c.26 0 .48.24.48.52 0 .3-.22.53-.48.53zm0 2.28H469.8c-.27 0-.48-.24-.48-.52 0-.3.21-.53.48-.53h10.66c.26 0 .48.24.48.53 0 .28-.22.52-.48.52zm0 2.28H469.8c-.27 0-.48-.24-.48-.52 0-.29.21-.52.48-.52h10.66c.26 0 .48.23.48.52 0 .28-.22.52-.48.52zm-177.74-8.12h18.92v11.67c0 .85-.63 1.54-1.41 1.54h-16.1c-.77 0-1.4-.69-1.4-1.54v-11.67z" fill="#fff"/><path d="M321.64 170.84h-18.92v11.67h18.92v-11.67z" fill="#B1B5BA"/><path d="M318.42 163.23h-12.49c0 2.18-.69 4.28-1.96 5.95l-1.26 1.66h18.93l-1.26-1.66a9.9 9.9 0 01-1.96-5.95z" fill="#fff"/><path d="M318.55 156.73h-12.73c-.57 0-1.03.5-1.03 1.12v5.38h14.78v-5.38c0-.62-.45-1.12-1.02-1.12z" fill="#B1B5BA"/><path d="M306.5 158.6h-.56v4.63h.57v-4.63zm1.94 0h-.56v4.63h.56v-4.63zm1.94 0h-.57v4.63h.57v-4.63zm1.93 0h-.56v4.63h.56v-4.63zm1.94 0h-.57v4.63h.57v-4.63zm1.94 0h-.57v4.63h.57v-4.63zm1.93 0h-.56v4.63h.56v-4.63z" fill="#858990"/><path d="M317.51 174.4h-10.66c-.26 0-.48-.24-.48-.53 0-.28.22-.52.48-.52h10.66c.27 0 .48.24.48.52 0 .3-.21.53-.48.53zm0 2.28h-10.66c-.26 0-.48-.24-.48-.52 0-.3.22-.53.48-.53h10.66c.27 0 .48.24.48.53 0 .28-.21.52-.48.52zm0 2.28h-10.66c-.26 0-.48-.24-.48-.52 0-.29.22-.52.48-.52h10.66c.27 0 .48.23.48.52 0 .28-.21.52-.48.52zm180.67-13.47h26.6v16.4c0 1.2-.9 2.16-2 2.16h-22.61c-1.1 0-1.99-.97-1.99-2.16v-16.4z" fill="#fff"/><path d="M524.77 165.49h-26.59v16.4h26.6v-16.4z" fill="#B1B5BA"/><path d="M520.25 154.8H502.7c0 3.05-.97 6-2.75 8.36l-1.77 2.33h26.6l-1.77-2.33a13.86 13.86 0 01-2.76-8.36z" fill="#fff"/><path d="M520.42 145.66h-17.9c-.79 0-1.44.7-1.44 1.57v7.56h20.8v-7.56c-.01-.87-.66-1.57-1.46-1.57z" fill="#B1B5BA"/><path d="M503.5 148.29h-.8v6.5h.8v-6.5zm2.72 0h-.8v6.5h.8v-6.5zm2.72 0h-.8v6.5h.8v-6.5zm2.72 0h-.8v6.5h.8v-6.5zm2.72 0h-.8v6.5h.8v-6.5zm2.72 0h-.8v6.5h.8v-6.5zm2.73 0h-.8v6.5h.8v-6.5z" fill="#858990"/><path d="M518.97 170.49h-14.99c-.37 0-.67-.33-.67-.73 0-.4.3-.73.67-.73h14.99c.37 0 .67.32.67.73 0 .4-.3.73-.67.73zm0 3.2h-14.99c-.37 0-.67-.33-.67-.73 0-.4.3-.73.67-.73h14.99c.37 0 .67.33.67.73 0 .4-.3.73-.67.73zm0 3.2h-14.99c-.37 0-.67-.33-.67-.73 0-.4.3-.73.67-.73h14.99c.37 0 .67.33.67.73 0 .4-.3.73-.67.73z" fill="#fff"/><path d="M447.8 141.52v-6.37h-8.92v6.37a12.12 12.12 0 00-2.95 2.61 15 15 0 00-3.27 9.57v30.35h21.36V153.7a15 15 0 00-3.26-9.57c-.81-.97-1.8-1.88-2.97-2.6z" fill="#858990"/><path d="M448.24 135.15h-9.81c-.77 0-1.39-.67-1.39-1.5v-2.17c0-.83.62-1.5 1.39-1.5h9.81c.77 0 1.39.67 1.39 1.5v2.17c0 .82-.62 1.5-1.39 1.5zm5.78 18.46h-21.37v27.66h21.37v-27.66z" fill="#fff"/><path d="M448.93 159.1h-11.18c-.35 0-.64-.31-.64-.7 0-.38.28-.7.64-.7h11.18c.35 0 .63.32.63.7 0 .39-.28.7-.63.7zm0 3.45h-11.18c-.35 0-.64-.3-.64-.7 0-.37.28-.68.64-.68h11.18c.35 0 .63.3.63.69 0 .38-.28.7-.63.7zm1.94 15.15H435.8c-.35 0-.64-.3-.64-.7 0-.38.29-.69.64-.69h15.05c.35 0 .64.31.64.7 0 .38-.28.69-.63.69z" fill="#D7DADC"/><path d="M89.3 141.52v-6.37h-8.92v6.37a12.12 12.12 0 00-2.96 2.61 15 15 0 00-3.26 9.57v30.35h21.36V153.7a15 15 0 00-3.27-9.57c-.8-.97-1.78-1.88-2.96-2.6z" fill="#858990"/><path d="M89.74 135.15h-9.81c-.77 0-1.39-.67-1.39-1.5v-2.17c0-.83.62-1.5 1.39-1.5h9.81c.77 0 1.39.67 1.39 1.5v2.17c0 .82-.62 1.5-1.39 1.5zm5.78 18.46H74.15v27.66h21.37v-27.66z" fill="#fff"/><path d="M90.43 159.1H79.25c-.35 0-.64-.31-.64-.7 0-.38.29-.7.64-.7h11.18c.35 0 .64.32.64.7-.01.39-.3.7-.64.7zm0 3.45H79.25c-.35 0-.64-.3-.64-.7 0-.37.29-.68.64-.68h11.18c.35 0 .64.3.64.69-.01.38-.3.7-.64.7zm1.94 15.15H77.3c-.35 0-.64-.3-.64-.7 0-.38.29-.69.64-.69h15.06c.34 0 .63.31.63.7 0 .38-.29.69-.63.69zm535.8 25.08H1.85s.62-1.66.85-2.2a701.9 701.9 0 017.76-16.53h607.7l10 18.73z" fill="#D7DADC"/><path d="M628.16 202.78H1.86s-.56 1.72-.74 2.34c-.38 1.35-.81 3.68-.81 3.68h631.07l-3.22-6.02zm-368.23-18.73H218.7c-.6 0-1.08-.52-1.08-1.18v-23.29c0-.65.48-1.17 1.08-1.17h41.22c.6 0 1.08.52 1.08 1.17v23.3c0 .65-.49 1.17-1.08 1.17z" fill="#fff"/><path d="M225.16 184.05h-6.44c-.6 0-1.1-.53-1.1-1.19V159.6c0-.66.5-1.19 1.1-1.19h6.44v25.64zm6.92-14.93c0-1.92 1.44-3.48 3.2-3.48h14.3c1.77 0 3.2 1.56 3.2 3.49 0 1.92-1.43 3.48-3.2 3.48h-14.3c-1.76 0-3.2-1.56-3.2-3.49zm312.7-10.93h10.86c2.33 0 4.22 2.05 4.22 4.59v18.94c0 1.3-.97 2.34-2.15 2.34h-15c-1.18 0-2.15-1.05-2.15-2.34v-18.94c0-2.54 1.89-4.6 4.22-4.6z" fill="#858990"/><path d="M556.35 151.78h-12.3v6.48h12.3v-6.48zm3.51 14h-19.3v10.7h19.3v-10.7z" fill="#D7DADC"/><path d="M554.37 144.28h-8.33v7.5h8.33v-7.5z" fill="#B1B5BA"/><path d="M552.7 138.18h-4.98v6.08h4.98v-6.08z" fill="#858990"/><path d="M552.7 139.45v1.52H564v1.23c0 .42.31.76.7.76.38 0 .7-.34.7-.76v-2.75h-12.7zM99 278.52h433.4c13.94 0 25.23 12.3 25.23 27.45v151.14H73.78V305.97c0-15.16 11.3-27.45 25.22-27.45z" fill="#D7DADC"/><path d="M107.97 296.46h415.47c8.27 0 14.97 7.3 14.97 16.3V457.1H93V312.76c0-9 6.7-16.3 14.97-16.3z" fill="#F1F1F1"/><path d="M602.23 458.03H50.45c-.2 0-.42-.17-.42-.46 0-.3.2-.47.42-.47H602.3c.2 0 .42.17.42.47 0 .29-.21.46-.48.46z" fill="#ABAFB4"/><path d="M450.45 457.12H279.19c-3.28 0-5.93-2.88-5.93-6.45V184.13c0-3.57 2.66-6.45 5.93-6.45h171.26c3.27 0 5.92 2.88 5.92 6.45v266.54c0 3.56-2.65 6.45-5.92 6.45z" fill="#139988"/><path opacity=".2" d="M450.45 457.12H279.19c-3.28 0-5.93-2.88-5.93-6.45V184.13c0-3.57 2.66-6.45 5.93-6.45h171.26c3.27 0 5.92 2.88 5.92 6.45v266.54c0 3.56-2.65 6.45-5.92 6.45z" fill="#fff"/><path d="M447.4 457.12H276.16c-3.28 0-5.93-2.88-5.93-6.45V184.13c0-3.57 2.65-6.45 5.93-6.45H447.4c3.27 0 5.92 2.88 5.92 6.45v266.54c0 3.56-2.65 6.45-5.92 6.45z" fill="#139988"/><path opacity=".7" d="M447.4 457.12H276.16c-3.28 0-5.93-2.88-5.93-6.45V184.13c0-3.57 2.65-6.45 5.93-6.45H447.4c3.27 0 5.92 2.88 5.92 6.45v266.54c0 3.56-2.65 6.45-5.92 6.45z" fill="#fff"/><path d="M408.26 160.17h-30.94c.21-1.12.32-2.27.32-3.46 0-9.53-7.1-17.26-15.85-17.26-8.76 0-15.86 7.73-15.86 17.26 0 1.18.1 2.35.32 3.46H315.3c-3.04 0-5.5 2.68-5.5 5.99v26.63c0 3.3 2.46 5.98 5.5 5.98h92.96c3.04 0 5.5-2.68 5.5-5.98v-26.63c-.01-3.3-2.48-5.99-5.51-5.99z" fill="#21252B"/><path opacity=".2" d="M408.25 198.77H315.3c-3.04 0-5.5-2.68-5.5-5.98v-5.93h103.95v5.93c0 3.3-2.46 5.98-5.5 5.98z" fill="#fff"/><path opacity=".7" d="M427.84 251.56h-129.1c-2.25 0-4.07-1.99-4.07-4.44v-25c0-2.46 1.82-4.45 4.08-4.45h129.1c2.25 0 4.07 2 4.07 4.45v25c0 2.45-1.82 4.44-4.08 4.44z" fill="#fff"/><path d="M324.71 268.08h-2.79v.3c-6.5 1.4-11.41 7.67-11.41 15.16 0 7.48 4.88 13.75 11.41 15.15v.3h2.8c7.84 0 14.2-6.9 14.2-15.45 0-8.55-6.36-15.46-14.2-15.46z" fill="#139988"/><path d="M321.92 298.93c7.84 0 14.2-6.92 14.2-15.46 0-8.53-6.36-15.45-14.2-15.45-7.85 0-14.2 6.92-14.2 15.45 0 8.54 6.35 15.46 14.2 15.46z" fill="#139988"/><path opacity=".4" d="M321.92 298.93c7.84 0 14.2-6.92 14.2-15.46 0-8.53-6.36-15.45-14.2-15.45-7.85 0-14.2 6.92-14.2 15.45 0 8.54 6.35 15.46 14.2 15.46z" fill="#fff"/><path d="M319.3 289.96l-4.78-5.2c-.24-.27-.24-.73 0-1.03l1.26-1.37c.24-.27.67-.27.94 0l3.08 3.34 7.4-8.1c.24-.26.66-.26.94 0l1.25 1.38c.25.27.25.72 0 1.03l-9.14 9.95c-.29.3-.7.3-.95 0zm96.2-13.28h-61.98c-1.15 0-2.05-1.02-2.05-2.24 0-1.25.94-2.24 2.05-2.24h61.99c1.15 0 2.05 1.03 2.05 2.24a2.1 2.1 0 01-2.05 2.24zm1.03 8.78h-63.98c-.6 0-1.08-.53-1.08-1.18s.48-1.18 1.08-1.18h63.98c.6 0 1.08.53 1.08 1.18a1.1 1.1 0 01-1.08 1.18zm-13.38 7.3h-50.6c-.6 0-1.08-.54-1.08-1.18 0-.65.48-1.18 1.08-1.18h50.6c.59 0 1.08.53 1.08 1.18 0 .64-.5 1.18-1.09 1.18z" fill="#fff"/><path d="M324.71 313.34h-2.79v.3c-6.5 1.41-11.41 7.68-11.41 15.16 0 7.49 4.88 13.75 11.41 15.16v.3h2.8c7.84 0 14.2-6.91 14.2-15.46 0-8.54-6.36-15.46-14.2-15.46z" fill="#139988"/><path d="M321.92 344.2c7.84 0 14.2-6.92 14.2-15.46 0-8.53-6.36-15.46-14.2-15.46-7.85 0-14.2 6.93-14.2 15.46 0 8.54 6.35 15.46 14.2 15.46z" fill="#139988"/><path opacity=".4" d="M321.92 344.2c7.84 0 14.2-6.92 14.2-15.46 0-8.53-6.36-15.46-14.2-15.46-7.85 0-14.2 6.93-14.2 15.46 0 8.54 6.35 15.46 14.2 15.46z" fill="#fff"/><path d="M319.3 335.22l-4.78-5.2c-.24-.26-.24-.72 0-1.02l1.26-1.37c.24-.27.67-.27.94 0l3.08 3.34 7.4-8.1c.24-.26.66-.26.94 0l1.25 1.37c.25.27.25.73 0 1.03l-9.14 9.95c-.29.31-.7.31-.95 0zm96.2-13.27h-61.98c-1.15 0-2.05-1.02-2.05-2.23 0-1.26.94-2.24 2.05-2.24h61.99c1.15 0 2.05 1.02 2.05 2.24a2.1 2.1 0 01-2.05 2.23zm1.03 8.78h-63.98c-.6 0-1.08-.53-1.08-1.18s.48-1.18 1.08-1.18h63.98c.6 0 1.08.54 1.08 1.18a1.1 1.1 0 01-1.08 1.18zm-13.38 7.29h-50.6c-.6 0-1.08-.53-1.08-1.18s.48-1.17 1.08-1.17h50.6c.59 0 1.08.53 1.08 1.17s-.5 1.18-1.09 1.18z" fill="#fff"/><path d="M324.71 357.7h-2.79v.3c-6.5 1.42-11.41 7.68-11.41 15.17 0 7.48 4.88 13.75 11.41 15.15v.3h2.8c7.84 0 14.2-6.9 14.2-15.45s-6.36-15.46-14.2-15.46z" fill="#139988"/><path d="M321.92 388.56c7.85 0 14.2-6.92 14.2-15.46 0-8.53-6.36-15.46-14.2-15.46-7.84 0-14.2 6.93-14.2 15.46 0 8.54 6.36 15.46 14.2 15.46z" fill="#139988"/><path opacity=".4" d="M321.92 388.56c7.85 0 14.2-6.92 14.2-15.46 0-8.53-6.36-15.46-14.2-15.46-7.84 0-14.2 6.93-14.2 15.46 0 8.54 6.36 15.46 14.2 15.46z" fill="#fff"/><path d="M319.3 379.59l-4.78-5.2c-.24-.27-.24-.73 0-1.03l1.26-1.37c.24-.27.67-.27.94 0l3.08 3.34 7.4-8.09c.24-.27.66-.27.94 0l1.25 1.37c.25.27.25.72 0 1.03l-9.14 9.95c-.29.3-.7.3-.95 0zm96.2-13.27h-61.98c-1.15 0-2.05-1.03-2.05-2.24 0-1.26.94-2.24 2.05-2.24h61.99c1.15 0 2.05 1.02 2.05 2.24a2.1 2.1 0 01-2.05 2.24zm1.03 8.77h-63.98c-.6 0-1.08-.53-1.08-1.17s.48-1.18 1.08-1.18h63.98c.6 0 1.08.53 1.08 1.18a1.1 1.1 0 01-1.08 1.17zm-13.38 7.3h-50.6c-.6 0-1.08-.54-1.08-1.18s.48-1.18 1.08-1.18h50.6c.59 0 1.08.53 1.08 1.18s-.5 1.17-1.09 1.17z" fill="#fff"/><path d="M324.71 402.98h-2.79v.3c-6.5 1.4-11.41 7.67-11.41 15.16 0 7.48 4.88 13.75 11.41 15.15v.3h2.8c7.84 0 14.2-6.9 14.2-15.45s-6.36-15.46-14.2-15.46z" fill="#139988"/><path d="M321.92 433.83c7.85 0 14.2-6.92 14.2-15.46 0-8.53-6.36-15.45-14.2-15.45-7.84 0-14.2 6.92-14.2 15.45 0 8.54 6.36 15.46 14.2 15.46z" fill="#139988"/><path opacity=".4" d="M321.92 433.83c7.85 0 14.2-6.92 14.2-15.46 0-8.53-6.36-15.45-14.2-15.45-7.84 0-14.2 6.92-14.2 15.45 0 8.54 6.36 15.46 14.2 15.46z" fill="#fff"/><path d="M319.3 424.86l-4.78-5.2c-.24-.27-.24-.73 0-1.03l1.26-1.37c.24-.26.67-.26.94 0l3.08 3.35 7.4-8.1c.24-.26.66-.26.94 0l1.25 1.37c.25.27.25.73 0 1.03l-9.14 9.95c-.29.3-.7.3-.95 0zm96.2-13.27h-61.98c-1.15 0-2.05-1.03-2.05-2.24 0-1.26.94-2.24 2.05-2.24h61.99c1.15 0 2.05 1.03 2.05 2.24a2.11 2.11 0 01-2.05 2.24zm1.03 8.77h-63.98c-.6 0-1.08-.53-1.08-1.17s.48-1.18 1.08-1.18h63.98c.6 0 1.08.53 1.08 1.18a1.1 1.1 0 01-1.08 1.17zm-13.38 7.3h-50.6c-.6 0-1.08-.53-1.08-1.18s.48-1.18 1.08-1.18h50.6c.59 0 1.08.53 1.08 1.18s-.5 1.18-1.09 1.18z" fill="#fff"/><path d="M509.63 310.34c0-2.05.37-4.02 1.02-5.83-15.44-10.75-35.32-14.98-53.64-14.98s-38.19 4.23-53.64 14.98c.65 1.8 1.03 3.77 1.03 5.83 0 8.78-6.52 15.88-14.56 15.92.35 25.7 2.67 56.31 14 79.8 11.85 24.56 31.27 42.63 47.67 51.05h5.5c16.45-8.09 40.93-25.69 53.17-51.04 11.33-23.5 13.65-54.12 14-79.82-8.04-.03-14.55-7.14-14.55-15.9z" fill="#139988"/><path d="M509.63 310.34c0-2.05.37-4.02 1.02-5.83-15.44-10.75-35.32-14.98-53.64-14.98s-38.19 4.23-53.64 14.98c.65 1.8 1.03 3.77 1.03 5.83 0 8.78-6.52 15.88-14.56 15.92.35 25.7 2.67 56.31 14 79.8 11.85 24.56 31.27 42.63 47.67 51.05h5.5c16.45-8.09 40.93-25.69 53.17-51.04 11.33-23.5 13.65-54.12 14-79.82-8.04-.03-14.55-7.14-14.55-15.9z" fill="#21252B"/><path d="M504.13 310.34c0-2.05.38-4.02 1.03-5.83-15.45-10.75-35.33-14.98-53.64-14.98-18.32 0-38.2 4.23-53.64 14.98.65 1.8 1.02 3.77 1.02 5.83 0 8.78-6.52 15.88-14.56 15.92.36 25.7 2.67 56.31 14 79.8 12.24 25.36 36.72 42.96 53.17 51.05 16.45-8.09 40.93-25.69 53.17-51.04 11.33-23.5 13.65-54.12 14-79.82-8.03-.03-14.55-7.14-14.55-15.9z" fill="#858990"/><path opacity=".1" d="M504.13 310.34c0-2.05.37-4.02 1.02-5.83-15.45-10.75-35.32-14.98-53.64-14.98s-38.2 4.23-53.64 14.98c.65 1.8 1.02 3.77 1.02 5.83 0 8.78-6.51 15.88-14.56 15.92.36 25.7 2.67 56.31 14 79.8 12.25 25.36 36.73 42.96 53.18 51.05 16.44-8.09 40.93-25.69 53.16-51.04 11.34-23.5 13.65-54.12 14.01-79.82-8.04-.03-14.55-7.14-14.55-15.9z" fill="#000"/><path d="M451.51 443.85c-15.62-8.67-34.05-23.89-43.44-43.34-9.32-19.3-11.82-44.86-12.53-65.16 8.35-4.47 14.16-13.76 14.33-24.48 11.44-6.09 25.94-9.4 41.64-9.4s30.2 3.3 41.64 9.4c.19 10.72 6 20 14.33 24.48-.7 20.29-3.22 45.85-12.53 65.16-9.38 19.46-27.81 34.67-43.44 43.34z" fill="#139988"/><path d="M451.51 443.85c-15.62-8.67-34.05-23.89-43.44-43.34-9.32-19.3-11.82-44.86-12.53-65.16 8.35-4.47 14.16-13.76 14.33-24.48 11.44-6.09 25.94-9.4 41.64-9.4s30.2 3.3 41.64 9.4c.19 10.72 6 20 14.33 24.48-.7 20.29-3.22 45.85-12.53 65.16-9.38 19.46-27.81 34.67-43.44 43.34z" fill="#fff"/><path d="M451.51 439.31c-14.62-8.11-31.88-22.36-40.67-40.58-8.72-18.07-11.07-42-11.73-60.99 7.81-4.2 13.25-12.88 13.42-22.93 10.71-5.7 24.29-8.79 38.98-8.79 14.7 0 28.28 3.09 38.98 8.8.17 10.03 5.61 18.73 13.42 22.92-.66 19-3 42.93-11.73 60.99-8.78 18.22-26.04 32.46-40.67 40.58z" fill="#139988"/><path opacity=".5" d="M451.51 439.31c-14.62-8.11-31.88-22.36-40.67-40.58-8.72-18.07-11.07-42-11.73-60.99 7.81-4.2 13.25-12.88 13.42-22.93 10.71-5.7 24.29-8.79 38.98-8.79 14.7 0 28.28 3.09 38.98 8.8.17 10.03 5.61 18.73 13.42 22.92-.66 19-3 42.93-11.73 60.99-8.78 18.22-26.04 32.46-40.67 40.58z" fill="#fff"/><path d="M507.5 335.38v-.02l-.64-.37.63.39z" fill="#FFD16E"/><path d="M482.81 363.75h-24.85V336.7c0-1.32-.98-2.39-2.2-2.39h-8.5c-1.21 0-2.2 1.07-2.2 2.39v27.05h-24.85c-1.21 0-2.2 1.07-2.2 2.38v9.27c0 1.31.99 2.38 2.2 2.38h24.86v27.05c0 1.32.98 2.39 2.19 2.39h8.5c1.22 0 2.2-1.07 2.2-2.39v-27.05h24.85c1.21 0 2.2-1.07 2.2-2.38v-9.26c0-1.32-.99-2.39-2.2-2.39z" fill="#fff"/><path d="M485.63 363.75h-24.85V336.7c0-1.32-.98-2.39-2.2-2.39h-8.5c-1.21 0-2.2 1.07-2.2 2.39v27.05h-24.85c-1.2 0-2.19 1.07-2.19 2.38v9.27c0 1.31.98 2.38 2.2 2.38h24.85v27.05c0 1.32.98 2.39 2.19 2.39h8.5c1.22 0 2.2-1.07 2.2-2.39v-27.05h24.86c1.2 0 2.19-1.07 2.19-2.38v-9.26c0-1.32-.99-2.39-2.2-2.39z" fill="#139988"/><path opacity=".2" d="M485.63 363.75h-24.85V336.7c0-1.32-.98-2.39-2.2-2.39h-8.5c-1.21 0-2.2 1.07-2.2 2.39v27.05h-24.85c-1.2 0-2.19 1.07-2.19 2.38v9.27c0 1.31.98 2.38 2.2 2.38h24.85v27.05c0 1.32.98 2.39 2.19 2.39h8.5c1.22 0 2.2-1.07 2.2-2.39v-27.05h24.86c1.2 0 2.19-1.07 2.19-2.38v-9.26c0-1.32-.99-2.39-2.2-2.39z" fill="#21252B"/><path d="M482.81 363.75h-24.85V336.7c0-1.32-.98-2.39-2.2-2.39h-8.5c-1.21 0-2.2 1.07-2.2 2.39v27.05h-24.85c-1.21 0-2.2 1.07-2.2 2.38v9.27c0 1.31.99 2.38 2.2 2.38h24.86v27.05c0 1.32.98 2.39 2.19 2.39h8.5c1.22 0 2.2-1.07 2.2-2.39v-27.05h24.85c1.21 0 2.2-1.07 2.2-2.38v-9.26c0-1.32-.99-2.39-2.2-2.39z" fill="#139988"/><path opacity=".15" d="M204.02 153.95c-.04 0-1.13-.14-1.85-1.03l.36-.44c.68.83 1.62.93 1.62.93l-.13.54z" fill="#000"/><path d="M203.9 146.3c.08 0 .15-.08.15-.16s-.07-.15-.14-.15c-.08 0-.14.07-.14.15 0 .09.06.15.14.15z" fill="#fff"/><path d="M159.95 171.31l-30.81 36.88a8.12 8.12 0 00-.14 10l20 25.26 7.62-5.93-13.97-23.69 25.95-26.62-8.65-15.9z" fill="#139988"/><path d="M162.88 260.9l-.18 3.05-.8.29-.46.14-1.53.55c-.45.14-.9-.15-.99-.64v-.2c0-.29.14-.59.36-.73l2.75-1.87.36-.24.5-.34z" fill="#FB9C9C"/><path d="M162.88 265.42l-2.6 1.52c-.42.24-.9.04-1.1-.45a.96.96 0 01.2-.97l3.24-3.2.26 3.1z" fill="#FB9C9C"/><path opacity=".15" d="M162.7 263.65l.18-2.74-.58.39-.36.24-2.75 1.87a.89.89 0 00-.36.73v.2c.1.49.59.79 1 .63l.13-.04-.63.63a.96.96 0 00-.19.98c.19.5.68.69 1.09.44l2.6-1.52-.13-1.8z" fill="#000"/><path d="M166.22 253.7l-9.6-16.18-7.25 5.58 7.2 7.75c.59.64 1 1.53 1.09 2.46l.09.88a7.87 7.87 0 002.48 4.9l1.66 1.57c.45.44.63 1.07.45 1.66l-1.17 4.81c-.1.34.1.69.36.88.31.2.76.05.95-.3l4.05-9.6a5.04 5.04 0 00-.31-4.41z" fill="#FB9C9C"/><path opacity=".15" d="M162.3 261.3l-.36.24a3 3 0 010 .88l-.05.15-2.57 2.3s.27.15.68 0l.13-.1 1.53-1.37-.26 1.03-.59 2.21.54-.34.5-2.01.45-1.72c.13-.54.09-.98 0-1.27z" fill="#000"/><path d="M161.4 245.21l1.17 1.96-5.54 4.32-1.53-1.82 5.9-4.46z" fill="#3F4249"/><path d="M161.04 244.97l1.53 2.55c.09.2.31.24.5.1.13-.1.18-.35.09-.5l-1.53-2.54c-.1-.15-.32-.25-.45-.1-.23.1-.28.29-.14.49z" fill="#000"/><path d="M221 374.52l6 50.12c.22 1.62.72 3.14 1.43 4.6l9.87 20.16-2.3 3.43-9-4.9-8.03-15.8c.05-2.7-.31-5.34-1.08-7.89l-12.39-49.72H221z" fill="#FB9C9C"/><path opacity=".15" d="M226.95 432.92a33.26 33.26 0 01-2.34-6.57l-6.5-38.79a5.69 5.69 0 00-3.14-4.26l-8.2-3.68-.37-1.47 15.55 3.97 5.09 42.47c.22 1.62.72 3.14 1.44 4.6l9.87 20.16-1.4 2.56-10-18.99z" fill="#000"/><path d="M244.62 452.54l-6.36-3.15a9.35 9.35 0 01-9.1-3.72l-10.23-13.54a26.36 26.36 0 00-1.89 13.83l1.49 11.23h1.17l.32-11.53c.04-.83.99-1.18 1.49-.54l6.26 8.34a9.18 9.18 0 007.26 3.73h11.35c.77 0 1.27-.84 1-1.62a5.74 5.74 0 00-2.76-3.03z" fill="#139988"/><path d="M171.62 425.03c-.5 4.66-.72 9.37-.67 14.07l.09 5.6c-.09 2.45-1.94 4.4-4.2 4.4h-.67c-2.57 0-4.5-2.45-4.14-5.2l1.17-6.61c.59-3.39.81-6.82.63-10.25l-3.33-64.68 16.08 5-4.96 57.67z" fill="#FB9C9C"/><path opacity=".15" d="M176.3 369.71l-4.68 55.32c-.22 1.9-.36 3.82-.5 5.78v.05c-.13 2.74-.22 5.49-.18 8.24l.1 5.59c-.1 2.4-1.8 4.26-3.97 4.4 1.98-1.66 1.8-4.36 1.85-6.37l3.5-67.03a5.12 5.12 0 00-2.7-4.85l-9.05-4.51-.04-.88 15.68 4.26z" fill="#000"/><path d="M168.78 434.79c1.44 0 2.66-1.47 2.8 0 .04.54.1 1.17.1 1.76l.03 12.31a13.22 13.22 0 01-1.66 6.13l-.23.44a3.48 3.48 0 01-2.97 1.77h-3.47a3.5 3.5 0 01-3.33-2.7c-.45-1.81-.5-3.73-.19-5.59l2.89-13.2c.1-.48.23-.97.36-1.51.36-1.23 1.44.54 2.7.54h2.98v.05z" fill="#139988"/><path opacity=".15" d="M168.78 435.28c1.44 0 2.66-2.01 2.8-.5.04.55.1 1.18.1 1.77l.03 12.31a13.22 13.22 0 01-1.66 6.13l-.23.44a3.48 3.48 0 01-2.97 1.77h-3.47a3.5 3.5 0 01-3.33-2.7c-.45-1.81-.5-3.73-.19-5.59l2.89-13.2c.1-.48.23-.97.36-1.51.36-1.23 1.44 1.03 2.7 1.03h2.98v.05z" fill="#000"/><path d="M171.67 442.68l-.27-.34c-1.04-1.28-2.93-.64-3.15 1.03l-1.98 13.88h-2.2l.44-13.63c.05-1.72-1.8-2.7-3.02-1.57l1.9-8.39c.17-.73.9-1.18 1.57-.88l1.04.44c1 .45 2.12.45 3.15.05l1.04-.39c.77-.3 1.58.34 1.58 1.22v8.59h-.1z" fill="#139988"/><path d="M204.1 146.35l-.71-6.66-3.43-8.68h-13.02l-7.3 3.23 5.1 22.6-4.51 8.44-13.97 3.73 20.95 7.94 14.73-8.18-6.89-1.62-.4-5.94h1.88c3.88 0 6.45-2.55 7.48-7.4l.5-2.65v-.1c.86-.04 1.53-.88 1.44-1.86a1.71 1.71 0 00-.9-1.42 2.1 2.1 0 01-.94-1.43z" fill="#FB9C9C"/><path d="M212.53 197.1c.14.7.27 2.95.27 3.64a12.12 12.12 0 01-3.06 8.04l-1.4 1.62c-.27.3-.4.69-.4 1.13l.13 39.18-41.35-1.13-7.9-52.23-.72-21.28c0-3.43 2.17-6.37 6.94-7.1l8.92-1.97c3.7 3.87 16.1 4.59 23.71.77l6.43 1.54c.04 0 .07.02.11.03 4.52 1.27 7.7 5.68 7.83 10.75l.5 17.02z" fill="#139988"/><path d="M224.13 199.72l-8.31 10.01-3.63-31.88c-.46-4-3.15-7.29-6.75-8.23l-5.03-1.23-2.37 22.58 8.5 36.48c1.3 5.58 8.07 6.83 10.98 2.02L231.78 206l-7.65-6.28z" fill="#139988"/><path d="M209.31 173.5a72.27 72.27 0 002.8 3.87 10.34 10.34 0 00-.1-.54c-.86-1.13-1.7-2.3-2.5-3.48a23.93 23.93 0 00-2.35-3.04 7.82 7.82 0 00-.68-.3c1.03.93 1.89 2.11 2.83 3.5zm8.78 49.4l-1.09-1.96c-.41-.8-.81-1.6-1.16-2.43-1.42-3.38-1.96-6.92-.93-10.72.14-.54.3-1.08.5-1.6l-.06-.6a15.53 15.53 0 00-1.25 6.75c.12 2.86.9 5.5 2.2 7.88l.6 1.1c.33.6.65 1.19.99 1.77l1.69 3 .19-.3-.15-.26c-.5-.88-1.02-1.75-1.53-2.63zm6-6.94l-.14-.09a5.96 5.96 0 01-2.55-3.3 4.4 4.4 0 01.43-3.8 3.14 3.14 0 013.32-1.53c.85.13 1.67.46 2.43.96.68.45 1.3 1.04 1.81 1.73l.14-.23a7.45 7.45 0 00-1.83-1.73 6.32 6.32 0 00-2.52-.98 3.39 3.39 0 00-3.55 1.63 4.66 4.66 0 00-.45 4.03 6.13 6.13 0 002.64 3.44l.14.09c.4.26.81.49 1.23.68l.14-.23a9.12 9.12 0 01-1.25-.67zm-6.17-1.67a10.87 10.87 0 01-.4-4.91c.16-.94.47-1.87.95-2.78l.11-.2-.72.88a9.82 9.82 0 00-.4 6.2 10.57 10.57 0 002.12 4.41c.94 1.1 1.99 2.01 3.12 2.76l.13.08.15-.24-.22-.14a11.61 11.61 0 01-4.84-6.06zm4.19-11.5l-.2.09c-.23.08-.44.19-.65.3l-.58.7c.44-.33.9-.6 1.38-.8a6.04 6.04 0 013.1-.26c1.58.25 3.08.73 4.47 1.43l-.91-.75a13.46 13.46 0 00-4.25-1.05 5.31 5.31 0 00-2.36.35zm-12.05-16.83a22.81 22.81 0 00-7.15 4.46 20.4 20.4 0 00-3.8 5.12l.08.35c.94-1.77 2.22-3.7 3.88-5.29 2.12-2 4.52-3.37 7.08-4.4.95-.4 1.9-.78 2.86-1.15l-.03-.26-2.92 1.17zm2.5 4.52l1.06-.08-.04-.33c-.65.05-1.3.12-1.95.23-3.17.5-5.83 2.17-8 4.9a34.62 34.62 0 00-2.6 3.92l-.8 1.3.08.32c1.2-1.9 2.29-3.9 3.73-5.62 2.36-2.8 5.19-4.33 8.52-4.64zm-13.94-4.9l.18-.34c.67-1.2 1.08-4.94 1.72-6.65.46-1.22.75-2.33 1.08-3.55.17-.62.34-1.25.54-1.87l.26-.91c.26-.99.51-1.92 1.03-2.77l.2-.29-.26-.06c-.04.06-.1.12-.14.2-.7 1.15-.94 2.47-1.32 3.74-.56 1.87-.99 3.75-1.67 5.55-.52 1.4-.86 4.8-1.55 6.28l-.07.68zm6.04 22.26c.48-.15.81-.13 1.09.05.18.13.36.33.55.65.48.87.6 1.9.7 2.91l.06.51c.27 2.37.57 4.89 1.03 7.4.14.75.29 1.49.45 2.23.56 2.88 1.15 5.85 1.38 8.88l.12 1.45.24.1a108 108 0 01-.13-1.59c-.28-3.8-1.12-7.45-1.82-11.13-.45-2.44-.76-4.91-1.03-7.38-.15-1.2-.2-2.47-.8-3.53-.2-.34-.39-.58-.62-.74-.34-.22-.74-.24-1.28-.08-.85.26-1.64.7-2.42 1.19l.06.28c.79-.5 1.57-.94 2.42-1.2z" fill="#21252B"/><path d="M212.97 223.14c-.73-2.83-1.55-5.63-1.81-8.6a24.8 24.8 0 011.53-10.75c.6-1.69 1.33-3.35 1.62-5.16.2-1.29-.12-2.3-.97-2.85a2.63 2.63 0 00-.75-.35 5.23 5.23 0 00-4.53.8 14.18 14.18 0 00-3.73 3.93l-.92 1.37-.1.15c-.68.97-1.38 1.9-2.13 2.78l.09.37c.67-.76 1.3-1.58 1.89-2.46l.12-.19a50.79 50.79 0 001.45-2.12c.67-.93 1.38-1.81 2.23-2.56 1.26-1.12 2.6-2 4.23-1.94.52 0 1.02.07 1.51.26.18.07.34.15.49.25.73.5 1.05 1.35.9 2.42-.2 1.4-.71 2.7-1.2 4-.94 2.6-1.79 5.22-1.98 8.02a25 25 0 00.29 6.2c.42 2.36 1.06 4.64 1.65 6.95.58 2.31.92 4.69 1.18 7.1l.16 1.43.26-.1-.27-2.31a52.79 52.79 0 00-1.21-6.64zm14.93-20.32l.24.21-.24-.21zm-8.78 24.03l-.16.25.16-.25zm11.45-21.84v.01l.24.2v-.01l-.24-.2zm-14.51 26.17l-.01-.02-.26.2.01.01.26-.2zm8.76-30.9v.01l.22.19v-.01l-.22-.18zm-2.19 20.78l-.22.38.23-.38z" fill="#21252B"/><path opacity=".15" d="M158.02 189.66l-16.9 19.51c-.5.54-.54 1.38-.13 2.01l1.66 2.6 16.13-16.47-.76-7.65z" fill="#000"/><path d="M166.6 248.8l.9.8.5.02c-.5-.43-1-.87-1.48-1.32l.08.5zm-2.87-75.6c.34 0 .67-.12 1-.38.52-.41.7-1.1.86-1.78a6.5 6.5 0 00.07-2.21l-.26.05.01.13a5.43 5.43 0 01-.38 2.88c-.3.64-.72.97-1.23.97-.24 0-.5-.08-.78-.24a3.49 3.49 0 01-1.2-1.42c-.18-.3-.33-.63-.48-.96l-.23.16c.33.78.73 1.53 1.3 2.13.42.44.88.68 1.32.68zm47.9 59.2a3.83 3.83 0 01-.34-.07c.12.04.23.06.34.07zm-8.5-7.82a7.9 7.9 0 00-2.97 1.51 71.1 71.1 0 00-7.1 6 18.94 18.94 0 00-4.09 5.83c-.96 2.17-1.73 4.44-2.78 6.54a27.41 27.41 0 01-3.12 4.85l-.54.7.37.02a32.25 32.25 0 005.03-8.89c.28-.75.57-1.51.88-2.25l.1-.25a18.9 18.9 0 012.08-3.71 24.97 24.97 0 014.04-4.28c1.9-1.59 3.75-3.22 5.75-4.63a6.8 6.8 0 013.48-1.32h.23c.46 0 .9.08 1.32.22l-.1-.37a4.36 4.36 0 00-1.16-.15c-.46 0-.94.06-1.42.18zm-6.8-48.1c.3.15.57.24.82.24.48 0 .88-.3 1.2-.95.55-1.08.72-2.32.9-3.55.15-1.1.18-2.2.03-3.26l-.22.1c.13.99.11 2.02-.05 3.14v.09c-.17 1.15-.34 2.35-.86 3.37-.27.54-.6.8-1 .8a1.5 1.5 0 01-.71-.2 7.19 7.19 0 01-2.91-3.15 11.2 11.2 0 01-.75-1.66l-.24.06c.2.6.46 1.17.77 1.74a7.56 7.56 0 003.02 3.23zm-5.62 23.98a22.6 22.6 0 00-5.37 8.21 19.74 19.74 0 01-3.19 5.54 12.88 12.88 0 01-5.03 3.58c-1.58.65-3.2 1.08-4.76 1.8-1.8.84-3.2 2.1-3.64 4.45a7.3 7.3 0 00.64 4.21 50.23 50.23 0 004.61 8.88 6.17 6.17 0 002.66 2.32c.39.17.76.24 1.13.24.9 0 1.74-.47 2.51-1.15.83-.71 1.4-1.69 1.98-2.65 1.7-2.9 3.94-5.18 6.36-7.22a48.43 48.43 0 006.8-6.83c.9-1.13 1.83-2.21 2.76-3.3a22.6 22.6 0 015.19-4.46l-.05-.26a23.21 23.21 0 00-5.3 4.55c-1 1.16-1.89 2.2-2.77 3.3a48.3 48.3 0 01-6.76 6.8 28.06 28.06 0 00-6.42 7.29l-.07.11c-.54.9-1.1 1.82-1.86 2.47-.86.75-1.61 1.1-2.36 1.1-.34 0-.7-.08-1.05-.22a5.93 5.93 0 01-2.55-2.24 49.54 49.54 0 01-4.6-8.83 6.94 6.94 0 01-.61-4.05c.36-2 1.44-3.31 3.5-4.27.88-.41 1.8-.73 2.7-1.04.68-.23 1.37-.47 2.05-.75 2.02-.81 3.7-2 5.12-3.65a19.73 19.73 0 003.23-5.6c1.34-3.35 3.07-6 5.31-8.12l.71-.68a55.84 55.84 0 014.93-4.38c.75-.55 1.5-1.06 2.28-1.42l-.06-.26c-.83.37-1.6.9-2.36 1.47-2 1.5-3.82 3.3-5.66 5.06z" fill="#21252B"/><path d="M199.76 199.38a6.64 6.64 0 00-2.84.95 20.86 20.86 0 00-5.02 4.05 16.8 16.8 0 00-3.37 6.11 34.79 34.79 0 01-4.88 9.62c-.47.64-.8 1.39-1.12 2.15-.3.7-.51 1.4-.07 2.13.4.66 1 .85 1.62.85h.22a7.53 7.53 0 003.58-1.35 19.69 19.69 0 004.91-4.9c2.01-2.66 4.09-5.28 6.31-7.71.97-1.06 2-2.06 2.93-3.17l-.06-.28c-.63.74-1.3 1.44-1.94 2.12l-1.1 1.15a104.6 104.6 0 00-6.31 7.73 20.02 20.02 0 01-4.85 4.85 7.25 7.25 0 01-3.49 1.31h-.2c-.65 0-1.1-.22-1.42-.73-.35-.57-.23-1.12.09-1.88.3-.72.63-1.47 1.09-2.1a35.43 35.43 0 004.92-9.69 16.5 16.5 0 013.3-6.01 20.8 20.8 0 014.97-4 6.54 6.54 0 012.75-.93h.14l.15.01-.07-.29h-.09l-.15.01zm-8.92-16.1a8.15 8.15 0 01.07 1.35V185.1c-.24 4-3.07 7.3-6.69 7.32h-.71c-.5 0-1 0-1.5.1-1.24.24-1.99 1.04-2.31 2.42a8.19 8.19 0 00-.21 2.05v.87c-.02 1.5-.11 2.98-.32 4.47-.51 3.78-2.43 6.21-5.43 7.63-1.84.86-3.74 1.56-5.55 2.54a16.44 16.44 0 00-6.22 5.73l.06.38.49-.76a15.09 15.09 0 014.32-4.24c2.2-1.45 4.63-2.26 6.95-3.37a9.09 9.09 0 004.88-5.02c.56-1.47.79-3.04.95-4.63.1-.92.07-1.86.07-2.78v-.31c0-.61.03-1.21.12-1.82a4.3 4.3 0 01.78-2.14.92.92 0 01.13-.12l.06-.06c.47-.41 1.14-.57 2.07-.65 1.07-.08 2.13.04 3.19-.29 2.9-.87 5.06-4.1 5.1-7.58l-.02-.48v-.27c-.1-2.2-.7-4.25-1.4-6.26-.68-1.87-1.4-3.72-2.09-5.58l-.28.02c.37 1 .77 1.98 1.15 2.98.98 2.61 1.94 5.21 2.34 8.05z" fill="#21252B"/><path d="M198.46 185.3c-1.22 1.94-2.41 3.9-3.78 5.69a43.4 43.4 0 01-3.78 4.4c-1.61 1.62-3.42 2.96-4.93 4.74-.95 1.13-1.7 2.4-2.33 3.78-.75 1.68-1.4 3.43-2.35 4.98-1.25 2.03-2.82 3.57-4.9 4.36-1.86.71-3.78 1.18-5.61 1.96a11.83 11.83 0 00-4.64 3.18 13.09 13.09 0 00-2.94 7.95l.63 4.14c.19.5.4.99.67 1.47.52.94 1.15 1.79 1.79 2.62 1.56 2 2.9 4.18 4.17 6.44a42.75 42.75 0 002.1 3.45 4.96 4.96 0 004.05 2.31c.52 0 1.03-.09 1.54-.27.48-.17.92-.38 1.35-.6l.04-.02a11.44 11.44 0 004.7-4.84c1.1-2.06 1.98-4.26 3.22-6.2a29.67 29.67 0 014.63-5.4c1.73-1.65 3.45-3.3 5.14-5.01 1.37-1.38 2.71-2.8 4.29-3.84a9.12 9.12 0 012.9-1.28l-.07-.33a10.86 10.86 0 00-5.03 3c-2.97 2.92-5.96 5.8-8.92 8.74a24.54 24.54 0 00-4.9 7.19c-.9 1.98-1.81 3.99-3.28 5.52-1.6 1.67-3.39 2.9-5.6 2.99h-.15c-1.45 0-2.6-.81-3.56-2.03-.6-.78-1.13-1.65-1.6-2.54-1.7-3.1-3.6-6-5.69-8.75a10.3 10.3 0 01-2.02-4.61c-.32-2.05 0-4.02.6-5.94 1.16-3.66 3.55-5.76 6.6-7.03 1.82-.75 3.7-1.24 5.52-1.92 2.69-1 4.54-3.1 5.93-5.87.69-1.38 1.25-2.84 1.9-4.24 1.03-2.2 2.54-3.9 4.26-5.4a43.3 43.3 0 005.42-5.52 58.5 58.5 0 004.44-6.43l.35-.55.07-.69-.02.02s-.14.28-.21.38zm-29.06-14.83c-.1 2.05-.36 4.05-1.42 5.8-.9 1.49-2.2 2.19-3.56 2.19-.88 0-1.8-.3-2.66-.89a9.62 9.62 0 01-3.15-4.06l-.17-.37-.21.25c.51 1.05 1.1 2.06 1.81 2.95 1.21 1.49 2.63 2.45 4.36 2.45a5 5 0 00.72-.06c1.54-.24 2.63-1.3 3.4-2.83.8-1.6 1.07-3.39 1.14-5.2.04-.91.02-1.83-.02-2.74l-.26.06c.03.8.05 1.63.02 2.45z" fill="#21252B"/><path d="M169.65 179.2a5.35 5.35 0 01-4.64 2.48c-2.12 0-3.9-1.11-5.5-2.71a15.98 15.98 0 01-2.7-3.89l-.17.2.6 1.09c1.36 2.3 3.05 4.1 5.31 5.1.85.35 1.7.54 2.55.54 2.25 0 4.36-1.32 5.6-4.04a17.92 17.92 0 001.42-5.9c.14-1.58.24-3.16.35-4.75l-.28.07c-.11 1.83-.2 3.67-.45 5.48-.3 2.3-.8 4.48-2.09 6.34z" fill="#21252B"/><path d="M172.95 180.1c-1.05 3.09-2.93 4.71-6.22 4.85l-.38.01c-3.04 0-5.57-1.54-7.9-3.7a18.74 18.74 0 01-3.26-4.24l-.18.22c.28.47.58.94.89 1.4 2.4 3.49 5.38 5.95 9.25 6.56.51.08 1.02.13 1.52.13a6.4 6.4 0 005.15-2.4c.83-1.01 1.28-2.3 1.67-3.59.74-2.35 1.14-4.82 1.56-7.26.14-.78.28-1.55.46-2.32a5.36 5.36 0 01-.22-.36c-.27 1.22-.5 2.45-.72 3.7a46.32 46.32 0 01-1.62 7zm8.33 2h.21c1.82 0 2.86-1.37 2.68-3.64a6.12 6.12 0 00-2.06-4.38c-.35-.3-.74-.44-1.12-.44-.54 0-1.07.3-1.45.84a6.8 6.8 0 00-.96 5.22c.22 1.27 1.22 2.4 2.7 2.4zm-1.55-7.45c.32-.48.78-.74 1.26-.74.34 0 .68.12.97.38a5.82 5.82 0 011.97 4.2c.1 1.1-.13 2.01-.62 2.6a2.3 2.3 0 01-1.82.75l-.2.01c-1.44 0-2.3-1.14-2.49-2.2a6.46 6.46 0 01.93-5zm17.28 66.52c-.2 0-.38.06-.58.2-1.07.66-1.9 3.49-.45 4.72.26.23.54.35.86.36.69-.07 1.12-.63 1.41-1.23a3.5 3.5 0 00-.5-3.65c-.25-.27-.5-.4-.74-.4zm1.03 3.92c-.35.7-.73 1.05-1.23 1.1-.23 0-.46-.1-.68-.3-.66-.56-.71-1.45-.68-1.93.06-.99.55-2.03 1.1-2.38.16-.1.32-.15.46-.15.19 0 .38.1.56.32.78.86.99 2.35.47 3.34zm-50.51-44.23c.24-1.94.1-3.87-.26-5.76a33.1 33.1 0 00-1.79-6.46l-.23.28a31.16 31.16 0 012 8.35c.22 1.97-.02 3.89-.4 5.8-.35 1.72-.82 3.4-.98 5.17-.08.82-.12 1.63-.13 2.44l.3-.33c.04-1.55.23-3.1.55-4.64.33-1.6.73-3.2.94-4.85zm.31 25.3c1.57 2.07 3.08 4.17 4.74 6.15l.27.33.34.4c.63.73 1.29 1.42 1.99 2.04l-.55-.92a36.58 36.58 0 01-3.85-4.58c-1.16-1.55-2.31-3.1-3.45-4.67a20.78 20.78 0 01-3.62-9.27l-.37-.63c.3 2.26.82 4.47 1.75 6.55.73 1.7 1.7 3.2 2.75 4.6zm-3.81-23.08c.47-2.11.84-4.23.7-6.41a19 19 0 00-1.15-5.75l-.23.27c.7 1.89 1.08 3.9 1.13 6.02.07 1.99-.3 3.88-.71 5.78a28.8 28.8 0 00-.8 7.6c.04.92.1 1.84.18 2.75l.25-.26a29.2 29.2 0 01.63-10z" fill="#21252B"/><path d="M147.09 232.29a38.11 38.11 0 00-2.98-5.72 19.8 19.8 0 01-2.6-8.45c-.25-2.48-.47-4.92-.6-7.4-.18-3.2.02-6.38.72-9.5.34-1.54.62-3.12.54-4.74-.06-1.13-.2-2.24-.5-3.28l-.23.27c.67 2.45.54 4.88 0 7.33-.69 3.12-.98 6.28-.81 9.47.19 3.58.4 7.17 1.02 10.7a16.12 16.12 0 001.96 5.29c1.15 2.01 2.39 3.96 3.24 6.18.73 1.93 1.4 3.88 2.07 5.82.5 1.44 1.18 2.66 2.02 3.69l.23-.19a13.28 13.28 0 01-2.26-4.3c-.57-1.74-1.14-3.48-1.82-5.17zm57.98 10.3l-.02-.7v-.37l.01-.82c.07-1.45.2-2.9.28-4.36.05-1.62.05-3.21-1.14-4.46a2.5 2.5 0 00-2.2-.8c-2.82.35-5.27 1.71-7.46 3.77-2.67 2.5-3.84 6-4.7 9.7-.45 1.87-.9 3.75-1.32 5.63h.3c.57-2.64 1.2-5.26 1.9-7.87.6-2.26 1.54-4.32 2.93-6.07a12.72 12.72 0 012.79-2.58c1.66-1.1 3.4-1.96 5.32-2.25l.42-.03c1.42 0 2.57 1.1 2.82 2.83.2 1.4.04 2.8-.06 4.2-.06.84-.1 1.67-.12 2.5v1.57c.08 2.75.45 5.45 1.3 8.08l.03.1.3.01a21.26 21.26 0 01-1.07-4.67 37.05 37.05 0 01-.31-3.42zm-70.43-22.29c.27.1.54.14.78.14.84 0 1.46-.56 1.82-1.64.55-1.63.7-3.33.67-5.07-.04-2.09-.19-4.18-.3-6.28-.1-1.8-.02-3.6.14-5.4.12-1.5.34-2.97.25-4.46l-.22.27c.03 1.01-.06 2.02-.16 3.01a38.02 38.02 0 00-.25 6.6l.07 1.2c.1 1.67.2 3.38.24 5.07.04 1.96-.17 3.54-.66 4.97-.33 1-.85 1.47-1.6 1.47-.21 0-.45-.04-.7-.12a8.44 8.44 0 01-2.46-1.4l-.33-.24a979.21 979.21 0 01-4.4-3.43l.1.39 4.48 3.5c.8.6 1.62 1.12 2.53 1.42zm31.53-9.92c1.5-.9 3-1.76 4.47-2.74a10.2 10.2 0 002.45-2.37c.99-1.36 1.23-2.97 1.15-4.7a19.8 19.8 0 00-1.34-6c-.86-2.34-2.29-3.96-4.44-4.63-2.6-.83-5.2-1.68-7.58-3.2a30.09 30.09 0 01-5-4c-1-1-1.91-2.1-2.75-3.25l-.18.21c3 4.18 6.76 7.16 11.17 9.04 1.38.59 2.8 1.03 4.22 1.47 2.1.67 3.48 2.24 4.32 4.5a19.92 19.92 0 011.32 6.22 6.66 6.66 0 01-2.17 5.36c-1.27 1.19-2.73 1.99-4.15 2.84-1.6.96-3.2 1.88-4.66 3.12-.59.5-1.14 1.06-1.68 1.63l.05.36a20.82 20.82 0 014.8-3.86zm-15.8-8.49c.03-.23.04-.46.04-.7v-.27-.62a20.63 20.63 0 00-.39-3.6c-.7-3.5-1.54-6.94-2.7-10.26l-.19.22c.8 2.27 1.37 4.64 1.97 7 .5 1.9.85 3.85 1.04 5.85.03.29.04.58.05.88V201.3l-.04.55c-.04.66-.13 1.31-.27 1.96-.23 1.11-.5 2.23-.72 3.35l.32-.34.35-1.48c.3-1.15.47-2.3.55-3.46z" fill="#21252B"/><path d="M130.43 211.02c.32.2.6.3.87.3.86 0 1.34-1.02 1.35-2.02a4.8 4.8 0 00-.42-1.94c-.29-.68-.71-1.19-1.3-1.31l-.2.24c.66.05 1.05.66 1.27 1.18.28.64.41 1.25.4 1.82 0 .86-.4 1.76-1.11 1.76a1.4 1.4 0 01-.75-.26l-.23-.15c-.34-.22-.67-.43-.91-.75-.3-.4-.51-.8-.63-1.22l-.17.25c.14.41.35.8.62 1.14.34.43.78.67 1.2.96zm37.06-6.93a4.98 4.98 0 001.28-3.56 6.62 6.62 0 00-1.63-4.62 19.21 19.21 0 00-3.83-3.39 300.11 300.11 0 00-6.22-4.48c-1.09-.75-2.17-1.53-3.42-1.9a2.65 2.65 0 00-.73-.12c-.98 0-1.51.73-1.56 2.13-.03 1.44.2 2.84.47 4.24.51 2.53 1.31 4.94 1.86 7.44.16.77.28 1.53.36 2.3l.21-.23c-.08-.71-.2-1.42-.34-2.12a78.87 78.87 0 00-.89-3.5c-.35-1.29-.7-2.61-.98-3.95-.25-1.3-.5-2.72-.45-4.17.03-1.25.47-1.88 1.32-1.88.2 0 .42.04.66.1 1.12.33 2.14 1.04 3.12 1.72l.23.17c2.12 1.46 4.2 3 6.21 4.47 1.38 1 2.7 2 3.8 3.34a6.36 6.36 0 011.56 4.44 4.71 4.71 0 01-1.2 3.4 14.45 14.45 0 01-3.66 2.99l-.8.5c-.76.46-1.53.93-2.3 1.43l.05.27c1.05-.68 2.12-1.33 3.18-1.99a14.45 14.45 0 003.7-3.03z" fill="#21252B"/><path opacity=".15" d="M204.62 219.24l-6.43-27.68c-.08-.32-.39-.5-.68-.41-.27.08-.44.37-.4.67l5.64 34.17v20.74l5.32-.02-.05-16.32s-.84-.84-1.33-2.44c-.36-1.19-2.07-8.7-2.07-8.7z" fill="#000"/><path opacity=".6" d="M156.67 237.46L149 243.4l-1.53-1.95 7.83-6.23 1.36 2.25zm41-69.7s-3.8 2.42-14.15 2.33c0 0-6.36 0-11.22-3.19l-3.29 1.03c4.24 3.14 18.29 7.9 31.35.45l-2.69-.62z" fill="#000"/><path opacity=".15" d="M194.7 161.21l-2.4-.14c-.26 0-.4.34-.22.54l2.84 2.7-.23-3.1z" fill="#000"/><path d="M208.07 246.7l21.03 172.54s-17.28 4.74-35.94 2.26l-5.56-134.46-9.43-4.62 9.43 4.62 2.45 134.56s-21.44 2.9-36.58-3.21c0 0 7.68-107.02 5.72-122.65-3.7-29.49 3.66-42.55 7.13-48.81l41.75-.22z" fill="#3F4249"/><path opacity=".2" d="M183.68 287.23l-5.34-3.03a.8.8 0 01-.37-.87c.1-.48.58-.73.99-.53l8.64 4.23 2.44 134.56s-.92.19-6.64.55l.28-134.9z" fill="#000"/><path d="M166.32 246.93l-2.47 4.73h44.76l-.54-4.95-41.75.22zm13.95-58.65l-.45-.54c4.87-4.76 3.92-9.47 2.17-15.15-2.7-8.73 1.66-11.87 1.84-12.02l.36.64-.18-.3.18.3c-.18.1-4.1 2.99-1.58 11.13 1.45 4.66 3.25 10.44-2.34 15.94z" fill="#21252B"/><path d="M196.13 125.03c2.8 1.27 5.77 3.67 8.3 8.08l.58-.39c-4.5-7.9-10.55-9.56-14.6-9.66-16.58-2.64-25.6 18.93-15 34.52a5.84 5.84 0 01.9 4.57c-.81 4.12-5 3.18-11.04 8.38-9.06 7.8-9.06 22.6-9.06 22.6l1.22.5 1.12-1.77-.36 2 8.7 3.34c1.4-4.26 4.1-7.3 4.1-7.3-1.12 2.35-2.16 6.13-2.61 7.9l7.52 2.89c-2.25-12.36 8.3-13.63 5.64-25.65-1.76-7.94 2.88-13.83 2.88-13.83l1.94-.73c17.21-6.47 14.33-25.3 14.33-25.3 1.35.1 2.57 4.5 2.57 4.5l2.07-1.12c.04 0-1.85-9.27-9.2-13.53z" fill="#21252B"/><path d="M175.95 163.32c4.68-.49 5.95 3.2 5.95 3.2 2.57-.25 1.75-2.95 1.75-2.95-2.16-4.27-7.25-3.63-7.25-3.63s-1.22 0-1.53 1.81c-.32 1.82 1.08 1.57 1.08 1.57z" fill="#139988"/><path d="M203.61 150.43c-1.08 0-1.66-2.5-1.66-4.9 0-2.42.58-4.92 1.66-4.92s1.67 2.5 1.67 4.91c0 2.4-.63 4.9-1.67 4.9zm0-9.22c-.5 0-1.17 1.67-1.17 4.36 0 2.7.68 4.37 1.17 4.37.5 0 1.17-1.67 1.17-4.37s-.72-4.36-1.17-4.36z" fill="#21252B"/><path opacity=".15" d="M204.02 153.95c-.04 0-1.13-.14-1.85-1.03l.36-.44c.68.83 1.62.93 1.62.93l-.13.54z" fill="#000"/><path d="M203.63 147.02c.37 0 .66-.33.66-.73 0-.4-.3-.72-.66-.72-.37 0-.67.32-.67.72 0 .4.3.73.67.73z" fill="#21252B"/><path d="M203.9 146.3c.08 0 .15-.08.15-.16s-.07-.15-.14-.15c-.08 0-.14.07-.14.15 0 .09.06.15.14.15z" fill="#fff"/><path d="M248.35 203.29c-.4 0-.81-.04-1.22-.11-3.7-.65-6.37-4.09-6.33-8.18l1.08-122.6c0-.87.67-1.55 1.45-1.56.8.01 1.43.72 1.42 1.58l-1.08 122.62c-.02 2.53 1.63 4.65 3.92 5.05 2.37.42 4.61-1.16 5.24-3.67l.85-3.4c.2-.83 1-1.33 1.76-1.1.77.23 1.22 1.09 1.01 1.92l-.85 3.4c-.9 3.62-3.9 6.05-7.25 6.05z" fill="#139988"/><path opacity=".6" d="M224.13 199.72l7.68 6.22-1.35 2.13-7.93-6.43 1.6-1.92z" fill="#000"/><path d="M244.9 188.69l-3.05.1-1.1-.06-8.97 17.27-7.65-6.28 11.88-14.3s-.14-2.36 2.6-5.76l2.35-4.23s1.57.16 1.5 1.94c-.07 1.79-1.63 3.59-1.5 4.2l-.42-1.6 4.44-.94-2.26 2.74 2.55-.1-1.58 2.74 1.21 4.28z" fill="#FB9C9C"/><path d="M246.83 185.26c-.07.67-.65 1.14-1.26 1.03l-1.96-.48c-.55-.1-1.17.53-1.3 1.12-.14.62.31.99.88 1.13l1.72.63c.56.14 1.14-.2 1.33-.8.24-.73-.19-1.51-.9-1.64l-2.14-.52c-.53-.1-1-.38-.93-.96.08-.58.66-1.25 1.19-1.2l2.39.36c.6.06 1.05.66.98 1.33z" fill="#FB9C9C"/><path d="M245.62 181.2l-3.1.7c-.44.09-.85.76-.85 1.24 0 .54.52.72 1.03.7l3.15-.11c.7-.02 1.23-.71 1.12-1.48-.1-.7-.7-1.17-1.35-1.05z" fill="#FB9C9C"/><path d="M245.58 181.18l-3.28 1.05c-.43.09-.84-.19-.97-.65-.13-.5.13-1.01.59-1.15l3.2-1.46c.55-.17 1.13.19 1.28.8.16.64-.22 1.29-.82 1.4z" fill="#FB9C9C"/><path opacity=".15" d="M241.3 180.56c.31-.51.44-.85.44-.85l3.24-.68-3.68 1.53z" fill="#000"/><path d="M238.9 8.5l-.96-7.67c-.07-.56-.46-1-.97-1.1-.62-.11-1.22.33-1.35 1l-1.5 7.39 4.79.39z" fill="#139988"/><path opacity=".3" d="M238.9 8.5l-.96-7.67c-.07-.56-.46-1-.97-1.1-.62-.11-1.22.33-1.35 1l-1.5 7.39 4.79.39z" fill="#000"/><path d="M236.68 7.8c98.77-1.14 129.56 89.83 129.56 89.83-35.43-6.94-55.84 17.43-55.84 17.43s1.62-34.61-22.22-67.93C264.34 13.8 236.68 7.8 236.68 7.8z" fill="#139988"/><path opacity=".3" d="M236.68 7.8c98.77-1.14 129.56 89.83 129.56 89.83-35.43-6.94-55.84 17.43-55.84 17.43s1.62-34.61-22.22-67.93C264.34 13.8 236.68 7.8 236.68 7.8z" fill="#000"/><path d="M236.68 7.8s-26.22 14.06-41.72 44.03c-15.4 29.77-13.92 58.73-13.92 58.73s-22.22-30.4-63.36-20.49c.13.23 30.8-76.03 119-82.27z" fill="#139988"/><path opacity=".7" d="M236.68 7.8S210 21.86 194.96 51.83c-15.06 29.97-13.92 58.73-13.92 58.73s-22.22-30.4-63.36-20.49c0 0 32-77.56 119-82.27z" fill="#fff"/><path d="M181.04 110.56a124.84 124.84 0 013.93-32.66c8.04-31.28 27.39-55.77 51.71-70.1 0 0 9.74 18.6 13.16 52.35 3.57 35.3-.85 58.08-.85 58.08s-13.95-13.55-35.33-13.98c-21.38-.43-32.62 6.3-32.62 6.3z" fill="#139988"/><path opacity=".5" d="M181.04 110.56a124.84 124.84 0 013.93-32.66c8.04-31.28 27.39-55.77 51.71-70.1 0 0 9.74 18.6 13.16 52.35 3.57 35.3-.85 58.08-.85 58.08s-13.95-13.55-35.33-13.98c-21.38-.43-32.62 6.3-32.62 6.3z" fill="#fff"/><path d="M236.68 7.8c2.22.54 4.94 1.5 7.1 2.39 40.02 16.6 65.68 59.67 66.62 104.86 0 0-13-8.76-33.6-6.6-17.25 1.8-27.82 9.79-27.82 9.79s5.25-28.36-.28-67.22C244.66 22.57 236.68 7.8 236.68 7.8z" fill="#139988"/><path opacity=".15" d="M215.81 209.74l.47 3.02 20.86-26.1s-.28-1.2.4-3.5c.24-.8 1.69-2.97 1.69-2.97l2.35-4.55-.62-.21-2.36 4.22s-1.29 1.65-1.84 2.92c-.85 1.94-.75 2.84-.75 2.84l-20.2 24.33z" fill="#000"/><path opacity=".2" d="M208.62 251.66h-5.5l20.5 168.78 5.48-1.2-20.48-167.58z" fill="#000"/></g><defs><linearGradient id="paint0_linear" x1="74.73" y1="413.11" x2="612.19" y2="-158.02" gradientUnits="userSpaceOnUse"><stop stop-color="#139988" stop-opacity=".2"/><stop offset="1" stop-color="#fff" stop-opacity="0"/></linearGradient><clipPath id="clip0"><path fill="#fff" d="M0 0h650v458H0z"/></clipPath></defs></svg>