<svg width="274" height="716" fill="none" xmlns="http://www.w3.org/2000/svg"><path d="M-459 234c-16 67 73 100 52 170 0 0 5 85 65 122 80 49 27-24 235 71 209 96 261-10 299-106 17-43-8-48-27-97-23-61 71-249 2-264C42 104 25 85-60 57c-79-26-177 57-248 60-105 5-138 62-151 117z" fill="url(#paint0_linear)"/><defs><linearGradient id="paint0_linear" x1="-410.2" y1="180.1" x2="210.8" y2="803.3" gradientUnits="userSpaceOnUse"><stop stop-color="#139988" stop-opacity=".2"/><stop offset="1" stop-color="#fff" stop-opacity="0"/></linearGradient></defs></svg>