<svg width="226" height="879" fill="none" xmlns="http://www.w3.org/2000/svg"><path d="M588 784c60-32 25-121 91-152 0 0 60-60 47-129-16-93-35-4-103-223S441 93 345 128c-44 17-31 39-55 85-30 58-233 114-197 175 63 110 60 136 96 218 34 76 161 94 211 144 73 75 138 61 188 34z" fill="url(#paint0_linear)"/><defs><linearGradient id="paint0_linear" x1="514.8" y1="784.2" x2="564.4" y2="-94.2" gradientUnits="userSpaceOnUse"><stop stop-color="#139988" stop-opacity=".2"/><stop offset="1" stop-color="#fff" stop-opacity="0"/></linearGradient></defs></svg>