<svg width="245" height="857" fill="none" xmlns="http://www.w3.org/2000/svg"><path d="M-372 100c-56 39-12 123-75 162 0 0-53 65-33 133 26 91 36 0 126 211 91 210 200 167 293 121 42-21 26-41 45-90 24-61 220-137 178-195C88 339 88 314 44 236c-42-72-170-77-225-122-81-67-144-46-191-14z" fill="url(#paint0_linear)"/><defs><linearGradient id="paint0_linear" x1="-299.1" y1="92.8" x2="-256.3" y2="971.5" gradientUnits="userSpaceOnUse"><stop stop-color="#139988" stop-opacity=".2"/><stop offset="1" stop-color="#fff" stop-opacity="0"/></linearGradient></defs></svg>