<svg width="699" height="434" fill="none" xmlns="http://www.w3.org/2000/svg"><g clip-path="url(#clip0)"><path d="M662.96 433.3H39.49L.59 193.02c-1.41-8.7.84-17.6 6.23-24.58L117.99 24.38A31.81 31.81 0 01142.24 12L552.8-.22c12.84-.38 24.65 7 29.95 18.7l113.32 250.44a31.89 31.89 0 011.93 20.7L662.96 433.3z" fill="#F2F2F2"/><path d="M662.96 433.3H39.49L.59 193.02c-1.41-8.7.84-17.6 6.23-24.58L117.99 24.38A31.81 31.81 0 01142.24 12L552.8-.22c12.84-.38 24.65 7 29.95 18.7l113.32 250.44a31.89 31.89 0 011.93 20.7L662.96 433.3z" fill="url(#paint0_linear)"/><path d="M639.6 265.37H378.23v138.7H639.6v-138.7z" fill="#fff"/><path d="M633.27 397.72V271.71h-248.7v126.01h248.7z" fill="#F2F2F2"/><path d="M632.91 397.72V271.71H384.58v126.01H632.9z" fill="#F2F2F2"/><path d="M655.38 404.07v-138.7H639.6v138.7h15.77z" fill="#E8E8E8"/><path d="M633.27 338.1v-6.76h-248.7v6.76h248.7z" fill="#fff"/><path d="M441.44 276.32H428.2v55.02h13.24v-55.02z" fill="#E8E8E8"/><path d="M441.44 331.34h35.38v-55.02h-35.38v55.02z" fill="#fff"/><path d="M453.19 282.62h-7.46v48.71h7.46v-48.71z" fill="#E8E8E8"/><path d="M453.19 331.34h19.93v-48.72H453.2v48.72z" fill="#fff"/><path d="M475.88 331.34h-11.05l-6.37-45.91h11.05l6.37 45.9z" fill="#E8E8E8"/><path d="M475.88 331.34h29.53l-6.37-45.91H469.5l6.37 45.9z" fill="#fff"/><path d="M431.47 397.73h-11.05l-6.37-45.91h11.05l6.37 45.9z" fill="#E8E8E8"/><path d="M431.47 397.73H461l-6.37-45.91H425.1l6.37 45.9zM590.12 397.73v-14.27h-67.86v14.27h67.86zM570.13 372.33v-11.54h-47.87v11.54h47.87zM581.46 383.46v-11.13h-59.19v11.13h59.2z" fill="#fff"/><path d="M578.24 286.77H567.5v44.57h10.73v-44.57z" fill="#E8E8E8"/><path d="M578.24 331.34h28.67v-44.57h-28.67v44.57z" fill="#fff"/><path d="M601.94 291.86h-10.3v39.48h10.3v-39.48z" fill="#E8E8E8"/><path d="M601.94 331.34h17.61v-39.48h-17.6v39.48z" fill="#fff"/><path d="M570.13 370.4h-47.87v1.94h47.87v-1.93zM581.46 381.54h-59.2v1.92h59.2v-1.92zM590.12 395.8h-67.86v1.93h67.86v-1.92z" fill="#E8E8E8"/><path d="M651.6 404.07l2.44 27.04c.19.98-.56 1.92-1.55 1.92a1.6 1.6 0 01-1.5-1.08l-7.06-27.88h7.67z" fill="#fff"/><path d="M650.71 419.81l-2.95-.7-3.78-15h7.67l2.44 27.04c.14.75-.28 1.5-.94 1.78l-2.44-13.12z" fill="#E8E8E8"/><path d="M624.03 404.07l2.44 27.04c.19.98-.57 1.92-1.55 1.92a1.6 1.6 0 01-1.5-1.08l-7.06-27.88h7.67z" fill="#fff"/><path d="M621.46 407.07l-4.4-.84-.75-2.16h7.68l2.43 27.04c.14.74-.28 1.5-.93 1.77l-4.03-25.8z" fill="#E8E8E8"/><path d="M419.57 404.07l-2.43 27.04a1.6 1.6 0 001.55 1.92 1.6 1.6 0 001.5-1.08l7.06-27.88h-7.68z" fill="#fff"/><path d="M420.93 418.45l-2.62-.65 1.26-13.73h7.68l-7.07 27.87a1.6 1.6 0 01-1.5 1.08h-.1l2.35-14.56z" fill="#E8E8E8"/><path d="M391.25 404.07l-2.43 27.04c-.2.98.56 1.92 1.54 1.92a1.6 1.6 0 001.5-1.08l7.07-27.88h-7.68z" fill="#fff"/><path d="M394.25 406.41l-3.37-.6.37-1.74h7.68l-7.07 27.87a1.6 1.6 0 01-1.5 1.08h-.1l3.99-26.6z" fill="#E8E8E8"/><path d="M254.75 191.12l13.16-39.92-22.07-3.3-11.7 40.26 1.04 3.28c3.03 9.72 16.84 9.49 19.57-.32z" fill="#F99A9A"/><path d="M224.1 145.05l-15.36-22.2c-.3-.62-.12-1.35.44-1.75l.05-.05c.65-.47 1.4-.44 1.98.38 1.55 2.17 5.53 6.93 5.53 6.93s-4.82-7.5-6.11-10.19a1.4 1.4 0 012.47-1.3c1.74 3.08 5.88 9.1 5.88 9.1-2.84-5.74-5.02-8.98-5.6-10.64a1.4 1.4 0 012.54-1.13l5.39 9.92 1.9-4.34 8.09 1.78a1.37 1.37 0 01-.48 2.7l-4.61-.47-.62 4.14c-.04.31.01.63.16.91 0 0 2.24 2.47 3.7 2.64.78-.02 1.05-.63 1.06-1.42v-.85c-.1-6.27 3.85-4.84 3.85-4.84l.39 6.75s2.39 5.25-.29 8.76l19.46 36.84a11.84 11.84 0 01-16.32 15.82 7.2 7.2 0 01-3.43-4.61l-7.79-33.16-2.28-9.72z" fill="#F99A9A"/><path opacity=".15" d="M222.02 125.39l-.7-1.27 1.89-4.33-1.19 5.6zM219.67 125.28l-.69.69-5.44-10.24c-.23-.43-.32-.98-.11-1.42l.1-.19 6.14 11.16zM216.75 128.36s-4.87-7.67-6.2-10.4c-.16-.32.03-.88.03-.88l6.87 10.58-.7.7zM232.25 124.51s-.57.19-1.1 1.16c-1.05 1.88-.3 4.75-.92 5.45-.61.7-1.53.12-1.82-.04-.9-.48-2.11-1.68-2.11-1.68l2.12 2.26c.81.86 2.26.7 2.8-.37v-.02c.32-.62-.2-2.68-.14-3.21.05-.54.01-2.34 1.17-3.55zM253.83 178.55l-10.57-22 1.8-5.97 9.8 27.54a.56.56 0 01-1.03.43z" fill="#000"/><path d="M398.98 200.68l-48.83-15.48a9.28 9.28 0 01-4.93-3.93l-14.3-23.55 20.98-7.59 11.21 24.56 38.1 18.33" fill="#F99A9A"/><path opacity=".15" d="M393.58 201.88l1.24-3.02c-7.78-2.73-31.82-13.91-41.02-17.55-2.52-1-4.62-2.83-5.96-5.19l-11.52-20.08-3.95 4.07 11.78 19.95a11.84 11.84 0 006.28 5.11l43.15 16.7z" fill="#000"/><path d="M310.56 92.75l-.16 20.67c0 .5-.15 1-.45 1.4l.3.79c-5 7.47-15.83 8.5-22.75 2.77-.7-.6-1.05-1.5-.9-2.4l3.75-24.88 20.2 1.65z" fill="#F99A9A"/><path d="M288.16 82.52s-4.11 27.19 10.87 28.29c14.63 1.1 15.08-26.38 15.08-26.38l.4-7.88-18.84-3.3-4.76 2.45-2.75 6.82z" fill="#F99A9A"/><path opacity=".15" d="M287.8 108.56l1.1-7.48c1.36 4.82 4.17 8.83 9.08 9.64h-.05l1.05.15c3.9.3 7.16-1.5 9.62-5.37.1-.15.3-.2.45-.1.16.1.2.3.1.45-2.6 4.12-6.06 6.02-10.22 5.72-.9-.05-1.75-.25-2.55-.5a12 12 0 01-8.57-2.51z" fill="#000"/><path d="M291.71 76.45s-4.76-3.16-7.01 2.26c-1.9 4.57 1.3 9.53 1.3 9.53l2.76-.3c1.15-.05 1.95-.6 2.05-1.7l.9-9.79z" fill="#21252B"/><path d="M288.3 73.14c-.4 5.17 4.01 6.52 5.82 6.67l14.78 1.26c1.2.1 2.1 1.15 2.06 2.35l-.26 4.72c-.05.65.4 1.2 1.05 1.3l.9.1 1.01 1.25c5.81-1.4 8.22-17.9-2.45-21.21a4.55 4.55 0 01-2.66-2.26c-1.55-3.2-7.91-4.06-11.12-.45-.7.8-1.5 1.1-2.56 1.1-3.86-.1-6.37 2.32-6.57 5.17z" fill="#21252B"/><path d="M312.61 91.15c.2-1.9 2.46-2.9 3.96-1.66l.05.06c2.56 2.2.9 9.12-4.7 8.52l.7-6.92zM284.7 87.49l.05-.05c1.65-1 3.71.3 3.66 2.2l-.3 6.63c-5.67-.2-6.22-6.98-3.41-8.78z" fill="#F99A9A"/><path d="M311.9 92c-.05.36.26.66.6.7.36.05.7-.2.76-.5l.65-4.46-1.86.05-.14 4.21zM287.25 90.2c-.05.35.25.65.6.7.35.05.7-.2.75-.5l.65-4.47-1.85.05-.15 4.22z" fill="#21252B"/><path d="M294.02 80.47c.45.05.7 0 .75 0 .15 0 .3-.16.3-.36 0-.15-.15-.3-.36-.3-.05 0-3 .16-4.25-1.8a.33.33 0 00-.45-.1c-.16.1-.2.3-.1.45 1.1 1.65 3.05 2.06 4.1 2.1z" fill="#F99A9A"/><path d="M305.14 95.01a1.3 1.3 0 100-2.6 1.3 1.3 0 000 2.6z" fill="#21252B"/><path d="M305.74 93.86a.3.3 0 000-.6.3.3 0 00-.3.3c0 .17.13.3.3.3z" fill="#fff"/><path d="M295.12 94.26a1.3 1.3 0 100-2.6 1.3 1.3 0 000 2.6z" fill="#21252B"/><path d="M295.72 93.15a.3.3 0 10-.3-.3c0 .17.13.3.3.3z" fill="#fff"/><g opacity=".45"><path opacity=".3" d="M299.48 99.88l-1.05-.1c-.2 0-.36-.2-.36-.4s.2-.35.4-.35l1.05.1c.46.05.8-.3.86-.76.04-.45-.3-.8-.75-.85-.2 0-.36-.2-.36-.4s.2-.35.4-.35c.85.05 1.5.8 1.4 1.66.02.9-.74 1.5-1.6 1.45z" fill="#000"/></g><path d="M289.5 91.35l-.1 1.45a5.1 5.1 0 1010.18.55l.1-1.45c.05-.45-.1-.8-.3-1.15l1.95.1c-.25.3-.45.7-.45 1.1l-.1 1.46a5.1 5.1 0 1010.17.55l.1-1.45a1.86 1.86 0 00-1.76-2l-6.36-.36h-.05l-4.96-.3-.76-.05-5.66-.3a1.88 1.88 0 00-2 1.85zm13.29-.45h.05l6.36.35c.6.05 1.1.6 1.06 1.2l-.1 1.46a4.29 4.29 0 01-4.57 4.06 4.29 4.29 0 01-4.05-4.57l.1-1.45c0-.65.54-1.1 1.15-1.05zm-12.58.4c.05-.6.6-1.1 1.2-1.05l5.66.3.76.05c.6.06 1.1.6 1.05 1.2l-.1 1.46a4.29 4.29 0 01-4.56 4.06 4.29 4.29 0 01-4.06-4.56l.05-1.46z" fill="#21252B"/><g opacity=".45"><path opacity=".3" d="M314 94.76c.2 0 .36-.15.4-.35l.1-.8c.1-.86.36-1.45.7-1.76.3-.25.6-.2.6-.2.2.05.4-.1.46-.3.05-.2-.1-.4-.3-.45-.06 0-.6-.1-1.2.3-.56.4-.91 1.2-1.01 2.25l-.1.8c.01.26.16.46.36.51z" fill="#000"/></g><g opacity=".45"><path opacity=".3" d="M286.45 92.7c-.2 0-.35-.2-.35-.4v-.8c.05-.85-.1-1.45-.45-1.8a.78.78 0 00-.6-.3c-.2 0-.35-.15-.4-.35 0-.2.15-.36.35-.4.06 0 .65 0 1.1.5.5.5.7 1.3.66 2.4v.81c.1.2-.06.35-.3.35z" fill="#000"/></g><g opacity=".45"><path opacity=".3" d="M297.03 104.02c-.02.05.03.06 0 0l1.68.7c.22.08.4-.01.52-.23.07-.22 0-.45-.23-.52l-1.63-.69c-.23-.07-.45 0-.51.19-.09.27-.02.5.17.55z" fill="#000"/></g><g opacity=".45"><path opacity=".3" d="M296.92 102.18c2.94 1.46 4.89.24 5.65-.4.14-.16.16-.36.02-.55-.15-.15-.34-.16-.54-.03-.72.67-2.83 1.93-6.15-.5-.16-.1-.38-.08-.52.08-.1.17-.08.38.08.52a8.9 8.9 0 001.46.88z" fill="#000"/></g><path d="M328.35 225.13l-5.58 181.97h-16.79l-9.36-155.48a3.4 3.4 0 00-6.81.05l-8.53 155.43H264.5L259.32 227l69.02-1.87z" fill="#3F4249"/><path d="M321.02 417.63l.45-14.64h-14.23l.65 15.1 13.13-.45z" fill="#F99A9A"/><path opacity=".15" d="M307.4 407.1l.45 10.98 3.4-.1-.1-6.47c0-1.05.7-1.96 1.7-2.2l8.52-2.22H307.4z" fill="#000"/><path d="M266.4 417.63l-.45-14.64h14.28l-.65 15.1-13.18-.45z" fill="#F99A9A"/><path d="M307.9 430.88v-12.8a7.04 7.04 0 017-7.02h.3a6.6 6.6 0 016.52 5.32c.35 1.86 1.2 3.56 2.4 4.97l2 2.36c1.71 2 2.66 4.56 2.66 7.17H307.9z" fill="#242830"/><path d="M319.97 417.88c.1 0 .2-.05.25-.15.05-.15.05-.3-.1-.35-4.11-2.31-7.72 0-7.72 0-.1.1-.15.25-.05.35.1.1.25.15.35.05.06 0 3.36-2.15 7.17 0 0 .1.05.1.1.1zM320.82 419.7c.1 0 .2-.06.25-.16.05-.16.05-.3-.1-.35-4.1-2.31-7.71 0-7.71 0-.1.1-.16.25-.06.35.1.1.26.15.36.05.05 0 3.35-2.16 7.16 0 0 .1.05.1.1.1zM321.72 421.6c.1 0 .2-.06.25-.16.05-.15.05-.3-.1-.35-4.1-2.3-7.71 0-7.71 0-.1.1-.16.25-.06.35.1.1.26.16.36.06.05 0 3.36-2.16 7.16 0 .05.1.1.1.1.1z" fill="#fff"/><path opacity=".5" d="M327.88 433.53H308.8a.9.9 0 01-.9-.9v-1.7h20.9v1.7c0 .5-.4.9-.9.9z" fill="#000"/><path d="M323.12 407.1l.15-5.82h-18.03l.34 5.82h17.54z" fill="#139988"/><path d="M305.24 401.28l.34 5.82h17.54l.15-5.82h-18.03z" fill="#21252B"/><path opacity=".15" d="M293.2 248.4c1.81 0 3.31 1.4 3.41 3.2l9.02 149.68H311l-2.15-142.95a10.08 10.08 0 00-10.07-9.93h-5.56z" fill="#000"/><path opacity=".2" d="M305.58 407.1l-.34-5.82H311l.1 5.82h-5.52z" fill="#000"/><path opacity=".15" d="M266.1 407.1l.3 10.53 5.96.2-.1-7.12c0-.66.4-1.3 1.06-1.5l6.71-2.16H266.1v.05z" fill="#000"/><path opacity=".15" d="M259.38 228.34l5.11 178.76h1.6l-.14-4.11h6.21l-2.63-175.24-10.15.6z" fill="#000"/><path d="M279.58 430.88v-12.8a7.04 7.04 0 00-7.02-7.02h-.3a6.6 6.6 0 00-6.5 5.32 10.71 10.71 0 01-2.42 4.97l-2 2.36c-1.7 2-2.65 4.56-2.65 7.17h20.89z" fill="#242830"/><path d="M267.45 417.88c.06 0 .1 0 .16-.05a7.05 7.05 0 017.16 0c.1.1.3.05.35-.05.1-.1.06-.3-.05-.36-.05 0-3.6-2.35-7.72 0-.15.06-.15.26-.1.36.05.05.15.1.2.1zM266.65 419.7c.05 0 .1 0 .15-.06a7.04 7.04 0 017.16 0c.1.1.3.05.36-.05.1-.1.05-.3-.06-.36-.05 0-3.6-2.35-7.71 0-.15.06-.15.26-.1.36 0 .05.1.1.2.1zM265.7 421.6c.05 0 .1 0 .15-.06a7.05 7.05 0 017.16 0c.1.1.3.06.36-.05.1-.1.05-.3-.06-.35-.05 0-3.6-2.36-7.71 0-.15.05-.15.25-.1.35.05.05.1.1.2.1z" fill="#fff"/><path d="M259.59 433.53h19.09c.5 0 .9-.4.9-.9v-1.7h-20.94v1.7c0 .5.44.9.95.9z" fill="#3F4249"/><path opacity=".5" d="M327.88 433.53H308.8a.9.9 0 01-.9-.9v-1.7h20.9v1.7c0 .5-.4.9-.9.9z" fill="#000"/><path opacity=".8" d="M327.88 433.53H308.8a.9.9 0 01-.9-.9v-1.7h20.9v1.7c0 .5-.4.9-.9.9zM259.59 433.53h19.09c.5 0 .9-.4.9-.9v-1.7h-20.94v1.7c0 .5.44.9.95.9z" fill="#000"/><path d="M282.03 401.28l-.35 5.82h-17.54l-.1-5.82h18z" fill="#21252B"/><path opacity=".2" d="M272.16 401.28v5.82h-8.02l-.1-5.82h8.12z" fill="#000"/><path d="M310.37 113.8l15.17 4.05 1.01.26a27.8 27.8 0 0117.91 15.52l7.44 16.5-19.36 9.9-5.53-7.8" fill="#fff"/><path d="M255.49 188.87l1.14 35.8a3.78 3.78 0 003.59 3.67l66.85-1.16a3.79 3.79 0 003.96-3.45l-2.64-73.84 20.96 3.62 10.45-16.6-16.79-11.75a44.82 44.82 0 00-14.47-6.67l-18.16-4.7s-3.29 8.09-11.88 7.74c-11.3-.45-11.5-8.2-11.5-8.2l-21.08 3.58a20.51 20.51 0 00-16.54 15.56l-6 23.69 21.24 5.8 3.8-12.25-12.93 39.16z" fill="#139988"/><path opacity=".2" d="M332.37 160.11l-5.3-7.9.44-10.47 9.72 15.89-4.86 2.48z" fill="#000"/><path d="M323.29 174.75l11.8 17.93 42.37-34.16" stroke="#fff" stroke-width="23" stroke-miterlimit="10" stroke-linecap="round" stroke-linejoin="round"/><path d="M513.2 75.32A38.54 38.54 0 00478.92 37v-.25h-4.25a38.57 38.57 0 000 77.14l4.25-.26a38.54 38.54 0 0034.28-38.31z" fill="#B0B4B9"/><path d="M471.57 113.89a38.55 38.55 0 0038.53-38.57 38.55 38.55 0 00-38.53-38.57 38.55 38.55 0 00-38.54 38.57 38.56 38.56 0 0038.54 38.57z" fill="#84888F"/><path d="M471.57 109.63a34.3 34.3 0 0034.27-34.31A34.3 34.3 0 00471.57 41a34.3 34.3 0 00-34.28 34.3 34.3 34.3 0 0034.28 34.31z" fill="#fff"/><path d="M471.57 109.63a34.3 34.3 0 0034.27-34.31A34.3 34.3 0 00471.57 41a34.3 34.3 0 00-34.28 34.3 34.3 34.3 0 0034.28 34.31z" fill="#84888F"/><path opacity=".9" d="M471.57 109.63a34.3 34.3 0 0034.27-34.31A34.3 34.3 0 00471.57 41a34.3 34.3 0 00-34.28 34.3 34.3 34.3 0 0034.28 34.31z" fill="#fff"/><path d="M471.58 41c.6 0 1.2 0 1.87.09a34.27 34.27 0 000 68.45c-.6 0-1.2.08-1.87.08a34.25 34.25 0 01-34.28-34.3A34.25 34.25 0 01471.58 41z" fill="#B0B4B9"/><path d="M472.54 78.11l-.97-25.34a1.81 1.81 0 011.69-1.85 1.8 1.8 0 011.85 1.7l.8 21.8 14.5-.4c.94-.03 1.8.73 1.8 1.76.04.95-.73 1.81-1.75 1.81l-17.92.52z" fill="#139988"/><path opacity=".7" fill-rule="evenodd" clip-rule="evenodd" d="M452.06 50.1l49.74 41.4s1.33-2.77 1.7-3.7c.33-.79 1.07-3.16 1.07-3.16l-29.99-43.57s-10.97-1.44-22.52 9.04zM445.03 91.5l35.04 17.06s-3.1 1.22-7.86.9c-7.64-.53-19.28-4.3-27.18-17.97z" fill="#fff"/><path d="M94.75 290.5H58.93a1.8 1.8 0 01-1.82-1.82c0-1.02.8-1.82 1.82-1.82h35.82v3.63z" fill="#B0B4B9"/><path d="M99.71 288.73H63.57v111.43H99.7V288.73z" fill="#B0B4B9"/><path d="M209.18 288.73H98.6v111.43h110.58V288.73z" fill="#D8DBDD"/><path d="M104.2 304.33l99.8-.1v87.43h-99.8v-87.33zm99 .8H105v85.73h98.2v-85.72z" fill="#B0B4B9"/><path d="M213.29 290.5H94.69a1.8 1.8 0 01-1.8-1.82c0-1.02.8-1.82 1.8-1.82h118.6c1.01 0 1.81.8 1.81 1.82a1.87 1.87 0 01-1.81 1.81z" fill="#D8DBDD"/><path d="M204 347.41h-99.8v.8H204v-.8zM158.4 318.28a2.77 2.77 0 100-5.54 2.77 2.77 0 000 5.54z" fill="#B0B4B9"/><path opacity=".15" d="M157.38 315.5c0-1.23.8-2.24 1.88-2.62a2.76 2.76 0 00-3.68 2.62 2.76 2.76 0 003.68 2.63 2.78 2.78 0 01-1.88-2.63z" fill="#000"/><path d="M158.4 361.3a2.77 2.77 0 100-5.54 2.77 2.77 0 000 5.54z" fill="#B0B4B9"/><path opacity=".15" d="M157.38 358.53c0-1.23.8-2.25 1.88-2.62a2.76 2.76 0 00-3.68 2.62 2.76 2.76 0 003.68 2.62 2.78 2.78 0 01-1.88-2.62z" fill="#000"/><path d="M92.88 294.23l5.72-3.74h110.58v1.71l-116.3 2.03z" fill="#B0B4B9"/><path d="M70.67 400.16L67.89 431a1.84 1.84 0 001.76 2.2c.75 0 1.44-.48 1.71-1.24l8.06-31.8h-8.75z" fill="#D8DBDD"/><path d="M71.69 418.12l3.36-.8 4.33-17.1h-8.76l-2.78 30.84c-.15.86.33 1.7 1.07 2.03l2.78-14.97z" fill="#B0B4B9"/><path d="M102.12 400.16L99.35 431a1.84 1.84 0 001.76 2.2c.75 0 1.44-.48 1.7-1.24l8.07-31.8h-8.76z" fill="#D8DBDD"/><path d="M105.05 403.58l5.02-.96.86-2.46h-8.76L99.4 431c-.16.86.32 1.71 1.07 2.03l4.58-29.45z" fill="#B0B4B9"/><path d="M171.43 400.16L174.2 431a1.84 1.84 0 01-1.76 2.2c-.74 0-1.44-.48-1.7-1.24l-8.07-31.8h8.76z" fill="#D8DBDD"/><path d="M169.88 416.57l2.99-.75-1.44-15.66h-8.76l8.06 31.8c.27.75.97 1.24 1.71 1.24h.1l-2.66-16.63z" fill="#B0B4B9"/><path d="M203.73 400.16l2.78 30.84a1.84 1.84 0 01-1.76 2.2c-.75 0-1.44-.48-1.7-1.24l-8.07-31.8h8.75z" fill="#D8DBDD"/><path d="M200.31 402.84l3.85-.7-.43-1.98h-8.75l8.06 31.8c.27.75.96 1.24 1.7 1.24h.11l-4.54-30.36z" fill="#B0B4B9"/><path d="M132.73 274.46h-17.92v12.4h17.92v-12.4z" fill="#D8DBDD"/><path d="M132.73 274.46H84.96V286.86h29.86v-9.1h17.91v-3.3zM155.27 286.86h-11.21a3.1 3.1 0 010-6.2h11.21v6.2z" fill="#B0B4B9"/><path d="M189.02 286.86h-33.75v-6.2h33.75a3.1 3.1 0 010 6.2z" fill="#D8DBDD"/><path d="M166.89 282.18h-15.17v-1.52h15.17a.76.76 0 010 1.52zM105.4 47.39h81.72c1.01 0 1.84.82 1.84 1.84v188.12c0 1.02-.83 1.84-1.84 1.84H105.4a1.84 1.84 0 01-1.84-1.84V49.22c0-1.01.82-1.83 1.84-1.83z" fill="#B0B4B9"/><path d="M109.11 47.39h81.71c1.02 0 1.84.82 1.84 1.84v188.12c0 1.02-.82 1.84-1.84 1.84h-81.7a1.84 1.84 0 01-1.85-1.84V49.22c0-1.01.82-1.83 1.84-1.83z" fill="#D8DBDD"/><path d="M125.31 81.96h-3.47v89.34h3.47V81.96z" fill="#B0B4B9"/><path d="M185.23 95.19v-3.48h-71.97v3.48h71.97zM145.14 101.1h-15.29v15.31h15.29v-15.3zM168.17 120.7h-15.3V136h15.3v-15.3zM186.79 103.1h-15.3v15.3h15.3v-15.3zM181.45 143.81h-15.29v15.3h15.3v-15.3z" fill="#B0B4B9"/><path d="M397 134.71c0-1.49.3-2.92.81-4.23-12.18-7.8-27.86-10.86-42.3-10.86-14.44 0-30.12 3.07-42.3 10.86a11.54 11.54 0 01-10.67 15.78c.28 18.63 2.1 40.84 11.04 57.88 9.65 18.4 28.96 31.16 41.93 37.03 12.97-5.87 32.28-18.64 41.93-37.03 8.94-17.04 10.76-39.25 11.05-57.88A11.54 11.54 0 01397 134.7z" fill="#139988"/><path opacity=".5" d="M397 134.71c0-1.49.3-2.92.81-4.23-12.18-7.8-27.86-10.86-42.3-10.86-14.44 0-30.12 3.07-42.3 10.86a11.54 11.54 0 01-10.67 15.78c.28 18.63 2.1 40.84 11.04 57.88 9.65 18.4 28.96 31.16 41.93 37.03 12.97-5.87 32.28-18.64 41.93-37.03 8.94-17.04 10.76-39.25 11.05-57.88A11.54 11.54 0 01397 134.7z" fill="#fff"/><path d="M355.5 231.54c-12.31-6.28-26.85-17.32-34.25-31.43-7.35-14-9.33-32.54-9.88-47.26a20.25 20.25 0 0011.3-17.76c9.02-4.41 20.45-6.81 32.84-6.81 12.38 0 23.82 2.4 32.84 6.81a20.26 20.26 0 0011.3 17.76c-.56 14.72-2.54 33.26-9.88 47.26-7.4 14.11-21.94 25.15-34.26 31.43z" fill="#139988"/><path d="M355.5 231.54c-12.31-6.28-26.85-17.32-34.25-31.43-7.35-14-9.33-32.54-9.88-47.26a20.25 20.25 0 0011.3-17.76c9.02-4.41 20.45-6.81 32.84-6.81 12.38 0 23.82 2.4 32.84 6.81a20.26 20.26 0 0011.3 17.76c-.56 14.72-2.54 33.26-9.88 47.26-7.4 14.11-21.94 25.15-34.26 31.43z" fill="#139988"/><path opacity=".7" d="M355.5 228.25c-11.52-5.88-25.14-16.22-32.07-29.43-6.87-13.1-8.73-30.46-9.25-44.24a18.97 18.97 0 0010.59-16.63c8.44-4.13 19.15-6.37 30.74-6.37s22.3 2.24 30.74 6.37a18.98 18.98 0 0010.58 16.63c-.52 13.78-2.37 31.14-9.25 44.24-6.93 13.21-20.54 23.55-32.07 29.43z" fill="#fff"/><path d="M385.66 161.12l-4.38-4.38a2.56 2.56 0 00-1.68-.63h-3.55l.6 2-24.38 24.52-10.69-10.7c-.97-.84-2.42-.84-3.28 0l-4.37 4.38c-.85.98-.85 2.44 0 3.29l15.62 15.63-.9 1.75h3.5c.6 0 1.2-.24 1.7-.73l31.8-31.84c.86-.98.86-2.44 0-3.29z" fill="#139988"/><path opacity=".5" d="M385.66 161.12l-4.38-4.38a2.56 2.56 0 00-1.68-.63h-3.55l.6 2-24.38 24.52-10.69-10.7c-.97-.84-2.42-.84-3.28 0l-4.37 4.38c-.85.98-.85 2.44 0 3.29l15.62 15.63-.9 1.75h3.5c.6 0 1.2-.24 1.7-.73l31.8-31.84c.86-.98.86-2.44 0-3.29z" fill="#fff"/><path d="M399.66 152.87v-.01l-.5-.27.5.28z" fill="#FFD16E"/><path d="M347.13 196.24L330.5 179.6c-.85-.85-.85-2.3 0-3.28l4.37-4.38c.85-.85 2.31-.85 3.28 0l10.69 10.7 25.73-25.89c.86-.85 2.31-.85 3.28 0l4.38 4.38c.85.85.85 2.3 0 3.28l-31.82 31.84c-.97.97-2.43.97-3.28 0z" fill="#fff"/><path d="M405.5 155.47c-.46-.88 0-1.96.96-2.22l5.97-1.65c.58-.16 1.2.16 1.4.74l.65 1.82c.26.72-.24 1.49-1 1.55l-6.47.58a1.54 1.54 0 01-1.51-.82zM403.54 162.22a1.86 1.86 0 011.9-1.89l.73.02c.03.07.1.13.2.15l3.78.62c.74.14 1.7.3 2.44.23l1.67-.22h.02c.04-.01.08-.03.1-.06.07.1.12.22.15.34l.48 1.8c.2.73-.32 1.47-1.07 1.54l-1.77.18c-.63.06-1.27.04-1.9-.06l-5.16-.83a1.88 1.88 0 01-1.57-1.82z" fill="#F99A9A"/><path d="M414.25 161.13l-1.66.22c-.75.07-1.7-.1-2.44-.23l-4.34-.78 3.46.07.98.16c.7.15 1.6.3 2.28.23l1.35-.18c.2.1.38.26.5.45a.29.29 0 01-.1.06h-.02z" fill="#F99A9A"/><path d="M410.25 160.57l-.98-.16 4.1.08c.19 0 .36.05.52.13l-1.35.18a8.85 8.85 0 01-2.29-.23zM411.1 165.55l-6.17-.99c.22-.25.55-.4.9-.41l5.33.85 1.7-.15c.21.12.37.3.47.51l-2.15.2h-.08z" fill="#F99A9A"/><path d="M404.63 165.27c.02-.27.13-.52.3-.7l6.17.98h.07l2.16-.19c.1.2.15.43.12.66l-.13 1.24a1.23 1.23 0 01-1.56 1.05l-6.23-1.75c-.57-.16-.95-.7-.9-1.29z" fill="#F99A9A"/><path opacity=".15" d="M414.25 161.13l-1.66.22c-.75.07-1.7-.1-2.44-.23l-4.34-.78 3.46.07.98.16c.7.15 1.6.3 2.28.23l1.35-.18c.2.1.38.26.5.45a.29.29 0 01-.1.06h-.02zM411.1 165.55l-6.17-.99c.22-.25.55-.4.9-.41l5.33.85 1.7-.15c.21.12.37.3.47.51l-2.15.2h-.08z" fill="#000"/><path d="M405.51 156.46a.28.28 0 01-.15-.15c.21-.12.46-.2.74-.21l1.25.22.6-.06h.18l5.48-.5c.35.03.66.21.87.48l-6.3.57c-.9.07-1.82-.05-2.67-.35z" fill="#F99A9A"/><path d="M407.96 156.26l2.88-.26 2.61-.24h.16l-5.48.5h-.17zM405.36 156.31c.03.07.08.12.15.15.85.3 1.77.42 2.67.35l6.3-.57c.1.14.19.3.23.48l.51 2.34c.15.71-.32 1.4-1.03 1.49l-1.47.2c-.72.1-1.45.05-2.16-.13l-3.97-.66a2.5 2.5 0 01-1.96-1.63c-.3-.79.05-1.63.73-2.02z" fill="#F99A9A"/><path opacity=".15" d="M405.51 156.46a.28.28 0 01-.15-.15c.21-.12.46-.2.74-.21l1.25.22.6-.06h.18l5.48-.5c.35.03.66.21.87.48l-6.3.57c-.9.07-1.82-.05-2.67-.35z" fill="#000"/><path d="M533.59 319.15h-12.32l17.03 113.84h6.9l-11.61-113.84z" fill="#B0B4B9"/><path d="M545.2 432.99h-4.93l-11.26-92.77-4.57.04-.4-2.7 3-13.05a2.79 2.79 0 00-2.52-2.44l-2.88-.27-.37-2.61h12.31l11.62 113.8z" fill="#84888F"/><path d="M580.02 319.15H567.7l15.82 113.84h6.91l-10.42-113.84zM464.66 432.99h7.07l15.9-113.84h-12.49l-10.48 113.84z" fill="#B0B4B9"/><path d="M590.44 432.99h-4.97l-8.89-67.7-2.75-1.58-5.76-41.95-.37-2.61h12.36l10.38 113.84zM467.26 432.99l8.64-67.16-3.1-2.16 2.81-25.19-2.25-.03.25-2.68h2.3l1.88-16.66h9.83l-15.88 113.88h-4.48z" fill="#84888F"/><path d="M581.63 215.44h-60.5a7.71 7.71 0 00-7.7 7.72v107.19a7.71 7.71 0 007.7 7.71h60.5V215.44z" fill="#B0B4B9"/><path d="M581.5 326.29H471.57a5.9 5.9 0 000 11.81H581.5V326.3z" fill="#B0B4B9"/><path d="M589.42 326.29h-57.9a5.9 5.9 0 000 11.81h57.9V326.3z" fill="#84888F"/><path d="M583.52 215.44a5.9 5.9 0 00-5.9 5.9v113.29A3.38 3.38 0 00581 338h5.03a3.38 3.38 0 003.38-3.38V221.35a5.9 5.9 0 00-5.9-5.91z" fill="#84888F"/><path d="M470.35 294.18l8.92-61.5a15.63 15.63 0 0111.81-12.93l23.85-5.67 24.03.22 22.2 5.3a15.63 15.63 0 0111.81 17.55l-2.58 17.04-4.37 9.46a11.2 11.2 0 00-.49 1.6l-4.05 22.18c-.72 3.93-4.15 6.13-8.12 6.13l-83.01.62z" fill="#21252B"/><path d="M567.53 229.08a.4.4 0 01-.27-.1l-2.45-2.3a.4.4 0 01-.01-.57.4.4 0 01.57-.01l2.44 2.29c.16.15.17.4.02.57a.4.4 0 01-.3.12z" fill="#fff"/><path d="M565.16 229.16a.4.4 0 01-.29-.68l2.3-2.44a.4.4 0 01.57-.02c.16.15.16.4.01.57l-2.29 2.45a.4.4 0 01-.3.12zM538.9 239.73a.4.4 0 01-.27-.11l-2.45-2.3a.4.4 0 11.55-.58l2.45 2.3c.16.15.17.4.01.56a.4.4 0 01-.3.13z" fill="#fff"/><path d="M536.53 239.8a.4.4 0 01-.29-.68l2.3-2.44a.4.4 0 01.56-.02c.16.15.17.4.02.57l-2.3 2.44a.4.4 0 01-.29.13zM514.5 229.11a2.95 2.95 0 11.02-5.9 2.95 2.95 0 01-.01 5.9zm0-5.1a2.15 2.15 0 10.01 4.3 2.15 2.15 0 000-4.3zM522.3 271.66a.4.4 0 01-.4-.4 2.15 2.15 0 00-4.3 0 .4.4 0 11-.8 0 2.95 2.95 0 015.9 0 .4.4 0 01-.4.4zM486.16 232.26a.4.4 0 01-.4-.4c0-1.18-.95-2.15-2.13-2.15s-2.13.96-2.13 2.15a.4.4 0 11-.8 0 2.95 2.95 0 012.94-2.95 2.95 2.95 0 012.93 2.95.42.42 0 01-.4.4zM482.69 271.66a2.96 2.96 0 010-5.9 2.95 2.95 0 010 5.9zm0-5.1a2.15 2.15 0 100 4.31 2.15 2.15 0 000-4.3zM506.9 249.39a.4.4 0 01-.4-.4c0-.99.75-1.39 1.29-1.68.48-.26.68-.4.68-.65a.4.4 0 01.8 0c0 .76-.6 1.1-1.1 1.36-.55.3-.86.49-.86.97a.4.4 0 01-.4.4zM506.9 244.73a.4.4 0 01-.4-.4c0-.99.75-1.39 1.29-1.68.48-.26.68-.4.68-.65a.4.4 0 01.8 0c0 .76-.6 1.1-1.1 1.35-.55.3-.86.5-.86.98a.4.4 0 01-.4.4z" fill="#fff"/><path d="M508.87 247.06a.4.4 0 01-.4-.4c0-.26-.2-.4-.69-.65-.54-.3-1.28-.7-1.28-1.68a.4.4 0 11.8 0c0 .49.33.7.86.98.5.26 1.1.6 1.1 1.35a.4.4 0 01-.4.4zM508.87 242.4a.4.4 0 01-.4-.4c0-.26-.2-.4-.69-.65-.54-.3-1.28-.7-1.28-1.68a.4.4 0 11.8 0c0 .49.33.7.86.98.5.26 1.1.6 1.1 1.35a.4.4 0 01-.4.4zM488.7 249.86h-5.74a.4.4 0 010-.8h5.74a.4.4 0 110 .8zM540.2 223.23h-5.75a.4.4 0 010-.8h5.75c.22 0 .4.18.4.4a.4.4 0 01-.4.4zM561.22 243.93a.4.4 0 01-.28-.68l4.06-4.07a.4.4 0 01.57 0 .4.4 0 010 .57l-4.06 4.07a.42.42 0 01-.29.11zM518.16 230.93a2.63 2.63 0 110-5.26 2.63 2.63 0 010 5.26zm0-5.1a2.48 2.48 0 100 4.95 2.48 2.48 0 000-4.95zM526.03 273.4h-.16a2.48 2.48 0 00-4.94 0h-.16a2.63 2.63 0 015.26 0zM489.9 234h-.16c0-1.36-1.1-2.47-2.46-2.47a2.46 2.46 0 00-2.45 2.47h-.16a2.62 2.62 0 012.62-2.63c1.43 0 2.6 1.18 2.6 2.63zM486.34 273.48a2.63 2.63 0 110-5.26 2.63 2.63 0 010 5.26zm0-5.1a2.47 2.47 0 10.01 4.95 2.47 2.47 0 000-4.94zM510.64 251.13h-.16c0-.8.59-1.12 1.12-1.4.45-.25.85-.46.85-.93h.15c0 .57-.47.83-.93 1.07-.51.27-1.03.56-1.03 1.26zM510.64 246.47h-.16c0-.8.59-1.12 1.12-1.4.45-.25.85-.46.85-.93h.15c0 .57-.47.83-.93 1.07-.51.28-1.03.55-1.03 1.26z" fill="#fff"/><path d="M512.6 248.8h-.16c0-.47-.4-.68-.85-.93-.52-.28-1.11-.6-1.11-1.4h.15c0 .7.52.98 1.03 1.26.46.24.94.5.94 1.07zM512.6 244.14h-.16c0-.47-.4-.68-.85-.93-.52-.28-1.11-.6-1.11-1.4h.15c0 .7.52.98 1.03 1.26.46.24.94.5.94 1.07zM492.36 251.52h-5.75v.16h5.75v-.16zM543.85 224.9h-5.74v.15h5.74v-.16zM568.88 241.55l-4.07 4.07.11.1 4.07-4.06-.12-.1zM529.18 255.43c-.1 0-.2 0-.31-.03a1.4 1.4 0 01-.44-2.56 1.4 1.4 0 111.5 2.38c-.22.14-.48.21-.75.21zm0-2a.6.6 0 00-.51.93.6.6 0 00.84.18.6.6 0 00.19-.83.6.6 0 00-.52-.29zM506.5 261.17c-.1 0-.2 0-.3-.03a1.4 1.4 0 11.61-2.74 1.4 1.4 0 01-.3 2.77zm0-2a.6.6 0 10.51.28.6.6 0 00-.37-.28h-.14zM501 229.08a1.4 1.4 0 01-1.37-1.72 1.4 1.4 0 111.38 1.72zm0-2.01a.6.6 0 00-.59.47.58.58 0 00.08.46.6.6 0 00.38.27c.16.03.32 0 .46-.08a.6.6 0 00.26-.38.58.58 0 00-.07-.46.6.6 0 00-.52-.28zM550.73 229.08c-.47 0-.92-.23-1.19-.66-.2-.31-.26-.7-.17-1.06a1.4 1.4 0 112.73.62 1.4 1.4 0 01-1.37 1.1zm0-2.01a.6.6 0 00-.59.47.58.58 0 00.08.46.6.6 0 001.1-.19.58.58 0 00-.08-.46.6.6 0 00-.51-.28z" fill="#fff"/><path opacity=".15" d="M544.54 274.1l3.57-35.39c.04-.45-.58-.58-.72-.13l-11.06 36.68 8.2-1.16z" fill="#000"/><path d="M479.09 289.4c.45.54 1.25.67 1.83.22l7.89-5.8-10.04 4.6c-.04.36.1.71.32.98z" fill="#84888F"/><path opacity=".15" d="M493.04 238.53l-4.23 41.81-3.7 3.67-3.4-2.24 7.4-40.16c.77-3.3 3.93-3.57 3.93-3.08z" fill="#000"/><path d="M538.4 162.8c6.54.17 8.53 7.55 8.3 16.4-.23 8.84-2.32 13.97-8.85 13.8-6.52-.17-11.68-5.5-11.45-14.33.23-8.85 5.48-16.04 12-15.87z" fill="#3F4249"/><path d="M516.25 181.91s21.55-12.76 21.96 3.55l-.03 4.22.83 24.57c-.01.63-24.3 1.23-24.18.46l.52-4.25 1.68-12.6c-.23-1.1-.35-2.36-.31-3.76-.05-6.4-.47-12.19-.47-12.19z" fill="#F69797"/><path d="M514.54 182.85a7.18 7.18 0 100-14.35 7.18 7.18 0 000 14.35z" fill="#3F4249"/><path d="M514.16 170.35s-8.36 31.43 7.8 33.99c13.97 2.24 16.1-19.62 16.1-19.62l-.3-14.22-23.6-.15z" fill="#F69797"/><path d="M535.72 180.92c-.03 7.64-3.16 11.9-3.16 11.9-17.3-2.8-20.09.32-20.09.32s.83 8.7 7.94 10.77c7.11 2.07 18.04-2.08 18.26-11.89.05-2.42-3.57-15.62-3.57-15.62l.62 4.52z" fill="#3F4249"/><path d="M522.16 196.27c3.77.63 5.6-3.04 5.4-3.21-.23-.12-7.52 1.37-7.64 1.59-.06.22 1.17 1.53 2.24 1.62z" fill="#fff"/><path d="M533.9 166.06c.13-5.04-4.92-9.27-11.27-9.44-6.36-.16-11.62 3.8-11.75 8.84-.13 5.04 4.91 9.27 11.27 9.43 6.35.17 11.61-3.78 11.74-8.83z" fill="#3F4249"/><path d="M537.4 162.93c3.98.1 7.1 4.26 6.97 9.29-.13 5.03-3.5 10.1-7.48 10-3.97-.1-7.07-5.35-6.93-10.38.12-5.03 3.46-9.02 7.44-8.91z" fill="#3F4249"/><path opacity=".15" d="M538.38 190.71s-1.35.07-2.06-.52l2.19 3.6-.13-3.08z" fill="#000"/><path d="M536.61 182.16s2.33-2.83 5.41-1.4c3.5 1.66 2.55 9.65-3.43 9.96-3.13.18-2.46-1.63-1.87-4.06.13-2.91-.1-4.5-.1-4.5z" fill="#F69797"/><path opacity=".3" d="M542.12 182.85c-.61-.43-1.18-.6-1.7-.52-.52.1-1 .44-1.38 1.06a4.28 4.28 0 00-.63 2.17l-.07.67c0 .21.15.37.35.37.2 0 .37-.14.38-.35l.06-.67c0-.21.14-1.25.52-1.81.27-.41.59-.66.9-.76.32-.04.73.08 1.14.34.15.11.41.07.52-.09.1-.04.07-.25-.09-.41z" fill="#000"/><path d="M513.99 172.9c.61.48 1.96 1.15 1.96 1.15.15.06.38.04.45-.15.08-.2.05-.38-.15-.45 0 0-1.86-1.17-2.03-1.3-.33-.3-.86-.7-1.43-1.4a.34.34 0 00-.47-.07c-.16.1-.18.32-.08.47.54.77 1.54 1.59 1.75 1.75z" fill="#F69797"/><path opacity=".15" d="M515.93 206.48l.58-4.83c1.7 1.7 4.52 3.07 9 2.72 0 0 3.04-.14 6.31-1.8.24-.14.38-.15.52-.03.1.16.06.3-.07.41-.66.53-3.1 1.67-6.91 2.12-5.37 3.26-9.43 1.41-9.43 1.41z" fill="#000"/><path d="M509.6 183.56l-.03 1.46a5.1 5.1 0 0010.18.26l.04-1.46c0-.41-.09-.83-.34-1.15l1.98.05c-.27.3-.44.72-.45 1.13l-.03 1.46a5.1 5.1 0 0010.18.26l.04-1.45a1.86 1.86 0 00-1.83-1.92l-6.39-.17h-.05l-4.93-.13-.78-.03-5.67-.14a1.87 1.87 0 00-1.92 1.83zm13.23-.75h.05l6.4.17c.62.02 1.13.55 1.1 1.17l-.03 1.46a4.35 4.35 0 01-8.68-.28l.04-1.46a1.1 1.1 0 011.12-1.06zm-12.55.82c.01-.63.55-1.13 1.17-1.12l5.66.15.78.02c.63.02 1.13.55 1.12 1.17l-.04 1.46a4.35 4.35 0 01-8.68-.28l-.01-1.4z" fill="#21252B"/><path d="M514.81 214.25c.1-3.78 5.65-6.7 12.4-6.51 6.75.17 10.56 2.95 11.8 6.51 1.13 3.28-5.41 7.33-12.16 7.15-6.75-.17-12.14-3.37-12.04-7.15z" fill="#F69797"/><path d="M505.38 279.3l-6.5.69-13.5-1.2c-1.43.13-2.06.4-3.13 1.33l-8.33 7.46c-.54.49-.58 1.29-.13 1.83.44.53 1.25.66 1.82.22l7.9-5.8-5.14 6.07a1.3 1.3 0 00.54 2.05c.49.18.98.04 1.33-.27l6.87-6.74-5.22 5.13a1.2 1.2 0 00.4 1.97c.4.17.85.09 1.16-.14l7.31-5.35-4.95 3.66c-.58.4-.58 1.3 0 1.7.31.22.72.26 1.03.13l6.64-2.77a2.43 2.43 0 012 .04l2.55 1.25a15 15 0 006.64 1.57h4.15c5.93 0-3.44-12.83-3.44-12.83z" fill="#FA9B9B"/><path opacity=".15" d="M544.54 274.1l2.23-.18c.66-.04 1.02-.76.75-1.34l-2.36-4.77-.62 6.29z" fill="#000"/><path opacity=".15" d="M506.24 279.68l38.3-5.63 2.5-24.28 23.89 1.2-4.86 31.03a11.98 11.98 0 01-11.82 10.13H510.7l-4.45-12.45z" fill="#000"/><path d="M501.02 279.68l44.01-3.87 2.06-26.72 23.84 1.57-4.37 32.63a11.98 11.98 0 01-11.81 10.14l-49.4-1.26-4.33-12.5z" fill="#21252B"/><path d="M542.61 290.73a.4.4 0 01-.27-.11l-2.44-2.3a.4.4 0 11.55-.58l2.44 2.3c.16.15.17.4.02.56a.4.4 0 01-.3.13z" fill="#fff"/><path d="M540.25 290.8a.4.4 0 01-.28-.1.4.4 0 01-.01-.57l2.29-2.45a.4.4 0 01.57-.01c.16.15.16.4.01.56l-2.29 2.45a.4.4 0 01-.3.13zM553.92 254.93c-.1 0-.2-.04-.28-.12l-4.75-4.75a.4.4 0 01-.1-.39.4.4 0 01.28-.28l6.48-1.75a.4.4 0 01.5.5l-1.74 6.5a.4.4 0 01-.28.28h-.1zm-3.98-4.95l3.77 3.78.7-2.58.68-2.58-5.15 1.38zM553.61 278.83a.4.4 0 01-.4-.4c0-.99.74-1.39 1.28-1.68.49-.26.69-.39.69-.64a.4.4 0 11.8 0c0 .75-.61 1.09-1.1 1.35-.54.29-.87.49-.87.97a.4.4 0 01-.4.4zM553.61 274.17a.4.4 0 01-.4-.4c0-.99.74-1.39 1.28-1.67.49-.27.69-.4.69-.65a.4.4 0 11.8 0c0 .75-.61 1.09-1.1 1.35-.56.3-.87.49-.87.97a.4.4 0 01-.4.4z" fill="#fff"/><path d="M555.57 276.5a.4.4 0 01-.4-.4c0-.25-.2-.39-.68-.64-.54-.3-1.28-.7-1.28-1.68a.4.4 0 11.8 0c0 .48.32.69.86.97.49.26 1.1.6 1.1 1.35a.4.4 0 01-.4.4zM555.57 271.85a.4.4 0 01-.4-.4c0-.26-.2-.4-.68-.65-.54-.29-1.28-.7-1.28-1.68a.4.4 0 01.8 0c0 .49.32.7.86.98.49.26 1.1.59 1.1 1.35a.4.4 0 01-.4.4zM515.21 284.83a.4.4 0 01-.28-.68l4.06-4.07a.4.4 0 01.57 0 .4.4 0 010 .57l-4.07 4.06a.4.4 0 01-.28.12zM557.62 256.83l-4.95-4.95 6.75-1.81-1.8 6.76zm-4.64-4.87l4.55 4.56 1.67-6.23-6.22 1.67zM557.35 280.57h-.16c0-.8.59-1.11 1.11-1.4.46-.24.85-.45.85-.93h.16c0 .57-.47.83-.93 1.08-.5.27-1.03.55-1.03 1.25zM557.35 275.91h-.16c0-.8.59-1.11 1.11-1.4.46-.24.85-.45.85-.93h.16c0 .57-.47.83-.93 1.08-.5.27-1.03.55-1.03 1.25z" fill="#fff"/><path d="M559.3 278.25h-.15c0-.48-.4-.69-.85-.94-.52-.28-1.12-.6-1.12-1.4h.16c0 .7.52.99 1.03 1.26.46.25.93.5.93 1.07zM559.3 273.58h-.15c0-.47-.4-.68-.85-.93-.52-.28-1.12-.6-1.12-1.4h.16c0 .7.52.99 1.03 1.26.46.25.93.5.93 1.07zM522.86 282.45l-4.06 4.07.11.1 4.06-4.06-.1-.1zM565.68 262.58a1.4 1.4 0 110 0zm0-2.01a.6.6 0 00-.51.93.6.6 0 10.51-.93z" fill="#fff"/><path opacity=".6" d="M505.35 279.14l-4.33.55 4.28 12.44h5.35l-5.3-13z" fill="#000"/><path opacity=".15" d="M504.9 291.6l.7 2.2 48.92-.31c5.88 0 10.92-4.28 11.81-10.13l6.66-46.12a15.63 15.63 0 00-11.82-17.54l-4.14-.98a15.6 15.6 0 019.1 16.6l-6.13 42.9a11.98 11.98 0 01-11.81 10.13l-43.3 3.26z" fill="#000"/><path opacity=".15" d="M500.26 289.94a1.8 1.8 0 001.74-1.96l-.98-8.3 4.33 12.45h-.63c-2.32 0-4.6-.54-6.64-1.57l-3.03-1.42c.71.08 2.59.8 5.21.8z" fill="#000"/><path d="M511.28 291.77h-43.96a.68.68 0 00-.67.67v1.11c0 .36.31.67.67.67h43.96c.36 0 .67-.3.67-.67v-1.11a.66.66 0 00-.67-.67z" fill="#21252B"/><path opacity=".6" d="M511.28 291.77h-43.96a.68.68 0 00-.67.67v1.11c0 .36.31.67.67.67h43.96c.36 0 .67-.3.67-.67v-1.11a.66.66 0 00-.67-.67z" fill="#000"/><path d="M481.63 291.77H405a.68.68 0 00-.66.67v1.11c0 .36.3.67.66.67h76.64c.36 0 .67-.3.67-.67v-1.11c-.05-.36-.32-.67-.67-.67z" fill="#21252B"/><path opacity=".6" d="M405.97 292.22H484c.13 0 .22-.1.22-.23s-.09-.22-.22-.22h-78.02a.21.21 0 00-.22.23c0 .13.13.22.22.22z" fill="#000"/><path d="M481.8 291.77h-11.54c-.9 0-1.65-.63-1.83-1.52l-9.68-50.91a1.84 1.84 0 011.83-2.2h11.55c.9 0 1.65.63 1.83 1.52l9.68 50.92a1.86 1.86 0 01-1.83 2.19z" fill="#21252B"/><path opacity=".6" d="M481.8 291.77h-11.54c-.9 0-1.65-.63-1.83-1.52l-9.68-50.91a1.84 1.84 0 011.83-2.2h11.55c.9 0 1.65.63 1.83 1.52l9.68 50.92a1.86 1.86 0 01-1.83 2.19z" fill="#000"/><path d="M480.16 291.77h-74.14c-.9 0-1.65-.63-1.83-1.52l-9.68-50.91a1.84 1.84 0 011.83-2.2h74.1c.9 0 1.65.63 1.83 1.52l9.68 50.92a1.82 1.82 0 01-1.79 2.19z" fill="#21252B"/><path opacity=".6" d="M437.8 263.03c.45 1.03-.04 1.92-1.07 1.92h-.18c1.2 1.34 3.04 2.28 4.64 2.23 2.19-.04 3.21-1.83 2.23-4.01-.94-2.2-3.52-3.88-5.71-3.84-1.38.04-2.32.75-2.54 1.87 1.03.05 2.19.8 2.63 1.83z" fill="#000"/><path d="M374.5 400.99l-5.02 14.31 8.33 7.63 10.34-4.7 5.3-9.94-10.98-12.5-7.97 5.2z" fill="#FB9C9C"/><path d="M374.03 402.32l18.93 7.4 44.67-83.57h79.3v-31.97H425.8a13.91 13.91 0 00-12.85 8.63l-38.92 99.51z" fill="#139988"/><path opacity=".2" d="M374.03 402.32l18.93 7.4 44.67-83.57h79.3v-31.97H425.8a13.91 13.91 0 00-12.85 8.63l-38.92 99.51z" fill="#fff"/><path opacity=".2" d="M376.93 419.22h10.66l50.04-93.07h79.3v-31.97h-75.41a13.91 13.91 0 00-12.86 8.64l-51.73 116.4z" fill="#000"/><path d="M422.32 400.99l-5.12 14.57 8.43 7.37 9.93-4 5.71-10.64-10.98-12.5-7.97 5.2z" fill="#FB9C9C"/><path d="M422.32 400.99l18.95 7.3 44.1-82.14h56.13c6.32 0 11.43-5.13 11.43-11.44v-21.22l-79.4.69a13.91 13.91 0 00-12.85 8.63L422.32 401z" fill="#139988"/><path opacity=".2" d="M422.32 400.99l18.95 7.3 44.1-82.14h56.13c6.32 0 11.43-5.13 11.43-11.44v-21.22l-79.4.69a13.91 13.91 0 00-12.85 8.63L422.32 401z" fill="#fff"/><path opacity=".2" d="M473.11 319.36c3.2-6.24 6.75-8.09 13.75-8.09h54.62l-1.84-17.7h13.3v20.93c0 6.43-5.2 11.65-11.64 11.65h-55.88l-52 96.78-8.31-2.67 48-100.9z" fill="#000"/><path d="M386.18 416.22c-2.9 1.3-6.31 1.89-10.31-.08 0 0-1.6-4.89-6.02-2.05 0 0-5.12 5.73-12.71 7.27-10.54 2.13-11.01 7.05-11.01 7.05h43.24s-.16-6.67-.86-10.88c-.18-1.08-1.33-1.76-2.33-1.31z" fill="#000"/><path d="M357.08 419.9s4.8 2.22 7 10.95l-17.94-.73s-.5-8 10.94-10.21z" fill="#3F4249"/><path d="M346.13 433.3h43.24v-4.9h-43.24v4.9z" fill="#3F4249"/><path d="M364.91 421.91c.06.11.18.17.3.17.06 0 .12-.01.17-.04.16-.1.22-.3.12-.47a4.78 4.78 0 00-2.53-2.31c-.31.16-.63.32-.96.47.06.03.11.06.18.06.06 0 1.52.03 2.72 2.12zM367.06 420.76c.06.11.18.17.3.17.06 0 .11-.01.17-.04.16-.1.22-.3.12-.47-.9-1.58-1.97-2.15-2.65-2.35l-.83.51c.05.03.1.06.17.06.06 0 1.52.03 2.72 2.12zM369.26 419.4c.06.1.17.17.3.17.05 0 .11-.02.16-.05.17-.1.22-.3.13-.47-1-1.73-2.19-2.25-2.84-2.4l-.7.53c.07.05.14.09.23.09.06 0 1.52.03 2.72 2.13z" fill="#fff"/><path d="M362.76 428.4h-16.63l.05-.23c.02-.12.07-.23.07-.23h16.51c.13 0 .23.1.23.23s-.1.23-.23.23zM433.5 416.22c-2.9 1.3-6.3 1.89-10.3-.08 0 0-1.6-4.89-6.02-2.05 0 0-5.12 5.73-12.72 7.27-10.53 2.13-11 7.05-11 7.05h43.24s-.16-6.67-.87-10.88c-.17-1.08-1.32-1.76-2.32-1.31z" fill="#000"/><path d="M404.4 419.9s4.8 2.22 7.01 10.95l-17.95-.73s-.49-8 10.94-10.21z" fill="#3F4249"/><path d="M393.46 433.3h43.25v-4.9h-43.25v4.9z" fill="#3F4249"/><path d="M412.24 421.91c.06.11.17.17.3.17.05 0 .11-.01.16-.04.17-.1.22-.3.13-.47a4.78 4.78 0 00-2.53-2.31c-.31.16-.63.32-.96.47.05.03.11.06.18.06.06 0 1.52.03 2.72 2.12zM414.39 420.76c.06.11.18.17.3.17.05 0 .11-.01.16-.04.17-.1.22-.3.13-.47a4.7 4.7 0 00-2.65-2.35l-.83.51c.05.03.1.06.16.06.07 0 1.53.03 2.73 2.12zM416.58 419.4c.06.1.18.17.3.17.06 0 .12-.02.17-.05.16-.1.22-.3.13-.47-1-1.73-2.2-2.25-2.84-2.4l-.7.53c.06.05.14.09.23.09.05 0 1.51.03 2.71 2.13z" fill="#fff"/><path d="M410.09 428.4h-16.63l.05-.23c.02-.12.06-.23.06-.23h16.52c.12 0 .23.1.23.23s-.1.23-.23.23z" fill="#000"/><path d="M539 214.25s.46 1.84-.97 2.72c-1.6.94-7.8 5.1-16.54 2.46 0 0-2.77-.76-5.4-2.68a2.75 2.75 0 01-1.11-1.83v-.85l-2.46.58c0 .76.23 2.2 1.48 3.44.71.71 11.28 8.88 24.74 1.34 0 0 2.94-1.17 2.63-4.6l-2.36-.58z" fill="#fff"/><path d="M514.16 188.43c.77 0 1.39-.64 1.38-1.41a1.4 1.4 0 10-1.38 1.41z" fill="#21252B"/><path d="M513.5 187.53c.18 0 .33-.15.32-.33a.31.31 0 00-.32-.32.32.32 0 00-.32.33c0 .17.15.31.33.31z" fill="#fff"/><path d="M524.9 189.12a1.39 1.39 0 10-.03-2.79 1.4 1.4 0 00.02 2.8z" fill="#21252B"/><path d="M524.24 188.17c.17 0 .31-.15.31-.33a.31.31 0 00-.32-.31.32.32 0 00-.32.32c0 .17.15.32.33.32z" fill="#fff"/><path opacity=".3" d="M520.55 191.17l1.12-.15c.22-.01.37-.23.36-.45-.01-.22-.23-.37-.45-.36l-1.12.16c-.48.07-.87-.29-.95-.77-.07-.48.29-.88.77-.95.22-.01.37-.23.36-.45-.01-.21-.23-.36-.45-.35a1.6 1.6 0 00-1.42 1.83c.04.97.87 1.58 1.78 1.49z" fill="#000"/><path opacity=".15" d="M268.43 149.7l-12.94 39.17.26 14.13 12.68-46.96v-6.33z" fill="#000"/><path opacity=".6" d="M243.38 156.16l21.24 5.79 1.22-3.52-21.5-6.05-.96 3.78z" fill="#000"/><path opacity=".15" d="M329.05 223.74s-17.12-14.73-22.32-38.47c-3.7-16.84-3.98-23.8-4.2-39.02 0 0 10.03-.02 11.4-10.16.33-2.42-.07-3.91-.72-5.6 0 0 .3 8.8-6.75 11.42-2.62.98-10.98 1.3-10.98 1.3s-8.55 51.1 33.57 80.53z" fill="#000"/><path opacity=".6" d="M310.37 113.8s-3.28 8.08-11.87 7.74c-11.3-.46-11.5-8.21-11.5-8.21l-2.98.5s1.37 9.98 14.48 10.33c12.05.3 14.81-9.6 14.81-9.6l-2.94-.76z" fill="#000"/><path d="M527.88 247.19l-2.05 9.28 2.6-1.9 1.96 2.82.97-8.05-3.48-2.15zM539.42 247.19l2.05 9.28-2.61-1.9-1.95 2.82-.98-8.05 3.49-2.15z" fill="#139988"/><path d="M533.45 251.15a8.77 8.77 0 100-17.55 8.77 8.77 0 000 17.55z" fill="#139988"/><path opacity=".5" d="M533.45 251.15a8.77 8.77 0 100-17.55 8.77 8.77 0 000 17.55z" fill="#fff"/><path d="M533.45 248.7a6.32 6.32 0 100-12.64 6.32 6.32 0 000 12.63z" fill="#139988"/><path opacity=".7" d="M533.45 248.7a6.32 6.32 0 100-12.64 6.32 6.32 0 000 12.63z" fill="#fff"/><path d="M534.63 241.13l2.64.38-1.9 1.87.44 2.63-2.36-1.24-2.36 1.24.45-2.63-1.9-1.87 2.63-.38 1.18-2.4 1.18 2.4z" fill="#139988"/><path d="M675.47 434.14H20.93a.41.41 0 01-.42-.42c0-.26.2-.42.42-.42h654.59c.2 0 .42.16.42.42s-.2.42-.47.42z" fill="#ABAFB4"/></g><defs><linearGradient id="paint0_linear" x1="81.01" y1="391.18" x2="588.02" y2="-216.07" gradientUnits="userSpaceOnUse"><stop stop-color="#139988" stop-opacity=".2"/><stop offset="1" stop-color="#fff" stop-opacity="0"/></linearGradient><clipPath id="clip0"><path fill="#fff" d="M0 0h699v434H0z"/></clipPath></defs></svg>