<svg width="215" height="809" fill="none" xmlns="http://www.w3.org/2000/svg"><path d="M5 92c52 45-2 124 56 169 0 0 45 72 18 137-37 86-36-4-151 194-114 199-217 143-304 87-39-26-22-44-35-95-17-63-202-162-154-214 86-94 112-222 198-195 90 28 112-73 181-91 48-13 148-29 191 8z" fill="url(#paint0_linear)"/><defs><linearGradient id="paint0_linear" x1="-50.9" y1="30.4" x2="-571.6" y2="568.7" gradientUnits="userSpaceOnUse"><stop stop-color="#139988" stop-opacity=".1"/><stop offset="1" stop-color="#fff" stop-opacity="0"/></linearGradient></defs></svg>