<svg width="267" height="868" fill="none" xmlns="http://www.w3.org/2000/svg"><path d="M45 756c54-47-2-130 59-177 0 0 48-75 19-144-38-92-38 4-158-206-119-209-229-150-320-92-42 27-23 47-37 100-18 67-213 170-163 225 90 99 93 126 149 202 52 71 187 60 250 101 92 60 155 31 201-9z" fill="url(#paint0_linear)"/><defs><linearGradient id="paint0_linear" x1="-14.4" y1="821.4" x2="-561.3" y2="252.7" gradientUnits="userSpaceOnUse"><stop stop-color="#139988" stop-opacity=".1"/><stop offset="1" stop-color="#fff" stop-opacity="0"/></linearGradient></defs></svg>