<svg width="97" height="332" fill="none" xmlns="http://www.w3.org/2000/svg"><path d="M53 135c11-21-21-49 29-64 50-16 42 9 66 13 32 4 2 12 78 32s66 59 56 93c-5 15-13 11-29 20-19 11-35 81-57 70-38-20-47-19-75-30-27-10-35-54-53-70-27-24-23-46-15-64z" fill="url(#paint0_linear)"/><defs><linearGradient id="paint0_linear" x1="54.5" y1="160.3" x2="354.4" y2="130.2" gradientUnits="userSpaceOnUse"><stop stop-color="#139988" stop-opacity=".2"/><stop offset="1" stop-color="#fff" stop-opacity="0"/></linearGradient></defs></svg>