<svg width="253" height="868" fill="none" xmlns="http://www.w3.org/2000/svg"><path d="M222 756c-54-47 2-130-59-178 0 0-47-75-19-143 39-92 38 4 158-206s229-151 320-92c42 27 23 47 37 100 18 66 214 170 163 225-90 99-93 125-149 201-52 71-187 61-249 101-93 60-156 31-202-8z" fill="url(#paint0_linear)"/><defs><linearGradient id="paint0_linear" x1="281.7" y1="821.1" x2="828.6" y2="252.4" gradientUnits="userSpaceOnUse"><stop stop-color="#139988" stop-opacity=".1"/><stop offset="1" stop-color="#fff" stop-opacity="0"/></linearGradient></defs></svg>