<svg width="164" height="750" fill="none" xmlns="http://www.w3.org/2000/svg"><path d="M100 120c-41 58 34 125-13 186 0 0-27 85 17 144 60 79 36-13 204 160 169 173 260 89 333 9 34-36 11-50 12-106 0-68 164-217 101-258-112-73-121-98-194-158-68-56-196-12-267-36-105-35-159 9-193 59z" fill="url(#paint0_linear)"/><defs><linearGradient id="paint0_linear" x1="182.1" y1="183.2" x2="635.8" y2="429.1" gradientUnits="userSpaceOnUse"><stop stop-color="#139988" stop-opacity=".1"/><stop offset="1" stop-color="#fff" stop-opacity="0"/></linearGradient></defs></svg>