<svg width="177" height="887" fill="none" xmlns="http://www.w3.org/2000/svg"><path d="M114 206c49-52 130 7 180-53 0 0 76-45 144-14 90 42-6 38 200 165 205 127 142 234 80 324-28 40-47 21-101 33-67 15-177 207-230 155-96-94-123-98-196-156-70-55-54-189-92-253-57-95-26-157 15-201z" fill="url(#paint0_linear)"/><defs><linearGradient id="paint0_linear" x1="46.8" y1="263" x2="595.7" y2="829.7" gradientUnits="userSpaceOnUse"><stop stop-color="#139988" stop-opacity=".1"/><stop offset="1" stop-color="#fff" stop-opacity="0"/></linearGradient></defs></svg>