<svg width="229" height="809" fill="none" xmlns="http://www.w3.org/2000/svg"><path d="M210 92c-52 45 2 124-56 169 0 0-45 72-18 137 37 87 36-4 150 194 115 199 218 143 305 87 39-25 21-44 35-95 16-63 202-162 154-214-86-94-112-221-198-195-90 28-113-73-181-91-48-12-148-29-191 8z" fill="url(#paint0_linear)"/><defs><linearGradient id="paint0_linear" x1="265.6" y1="30.6" x2="786.3" y2="568.9" gradientUnits="userSpaceOnUse"><stop stop-color="#139988" stop-opacity=".1"/><stop offset="1" stop-color="#fff" stop-opacity="0"/></linearGradient></defs></svg>