<svg width="29" height="29" fill="none" xmlns="http://www.w3.org/2000/svg"><g clip-path="url(#clip0)"><g filter="url(#filter0_b)"><rect x=".61" y=".666" width="28" height="28" rx="8" fill="#139988"/></g><path d="M21.472 11.64v.438c0 4.528-3.456 9.756-9.756 9.756a9.85 9.85 0 01-5.272-1.532c.262.022.547.044.81.044a6.94 6.94 0 004.265-1.465 3.395 3.395 0 01-3.194-2.385 3.183 3.183 0 001.553-.065 3.405 3.405 0 01-2.756-3.347v-.044c.46.263.984.416 1.553.438a3.435 3.435 0 01-1.531-2.866c0-.634.175-1.225.46-1.728a9.757 9.757 0 007.065 3.587 3.108 3.108 0 01-.088-.787 3.426 3.426 0 013.435-3.435c.984 0 1.88.416 2.493 1.072a6.969 6.969 0 002.188-.831 3.534 3.534 0 01-1.51 1.903 6.57 6.57 0 001.97-.547 6.266 6.266 0 01-1.685 1.794z" fill="#fff"/></g><defs><clipPath id="clip0"><path fill="#fff" transform="translate(.61 .666)" d="M0 0h28v28H0z"/></clipPath><filter id="filter0_b" x="-3.39" y="-3.334" width="36" height="36" filterUnits="userSpaceOnUse" color-interpolation-filters="sRGB"><feFlood flood-opacity="0" result="BackgroundImageFix"/><feGaussianBlur in="BackgroundImage" stdDeviation="2"/><feComposite in2="SourceAlpha" operator="in" result="effect1_backgroundBlur"/><feBlend in="SourceGraphic" in2="effect1_backgroundBlur" result="shape"/></filter></defs></svg>