<svg width="20" height="13" fill="none" xmlns="http://www.w3.org/2000/svg"><path d="M9.9 12.04h1.14s.35-.04.52-.24c.16-.18.16-.52.16-.52s-.03-1.6.68-1.84c.7-.24 1.6 1.55 2.54 2.23.72.52 1.26.4 1.26.4l2.54-.03s1.33-.09.7-1.19c-.05-.09-.37-.8-1.89-2.3-1.59-1.55-1.37-1.3.54-3.98 1.17-1.64 1.64-2.64 1.5-3.07-.15-.4-1-.3-1-.3l-2.86.02s-.21-.03-.37.07c-.15.1-.25.32-.25.32s-.46 1.27-1.06 2.34c-1.27 2.28-1.78 2.4-1.99 2.26-.48-.33-.36-1.33-.36-2.03 0-2.2.32-3.12-.62-3.36A4.67 4.67 0 009.75.68C8.73.67 7.87.68 7.38.93c-.33.17-.58.55-.43.57.2.02.62.12.85.44.3.42.28 1.36.28 1.36s.17 2.6-.4 2.92c-.38.22-.9-.23-2.04-2.3C5.06 2.88 4.62 1.7 4.62 1.7s-.09-.22-.24-.33c-.18-.14-.44-.19-.44-.19l-2.71.02s-.4.01-.56.2c-.13.16 0 .5 0 .5s2.12 5.24 4.52 7.88c2.21 2.42 4.72 2.26 4.72 2.26z" fill="#fff"/></svg>