<svg width="29" height="29" fill="none" xmlns="http://www.w3.org/2000/svg"><g clip-path="url(#clip0)"><g filter="url(#filter0_b)"><rect x=".61" y=".666" width="28" height="28" rx="8" fill="#139988"/></g><g clip-path="url(#clip1)"><path d="M13.907 21.04h1.135s.344-.04.518-.239c.162-.183.156-.525.156-.525s-.023-1.604.685-1.84c.697-.233 1.593 1.55 2.541 2.236.718.519 1.263.405 1.263.405l2.538-.037s1.327-.087.698-1.185c-.051-.09-.367-.813-1.887-2.298-1.591-1.555-1.378-1.303.54-3.992 1.166-1.637 1.633-2.637 1.487-3.065-.139-.407-.997-.3-.997-.3l-2.855.018s-.212-.03-.37.068c-.153.098-.252.323-.252.323s-.452 1.268-1.055 2.345c-1.272 2.274-1.782 2.394-1.99 2.253-.483-.329-.362-1.323-.362-2.028 0-2.204.317-3.123-.618-3.36-.312-.079-.54-.131-1.334-.14-1.019-.011-1.882.004-2.37.255-.326.167-.576.541-.423.562.188.027.616.122.843.447.293.418.283 1.361.283 1.361s.168 2.594-.394 2.916c-.385.222-.914-.23-2.048-2.293-.58-1.057-1.02-2.226-1.02-2.226s-.085-.217-.235-.333c-.183-.142-.44-.187-.44-.187L5.23 10.2s-.407.012-.557.199c-.133.166-.01.508-.01.508s2.125 5.235 4.532 7.874c2.207 2.418 4.713 2.26 4.713 2.26z" fill="#fff"/></g></g><defs><clipPath id="clip0"><path fill="#fff" transform="translate(.61 .666)" d="M0 0h28v28H0z"/></clipPath><clipPath id="clip1"><path fill="#fff" transform="translate(4.61 3.666)" d="M0 0h20v20H0z"/></clipPath><filter id="filter0_b" x="-3.39" y="-3.334" width="36" height="36" filterUnits="userSpaceOnUse" color-interpolation-filters="sRGB"><feFlood flood-opacity="0" result="BackgroundImageFix"/><feGaussianBlur in="BackgroundImage" stdDeviation="2"/><feComposite in2="SourceAlpha" operator="in" result="effect1_backgroundBlur"/><feBlend in="SourceGraphic" in2="effect1_backgroundBlur" result="shape"/></filter></defs></svg>