<svg width="73" height="243" viewBox="0 0 73 243" fill="none" xmlns="http://www.w3.org/2000/svg">
<path d="M66.0194 3.25882C43.7204 10.0782 49.4811 42.1983 24.9906 48.3228C24.9906 48.3228 0.987332 64.3629 0.484904 88.5207C-0.187099 120.832 12.2231 92.2501 20.2933 170.386C28.3636 248.523 68.6324 245.339 103.476 239.927C119.348 237.462 116.38 229.115 127.658 215.099C141.661 197.698 213.422 192.687 205.709 169.668C191.867 128.355 194.497 120.03 187.918 90.0947C181.78 62.1674 140.234 47.6492 126.931 27.2796C107.283 -2.80638 84.6988 -2.45358 66.0194 3.25882Z" fill="url(#paint0_linear)"/>
<defs>
<linearGradient id="paint0_linear" x1="90.5242" y1="8.21446" x2="14.7668" y2="299.893" gradientUnits="userSpaceOnUse">
<stop stop-color="#139988" stop-opacity="0.2"/>
<stop offset="1" stop-color="white" stop-opacity="0"/>
</linearGradient>
</defs>
</svg>
