<svg width="180" height="160" fill="none" xmlns="http://www.w3.org/2000/svg"><path d="M15.702 111.116c.506 3.872.862 6.05 1.869 9.824 2.442 9.151 7.137 13.148 13.936 19.743 8.467 8.214 13.3 11.811 25.094 11.512 12.327-.312 20.205-3.396 29.332-11.688 5.621-5.108 6.228-10.163 11.23-15.879 19.866-22.702 65.578-21.814 70.22-32.193 2.425-5.42 2.863-14.617.613-23.529-2.806-11.112-8.503-20.149-16.344-24.375-18.148-9.78-19.607-20.152-35.944-25.735-15.416-5.267-25.574-4.86-41.655-2.253-11.858 1.921-19.41 2.688-29.215 9.63C33.456 34.23 30.202 42.789 24.46 55.499c-4.673 10.345-6.213 16.747-7.91 27.971-1.616 10.68-2.25 16.936-.848 27.646zM133.442 139.918c3.942 1.512 4.952 4.444 7.395 7.888 1.051 1.481 2.465 3.944 2.465 3.944.423 3.525-3.636 4.525-6.902 5.917-4.251 1.811-7.679 2.024-11.833 0-4.327-2.109-7.454-5.048-7.395-9.861.086-7.061 9.677-10.417 16.27-7.888z" fill="#139988"/><path d="M82.582 80.832c0 7.078-1.465 12.493-4.395 16.243-2.93 3.749-7.218 5.624-12.867 5.624-5.578 0-9.844-1.839-12.797-5.52-2.953-3.679-4.465-8.952-4.535-15.82v-9.421c0-7.149 1.477-12.575 4.43-16.278 2.976-3.703 7.254-5.554 12.832-5.554 5.578 0 9.844 1.84 12.797 5.52 2.953 3.656 4.465 8.917 4.535 15.784v9.422zm-10.16-10.336c0-4.242-.586-7.324-1.758-9.246-1.148-1.945-2.953-2.918-5.414-2.918-2.39 0-4.16.926-5.309 2.778-1.125 1.828-1.722 4.699-1.793 8.613v12.445c0 4.172.563 7.278 1.688 9.317 1.148 2.015 2.976 3.023 5.484 3.023 2.485 0 4.278-.973 5.38-2.918 1.1-1.945 1.675-4.922 1.722-8.93V70.496zm18.562 6.329l2.953-26.016h28.688v8.473h-20.356l-1.265 11.003a16.106 16.106 0 017.699-1.933c4.875 0 8.695 1.511 11.461 4.535 2.766 3.023 4.148 7.254 4.148 12.691 0 3.305-.703 6.27-2.109 8.895-1.383 2.602-3.375 4.629-5.977 6.082-2.601 1.43-5.671 2.144-9.211 2.144-3.093 0-5.964-.621-8.613-1.863-2.648-1.265-4.746-3.035-6.293-5.308-1.523-2.274-2.332-4.864-2.426-7.77h10.055c.211 2.133.949 3.797 2.215 4.992 1.289 1.172 2.965 1.758 5.027 1.758 2.297 0 4.067-.82 5.309-2.46 1.242-1.665 1.863-4.009 1.863-7.032 0-2.906-.715-5.133-2.144-6.68-1.43-1.547-3.457-2.32-6.082-2.32-2.414 0-4.371.633-5.871 1.898l-.985.914-8.086-2.004z" fill="#fff"/></svg>