<svg width="179" height="138" fill="none" xmlns="http://www.w3.org/2000/svg"><path d="M146.603 19.72c-3.999-1.534-5.023-4.508-7.5-8-1.066-1.503-2.5-4-2.5-4-.429-3.575 3.687-4.59 7-6 4.311-1.837 7.787-2.053 12 0 4.388 2.138 7.559 5.118 7.5 10-.088 7.16-9.814 10.564-16.5 8zM4.707 91.146c-3.426-16.04-6.788-27.068 0-42 6.994-15.386 16.269-25.61 33-28 31.5-4.5 32.522-14.387 49-4.5 17.5 10.5 18.642 20 34.5 20 23.5 0 54 5 57 16 3.289 12.06-31.043 41.99-49.5 53.5-46.5 29-43 25.5-65.5 30-15.387 3.077-31.715-2.196-40.5-10-11.444-10.166-14.803-20.031-18-35z" fill="#139988"/><path d="M66.324 78.556c0 7.078-1.465 12.492-4.395 16.242-2.93 3.75-7.219 5.625-12.867 5.625-5.578 0-9.844-1.84-12.797-5.52-2.953-3.68-4.465-8.953-4.535-15.82v-9.422c0-7.148 1.476-12.574 4.43-16.277 2.976-3.703 7.254-5.555 12.832-5.555 5.578 0 9.843 1.84 12.797 5.52 2.953 3.656 4.464 8.918 4.535 15.785v9.422zM56.164 68.22c0-4.242-.586-7.325-1.758-9.246-1.149-1.946-2.953-2.918-5.414-2.918-2.39 0-4.16.925-5.309 2.777-1.125 1.828-1.723 4.7-1.793 8.613v12.446c0 4.172.563 7.277 1.688 9.316 1.148 2.016 2.976 3.023 5.484 3.023 2.484 0 4.277-.972 5.379-2.917 1.101-1.946 1.676-4.922 1.723-8.93V68.22zm52.136 31.5H73.214v-6.961L89.773 75.11c2.273-2.484 3.95-4.652 5.027-6.504 1.102-1.851 1.653-3.609 1.653-5.273 0-2.273-.575-4.055-1.723-5.344-1.148-1.312-2.79-1.968-4.922-1.968-2.297 0-4.113.796-5.45 2.39-1.312 1.57-1.968 3.645-1.968 6.223H72.195c0-3.117.738-5.965 2.215-8.543 1.5-2.578 3.609-4.594 6.328-6.047 2.719-1.477 5.8-2.215 9.246-2.215 5.273 0 9.363 1.266 12.269 3.797 2.93 2.531 4.395 6.105 4.395 10.723 0 2.53-.656 5.109-1.969 7.734-1.312 2.625-3.562 5.684-6.75 9.176l-11.636 12.27H108.3v8.19z" fill="#fff"/></svg>