<svg width="292" height="872" fill="none" xmlns="http://www.w3.org/2000/svg"><path d="M6.744 774.876c58.51-34.792 19.913-121.886 85.119-156.225 0 0 56.952-62.121 41.635-130.975-20.487-92.093-35.871-2.441-112.906-218.426C-56.444 53.266-168.431 90.2-263.488 129.695c-43.301 17.991-29.1 39.604-51.37 87.164-27.65 59.052-227.675 122.993-189.851 182.925 67.885 107.561 66.195 132.99 105.598 213.322 36.758 74.942 164.637 87.32 216.476 135.865 76.568 71.7 140.368 55.049 189.38 25.905z" fill="url(#paint0_linear)"/><defs><linearGradient id="paint0_linear" x1="-59.447" y1="825.8" x2="-475.604" y2="203.102" gradientUnits="userSpaceOnUse"><stop stop-color="#139988" stop-opacity=".09"/><stop offset="1" stop-color="#fff" stop-opacity="0"/></linearGradient></defs></svg>