<svg width="54" height="227" fill="none" xmlns="http://www.w3.org/2000/svg"><path d="M16.068 2.947C-5.034-6.976-22.337 20.691-44.596 8.781c0 0-28.557-4.236-45.153 13.325-22.198 23.49 6.192 10.647-40.304 73.96-46.497 63.312-14.523 87.998 14.928 107.388 13.416 8.833 16.822.656 34.591-2.154 22.062-3.489 78.597 40.993 88.341 18.758 17.49-39.907 25.03-44.308 40.26-70.906 14.208-24.814-6.825-63.473-3-87.5 5.647-35.486-11.323-50.392-29-58.705z" fill="url(#paint0_linear)"/><defs><linearGradient id="paint0_linear" x1="30.896" y1="23.076" x2="-221.124" y2="188.308" gradientUnits="userSpaceOnUse"><stop stop-color="#139988" stop-opacity=".2"/><stop offset="1" stop-color="#fff" stop-opacity="0"/></linearGradient></defs></svg>