<svg width="264" height="735" fill="none" xmlns="http://www.w3.org/2000/svg"><path d="M148.532 346.523c-5.875-81.063-52-140 0-206 28.024-35.568 126.028-22.694 186.001-66C441.801-2.935 534.772 300.168 534.772 300.168s-22.827 443.633-58.24 432.355c-35.412-11.278-58.964-29.563-88-54-32.193-27.094-132.851-135.597-152-176-37.082-78.242-77.974-17.693-88-156z" fill="url(#paint0_linear)"/><path d="M148.532 346.523c-5.875-81.063-52-140 0-206 28.024-35.568 126.028-22.694 186.001-66C441.801-2.935 534.772 300.168 534.772 300.168s-22.827 443.633-58.24 432.355c-35.412-11.278-58.964-29.563-88-54-32.193-27.094-132.851-135.597-152-176-37.082-78.242-77.974-17.693-88-156z" fill="url(#paint1_linear)"/><defs><linearGradient id="paint0_linear" x1="159.312" y1="209.37" x2="378.683" y2="1033.79" gradientUnits="userSpaceOnUse"><stop stop-color="#CFFFF9" stop-opacity=".33"/><stop offset=".465" stop-color="#E8FFFC" stop-opacity=".157"/><stop offset=".696" stop-color="#fff" stop-opacity="0"/></linearGradient><linearGradient id="paint1_linear" x1="457.353" y1="492.586" x2="347.466" y2="451.033" gradientUnits="userSpaceOnUse"><stop stop-color="#fff"/><stop offset="1" stop-color="#fff" stop-opacity="0"/></linearGradient></defs></svg>